<svg width="615" height="461" viewBox="0 0 615 461" fill="none" xmlns="http://www.w3.org/2000/svg">
<mask id="path-1-inside-1_783_518" fill="white">
<path d="M310 42C310 30.9543 318.98 21.8899 329.963 23.0628C356.869 25.936 382.92 34.5938 406.295 48.534C435.414 65.8998 459.294 90.8166 475.408 120.646C491.522 150.476 499.27 184.108 497.831 217.981C496.675 245.172 489.634 271.706 477.287 295.784C472.247 305.613 459.744 308.154 450.506 302.099L398.468 267.989C389.23 261.934 386.909 249.564 390.666 239.177C393.621 231.007 395.331 222.399 395.703 213.641C396.359 198.186 392.824 182.84 385.472 169.23C378.12 155.619 367.223 144.25 353.937 136.327C346.409 131.837 338.272 128.548 329.82 126.541C319.073 123.989 310 115.266 310 104.22V42Z"/>
</mask>
<path d="M310 42C310 30.9543 318.98 21.8899 329.963 23.0628C356.869 25.936 382.92 34.5938 406.295 48.534C435.414 65.8998 459.294 90.8166 475.408 120.646C491.522 150.476 499.27 184.108 497.831 217.981C496.675 245.172 489.634 271.706 477.287 295.784C472.247 305.613 459.744 308.154 450.506 302.099L398.468 267.989C389.23 261.934 386.909 249.564 390.666 239.177C393.621 231.007 395.331 222.399 395.703 213.641C396.359 198.186 392.824 182.84 385.472 169.23C378.12 155.619 367.223 144.25 353.937 136.327C346.409 131.837 338.272 128.548 329.82 126.541C319.073 123.989 310 115.266 310 104.22V42Z" fill="#603F87" stroke="#FCF8FF" stroke-width="10" mask="url(#path-1-inside-1_783_518)"/>
<mask id="path-2-inside-2_783_518" fill="white">
<path d="M450.178 302.596C459.395 308.685 462.009 321.173 454.976 329.691C438.344 349.837 417.645 366.355 394.153 378.114C364.681 392.867 331.848 399.613 298.947 397.675C266.046 395.737 234.232 385.184 206.695 367.074C184.746 352.638 166.129 333.805 151.976 311.846C145.993 302.561 150.054 290.466 159.922 285.502L215.916 257.332C225.784 252.368 237.653 256.554 244.773 264.998C250.05 271.256 256.221 276.748 263.118 281.284C275.615 289.503 290.052 294.292 304.984 295.171C319.915 296.051 334.815 292.989 348.19 286.294C355.572 282.599 362.345 277.87 368.32 272.275C376.382 264.724 388.661 261.961 397.877 268.049L450.178 302.596Z"/>
</mask>
<path d="M450.178 302.596C459.395 308.685 462.009 321.173 454.976 329.691C438.344 349.837 417.645 366.355 394.153 378.114C364.681 392.867 331.848 399.613 298.947 397.675C266.046 395.737 234.232 385.184 206.695 367.074C184.746 352.638 166.129 333.805 151.976 311.846C145.993 302.561 150.054 290.466 159.922 285.502L215.916 257.332C225.784 252.368 237.653 256.554 244.773 264.998C250.05 271.256 256.221 276.748 263.118 281.284C275.615 289.503 290.052 294.292 304.984 295.171C319.915 296.051 334.815 292.989 348.19 286.294C355.572 282.599 362.345 277.87 368.32 272.275C376.382 264.724 388.661 261.961 397.877 268.049L450.178 302.596Z" fill="#FFAC2F" stroke="#FCF8FF" stroke-width="10" mask="url(#path-2-inside-2_783_518)"/>
<mask id="path-3-inside-3_783_518" fill="white">
<path d="M159.765 285.19C149.888 290.134 137.763 286.16 133.896 275.814C125.03 252.09 121.024 226.751 122.201 201.314C123.686 169.198 133.383 138 150.365 110.7C167.346 83.4001 191.045 60.9115 219.197 45.383C241.493 33.0841 265.993 25.4767 291.193 22.943C302.183 21.838 311.106 30.9577 311.038 42.0032L310.653 104.39C310.584 115.436 301.457 124.102 290.696 126.593C283.024 128.369 275.602 131.202 268.65 135.037C255.83 142.108 245.038 152.349 237.305 164.781C229.572 177.212 225.156 191.42 224.48 206.045C224.113 213.975 224.852 221.885 226.651 229.552C229.174 240.306 225.434 252.324 215.556 257.267L159.765 285.19Z"/>
</mask>
<path d="M159.765 285.19C149.888 290.134 137.763 286.16 133.896 275.814C125.03 252.09 121.024 226.751 122.201 201.314C123.686 169.198 133.383 138 150.365 110.7C167.346 83.4001 191.045 60.9115 219.197 45.383C241.493 33.0841 265.993 25.4767 291.193 22.943C302.183 21.838 311.106 30.9577 311.038 42.0032L310.653 104.39C310.584 115.436 301.457 124.102 290.696 126.593C283.024 128.369 275.602 131.202 268.65 135.037C255.83 142.108 245.038 152.349 237.305 164.781C229.572 177.212 225.156 191.42 224.48 206.045C224.113 213.975 224.852 221.885 226.651 229.552C229.174 240.306 225.434 252.324 215.556 257.267L159.765 285.19Z" fill="#FF82EB" stroke="#FCF8FF" stroke-width="10" mask="url(#path-3-inside-3_783_518)"/>
<path d="M259.346 191.041L254.639 204H252.715L258.135 189.781H259.375L259.346 191.041ZM263.291 204L258.574 191.041L258.545 189.781H259.785L265.225 204H263.291ZM263.047 198.736V200.279H255.059V198.736H263.047ZM275.817 202.711C276.247 202.711 276.644 202.623 277.008 202.447C277.373 202.271 277.672 202.031 277.907 201.725C278.141 201.412 278.275 201.057 278.307 200.66H280.026C279.993 201.285 279.782 201.868 279.391 202.408C279.007 202.942 278.503 203.375 277.878 203.707C277.253 204.033 276.566 204.195 275.817 204.195C275.023 204.195 274.329 204.055 273.737 203.775C273.151 203.495 272.663 203.111 272.272 202.623C271.888 202.135 271.598 201.575 271.403 200.943C271.214 200.305 271.12 199.632 271.12 198.922V198.512C271.12 197.802 271.214 197.132 271.403 196.5C271.598 195.862 271.888 195.299 272.272 194.811C272.663 194.322 273.151 193.938 273.737 193.658C274.329 193.378 275.023 193.238 275.817 193.238C276.644 193.238 277.366 193.408 277.985 193.746C278.603 194.078 279.088 194.534 279.44 195.113C279.798 195.686 279.993 196.337 280.026 197.066H278.307C278.275 196.63 278.151 196.236 277.936 195.885C277.728 195.533 277.441 195.253 277.077 195.045C276.719 194.83 276.299 194.723 275.817 194.723C275.264 194.723 274.798 194.833 274.42 195.055C274.049 195.27 273.753 195.562 273.532 195.934C273.317 196.298 273.161 196.705 273.063 197.154C272.972 197.597 272.926 198.049 272.926 198.512V198.922C272.926 199.384 272.972 199.84 273.063 200.289C273.154 200.738 273.307 201.145 273.522 201.51C273.743 201.874 274.04 202.167 274.411 202.389C274.788 202.604 275.257 202.711 275.817 202.711ZM288.408 201.559V193.434H290.224V204H288.496L288.408 201.559ZM288.75 199.332L289.502 199.312C289.502 200.016 289.427 200.667 289.277 201.266C289.134 201.858 288.9 202.372 288.574 202.809C288.249 203.245 287.822 203.587 287.295 203.834C286.767 204.075 286.126 204.195 285.371 204.195C284.857 204.195 284.385 204.12 283.955 203.971C283.532 203.821 283.167 203.59 282.861 203.277C282.555 202.965 282.318 202.558 282.148 202.057C281.986 201.555 281.904 200.953 281.904 200.25V193.434H283.711V200.27C283.711 200.745 283.763 201.139 283.867 201.451C283.978 201.757 284.124 202.001 284.306 202.184C284.495 202.359 284.704 202.483 284.931 202.555C285.166 202.626 285.407 202.662 285.654 202.662C286.422 202.662 287.031 202.516 287.48 202.223C287.93 201.923 288.252 201.523 288.447 201.021C288.649 200.514 288.75 199.951 288.75 199.332ZM294.661 195.533V204H292.845V193.434H294.564L294.661 195.533ZM294.29 198.316L293.45 198.287C293.457 197.564 293.551 196.897 293.733 196.285C293.916 195.667 294.186 195.13 294.544 194.674C294.902 194.218 295.348 193.867 295.882 193.619C296.416 193.365 297.034 193.238 297.737 193.238C298.232 193.238 298.688 193.31 299.105 193.453C299.521 193.59 299.883 193.808 300.189 194.107C300.495 194.407 300.732 194.791 300.901 195.26C301.071 195.729 301.155 196.295 301.155 196.959V204H299.349V197.047C299.349 196.493 299.254 196.051 299.066 195.719C298.883 195.387 298.623 195.146 298.284 194.996C297.946 194.84 297.549 194.762 297.093 194.762C296.559 194.762 296.113 194.856 295.755 195.045C295.397 195.234 295.11 195.494 294.896 195.826C294.681 196.158 294.525 196.539 294.427 196.969C294.336 197.392 294.29 197.841 294.29 198.316ZM301.136 197.32L299.925 197.691C299.931 197.112 300.026 196.555 300.208 196.021C300.397 195.488 300.667 195.012 301.019 194.596C301.377 194.179 301.816 193.85 302.337 193.609C302.858 193.362 303.454 193.238 304.124 193.238C304.691 193.238 305.192 193.313 305.628 193.463C306.071 193.613 306.442 193.844 306.741 194.156C307.047 194.462 307.278 194.856 307.435 195.338C307.591 195.82 307.669 196.393 307.669 197.057V204H305.853V197.037C305.853 196.445 305.758 195.986 305.569 195.66C305.387 195.328 305.127 195.097 304.788 194.967C304.456 194.83 304.059 194.762 303.597 194.762C303.2 194.762 302.848 194.83 302.542 194.967C302.236 195.104 301.979 195.292 301.771 195.533C301.562 195.768 301.403 196.038 301.292 196.344C301.188 196.65 301.136 196.975 301.136 197.32ZM316.754 201.559V193.434H318.571V204H316.842L316.754 201.559ZM317.096 199.332L317.848 199.312C317.848 200.016 317.773 200.667 317.623 201.266C317.48 201.858 317.246 202.372 316.92 202.809C316.595 203.245 316.168 203.587 315.641 203.834C315.114 204.075 314.472 204.195 313.717 204.195C313.203 204.195 312.731 204.12 312.301 203.971C311.878 203.821 311.513 203.59 311.207 203.277C310.901 202.965 310.664 202.558 310.494 202.057C310.332 201.555 310.25 200.953 310.25 200.25V193.434H312.057V200.27C312.057 200.745 312.109 201.139 312.213 201.451C312.324 201.757 312.47 202.001 312.653 202.184C312.842 202.359 313.05 202.483 313.278 202.555C313.512 202.626 313.753 202.662 314 202.662C314.769 202.662 315.377 202.516 315.827 202.223C316.276 201.923 316.598 201.523 316.793 201.021C316.995 200.514 317.096 199.951 317.096 199.332ZM323.173 189V204H321.357V189H323.173ZM332.19 202.193V196.754C332.19 196.337 332.106 195.976 331.936 195.67C331.774 195.357 331.526 195.117 331.194 194.947C330.862 194.778 330.452 194.693 329.964 194.693C329.508 194.693 329.108 194.771 328.763 194.928C328.424 195.084 328.157 195.289 327.962 195.543C327.773 195.797 327.679 196.07 327.679 196.363H325.872C325.872 195.986 325.97 195.611 326.165 195.24C326.36 194.869 326.64 194.534 327.005 194.234C327.376 193.928 327.819 193.688 328.333 193.512C328.854 193.329 329.433 193.238 330.071 193.238C330.839 193.238 331.517 193.368 332.102 193.629C332.695 193.889 333.157 194.283 333.489 194.811C333.828 195.331 333.997 195.986 333.997 196.773V201.695C333.997 202.047 334.026 202.421 334.085 202.818C334.15 203.215 334.244 203.557 334.368 203.844V204H332.483C332.392 203.792 332.321 203.515 332.268 203.17C332.216 202.818 332.19 202.493 332.19 202.193ZM332.503 197.594L332.522 198.863H330.696C330.182 198.863 329.723 198.906 329.319 198.99C328.916 199.068 328.577 199.189 328.304 199.352C328.03 199.514 327.822 199.719 327.679 199.967C327.535 200.208 327.464 200.491 327.464 200.816C327.464 201.148 327.539 201.451 327.688 201.725C327.838 201.998 328.063 202.216 328.362 202.379C328.668 202.535 329.043 202.613 329.485 202.613C330.039 202.613 330.527 202.496 330.95 202.262C331.373 202.027 331.709 201.741 331.956 201.402C332.21 201.064 332.347 200.735 332.366 200.416L333.138 201.285C333.092 201.559 332.968 201.861 332.767 202.193C332.565 202.525 332.294 202.844 331.956 203.15C331.624 203.45 331.227 203.701 330.765 203.902C330.309 204.098 329.794 204.195 329.222 204.195C328.505 204.195 327.877 204.055 327.337 203.775C326.803 203.495 326.386 203.121 326.087 202.652C325.794 202.177 325.647 201.646 325.647 201.061C325.647 200.494 325.758 199.996 325.979 199.566C326.201 199.13 326.52 198.769 326.936 198.482C327.353 198.189 327.854 197.968 328.44 197.818C329.026 197.669 329.681 197.594 330.403 197.594H332.503ZM341.149 193.434V194.82H335.436V193.434H341.149ZM337.369 190.865H339.176V201.383C339.176 201.741 339.231 202.011 339.342 202.193C339.453 202.376 339.596 202.496 339.772 202.555C339.947 202.613 340.136 202.643 340.338 202.643C340.488 202.643 340.644 202.63 340.807 202.604C340.976 202.571 341.103 202.545 341.188 202.525L341.197 204C341.054 204.046 340.865 204.088 340.631 204.127C340.403 204.173 340.126 204.195 339.801 204.195C339.358 204.195 338.951 204.107 338.58 203.932C338.209 203.756 337.913 203.463 337.692 203.053C337.477 202.636 337.369 202.076 337.369 201.373V190.865ZM345.117 193.434V204H343.3V193.434H345.117ZM343.163 190.631C343.163 190.338 343.251 190.09 343.427 189.889C343.609 189.687 343.876 189.586 344.228 189.586C344.573 189.586 344.837 189.687 345.019 189.889C345.208 190.09 345.302 190.338 345.302 190.631C345.302 190.911 345.208 191.152 345.019 191.354C344.837 191.549 344.573 191.646 344.228 191.646C343.876 191.646 343.609 191.549 343.427 191.354C343.251 191.152 343.163 190.911 343.163 190.631ZM351.116 202.369L354.007 193.434H355.852L352.053 204H350.842L351.116 202.369ZM348.704 193.434L351.682 202.418L351.887 204H350.676L346.848 193.434H348.704ZM361.725 204.195C360.989 204.195 360.322 204.072 359.723 203.824C359.13 203.57 358.619 203.215 358.189 202.76C357.766 202.304 357.441 201.764 357.213 201.139C356.985 200.514 356.871 199.83 356.871 199.088V198.678C356.871 197.818 356.998 197.053 357.252 196.383C357.506 195.706 357.851 195.133 358.287 194.664C358.723 194.195 359.218 193.84 359.771 193.6C360.325 193.359 360.898 193.238 361.49 193.238C362.245 193.238 362.896 193.368 363.443 193.629C363.997 193.889 364.449 194.254 364.801 194.723C365.152 195.185 365.413 195.732 365.582 196.363C365.751 196.988 365.836 197.672 365.836 198.414V199.225H357.945V197.75H364.029V197.613C364.003 197.145 363.906 196.689 363.736 196.246C363.574 195.803 363.313 195.439 362.955 195.152C362.597 194.866 362.109 194.723 361.49 194.723C361.08 194.723 360.702 194.811 360.357 194.986C360.012 195.156 359.716 195.41 359.469 195.748C359.221 196.087 359.029 196.5 358.893 196.988C358.756 197.477 358.687 198.04 358.687 198.678V199.088C358.687 199.589 358.756 200.061 358.893 200.504C359.036 200.94 359.241 201.324 359.508 201.656C359.781 201.988 360.11 202.249 360.494 202.438C360.885 202.626 361.327 202.721 361.822 202.721C362.46 202.721 363.001 202.59 363.443 202.33C363.886 202.07 364.273 201.721 364.605 201.285L365.699 202.154C365.471 202.499 365.182 202.828 364.83 203.141C364.478 203.453 364.046 203.707 363.531 203.902C363.023 204.098 362.421 204.195 361.725 204.195ZM273.883 214.041L269.176 227H267.253L272.672 212.781H273.913L273.883 214.041ZM277.829 227L273.112 214.041L273.083 212.781H274.323L279.762 227H277.829ZM277.585 221.736V223.279H269.596V221.736H277.585ZM283.086 218.465V231.062H281.269V216.434H282.93L283.086 218.465ZM290.205 221.629V221.834C290.205 222.602 290.114 223.315 289.931 223.973C289.749 224.624 289.482 225.19 289.131 225.672C288.786 226.154 288.359 226.528 287.851 226.795C287.344 227.062 286.761 227.195 286.103 227.195C285.433 227.195 284.84 227.085 284.326 226.863C283.812 226.642 283.375 226.32 283.017 225.896C282.659 225.473 282.373 224.965 282.158 224.373C281.95 223.781 281.806 223.113 281.728 222.371V221.277C281.806 220.496 281.953 219.796 282.168 219.178C282.383 218.559 282.666 218.032 283.017 217.596C283.375 217.153 283.808 216.818 284.316 216.59C284.824 216.355 285.41 216.238 286.074 216.238C286.738 216.238 287.327 216.368 287.842 216.629C288.356 216.883 288.789 217.247 289.14 217.723C289.492 218.198 289.756 218.768 289.931 219.432C290.114 220.089 290.205 220.822 290.205 221.629ZM288.389 221.834V221.629C288.389 221.102 288.333 220.607 288.222 220.145C288.112 219.676 287.939 219.266 287.705 218.914C287.477 218.556 287.184 218.276 286.826 218.074C286.468 217.866 286.042 217.762 285.547 217.762C285.091 217.762 284.694 217.84 284.355 217.996C284.023 218.152 283.74 218.364 283.506 218.631C283.271 218.891 283.079 219.191 282.93 219.529C282.786 219.861 282.679 220.206 282.607 220.564V223.094C282.737 223.549 282.92 223.979 283.154 224.383C283.389 224.78 283.701 225.102 284.092 225.35C284.482 225.59 284.974 225.711 285.566 225.711C286.055 225.711 286.474 225.61 286.826 225.408C287.184 225.2 287.477 224.917 287.705 224.559C287.939 224.201 288.112 223.79 288.222 223.328C288.333 222.859 288.389 222.361 288.389 221.834ZM294.202 218.465V231.062H292.386V216.434H294.046L294.202 218.465ZM301.321 221.629V221.834C301.321 222.602 301.23 223.315 301.048 223.973C300.866 224.624 300.599 225.19 300.247 225.672C299.902 226.154 299.476 226.528 298.968 226.795C298.46 227.062 297.877 227.195 297.22 227.195C296.549 227.195 295.957 227.085 295.442 226.863C294.928 226.642 294.492 226.32 294.134 225.896C293.776 225.473 293.489 224.965 293.275 224.373C293.066 223.781 292.923 223.113 292.845 222.371V221.277C292.923 220.496 293.069 219.796 293.284 219.178C293.499 218.559 293.782 218.032 294.134 217.596C294.492 217.153 294.925 216.818 295.433 216.59C295.941 216.355 296.526 216.238 297.191 216.238C297.855 216.238 298.444 216.368 298.958 216.629C299.472 216.883 299.905 217.247 300.257 217.723C300.608 218.198 300.872 218.768 301.048 219.432C301.23 220.089 301.321 220.822 301.321 221.629ZM299.505 221.834V221.629C299.505 221.102 299.45 220.607 299.339 220.145C299.228 219.676 299.056 219.266 298.821 218.914C298.594 218.556 298.301 218.276 297.942 218.074C297.584 217.866 297.158 217.762 296.663 217.762C296.207 217.762 295.81 217.84 295.472 217.996C295.14 218.152 294.857 218.364 294.622 218.631C294.388 218.891 294.196 219.191 294.046 219.529C293.903 219.861 293.795 220.206 293.724 220.564V223.094C293.854 223.549 294.036 223.979 294.271 224.383C294.505 224.78 294.817 225.102 295.208 225.35C295.599 225.59 296.09 225.711 296.683 225.711C297.171 225.711 297.591 225.61 297.942 225.408C298.301 225.2 298.594 224.917 298.821 224.559C299.056 224.201 299.228 223.79 299.339 223.328C299.45 222.859 299.505 222.361 299.505 221.834ZM305.319 218.094V227H303.512V216.434H305.27L305.319 218.094ZM308.619 216.375L308.61 218.055C308.46 218.022 308.317 218.003 308.18 217.996C308.05 217.983 307.9 217.977 307.731 217.977C307.314 217.977 306.946 218.042 306.627 218.172C306.308 218.302 306.038 218.484 305.817 218.719C305.595 218.953 305.42 219.233 305.289 219.559C305.166 219.878 305.084 220.229 305.045 220.613L304.537 220.906C304.537 220.268 304.599 219.669 304.723 219.109C304.853 218.549 305.052 218.055 305.319 217.625C305.586 217.189 305.924 216.85 306.334 216.609C306.751 216.362 307.246 216.238 307.819 216.238C307.949 216.238 308.099 216.255 308.268 216.287C308.437 216.313 308.554 216.342 308.619 216.375ZM309.502 221.834V221.609C309.502 220.848 309.612 220.141 309.834 219.49C310.055 218.833 310.374 218.263 310.791 217.781C311.207 217.293 311.712 216.915 312.304 216.648C312.897 216.375 313.561 216.238 314.297 216.238C315.039 216.238 315.706 216.375 316.298 216.648C316.897 216.915 317.405 217.293 317.822 217.781C318.245 218.263 318.567 218.833 318.789 219.49C319.01 220.141 319.121 220.848 319.121 221.609V221.834C319.121 222.596 319.01 223.302 318.789 223.953C318.567 224.604 318.245 225.174 317.822 225.662C317.405 226.144 316.901 226.521 316.308 226.795C315.722 227.062 315.058 227.195 314.316 227.195C313.574 227.195 312.907 227.062 312.314 226.795C311.722 226.521 311.214 226.144 310.791 225.662C310.374 225.174 310.055 224.604 309.834 223.953C309.612 223.302 309.502 222.596 309.502 221.834ZM311.308 221.609V221.834C311.308 222.361 311.37 222.859 311.494 223.328C311.617 223.79 311.803 224.201 312.05 224.559C312.304 224.917 312.62 225.2 312.998 225.408C313.375 225.61 313.815 225.711 314.316 225.711C314.811 225.711 315.244 225.61 315.615 225.408C315.992 225.2 316.305 224.917 316.552 224.559C316.8 224.201 316.985 223.79 317.109 223.328C317.239 222.859 317.304 222.361 317.304 221.834V221.609C317.304 221.089 317.239 220.597 317.109 220.135C316.985 219.666 316.797 219.253 316.543 218.895C316.295 218.53 315.983 218.243 315.605 218.035C315.234 217.827 314.798 217.723 314.297 217.723C313.802 217.723 313.366 217.827 312.988 218.035C312.617 218.243 312.304 218.53 312.05 218.895C311.803 219.253 311.617 219.666 311.494 220.135C311.37 220.597 311.308 221.089 311.308 221.609ZM327.503 225.193V219.754C327.503 219.337 327.418 218.976 327.249 218.67C327.086 218.357 326.839 218.117 326.507 217.947C326.175 217.778 325.765 217.693 325.276 217.693C324.821 217.693 324.42 217.771 324.075 217.928C323.737 218.084 323.47 218.289 323.274 218.543C323.086 218.797 322.991 219.07 322.991 219.363H321.184C321.184 218.986 321.282 218.611 321.477 218.24C321.673 217.869 321.953 217.534 322.317 217.234C322.688 216.928 323.131 216.688 323.645 216.512C324.166 216.329 324.746 216.238 325.384 216.238C326.152 216.238 326.829 216.368 327.415 216.629C328.007 216.889 328.47 217.283 328.802 217.811C329.14 218.331 329.309 218.986 329.309 219.773V224.695C329.309 225.047 329.339 225.421 329.397 225.818C329.462 226.215 329.557 226.557 329.681 226.844V227H327.796C327.705 226.792 327.633 226.515 327.581 226.17C327.529 225.818 327.503 225.493 327.503 225.193ZM327.815 220.594L327.835 221.863H326.009C325.494 221.863 325.035 221.906 324.632 221.99C324.228 222.068 323.89 222.189 323.616 222.352C323.343 222.514 323.134 222.719 322.991 222.967C322.848 223.208 322.776 223.491 322.776 223.816C322.776 224.148 322.851 224.451 323.001 224.725C323.151 224.998 323.375 225.216 323.675 225.379C323.981 225.535 324.355 225.613 324.798 225.613C325.351 225.613 325.839 225.496 326.263 225.262C326.686 225.027 327.021 224.741 327.268 224.402C327.522 224.064 327.659 223.735 327.679 223.416L328.45 224.285C328.405 224.559 328.281 224.861 328.079 225.193C327.877 225.525 327.607 225.844 327.268 226.15C326.936 226.45 326.539 226.701 326.077 226.902C325.621 227.098 325.107 227.195 324.534 227.195C323.818 227.195 323.19 227.055 322.649 226.775C322.115 226.495 321.699 226.121 321.399 225.652C321.106 225.177 320.96 224.646 320.96 224.061C320.96 223.494 321.071 222.996 321.292 222.566C321.513 222.13 321.832 221.769 322.249 221.482C322.666 221.189 323.167 220.968 323.753 220.818C324.339 220.669 324.993 220.594 325.716 220.594H327.815ZM336.266 225.711C336.695 225.711 337.093 225.623 337.457 225.447C337.822 225.271 338.121 225.031 338.356 224.725C338.59 224.412 338.723 224.057 338.756 223.66H340.475C340.442 224.285 340.231 224.868 339.84 225.408C339.456 225.942 338.951 226.375 338.326 226.707C337.701 227.033 337.014 227.195 336.266 227.195C335.472 227.195 334.778 227.055 334.186 226.775C333.6 226.495 333.111 226.111 332.721 225.623C332.337 225.135 332.047 224.575 331.852 223.943C331.663 223.305 331.569 222.632 331.569 221.922V221.512C331.569 220.802 331.663 220.132 331.852 219.5C332.047 218.862 332.337 218.299 332.721 217.811C333.111 217.322 333.6 216.938 334.186 216.658C334.778 216.378 335.472 216.238 336.266 216.238C337.093 216.238 337.815 216.408 338.434 216.746C339.052 217.078 339.537 217.534 339.889 218.113C340.247 218.686 340.442 219.337 340.475 220.066H338.756C338.723 219.63 338.6 219.236 338.385 218.885C338.177 218.533 337.89 218.253 337.526 218.045C337.167 217.83 336.748 217.723 336.266 217.723C335.712 217.723 335.247 217.833 334.869 218.055C334.498 218.27 334.202 218.562 333.981 218.934C333.766 219.298 333.61 219.705 333.512 220.154C333.421 220.597 333.375 221.049 333.375 221.512V221.922C333.375 222.384 333.421 222.84 333.512 223.289C333.603 223.738 333.756 224.145 333.971 224.51C334.192 224.874 334.488 225.167 334.86 225.389C335.237 225.604 335.706 225.711 336.266 225.711ZM344.199 212V227H342.392V212H344.199ZM343.769 221.316L343.017 221.287C343.024 220.564 343.131 219.897 343.339 219.285C343.548 218.667 343.841 218.13 344.218 217.674C344.596 217.218 345.045 216.867 345.566 216.619C346.093 216.365 346.676 216.238 347.314 216.238C347.835 216.238 348.303 216.31 348.72 216.453C349.137 216.59 349.492 216.811 349.785 217.117C350.084 217.423 350.312 217.82 350.468 218.309C350.624 218.79 350.703 219.38 350.703 220.076V227H348.886V220.057C348.886 219.503 348.805 219.061 348.642 218.729C348.479 218.39 348.242 218.146 347.929 217.996C347.617 217.84 347.233 217.762 346.777 217.762C346.328 217.762 345.917 217.856 345.546 218.045C345.182 218.234 344.866 218.494 344.599 218.826C344.339 219.158 344.134 219.539 343.984 219.969C343.841 220.392 343.769 220.841 343.769 221.316Z" fill="black"/>
<circle cx="396.5" cy="75.5" r="5.5" fill="white"/>
<path d="M398.225 73.3691L446.225 14.3691L464 14.3691" stroke="#603F87" stroke-width="4"/>
<path d="M373.764 383.212L397.373 438.686L458.001 438.685" stroke="#FFAC2F" stroke-width="4"/>
<path d="M155.236 108.983L131.627 53.5091L70.9993 53.5101" stroke="#FF82EB" stroke-width="4"/>
<path d="M491.626 9.114H485.49V25H482.552V9.114H476.39V6.54H491.626V9.114ZM499.655 13.872C498.546 13.8893 497.558 14.1407 496.691 14.626C495.842 15.1113 495.235 15.796 494.871 16.68V25H492.011V11.402H494.663V14.444C495.131 13.508 495.746 12.7627 496.509 12.208C497.272 11.636 498.078 11.324 498.927 11.272C499.1 11.272 499.239 11.272 499.343 11.272C499.464 11.272 499.568 11.2807 499.655 11.298V13.872ZM500.722 21.022C500.722 20.1553 500.965 19.4013 501.45 18.76C501.953 18.1013 502.637 17.5987 503.504 17.252C504.371 16.888 505.376 16.706 506.52 16.706C507.127 16.706 507.742 16.7493 508.366 16.836C509.007 16.9227 509.571 17.0613 510.056 17.252V16.394C510.056 15.4407 509.77 14.6953 509.198 14.158C508.626 13.6207 507.803 13.352 506.728 13.352C505.965 13.352 505.246 13.4907 504.57 13.768C503.894 14.028 503.175 14.4007 502.412 14.886L501.45 12.962C502.351 12.3553 503.253 11.9047 504.154 11.61C505.073 11.3153 506.035 11.168 507.04 11.168C508.86 11.168 510.29 11.6533 511.33 12.624C512.387 13.5773 512.916 14.938 512.916 16.706V21.776C512.916 22.1053 512.968 22.3393 513.072 22.478C513.193 22.6167 513.393 22.6947 513.67 22.712V25C513.41 25.052 513.176 25.0867 512.968 25.104C512.76 25.1213 512.587 25.13 512.448 25.13C511.841 25.13 511.382 24.9827 511.07 24.688C510.758 24.3933 510.576 24.0467 510.524 23.648L510.446 22.868C509.857 23.6307 509.103 24.22 508.184 24.636C507.265 25.052 506.338 25.26 505.402 25.26C504.501 25.26 503.695 25.078 502.984 24.714C502.273 24.3327 501.719 23.8213 501.32 23.18C500.921 22.5387 500.722 21.8193 500.722 21.022ZM509.38 21.854C509.588 21.6287 509.753 21.4033 509.874 21.178C509.995 20.9527 510.056 20.7533 510.056 20.58V19.02C509.571 18.8293 509.059 18.6907 508.522 18.604C507.985 18.5 507.456 18.448 506.936 18.448C505.896 18.448 505.047 18.656 504.388 19.072C503.747 19.488 503.426 20.06 503.426 20.788C503.426 21.1867 503.53 21.568 503.738 21.932C503.963 22.296 504.275 22.5907 504.674 22.816C505.09 23.0413 505.601 23.154 506.208 23.154C506.832 23.154 507.43 23.0327 508.002 22.79C508.574 22.5473 509.033 22.2353 509.38 21.854ZM516.386 25V11.402H519.246V25H516.386ZM516.386 9.166V6.02H519.246V9.166H516.386ZM530.249 24.298C530.006 24.4193 529.703 24.5493 529.339 24.688C528.975 24.8267 528.559 24.948 528.091 25.052C527.64 25.156 527.172 25.208 526.687 25.208C526.097 25.208 525.551 25.104 525.049 24.896C524.546 24.688 524.139 24.3587 523.827 23.908C523.532 23.44 523.385 22.842 523.385 22.114V13.612H521.591V11.402H523.385V6.93H526.245V11.402H529.209V13.612H526.245V21.204C526.279 21.672 526.427 22.0187 526.687 22.244C526.964 22.4693 527.302 22.582 527.701 22.582C528.099 22.582 528.481 22.5127 528.845 22.374C529.209 22.2353 529.477 22.1227 529.651 22.036L530.249 24.298Z" fill="#603F87"/>
<path d="M486.401 432.114H480.265V448H477.327V432.114H471.165V429.54H486.401V432.114ZM491.933 448.26C490.875 448.26 489.913 448.078 489.047 447.714C488.197 447.333 487.461 446.821 486.837 446.18C486.213 445.521 485.727 444.776 485.381 443.944C485.051 443.095 484.887 442.193 484.887 441.24C484.887 439.957 485.181 438.787 485.771 437.73C486.36 436.655 487.183 435.797 488.241 435.156C489.298 434.497 490.537 434.168 491.959 434.168C493.38 434.168 494.602 434.497 495.625 435.156C496.665 435.797 497.471 436.647 498.043 437.704C498.615 438.761 498.901 439.897 498.901 441.11C498.901 441.318 498.892 441.517 498.875 441.708C498.857 441.881 498.84 442.029 498.823 442.15H487.929C487.981 442.947 488.197 443.649 488.579 444.256C488.977 444.845 489.48 445.313 490.087 445.66C490.693 445.989 491.343 446.154 492.037 446.154C492.799 446.154 493.519 445.963 494.195 445.582C494.888 445.201 495.356 444.698 495.599 444.074L498.043 444.776C497.748 445.435 497.297 446.033 496.691 446.57C496.101 447.09 495.399 447.506 494.585 447.818C493.77 448.113 492.886 448.26 491.933 448.26ZM487.851 440.252H496.067C496.015 439.472 495.789 438.787 495.391 438.198C495.009 437.591 494.515 437.123 493.909 436.794C493.319 436.447 492.661 436.274 491.933 436.274C491.222 436.274 490.563 436.447 489.957 436.794C489.367 437.123 488.882 437.591 488.501 438.198C488.119 438.787 487.903 439.472 487.851 440.252ZM507.396 448.26C506.338 448.26 505.376 448.078 504.51 447.714C503.66 447.333 502.924 446.813 502.3 446.154C501.676 445.495 501.19 444.741 500.844 443.892C500.514 443.043 500.35 442.141 500.35 441.188C500.35 439.905 500.636 438.735 501.208 437.678C501.797 436.621 502.612 435.771 503.652 435.13C504.709 434.489 505.957 434.168 507.396 434.168C508.782 434.168 509.987 434.48 511.01 435.104C512.05 435.711 512.812 436.525 513.298 437.548L510.516 438.432C510.204 437.86 509.762 437.418 509.19 437.106C508.635 436.777 508.02 436.612 507.344 436.612C506.581 436.612 505.888 436.811 505.264 437.21C504.657 437.591 504.172 438.129 503.808 438.822C503.461 439.498 503.288 440.287 503.288 441.188C503.288 442.055 503.47 442.843 503.834 443.554C504.198 444.247 504.683 444.802 505.29 445.218C505.914 445.617 506.607 445.816 507.37 445.816C507.838 445.816 508.288 445.738 508.722 445.582C509.172 445.409 509.562 445.183 509.892 444.906C510.221 444.611 510.455 444.291 510.594 443.944L513.402 444.776C513.107 445.452 512.665 446.05 512.076 446.57C511.504 447.09 510.819 447.506 510.022 447.818C509.242 448.113 508.366 448.26 507.396 448.26ZM527.951 448H525.091V440.382C525.091 439.151 524.866 438.233 524.415 437.626C523.964 437.019 523.332 436.716 522.517 436.716C522.014 436.716 521.494 436.855 520.957 437.132C520.42 437.409 519.943 437.791 519.527 438.276C519.111 438.744 518.808 439.29 518.617 439.914V448H515.757V429.02H518.617V437.132C519.137 436.213 519.848 435.494 520.749 434.974C521.65 434.437 522.621 434.168 523.661 434.168C524.51 434.168 525.212 434.315 525.767 434.61C526.322 434.905 526.755 435.312 527.067 435.832C527.396 436.335 527.622 436.924 527.743 437.6C527.882 438.259 527.951 438.961 527.951 439.706V448ZM543.465 448H540.605V440.382C540.605 439.117 540.397 438.189 539.981 437.6C539.582 437.011 538.984 436.716 538.187 436.716C537.632 436.716 537.077 436.855 536.523 437.132C535.985 437.409 535.5 437.791 535.067 438.276C534.633 438.744 534.321 439.29 534.131 439.914V448H531.271V434.402H533.871V437.132C534.217 436.525 534.668 436.005 535.223 435.572C535.795 435.121 536.436 434.775 537.147 434.532C537.857 434.289 538.611 434.168 539.409 434.168C540.223 434.168 540.891 434.315 541.411 434.61C541.948 434.905 542.364 435.312 542.659 435.832C542.971 436.335 543.179 436.924 543.283 437.6C543.404 438.259 543.465 438.961 543.465 439.706V448ZM552.894 448.26C551.82 448.26 550.858 448.078 550.008 447.714C549.159 447.333 548.422 446.813 547.798 446.154C547.192 445.495 546.724 444.75 546.394 443.918C546.065 443.069 545.9 442.167 545.9 441.214C545.9 440.261 546.065 439.359 546.394 438.51C546.724 437.661 547.192 436.915 547.798 436.274C548.422 435.615 549.159 435.104 550.008 434.74C550.875 434.359 551.837 434.168 552.894 434.168C553.952 434.168 554.905 434.359 555.754 434.74C556.621 435.104 557.358 435.615 557.964 436.274C558.588 436.915 559.065 437.661 559.394 438.51C559.724 439.359 559.888 440.261 559.888 441.214C559.888 442.167 559.724 443.069 559.394 443.918C559.065 444.75 558.588 445.495 557.964 446.154C557.358 446.813 556.621 447.333 555.754 447.714C554.905 448.078 553.952 448.26 552.894 448.26ZM548.838 441.24C548.838 442.107 549.02 442.887 549.384 443.58C549.748 444.273 550.234 444.819 550.84 445.218C551.447 445.617 552.132 445.816 552.894 445.816C553.64 445.816 554.316 445.617 554.922 445.218C555.546 444.802 556.04 444.247 556.404 443.554C556.768 442.843 556.95 442.063 556.95 441.214C556.95 440.347 556.768 439.567 556.404 438.874C556.04 438.181 555.546 437.635 554.922 437.236C554.316 436.82 553.64 436.612 552.894 436.612C552.132 436.612 551.447 436.82 550.84 437.236C550.234 437.652 549.748 438.207 549.384 438.9C549.02 439.576 548.838 440.356 548.838 441.24ZM562.451 429.02H565.311V444.074C565.311 444.767 565.415 445.209 565.623 445.4C565.831 445.591 566.091 445.686 566.403 445.686C566.75 445.686 567.07 445.651 567.365 445.582C567.677 445.513 567.946 445.426 568.171 445.322L568.587 447.584C568.171 447.757 567.677 447.905 567.105 448.026C566.533 448.147 566.022 448.208 565.571 448.208C564.6 448.208 563.838 447.939 563.283 447.402C562.728 446.847 562.451 446.085 562.451 445.114V429.02ZM576.355 448.26C575.281 448.26 574.319 448.078 573.469 447.714C572.62 447.333 571.883 446.813 571.259 446.154C570.653 445.495 570.185 444.75 569.855 443.918C569.526 443.069 569.361 442.167 569.361 441.214C569.361 440.261 569.526 439.359 569.855 438.51C570.185 437.661 570.653 436.915 571.259 436.274C571.883 435.615 572.62 435.104 573.469 434.74C574.336 434.359 575.298 434.168 576.355 434.168C577.413 434.168 578.366 434.359 579.215 434.74C580.082 435.104 580.819 435.615 581.425 436.274C582.049 436.915 582.526 437.661 582.855 438.51C583.185 439.359 583.349 440.261 583.349 441.214C583.349 442.167 583.185 443.069 582.855 443.918C582.526 444.75 582.049 445.495 581.425 446.154C580.819 446.813 580.082 447.333 579.215 447.714C578.366 448.078 577.413 448.26 576.355 448.26ZM572.299 441.24C572.299 442.107 572.481 442.887 572.845 443.58C573.209 444.273 573.695 444.819 574.301 445.218C574.908 445.617 575.593 445.816 576.355 445.816C577.101 445.816 577.777 445.617 578.383 445.218C579.007 444.802 579.501 444.247 579.865 443.554C580.229 442.843 580.411 442.063 580.411 441.214C580.411 440.347 580.229 439.567 579.865 438.874C579.501 438.181 579.007 437.635 578.383 437.236C577.777 436.82 577.101 436.612 576.355 436.612C575.593 436.612 574.908 436.82 574.301 437.236C573.695 437.652 573.209 438.207 572.845 438.9C572.481 439.576 572.299 440.356 572.299 441.24ZM591.268 448.13C590.349 448.13 589.509 447.948 588.746 447.584C587.983 447.203 587.325 446.691 586.77 446.05C586.233 445.409 585.808 444.672 585.496 443.84C585.201 443.008 585.054 442.133 585.054 441.214C585.054 440.243 585.21 439.333 585.522 438.484C585.834 437.635 586.267 436.889 586.822 436.248C587.394 435.589 588.061 435.078 588.824 434.714C589.587 434.35 590.436 434.168 591.372 434.168C592.464 434.168 593.417 434.428 594.232 434.948C595.064 435.468 595.749 436.144 596.286 436.976V434.402H598.808V447.61C598.808 448.927 598.487 450.045 597.846 450.964C597.222 451.883 596.364 452.585 595.272 453.07C594.18 453.555 592.949 453.798 591.58 453.798C590.072 453.798 588.824 453.538 587.836 453.018C586.848 452.498 586.007 451.787 585.314 450.886L586.926 449.378C587.446 450.106 588.113 450.661 588.928 451.042C589.76 451.423 590.644 451.614 591.58 451.614C592.36 451.614 593.079 451.467 593.738 451.172C594.414 450.895 594.951 450.453 595.35 449.846C595.749 449.257 595.948 448.511 595.948 447.61V445.53C595.463 446.345 594.795 446.986 593.946 447.454C593.097 447.905 592.204 448.13 591.268 448.13ZM592.204 445.816C592.637 445.816 593.053 445.747 593.452 445.608C593.851 445.452 594.215 445.253 594.544 445.01C594.891 444.75 595.185 444.464 595.428 444.152C595.671 443.823 595.844 443.476 595.948 443.112V439.55C595.723 438.961 595.402 438.449 594.986 438.016C594.57 437.565 594.102 437.219 593.582 436.976C593.062 436.733 592.533 436.612 591.996 436.612C591.372 436.612 590.809 436.751 590.306 437.028C589.821 437.288 589.405 437.643 589.058 438.094C588.711 438.527 588.443 439.021 588.252 439.576C588.061 440.131 587.966 440.703 587.966 441.292C587.966 441.916 588.07 442.497 588.278 443.034C588.503 443.571 588.807 444.057 589.188 444.49C589.569 444.906 590.02 445.235 590.54 445.478C591.06 445.703 591.615 445.816 592.204 445.816ZM602.705 451.198C602.965 451.233 603.217 451.267 603.459 451.302C603.719 451.354 603.927 451.38 604.083 451.38C604.378 451.38 604.629 451.285 604.837 451.094C605.063 450.921 605.288 450.591 605.513 450.106C605.739 449.621 606.016 448.919 606.345 448L600.755 434.402H603.745L607.905 445.088L611.597 434.402H614.353L608.191 451.146C608.001 451.649 607.723 452.108 607.359 452.524C606.995 452.957 606.545 453.295 606.007 453.538C605.47 453.781 604.837 453.902 604.109 453.902C603.901 453.902 603.685 453.885 603.459 453.85C603.234 453.815 602.983 453.763 602.705 453.694V451.198Z" fill="#FFAC2F"/>
<path d="M15.626 47.114H9.49V63H6.552V47.114H0.39V44.54H15.626V47.114ZM16.4535 66.198C16.7135 66.2327 16.9649 66.2673 17.2075 66.302C17.4675 66.354 17.6755 66.38 17.8315 66.38C18.1262 66.38 18.3775 66.2847 18.5855 66.094C18.8109 65.9207 19.0362 65.5913 19.2615 65.106C19.4869 64.6207 19.7642 63.9187 20.0935 63L14.5035 49.402H17.4935L21.6535 60.088L25.3455 49.402H28.1015L21.9395 66.146C21.7489 66.6487 21.4715 67.108 21.1075 67.524C20.7435 67.9573 20.2929 68.2953 19.7555 68.538C19.2182 68.7807 18.5855 68.902 17.8575 68.902C17.6495 68.902 17.4329 68.8847 17.2075 68.85C16.9822 68.8153 16.7309 68.7633 16.4535 68.694V66.198ZM37.9263 63.26C36.8343 63.26 35.8723 63 35.0403 62.48C34.2083 61.96 33.5496 61.284 33.0643 60.452V68.538H30.2043V49.402H32.7263V51.846C33.2463 51.0313 33.9223 50.3813 34.7543 49.896C35.5863 49.4107 36.5136 49.168 37.5363 49.168C38.4723 49.168 39.3303 49.3587 40.1103 49.74C40.8903 50.104 41.5663 50.6153 42.1383 51.274C42.7103 51.9327 43.1523 52.6867 43.4643 53.536C43.7936 54.368 43.9583 55.252 43.9583 56.188C43.9583 57.488 43.6983 58.6753 43.1783 59.75C42.6756 60.8247 41.9649 61.6827 41.0463 62.324C40.1449 62.948 39.1049 63.26 37.9263 63.26ZM36.9903 60.816C37.5969 60.816 38.1429 60.686 38.6283 60.426C39.1309 60.166 39.5556 59.8193 39.9023 59.386C40.2663 58.9527 40.5436 58.4587 40.7343 57.904C40.9249 57.3493 41.0203 56.7773 41.0203 56.188C41.0203 55.564 40.9163 54.9747 40.7083 54.42C40.5003 53.8653 40.1969 53.38 39.7983 52.964C39.4169 52.548 38.9663 52.2187 38.4463 51.976C37.9436 51.7333 37.3889 51.612 36.7823 51.612C36.4183 51.612 36.0369 51.6813 35.6383 51.82C35.2396 51.9587 34.8669 52.1493 34.5203 52.392C34.1736 52.6347 33.8703 52.9207 33.6103 53.25C33.3503 53.5793 33.1683 53.926 33.0643 54.29V57.852C33.3069 58.4067 33.6276 58.9093 34.0263 59.36C34.4249 59.7933 34.8843 60.1487 35.4043 60.426C35.9243 60.686 36.4529 60.816 36.9903 60.816ZM52.6925 63.26C51.6351 63.26 50.6731 63.078 49.8065 62.714C48.9571 62.3327 48.2205 61.8213 47.5965 61.18C46.9725 60.5213 46.4871 59.776 46.1405 58.944C45.8111 58.0947 45.6465 57.1933 45.6465 56.24C45.6465 54.9573 45.9411 53.7873 46.5305 52.73C47.1198 51.6553 47.9431 50.7973 49.0005 50.156C50.0578 49.4973 51.2971 49.168 52.7185 49.168C54.1398 49.168 55.3618 49.4973 56.3845 50.156C57.4245 50.7973 58.2305 51.6467 58.8025 52.704C59.3745 53.7613 59.6605 54.8967 59.6605 56.11C59.6605 56.318 59.6518 56.5173 59.6345 56.708C59.6171 56.8813 59.5998 57.0287 59.5825 57.15H48.6885C48.7405 57.9473 48.9571 58.6493 49.3385 59.256C49.7371 59.8453 50.2398 60.3133 50.8465 60.66C51.4531 60.9893 52.1031 61.154 52.7965 61.154C53.5591 61.154 54.2785 60.9633 54.9545 60.582C55.6478 60.2007 56.1158 59.698 56.3585 59.074L58.8025 59.776C58.5078 60.4347 58.0571 61.0327 57.4505 61.57C56.8611 62.09 56.1591 62.506 55.3445 62.818C54.5298 63.1127 53.6458 63.26 52.6925 63.26ZM48.6105 55.252H56.8265C56.7745 54.472 56.5491 53.7873 56.1505 53.198C55.7691 52.5913 55.2751 52.1233 54.6685 51.794C54.0791 51.4473 53.4205 51.274 52.6925 51.274C51.9818 51.274 51.3231 51.4473 50.7165 51.794C50.1271 52.1233 49.6418 52.5913 49.2605 53.198C48.8791 53.7873 48.6625 54.472 48.6105 55.252Z" fill="#FF82EB"/>
<line x1="398.224" y1="73.3694" x2="411.224" y2="57.3694" stroke="white" stroke-width="2"/>
<circle cx="364.512" cy="360.513" r="5.5" transform="rotate(120 364.512 360.513)" fill="white"/>
<line x1="365.497" y1="363.071" x2="372.853" y2="382.329" stroke="white" stroke-width="2"/>
<circle cx="164.488" cy="131.682" r="5.5" transform="rotate(-60 164.488 131.682)" fill="white"/>
<line x1="163.503" y1="129.124" x2="156.147" y2="109.866" stroke="white" stroke-width="2"/>
</svg>
