<svg width="79" height="63" viewBox="0 0 79 63" fill="none" xmlns="http://www.w3.org/2000/svg">
<path fill-rule="evenodd" clip-rule="evenodd" d="M19.0746 7.46642H23.3173V6.06073C23.3173 4.93021 24.2338 4.01362 25.3644 4.01362H53.5506C54.6812 4.01362 55.5978 4.93021 55.5978 6.06073V7.46642H59.8404V1.76434C59.8404 0.885619 59.1301 0.175781 58.2518 0.175781H20.6637C20.2287 0.175781 19.832 0.355416 19.5429 0.64406L19.5388 0.639966C19.2512 0.937822 19.0746 1.30886 19.0746 1.76434V7.46642ZM42.1722 40.1371H37.5606V49.2549H42.1722V40.1371ZM46.2665 46.3301C57.867 44.8526 68.4281 39.3847 76.3294 31.0335V57.2934C76.3294 60.3319 73.836 62.8258 70.7971 62.8258H8.93573C5.89729 62.8258 3.40391 60.3324 3.40391 57.2934V31.0335C11.3053 39.3842 21.8664 44.8521 33.4669 46.3301V49.3368C33.4669 51.538 35.2699 53.3497 37.4797 53.3497H42.2541C43.3601 53.3497 44.3637 52.8988 45.0899 52.1726L45.0858 52.1685C45.8146 51.4377 46.267 50.4351 46.267 49.3368L46.2665 46.3301ZM37.4792 36.0428C36.3733 36.0428 35.3697 36.4937 34.6435 37.2199C33.21 38.6534 33.4664 40.2425 33.4664 42.2169C27.0046 41.3203 20.9687 39.0823 15.6493 35.7931C10.7899 32.7879 6.52986 28.9056 3.0907 24.3676L0.945312 21.2846V14.9657C0.945312 11.6611 3.65672 8.94973 6.96128 8.94973C28.8982 8.94973 50.8346 8.94973 72.7715 8.94973C76.0761 8.94973 78.7875 11.6611 78.7875 14.9657V21.2841L76.6431 24.365C73.2035 28.904 68.9434 32.7874 64.0831 35.7931C58.7641 39.0823 52.7282 41.3203 46.2665 42.2169V40.0557C46.2665 37.8443 44.465 36.0428 42.2536 36.0428H37.4792ZM32.5436 23.6982H47.1897C49.8848 23.6982 49.8848 19.604 47.1897 19.604H32.5436C29.8486 19.604 29.8486 23.6982 32.5436 23.6982Z" fill="#FF52E3"/>
<path fill-rule="evenodd" clip-rule="evenodd" d="M37.4792 36.0443C36.3733 36.0443 35.3697 36.4951 34.6435 37.2214C33.21 38.6549 33.4664 40.2439 33.4664 42.2184C27.0046 41.3217 20.9687 39.0837 15.6493 35.7945C10.7899 32.7894 6.52986 28.907 3.0907 24.369L0.945312 21.2861V14.9671C0.945312 11.6626 3.65672 8.95117 6.96128 8.95117C28.8982 8.95117 50.8346 8.95117 72.7715 8.95117C76.0761 8.95117 78.7875 11.6626 78.7875 14.9671V21.2856L76.6431 24.3665C73.2035 28.9055 68.9434 32.7888 64.0831 35.7945C58.7641 39.0837 52.7282 41.3217 46.2665 42.2184V40.0571C46.2665 37.8457 44.465 36.0443 42.2536 36.0443H37.4792ZM32.5436 23.6996H47.1897C49.8848 23.6996 49.8848 19.6054 47.1897 19.6054H32.5436C29.8486 19.6054 29.8486 23.6996 32.5436 23.6996Z" fill="#FF87EC"/>
</svg>
