<svg width="122" height="66" viewBox="0 0 122 66" fill="none" xmlns="http://www.w3.org/2000/svg">
<path d="M63.5781 0.0683594C61.7089 0.0683594 60.093 0.856058 58.3444 1.90125C56.5959 2.9467 54.7424 4.33872 52.7679 5.91904C51.5498 6.89389 50.2309 8.0113 48.9403 9.09127L22.0817 9.09127C21.1426 6.4806 18.6587 4.57995 15.7495 4.57995L6.7498 4.57995C3.04911 4.57995 0 7.63711 0 11.3469L0 42.9223C0 46.632 3.04911 49.6896 6.7498 49.6896H15.7495C18.6598 49.6896 21.1435 47.79 22.0817 45.178H28.3658L47.011 63.5144C48.2194 64.702 49.9031 65.4795 51.7615 65.4795C54.6191 65.4795 57.0635 63.6454 58.0366 61.1045L60.5106 63.5191C61.7165 64.6958 63.3946 65.4795 65.2566 65.4795C68.1318 65.4795 70.5914 63.6245 71.5537 61.0605L71.7607 61.2635C72.9667 62.4404 74.6447 63.2238 76.5067 63.2238C79.3805 63.2238 81.8449 61.3714 82.8083 58.8093L83.0108 59.008C84.2167 60.185 85.8947 60.9684 87.7568 60.9684C91.455 60.9684 94.5021 57.9135 94.5021 54.2061V52.853L97.6574 49.6898H99.4238C100.363 52.3001 102.843 54.2014 105.752 54.2014H114.751C118.452 54.2014 121.501 51.1438 121.501 47.4344V15.8588C121.501 12.149 118.452 9.09179 114.751 9.09179L105.752 9.09179C103.78 9.09179 102.012 9.97558 100.773 11.3475H99.1075C91.7871 10.2656 86.6525 7.64483 82.6812 5.19707C80.6868 3.96799 78.9953 2.77969 77.408 1.83126C75.8207 0.883004 74.3071 0.0688797 72.4379 0.0688797L63.5781 0.0683594ZM11.2539 13.5982C11.5494 13.5982 11.842 13.6565 12.115 13.7699C12.388 13.8833 12.6361 14.0493 12.845 14.2587C13.0539 14.4682 13.2196 14.7169 13.3327 14.9906C13.4457 15.2643 13.5039 15.5576 13.5039 15.8538C13.5039 16.452 13.2668 17.0259 12.8449 17.4489C12.423 17.8719 11.8507 18.1095 11.2539 18.1095C10.6572 18.1095 10.0849 17.8719 9.66297 17.4489C9.24103 17.0259 9.00399 16.452 9.00401 15.8538C9.00397 15.5576 9.06213 15.2643 9.17518 14.9906C9.28823 14.7169 9.45395 14.4682 9.66288 14.2587C9.87181 14.0493 10.1199 13.8833 10.3928 13.7699C10.6658 13.6565 10.9584 13.5982 11.2539 13.5982ZM22.4993 13.5982H43.4957C42.3557 14.5284 41.2113 15.442 40.0724 16.312C38.9378 17.1788 38.2435 18.6048 38.2531 19.9905C38.2531 21.3761 38.8647 22.6582 39.8 23.7091C41.671 25.8105 44.8963 27.1324 49.2787 27.1324C55.1566 27.1324 58.6404 24.7757 60.4933 23.3038L90.0016 52.9011V54.2009C90.0016 55.4697 89.0235 56.4521 87.7561 56.4521C87.1356 56.4521 86.5902 56.2014 86.1479 55.7692L71.3474 41.3231C70.917 40.8908 70.3304 40.6529 69.7216 40.6615C67.7009 40.687 66.7371 43.1644 68.2054 44.5562L78.7519 54.8482V56.4561C78.7519 57.7246 77.7739 58.7073 76.5065 58.7073C75.886 58.7073 75.3406 58.4566 74.8982 58.0243L60.0977 43.5782C59.6673 43.1468 59.0808 42.908 58.4719 42.9174C56.4513 42.943 55.4874 45.4204 56.9557 46.8121L67.5023 57.1039V58.7117C67.5023 59.9805 66.5242 60.9632 65.2568 60.9632C64.6363 60.9632 64.0909 60.7125 63.6486 60.2803L48.8481 45.8341C48.4176 45.4028 47.8311 45.1639 47.2223 45.1733C45.2016 45.1989 44.2377 47.6764 45.706 49.068L54.0027 57.1655V58.712C54.0027 59.9819 53.0255 60.9635 51.7617 60.9635C51.1394 60.9635 50.5956 60.7154 50.162 60.2891L30.8574 41.3051C30.4371 40.8925 29.8724 40.6615 29.2842 40.6615H22.4993L22.4993 13.5982ZM105.751 13.5982L114.751 13.5982C116.036 13.5982 117.001 14.5654 117.001 15.8538V47.4339C117.001 48.7223 116.036 49.6896 114.751 49.6896H105.751C104.466 49.6896 103.501 48.7223 103.501 47.4339V47.3998V15.8596C103.501 14.5712 104.466 13.5982 105.751 13.5982Z" fill="#FF52E3"/>
<path d="M58.5405 1.83289C60.2892 0.787699 61.9051 0 63.7743 0L72.6341 0.000520338C74.5033 0.000520338 76.0169 0.814645 77.6042 1.7629C79.1915 2.71133 80.883 3.89963 82.8773 5.12871C86.8487 7.57647 91.9833 10.1973 99.3037 11.2791H100.969C102.208 9.90722 103.977 9.02344 105.948 9.02344H114.948C118.648 9.02344 121.697 12.0806 121.697 15.7904V47.3661C121.697 51.0755 118.648 54.1331 114.948 54.1331H105.948C103.039 54.1331 100.559 52.2317 99.62 49.6215H97.8536L94.6983 52.7846V54.1378L90.1978 52.8327L60.6895 23.2354C58.8366 24.7073 55.3528 27.0641 49.4749 27.0641C45.0925 27.0641 41.8672 25.7421 39.9961 23.6408C39.0609 22.5899 38.4493 21.3078 38.4493 19.9222C38.4396 18.5365 39.134 17.1104 40.2686 16.2436C41.4075 15.3736 42.5518 14.46 43.6919 13.5298L49.1365 9.02292C50.4271 7.94294 51.746 6.82553 52.9641 5.85068C54.9386 4.27036 56.7921 2.87834 58.5405 1.83289Z" fill="#FF87EC"/>
<rect x="103.152" y="11.3008" width="16.4046" height="40.1001" rx="4" fill="#57387C"/>
</svg>
