<svg width="76" height="71" viewBox="0 0 76 71" fill="none" xmlns="http://www.w3.org/2000/svg">
<path d="M18.0098 70.3197C18.0098 66.2944 18.0098 65.2454 18.0098 65.2454C18.0098 57.3384 18.1535 56.9301 18.1535 49.1669C18.1535 39.5349 25.7729 31.1967 35.2612 30.0466C46.7622 28.4652 57.6881 37.5222 57.6881 50.0295C57.6881 60.9554 57.6881 57.3811 57.6881 68.3071C57.6881 69.0259 57.6881 69.7447 57.8319 70.3197C44.462 70.3197 31.2359 70.3197 18.0098 70.3197Z" fill="#FF87EC"/>
<path d="M39.4252 0.862513C40.144 1.15004 40.8628 1.2938 41.5816 1.58132C47.4758 3.45023 51.2136 9.34448 50.3511 15.095C49.4885 21.2767 44.4568 25.7333 38.4188 26.0209C31.9495 26.3084 26.6303 21.8518 25.3365 15.8138C24.0426 9.20072 28.3555 2.58766 35.1123 1.15004C35.5436 1.00628 35.8311 0.862512 36.2624 0.71875C37.4125 0.862512 38.4188 0.862513 39.4252 0.862513Z" fill="#FF87EC"/>
<path d="M75.5081 66.6183C74.7893 66.6183 74.2142 66.6183 73.6392 66.6183C69.4701 66.6183 65.301 66.6183 60.8443 66.6183C60.8443 65.8995 60.8443 65.3245 60.8443 64.6057C60.8443 57.5613 60.8443 60.6671 60.8443 53.479C60.8443 48.5911 60.8443 43.7032 58.4004 39.2466C62.857 37.3777 69.0388 39.1028 72.4891 43.2719C74.358 45.5721 75.5081 48.016 75.5081 51.0351C75.5081 59.2295 75.5081 57.2738 75.5081 65.4682C75.6518 65.8995 75.5081 66.0433 75.5081 66.6183Z" fill="#FF52E3"/>
<path d="M17.2874 39.2452C14.5559 44.1331 14.6997 49.3085 14.6997 54.6277C14.6997 61.2408 14.6997 59.2975 14.6997 65.9105C14.6997 67.4919 14.4121 68.067 12.687 68.067C8.94919 67.9232 5.21137 68.067 1.47356 68.067C0.610989 68.067 0.0359402 67.9232 0.0359402 66.9169C0.0359402 58.5787 -0.107821 58.9406 0.179703 50.6024C0.610989 42.4079 9.09295 36.8012 17.2874 39.2452Z" fill="#FF52E3"/>
<path d="M13.5503 18.2578C18.2945 18.2578 22.176 21.9956 22.176 26.7398C22.176 31.3402 18.4382 35.078 13.6941 35.078C8.94994 35.078 5.06836 31.3402 5.06836 26.596C5.06836 21.9956 8.80617 18.2578 13.5503 18.2578Z" fill="#FF52E3"/>
<path d="M70.4784 26.596C70.4784 31.4839 67.0281 35.078 62.1402 35.078C57.396 35.078 53.6582 31.4839 53.6582 26.7398C53.6582 21.8519 57.2523 18.2578 62.1402 18.2578C66.8843 18.2578 70.4784 21.7081 70.4784 26.596Z" fill="#FF52E3"/>
</svg>
