<svg width="78" height="89" viewBox="0 0 78 89" fill="none" xmlns="http://www.w3.org/2000/svg">
<path d="M27.916 83.3562C27.916 84.2629 28.319 85.0688 29.0241 85.6732L32.147 88.2924C32.6507 88.6954 33.3559 88.9976 34.0611 88.9976H43.732C44.4371 88.9976 45.1423 88.7961 45.646 88.2924L48.7689 85.6732C49.4741 85.0688 49.877 84.2629 49.877 83.3562V77.7148H27.916V83.3562Z" fill="#FF52E3"/>
<path d="M35.9767 17.5793C24.3918 18.8889 14.9224 28.1568 13.512 39.7418C12.3032 49.8156 17.0379 58.9828 24.5933 64.1205C26.6081 65.4301 27.8169 67.6464 27.8169 70.0641V72.1796H49.6772V70.1648C49.6772 67.8478 50.7853 65.5308 52.8001 64.2212C59.751 59.688 64.2843 51.8304 64.2843 42.8647C64.385 27.8546 51.3897 15.8667 35.9767 17.5793Z" fill="#FF87EC"/>
<path d="M38.998 10.1698C40.3925 10.1698 41.5409 9.20103 41.5409 8.0247V2.1431C41.5409 0.966781 40.3925 -0.00195312 38.998 -0.00195312C37.6035 -0.00195312 36.4551 0.966781 36.4551 2.1431V7.95551C36.4551 9.20103 37.5215 10.1698 38.998 10.1698Z" fill="#FF52E3"/>
<path d="M19.5241 14.0494C19.9644 14.8058 20.6982 15.2596 21.5053 15.2596C21.8722 15.2596 22.3125 15.184 22.606 14.9571C23.7067 14.2763 24.0736 12.8392 23.4132 11.7803L20.3313 6.25891C19.6708 5.12436 18.2767 4.74618 17.2493 5.42691C16.1487 6.10763 15.7818 7.54472 16.4422 8.60363L19.5241 14.0494Z" fill="#FF87EC"/>
<path d="M2.02616 24.6048L7.53685 27.6779C7.9143 27.8974 8.29174 27.9706 8.66919 27.9706C9.49956 27.9706 10.2545 27.5316 10.7074 26.7999C11.3868 25.7023 10.9339 24.3121 9.87701 23.7268L4.36632 20.6537C3.23398 19.9951 1.79969 20.4341 1.19578 21.4585C0.516379 22.5561 0.893824 23.9463 2.02616 24.6048Z" fill="#FF52E3"/>
<path d="M69.3473 27.9706C69.7241 27.9706 70.1763 27.8969 70.4778 27.6757L75.9795 24.5794C77.11 23.9159 77.4868 22.5152 76.8085 21.4832C76.1302 20.3773 74.6983 20.0087 73.6432 20.6722L68.1414 23.7685C67.011 24.432 66.6341 25.8327 67.3124 26.8648C67.7646 27.602 68.5183 27.9706 69.3473 27.9706Z" fill="#FF52E3"/>
<path d="M55.4002 13.6819C55.7679 13.9072 56.1355 13.9823 56.5032 13.9823C57.3121 13.9823 58.0474 13.5318 58.4886 12.781L61.5771 7.30033C62.2389 6.17416 61.7977 4.74768 60.7682 4.14706C59.6652 3.47136 58.268 3.84675 57.6798 4.97292L54.5913 10.4536C53.9295 11.5798 54.2972 13.0062 55.4002 13.6819Z" fill="#FF87EC"/>
</svg>
