<svg width="48" height="23" viewBox="0 0 48 23" fill="none" xmlns="http://www.w3.org/2000/svg">
<path d="M2 10C1.17157 10 0.5 10.6716 0.5 11.5C0.5 12.3284 1.17157 13 2 13V10ZM47.0607 12.5607C47.6465 11.9749 47.6465 11.0251 47.0607 10.4393L37.5147 0.893398C36.9289 0.307611 35.9792 0.307611 35.3934 0.893398C34.8076 1.47919 34.8076 2.42893 35.3934 3.01472L43.8787 11.5L35.3934 19.9853C34.8076 20.5711 34.8076 21.5208 35.3934 22.1066C35.9792 22.6924 36.9289 22.6924 37.5147 22.1066L47.0607 12.5607ZM2 13H46V10H2V13Z" fill="white"/>
</svg>
