<svg width="52" height="52" viewBox="0 0 52 52" fill="none" xmlns="http://www.w3.org/2000/svg">
<rect opacity="0.2" width="52" height="52" rx="26" fill="#D8D8D8"/>
<path d="M31.042 19.812H33.5649C33.9123 19.812 34.1956 19.525 34.1956 19.173V14.0609C34.1956 13.7089 33.9123 13.4219 33.5649 13.4219H29.7806C25.9556 13.4219 22.8426 16.5758 22.8426 20.4511V23.6973H18.4276C18.0802 23.6973 17.7969 23.9843 17.7969 24.3363V29.3973C17.7969 29.7493 18.0802 30.0363 18.4276 30.0363H22.404V39.6216C22.404 39.9735 22.6873 40.2606 23.0347 40.2606H28.3009C28.6483 40.2606 28.9316 39.9735 28.9316 39.6216V30.0363H32.2492C32.5362 30.0363 32.7887 29.8416 32.8614 29.5571L34.1771 24.4449C34.2276 24.2527 34.1869 24.0493 34.0662 23.892C33.9467 23.736 33.7632 23.6424 33.5685 23.6424H29.1535V21.7253C29.1535 20.6682 30.0023 19.8083 31.0457 19.8083L31.042 19.812Z" fill="white"/>
</svg>
