<svg width="52" height="52" viewBox="0 0 52 52" fill="none" xmlns="http://www.w3.org/2000/svg">
<rect opacity="0.2" width="52" height="52" rx="26" fill="#D8D8D8"/>
<path fill-rule="evenodd" clip-rule="evenodd" d="M25.9969 32.8572C29.7868 32.8572 32.8591 29.7848 32.8591 25.995C32.8591 22.2051 29.7868 19.1328 25.9969 19.1328C22.2071 19.1328 19.1348 22.2051 19.1348 25.995C19.1348 29.7848 22.2071 32.8572 25.9969 32.8572ZM25.9969 30.5698C28.5235 30.5698 30.5717 28.5215 30.5717 25.995C30.5717 23.4684 28.5235 21.4202 25.9969 21.4202C23.4704 21.4202 21.4222 23.4684 21.4222 25.995C21.4222 28.5215 23.4704 30.5698 25.9969 30.5698Z" fill="white"/>
<path d="M32.8566 18C32.2249 18 31.7129 18.5121 31.7129 19.1437C31.7129 19.7753 32.2249 20.2874 32.8566 20.2874C33.4882 20.2874 34.0003 19.7753 34.0003 19.1437C34.0003 18.5121 33.4882 18 32.8566 18Z" fill="white"/>
<path fill-rule="evenodd" clip-rule="evenodd" d="M14.1659 17.1648C13.418 18.6327 13.418 20.5543 13.418 24.3974V27.5998C13.418 31.4429 13.418 33.3646 14.1659 34.8324C14.8238 36.1236 15.8736 37.1734 17.1648 37.8313C18.6327 38.5793 20.5543 38.5793 24.3974 38.5793H27.5998C31.4429 38.5793 33.3646 38.5793 34.8324 37.8313C36.1236 37.1734 37.1734 36.1236 37.8313 34.8324C38.5793 33.3646 38.5793 31.4429 38.5793 27.5998V24.3974C38.5793 20.5543 38.5793 18.6327 37.8313 17.1648C37.1734 15.8736 36.1236 14.8238 34.8324 14.1659C33.3646 13.418 31.4429 13.418 27.5998 13.418H24.3974C20.5543 13.418 18.6327 13.418 17.1648 14.1659C15.8736 14.8238 14.8238 15.8736 14.1659 17.1648ZM27.5998 15.7054H24.3974C22.4381 15.7054 21.1062 15.7071 20.0767 15.7912C19.0738 15.8732 18.561 16.0217 18.2032 16.204C17.3424 16.6426 16.6426 17.3424 16.204 18.2032C16.0217 18.561 15.8732 19.0738 15.7912 20.0767C15.7071 21.1062 15.7054 22.4381 15.7054 24.3974V27.5998C15.7054 29.5592 15.7071 30.891 15.7912 31.9206C15.8732 32.9235 16.0217 33.4363 16.204 33.794C16.6426 34.6548 17.3424 35.3546 18.2032 35.7932C18.561 35.9755 19.0738 36.1241 20.0767 36.206C21.1062 36.29 22.4381 36.2919 24.3974 36.2919H27.5998C29.5592 36.2919 30.891 36.29 31.9206 36.206C32.9235 36.1241 33.4363 35.9755 33.794 35.7932C34.6548 35.3546 35.3546 34.6548 35.7932 33.794C35.9755 33.4363 36.1241 32.9235 36.206 31.9206C36.29 30.891 36.2919 29.5592 36.2919 27.5998V24.3974C36.2919 22.4381 36.29 21.1062 36.206 20.0767C36.1241 19.0738 35.9755 18.561 35.7932 18.2032C35.3546 17.3424 34.6548 16.6426 33.794 16.204C33.4363 16.0217 32.9235 15.8732 31.9206 15.7912C30.891 15.7071 29.5592 15.7054 27.5998 15.7054Z" fill="white"/>
</svg>
