<svg width="52" height="52" viewBox="0 0 52 52" fill="none" xmlns="http://www.w3.org/2000/svg">
<rect opacity="0.2" width="52" height="52" rx="26" fill="#D8D8D8"/>
<path d="M21.872 19.5742H17.4798C17.2849 19.5742 17.127 19.7322 17.127 19.9271V34.0373C17.127 34.2322 17.2849 34.3901 17.4798 34.3901H21.872C22.0669 34.3901 22.2249 34.2322 22.2249 34.0373V19.9271C22.2249 19.7322 22.0669 19.5742 21.872 19.5742Z" fill="white"/>
<path d="M19.6698 12.5703C18.0716 12.5703 16.7715 13.8691 16.7715 15.4654C16.7715 17.0625 18.0716 18.3617 19.6698 18.3617C21.2666 18.3617 22.5657 17.0624 22.5657 15.4654C22.5658 13.8691 21.2666 12.5703 19.6698 12.5703Z" fill="white"/>
<path d="M33.0367 19.2383C31.2726 19.2383 29.9686 19.9966 29.1777 20.8583V19.9419C29.1777 19.747 29.0197 19.589 28.8248 19.589H24.6185C24.4236 19.589 24.2656 19.747 24.2656 19.9419V34.052C24.2656 34.247 24.4236 34.4049 24.6185 34.4049H29.0011C29.196 34.4049 29.354 34.247 29.354 34.052V27.0708C29.354 24.7182 29.993 23.8017 31.6329 23.8017C33.4189 23.8017 33.5608 25.271 33.5608 27.1918V34.0521C33.5608 34.247 33.7188 34.405 33.9137 34.405H38.2979C38.4928 34.405 38.6508 34.247 38.6508 34.0521V26.3124C38.6508 22.8143 37.9837 19.2383 33.0367 19.2383Z" fill="white"/>
</svg>
