<svg width="201" height="68" viewBox="0 0 201 68" fill="none" xmlns="http://www.w3.org/2000/svg">
<g clip-path="url(#clip0_1899_282)">
<path d="M3.9593 64.9985V58.2578H8.44322V58.8004H4.595V61.2342H8.06862V61.7768H4.595V64.4558H8.53631V64.9985H3.95703H3.9593Z" fill="white"/>
<path d="M11.2807 62.9001L9.77322 64.9979H9.08984L10.9515 62.4892L9.23742 60.1484H9.92987L11.2694 62.0782L12.6452 60.1484H13.3581L11.6077 62.4892L13.4262 64.9979H12.7519L11.2807 62.9001Z" fill="white"/>
<path d="M14.6251 62.7053C14.6251 62.9687 14.6591 63.2162 14.7272 63.45C14.7954 63.6839 14.8975 63.8882 15.0315 64.0585C15.1654 64.2287 15.3357 64.3672 15.5423 64.4717C15.7466 64.5738 15.985 64.6261 16.2552 64.6261C16.623 64.6261 16.9386 64.5284 17.1996 64.3354C17.4607 64.1425 17.6355 63.8678 17.7241 63.5136H18.3507C18.2826 63.7452 18.1895 63.9586 18.0783 64.1561C17.9647 64.3513 17.824 64.5239 17.656 64.6715C17.488 64.819 17.2882 64.9325 17.0566 65.0143C16.825 65.0937 16.5571 65.1346 16.2529 65.1346C15.8647 65.1346 15.5309 65.0688 15.2494 64.9371C14.9702 64.8054 14.7386 64.6283 14.557 64.399C14.3753 64.1697 14.2414 63.9018 14.1551 63.5931C14.0688 63.2843 14.0234 62.9505 14.0234 62.5964C14.0234 62.2422 14.0734 61.9062 14.1778 61.5951C14.2823 61.2818 14.4276 61.0094 14.6183 60.7756C14.809 60.5417 15.0428 60.3578 15.3153 60.2216C15.59 60.0876 15.901 60.0195 16.2529 60.0195C16.9204 60.0195 17.4448 60.2488 17.8263 60.7075C18.2054 61.1661 18.3938 61.8335 18.387 62.7053H14.6228H14.6251ZM17.7899 62.2354C17.7899 61.9993 17.7581 61.7745 17.6923 61.5679C17.6265 61.359 17.5311 61.1774 17.4017 61.0253C17.2746 60.8709 17.1134 60.7506 16.9181 60.6598C16.7251 60.569 16.5026 60.5235 16.2552 60.5235C16.0077 60.5235 15.7852 60.5712 15.5945 60.6643C15.4038 60.7597 15.2426 60.8845 15.1087 61.0389C14.9747 61.1933 14.8657 61.3749 14.7863 61.5815C14.7045 61.7859 14.6523 62.0061 14.6273 62.2354H17.7922H17.7899Z" fill="white"/>
<path d="M22.9208 61.6746C22.8209 61.3136 22.6484 61.0298 22.4055 60.8278C22.1625 60.6257 21.8515 60.5235 21.4792 60.5235C21.1931 60.5235 20.9456 60.5848 20.739 60.7029C20.5347 60.821 20.3644 60.9776 20.235 61.1751C20.1033 61.3727 20.008 61.5929 19.9444 61.8403C19.8831 62.0855 19.8513 62.333 19.8513 62.585C19.8513 62.837 19.8808 63.089 19.9399 63.3342C19.9989 63.5772 20.0942 63.7974 20.2259 63.9904C20.3576 64.1856 20.5256 64.34 20.7299 64.4535C20.9365 64.5693 21.1863 64.6261 21.4792 64.6261C21.8969 64.6261 22.2329 64.5103 22.4849 64.2787C22.7392 64.0471 22.8981 63.7293 22.9685 63.3252H23.5679C23.5179 63.5931 23.4385 63.8382 23.3295 64.0585C23.2205 64.281 23.0797 64.4717 22.9072 64.6306C22.7347 64.7895 22.5326 64.9144 22.2942 65.0007C22.0558 65.0869 21.7857 65.1323 21.4792 65.1323C21.0932 65.1323 20.7572 65.0665 20.4779 64.9348C20.1964 64.8031 19.9648 64.6261 19.7855 64.3968C19.6039 64.1697 19.4699 63.8995 19.3836 63.5862C19.2974 63.2729 19.252 62.9415 19.252 62.585C19.252 62.2467 19.2996 61.9244 19.3973 61.6156C19.4949 61.3068 19.6356 61.0321 19.8241 60.796C20.0102 60.5599 20.2441 60.3714 20.5211 60.2307C20.7981 60.0899 21.1182 60.0195 21.4814 60.0195C22.0422 60.0195 22.4963 60.1535 22.8436 60.4214C23.191 60.6893 23.4067 61.107 23.4952 61.6769H22.9231L22.9208 61.6746Z" fill="white"/>
<path d="M27.975 60.1484H28.538V64.9979H27.975V64.3236C27.9 64.4099 27.816 64.5007 27.7229 64.596C27.6276 64.6891 27.5209 64.7754 27.3983 64.8526C27.278 64.9298 27.1349 64.9956 26.9715 65.0501C26.8103 65.1023 26.6218 65.1296 26.4107 65.1296C26.086 65.1296 25.8136 65.0842 25.5956 64.9956C25.3754 64.9048 25.2006 64.7799 25.0666 64.6165C24.9327 64.4553 24.8351 64.2668 24.776 64.0489C24.717 63.8332 24.6875 63.5994 24.6875 63.3428V60.1484H25.2505V63.3315C25.2505 63.7515 25.3459 64.0693 25.5411 64.2918C25.7341 64.5143 26.0542 64.6255 26.497 64.6255C26.7285 64.6255 26.9351 64.5801 27.119 64.4893C27.3029 64.3985 27.4573 64.2736 27.5822 64.1102C27.7071 63.9467 27.8024 63.7537 27.8728 63.529C27.9409 63.3042 27.975 63.0567 27.975 62.7888V60.1484Z" fill="white"/>
<path d="M31.6014 65.0153C31.5332 65.029 31.4402 65.0494 31.3289 65.0812C31.2154 65.113 31.0905 65.1266 30.9543 65.1266C30.6751 65.1266 30.4616 65.0562 30.3118 64.9154C30.1665 64.7769 30.0916 64.5249 30.0916 64.1617V60.6131H29.4082V60.1455H30.0916V58.7969H30.6523V60.1455H31.5605V60.6131H30.6523V63.9369C30.6523 64.055 30.6569 64.1571 30.6614 64.2457C30.666 64.332 30.6864 64.4046 30.7182 64.4614C30.75 64.5181 30.7977 64.5567 30.8635 64.5817C30.9293 64.6067 31.0201 64.6203 31.1382 64.6203C31.2131 64.6203 31.2903 64.6135 31.3698 64.5999C31.447 64.5885 31.5242 64.5726 31.5991 64.5545V65.0131L31.6014 65.0153Z" fill="white"/>
<path d="M32.5547 59.091V58.2578H33.1722V59.091H32.5547ZM32.5842 64.9985V60.149H33.145V64.9985H32.5842Z" fill="white"/>
<path d="M34.0645 60.1484H34.6729L36.2462 64.3054L37.8196 60.1484H38.428L36.5459 64.9979H35.9193L34.0645 60.1484Z" fill="white"/>
<path d="M39.6055 62.7053C39.6055 62.9687 39.6396 63.2162 39.7077 63.45C39.7758 63.6839 39.878 63.8882 40.0119 64.0585C40.1459 64.231 40.3162 64.3672 40.5228 64.4717C40.7271 64.5738 40.9655 64.6261 41.2357 64.6261C41.6034 64.6261 41.919 64.5284 42.1801 64.3354C42.4412 64.1425 42.616 63.8678 42.7046 63.5136H43.3312C43.2631 63.7452 43.17 63.9586 43.0587 64.1561C42.9452 64.3513 42.8045 64.5239 42.6365 64.6715C42.4684 64.819 42.2687 64.9325 42.0371 65.0143C41.8055 65.0937 41.5376 65.1346 41.2334 65.1346C40.8452 65.1346 40.5114 65.0688 40.2299 64.9371C39.9506 64.8054 39.7191 64.6283 39.5374 64.399C39.3558 64.172 39.2219 63.9018 39.1356 63.5931C39.0493 63.2843 39.0039 62.9505 39.0039 62.5964C39.0039 62.2422 39.0539 61.9062 39.1583 61.5951C39.2627 61.2818 39.408 61.0094 39.5987 60.7756C39.7894 60.5417 40.0233 60.3578 40.2957 60.2216C40.5704 60.0876 40.8815 60.0195 41.2334 60.0195C41.9009 60.0195 42.4253 60.2488 42.8067 60.7075C43.1859 61.1661 43.3743 61.8335 43.3675 62.7053H39.6033H39.6055ZM42.7704 62.2354C42.7704 61.9993 42.7386 61.7745 42.6728 61.5679C42.6069 61.359 42.5116 61.1774 42.3822 61.0253C42.255 60.8709 42.0938 60.7506 41.8986 60.6598C41.7056 60.569 41.4831 60.5235 41.2357 60.5235C40.9882 60.5235 40.7657 60.5712 40.575 60.6643C40.3843 60.7597 40.2231 60.8845 40.0891 61.0389C39.9552 61.1933 39.8462 61.3749 39.7667 61.5815C39.685 61.7859 39.6328 62.0061 39.6078 62.2354H42.7727H42.7704Z" fill="white"/>
<path d="M47.416 62.9843C47.441 63.284 47.5068 63.5383 47.6181 63.7472C47.727 63.956 47.8678 64.1263 48.0381 64.258C48.2083 64.3897 48.4081 64.485 48.6329 64.544C48.8577 64.6031 49.096 64.6326 49.3526 64.6326C49.6523 64.6326 49.9111 64.5963 50.1313 64.5214C50.3493 64.4464 50.5264 64.3443 50.6648 64.2171C50.8033 64.09 50.9032 63.9424 50.9691 63.7721C51.0349 63.6041 51.0667 63.427 51.0667 63.2386C51.0667 62.9752 51.0077 62.7641 50.8896 62.6006C50.7716 62.4394 50.6172 62.3055 50.4265 62.2033C50.2358 62.1012 50.0178 62.0172 49.7703 61.9559C49.5251 61.8923 49.2709 61.831 49.012 61.772C48.7532 61.7129 48.4989 61.6426 48.2537 61.5608C48.0086 61.4814 47.7906 61.3701 47.5976 61.2339C47.4069 61.0977 47.2525 60.9206 47.1345 60.7049C47.0141 60.4892 46.9551 60.2168 46.9551 59.8853C46.9551 59.6537 47.0051 59.429 47.1004 59.211C47.1958 58.9908 47.3388 58.7978 47.5318 58.6298C47.7225 58.4618 47.9609 58.3279 48.2469 58.228C48.533 58.1281 48.8645 58.0781 49.2391 58.0781C49.6137 58.0781 49.952 58.1326 50.2358 58.237C50.5195 58.3438 50.7557 58.4891 50.9441 58.673C51.1303 58.8569 51.271 59.0703 51.3641 59.3155C51.4595 59.5584 51.5049 59.8172 51.5049 60.0919H50.8964C50.8964 59.8354 50.851 59.6151 50.7602 59.429C50.6694 59.2428 50.5468 59.0884 50.3901 58.9704C50.2335 58.85 50.0564 58.7638 49.8566 58.707C49.6568 58.6502 49.4502 58.623 49.2368 58.623C48.9121 58.623 48.6397 58.6684 48.4172 58.7592C48.1947 58.85 48.0199 58.9658 47.8882 59.1089C47.7565 59.2542 47.6657 59.4131 47.6158 59.5879C47.5658 59.7627 47.5568 59.9375 47.5885 60.1123C47.6271 60.3303 47.7134 60.5051 47.8496 60.6368C47.9881 60.7685 48.1561 60.8752 48.3559 60.9615C48.5557 61.0455 48.7759 61.1158 49.0166 61.1658C49.2572 61.2203 49.5024 61.2748 49.7522 61.3338C50.0019 61.3928 50.2426 61.4632 50.4764 61.5449C50.7103 61.6267 50.9191 61.7356 51.0985 61.8719C51.2801 62.0104 51.4254 62.1852 51.5321 62.4008C51.6411 62.6165 51.6956 62.8867 51.6956 63.2114C51.6956 63.8334 51.4799 64.3193 51.0508 64.6621C50.6194 65.0049 50.0133 65.1775 49.2323 65.1775C48.8826 65.1775 48.558 65.1321 48.2583 65.0435C47.9586 64.9527 47.6998 64.8165 47.4818 64.6303C47.2616 64.4464 47.0936 64.2171 46.971 63.947C46.8484 63.6745 46.7871 63.3567 46.7871 62.9866H47.4069L47.416 62.9843Z" fill="white"/>
<path d="M53.1368 62.7053C53.1368 62.9687 53.1709 63.2162 53.239 63.45C53.3071 63.6839 53.4092 63.8882 53.5432 64.0585C53.6771 64.231 53.8474 64.3672 54.054 64.4717C54.2583 64.5738 54.4967 64.6261 54.7669 64.6261C55.1347 64.6261 55.4503 64.5284 55.7114 64.3354C55.9725 64.1425 56.1473 63.8678 56.2358 63.5136H56.8624C56.7943 63.7452 56.7012 63.9586 56.59 64.1561C56.4765 64.3513 56.3357 64.5239 56.1677 64.6715C55.9997 64.819 55.7999 64.9325 55.5683 65.0143C55.3368 65.0937 55.0689 65.1346 54.7646 65.1346C54.3764 65.1346 54.0427 65.0688 53.7611 64.9371C53.4819 64.8054 53.2503 64.6283 53.0687 64.399C52.8871 64.172 52.7531 63.9018 52.6668 63.5931C52.5806 63.2843 52.5352 62.9505 52.5352 62.5964C52.5352 62.2422 52.5851 61.9062 52.6895 61.5951C52.794 61.2818 52.9393 61.0094 53.13 60.7756C53.3207 60.5417 53.5545 60.3578 53.827 60.2216C54.1017 60.0876 54.4127 60.0195 54.7646 60.0195C55.4321 60.0195 55.9566 60.2488 56.338 60.7075C56.7171 61.1661 56.9056 61.8335 56.8987 62.7053H53.1345H53.1368ZM56.3017 62.2354C56.3017 61.9993 56.2699 61.7745 56.204 61.5679C56.1382 61.359 56.0428 61.1774 55.9134 61.0253C55.7863 60.8709 55.6251 60.7506 55.4298 60.6598C55.2369 60.569 55.0144 60.5235 54.7669 60.5235C54.5194 60.5235 54.2969 60.5712 54.1062 60.6643C53.9155 60.7597 53.7543 60.8845 53.6204 61.0389C53.4864 61.1933 53.3775 61.3749 53.298 61.5815C53.2163 61.7859 53.164 62.0061 53.1391 62.2354H56.3039H56.3017Z" fill="white"/>
<path d="M60.223 62.1718C60.3297 62.1582 60.4569 62.14 60.6022 62.1151C60.7475 62.0901 60.8701 62.056 60.9632 62.0129C61.0585 61.9698 61.1153 61.8971 61.1357 61.7927C61.1584 61.6905 61.1698 61.5952 61.1698 61.5066C61.1698 61.2205 61.0767 60.9844 60.8928 60.8005C60.7089 60.6166 60.4001 60.5235 59.9619 60.5235C59.7667 60.5235 59.5896 60.5417 59.4284 60.5758C59.265 60.6098 59.1242 60.6711 59.0016 60.7551C58.879 60.8391 58.7791 60.9504 58.7019 61.0911C58.6224 61.2319 58.5725 61.4067 58.5475 61.6201H57.9754C57.9936 61.3341 58.0594 61.0889 58.1729 60.8868C58.2864 60.6847 58.4295 60.519 58.6066 60.3896C58.7859 60.2625 58.9902 60.1671 59.2241 60.1081C59.4579 60.049 59.7077 60.0195 59.9688 60.0195C60.2117 60.0195 60.441 60.0468 60.6567 60.099C60.8724 60.1512 61.0585 60.2352 61.2174 60.351C61.3764 60.4668 61.5012 60.6212 61.5921 60.8142C61.6829 61.0071 61.7283 61.2455 61.7283 61.527V64.1674C61.7283 64.3854 61.7669 64.5239 61.8441 64.5829C61.9235 64.6419 62.0802 64.6283 62.3163 64.5398V64.9802C62.2732 64.9938 62.2096 65.012 62.1256 65.037C62.0416 65.062 61.9576 65.0733 61.8758 65.0733C61.7896 65.0733 61.7033 65.0642 61.6238 65.0461C61.5285 65.0324 61.4558 65.0029 61.3991 64.9575C61.3423 64.9121 61.2969 64.8554 61.2651 64.7895C61.2311 64.7237 61.2061 64.6533 61.1947 64.5738C61.1811 64.4966 61.1743 64.4126 61.1743 64.3264C60.9382 64.5875 60.6657 64.7872 60.3593 64.9257C60.055 65.062 59.7236 65.1301 59.3671 65.1301C59.1537 65.1301 58.9494 65.1028 58.7541 65.0461C58.5566 64.9893 58.3841 64.903 58.2342 64.785C58.0844 64.6669 57.9663 64.5216 57.8778 64.3491C57.7915 64.1765 57.7461 63.9745 57.7461 63.7361C57.7461 62.9142 58.3114 62.4261 59.442 62.2762L60.2185 62.1741L60.223 62.1718ZM61.1698 62.4533C60.9314 62.5532 60.6907 62.6168 60.4478 62.6486C60.2049 62.6804 59.9619 62.7053 59.7167 62.7235C59.2854 62.7553 58.9494 62.8506 58.7087 63.0141C58.4703 63.1753 58.3477 63.4228 58.3477 63.7542C58.3477 63.9041 58.3773 64.0335 58.4363 64.1425C58.4976 64.2514 58.5748 64.3423 58.6701 64.4149C58.7655 64.4876 58.879 64.5398 59.0061 64.5738C59.1333 64.6079 59.2627 64.6261 59.3966 64.6261C59.6214 64.6261 59.8393 64.5988 60.0528 64.5421C60.2639 64.4853 60.4546 64.399 60.6181 64.2855C60.7838 64.1697 60.9155 64.0221 61.0154 63.8451C61.1153 63.668 61.1652 63.4568 61.1652 63.2139V62.4556L61.1698 62.4533Z" fill="white"/>
<path d="M63.7916 64.9968H63.2285V60.1473H63.7916V61.0554H63.8097C63.9664 60.6695 64.1662 60.3993 64.4136 60.2449C64.6588 60.0905 64.9858 60.0156 65.3921 60.0156V60.6241C65.072 60.6173 64.8109 60.6672 64.6066 60.7739C64.4 60.8806 64.2365 61.0237 64.1139 61.2053C63.9936 61.3869 63.9096 61.6003 63.8597 61.8478C63.8143 62.0953 63.7916 62.3518 63.7916 62.6197V64.999V64.9968Z" fill="white"/>
<path d="M69.7568 61.6746C69.6569 61.3136 69.4843 61.0298 69.2414 60.8278C68.9985 60.6257 68.6874 60.5235 68.3151 60.5235C68.029 60.5235 67.7816 60.5848 67.575 60.7029C67.3706 60.821 67.2004 60.9776 67.071 61.1751C66.9393 61.3727 66.8439 61.5929 66.7803 61.8403C66.719 62.0855 66.6873 62.333 66.6873 62.585C66.6873 62.837 66.7168 63.089 66.7758 63.3342C66.8348 63.5772 66.9302 63.7974 67.0619 63.9904C67.1935 64.1856 67.3616 64.34 67.5659 64.4535C67.7725 64.5693 68.0222 64.6261 68.3151 64.6261C68.7328 64.6261 69.0688 64.5103 69.3209 64.2787C69.5751 64.0471 69.7341 63.7293 69.8044 63.3252H70.4038C70.3539 63.5931 70.2744 63.8382 70.1654 64.0585C70.0564 64.281 69.9157 64.4717 69.7431 64.6306C69.5706 64.7895 69.3685 64.9144 69.1301 65.0007C68.8918 65.0869 68.6216 65.1323 68.3151 65.1323C67.9291 65.1323 67.5931 65.0665 67.3139 64.9348C67.0324 64.8031 66.8008 64.6261 66.6214 64.3968C66.4398 64.1697 66.3058 63.8995 66.2196 63.5862C66.1333 63.2729 66.0879 62.9415 66.0879 62.585C66.0879 62.2467 66.1356 61.9244 66.2332 61.6156C66.3308 61.3068 66.4716 61.0321 66.66 60.796C66.8462 60.5599 67.08 60.3714 67.357 60.2307C67.634 60.0899 67.9541 60.0195 68.3174 60.0195C68.8781 60.0195 69.3322 60.1535 69.6796 60.4214C70.0269 60.6893 70.2426 61.107 70.3312 61.6769H69.759L69.7568 61.6746Z" fill="white"/>
<path d="M71.5254 64.9985V58.2578H72.0884V60.8233C72.3132 60.5872 72.5448 60.3919 72.7854 60.2444C73.0261 60.0945 73.3167 60.0196 73.6527 60.0196C73.9524 60.0196 74.2316 60.0718 74.4859 60.174C74.7402 60.2761 74.9581 60.4578 75.1307 60.712C75.2487 60.8869 75.3191 61.0662 75.3418 61.2501C75.3623 61.434 75.3736 61.627 75.3736 61.8268V65.0007H74.8106V61.8359C74.8106 61.4 74.7152 61.073 74.52 60.8528C74.327 60.6349 74.0046 60.5259 73.5573 60.5259C73.3825 60.5259 73.2236 60.5531 73.0783 60.6053C72.9353 60.6598 72.8059 60.7302 72.6901 60.8165C72.5743 60.9028 72.4767 61.0027 72.3949 61.1162C72.3155 61.2297 72.2519 61.3477 72.2088 61.4726C72.152 61.6293 72.1179 61.7768 72.1066 61.9221C72.0952 62.0674 72.0884 62.2218 72.0884 62.3898V65.003H71.5254V64.9985Z" fill="white"/>
<path d="M84.4534 64.9945V58.2539H88.9374V58.7965H85.0891V61.2303H88.5628V61.7729H85.0891V64.4519H89.0304V64.9945H84.4512H84.4534Z" fill="white"/>
<path d="M90.6529 64.9945H90.0898V60.145H90.6529V60.8193C90.8776 60.5832 91.1092 60.388 91.3499 60.2404C91.5905 60.0906 91.8811 60.0156 92.2172 60.0156C92.5168 60.0156 92.7961 60.0678 93.0504 60.17C93.3046 60.2722 93.5226 60.4538 93.6951 60.7081C93.8132 60.8829 93.8836 61.0623 93.9063 61.2462C93.9267 61.43 93.9381 61.623 93.9381 61.8228V64.9968H93.375V61.8319C93.375 61.396 93.2797 61.0691 93.0844 60.8488C92.8914 60.6309 92.5691 60.5219 92.1218 60.5219C91.947 60.5219 91.7881 60.5492 91.6428 60.6014C91.4997 60.6559 91.3703 60.7262 91.2545 60.8125C91.1387 60.8988 91.0411 60.9987 90.9594 61.1122C90.8799 61.2257 90.8163 61.3438 90.7732 61.4686C90.7165 61.6253 90.6824 61.7729 90.6711 61.9182C90.6597 62.0635 90.6529 62.2179 90.6529 62.3859V64.999V64.9945Z" fill="white"/>
<path d="M95.8599 64.9945H95.2969V60.145H95.8599V60.8193C96.0847 60.5832 96.3163 60.388 96.5569 60.2404C96.7976 60.0906 97.0882 60.0156 97.4242 60.0156C97.7239 60.0156 98.0031 60.0678 98.2574 60.17C98.5117 60.2722 98.7296 60.4538 98.9022 60.7081C99.0202 60.8829 99.0906 61.0623 99.1133 61.2462C99.1337 61.43 99.1451 61.623 99.1451 61.8228V64.9968H98.5821V61.8319C98.5821 61.396 98.4867 61.0691 98.2915 60.8488C98.0985 60.6309 97.7761 60.5219 97.3288 60.5219C97.154 60.5219 96.9951 60.5492 96.8498 60.6014C96.7068 60.6559 96.5773 60.7262 96.4616 60.8125C96.3458 60.8988 96.2481 60.9987 96.1664 61.1122C96.087 61.2257 96.0234 61.3438 95.9802 61.4686C95.9235 61.6253 95.8894 61.7729 95.8781 61.9182C95.8645 62.0612 95.8599 62.2179 95.8599 62.3859V64.999V64.9945Z" fill="white"/>
<path d="M100.85 62.7014C100.85 62.9648 100.884 63.2123 100.952 63.4461C101.02 63.68 101.122 63.8843 101.256 64.0546C101.39 64.2271 101.56 64.3633 101.767 64.4678C101.971 64.5699 102.21 64.6221 102.48 64.6221C102.848 64.6221 103.163 64.5245 103.424 64.3315C103.685 64.1386 103.86 63.8639 103.949 63.5097H104.575C104.507 63.7413 104.414 63.9547 104.303 64.1522C104.189 64.3474 104.049 64.52 103.881 64.6676C103.713 64.8151 103.513 64.9286 103.281 65.0104C103.05 65.0898 102.782 65.1307 102.478 65.1307C102.089 65.1307 101.756 65.0649 101.474 64.9332C101.195 64.8015 100.963 64.6244 100.782 64.3951C100.6 64.1681 100.466 63.8979 100.38 63.5891C100.293 63.2804 100.248 62.9466 100.248 62.5925C100.248 62.2383 100.298 61.9023 100.402 61.5912C100.507 61.2779 100.652 61.0055 100.843 60.7717C101.034 60.5378 101.267 60.3539 101.54 60.2177C101.815 60.0837 102.126 60.0156 102.478 60.0156C103.145 60.0156 103.669 60.2449 104.051 60.7035C104.43 61.1622 104.618 61.8296 104.612 62.7014H100.847H100.85ZM104.015 62.2315C104.015 61.9954 103.983 61.7706 103.917 61.564C103.851 61.3551 103.756 61.1735 103.626 61.0214C103.499 60.867 103.338 60.7467 103.143 60.6559C102.95 60.565 102.727 60.5196 102.48 60.5196C102.232 60.5196 102.01 60.5673 101.819 60.6604C101.628 60.7558 101.467 60.8806 101.333 61.035C101.199 61.1894 101.09 61.371 101.011 61.5776C100.929 61.782 100.877 62.0022 100.852 62.2315H104.017H104.015Z" fill="white"/>
<path d="M107.938 62.1679C108.045 62.1543 108.172 62.1361 108.317 62.1112C108.462 62.0862 108.585 62.0521 108.678 62.009C108.773 61.9659 108.83 61.8932 108.851 61.7888C108.873 61.6866 108.885 61.5912 108.885 61.5027C108.885 61.2166 108.792 60.9805 108.608 60.7966C108.424 60.6127 108.115 60.5196 107.677 60.5196C107.482 60.5196 107.304 60.5378 107.143 60.5719C106.98 60.6059 106.839 60.6672 106.716 60.7512C106.594 60.8352 106.494 60.9465 106.417 61.0872C106.337 61.228 106.287 61.4028 106.262 61.6162H105.69C105.708 61.3302 105.774 61.085 105.888 60.8829C106.001 60.6808 106.144 60.5151 106.321 60.3857C106.501 60.2586 106.705 60.1632 106.939 60.1042C107.173 60.0451 107.423 60.0156 107.684 60.0156C107.927 60.0156 108.156 60.0429 108.372 60.0951C108.587 60.1473 108.773 60.2313 108.932 60.3471C109.091 60.4629 109.216 60.6173 109.307 60.8102C109.398 61.0032 109.443 61.2416 109.443 61.5231V64.1635C109.443 64.3815 109.482 64.52 109.559 64.579C109.638 64.638 109.795 64.6244 110.031 64.5359V64.9763C109.988 64.9899 109.924 65.0081 109.84 65.0331C109.756 65.0581 109.672 65.0694 109.591 65.0694C109.504 65.0694 109.418 65.0603 109.339 65.0422C109.243 65.0285 109.171 64.999 109.114 64.9536C109.057 64.9082 109.012 64.8515 108.98 64.7856C108.946 64.7198 108.921 64.6494 108.91 64.5699C108.896 64.4927 108.889 64.4087 108.889 64.3225C108.653 64.5835 108.381 64.7833 108.074 64.9218C107.77 65.0581 107.438 65.1262 107.082 65.1262C106.869 65.1262 106.664 65.0989 106.469 65.0422C106.271 64.9854 106.099 64.8991 105.949 64.7811C105.799 64.663 105.681 64.5177 105.593 64.3452C105.506 64.1726 105.461 63.9706 105.461 63.7322C105.461 62.9103 106.026 62.4222 107.157 62.2723L107.933 62.1702L107.938 62.1679ZM108.885 62.4494C108.646 62.5493 108.406 62.6129 108.163 62.6447C107.92 62.6765 107.677 62.7014 107.432 62.7196C107 62.7514 106.664 62.8467 106.424 63.0102C106.185 63.1714 106.063 63.4189 106.063 63.7503C106.063 63.9002 106.092 64.0296 106.151 64.1386C106.212 64.2475 106.29 64.3384 106.385 64.411C106.48 64.4837 106.594 64.5359 106.721 64.5699C106.848 64.604 106.978 64.6221 107.111 64.6221C107.336 64.6221 107.554 64.5949 107.768 64.5381C107.979 64.4814 108.169 64.3951 108.333 64.2816C108.499 64.1658 108.63 64.0182 108.73 63.8411C108.83 63.6641 108.88 63.4529 108.88 63.21V62.4517L108.885 62.4494Z" fill="white"/>
<path d="M114.661 60.1467H115.222V64.5284C115.222 64.8531 115.19 65.1641 115.124 65.4593C115.059 65.7567 114.94 66.0178 114.775 66.2425C114.607 66.4673 114.373 66.6467 114.082 66.7806C113.787 66.9146 113.41 66.9827 112.949 66.9827C112.593 66.9827 112.286 66.9373 112.03 66.8487C111.773 66.7579 111.567 66.6444 111.403 66.5059C111.242 66.3674 111.117 66.2153 111.033 66.0518C110.949 65.8861 110.904 65.7317 110.899 65.5887H111.499C111.542 65.7703 111.612 65.9179 111.703 66.0337C111.798 66.1494 111.907 66.2403 112.037 66.3061C112.164 66.3719 112.307 66.4151 112.461 66.4401C112.618 66.465 112.781 66.4787 112.949 66.4787C113.329 66.4787 113.635 66.4128 113.867 66.2811C114.098 66.1495 114.271 65.9792 114.391 65.7658C114.509 65.5523 114.586 65.3117 114.62 65.0438C114.654 64.7759 114.668 64.5012 114.663 64.2219C114.482 64.5216 114.232 64.7464 113.919 64.9008C113.603 65.0551 113.274 65.1301 112.931 65.1301C112.563 65.1301 112.243 65.0597 111.971 64.9189C111.698 64.7804 111.474 64.592 111.297 64.3582C111.117 64.1243 110.986 63.8519 110.899 63.5386C110.813 63.2253 110.768 62.9006 110.768 62.5646C110.768 62.2104 110.808 61.8744 110.888 61.5634C110.97 61.2501 111.099 60.9822 111.276 60.7551C111.455 60.5281 111.68 60.3465 111.955 60.217C112.23 60.0854 112.563 60.0195 112.956 60.0195C113.113 60.0195 113.272 60.0422 113.435 60.0854C113.596 60.1285 113.755 60.1898 113.907 60.2715C114.062 60.351 114.2 60.4554 114.327 60.5803C114.455 60.7052 114.561 60.8459 114.641 61.0026H114.661V60.1512V60.1467ZM114.661 62.5896C114.661 62.2967 114.625 62.0242 114.552 61.77C114.48 61.5157 114.377 61.2977 114.239 61.1138C114.1 60.9299 113.93 60.7846 113.724 60.6802C113.519 60.5735 113.283 60.519 113.022 60.519C112.784 60.519 112.566 60.5621 112.366 60.6461C112.166 60.7301 111.991 60.855 111.841 61.0162C111.692 61.1797 111.574 61.3772 111.492 61.611C111.408 61.8449 111.365 62.1151 111.365 62.4216C111.351 62.7258 111.378 63.0118 111.44 63.2775C111.501 63.5408 111.601 63.7747 111.739 63.9745C111.878 64.1765 112.053 64.3332 112.264 64.449C112.475 64.5648 112.727 64.6215 113.022 64.6215C113.279 64.6215 113.508 64.567 113.71 64.458C113.912 64.3491 114.085 64.2015 114.225 64.0176C114.366 63.8337 114.475 63.6203 114.55 63.3728C114.625 63.1276 114.663 62.8665 114.663 62.5896H114.661Z" fill="white"/>
<path d="M117.225 64.9968H116.662V60.1473H117.225V61.0554H117.243C117.4 60.6695 117.6 60.3993 117.847 60.2449C118.092 60.0905 118.419 60.0156 118.826 60.0156V60.6241C118.506 60.6173 118.245 60.6672 118.04 60.7739C117.834 60.8806 117.67 61.0237 117.548 61.2053C117.427 61.3869 117.343 61.6003 117.293 61.8478C117.248 62.0953 117.225 62.3518 117.225 62.6197V64.999V64.9968Z" fill="white"/>
<path d="M121.983 62.1679C122.089 62.1543 122.217 62.1361 122.362 62.1112C122.507 62.0862 122.63 62.0521 122.723 62.009C122.818 61.9659 122.875 61.8932 122.895 61.7888C122.918 61.6866 122.93 61.5912 122.93 61.5027C122.93 61.2166 122.836 60.9805 122.653 60.7966C122.469 60.6127 122.16 60.5196 121.722 60.5196C121.526 60.5196 121.349 60.5378 121.188 60.5719C121.025 60.6059 120.884 60.6672 120.761 60.7512C120.639 60.8352 120.539 60.9465 120.462 61.0872C120.382 61.228 120.332 61.4028 120.307 61.6162H119.735C119.753 61.3302 119.819 61.085 119.933 60.8829C120.046 60.6808 120.189 60.5151 120.366 60.3857C120.546 60.2586 120.75 60.1632 120.984 60.1042C121.218 60.0451 121.467 60.0156 121.729 60.0156C121.971 60.0156 122.201 60.0429 122.416 60.0951C122.632 60.1473 122.818 60.2313 122.977 60.3471C123.136 60.4629 123.261 60.6173 123.352 60.8102C123.443 61.0032 123.488 61.2416 123.488 61.5231V64.1635C123.488 64.3815 123.527 64.52 123.604 64.579C123.683 64.638 123.84 64.6244 124.076 64.5359V64.9763C124.033 64.9899 123.969 65.0081 123.885 65.0331C123.801 65.0581 123.717 65.0694 123.636 65.0694C123.549 65.0694 123.463 65.0603 123.384 65.0422C123.288 65.0285 123.216 64.999 123.159 64.9536C123.102 64.9082 123.057 64.8515 123.025 64.7856C122.991 64.7198 122.966 64.6494 122.955 64.5699C122.941 64.4927 122.934 64.4087 122.934 64.3225C122.698 64.5835 122.426 64.7833 122.119 64.9218C121.815 65.0581 121.483 65.1262 121.127 65.1262C120.913 65.1262 120.709 65.0989 120.514 65.0422C120.316 64.9854 120.144 64.8991 119.994 64.7811C119.844 64.663 119.726 64.5177 119.638 64.3452C119.551 64.1726 119.506 63.9706 119.506 63.7322C119.506 62.9103 120.071 62.4222 121.202 62.2723L121.978 62.1702L121.983 62.1679ZM122.93 62.4494C122.691 62.5493 122.45 62.6129 122.208 62.6447C121.965 62.6765 121.722 62.7014 121.477 62.7196C121.045 62.7514 120.709 62.8467 120.468 63.0102C120.23 63.1714 120.108 63.4189 120.108 63.7503C120.108 63.9002 120.137 64.0296 120.196 64.1386C120.257 64.2475 120.335 64.3384 120.43 64.411C120.525 64.4837 120.639 64.5359 120.766 64.5699C120.893 64.604 121.022 64.6221 121.156 64.6221C121.381 64.6221 121.599 64.5949 121.813 64.5381C122.024 64.4814 122.214 64.3951 122.378 64.2816C122.544 64.1658 122.675 64.0182 122.775 63.8411C122.875 63.6641 122.925 63.4529 122.925 63.21V62.4517L122.93 62.4494Z" fill="white"/>
<path d="M125.447 64.9968H124.887V60.1473H125.447V60.8784H125.468C125.611 60.5991 125.818 60.3857 126.085 60.2358C126.353 60.0905 126.646 60.0156 126.966 60.0156C127.191 60.0156 127.382 60.0406 127.538 60.0905C127.693 60.1405 127.827 60.2063 127.936 60.2926C128.045 60.3766 128.133 60.4765 128.208 60.5877C128.279 60.7013 128.34 60.8216 128.39 60.9533C128.553 60.6332 128.769 60.3993 129.041 60.2449C129.314 60.0905 129.625 60.0156 129.972 60.0156C130.304 60.0156 130.567 60.0701 130.765 60.1791C130.96 60.2881 131.112 60.4334 131.219 60.6105C131.325 60.7875 131.396 60.9941 131.43 61.2234C131.464 61.455 131.482 61.6911 131.482 61.9341V64.9968H130.919V61.6435C130.919 61.2938 130.846 61.0191 130.699 60.8193C130.553 60.6195 130.279 60.5196 129.879 60.5196C129.673 60.5196 129.475 60.565 129.284 60.6559C129.094 60.7467 128.928 60.8852 128.783 61.0713C128.719 61.1531 128.669 61.2484 128.628 61.3574C128.587 61.4664 128.556 61.5822 128.531 61.7002C128.506 61.8183 128.487 61.9386 128.481 62.0567C128.472 62.1747 128.467 62.2837 128.467 62.3836V64.9968H127.904V61.6435C127.904 61.2938 127.831 61.0191 127.684 60.8193C127.536 60.6195 127.264 60.5196 126.864 60.5196C126.66 60.5196 126.46 60.565 126.272 60.6559C126.081 60.7467 125.915 60.8852 125.77 61.0713C125.706 61.1531 125.656 61.2484 125.615 61.3574C125.575 61.4664 125.543 61.5822 125.518 61.7002C125.493 61.8183 125.475 61.9386 125.466 62.0567C125.457 62.1747 125.452 62.2837 125.452 62.3836V64.9968H125.447Z" fill="white"/>
<path d="M134.836 58.2539H139.742V58.7965H137.608V64.9945H136.97V58.7965H134.834V58.2539H134.836Z" fill="white"/>
<path d="M142.797 62.1679C142.904 62.1543 143.031 62.1361 143.176 62.1112C143.322 62.0862 143.444 62.0521 143.537 62.009C143.633 61.9659 143.689 61.8932 143.71 61.7888C143.733 61.6866 143.744 61.5912 143.744 61.5027C143.744 61.2166 143.651 60.9805 143.467 60.7966C143.283 60.6127 142.974 60.5196 142.536 60.5196C142.341 60.5196 142.164 60.5378 142.003 60.5719C141.839 60.6059 141.698 60.6672 141.576 60.7512C141.453 60.8352 141.353 60.9465 141.276 61.0872C141.197 61.228 141.147 61.4028 141.122 61.6162H140.55C140.568 61.3302 140.634 61.085 140.747 60.8829C140.861 60.6808 141.004 60.5151 141.181 60.3857C141.36 60.2586 141.564 60.1632 141.798 60.1042C142.032 60.0451 142.282 60.0156 142.543 60.0156C142.786 60.0156 143.015 60.0429 143.231 60.0951C143.447 60.1473 143.633 60.2313 143.792 60.3471C143.951 60.4629 144.075 60.6173 144.166 60.8102C144.257 61.0032 144.302 61.2416 144.302 61.5231V64.1635C144.302 64.3815 144.341 64.52 144.418 64.579C144.498 64.638 144.654 64.6244 144.891 64.5359V64.9763C144.847 64.9899 144.784 65.0081 144.7 65.0331C144.616 65.0581 144.532 65.0694 144.45 65.0694C144.364 65.0694 144.278 65.0603 144.198 65.0422C144.103 65.0285 144.03 64.999 143.973 64.9536C143.917 64.9082 143.871 64.8515 143.839 64.7856C143.805 64.7198 143.78 64.6494 143.769 64.5699C143.755 64.4927 143.749 64.4087 143.749 64.3225C143.512 64.5835 143.24 64.7833 142.933 64.9218C142.629 65.0581 142.298 65.1262 141.941 65.1262C141.728 65.1262 141.524 65.0989 141.328 65.0422C141.131 64.9854 140.958 64.8991 140.808 64.7811C140.659 64.663 140.541 64.5177 140.452 64.3452C140.366 64.1726 140.32 63.9706 140.32 63.7322C140.32 62.9103 140.886 62.4222 142.016 62.2723L142.793 62.1702L142.797 62.1679ZM143.744 62.4494C143.506 62.5493 143.265 62.6129 143.022 62.6447C142.779 62.6765 142.536 62.7014 142.291 62.7196C141.86 62.7514 141.524 62.8467 141.283 63.0102C141.045 63.1714 140.922 63.4189 140.922 63.7503C140.922 63.9002 140.951 64.0296 141.01 64.1386C141.072 64.2475 141.149 64.3384 141.244 64.411C141.34 64.4837 141.453 64.5359 141.58 64.5699C141.707 64.604 141.837 64.6221 141.971 64.6221C142.196 64.6221 142.414 64.5949 142.627 64.5381C142.838 64.4814 143.029 64.3951 143.192 64.2816C143.358 64.1658 143.49 64.0182 143.59 63.8411C143.69 63.6641 143.739 63.4529 143.739 63.21V62.4517L143.744 62.4494Z" fill="white"/>
<path d="M145.859 64.9945V58.2539H146.42V64.9945H145.859Z" fill="white"/>
<path d="M148.199 62.7014C148.199 62.9648 148.233 63.2123 148.301 63.4461C148.37 63.68 148.472 63.8843 148.606 64.0546C148.74 64.2271 148.91 64.3633 149.117 64.4678C149.321 64.5699 149.559 64.6221 149.829 64.6221C150.197 64.6221 150.513 64.5245 150.774 64.3315C151.035 64.1386 151.21 63.8639 151.298 63.5097H151.925C151.857 63.7413 151.764 63.9547 151.652 64.1522C151.539 64.3474 151.398 64.52 151.23 64.6676C151.062 64.8129 150.862 64.9286 150.631 65.0104C150.399 65.0898 150.131 65.1307 149.827 65.1307C149.439 65.1307 149.105 65.0649 148.824 64.9332C148.544 64.8015 148.313 64.6244 148.131 64.3951C147.95 64.1681 147.816 63.8979 147.729 63.5891C147.643 63.2804 147.598 62.9466 147.598 62.5925C147.598 62.2383 147.648 61.9023 147.752 61.5912C147.856 61.2779 148.002 61.0055 148.192 60.7717C148.383 60.5378 148.617 60.3539 148.889 60.2177C149.164 60.0837 149.475 60.0156 149.827 60.0156C150.495 60.0156 151.019 60.2449 151.4 60.7035C151.78 61.1622 151.968 61.8296 151.961 62.7014H148.197H148.199ZM151.364 62.2315C151.364 61.9954 151.332 61.7706 151.267 61.564C151.201 61.3551 151.105 61.1735 150.976 61.0214C150.849 60.867 150.688 60.7467 150.492 60.6559C150.299 60.565 150.077 60.5196 149.829 60.5196C149.582 60.5196 149.359 60.5673 149.169 60.6604C148.978 60.7558 148.817 60.8806 148.683 61.035C148.549 61.1894 148.44 61.371 148.36 61.5776C148.279 61.782 148.227 62.0022 148.202 62.2315H151.366H151.364Z" fill="white"/>
<path d="M153.622 64.9945H153.059V60.145H153.622V60.8193C153.846 60.5832 154.078 60.388 154.319 60.2404C154.559 60.0906 154.85 60.0156 155.186 60.0156C155.486 60.0156 155.765 60.0678 156.019 60.17C156.273 60.2722 156.491 60.4538 156.664 60.7081C156.782 60.8829 156.852 61.0623 156.875 61.2462C156.895 61.43 156.907 61.623 156.907 61.8228V64.9968H156.344V61.8319C156.344 61.396 156.248 61.0691 156.053 60.8488C155.86 60.6309 155.538 60.5219 155.091 60.5219C154.916 60.5219 154.757 60.5492 154.612 60.6014C154.468 60.6559 154.339 60.7262 154.223 60.8125C154.107 60.8988 154.01 60.9987 153.928 61.1122C153.849 61.2257 153.785 61.3438 153.742 61.4686C153.685 61.6253 153.651 61.7729 153.64 61.9182C153.626 62.0612 153.622 62.2179 153.622 62.3859V64.999V64.9945Z" fill="white"/>
<path d="M159.97 65.0153C159.902 65.029 159.809 65.0494 159.698 65.0812C159.585 65.113 159.46 65.1266 159.323 65.1266C159.044 65.1266 158.831 65.0562 158.681 64.9154C158.536 64.7769 158.461 64.5249 158.461 64.1617V60.6131H157.777V60.1455H158.461V58.7969H159.021V60.1455H159.93V60.6131H159.021V63.9369C159.021 64.055 159.026 64.1571 159.031 64.2457C159.035 64.332 159.056 64.4046 159.087 64.4614C159.119 64.5181 159.167 64.5567 159.233 64.5817C159.298 64.6067 159.389 64.6203 159.507 64.6203C159.582 64.6203 159.659 64.6135 159.739 64.5999C159.816 64.5885 159.893 64.5726 159.968 64.5545V65.0131L159.97 65.0153Z" fill="white"/>
<path d="M163.818 62.9843C163.843 63.284 163.909 63.5383 164.02 63.7472C164.129 63.956 164.27 64.1263 164.44 64.258C164.611 64.3897 164.81 64.485 165.035 64.544C165.26 64.6031 165.498 64.6326 165.755 64.6326C166.055 64.6326 166.313 64.5963 166.534 64.5214C166.752 64.4464 166.929 64.3443 167.067 64.2171C167.206 64.09 167.306 63.9424 167.371 63.7721C167.437 63.6041 167.469 63.427 167.469 63.2386C167.469 62.9752 167.41 62.7641 167.292 62.6006C167.174 62.4394 167.02 62.3055 166.829 62.2033C166.638 62.1012 166.42 62.0172 166.173 61.9559C165.927 61.8923 165.673 61.831 165.414 61.772C165.156 61.7129 164.901 61.6426 164.656 61.5608C164.411 61.4814 164.193 61.3701 164 61.2339C163.809 61.0977 163.655 60.9206 163.537 60.7049C163.416 60.4892 163.357 60.2168 163.357 59.8853C163.357 59.6537 163.407 59.429 163.503 59.211C163.598 58.9908 163.741 58.7978 163.934 58.6298C164.125 58.4618 164.363 58.3279 164.649 58.228C164.935 58.1281 165.267 58.0781 165.641 58.0781C166.016 58.0781 166.354 58.1326 166.638 58.237C166.922 58.3438 167.158 58.4891 167.346 58.673C167.533 58.8569 167.673 59.0703 167.766 59.3155C167.862 59.5584 167.907 59.8172 167.907 60.0919H167.299C167.299 59.8354 167.253 59.6151 167.163 59.429C167.072 59.2428 166.949 59.0884 166.792 58.9704C166.636 58.85 166.459 58.7638 166.259 58.707C166.059 58.6502 165.853 58.623 165.639 58.623C165.315 58.623 165.042 58.6684 164.82 58.7592C164.597 58.85 164.422 58.9658 164.291 59.1089C164.159 59.2542 164.068 59.4131 164.018 59.5879C163.968 59.7627 163.959 59.9375 163.991 60.1123C164.029 60.3303 164.116 60.5051 164.252 60.6368C164.39 60.7685 164.558 60.8752 164.758 60.9615C164.958 61.0455 165.178 61.1158 165.419 61.1658C165.66 61.2203 165.905 61.2748 166.155 61.3338C166.404 61.3928 166.645 61.4632 166.879 61.5449C167.113 61.6267 167.321 61.7356 167.501 61.8719C167.68 62.0081 167.828 62.1852 167.934 62.4008C168.043 62.6165 168.098 62.8867 168.098 63.2114C168.098 63.8334 167.882 64.3193 167.453 64.6621C167.024 65.0049 166.416 65.1775 165.635 65.1775C165.285 65.1775 164.96 65.1321 164.661 65.0435C164.361 64.9527 164.102 64.8165 163.884 64.6303C163.664 64.4464 163.496 64.2171 163.373 63.947C163.251 63.6745 163.189 63.3567 163.189 62.9866H163.809L163.818 62.9843Z" fill="white"/>
<path d="M171.121 65.1284C170.807 65.1239 170.517 65.0671 170.247 64.9604C169.974 64.856 169.738 64.6971 169.534 64.4837C169.329 64.2702 169.17 64.0046 169.05 63.6868C168.932 63.3689 168.873 62.9966 168.873 62.572C168.873 62.2156 168.918 61.8841 169.014 61.5753C169.107 61.2666 169.248 60.9964 169.434 60.7648C169.62 60.5333 169.856 60.3516 170.135 60.2177C170.417 60.0837 170.744 60.0156 171.118 60.0156C171.493 60.0156 171.831 60.0837 172.111 60.2177C172.392 60.3516 172.626 60.5333 172.812 60.7603C172.998 60.9873 173.139 61.2575 173.228 61.5708C173.318 61.8841 173.364 62.2156 173.364 62.572C173.364 62.958 173.309 63.3099 173.205 63.6209C173.098 63.9342 172.948 64.1999 172.751 64.4246C172.553 64.6494 172.317 64.8219 172.038 64.9445C171.759 65.0671 171.452 65.1284 171.116 65.1284H171.121ZM172.769 62.572C172.769 62.286 172.737 62.0158 172.674 61.7683C172.612 61.5186 172.515 61.3006 172.383 61.1167C172.251 60.9328 172.083 60.7875 171.879 60.6831C171.672 60.5764 171.418 60.5219 171.118 60.5219C170.819 60.5219 170.574 60.5809 170.365 60.6967C170.156 60.8125 169.986 60.9646 169.854 61.1553C169.722 61.346 169.627 61.564 169.563 61.8115C169.502 62.0567 169.47 62.3132 169.47 62.5743C169.47 62.874 169.504 63.1487 169.577 63.403C169.649 63.6572 169.754 63.8729 169.89 64.0546C170.029 64.2339 170.199 64.3747 170.406 64.4746C170.61 64.5745 170.848 64.6244 171.116 64.6244C171.411 64.6244 171.661 64.5677 171.87 64.4519C172.079 64.3361 172.249 64.1817 172.381 63.9887C172.512 63.7957 172.608 63.5755 172.671 63.3326C172.735 63.0897 172.767 62.8354 172.767 62.5743L172.769 62.572Z" fill="white"/>
<path d="M174.484 64.9945V58.2539H175.045V64.9945H174.484Z" fill="white"/>
<path d="M179.762 60.1445H180.325V64.994H179.762V64.3197C179.687 64.406 179.603 64.4968 179.51 64.5921C179.415 64.6852 179.308 64.7715 179.185 64.8487C179.065 64.9259 178.922 64.9917 178.759 65.0462C178.597 65.0984 178.409 65.1257 178.198 65.1257C177.873 65.1257 177.601 65.0803 177.383 64.9917C177.163 64.9009 176.988 64.776 176.854 64.6126C176.72 64.4514 176.622 64.2629 176.563 64.045C176.504 63.8293 176.475 63.5954 176.475 63.3389V60.1445H177.038V63.3276C177.038 63.7476 177.133 64.0654 177.328 64.2879C177.521 64.5104 177.841 64.6216 178.284 64.6216C178.516 64.6216 178.722 64.5762 178.906 64.4854C179.09 64.3946 179.244 64.2697 179.369 64.1063C179.494 63.9428 179.59 63.7498 179.66 63.5251C179.728 63.3003 179.762 63.0528 179.762 62.7849V60.1445Z" fill="white"/>
<path d="M183.388 65.0153C183.32 65.029 183.227 65.0494 183.116 65.0812C183.003 65.113 182.878 65.1266 182.741 65.1266C182.462 65.1266 182.249 65.0562 182.099 64.9154C181.954 64.7769 181.879 64.5249 181.879 64.1617V60.6131H181.195V60.1455H181.879V58.7969H182.439V60.1455H183.348V60.6131H182.439V63.9369C182.439 64.055 182.444 64.1571 182.449 64.2457C182.453 64.332 182.474 64.4046 182.505 64.4614C182.537 64.5181 182.585 64.5567 182.651 64.5817C182.716 64.6067 182.807 64.6203 182.925 64.6203C183 64.6203 183.077 64.6135 183.157 64.5999C183.234 64.5885 183.311 64.5726 183.386 64.5545V65.0131L183.388 65.0153Z" fill="white"/>
<path d="M184.342 59.0871V58.2539H184.959V59.0871H184.342ZM184.369 64.9945V60.1451H184.93V64.9945H184.369Z" fill="white"/>
<path d="M188.293 65.1284C187.979 65.1239 187.689 65.0671 187.418 64.9604C187.146 64.856 186.91 64.6971 186.706 64.4837C186.501 64.2702 186.342 64.0046 186.222 63.6868C186.104 63.3689 186.045 62.9966 186.045 62.572C186.045 62.2156 186.09 61.8841 186.186 61.5753C186.279 61.2666 186.42 60.9964 186.606 60.7648C186.792 60.5333 187.028 60.3516 187.307 60.2177C187.589 60.0837 187.916 60.0156 188.29 60.0156C188.665 60.0156 189.003 60.0837 189.282 60.2177C189.564 60.3516 189.798 60.5333 189.984 60.7603C190.17 60.9873 190.311 61.2575 190.399 61.5708C190.49 61.8841 190.536 62.2156 190.536 62.572C190.536 62.958 190.481 63.3099 190.377 63.6209C190.27 63.9342 190.12 64.1999 189.923 64.4246C189.725 64.6494 189.489 64.8219 189.21 64.9445C188.931 65.0671 188.624 65.1284 188.288 65.1284H188.293ZM189.943 62.572C189.943 62.286 189.911 62.0158 189.848 61.7683C189.786 61.5186 189.689 61.3006 189.557 61.1167C189.425 60.9328 189.257 60.7875 189.053 60.6831C188.847 60.5764 188.592 60.5219 188.293 60.5219C187.993 60.5219 187.748 60.5809 187.539 60.6967C187.33 60.8125 187.16 60.9646 187.028 61.1553C186.896 61.346 186.801 61.564 186.737 61.8115C186.676 62.0567 186.644 62.3132 186.644 62.5743C186.644 62.874 186.678 63.1487 186.751 63.403C186.824 63.6572 186.928 63.8729 187.064 64.0546C187.203 64.2339 187.373 64.3747 187.58 64.4746C187.784 64.5745 188.022 64.6244 188.29 64.6244C188.585 64.6244 188.835 64.5677 189.044 64.4519C189.253 64.3361 189.423 64.1817 189.555 63.9887C189.687 63.7957 189.782 63.5755 189.845 63.3326C189.909 63.0897 189.941 62.8354 189.941 62.5743L189.943 62.572Z" fill="white"/>
<path d="M192.133 64.9945H191.57V60.145H192.133V60.8193C192.358 60.5832 192.59 60.388 192.83 60.2404C193.071 60.0906 193.362 60.0156 193.698 60.0156C193.997 60.0156 194.277 60.0678 194.531 60.17C194.785 60.2722 195.003 60.4538 195.176 60.7081C195.294 60.8829 195.364 61.0623 195.387 61.2462C195.407 61.43 195.419 61.623 195.419 61.8228V64.9968H194.856V61.8319C194.856 61.396 194.76 61.0691 194.565 60.8488C194.372 60.6309 194.05 60.5219 193.602 60.5219C193.427 60.5219 193.269 60.5492 193.123 60.6014C192.98 60.6559 192.851 60.7262 192.735 60.8125C192.619 60.8988 192.522 60.9987 192.44 61.1122C192.36 61.2257 192.297 61.3438 192.254 61.4686C192.197 61.6253 192.163 61.7729 192.152 61.9182C192.138 62.0612 192.133 62.2179 192.133 62.3859V64.999V64.9945Z" fill="white"/>
<path d="M197.104 63.4802C197.19 63.8979 197.349 64.1931 197.576 64.3656C197.803 64.5381 198.13 64.6221 198.554 64.6221C198.759 64.6221 198.938 64.5972 199.088 64.5472C199.238 64.4973 199.36 64.4292 199.458 64.3452C199.556 64.2612 199.628 64.1658 199.678 64.0591C199.728 63.9547 199.753 63.8411 199.753 63.7231C199.753 63.4847 199.676 63.3099 199.524 63.1941C199.369 63.0783 199.179 62.9875 198.947 62.9217C198.716 62.8558 198.468 62.7991 198.198 62.7537C197.928 62.7082 197.68 62.6379 197.449 62.5425C197.217 62.4494 197.026 62.3155 196.874 62.1407C196.72 61.9658 196.645 61.7184 196.645 61.4005C196.645 60.9964 196.793 60.6627 197.09 60.4039C197.387 60.145 197.805 60.0156 198.35 60.0156C198.895 60.0156 199.301 60.1314 199.628 60.3675C199.955 60.6014 200.155 60.9941 200.223 61.5413H199.651C199.601 61.1667 199.458 60.9033 199.224 60.7512C198.99 60.5968 198.695 60.5196 198.339 60.5196C197.982 60.5196 197.712 60.5968 197.524 60.7512C197.338 60.9033 197.242 61.1054 197.242 61.3551C197.242 61.5731 197.317 61.7411 197.471 61.8569C197.626 61.9727 197.817 62.0657 198.046 62.1384C198.277 62.211 198.527 62.2723 198.795 62.3291C199.063 62.3859 199.313 62.4653 199.544 62.5675C199.776 62.6697 199.969 62.8104 200.121 62.983C200.273 63.1578 200.35 63.4007 200.35 63.714C200.35 63.9456 200.3 64.1499 200.2 64.327C200.101 64.5064 199.964 64.6539 199.787 64.772C199.612 64.8923 199.406 64.9809 199.165 65.0399C198.925 65.0989 198.661 65.1284 198.373 65.1284C198.084 65.1284 197.83 65.0853 197.61 65.0013C197.387 64.9173 197.199 64.7992 197.042 64.6517C196.886 64.5018 196.765 64.327 196.679 64.1272C196.591 63.9274 196.541 63.7117 196.529 63.4824H197.101L197.104 63.4802Z" fill="white"/>
<path d="M79.7129 56.4961V67.7002" stroke="white" stroke-width="0.454068" stroke-miterlimit="10"/>
<path d="M39.0645 55.8867C39.1303 56.007 39.1871 56.1296 39.2529 56.2477C39.2007 56.1228 39.1371 56.0002 39.0645 55.8867Z" fill="white"/>
<path d="M39.0645 55.8867C39.1303 56.007 39.1871 56.1296 39.2529 56.2477C39.2007 56.1228 39.1371 56.0002 39.0645 55.8867Z" fill="url(#paint0_linear_1899_282)"/>
<path d="M91.8233 23.457H86.043C84.2744 23.457 82.8418 24.8896 82.8418 26.6582C82.8418 28.4268 84.2744 29.8594 86.043 29.8594H91.8233C93.5919 29.8594 95.0244 28.4268 95.0244 26.6582C95.0244 24.8896 93.5919 23.457 91.8233 23.457Z" fill="white"/>
<path d="M77.0859 17.7991C77.0859 17.9013 77.1041 18.0035 77.1427 18.0988C77.1132 18.0103 77.0996 17.9149 77.1041 17.8196L77.0882 17.7969L77.0859 17.7991Z" fill="#F2F2F2"/>
<path d="M77.6149 18.3256C77.6013 17.758 78.0485 17.2881 78.6161 17.2745C78.6275 17.2745 78.6411 17.2745 78.6525 17.2745H78.8454L101.313 17.2608C103.075 17.2608 104.503 15.8305 104.503 14.0687C104.503 12.307 103.075 10.8812 101.313 10.8789H77.6149C74.0891 10.8789 71.2284 13.735 71.2262 17.2608V29.0552C71.2262 33.907 67.0692 36.2931 62.9076 36.2931C58.7461 36.2931 54.5551 33.8933 54.5551 29.0552V15.5853C53.4154 17.3403 51.0701 17.8398 49.3129 16.7023C48.8497 16.4026 48.4569 16.0031 48.1641 15.5354V29.0552C48.1641 38.098 55.5608 42.6001 62.919 42.6001C70.2772 42.6001 77.6285 38.098 77.6285 29.0552V18.7979M77.6285 18.3256V18.7956V18.3256Z" fill="white"/>
<path d="M166.174 12.9179C166.174 11.8123 166.655 10.7611 167.495 10.0414H135.851V10.0051L122.363 9.96875C115.793 10.055 109.792 12.6841 109.792 19.1568C109.792 26.2539 117.062 27.8272 122.976 29.1009C127.228 29.975 130.815 30.7719 130.815 33.4327C130.815 35.7099 128.186 36.7179 124.726 36.7179H88.1172C89.7337 38.0529 89.9607 40.4435 88.6257 42.06C88.485 42.2303 88.3283 42.3892 88.1581 42.5345H124.032C131.301 42.5345 137.872 39.8623 137.872 33.2488C137.872 26.011 130.468 24.5103 124.508 23.3933C120.308 22.5578 116.796 21.8517 116.796 19.3225C116.796 16.7934 119.421 15.7717 122.753 15.7717H153.321V39.3447C153.321 41.1133 154.754 42.5459 156.523 42.5459C158.291 42.5459 159.724 41.1133 159.724 39.3447V15.7649H167.463C166.641 15.0452 166.169 14.0054 166.171 12.9134L166.174 12.9179Z" fill="white"/>
<path d="M197.883 33.9286C198.505 33.9286 199.118 34.0739 199.674 34.3509L198.668 32.1237L190.018 13.0755L189.993 13.0097C189.296 11.4182 187.852 10.2762 186.143 9.96745C185.53 9.84939 184.899 9.84939 184.286 9.96745C182.619 10.2694 181.205 11.3614 180.492 12.8962L180.394 13.1141L167.708 41.062L165.735 45.4302L165.587 45.7639C164.933 47.3599 165.699 49.183 167.295 49.8369C168.891 50.4907 170.714 49.7256 171.368 48.1296V48.0887L174.451 41.062L183.977 20.1477L185.18 17.5004L186.402 20.159L191.362 30.9931H183.793C182.281 31.0612 181.112 32.3416 181.18 33.8537C181.244 35.2704 182.376 36.4033 183.793 36.4669H193.817L194.012 36.9096C194.482 35.1546 196.071 33.9354 197.887 33.9332L197.883 33.9286Z" fill="white"/>
<path d="M21.0211 0C9.41289 0 6.23966e-05 9.52635 6.23966e-05 21.2799C-0.0181003 28.8038 3.93002 35.7806 10.3914 39.6379C13.5222 41.5086 17.0957 42.5167 20.7419 42.5621H21.2981C26.4382 42.671 31.1741 45.3727 33.8826 49.7431C34.3844 51.287 36.0417 52.1338 37.5855 51.6321C38.2439 51.4187 38.8047 50.9805 39.1725 50.3947C39.7764 49.423 39.7537 48.1902 39.1157 47.2412C38.6571 46.433 38.144 45.6565 37.5855 44.9141C35.9532 42.7982 33.9371 41.0092 31.6418 39.6401C28.5087 37.7785 24.942 36.775 21.2981 36.7273H20.7419C16.9459 36.6614 13.3156 35.1698 10.5685 32.5521C7.48083 29.6143 5.73948 25.5345 5.75083 21.2708C5.75083 12.7321 12.5891 5.81661 21.0189 5.81661C29.4486 5.81661 36.2756 12.7457 36.2756 21.2822C36.2824 24.0111 35.5672 26.6947 34.1982 29.0581C36.212 28.495 38.3007 29.6733 38.8637 31.6871C38.9205 31.8869 38.9591 32.0935 38.9818 32.3001C40.9842 28.9741 42.0377 25.1644 42.0309 21.2844C42.0309 9.53316 32.6158 0.00454068 21.0189 0.00454068L21.0211 0ZM39.261 47.8474C39.1952 47.7271 39.1385 47.6045 39.0726 47.4864C39.143 47.6022 39.202 47.7225 39.2542 47.8474H39.2633H39.261Z" fill="white"/>
<path d="M51.3671 16.3005C52.9106 16.3005 54.1618 15.0492 54.1618 13.5057C54.1618 11.9622 52.9106 10.7109 51.3671 10.7109C49.8235 10.7109 48.5723 11.9622 48.5723 13.5057C48.5723 15.0492 49.8235 16.3005 51.3671 16.3005Z" fill="#FFAC2F"/>
<path d="M35.2104 35.6316C36.8216 35.6316 38.1277 34.3255 38.1277 32.7143C38.1277 31.103 36.8216 29.7969 35.2104 29.7969C33.5991 29.7969 32.293 31.103 32.293 32.7143C32.293 34.3255 33.5991 35.6316 35.2104 35.6316Z" fill="#FFAC2F"/>
<path d="M85.7077 42.509C87.285 42.509 88.5637 41.2303 88.5637 39.653C88.5637 38.0756 87.285 36.7969 85.7077 36.7969C84.1303 36.7969 82.8516 38.0756 82.8516 39.653C82.8516 41.2303 84.1303 42.509 85.7077 42.509Z" fill="#FFAC2F"/>
<path d="M169.971 15.7708C171.549 15.7708 172.827 14.4921 172.827 12.9147C172.827 11.3373 171.549 10.0586 169.971 10.0586C168.394 10.0586 167.115 11.3373 167.115 12.9147C167.115 14.4921 168.394 15.7708 169.971 15.7708Z" fill="#FFAC2F"/>
<path d="M197.883 41.0742C199.604 41.0742 201 39.6786 201 37.957C201 36.2355 199.604 34.8398 197.883 34.8398C196.161 34.8398 194.766 36.2355 194.766 37.957C194.766 39.6786 196.161 41.0742 197.883 41.0742Z" fill="#FFAC2F"/>
<path d="M196.843 10.1741H196.023V9.87891H198.019V10.1741H197.195V12.5738H196.843V10.1741Z" fill="white"/>
<path d="M200.591 11.3916C200.571 11.0147 200.546 10.5629 200.55 10.2269H200.539C200.448 10.5425 200.335 10.8785 200.199 11.2508L199.722 12.5585H199.458L199.023 11.2735C198.893 10.8944 198.786 10.5448 198.712 10.2246H198.702C198.696 10.5606 198.675 11.0124 198.65 11.4166L198.578 12.5722H198.246L198.435 9.875H198.88L199.34 11.1782C199.452 11.5096 199.545 11.8071 199.613 12.0863H199.624C199.692 11.8139 199.788 11.5187 199.908 11.1782L200.387 9.875H200.83L200.998 12.5722H200.657L200.589 11.387L200.591 11.3916Z" fill="white"/>
</g>
<defs>
<linearGradient id="paint0_linear_1899_282" x1="39.2938" y1="8.7909" x2="39.2938" y2="60.3093" gradientUnits="userSpaceOnUse">
<stop stop-color="#A268AA"/>
<stop offset="1" stop-color="#6951A1"/>
</linearGradient>
<clipPath id="clip0_1899_282">
<rect width="201" height="67.6993" fill="white"/>
</clipPath>
</defs>
</svg>
