<?xml version="1.0" encoding="UTF-8"?>
<svg id="Layer_2" data-name="Layer 2" xmlns="http://www.w3.org/2000/svg" xmlns:xlink="http://www.w3.org/1999/xlink" viewBox="0 0 888.15 286.7">
  <defs>
    <style>
      .cls-1, .cls-2 {
        fill: none;
      }

      .cls-3 {
        fill: url(#linear-gradient-2);
      }

      .cls-4 {
        fill: url(#linear-gradient);
      }

      .cls-2 {
        stroke: #fff;
        stroke-miterlimit: 10;
        stroke-width: .81px;
      }

      .cls-5 {
        fill: #fff;
      }
    </style>
    <linearGradient id="linear-gradient" x1="-592.16" y1="-2975.55" x2="-592.16" y2="-2974.32" gradientTransform="translate(120156.56 339260.19) scale(202.34 114)" gradientUnits="userSpaceOnUse">
      <stop offset="0" stop-color="#a268aa"/>
      <stop offset="1" stop-color="#6951a1"/>
    </linearGradient>
    <linearGradient id="linear-gradient-2" x1="-590.84" y1="-2987.75" x2="-590.84" y2="-2986.52" gradientTransform="translate(89388.68 555721.72) scale(151 186)" xlink:href="#linear-gradient"/>
  </defs>
  <g id="Layer_1-2" data-name="Layer 1">
    <g>
      <path class="cls-1" d="M344.05,73.47h0c-.49,0-.98.1-1.45.27.46-.17.95-.26,1.45-.27Z"/>
      <path class="cls-5" d="M404.45,103.32h-25.46c-7.79,0-14.1,6.31-14.1,14.1s6.31,14.1,14.1,14.1h25.46c7.79,0,14.1-6.31,14.1-14.1s-6.31-14.1-14.1-14.1Z"/>
      <path class="cls-4" d="M339.53,78.39c0,.45.08.9.25,1.32-.13-.39-.19-.81-.17-1.23l-.07-.1Z"/>
      <path class="cls-5" d="M341.86,80.72c-.06-2.5,1.91-4.57,4.41-4.63.05,0,.11,0,.16,0h.85l98.96-.06c7.76,0,14.05-6.3,14.05-14.06,0-7.76-6.29-14.04-14.05-14.05h-104.38c-15.53,0-28.13,12.58-28.14,28.11v51.95c0,21.37-18.31,31.88-36.64,31.88s-36.79-10.57-36.79-31.88v-59.33c-5.02,7.73-15.35,9.93-23.09,4.92-2.04-1.32-3.77-3.08-5.06-5.14v59.55c0,39.83,32.58,59.66,64.99,59.66s64.79-19.83,64.79-59.66v-45.18M341.92,80.72v2.07"/>
      <path class="cls-5" d="M731.93,56.89c0-4.87,2.12-9.5,5.82-12.67h-139.38v-.16l-59.41-.16c-28.94.38-55.37,11.96-55.37,40.47,0,31.26,32.02,38.19,58.07,43.8,18.73,3.85,34.53,7.36,34.53,19.08,0,10.03-11.58,14.47-26.82,14.47h-161.25c7.12,5.88,8.12,16.41,2.24,23.53-.62.75-1.31,1.45-2.06,2.09h158.01c32.02,0,60.96-11.77,60.96-40.9,0-31.88-32.61-38.49-58.86-43.41-18.5-3.68-33.97-6.79-33.97-17.93s11.56-15.64,26.24-15.64h134.64v103.83c0,7.79,6.31,14.1,14.1,14.1s14.1-6.31,14.1-14.1v-103.86h34.09c-3.62-3.17-5.7-7.75-5.69-12.56Z"/>
      <path class="cls-5" d="M871.6,149.45c2.74,0,5.44.64,7.89,1.86l-4.43-9.81-38.1-83.9-.11-.29c-3.07-7.01-9.43-12.04-16.96-13.4-2.7-.52-5.48-.52-8.18,0-7.34,1.33-13.57,6.14-16.71,12.9l-.43.96-55.88,123.1-8.69,19.24-.65,1.47c-2.88,7.03.49,15.06,7.52,17.94,7.03,2.88,15.06-.49,17.94-7.52v-.18l13.58-30.95,41.96-92.12,5.3-11.66,5.38,11.71,21.85,47.72h-33.34c-6.66.3-11.81,5.94-11.51,12.6.28,6.24,5.27,11.23,11.51,11.51h44.15l.86,1.95c2.07-7.73,9.07-13.1,17.07-13.11Z"/>
      <path class="cls-5" d="M92.59,0C41.46,0,0,41.96,0,93.73c-.08,33.14,17.31,63.87,45.77,80.86,13.79,8.24,29.53,12.68,45.59,12.88h2.45c22.64.48,43.5,12.38,55.43,31.63,2.21,6.8,9.51,10.53,16.31,8.32,2.9-.94,5.37-2.87,6.99-5.45,2.66-4.28,2.56-9.71-.25-13.89-2.02-3.56-4.28-6.98-6.74-10.25-7.19-9.32-16.07-17.2-26.18-23.23-13.8-8.2-29.51-12.62-45.56-12.83h-2.45c-16.72-.29-32.71-6.86-44.81-18.39-13.6-12.94-21.27-30.91-21.22-49.69,0-37.61,30.12-68.07,67.25-68.07s67.2,30.52,67.2,68.12c.03,12.02-3.12,23.84-9.15,34.25,8.87-2.48,18.07,2.71,20.55,11.58.25.88.42,1.79.52,2.7,8.82-14.65,13.46-31.43,13.43-48.52,0-51.76-41.47-93.73-92.55-93.73ZM172.93,210.75c-.29-.53-.54-1.07-.83-1.59.31.51.57,1.04.8,1.59h.04Z"/>
      <path d="M172.06,209.16c.29.53.54,1.07.83,1.59-.23-.55-.51-1.09-.83-1.59Z"/>
      <path class="cls-3" d="M172.06,209.16c.29.53.54,1.07.83,1.59-.23-.55-.51-1.09-.83-1.59Z"/>
      <circle class="cls-5" cx="226.25" cy="59.49" r="12.31"/>
      <circle class="cls-5" cx="155.09" cy="144.09" r="12.85"/>
      <circle class="cls-5" cx="377.51" cy="174.65" r="12.58"/>
      <circle class="cls-5" cx="748.66" cy="56.89" r="12.58"/>
      <circle class="cls-5" cx="871.6" cy="167.19" r="13.73"/>
      <g>
        <path class="cls-5" d="M874.26,45.1h3.96c.65,0,1.19.1,1.61.29.8.37,1.2,1.06,1.2,2.06,0,.52-.11.95-.32,1.28-.22.33-.52.6-.91.8.34.14.6.32.77.55.17.23.27.59.29,1.1l.04,1.17c0,.33.04.58.08.74.07.28.2.45.38.53v.2h-1.45c-.04-.08-.07-.17-.09-.29s-.04-.35-.06-.69l-.07-1.45c-.03-.57-.23-.95-.62-1.14-.22-.11-.57-.16-1.03-.16h-2.61v3.74h-1.18v-8.71ZM878.09,49.09c.54,0,.96-.11,1.28-.33.31-.22.47-.62.47-1.2,0-.62-.22-1.04-.66-1.27-.23-.12-.55-.18-.94-.18h-2.8v2.98h2.66Z"/>
        <circle class="cls-2" cx="877.81" cy="49.45" r="9.93"/>
      </g>
      <g>
        <path class="cls-5" d="M398.02,253.92v5.56h-13.5v26.05h-6.59v-26.05h-12.64v-5.56h32.73Z"/>
        <path class="cls-5" d="M410.59,253.47h7l14.54,32.06h-6.95l-2.17-4.74h-17.83l-2.17,4.74h-6.95l14.54-32.06ZM407.75,275.14h12.69l-6.37-13.9-6.32,13.9Z"/>
        <path class="cls-5" d="M463.67,279.89v5.64h-26.41v-31.61h6.59v25.96h19.82Z"/>
        <path class="cls-5" d="M494.52,253.92v5.6h-14.18c-5.78,0-8.67,5.1-8.67,10.21s2.84,10.2,8.49,10.2h14.36v5.6h-14.4c-9.93-.32-15.31-8.04-15.31-15.8s5.37-15.49,15.31-15.8h14.4ZM477.91,272.53v-5.6h13.19v5.6h-13.19Z"/>
        <path class="cls-5" d="M571.63,253.92v5.56h-13.5v26.05h-6.59v-26.05h-12.64v-5.56h32.73Z"/>
        <path class="cls-5" d="M613.24,259.03h-13.5c-3.48,0-6.14,1.13-6.14,3.66s3.61,3.34,7.95,4.2c6.09,1.22,13.77,2.71,13.77,10.16,0,6.82-6.77,9.57-14.27,9.57h-15.17v-6.01h15.89c3.57,0,6.28-1.04,6.28-3.39,0-2.75-3.7-3.57-8.08-4.47-6.1-1.31-13.59-2.93-13.59-10.25,0-6.68,6.19-9.39,12.96-9.48l13.91.04v5.96Z"/>
        <path class="cls-5" d="M635.02,286.57c-7.9,0-17.2-5.51-17.2-16.84s9.3-16.84,17.2-16.84,17.16,5.51,17.16,16.84-9.26,16.84-17.16,16.84ZM635.02,259.39c-4.83,0-10.43,3.39-10.43,10.34s5.6,10.34,10.43,10.34,10.43-3.39,10.43-10.34-5.64-10.34-10.43-10.34Z"/>
        <path class="cls-5" d="M684.67,279.89v5.64h-26.41v-31.61h6.59v25.96h19.82Z"/>
        <path class="cls-5" d="M689.42,253.92h6.59v18.78c0,5.01,4.33,7.5,8.62,7.5s8.58-2.49,8.58-7.5v-18.78h6.59v18.78c0,9.35-7.58,14-15.17,14s-15.22-4.65-15.22-14v-18.78Z"/>
        <path class="cls-5" d="M756.58,253.92v5.56h-13.5v26.05h-6.59v-26.05h-12.64v-5.56h32.73Z"/>
        <path class="cls-5" d="M761.43,253.92h6.59v31.61h-6.59v-31.61Z"/>
        <path class="cls-5" d="M790.83,286.57c-7.9,0-17.2-5.51-17.2-16.84s9.3-16.84,17.2-16.84,17.16,5.51,17.16,16.84-9.26,16.84-17.16,16.84ZM790.83,259.39c-4.83,0-10.43,3.39-10.43,10.34s5.6,10.34,10.43,10.34,10.43-3.39,10.43-10.34-5.64-10.34-10.43-10.34Z"/>
        <path class="cls-5" d="M880.41,259.03h-13.5c-3.43,0-6.14,1.08-6.14,3.66s3.61,3.34,7.94,4.2c6.14,1.17,13.77,2.71,13.77,10.16,0,6.82-6.77,9.57-14.27,9.57h-15.17v-6.01h15.89c3.57,0,6.28-1.04,6.28-3.39,0-2.75-3.7-3.57-8.08-4.47-6.1-1.31-13.59-2.93-13.59-10.25,0-6.68,6.19-9.39,12.96-9.48l13.91.04v5.96Z"/>
        <path class="cls-5" d="M847.07,253.92h-6.59v24.16l-.05,2.15c-7.4-8.02-13.91-16.88-19.55-26.35l-.05.05h-6.77v32.64h6.59v-21.12c4.5,6.71,10.3,14.17,16.94,21.12h9.47v-32.64Z"/>
        <path class="cls-5" d="M534.5,253.92h-6.59v24.16l-.05,2.15c-7.4-8.02-13.91-16.88-19.55-26.35l-.05.05h-6.77v32.64h6.59v-21.12c4.5,6.71,10.3,14.17,16.94,21.12h9.47v-32.64Z"/>
      </g>
    </g>
  </g>
</svg>