<svg width="52" height="52" viewBox="0 0 52 52" fill="none" xmlns="http://www.w3.org/2000/svg">
<rect opacity="0.2" width="52" height="52" rx="26" fill="#D8D8D8"/>
<path fill-rule="evenodd" clip-rule="evenodd" d="M17.0846 17.1037C15.1367 17.2567 13.6643 18.8407 13.5695 20.7923C13.4914 22.4003 13.418 24.2507 13.418 25.5281C13.418 26.82 13.493 28.6982 13.5722 30.3189C13.6662 32.2456 15.1049 33.819 17.0257 33.9963C19.1519 34.1927 22.2284 34.3903 25.9986 34.3903C29.759 34.3903 32.8293 34.1937 34.955 33.9979C36.8832 33.8202 38.3247 32.2366 38.4175 30.3025C38.4993 28.5961 38.5793 26.6437 38.5793 25.5281C38.5793 24.4244 38.501 22.5018 38.4201 20.8086C38.3265 18.8495 36.8518 17.2557 34.8964 17.1024C32.8035 16.9384 29.7847 16.7773 25.9986 16.7773C22.2027 16.7773 19.1781 16.9392 17.0846 17.1037ZM23.4825 21.7937L29.9685 25.5281L23.4825 29.2624V21.7937Z" fill="white"/>
</svg>
