<svg width="240" height="176" viewBox="0 0 240 176" fill="none" xmlns="http://www.w3.org/2000/svg">
<path d="M177.115 94.9552C179.652 107.407 177.844 120.352 171.992 131.631C166.139 142.911 156.597 151.844 144.956 156.94C133.315 162.036 120.279 162.987 108.022 159.634C95.7645 156.282 85.0268 148.829 77.5995 138.518C70.1722 128.207 66.5042 115.662 67.2072 102.974C67.9102 90.286 72.9417 78.2225 81.4627 68.7952C89.9836 59.368 101.479 53.1468 114.032 51.1692C126.584 49.1916 139.436 51.577 150.442 57.9277M105.998 100.511L122.665 117.177L178.22 61.6221" stroke="#FF82EB" stroke-width="8" stroke-linecap="round" stroke-linejoin="round"/>
<path d="M154.397 12.797C154.327 12.5278 154.187 12.2822 153.99 12.0856C153.794 11.8891 153.548 11.7488 153.279 11.6793L148.507 10.4489C148.426 10.4258 148.354 10.3767 148.303 10.3092C148.252 10.2417 148.225 10.1594 148.225 10.0748C148.225 9.99015 148.252 9.90784 148.303 9.84032C148.354 9.77281 148.426 9.72378 148.507 9.70067L153.279 8.46946C153.548 8.40009 153.794 8.25991 153.99 8.06349C154.187 7.86708 154.327 7.6216 154.397 7.35258L155.627 2.58096C155.65 2.49923 155.699 2.42722 155.767 2.37593C155.834 2.32464 155.917 2.29688 156.002 2.29688C156.086 2.29688 156.169 2.32464 156.237 2.37593C156.304 2.42722 156.353 2.49923 156.376 2.58096L157.606 7.35258C157.675 7.62174 157.815 7.86738 158.012 8.06394C158.209 8.2605 158.454 8.4008 158.723 8.47024L163.495 9.69989C163.577 9.72253 163.65 9.77145 163.701 9.83917C163.753 9.90689 163.781 9.98966 163.781 10.0748C163.781 10.1599 163.753 10.2427 163.701 10.3104C163.65 10.3781 163.577 10.427 163.495 10.4497L158.723 11.6793C158.454 11.7488 158.209 11.8891 158.012 12.0856C157.815 12.2822 157.675 12.5278 157.606 12.797L156.375 17.5686C156.352 17.6503 156.303 17.7223 156.236 17.7736C156.168 17.8249 156.086 17.8527 156.001 17.8527C155.916 17.8527 155.833 17.8249 155.766 17.7736C155.698 17.7223 155.649 17.6503 155.626 17.5686L154.397 12.797Z" fill="#FF82EB"/>
<path d="M162.223 3.07484V6.18592V3.07484Z" fill="#FF82EB"/>
<path d="M163.779 4.63038H160.668H163.779Z" fill="#FF82EB"/>
<path d="M149.779 13.9636V15.5192V13.9636Z" fill="#FF82EB"/>
<path d="M150.557 14.7414H149.001H150.557Z" fill="#FF82EB"/>
<path d="M18.7695 159.352C18.6009 158.698 18.2601 158.102 17.7828 157.624C17.3054 157.147 16.7089 156.806 16.0552 156.638L4.46684 153.649C4.26913 153.593 4.09512 153.474 3.97122 153.31C3.84731 153.146 3.78027 152.946 3.78027 152.741C3.78027 152.535 3.84731 152.335 3.97122 152.171C4.09512 152.007 4.26913 151.888 4.46684 151.832L16.0552 148.842C16.7086 148.674 17.305 148.333 17.7824 147.856C18.2597 147.379 18.6006 146.783 18.7695 146.13L21.7577 134.541C21.8133 134.343 21.9322 134.168 22.0964 134.044C22.2607 133.919 22.4611 133.852 22.6672 133.852C22.8733 133.852 23.0738 133.919 23.238 134.044C23.4022 134.168 23.5212 134.343 23.5767 134.541L26.5631 146.13C26.7317 146.783 27.0724 147.38 27.5498 147.857C28.0271 148.335 28.6237 148.675 29.2774 148.844L40.8657 151.83C41.065 151.885 41.2407 152.004 41.366 152.169C41.4912 152.333 41.559 152.534 41.559 152.741C41.559 152.947 41.4912 153.148 41.366 153.313C41.2407 153.477 41.065 153.596 40.8657 153.651L29.2774 156.638C28.6237 156.806 28.0271 157.147 27.5498 157.624C27.0724 158.102 26.7317 158.698 26.5631 159.352L23.5748 170.94C23.5193 171.139 23.4003 171.313 23.2361 171.438C23.0719 171.563 22.8714 171.63 22.6653 171.63C22.4592 171.63 22.2588 171.563 22.0946 171.438C21.9303 171.313 21.8114 171.139 21.7558 170.94L18.7695 159.352Z" fill="#FF82EB"/>
<path d="M37.7774 135.741V143.296V135.741Z" fill="#FF82EB"/>
<path d="M41.5552 139.519H33.9996H41.5552Z" fill="#FF82EB"/>
<path d="M7.55517 162.185V165.963V162.185Z" fill="#FF82EB"/>
<path d="M9.44406 164.074H5.66628H9.44406Z" fill="#FF82EB"/>
<path d="M223.593 129.488C223.489 129.085 223.278 128.716 222.984 128.421C222.689 128.127 222.32 127.916 221.917 127.812L214.759 125.966C214.637 125.932 214.529 125.858 214.453 125.757C214.376 125.656 214.335 125.532 214.335 125.405C214.335 125.278 214.376 125.155 214.453 125.053C214.529 124.952 214.637 124.879 214.759 124.844L221.917 122.997C222.32 122.893 222.688 122.683 222.983 122.388C223.278 122.094 223.489 121.725 223.593 121.322L225.439 114.164C225.473 114.042 225.546 113.934 225.648 113.857C225.749 113.78 225.873 113.738 226 113.738C226.128 113.738 226.252 113.78 226.353 113.857C226.454 113.934 226.528 114.042 226.562 114.164L228.407 121.322C228.511 121.726 228.721 122.094 229.016 122.389C229.311 122.684 229.679 122.894 230.083 122.998L237.241 124.843C237.364 124.877 237.472 124.95 237.55 125.052C237.627 125.153 237.669 125.277 237.669 125.405C237.669 125.533 237.627 125.657 237.55 125.759C237.472 125.86 237.364 125.934 237.241 125.967L230.083 127.812C229.679 127.916 229.311 128.127 229.016 128.421C228.721 128.716 228.511 129.085 228.407 129.488L226.561 136.646C226.527 136.768 226.453 136.876 226.352 136.953C226.25 137.03 226.127 137.072 225.999 137.072C225.872 137.072 225.748 137.03 225.647 136.953C225.545 136.876 225.472 136.768 225.438 136.646L223.593 129.488Z" fill="#FF82EB"/>
<path d="M235.333 114.905V119.572V114.905Z" fill="#FF82EB"/>
<path d="M237.667 117.239H233H237.667Z" fill="#FF82EB"/>
<path d="M216.667 131.238V133.572V131.238Z" fill="#FF82EB"/>
<path d="M217.833 132.405H215.5H217.833Z" fill="#FF82EB"/>
</svg>
