<svg width="560" height="560" viewBox="0 0 560 560" fill="none" xmlns="http://www.w3.org/2000/svg">
<rect x="248.5" y="82.5" width="183" height="183" rx="8.5" fill="white" stroke="#FF9901"/>
<g filter="url(#filter0_d_2979_37)">
<mask id="path-2-inside-1_2979_37" fill="white">
<path d="M321.596 119.523C320.049 115.995 321.636 111.829 325.334 110.749C335.368 107.818 346.103 107.974 356.132 111.285C368.377 115.329 378.703 123.793 385.119 135.045C391.535 146.298 393.587 159.542 390.881 172.227C388.174 184.912 380.899 196.139 370.459 203.745C360.019 211.351 347.152 214.798 334.337 213.421C321.523 212.044 309.668 205.94 301.057 196.287C292.446 186.634 287.688 174.113 287.701 161.139C287.712 150.533 290.909 140.237 296.79 131.568C298.971 128.354 303.468 128.145 306.344 130.756L315.369 138.949C318.218 141.535 318.342 145.915 316.615 149.353C314.79 152.988 313.816 157.03 313.812 161.166C313.805 167.647 316.182 173.901 320.483 178.723C324.784 183.546 330.706 186.594 337.108 187.282C343.509 187.97 349.936 186.248 355.151 182.449C360.367 178.65 364 173.041 365.352 166.705C366.705 160.369 365.679 153.752 362.474 148.132C359.269 142.511 354.111 138.283 347.995 136.263C344.126 134.985 340.046 134.648 336.081 135.235C332.243 135.803 328.078 134.302 326.52 130.749L321.596 119.523Z"/>
</mask>
<path d="M321.596 119.523C320.049 115.995 321.636 111.829 325.334 110.749C335.368 107.818 346.103 107.974 356.132 111.285C368.377 115.329 378.703 123.793 385.119 135.045C391.535 146.298 393.587 159.542 390.881 172.227C388.174 184.912 380.899 196.139 370.459 203.745C360.019 211.351 347.152 214.798 334.337 213.421C321.523 212.044 309.668 205.94 301.057 196.287C292.446 186.634 287.688 174.113 287.701 161.139C287.712 150.533 290.909 140.237 296.79 131.568C298.971 128.354 303.468 128.145 306.344 130.756L315.369 138.949C318.218 141.535 318.342 145.915 316.615 149.353C314.79 152.988 313.816 157.03 313.812 161.166C313.805 167.647 316.182 173.901 320.483 178.723C324.784 183.546 330.706 186.594 337.108 187.282C343.509 187.97 349.936 186.248 355.151 182.449C360.367 178.65 364 173.041 365.352 166.705C366.705 160.369 365.679 153.752 362.474 148.132C359.269 142.511 354.111 138.283 347.995 136.263C344.126 134.985 340.046 134.648 336.081 135.235C332.243 135.803 328.078 134.302 326.52 130.749L321.596 119.523Z" fill="#FFC164"/>
<path d="M321.596 119.523C320.049 115.995 321.636 111.829 325.334 110.749C335.368 107.818 346.103 107.974 356.132 111.285C368.377 115.329 378.703 123.793 385.119 135.045C391.535 146.298 393.587 159.542 390.881 172.227C388.174 184.912 380.899 196.139 370.459 203.745C360.019 211.351 347.152 214.798 334.337 213.421C321.523 212.044 309.668 205.94 301.057 196.287C292.446 186.634 287.688 174.113 287.701 161.139C287.712 150.533 290.909 140.237 296.79 131.568C298.971 128.354 303.468 128.145 306.344 130.756L315.369 138.949C318.218 141.535 318.342 145.915 316.615 149.353C314.79 152.988 313.816 157.03 313.812 161.166C313.805 167.647 316.182 173.901 320.483 178.723C324.784 183.546 330.706 186.594 337.108 187.282C343.509 187.97 349.936 186.248 355.151 182.449C360.367 178.65 364 173.041 365.352 166.705C366.705 160.369 365.679 153.752 362.474 148.132C359.269 142.511 354.111 138.283 347.995 136.263C344.126 134.985 340.046 134.648 336.081 135.235C332.243 135.803 328.078 134.302 326.52 130.749L321.596 119.523Z" stroke="white" stroke-width="6" mask="url(#path-2-inside-1_2979_37)"/>
</g>
<g opacity="0.2" filter="url(#filter1_d_2979_37)">
<mask id="path-3-inside-2_2979_37" fill="white">
<path d="M306.718 130.199C303.907 127.571 303.717 123.125 306.678 120.667C308.074 119.508 309.529 118.423 311.037 117.416C314.264 115.261 318.503 116.76 320.185 120.257L326.424 133.227C327.58 135.632 326.543 138.485 324.401 140.076C322.241 141.68 319.173 141.841 317.207 140.003L306.718 130.199Z"/>
</mask>
<path d="M306.718 130.199C303.907 127.571 303.717 123.125 306.678 120.667C308.074 119.508 309.529 118.423 311.037 117.416C314.264 115.261 318.503 116.76 320.185 120.257L326.424 133.227C327.58 135.632 326.543 138.485 324.401 140.076C322.241 141.68 319.173 141.841 317.207 140.003L306.718 130.199Z" fill="#FFC164"/>
<path d="M306.718 130.199C303.907 127.571 303.717 123.125 306.678 120.667C308.074 119.508 309.529 118.423 311.037 117.416C314.264 115.261 318.503 116.76 320.185 120.257L326.424 133.227C327.58 135.632 326.543 138.485 324.401 140.076C322.241 141.68 319.173 141.841 317.207 140.003L306.718 130.199Z" stroke="white" stroke-width="6" mask="url(#path-3-inside-2_2979_37)"/>
</g>
<path d="M283.031 232.64L286.455 241.808L289.863 232.64H291.767L287.303 244H285.607L281.127 232.64H283.031ZM295.629 244.16C294.979 244.16 294.387 244.048 293.853 243.824C293.331 243.589 292.877 243.275 292.493 242.88C292.109 242.475 291.811 242.016 291.597 241.504C291.395 240.981 291.293 240.427 291.293 239.84C291.293 239.051 291.475 238.331 291.837 237.68C292.2 237.019 292.707 236.491 293.357 236.096C294.008 235.691 294.771 235.488 295.645 235.488C296.52 235.488 297.272 235.691 297.901 236.096C298.541 236.491 299.037 237.013 299.389 237.664C299.741 238.315 299.917 239.013 299.917 239.76C299.917 239.888 299.912 240.011 299.901 240.128C299.891 240.235 299.88 240.325 299.869 240.4H293.165C293.197 240.891 293.331 241.323 293.565 241.696C293.811 242.059 294.12 242.347 294.493 242.56C294.867 242.763 295.267 242.864 295.693 242.864C296.163 242.864 296.605 242.747 297.021 242.512C297.448 242.277 297.736 241.968 297.885 241.584L299.389 242.016C299.208 242.421 298.931 242.789 298.557 243.12C298.195 243.44 297.763 243.696 297.261 243.888C296.76 244.069 296.216 244.16 295.629 244.16ZM293.117 239.232H298.173C298.141 238.752 298.003 238.331 297.757 237.968C297.523 237.595 297.219 237.307 296.845 237.104C296.483 236.891 296.077 236.784 295.629 236.784C295.192 236.784 294.787 236.891 294.413 237.104C294.051 237.307 293.752 237.595 293.517 237.968C293.283 238.331 293.149 238.752 293.117 239.232ZM306.057 237.152C305.374 237.163 304.766 237.317 304.233 237.616C303.71 237.915 303.337 238.336 303.113 238.88V244H301.353V235.632H302.985V237.504C303.273 236.928 303.652 236.469 304.121 236.128C304.59 235.776 305.086 235.584 305.609 235.552C305.716 235.552 305.801 235.552 305.865 235.552C305.94 235.552 306.004 235.557 306.057 235.568V237.152ZM311.849 244.16C311.209 244.16 310.628 244.011 310.105 243.712C309.593 243.403 309.188 242.992 308.889 242.48V244H307.337V232.32H309.097V237.216C309.428 236.683 309.839 236.261 310.329 235.952C310.831 235.643 311.417 235.488 312.089 235.488C312.644 235.488 313.151 235.605 313.609 235.84C314.068 236.075 314.457 236.395 314.777 236.8C315.108 237.205 315.359 237.669 315.529 238.192C315.711 238.715 315.801 239.269 315.801 239.856C315.801 240.443 315.7 240.997 315.497 241.52C315.305 242.043 315.028 242.501 314.665 242.896C314.303 243.291 313.881 243.6 313.401 243.824C312.932 244.048 312.415 244.16 311.849 244.16ZM311.385 242.656C311.769 242.656 312.121 242.581 312.441 242.432C312.761 242.272 313.039 242.064 313.273 241.808C313.508 241.552 313.684 241.253 313.801 240.912C313.929 240.571 313.993 240.219 313.993 239.856C313.993 239.355 313.887 238.885 313.673 238.448C313.471 238.011 313.183 237.659 312.809 237.392C312.436 237.125 312.004 236.992 311.513 236.992C311.161 236.992 310.831 237.077 310.521 237.248C310.212 237.408 309.935 237.627 309.689 237.904C309.455 238.171 309.257 238.469 309.097 238.8V241.008C309.161 241.253 309.273 241.477 309.433 241.68C309.593 241.872 309.78 242.043 309.993 242.192C310.207 242.331 310.436 242.443 310.681 242.528C310.927 242.613 311.161 242.656 311.385 242.656ZM316.776 241.552C316.776 241.019 316.925 240.555 317.224 240.16C317.533 239.755 317.955 239.445 318.488 239.232C319.021 239.008 319.64 238.896 320.344 238.896C320.717 238.896 321.096 238.923 321.48 238.976C321.875 239.029 322.221 239.115 322.52 239.232V238.704C322.52 238.117 322.344 237.659 321.992 237.328C321.64 236.997 321.133 236.832 320.472 236.832C320.003 236.832 319.56 236.917 319.144 237.088C318.728 237.248 318.285 237.477 317.816 237.776L317.224 236.592C317.779 236.219 318.333 235.941 318.888 235.76C319.453 235.579 320.045 235.488 320.664 235.488C321.784 235.488 322.664 235.787 323.304 236.384C323.955 236.971 324.28 237.808 324.28 238.896V242.016C324.28 242.219 324.312 242.363 324.376 242.448C324.451 242.533 324.573 242.581 324.744 242.592V244C324.584 244.032 324.44 244.053 324.312 244.064C324.184 244.075 324.077 244.08 323.992 244.08C323.619 244.08 323.336 243.989 323.144 243.808C322.952 243.627 322.84 243.413 322.808 243.168L322.76 242.688C322.397 243.157 321.933 243.52 321.368 243.776C320.803 244.032 320.232 244.16 319.656 244.16C319.101 244.16 318.605 244.048 318.168 243.824C317.731 243.589 317.389 243.275 317.144 242.88C316.899 242.485 316.776 242.043 316.776 241.552ZM322.104 242.064C322.232 241.925 322.333 241.787 322.408 241.648C322.483 241.509 322.52 241.387 322.52 241.28V240.32C322.221 240.203 321.907 240.117 321.576 240.064C321.245 240 320.92 239.968 320.6 239.968C319.96 239.968 319.437 240.096 319.032 240.352C318.637 240.608 318.44 240.96 318.44 241.408C318.44 241.653 318.504 241.888 318.632 242.112C318.771 242.336 318.963 242.517 319.208 242.656C319.464 242.795 319.779 242.864 320.152 242.864C320.536 242.864 320.904 242.789 321.256 242.64C321.608 242.491 321.891 242.299 322.104 242.064ZM326.431 232.32H328.191V241.584C328.191 242.011 328.255 242.283 328.383 242.4C328.511 242.517 328.671 242.576 328.863 242.576C329.077 242.576 329.274 242.555 329.455 242.512C329.647 242.469 329.813 242.416 329.951 242.352L330.207 243.744C329.951 243.851 329.647 243.941 329.295 244.016C328.943 244.091 328.629 244.128 328.351 244.128C327.754 244.128 327.285 243.963 326.943 243.632C326.602 243.291 326.431 242.821 326.431 242.224V232.32ZM337.732 232.64H339.428L343.844 244H341.956L340.756 240.912H336.372L335.188 244H333.284L337.732 232.64ZM340.404 239.584L338.58 234.608L336.692 239.584H340.404ZM349.777 244.16C349.105 244.16 348.513 244 348.001 243.68C347.489 243.36 347.083 242.944 346.785 242.432V247.408H345.025V235.632H346.577V237.136C346.897 236.635 347.313 236.235 347.825 235.936C348.337 235.637 348.907 235.488 349.537 235.488C350.113 235.488 350.641 235.605 351.121 235.84C351.601 236.064 352.017 236.379 352.369 236.784C352.721 237.189 352.993 237.653 353.185 238.176C353.387 238.688 353.489 239.232 353.489 239.808C353.489 240.608 353.329 241.339 353.009 242C352.699 242.661 352.262 243.189 351.697 243.584C351.142 243.968 350.502 244.16 349.777 244.16ZM349.201 242.656C349.574 242.656 349.91 242.576 350.209 242.416C350.518 242.256 350.779 242.043 350.993 241.776C351.217 241.509 351.387 241.205 351.505 240.864C351.622 240.523 351.681 240.171 351.681 239.808C351.681 239.424 351.617 239.061 351.489 238.72C351.361 238.379 351.174 238.08 350.929 237.824C350.694 237.568 350.417 237.365 350.097 237.216C349.787 237.067 349.446 236.992 349.073 236.992C348.849 236.992 348.614 237.035 348.369 237.12C348.123 237.205 347.894 237.323 347.681 237.472C347.467 237.621 347.281 237.797 347.121 238C346.961 238.203 346.849 238.416 346.785 238.64V240.832C346.934 241.173 347.131 241.483 347.377 241.76C347.622 242.027 347.905 242.245 348.225 242.416C348.545 242.576 348.87 242.656 349.201 242.656ZM359.603 243.568C359.453 243.643 359.267 243.723 359.043 243.808C358.819 243.893 358.563 243.968 358.275 244.032C357.997 244.096 357.709 244.128 357.411 244.128C357.048 244.128 356.712 244.064 356.403 243.936C356.093 243.808 355.843 243.605 355.651 243.328C355.469 243.04 355.379 242.672 355.379 242.224V236.992H354.275V235.632H355.379V232.88H357.139V235.632H358.963V236.992H357.139V241.664C357.16 241.952 357.251 242.165 357.411 242.304C357.581 242.443 357.789 242.512 358.035 242.512C358.28 242.512 358.515 242.469 358.739 242.384C358.963 242.299 359.128 242.229 359.235 242.176L359.603 243.568ZM360.822 244V235.632H362.582V244H360.822ZM360.822 234.256V232.32H362.582V234.256H360.822ZM369.353 243.568C369.203 243.643 369.017 243.723 368.793 243.808C368.569 243.893 368.313 243.968 368.025 244.032C367.747 244.096 367.459 244.128 367.161 244.128C366.798 244.128 366.462 244.064 366.153 243.936C365.843 243.808 365.593 243.605 365.401 243.328C365.219 243.04 365.129 242.672 365.129 242.224V236.992H364.025V235.632H365.129V232.88H366.889V235.632H368.713V236.992H366.889V241.664C366.91 241.952 367.001 242.165 367.161 242.304C367.331 242.443 367.539 242.512 367.785 242.512C368.03 242.512 368.265 242.469 368.489 242.384C368.713 242.299 368.878 242.229 368.985 242.176L369.353 243.568ZM370.492 240.752V235.632H372.252V240.4C372.252 241.147 372.385 241.712 372.652 242.096C372.929 242.469 373.329 242.656 373.852 242.656C374.182 242.656 374.502 242.587 374.812 242.448C375.132 242.309 375.42 242.107 375.676 241.84C375.942 241.563 376.156 241.232 376.316 240.848V235.632H378.076V242.016C378.076 242.219 378.113 242.363 378.188 242.448C378.262 242.533 378.385 242.581 378.556 242.592V244C378.374 244.032 378.225 244.053 378.108 244.064C377.99 244.075 377.878 244.08 377.772 244.08C377.452 244.08 377.185 243.995 376.972 243.824C376.758 243.643 376.636 243.413 376.604 243.136L376.572 242.304C376.198 242.912 375.713 243.376 375.116 243.696C374.518 244.005 373.862 244.16 373.148 244.16C372.273 244.16 371.612 243.872 371.164 243.296C370.716 242.72 370.492 241.872 370.492 240.752ZM379.794 239.824C379.794 239.024 379.954 238.299 380.274 237.648C380.604 236.987 381.052 236.464 381.618 236.08C382.183 235.685 382.834 235.488 383.57 235.488C384.21 235.488 384.786 235.653 385.298 235.984C385.82 236.315 386.226 236.725 386.514 237.216V232.32H388.274V242.016C388.274 242.219 388.311 242.363 388.386 242.448C388.46 242.533 388.583 242.581 388.754 242.592V244C388.423 244.053 388.167 244.08 387.986 244.08C387.655 244.08 387.372 243.984 387.138 243.792C386.914 243.6 386.796 243.371 386.786 243.104L386.77 242.48C386.45 243.013 386.018 243.429 385.474 243.728C384.93 244.016 384.364 244.16 383.778 244.16C383.202 244.16 382.668 244.048 382.178 243.824C381.698 243.6 381.276 243.285 380.914 242.88C380.562 242.475 380.284 242.011 380.082 241.488C379.89 240.965 379.794 240.411 379.794 239.824ZM386.514 240.992V238.8C386.396 238.459 386.204 238.155 385.938 237.888C385.682 237.611 385.388 237.392 385.058 237.232C384.738 237.072 384.418 236.992 384.098 236.992C383.724 236.992 383.383 237.072 383.074 237.232C382.775 237.392 382.514 237.605 382.29 237.872C382.076 238.139 381.911 238.443 381.794 238.784C381.676 239.125 381.618 239.483 381.618 239.856C381.618 240.24 381.682 240.603 381.81 240.944C381.938 241.275 382.119 241.573 382.354 241.84C382.599 242.096 382.876 242.299 383.186 242.448C383.506 242.587 383.852 242.656 384.226 242.656C384.46 242.656 384.695 242.613 384.93 242.528C385.175 242.443 385.404 242.325 385.618 242.176C385.842 242.027 386.028 241.851 386.178 241.648C386.338 241.445 386.45 241.227 386.514 240.992ZM394.301 244.16C393.65 244.16 393.058 244.048 392.525 243.824C392.002 243.589 391.549 243.275 391.165 242.88C390.781 242.475 390.482 242.016 390.269 241.504C390.066 240.981 389.965 240.427 389.965 239.84C389.965 239.051 390.146 238.331 390.509 237.68C390.872 237.019 391.378 236.491 392.029 236.096C392.68 235.691 393.442 235.488 394.317 235.488C395.192 235.488 395.944 235.691 396.573 236.096C397.213 236.491 397.709 237.013 398.061 237.664C398.413 238.315 398.589 239.013 398.589 239.76C398.589 239.888 398.584 240.011 398.573 240.128C398.562 240.235 398.552 240.325 398.541 240.4H391.837C391.869 240.891 392.002 241.323 392.237 241.696C392.482 242.059 392.792 242.347 393.165 242.56C393.538 242.763 393.938 242.864 394.365 242.864C394.834 242.864 395.277 242.747 395.693 242.512C396.12 242.277 396.408 241.968 396.557 241.584L398.061 242.016C397.88 242.421 397.602 242.789 397.229 243.12C396.866 243.44 396.434 243.696 395.933 243.888C395.432 244.069 394.888 244.16 394.301 244.16ZM391.789 239.232H396.845C396.813 238.752 396.674 238.331 396.429 237.968C396.194 237.595 395.89 237.307 395.517 237.104C395.154 236.891 394.749 236.784 394.301 236.784C393.864 236.784 393.458 236.891 393.085 237.104C392.722 237.307 392.424 237.595 392.189 237.968C391.954 238.331 391.821 238.752 391.789 239.232Z" fill="black"/>
<rect x="34.5" y="172.5" width="183" height="183" rx="8.5" fill="white" stroke="#FF82EB"/>
<g filter="url(#filter2_d_2979_37)">
<mask id="path-6-inside-3_2979_37" fill="white">
<path d="M73.8282 243.808C73.9071 272.816 97.329 296.268 126.142 296.19C154.956 296.111 178.25 272.532 178.171 243.524C178.092 214.516 154.67 191.064 125.857 191.142C97.0433 191.22 73.7493 214.799 73.8282 243.808ZM152.061 243.595C152.1 258.085 140.464 269.864 126.071 269.903C111.678 269.942 99.978 258.227 99.9386 243.737C99.8992 229.246 111.535 217.468 125.928 217.429C140.321 217.39 152.021 229.105 152.061 243.595Z"/>
</mask>
<path d="M73.8282 243.808C73.9071 272.816 97.329 296.268 126.142 296.19C154.956 296.111 178.25 272.532 178.171 243.524C178.092 214.516 154.67 191.064 125.857 191.142C97.0433 191.22 73.7493 214.799 73.8282 243.808ZM152.061 243.595C152.1 258.085 140.464 269.864 126.071 269.903C111.678 269.942 99.978 258.227 99.9386 243.737C99.8992 229.246 111.535 217.468 125.928 217.429C140.321 217.39 152.021 229.105 152.061 243.595Z" fill="#FF82EB"/>
<path d="M73.8282 243.808C73.9071 272.816 97.329 296.268 126.142 296.19C154.956 296.111 178.25 272.532 178.171 243.524C178.092 214.516 154.67 191.064 125.857 191.142C97.0433 191.22 73.7493 214.799 73.8282 243.808ZM152.061 243.595C152.1 258.085 140.464 269.864 126.071 269.903C111.678 269.942 99.978 258.227 99.9386 243.737C99.8992 229.246 111.535 217.468 125.928 217.429C140.321 217.39 152.021 229.105 152.061 243.595Z" stroke="white" stroke-width="6" mask="url(#path-6-inside-3_2979_37)"/>
</g>
<path d="M65.0847 334V322.64H66.8767V332.416H72.9727V334H65.0847ZM77.8707 334.16C77.2094 334.16 76.6174 334.048 76.0947 333.824C75.572 333.589 75.1187 333.269 74.7347 332.864C74.3614 332.459 74.0734 332 73.8707 331.488C73.668 330.965 73.5667 330.411 73.5667 329.824C73.5667 329.237 73.668 328.683 73.8707 328.16C74.0734 327.637 74.3614 327.179 74.7347 326.784C75.1187 326.379 75.572 326.064 76.0947 325.84C76.628 325.605 77.22 325.488 77.8707 325.488C78.5214 325.488 79.108 325.605 79.6307 325.84C80.164 326.064 80.6174 326.379 80.9907 326.784C81.3747 327.179 81.668 327.637 81.8707 328.16C82.0734 328.683 82.1747 329.237 82.1747 329.824C82.1747 330.411 82.0734 330.965 81.8707 331.488C81.668 332 81.3747 332.459 80.9907 332.864C80.6174 333.269 80.164 333.589 79.6307 333.824C79.108 334.048 78.5214 334.16 77.8707 334.16ZM75.3747 329.84C75.3747 330.373 75.4867 330.853 75.7107 331.28C75.9347 331.707 76.2334 332.043 76.6067 332.288C76.98 332.533 77.4014 332.656 77.8707 332.656C78.3294 332.656 78.7454 332.533 79.1187 332.288C79.5027 332.032 79.8067 331.691 80.0307 331.264C80.2547 330.827 80.3667 330.347 80.3667 329.824C80.3667 329.291 80.2547 328.811 80.0307 328.384C79.8067 327.957 79.5027 327.621 79.1187 327.376C78.7454 327.12 78.3294 326.992 77.8707 326.992C77.4014 326.992 76.98 327.12 76.6067 327.376C76.2334 327.632 75.9347 327.973 75.7107 328.4C75.4867 328.816 75.3747 329.296 75.3747 329.84ZM87.0477 334.08C86.4824 334.08 85.965 333.968 85.4957 333.744C85.0264 333.509 84.621 333.195 84.2797 332.8C83.949 332.405 83.6877 331.952 83.4957 331.44C83.3144 330.928 83.2237 330.389 83.2237 329.824C83.2237 329.227 83.3197 328.667 83.5117 328.144C83.7037 327.621 83.9704 327.163 84.3117 326.768C84.6637 326.363 85.0744 326.048 85.5437 325.824C86.013 325.6 86.5357 325.488 87.1117 325.488C87.7837 325.488 88.3704 325.648 88.8717 325.968C89.3837 326.288 89.805 326.704 90.1357 327.216V325.632H91.6877V333.76C91.6877 334.571 91.4904 335.259 91.0957 335.824C90.7117 336.389 90.1837 336.821 89.5117 337.12C88.8397 337.419 88.0824 337.568 87.2397 337.568C86.3117 337.568 85.5437 337.408 84.9357 337.088C84.3277 336.768 83.8104 336.331 83.3837 335.776L84.3757 334.848C84.6957 335.296 85.1064 335.637 85.6077 335.872C86.1197 336.107 86.6637 336.224 87.2397 336.224C87.7197 336.224 88.1624 336.133 88.5677 335.952C88.9837 335.781 89.3144 335.509 89.5597 335.136C89.805 334.773 89.9277 334.315 89.9277 333.76V332.48C89.629 332.981 89.2184 333.376 88.6957 333.664C88.173 333.941 87.6237 334.08 87.0477 334.08ZM87.6237 332.656C87.8904 332.656 88.1464 332.613 88.3917 332.528C88.637 332.432 88.861 332.309 89.0637 332.16C89.277 332 89.4584 331.824 89.6077 331.632C89.757 331.429 89.8637 331.216 89.9277 330.992V328.8C89.789 328.437 89.5917 328.123 89.3357 327.856C89.0797 327.579 88.7917 327.365 88.4717 327.216C88.1517 327.067 87.8264 326.992 87.4957 326.992C87.1117 326.992 86.765 327.077 86.4557 327.248C86.157 327.408 85.901 327.627 85.6877 327.904C85.4744 328.171 85.309 328.475 85.1917 328.816C85.0744 329.157 85.0157 329.509 85.0157 329.872C85.0157 330.256 85.0797 330.613 85.2077 330.944C85.3464 331.275 85.533 331.573 85.7677 331.84C86.0024 332.096 86.2797 332.299 86.5997 332.448C86.9197 332.587 87.261 332.656 87.6237 332.656ZM93.7982 334V325.632H95.5582V334H93.7982ZM93.7982 324.256V322.32H95.5582V324.256H93.7982ZM101.465 334.16C100.815 334.16 100.223 334.048 99.6892 333.824C99.1665 333.589 98.7132 333.269 98.3292 332.864C97.9452 332.459 97.6465 331.995 97.4332 331.472C97.2305 330.949 97.1292 330.395 97.1292 329.808C97.1292 329.019 97.3052 328.299 97.6572 327.648C98.0199 326.997 98.5212 326.475 99.1612 326.08C99.8119 325.685 100.58 325.488 101.465 325.488C102.319 325.488 103.06 325.68 103.689 326.064C104.329 326.437 104.799 326.939 105.097 327.568L103.385 328.112C103.193 327.76 102.921 327.488 102.569 327.296C102.228 327.093 101.849 326.992 101.433 326.992C100.964 326.992 100.537 327.115 100.153 327.36C99.7799 327.595 99.4812 327.925 99.2572 328.352C99.0439 328.768 98.9372 329.253 98.9372 329.808C98.9372 330.341 99.0492 330.827 99.2732 331.264C99.4972 331.691 99.7959 332.032 100.169 332.288C100.553 332.533 100.98 332.656 101.449 332.656C101.737 332.656 102.015 332.608 102.281 332.512C102.559 332.405 102.799 332.267 103.001 332.096C103.204 331.915 103.348 331.717 103.433 331.504L105.161 332.016C104.98 332.432 104.708 332.8 104.345 333.12C103.993 333.44 103.572 333.696 103.081 333.888C102.601 334.069 102.063 334.16 101.465 334.16ZM106.003 331.552C106.003 331.019 106.152 330.555 106.451 330.16C106.76 329.755 107.181 329.445 107.715 329.232C108.248 329.008 108.867 328.896 109.571 328.896C109.944 328.896 110.323 328.923 110.707 328.976C111.101 329.029 111.448 329.115 111.747 329.232V328.704C111.747 328.117 111.571 327.659 111.219 327.328C110.867 326.997 110.36 326.832 109.699 326.832C109.229 326.832 108.787 326.917 108.371 327.088C107.955 327.248 107.512 327.477 107.043 327.776L106.451 326.592C107.005 326.219 107.56 325.941 108.115 325.76C108.68 325.579 109.272 325.488 109.891 325.488C111.011 325.488 111.891 325.787 112.531 326.384C113.181 326.971 113.507 327.808 113.507 328.896V332.016C113.507 332.219 113.539 332.363 113.603 332.448C113.677 332.533 113.8 332.581 113.971 332.592V334C113.811 334.032 113.667 334.053 113.539 334.064C113.411 334.075 113.304 334.08 113.219 334.08C112.845 334.08 112.563 333.989 112.371 333.808C112.179 333.627 112.067 333.413 112.035 333.168L111.987 332.688C111.624 333.157 111.16 333.52 110.595 333.776C110.029 334.032 109.459 334.16 108.883 334.16C108.328 334.16 107.832 334.048 107.395 333.824C106.957 333.589 106.616 333.275 106.371 332.88C106.125 332.485 106.003 332.043 106.003 331.552ZM111.331 332.064C111.459 331.925 111.56 331.787 111.635 331.648C111.709 331.509 111.747 331.387 111.747 331.28V330.32C111.448 330.203 111.133 330.117 110.803 330.064C110.472 330 110.147 329.968 109.827 329.968C109.187 329.968 108.664 330.096 108.259 330.352C107.864 330.608 107.667 330.96 107.667 331.408C107.667 331.653 107.731 331.888 107.859 332.112C107.997 332.336 108.189 332.517 108.435 332.656C108.691 332.795 109.005 332.864 109.379 332.864C109.763 332.864 110.131 332.789 110.483 332.64C110.835 332.491 111.117 332.299 111.331 332.064ZM115.658 322.32H117.418V331.584C117.418 332.011 117.482 332.283 117.61 332.4C117.738 332.517 117.898 332.576 118.09 332.576C118.303 332.576 118.501 332.555 118.682 332.512C118.874 332.469 119.039 332.416 119.178 332.352L119.434 333.744C119.178 333.851 118.874 333.941 118.522 334.016C118.17 334.091 117.855 334.128 117.578 334.128C116.981 334.128 116.511 333.963 116.17 333.632C115.829 333.291 115.658 332.821 115.658 332.224V322.32ZM126.958 322.64H128.654L133.07 334H131.182L129.982 330.912H125.598L124.414 334H122.51L126.958 322.64ZM129.63 329.584L127.806 324.608L125.918 329.584H129.63ZM139.003 334.16C138.331 334.16 137.739 334 137.227 333.68C136.715 333.36 136.31 332.944 136.011 332.432V337.408H134.251V325.632H135.803V327.136C136.123 326.635 136.539 326.235 137.051 325.936C137.563 325.637 138.134 325.488 138.763 325.488C139.339 325.488 139.867 325.605 140.347 325.84C140.827 326.064 141.243 326.379 141.595 326.784C141.947 327.189 142.219 327.653 142.411 328.176C142.614 328.688 142.715 329.232 142.715 329.808C142.715 330.608 142.555 331.339 142.235 332C141.926 332.661 141.489 333.189 140.923 333.584C140.369 333.968 139.729 334.16 139.003 334.16ZM138.427 332.656C138.801 332.656 139.137 332.576 139.435 332.416C139.745 332.256 140.006 332.043 140.219 331.776C140.443 331.509 140.614 331.205 140.731 330.864C140.849 330.523 140.907 330.171 140.907 329.808C140.907 329.424 140.843 329.061 140.715 328.72C140.587 328.379 140.401 328.08 140.155 327.824C139.921 327.568 139.643 327.365 139.323 327.216C139.014 327.067 138.673 326.992 138.299 326.992C138.075 326.992 137.841 327.035 137.595 327.12C137.35 327.205 137.121 327.323 136.907 327.472C136.694 327.621 136.507 327.797 136.347 328C136.187 328.203 136.075 328.416 136.011 328.64V330.832C136.161 331.173 136.358 331.483 136.603 331.76C136.849 332.027 137.131 332.245 137.451 332.416C137.771 332.576 138.097 332.656 138.427 332.656ZM148.829 333.568C148.68 333.643 148.493 333.723 148.269 333.808C148.045 333.893 147.789 333.968 147.501 334.032C147.224 334.096 146.936 334.128 146.637 334.128C146.275 334.128 145.939 334.064 145.629 333.936C145.32 333.808 145.069 333.605 144.877 333.328C144.696 333.04 144.605 332.672 144.605 332.224V326.992H143.501V325.632H144.605V322.88H146.365V325.632H148.189V326.992H146.365V331.664C146.387 331.952 146.477 332.165 146.637 332.304C146.808 332.443 147.016 332.512 147.261 332.512C147.507 332.512 147.741 332.469 147.965 332.384C148.189 332.299 148.355 332.229 148.461 332.176L148.829 333.568ZM150.048 334V325.632H151.808V334H150.048ZM150.048 324.256V322.32H151.808V324.256H150.048ZM158.579 333.568C158.43 333.643 158.243 333.723 158.019 333.808C157.795 333.893 157.539 333.968 157.251 334.032C156.974 334.096 156.686 334.128 156.387 334.128C156.025 334.128 155.689 334.064 155.379 333.936C155.07 333.808 154.819 333.605 154.627 333.328C154.446 333.04 154.355 332.672 154.355 332.224V326.992H153.251V325.632H154.355V322.88H156.115V325.632H157.939V326.992H156.115V331.664C156.137 331.952 156.227 332.165 156.387 332.304C156.558 332.443 156.766 332.512 157.011 332.512C157.257 332.512 157.491 332.469 157.715 332.384C157.939 332.299 158.105 332.229 158.211 332.176L158.579 333.568ZM159.718 330.752V325.632H161.478V330.4C161.478 331.147 161.612 331.712 161.878 332.096C162.156 332.469 162.556 332.656 163.078 332.656C163.409 332.656 163.729 332.587 164.038 332.448C164.358 332.309 164.646 332.107 164.902 331.84C165.169 331.563 165.382 331.232 165.542 330.848V325.632H167.302V332.016C167.302 332.219 167.34 332.363 167.414 332.448C167.489 332.533 167.612 332.581 167.782 332.592V334C167.601 334.032 167.452 334.053 167.334 334.064C167.217 334.075 167.105 334.08 166.998 334.08C166.678 334.08 166.412 333.995 166.198 333.824C165.985 333.643 165.862 333.413 165.83 333.136L165.798 332.304C165.425 332.912 164.94 333.376 164.342 333.696C163.745 334.005 163.089 334.16 162.374 334.16C161.5 334.16 160.838 333.872 160.39 333.296C159.942 332.72 159.718 331.872 159.718 330.752ZM169.02 329.824C169.02 329.024 169.18 328.299 169.5 327.648C169.831 326.987 170.279 326.464 170.844 326.08C171.41 325.685 172.06 325.488 172.796 325.488C173.436 325.488 174.012 325.653 174.524 325.984C175.047 326.315 175.452 326.725 175.74 327.216V322.32H177.5V332.016C177.5 332.219 177.538 332.363 177.612 332.448C177.687 332.533 177.81 332.581 177.98 332.592V334C177.65 334.053 177.394 334.08 177.212 334.08C176.882 334.08 176.599 333.984 176.364 333.792C176.14 333.6 176.023 333.371 176.012 333.104L175.996 332.48C175.676 333.013 175.244 333.429 174.7 333.728C174.156 334.016 173.591 334.16 173.004 334.16C172.428 334.16 171.895 334.048 171.404 333.824C170.924 333.6 170.503 333.285 170.14 332.88C169.788 332.475 169.511 332.011 169.308 331.488C169.116 330.965 169.02 330.411 169.02 329.824ZM175.74 330.992V328.8C175.623 328.459 175.431 328.155 175.164 327.888C174.908 327.611 174.615 327.392 174.284 327.232C173.964 327.072 173.644 326.992 173.324 326.992C172.951 326.992 172.61 327.072 172.3 327.232C172.002 327.392 171.74 327.605 171.516 327.872C171.303 328.139 171.138 328.443 171.02 328.784C170.903 329.125 170.844 329.483 170.844 329.856C170.844 330.24 170.908 330.603 171.036 330.944C171.164 331.275 171.346 331.573 171.58 331.84C171.826 332.096 172.103 332.299 172.412 332.448C172.732 332.587 173.079 332.656 173.452 332.656C173.687 332.656 173.922 332.613 174.156 332.528C174.402 332.443 174.631 332.325 174.844 332.176C175.068 332.027 175.255 331.851 175.404 331.648C175.564 331.445 175.676 331.227 175.74 330.992ZM183.528 334.16C182.877 334.16 182.285 334.048 181.752 333.824C181.229 333.589 180.776 333.275 180.392 332.88C180.008 332.475 179.709 332.016 179.496 331.504C179.293 330.981 179.192 330.427 179.192 329.84C179.192 329.051 179.373 328.331 179.736 327.68C180.098 327.019 180.605 326.491 181.256 326.096C181.906 325.691 182.669 325.488 183.544 325.488C184.418 325.488 185.17 325.691 185.8 326.096C186.44 326.491 186.936 327.013 187.288 327.664C187.64 328.315 187.816 329.013 187.816 329.76C187.816 329.888 187.81 330.011 187.8 330.128C187.789 330.235 187.778 330.325 187.768 330.4H181.064C181.096 330.891 181.229 331.323 181.464 331.696C181.709 332.059 182.018 332.347 182.392 332.56C182.765 332.763 183.165 332.864 183.592 332.864C184.061 332.864 184.504 332.747 184.92 332.512C185.346 332.277 185.634 331.968 185.784 331.584L187.288 332.016C187.106 332.421 186.829 332.789 186.456 333.12C186.093 333.44 185.661 333.696 185.16 333.888C184.658 334.069 184.114 334.16 183.528 334.16ZM181.016 329.232H186.072C186.04 328.752 185.901 328.331 185.656 327.968C185.421 327.595 185.117 327.307 184.744 327.104C184.381 326.891 183.976 326.784 183.528 326.784C183.09 326.784 182.685 326.891 182.312 327.104C181.949 327.307 181.65 327.595 181.416 327.968C181.181 328.331 181.048 328.752 181.016 329.232Z" fill="black"/>
<rect x="340.5" y="297.5" width="183" height="183" rx="8.5" fill="white" stroke="#C89DFA"/>
<g filter="url(#filter3_d_2979_37)">
<path d="M415.87 332.401C415.144 330.322 416.232 328.03 418.358 327.456C428.118 324.822 438.459 325.09 448.115 328.275C459.036 331.877 468.47 339.009 474.953 348.563C481.435 358.117 484.603 369.559 483.964 381.111C483.325 392.663 478.915 403.679 471.419 412.449C463.923 421.219 453.761 427.251 442.51 429.61C431.259 431.968 419.549 430.521 409.199 425.492C398.849 420.463 390.437 412.135 385.27 401.8C380.703 392.662 378.897 382.409 380.029 372.301C380.276 370.102 382.391 368.676 384.565 369.094L402.356 372.514C404.521 372.93 405.909 375.025 405.829 377.229C405.669 381.625 406.61 386.015 408.594 389.983C411.175 395.145 415.376 399.306 420.546 401.818C425.717 404.33 431.566 405.053 437.186 403.875C442.806 402.696 447.883 399.683 451.627 395.302C455.371 390.922 457.574 385.419 457.893 379.648C458.213 373.878 456.63 368.162 453.392 363.39C450.154 358.617 445.442 355.055 439.986 353.255C435.809 351.878 431.376 351.592 427.098 352.395C424.92 352.804 422.628 351.738 421.897 349.646L415.87 332.401Z" fill="#C393FA" fill-opacity="0.91" shape-rendering="crispEdges"/>
<path d="M415.87 332.401C415.144 330.322 416.232 328.03 418.358 327.456C428.118 324.822 438.459 325.09 448.115 328.275C459.036 331.877 468.47 339.009 474.953 348.563C481.435 358.117 484.603 369.559 483.964 381.111C483.325 392.663 478.915 403.679 471.419 412.449C463.923 421.219 453.761 427.251 442.51 429.61C431.259 431.968 419.549 430.521 409.199 425.492C398.849 420.463 390.437 412.135 385.27 401.8C380.703 392.662 378.897 382.409 380.029 372.301C380.276 370.102 382.391 368.676 384.565 369.094L402.356 372.514C404.521 372.93 405.909 375.025 405.829 377.229C405.669 381.625 406.61 386.015 408.594 389.983C411.175 395.145 415.376 399.306 420.546 401.818C425.717 404.33 431.566 405.053 437.186 403.875C442.806 402.696 447.883 399.683 451.627 395.302C455.371 390.922 457.574 385.419 457.893 379.648C458.213 373.878 456.63 368.162 453.392 363.39C450.154 358.617 445.442 355.055 439.986 353.255C435.809 351.878 431.376 351.592 427.098 352.395C424.92 352.804 422.628 351.738 421.897 349.646L415.87 332.401Z" stroke="white" stroke-width="3" shape-rendering="crispEdges"/>
</g>
<g opacity="0.2">
<mask id="path-10-inside-4_2979_37" fill="white">
<path d="M394.983 366.363C392.875 365.703 391.684 363.449 392.539 361.411C395.864 353.482 401.505 346.735 408.72 342.057C410.574 340.855 413.003 341.628 414.027 343.586L418.251 351.665C419.274 353.622 418.493 356.016 416.717 357.331C413.444 359.755 410.794 362.926 408.988 366.576C408.008 368.556 405.791 369.75 403.683 369.089L394.983 366.363Z"/>
</mask>
<path d="M394.983 366.363C392.875 365.703 391.684 363.449 392.539 361.411C395.864 353.482 401.505 346.735 408.72 342.057C410.574 340.855 413.003 341.628 414.027 343.586L418.251 351.665C419.274 353.622 418.493 356.016 416.717 357.331C413.444 359.755 410.794 362.926 408.988 366.576C408.008 368.556 405.791 369.75 403.683 369.089L394.983 366.363Z" fill="#D6BEFE" stroke="white" stroke-width="2" mask="url(#path-10-inside-4_2979_37)"/>
</g>
<path d="M361.174 452.893V460.925H359.382V449.565H360.854L367.286 457.773V449.581H369.094V460.925H367.526L361.174 452.893ZM371.343 457.677V452.557H373.103V457.325C373.103 458.071 373.237 458.637 373.503 459.021C373.781 459.394 374.181 459.581 374.703 459.581C375.034 459.581 375.354 459.511 375.663 459.373C375.983 459.234 376.271 459.031 376.527 458.765C376.794 458.487 377.007 458.157 377.167 457.773V452.557H378.927V458.941C378.927 459.143 378.965 459.287 379.039 459.373C379.114 459.458 379.237 459.506 379.407 459.517V460.925C379.226 460.957 379.077 460.978 378.959 460.989C378.842 460.999 378.73 461.005 378.623 461.005C378.303 461.005 378.037 460.919 377.823 460.749C377.61 460.567 377.487 460.338 377.455 460.061L377.423 459.229C377.05 459.837 376.565 460.301 375.967 460.621C375.37 460.93 374.714 461.085 373.999 461.085C373.125 461.085 372.463 460.797 372.015 460.221C371.567 459.645 371.343 458.797 371.343 457.677ZM393.973 460.925H392.213V456.237C392.213 455.458 392.085 454.887 391.829 454.525C391.573 454.162 391.2 453.981 390.709 453.981C390.219 453.981 389.76 454.167 389.333 454.541C388.917 454.903 388.624 455.378 388.453 455.965V460.925H386.693V456.237C386.693 455.458 386.565 454.887 386.309 454.525C386.053 454.162 385.685 453.981 385.205 453.981C384.715 453.981 384.256 454.162 383.829 454.525C383.413 454.887 383.115 455.362 382.933 455.949V460.925H381.173V452.557H382.773V454.237C383.104 453.65 383.536 453.202 384.069 452.893C384.613 452.573 385.232 452.413 385.925 452.413C386.619 452.413 387.163 452.594 387.557 452.957C387.963 453.319 388.213 453.773 388.309 454.317C388.672 453.698 389.115 453.229 389.637 452.909C390.171 452.578 390.779 452.413 391.461 452.413C391.952 452.413 392.363 452.503 392.693 452.685C393.024 452.866 393.28 453.117 393.461 453.437C393.643 453.746 393.771 454.109 393.845 454.525C393.931 454.93 393.973 455.362 393.973 455.821V460.925ZM399.793 461.085C399.143 461.085 398.551 460.973 398.017 460.749C397.495 460.514 397.041 460.199 396.657 459.805C396.273 459.399 395.975 458.941 395.761 458.429C395.559 457.906 395.457 457.351 395.457 456.765C395.457 455.975 395.639 455.255 396.001 454.605C396.364 453.943 396.871 453.415 397.521 453.021C398.172 452.615 398.935 452.413 399.809 452.413C400.684 452.413 401.436 452.615 402.065 453.021C402.705 453.415 403.201 453.938 403.553 454.589C403.905 455.239 404.081 455.938 404.081 456.685C404.081 456.813 404.076 456.935 404.065 457.053C404.055 457.159 404.044 457.25 404.033 457.325H397.329C397.361 457.815 397.495 458.247 397.729 458.621C397.975 458.983 398.284 459.271 398.657 459.485C399.031 459.687 399.431 459.789 399.857 459.789C400.327 459.789 400.769 459.671 401.185 459.437C401.612 459.202 401.9 458.893 402.049 458.509L403.553 458.941C403.372 459.346 403.095 459.714 402.721 460.045C402.359 460.365 401.927 460.621 401.425 460.813C400.924 460.994 400.38 461.085 399.793 461.085ZM397.281 456.157H402.337C402.305 455.677 402.167 455.255 401.921 454.893C401.687 454.519 401.383 454.231 401.009 454.029C400.647 453.815 400.241 453.709 399.793 453.709C399.356 453.709 398.951 453.815 398.577 454.029C398.215 454.231 397.916 454.519 397.681 454.893C397.447 455.255 397.313 455.677 397.281 456.157ZM410.221 454.077C409.538 454.087 408.93 454.242 408.397 454.541C407.874 454.839 407.501 455.261 407.277 455.805V460.925H405.517V452.557H407.149V454.429C407.437 453.853 407.816 453.394 408.285 453.053C408.754 452.701 409.25 452.509 409.773 452.477C409.88 452.477 409.965 452.477 410.029 452.477C410.104 452.477 410.168 452.482 410.221 452.493V454.077ZM411.501 460.925V452.557H413.261V460.925H411.501ZM411.501 451.181V449.245H413.261V451.181H411.501ZM419.168 461.085C418.518 461.085 417.926 460.973 417.392 460.749C416.87 460.514 416.416 460.194 416.032 459.789C415.648 459.383 415.35 458.919 415.136 458.397C414.934 457.874 414.832 457.319 414.832 456.733C414.832 455.943 415.008 455.223 415.36 454.573C415.723 453.922 416.224 453.399 416.864 453.005C417.515 452.61 418.283 452.413 419.168 452.413C420.022 452.413 420.763 452.605 421.392 452.989C422.032 453.362 422.502 453.863 422.8 454.493L421.088 455.037C420.896 454.685 420.624 454.413 420.272 454.221C419.931 454.018 419.552 453.917 419.136 453.917C418.667 453.917 418.24 454.039 417.856 454.285C417.483 454.519 417.184 454.85 416.96 455.277C416.747 455.693 416.64 456.178 416.64 456.733C416.64 457.266 416.752 457.751 416.976 458.189C417.2 458.615 417.499 458.957 417.872 459.213C418.256 459.458 418.683 459.581 419.152 459.581C419.44 459.581 419.718 459.533 419.984 459.437C420.262 459.33 420.502 459.191 420.704 459.021C420.907 458.839 421.051 458.642 421.136 458.429L422.864 458.941C422.683 459.357 422.411 459.725 422.048 460.045C421.696 460.365 421.275 460.621 420.784 460.813C420.304 460.994 419.766 461.085 419.168 461.085ZM423.706 458.477C423.706 457.943 423.855 457.479 424.154 457.085C424.463 456.679 424.884 456.37 425.418 456.157C425.951 455.933 426.57 455.821 427.274 455.821C427.647 455.821 428.026 455.847 428.41 455.901C428.804 455.954 429.151 456.039 429.45 456.157V455.629C429.45 455.042 429.274 454.583 428.922 454.253C428.57 453.922 428.063 453.757 427.402 453.757C426.932 453.757 426.49 453.842 426.074 454.013C425.658 454.173 425.215 454.402 424.746 454.701L424.154 453.517C424.708 453.143 425.263 452.866 425.818 452.685C426.383 452.503 426.975 452.413 427.594 452.413C428.714 452.413 429.594 452.711 430.234 453.309C430.884 453.895 431.21 454.733 431.21 455.821V458.941C431.21 459.143 431.242 459.287 431.306 459.373C431.38 459.458 431.503 459.506 431.674 459.517V460.925C431.514 460.957 431.37 460.978 431.242 460.989C431.114 460.999 431.007 461.005 430.922 461.005C430.548 461.005 430.266 460.914 430.074 460.733C429.882 460.551 429.77 460.338 429.738 460.093L429.69 459.613C429.327 460.082 428.863 460.445 428.298 460.701C427.732 460.957 427.162 461.085 426.586 461.085C426.031 461.085 425.535 460.973 425.098 460.749C424.66 460.514 424.319 460.199 424.074 459.805C423.828 459.41 423.706 458.967 423.706 458.477ZM429.034 458.989C429.162 458.85 429.263 458.711 429.338 458.573C429.412 458.434 429.45 458.311 429.45 458.205V457.245C429.151 457.127 428.836 457.042 428.506 456.989C428.175 456.925 427.85 456.893 427.53 456.893C426.89 456.893 426.367 457.021 425.962 457.277C425.567 457.533 425.37 457.885 425.37 458.333C425.37 458.578 425.434 458.813 425.562 459.037C425.7 459.261 425.892 459.442 426.138 459.581C426.394 459.719 426.708 459.789 427.082 459.789C427.466 459.789 427.834 459.714 428.186 459.565C428.538 459.415 428.82 459.223 429.034 458.989ZM433.361 449.245H435.121V458.509C435.121 458.935 435.185 459.207 435.313 459.325C435.441 459.442 435.601 459.501 435.793 459.501C436.006 459.501 436.204 459.479 436.385 459.437C436.577 459.394 436.742 459.341 436.881 459.277L437.137 460.669C436.881 460.775 436.577 460.866 436.225 460.941C435.873 461.015 435.558 461.053 435.281 461.053C434.684 461.053 434.214 460.887 433.873 460.557C433.532 460.215 433.361 459.746 433.361 459.149V449.245ZM444.662 449.565H446.358L450.774 460.925H448.886L447.686 457.837H443.302L442.118 460.925H440.214L444.662 449.565ZM447.334 456.509L445.51 451.533L443.622 456.509H447.334ZM456.706 461.085C456.034 461.085 455.442 460.925 454.93 460.605C454.418 460.285 454.013 459.869 453.714 459.357V464.333H451.954V452.557H453.506V454.061C453.826 453.559 454.242 453.159 454.754 452.861C455.266 452.562 455.837 452.413 456.466 452.413C457.042 452.413 457.57 452.53 458.05 452.765C458.53 452.989 458.946 453.303 459.298 453.709C459.65 454.114 459.922 454.578 460.114 455.101C460.317 455.613 460.418 456.157 460.418 456.733C460.418 457.533 460.258 458.263 459.938 458.925C459.629 459.586 459.192 460.114 458.626 460.509C458.072 460.893 457.432 461.085 456.706 461.085ZM456.13 459.581C456.504 459.581 456.84 459.501 457.138 459.341C457.448 459.181 457.709 458.967 457.922 458.701C458.146 458.434 458.317 458.13 458.434 457.789C458.552 457.447 458.61 457.095 458.61 456.733C458.61 456.349 458.546 455.986 458.418 455.645C458.29 455.303 458.104 455.005 457.858 454.749C457.624 454.493 457.346 454.29 457.026 454.141C456.717 453.991 456.376 453.917 456.002 453.917C455.778 453.917 455.544 453.959 455.298 454.045C455.053 454.13 454.824 454.247 454.61 454.397C454.397 454.546 454.21 454.722 454.05 454.925C453.89 455.127 453.778 455.341 453.714 455.565V457.757C453.864 458.098 454.061 458.407 454.306 458.685C454.552 458.951 454.834 459.17 455.154 459.341C455.474 459.501 455.8 459.581 456.13 459.581ZM466.532 460.493C466.383 460.567 466.196 460.647 465.972 460.733C465.748 460.818 465.492 460.893 465.204 460.957C464.927 461.021 464.639 461.053 464.34 461.053C463.978 461.053 463.642 460.989 463.332 460.861C463.023 460.733 462.772 460.53 462.58 460.253C462.399 459.965 462.308 459.597 462.308 459.149V453.917H461.204V452.557H462.308V449.805H464.068V452.557H465.892V453.917H464.068V458.589C464.09 458.877 464.18 459.09 464.34 459.229C464.511 459.367 464.719 459.437 464.964 459.437C465.21 459.437 465.444 459.394 465.668 459.309C465.892 459.223 466.058 459.154 466.164 459.101L466.532 460.493ZM467.751 460.925V452.557H469.511V460.925H467.751ZM467.751 451.181V449.245H469.511V451.181H467.751ZM476.282 460.493C476.133 460.567 475.946 460.647 475.722 460.733C475.498 460.818 475.242 460.893 474.954 460.957C474.677 461.021 474.389 461.053 474.09 461.053C473.728 461.053 473.392 460.989 473.082 460.861C472.773 460.733 472.522 460.53 472.33 460.253C472.149 459.965 472.058 459.597 472.058 459.149V453.917H470.954V452.557H472.058V449.805H473.818V452.557H475.642V453.917H473.818V458.589C473.84 458.877 473.93 459.09 474.09 459.229C474.261 459.367 474.469 459.437 474.714 459.437C474.96 459.437 475.194 459.394 475.418 459.309C475.642 459.223 475.808 459.154 475.914 459.101L476.282 460.493ZM477.421 457.677V452.557H479.181V457.325C479.181 458.071 479.315 458.637 479.581 459.021C479.859 459.394 480.259 459.581 480.781 459.581C481.112 459.581 481.432 459.511 481.741 459.373C482.061 459.234 482.349 459.031 482.605 458.765C482.872 458.487 483.085 458.157 483.245 457.773V452.557H485.005V458.941C485.005 459.143 485.043 459.287 485.117 459.373C485.192 459.458 485.315 459.506 485.485 459.517V460.925C485.304 460.957 485.155 460.978 485.037 460.989C484.92 460.999 484.808 461.005 484.701 461.005C484.381 461.005 484.115 460.919 483.901 460.749C483.688 460.567 483.565 460.338 483.533 460.061L483.501 459.229C483.128 459.837 482.643 460.301 482.045 460.621C481.448 460.93 480.792 461.085 480.077 461.085C479.203 461.085 478.541 460.797 478.093 460.221C477.645 459.645 477.421 458.797 477.421 457.677ZM486.723 456.749C486.723 455.949 486.883 455.223 487.203 454.573C487.534 453.911 487.982 453.389 488.547 453.005C489.113 452.61 489.763 452.413 490.499 452.413C491.139 452.413 491.715 452.578 492.227 452.909C492.75 453.239 493.155 453.65 493.443 454.141V449.245H495.203V458.941C495.203 459.143 495.241 459.287 495.315 459.373C495.39 459.458 495.513 459.506 495.683 459.517V460.925C495.353 460.978 495.097 461.005 494.915 461.005C494.585 461.005 494.302 460.909 494.067 460.717C493.843 460.525 493.726 460.295 493.715 460.029L493.699 459.405C493.379 459.938 492.947 460.354 492.403 460.653C491.859 460.941 491.294 461.085 490.707 461.085C490.131 461.085 489.598 460.973 489.107 460.749C488.627 460.525 488.206 460.21 487.843 459.805C487.491 459.399 487.214 458.935 487.011 458.413C486.819 457.89 486.723 457.335 486.723 456.749ZM493.443 457.917V455.725C493.326 455.383 493.134 455.079 492.867 454.813C492.611 454.535 492.318 454.317 491.987 454.157C491.667 453.997 491.347 453.917 491.027 453.917C490.654 453.917 490.313 453.997 490.003 454.157C489.705 454.317 489.443 454.53 489.219 454.797C489.006 455.063 488.841 455.367 488.723 455.709C488.606 456.05 488.547 456.407 488.547 456.781C488.547 457.165 488.611 457.527 488.739 457.869C488.867 458.199 489.049 458.498 489.283 458.765C489.529 459.021 489.806 459.223 490.115 459.373C490.435 459.511 490.782 459.581 491.155 459.581C491.39 459.581 491.625 459.538 491.859 459.453C492.105 459.367 492.334 459.25 492.547 459.101C492.771 458.951 492.958 458.775 493.107 458.573C493.267 458.37 493.379 458.151 493.443 457.917ZM501.231 461.085C500.58 461.085 499.988 460.973 499.455 460.749C498.932 460.514 498.479 460.199 498.095 459.805C497.711 459.399 497.412 458.941 497.199 458.429C496.996 457.906 496.895 457.351 496.895 456.765C496.895 455.975 497.076 455.255 497.439 454.605C497.801 453.943 498.308 453.415 498.959 453.021C499.609 452.615 500.372 452.413 501.247 452.413C502.121 452.413 502.873 452.615 503.503 453.021C504.143 453.415 504.639 453.938 504.991 454.589C505.343 455.239 505.519 455.938 505.519 456.685C505.519 456.813 505.513 456.935 505.503 457.053C505.492 457.159 505.481 457.25 505.471 457.325H498.767C498.799 457.815 498.932 458.247 499.167 458.621C499.412 458.983 499.721 459.271 500.095 459.485C500.468 459.687 500.868 459.789 501.295 459.789C501.764 459.789 502.207 459.671 502.623 459.437C503.049 459.202 503.337 458.893 503.487 458.509L504.991 458.941C504.809 459.346 504.532 459.714 504.159 460.045C503.796 460.365 503.364 460.621 502.863 460.813C502.361 460.994 501.817 461.085 501.231 461.085ZM498.719 456.157H503.775C503.743 455.677 503.604 455.255 503.359 454.893C503.124 454.519 502.82 454.231 502.447 454.029C502.084 453.815 501.679 453.709 501.231 453.709C500.793 453.709 500.388 453.815 500.015 454.029C499.652 454.231 499.353 454.519 499.119 454.893C498.884 455.255 498.751 455.677 498.719 456.157Z" fill="black"/>
<defs>
<filter id="filter0_d_2979_37" x="278.601" y="100.009" width="122.544" height="123.249" filterUnits="userSpaceOnUse" color-interpolation-filters="sRGB">
<feFlood flood-opacity="0" result="BackgroundImageFix"/>
<feColorMatrix in="SourceAlpha" type="matrix" values="0 0 0 0 0 0 0 0 0 0 0 0 0 0 0 0 0 0 127 0" result="hardAlpha"/>
<feOffset dy="0.44"/>
<feGaussianBlur stdDeviation="4.55"/>
<feComposite in2="hardAlpha" operator="out"/>
<feColorMatrix type="matrix" values="0 0 0 0 0.93 0 0 0 0 0.93 0 0 0 0 0.93 0 0 0 1 0"/>
<feBlend mode="normal" in2="BackgroundImageFix" result="effect1_dropShadow_2979_37"/>
<feBlend mode="normal" in="SourceGraphic" in2="effect1_dropShadow_2979_37" result="shape"/>
</filter>
<filter id="filter1_d_2979_37" x="295.433" y="107.756" width="40.5701" height="43.1141" filterUnits="userSpaceOnUse" color-interpolation-filters="sRGB">
<feFlood flood-opacity="0" result="BackgroundImageFix"/>
<feColorMatrix in="SourceAlpha" type="matrix" values="0 0 0 0 0 0 0 0 0 0 0 0 0 0 0 0 0 0 127 0" result="hardAlpha"/>
<feOffset dy="0.44"/>
<feGaussianBlur stdDeviation="4.55"/>
<feComposite in2="hardAlpha" operator="out"/>
<feColorMatrix type="matrix" values="0 0 0 0 0.93 0 0 0 0 0.93 0 0 0 0 0.93 0 0 0 1 0"/>
<feBlend mode="normal" in2="BackgroundImageFix" result="effect1_dropShadow_2979_37"/>
<feBlend mode="normal" in="SourceGraphic" in2="effect1_dropShadow_2979_37" result="shape"/>
</filter>
<filter id="filter2_d_2979_37" x="64.7281" y="182.482" width="122.543" height="123.249" filterUnits="userSpaceOnUse" color-interpolation-filters="sRGB">
<feFlood flood-opacity="0" result="BackgroundImageFix"/>
<feColorMatrix in="SourceAlpha" type="matrix" values="0 0 0 0 0 0 0 0 0 0 0 0 0 0 0 0 0 0 127 0" result="hardAlpha"/>
<feOffset dy="0.44"/>
<feGaussianBlur stdDeviation="4.55"/>
<feComposite in2="hardAlpha" operator="out"/>
<feColorMatrix type="matrix" values="0 0 0 0 0.93 0 0 0 0 0.93 0 0 0 0 0.93 0 0 0 1 0"/>
<feBlend mode="normal" in2="BackgroundImageFix" result="effect1_dropShadow_2979_37"/>
<feBlend mode="normal" in="SourceGraphic" in2="effect1_dropShadow_2979_37" result="shape"/>
</filter>
<filter id="filter3_d_2979_37" x="369.101" y="315.504" width="125.543" height="126.249" filterUnits="userSpaceOnUse" color-interpolation-filters="sRGB">
<feFlood flood-opacity="0" result="BackgroundImageFix"/>
<feColorMatrix in="SourceAlpha" type="matrix" values="0 0 0 0 0 0 0 0 0 0 0 0 0 0 0 0 0 0 127 0" result="hardAlpha"/>
<feOffset dy="0.44"/>
<feGaussianBlur stdDeviation="4.55"/>
<feComposite in2="hardAlpha" operator="out"/>
<feColorMatrix type="matrix" values="0 0 0 0 0.93 0 0 0 0 0.93 0 0 0 0 0.93 0 0 0 1 0"/>
<feBlend mode="normal" in2="BackgroundImageFix" result="effect1_dropShadow_2979_37"/>
<feBlend mode="normal" in="SourceGraphic" in2="effect1_dropShadow_2979_37" result="shape"/>
</filter>
</defs>
</svg>
