<svg width="560" height="560" viewBox="0 0 560 560" fill="none" xmlns="http://www.w3.org/2000/svg">
<circle cx="189" cy="182" r="150" fill="url(#paint0_linear_2979_86)"/>
<path d="M192.534 78.0666L195.605 53.908L211.699 55.9539L211.271 59.3225L198.988 57.7611L198.071 64.9746L208.347 66.2808L207.945 69.4453L197.669 68.139L196.345 78.5511L192.534 78.0666Z" fill="white"/>
<path d="M218.906 76.8491C219.337 75.7899 220.008 74.9888 220.919 74.446C221.861 73.8906 222.947 73.6162 224.178 73.6229C225.418 73.6084 226.738 73.8852 228.136 74.4533C228.877 74.7546 229.608 75.1131 230.327 75.5289C231.068 75.9533 231.688 76.4025 232.186 76.8766L232.612 75.8279C233.086 74.6628 233.106 73.6098 232.674 72.669C232.242 71.7283 231.369 70.991 230.056 70.4574C229.123 70.0786 228.175 69.8909 227.211 69.8942C226.256 69.8762 225.192 69.9745 224.019 70.1889L223.798 67.3597C225.201 67.0658 226.527 66.9626 227.775 67.0501C229.044 67.1461 230.293 67.4438 231.521 67.943C233.746 68.8468 235.253 70.1501 236.042 71.8529C236.86 73.5431 236.831 75.4687 235.953 77.6295L233.435 83.8261C233.272 84.2286 233.219 84.5404 233.277 84.7615C233.357 84.9912 233.562 85.1856 233.892 85.3445L232.756 88.1409C232.412 88.0753 232.109 88.0015 231.846 87.9194C231.583 87.8373 231.367 87.7618 231.198 87.6929C230.456 87.3916 229.968 86.9835 229.733 86.4684C229.498 85.9533 229.448 85.4392 229.582 84.9262L229.874 83.9341C228.775 84.5736 227.561 84.9195 226.232 84.9717C224.902 85.0239 223.665 84.8176 222.522 84.3528C221.42 83.9052 220.525 83.2825 219.837 82.4847C219.158 81.6658 218.734 80.7654 218.565 79.7836C218.397 78.8018 218.51 77.8236 218.906 76.8491ZM229.075 82.1655C229.441 81.9933 229.754 81.7997 230.014 81.5846C230.274 81.3694 230.448 81.1559 230.534 80.9441L231.308 79.0374C230.81 78.5634 230.254 78.14 229.64 77.7672C229.035 77.3733 228.415 77.0472 227.779 76.789C226.508 76.2725 225.367 76.105 224.355 76.2863C223.365 76.4763 222.689 77.0161 222.327 77.9059C222.129 78.3931 222.067 78.9108 222.14 79.459C222.235 80.0158 222.47 80.5309 222.845 81.0043C223.242 81.4862 223.811 81.8779 224.552 82.1791C225.315 82.489 226.106 82.6377 226.926 82.6251C227.745 82.6126 228.462 82.4594 229.075 82.1655Z" fill="white"/>
<path d="M247.928 97.5199C246.713 96.6247 245.705 95.5836 244.903 94.3967C244.116 93.1914 243.627 91.9081 243.437 90.5468L246.075 89.3377C246.361 90.6844 246.796 91.8287 247.38 92.7704C247.983 93.7258 248.698 94.5086 249.526 95.119C250.373 95.743 251.179 96.0952 251.943 96.1756C252.721 96.2376 253.341 95.9557 253.802 95.3298C254.141 94.8695 254.254 94.4272 254.141 94.0029C254.027 93.5785 253.765 93.0868 253.353 92.5277C252.96 91.9822 252.469 91.337 251.882 90.5919C251.082 89.5193 250.454 88.5596 249.999 87.7128C249.557 86.8476 249.344 86.0376 249.361 85.2828C249.377 84.5281 249.67 83.7641 250.24 82.9909C250.932 82.0521 251.761 81.4276 252.728 81.1176C253.695 80.8075 254.731 80.7896 255.835 81.0638C256.958 81.3515 258.081 81.9091 259.204 82.7366C260.254 83.5097 261.098 84.3876 261.737 85.37C262.409 86.3476 262.834 87.4279 263.013 88.611L260.23 89.6704C260.02 88.6066 259.676 87.6857 259.198 86.9077C258.739 86.1432 258.123 85.4761 257.35 84.9064C256.908 84.5809 256.444 84.3241 255.957 84.1361C255.485 83.9298 255.008 83.8629 254.529 83.9356C254.081 84.0034 253.681 84.2766 253.328 84.7553C253.044 85.1419 252.923 85.5362 252.968 85.9383C253.013 86.3404 253.195 86.787 253.514 87.2783C253.834 87.7695 254.242 88.3537 254.737 89.031C255.615 90.1898 256.329 91.2265 256.876 92.1411C257.437 93.0374 257.739 93.8992 257.783 94.7266C257.858 95.5492 257.571 96.4023 256.92 97.2859C255.889 98.685 254.557 99.3938 252.924 99.4122C251.324 99.4258 249.658 98.795 247.928 97.5199Z" fill="white"/>
<path d="M269.041 115.14C268.707 115.012 268.31 114.833 267.851 114.602C267.392 114.371 266.903 114.074 266.385 113.712C265.882 113.366 265.415 112.957 264.983 112.484C264.458 111.911 264.073 111.287 263.827 110.612C263.582 109.938 263.54 109.248 263.7 108.543C263.893 107.84 264.344 107.164 265.052 106.515L273.326 98.9423L271.728 97.1965L273.879 95.228L275.477 96.9738L279.829 92.9906L282.376 95.7738L278.024 99.757L280.664 102.641L278.514 104.61L275.873 101.725L268.485 108.488C268.061 108.938 267.855 109.39 267.867 109.844C267.895 110.315 268.086 110.744 268.441 111.132C268.796 111.52 269.203 111.829 269.663 112.06C270.122 112.291 270.471 112.452 270.709 112.543L269.041 115.14Z" fill="white"/>
<path d="M276.848 128.32C276.154 127.11 275.73 125.89 275.577 124.659C275.456 123.437 275.557 122.258 275.881 121.123C276.224 119.977 276.758 118.932 277.483 117.989C278.238 117.054 279.161 116.273 280.252 115.647C281.719 114.805 283.251 114.373 284.848 114.353C286.465 114.321 287.987 114.7 289.415 115.488C290.863 116.265 292.054 117.467 292.988 119.093C293.921 120.719 294.347 122.333 294.266 123.936C294.215 125.547 293.773 127.027 292.939 128.376C292.105 129.725 290.994 130.798 289.606 131.595C289.368 131.732 289.134 131.853 288.904 131.958C288.695 132.052 288.515 132.129 288.364 132.189L281.209 119.725C280.331 120.309 279.67 121.018 279.226 121.852C278.814 122.696 278.609 123.578 278.61 124.5C278.632 125.41 278.871 126.262 279.326 127.055C279.827 127.928 280.518 128.626 281.398 129.148C282.29 129.691 283.172 129.896 284.046 129.764L284.848 133.021C283.901 133.117 282.92 132.994 281.907 132.653C280.925 132.32 279.988 131.79 279.096 131.063C278.224 130.325 277.475 129.41 276.848 128.32ZM283.329 118.389L288.726 127.789C289.584 127.217 290.219 126.51 290.632 125.667C291.075 124.832 291.286 123.959 291.264 123.049C291.274 122.147 291.04 121.279 290.561 120.447C290.095 119.633 289.464 118.994 288.668 118.527C287.905 118.069 287.05 117.822 286.106 117.784C285.181 117.735 284.255 117.937 283.329 118.389Z" fill="white"/>
<path d="M303.218 152.089C302.765 150.697 302.064 149.549 301.116 148.645C300.174 147.763 299.075 147.264 297.819 147.149L287.33 150.381L286.219 146.775L303.362 141.492L304.392 144.836L300.557 146.018C301.919 146.244 303.098 146.73 304.094 147.476C305.111 148.216 305.817 149.111 306.213 150.161C306.28 150.38 306.334 150.555 306.375 150.686C306.422 150.839 306.451 150.973 306.463 151.089L303.218 152.089Z" fill="white"/>
<path d="M305.398 176.295C306.88 176.399 308.31 176.762 309.688 177.386C311.088 178.011 312.335 178.867 313.428 179.952C314.542 181.061 315.391 182.37 315.973 183.878C316.577 185.387 316.815 187.066 316.686 188.913C316.532 191.103 315.898 192.961 314.783 194.488C313.69 196.016 312.341 197.113 310.735 197.78L308.927 194.628C309.94 194.24 310.757 193.713 311.376 193.046C311.995 192.402 312.446 191.677 312.732 190.872C313.016 190.089 313.185 189.31 313.24 188.535C313.329 187.257 313.145 186.121 312.687 185.126C312.253 184.133 311.636 183.276 310.839 182.556C310.04 181.858 309.127 181.301 308.102 180.885C307.075 180.493 306.037 180.259 304.988 180.186C303.824 180.104 302.682 180.219 301.559 180.53C300.46 180.843 299.465 181.312 298.573 181.937C297.702 182.587 296.994 183.374 296.447 184.298C295.901 185.223 295.588 186.255 295.508 187.396C295.454 188.172 295.534 188.991 295.749 189.854C295.964 190.717 296.331 191.522 296.852 192.269C297.394 193.041 298.13 193.666 299.059 194.143L297.023 197.198C295.849 196.612 294.877 195.753 294.108 194.622C293.338 193.513 292.782 192.282 292.442 190.929C292.099 189.598 291.973 188.295 292.062 187.017C292.182 185.306 292.645 183.769 293.451 182.404C294.28 181.041 295.324 179.887 296.582 178.944C297.863 178.002 299.264 177.298 300.787 176.832C302.332 176.367 303.869 176.188 305.398 176.295Z" fill="white"/>
<path d="M294.384 211.073C295.451 211.485 296.264 212.141 296.822 213.043C297.394 213.975 297.688 215.056 297.703 216.288C297.739 217.527 297.485 218.851 296.942 220.259C296.654 221.006 296.308 221.742 295.905 222.469C295.494 223.217 295.055 223.845 294.59 224.351L295.646 224.759C296.819 225.212 297.872 225.214 298.805 224.765C299.739 224.317 300.46 223.431 300.971 222.108C301.333 221.17 301.504 220.218 301.484 219.255C301.485 218.299 301.368 217.237 301.133 216.068L303.958 215.798C304.277 217.195 304.403 218.519 304.338 219.768C304.264 221.039 303.988 222.292 303.511 223.53C302.646 225.77 301.369 227.299 299.681 228.118C298.005 228.966 296.079 228.971 293.903 228.131L287.664 225.722C287.258 225.566 286.946 225.519 286.725 225.581C286.497 225.664 286.306 225.872 286.153 226.205L283.337 225.119C283.397 224.774 283.466 224.469 283.543 224.205C283.62 223.941 283.692 223.724 283.758 223.553C284.046 222.806 284.446 222.311 284.957 222.067C285.467 221.823 285.981 221.764 286.496 221.889L287.493 222.163C286.834 221.076 286.467 219.868 286.392 218.54C286.316 217.211 286.501 215.971 286.945 214.819C287.373 213.71 287.98 212.805 288.766 212.103C289.573 211.409 290.466 210.97 291.444 210.784C292.423 210.598 293.403 210.694 294.384 211.073ZM289.247 221.333C289.426 221.696 289.625 222.006 289.845 222.262C290.064 222.519 290.281 222.688 290.494 222.77L292.414 223.512C292.879 223.005 293.293 222.441 293.655 221.821C294.038 221.209 294.353 220.583 294.6 219.943C295.094 218.663 295.242 217.519 295.043 216.511C294.835 215.524 294.284 214.858 293.388 214.512C292.897 214.323 292.378 214.269 291.832 214.352C291.277 214.457 290.766 214.701 290.299 215.084C289.824 215.489 289.442 216.065 289.154 216.812C288.858 217.58 288.723 218.373 288.75 219.193C288.777 220.012 288.943 220.725 289.247 221.333Z" fill="white"/>
<path d="M268.62 248.673L270.878 245.65L278.93 251.664C280.267 252.663 281.411 253.176 282.363 253.201C283.3 253.245 284.084 252.846 284.713 252.003C285.151 251.417 285.443 250.721 285.588 249.916C285.719 249.129 285.699 248.315 285.528 247.474C285.376 246.647 285.045 245.886 284.536 245.192L275.99 238.808L278.248 235.785L292.619 246.521L290.567 249.269L287.681 247.113C288.049 247.959 288.243 248.846 288.263 249.774C288.287 250.734 288.147 251.686 287.843 252.629C287.538 253.571 287.071 254.464 286.442 255.307C285.798 256.168 285.116 256.757 284.394 257.073C283.658 257.409 282.899 257.527 282.117 257.428C281.339 257.361 280.552 257.115 279.756 256.691C278.964 256.299 278.174 255.809 277.386 255.221L268.62 248.673Z" fill="white"/>
<path d="M266.075 265.316C267.099 266.692 267.751 268.145 268.033 269.673C268.31 271.234 268.208 272.706 267.727 274.09C267.259 275.492 266.392 276.664 265.126 277.605C264.025 278.424 262.823 278.877 261.519 278.963C260.197 279.062 258.974 278.874 257.851 278.399L264.114 286.821L261.086 289.073L248.683 272.393C248.424 272.044 248.176 271.844 247.938 271.793C247.7 271.742 247.428 271.816 247.121 272.016L245.32 269.594C245.82 269.079 246.227 268.706 246.539 268.474C247.107 268.051 247.716 267.854 248.366 267.884C248.997 267.928 249.492 268.173 249.851 268.618L250.677 269.671C250.545 268.344 250.756 267.076 251.31 265.866C251.878 264.675 252.666 263.704 253.675 262.953C254.666 262.217 255.727 261.727 256.857 261.485C257.97 261.256 259.097 261.258 260.239 261.492C261.363 261.739 262.434 262.182 263.451 262.822C264.45 263.476 265.325 264.307 266.075 265.316ZM253.021 271.903L255.825 275.674C256.463 276.111 257.183 276.388 257.982 276.506C258.778 276.656 259.562 276.656 260.335 276.509C261.091 276.375 261.743 276.103 262.294 275.694C262.936 275.216 263.421 274.642 263.748 273.971C264.058 273.314 264.234 272.612 264.278 271.867C264.304 271.135 264.2 270.401 263.965 269.664C263.73 268.926 263.374 268.237 262.897 267.594C262.405 266.934 261.831 266.392 261.174 265.968C260.531 265.563 259.837 265.281 259.093 265.123C258.343 264.996 257.607 265.002 256.883 265.141C256.156 265.312 255.471 265.636 254.828 266.114C254.425 266.414 254.076 266.787 253.781 267.234C253.468 267.695 253.224 268.19 253.048 268.72C252.853 269.263 252.757 269.805 252.76 270.345C252.744 270.898 252.831 271.417 253.021 271.903Z" fill="white"/>
<path d="M234.656 275.534L242.235 291.793L238.815 293.387L231.237 277.128L234.656 275.534ZM243.481 294.467L245.234 298.229L241.814 299.823L240.061 296.061L243.481 294.467Z" fill="white"/>
<path d="M226.954 289.319C227.347 290.989 227.37 292.581 227.023 294.096C226.658 295.638 225.981 296.949 224.99 298.029C224.004 299.13 222.744 299.862 221.208 300.224C219.873 300.539 218.59 300.478 217.359 300.039C216.105 299.607 215.058 298.949 214.215 298.067L216.624 308.283L212.952 309.149L208.182 288.918C208.082 288.495 207.933 288.213 207.735 288.071C207.538 287.93 207.258 287.89 206.897 287.952L206.204 285.014C206.868 284.74 207.389 284.558 207.767 284.469C208.457 284.307 209.094 284.368 209.678 284.653C210.24 284.943 210.598 285.364 210.751 285.915L211.091 287.209C211.497 285.939 212.194 284.859 213.182 283.968C214.175 283.099 215.284 282.521 216.508 282.232C217.71 281.949 218.878 281.92 220.012 282.146C221.123 282.377 222.157 282.827 223.113 283.494C224.047 284.166 224.854 284.998 225.534 285.989C226.192 286.985 226.665 288.095 226.954 289.319ZM212.358 290.188L213.436 294.762C213.849 295.416 214.399 295.956 215.087 296.382C215.757 296.834 216.477 297.146 217.245 297.317C217.992 297.494 218.699 297.503 219.367 297.346C220.146 297.162 220.818 296.827 221.385 296.341C221.93 295.861 222.37 295.287 222.706 294.62C223.02 293.959 223.216 293.243 223.292 292.473C223.369 291.703 223.316 290.929 223.132 290.15C222.943 289.349 222.631 288.623 222.196 287.974C221.767 287.347 221.241 286.813 220.62 286.372C219.983 285.959 219.304 285.672 218.585 285.513C217.849 285.381 217.092 285.407 216.313 285.591C215.823 285.706 215.355 285.911 214.907 286.204C214.437 286.503 214.016 286.861 213.645 287.277C213.251 287.699 212.948 288.158 212.736 288.654C212.502 289.156 212.376 289.667 212.358 290.188Z" fill="white"/>
<path d="M194.175 292.02C194.119 293.162 193.75 294.14 193.069 294.953C192.364 295.788 191.429 296.406 190.265 296.807C189.099 297.23 187.763 297.405 186.255 297.331C185.456 297.291 184.648 297.194 183.831 297.04C182.992 296.884 182.259 296.664 181.631 296.382L181.576 297.512C181.514 298.768 181.842 299.769 182.561 300.514C183.28 301.259 184.348 301.667 185.764 301.736C186.768 301.786 187.725 301.65 188.634 301.328C189.542 301.03 190.514 300.585 191.55 299.995L192.693 302.593C191.466 303.334 190.249 303.869 189.042 304.199C187.813 304.527 186.535 304.659 185.211 304.594C182.813 304.476 180.96 303.744 179.653 302.397C178.321 301.072 177.713 299.245 177.828 296.916L178.157 290.235C178.178 289.801 178.125 289.49 177.997 289.3C177.846 289.11 177.588 288.994 177.224 288.953L177.372 285.938C177.718 285.887 178.029 285.856 178.304 285.847C178.579 285.837 178.808 285.837 178.991 285.846C179.79 285.886 180.386 286.11 180.778 286.518C181.17 286.927 181.387 287.395 181.43 287.924L181.482 288.957C182.308 287.99 183.34 287.262 184.577 286.774C185.815 286.285 187.05 286.071 188.283 286.132C189.471 286.191 190.521 286.483 191.434 287.008C192.346 287.557 193.043 288.267 193.527 289.138C194.011 290.009 194.227 290.969 194.175 292.02ZM182.821 290.362C182.532 290.645 182.3 290.932 182.126 291.221C181.952 291.51 181.859 291.768 181.847 291.997L181.746 294.052C182.373 294.335 183.038 294.551 183.74 294.7C184.442 294.872 185.135 294.975 185.82 295.008C187.19 295.076 188.323 294.857 189.218 294.351C190.09 293.845 190.55 293.112 190.597 292.153C190.623 291.627 190.51 291.118 190.26 290.625C189.987 290.131 189.595 289.722 189.084 289.4C188.55 289.076 187.884 288.894 187.085 288.855C186.262 288.814 185.467 288.935 184.697 289.218C183.928 289.501 183.302 289.882 182.821 290.362Z" fill="white"/>
<path d="M156.728 282.542C157.078 282.469 157.509 282.406 158.02 282.352C158.531 282.298 159.102 282.284 159.734 282.309C160.344 282.329 160.959 282.421 161.577 282.585C162.329 282.784 162.99 283.101 163.561 283.536C164.132 283.971 164.54 284.528 164.786 285.208C165.003 285.905 164.989 286.717 164.744 287.645L161.872 298.488L164.16 299.094L163.414 301.912L161.126 301.306L159.616 307.009L155.968 306.043L157.479 300.34L153.699 299.339L154.445 296.521L158.225 297.522L160.789 287.84C160.903 287.231 160.832 286.74 160.576 286.364C160.299 285.983 159.906 285.726 159.398 285.591C158.889 285.456 158.379 285.416 157.868 285.47C157.357 285.524 156.977 285.577 156.726 285.629L156.728 282.542Z" fill="white"/>
<path d="M143.023 275.64C144.26 276.286 145.274 277.086 146.065 278.04C146.826 279.005 147.375 280.052 147.713 281.183C148.041 282.335 148.154 283.503 148.051 284.687C147.918 285.882 147.56 287.036 146.979 288.151C146.196 289.651 145.137 290.84 143.802 291.717C142.457 292.614 140.97 293.115 139.342 293.219C137.704 293.344 136.053 292.973 134.391 292.105C132.729 291.238 131.501 290.107 130.707 288.712C129.882 287.327 129.458 285.842 129.434 284.256C129.41 282.671 129.769 281.168 130.509 279.749C130.636 279.506 130.768 279.278 130.905 279.066C131.031 278.874 131.141 278.712 131.236 278.58L143.976 285.23C144.402 284.266 144.577 283.313 144.502 282.37C144.395 281.438 144.093 280.584 143.595 279.808C143.086 279.052 142.427 278.463 141.616 278.04C140.724 277.574 139.766 277.358 138.743 277.392C137.699 277.414 136.845 277.717 136.18 278.298L133.751 275.985C134.497 275.395 135.389 274.971 136.427 274.713C137.434 274.464 138.508 274.406 139.652 274.538C140.784 274.691 141.908 275.058 143.023 275.64ZM142.909 287.497L133.3 282.482C132.885 283.426 132.731 284.365 132.837 285.297C132.913 286.24 133.205 287.088 133.713 287.844C134.191 288.609 134.855 289.214 135.707 289.658C136.538 290.092 137.414 290.291 138.335 290.256C139.226 290.231 140.079 289.98 140.895 289.503C141.701 289.046 142.372 288.378 142.909 287.497Z" fill="white"/>
<path d="M111.161 251.567C112.144 252.713 112.892 253.954 113.406 255.29C113.903 256.642 114.091 258.002 113.97 259.371L111.128 259.957C111.152 258.58 110.985 257.368 110.628 256.319C110.255 255.252 109.734 254.329 109.064 253.548C108.379 252.749 107.673 252.225 106.946 251.975C106.202 251.74 105.535 251.876 104.945 252.382C104.511 252.754 104.301 253.16 104.317 253.599C104.332 254.038 104.477 254.576 104.753 255.213C105.013 255.833 105.346 256.572 105.751 257.43C106.29 258.655 106.686 259.731 106.939 260.659C107.176 261.601 107.201 262.438 107.015 263.17C106.83 263.901 106.372 264.58 105.644 265.205C104.759 265.965 103.81 266.387 102.798 266.472C101.786 266.557 100.773 266.342 99.7583 265.826C98.7287 265.294 97.7597 264.498 96.8514 263.439C96.0026 262.45 95.377 261.405 94.9746 260.304C94.54 259.201 94.3682 258.052 94.4593 256.859L97.4094 256.452C97.3752 257.536 97.5035 258.511 97.7942 259.376C98.0699 260.224 98.5205 261.013 99.1459 261.742C99.5033 262.158 99.8979 262.513 100.33 262.805C100.744 263.112 101.193 263.285 101.677 263.321C102.128 263.356 102.579 263.18 103.031 262.792C103.395 262.48 103.601 262.122 103.648 261.721C103.694 261.319 103.617 260.843 103.416 260.292C103.215 259.742 102.949 259.081 102.619 258.31C102.023 256.983 101.561 255.813 101.233 254.798C100.888 253.799 100.787 252.891 100.93 252.075C101.041 251.257 101.513 250.49 102.346 249.775C103.665 248.644 105.122 248.252 106.717 248.601C108.28 248.947 109.761 249.936 111.161 251.567Z" fill="white"/>
<path d="M96.2875 230.116C96.9026 231.393 97.2369 232.641 97.2904 233.858C97.3233 235.086 97.1269 236.259 96.7012 237.378C96.2655 238.476 95.6475 239.459 94.8471 240.327C94.0261 241.204 93.049 241.916 91.9159 242.462C90.7828 243.007 89.6172 243.327 88.4192 243.422C87.2212 243.517 86.0674 243.387 84.9579 243.033C83.8178 242.669 82.7884 242.086 81.8696 241.284C80.9203 240.473 80.143 239.438 79.5378 238.182C78.9326 236.925 78.6136 235.683 78.5807 234.455C78.5173 233.216 78.7034 232.048 79.1391 230.95C79.5442 229.841 80.1572 228.848 80.9782 227.97C81.7992 227.093 82.7763 226.381 83.9094 225.836C85.0426 225.29 86.2081 224.97 87.4061 224.875C88.5836 224.79 89.7423 224.93 90.8823 225.295C92.0125 225.639 93.0522 226.217 94.0015 227.029C94.9203 227.83 95.6823 228.859 96.2875 230.116ZM90.2651 238.955C91.2953 238.459 92.1182 237.796 92.7339 236.966C93.3497 236.137 93.7208 235.247 93.8475 234.298C93.9741 233.349 93.8191 232.421 93.3826 231.515C92.9559 230.629 92.3321 229.939 91.511 229.446C90.6594 228.943 89.7173 228.673 88.6849 228.637C87.6319 228.611 86.6006 228.842 85.5911 229.328C84.561 229.824 83.738 230.487 83.1223 231.316C82.5066 232.146 82.1403 233.045 82.0237 234.015C81.8764 234.974 82.0161 235.897 82.4428 236.783C82.8793 237.689 83.5184 238.384 84.3601 238.867C85.2018 239.35 86.1389 239.609 87.1713 239.645C88.1832 239.691 89.2144 239.461 90.2651 238.955Z" fill="white"/>
<path d="M80.6224 211.327L69.7859 213.072L69.1862 209.347L79.2776 207.722C80.8579 207.467 82.009 206.992 82.7308 206.297C83.4265 205.583 83.6852 204.673 83.5071 203.567C83.3944 202.867 83.1386 202.213 82.7397 201.606C82.3372 200.976 81.8101 200.435 81.1584 199.984C80.4806 199.514 79.708 199.175 78.8408 198.968L67.8012 200.745L67.2014 197.02L80.713 194.845C81.142 194.776 81.434 194.647 81.5892 194.46C81.7444 194.273 81.8041 193.997 81.7686 193.632L84.7486 193.153C84.8781 193.525 84.9741 193.834 85.0367 194.079C85.0993 194.324 85.1487 194.559 85.1851 194.785C85.2941 195.462 85.2044 196.055 84.9159 196.565C84.6048 197.078 84.1612 197.416 83.5852 197.578L81.8351 197.93C83.2492 198.513 84.3966 199.382 85.2775 200.537C86.1358 201.696 86.6867 203.031 86.9302 204.544C87.2283 206.395 86.8441 207.893 85.7777 209.038C84.7113 210.182 82.9928 210.945 80.6224 211.327Z" fill="white"/>
<path d="M70.2421 169.884C70.1707 171.346 70.4177 172.668 70.9831 173.85C71.5499 175.009 72.3997 175.866 73.5326 176.42L84.4859 177.127L84.2431 180.892L66.3413 179.737L66.5665 176.246L70.5713 176.504C69.3788 175.809 68.4498 174.935 67.7843 173.884C67.096 172.832 66.7537 171.744 66.7574 170.621C66.7721 170.393 66.7838 170.211 66.7927 170.074C66.803 169.914 66.8232 169.778 66.8534 169.665L70.2421 169.884Z" fill="white"/>
<path d="M88.1303 155.787C87.747 157.128 87.1673 158.283 86.3914 159.25C85.5997 160.189 84.673 160.935 83.6113 161.488C82.5496 162.04 81.4172 162.383 80.2142 162.514C79.0175 162.624 77.8145 162.506 76.6053 162.161C74.9783 161.695 73.598 160.908 72.4642 159.8C71.3367 158.669 70.5548 157.327 70.1184 155.776C69.6883 154.202 69.734 152.503 70.2556 150.678C70.7584 148.919 71.5909 147.504 72.7532 146.433C73.8998 145.334 75.2097 144.662 76.6828 144.417L76.7954 148.266C75.9568 148.455 75.2359 148.855 74.6327 149.468C74.0139 150.052 73.5819 150.773 73.3368 151.63C73.0603 152.597 73.0617 153.549 73.3412 154.485C73.6049 155.393 74.1105 156.203 74.858 156.916C75.5897 157.601 76.5273 158.107 77.6705 158.434C78.7698 158.748 79.8362 158.803 80.8696 158.599C81.881 158.389 82.7605 157.974 83.5082 157.356C84.2401 156.709 84.7443 155.902 85.0209 154.934C85.1905 154.341 85.255 153.741 85.2142 153.134C85.1578 152.5 85.0134 151.924 84.781 151.405C84.5266 150.881 84.2047 150.468 83.8153 150.166L85.8887 146.906C86.6394 147.525 87.2376 148.302 87.6835 149.238C88.1357 150.152 88.4151 151.172 88.5218 152.296C88.6127 153.392 88.4823 154.556 88.1303 155.787Z" fill="white"/>
<path d="M94.1556 138.186L78.1213 130.142L79.8131 126.77L95.8474 134.814L94.1556 138.186ZM75.4846 128.82L71.775 126.959L73.4668 123.586L77.1765 125.447L75.4846 128.82Z" fill="white"/>
<path d="M109.219 114.706L106.911 117.69L98.9622 111.54C97.642 110.518 96.5065 109.987 95.5558 109.945C94.6191 109.885 93.8288 110.271 93.1851 111.103C92.7373 111.682 92.4342 112.373 92.2758 113.175C92.1314 113.96 92.1374 114.774 92.294 115.618C92.4324 116.448 92.7502 117.214 93.2474 117.917L101.684 124.445L99.3751 127.429L85.1874 116.451L87.2864 113.738L90.1348 115.942C89.7817 115.091 89.603 114.201 89.5986 113.272C89.5902 112.312 89.7463 111.363 90.0668 110.425C90.3874 109.488 90.8695 108.603 91.5132 107.771C92.1709 106.921 92.8633 106.344 93.5906 106.039C94.3318 105.716 95.0927 105.611 95.8731 105.724C96.6495 105.804 97.4323 106.063 98.2215 106.5C99.0067 106.905 99.7881 107.409 100.566 108.01L109.219 114.706Z" fill="white"/>
<path d="M124.05 100.728C123.066 101.436 122.026 101.888 120.929 102.086C119.818 102.265 118.719 102.224 117.631 101.964C116.561 101.691 115.539 101.229 114.564 100.578C113.608 99.9142 112.776 99.0901 112.068 98.1062C111.321 97.0665 110.787 95.9717 110.467 94.8217C110.147 93.6717 110.037 92.5396 110.137 91.4255C110.243 90.2795 110.564 89.2178 111.1 88.2406C111.637 87.2634 112.406 86.4143 113.409 85.6934C114.579 84.8524 115.8 84.3967 117.073 84.3263C118.365 84.2425 119.619 84.4392 120.835 84.9166L118.852 82.1596L121.554 80.2173L131.726 94.3642C132.74 95.7752 133.258 97.2197 133.279 98.6976C133.318 100.162 132.939 101.575 132.144 102.936C131.348 104.297 130.216 105.504 128.75 106.559C127.134 107.72 125.598 108.403 124.139 108.607C122.68 108.811 121.232 108.697 119.796 108.266L120.361 105.409C121.478 105.788 122.62 105.868 123.787 105.649C124.971 105.417 126.065 104.94 127.068 104.22C127.903 103.619 128.56 102.907 129.039 102.084C129.549 101.266 129.784 100.379 129.744 99.4224C129.717 98.4841 129.357 97.5323 128.663 96.5669L127.061 94.339C127.168 95.5854 126.947 96.7862 126.398 97.9416C125.835 99.0784 125.053 100.007 124.05 100.728ZM123.271 97.5288C123.735 97.195 124.127 96.8004 124.447 96.3448C124.754 95.8707 124.99 95.3769 125.156 94.8633C125.327 94.3179 125.423 93.7846 125.442 93.2635C125.449 92.7239 125.367 92.2191 125.198 91.7491L122.455 87.9339C121.76 87.4762 121.023 87.1755 120.243 87.0317C119.451 86.8694 118.682 86.8585 117.939 86.999C117.195 87.1396 116.535 87.4168 115.959 87.8306C115.291 88.3112 114.795 88.8936 114.47 89.5778C114.15 90.23 113.978 90.931 113.954 91.6807C113.916 92.4118 114.009 93.1478 114.232 93.8888C114.455 94.6297 114.793 95.3158 115.247 95.947C115.728 96.6154 116.286 97.1573 116.923 97.5726C117.578 97.9746 118.277 98.2608 119.019 98.4313C119.748 98.5832 120.484 98.5888 121.228 98.4483C121.959 98.2891 122.639 97.9826 123.271 97.5288Z" fill="white"/>
<path d="M153.719 75.914L152.888 72.6215L162.832 70.1122L163.663 73.4047L153.719 75.914Z" fill="white"/>
<circle cx="189" cy="182" r="83" fill="#E5D0FF"/>
<path d="M162.955 188.84C162.955 191.56 162.275 194.04 160.915 196.28C159.595 198.52 157.755 200.3 155.395 201.62C153.075 202.94 150.475 203.6 147.595 203.6C144.475 203.6 141.735 202.86 139.375 201.38C137.055 199.86 135.235 197.68 133.915 194.84C132.635 192 131.995 188.62 131.995 184.7C131.995 179.26 132.655 174.72 133.975 171.08C135.335 167.44 137.235 164.7 139.675 162.86C142.115 161.02 144.975 160.1 148.255 160.1C150.975 160.1 153.455 160.74 155.695 162.02C157.975 163.26 159.815 165 161.215 167.24L157.315 171.32C156.395 169.64 155.115 168.32 153.475 167.36C151.875 166.36 150.095 165.86 148.135 165.86C146.175 165.86 144.435 166.44 142.915 167.6C141.435 168.72 140.275 170.36 139.435 172.52C138.635 174.68 138.215 177.3 138.175 180.38C138.775 179.18 139.555 178.16 140.515 177.32C141.515 176.44 142.675 175.76 143.995 175.28C145.315 174.8 146.715 174.56 148.195 174.56C150.995 174.56 153.495 175.2 155.695 176.48C157.935 177.76 159.695 179.48 160.975 181.64C162.295 183.76 162.955 186.16 162.955 188.84ZM147.595 197.96C149.235 197.96 150.735 197.56 152.095 196.76C153.495 195.92 154.595 194.8 155.395 193.4C156.235 192 156.655 190.48 156.655 188.84C156.655 187.2 156.235 185.7 155.395 184.34C154.595 182.98 153.515 181.9 152.155 181.1C150.795 180.26 149.275 179.84 147.595 179.84C145.995 179.84 144.495 180.26 143.095 181.1C141.695 181.9 140.575 182.98 139.735 184.34C138.935 185.7 138.535 187.2 138.535 188.84C138.535 190.48 138.955 192 139.795 193.4C140.635 194.76 141.735 195.86 143.095 196.7C144.495 197.54 145.995 197.96 147.595 197.96ZM199.341 185.42C199.341 188.94 198.661 192.08 197.301 194.84C195.981 197.56 194.161 199.7 191.841 201.26C189.561 202.82 186.941 203.6 183.981 203.6C181.061 203.6 178.441 202.82 176.121 201.26C173.801 199.7 171.961 197.56 170.601 194.84C169.281 192.08 168.621 188.94 168.621 185.42C168.621 181.9 169.281 178.78 170.601 176.06C171.961 173.3 173.801 171.14 176.121 169.58C178.441 167.98 181.061 167.18 183.981 167.18C186.941 167.18 189.561 167.98 191.841 169.58C194.161 171.14 195.981 173.3 197.301 176.06C198.661 178.78 199.341 181.9 199.341 185.42ZM192.621 185.42C192.621 183.02 192.261 180.92 191.541 179.12C190.821 177.28 189.801 175.86 188.481 174.86C187.161 173.82 185.661 173.3 183.981 173.3C182.261 173.3 180.741 173.82 179.421 174.86C178.101 175.86 177.061 177.28 176.301 179.12C175.581 180.92 175.221 183.02 175.221 185.42C175.221 187.82 175.581 189.92 176.301 191.72C177.061 193.52 178.101 194.94 179.421 195.98C180.741 196.98 182.261 197.48 183.981 197.48C185.661 197.48 187.141 196.98 188.421 195.98C189.741 194.94 190.761 193.52 191.481 191.72C192.241 189.92 192.621 187.82 192.621 185.42ZM214.176 177.62C212.416 177.62 210.796 177.22 209.316 176.42C207.876 175.62 206.716 174.56 205.836 173.24C204.996 171.88 204.576 170.38 204.576 168.74C204.576 167.06 204.996 165.56 205.836 164.24C206.716 162.88 207.876 161.8 209.316 161C210.796 160.2 212.416 159.8 214.176 159.8C215.936 159.8 217.536 160.2 218.976 161C220.416 161.8 221.556 162.88 222.396 164.24C223.236 165.56 223.656 167.04 223.656 168.68C223.656 170.32 223.236 171.82 222.396 173.18C221.556 174.54 220.416 175.62 218.976 176.42C217.536 177.22 215.936 177.62 214.176 177.62ZM214.116 174.2C215.036 174.2 215.856 173.96 216.576 173.48C217.336 172.96 217.916 172.28 218.316 171.44C218.756 170.6 218.976 169.7 218.976 168.74C218.976 167.7 218.756 166.76 218.316 165.92C217.876 165.08 217.276 164.42 216.516 163.94C215.796 163.46 215.016 163.22 214.176 163.22C213.256 163.22 212.416 163.48 211.656 164C210.936 164.48 210.356 165.14 209.916 165.98C209.476 166.82 209.256 167.72 209.256 168.68C209.256 169.72 209.476 170.66 209.916 171.5C210.396 172.3 210.996 172.96 211.716 173.48C212.476 173.96 213.276 174.2 214.116 174.2ZM236.196 203.6C234.436 203.6 232.836 203.2 231.396 202.4C229.956 201.6 228.796 200.52 227.916 199.16C227.076 197.8 226.656 196.3 226.656 194.66C226.656 193.02 227.076 191.54 227.916 190.22C228.796 188.86 229.956 187.78 231.396 186.98C232.836 186.18 234.436 185.78 236.196 185.78C237.996 185.78 239.616 186.18 241.056 186.98C242.496 187.74 243.636 188.8 244.476 190.16C245.316 191.52 245.736 193.02 245.736 194.66C245.736 196.3 245.316 197.8 244.476 199.16C243.636 200.52 242.496 201.6 241.056 202.4C239.616 203.2 237.996 203.6 236.196 203.6ZM236.196 200.18C237.116 200.18 237.936 199.92 238.656 199.4C239.416 198.88 239.996 198.22 240.396 197.42C240.836 196.58 241.056 195.68 241.056 194.72C241.056 193.68 240.836 192.74 240.396 191.9C239.956 191.06 239.356 190.4 238.596 189.92C237.876 189.44 237.076 189.2 236.196 189.2C235.316 189.2 234.496 189.46 233.736 189.98C233.016 190.46 232.436 191.12 231.996 191.96C231.556 192.8 231.336 193.7 231.336 194.66C231.336 195.66 231.556 196.58 231.996 197.42C232.476 198.26 233.076 198.94 233.796 199.46C234.516 199.94 235.316 200.18 236.196 200.18ZM207.276 200.6L224.136 180.62L239.976 160.04L243.096 162.74L226.536 182.48L210.336 203.36L207.276 200.6Z" fill="white"/>
<circle cx="402" cy="404" r="119" fill="url(#paint1_linear_2979_86)"/>
<circle cx="402" cy="404" r="83" fill="#E5D0FF"/>
<path d="M344.212 405.5C344.212 402.78 344.892 400.3 346.252 398.06C347.612 395.82 349.452 394.04 351.772 392.72C354.132 391.4 356.752 390.74 359.632 390.74C362.752 390.74 365.472 391.5 367.792 393.02C370.112 394.5 371.912 396.66 373.192 399.5C374.512 402.3 375.172 405.68 375.172 409.64C375.172 415.08 374.492 419.62 373.132 423.26C371.812 426.9 369.932 429.64 367.492 431.48C365.052 433.32 362.192 434.24 358.912 434.24C356.232 434.24 353.752 433.6 351.472 432.32C349.192 431.08 347.352 429.34 345.952 427.1L349.852 423.02C350.772 424.66 352.052 425.98 353.692 426.98C355.332 427.98 357.112 428.48 359.032 428.48C361.032 428.48 362.772 427.9 364.252 426.74C365.732 425.62 366.872 423.98 367.672 421.82C368.512 419.66 368.952 417.04 368.992 413.96C368.432 415.12 367.652 416.14 366.652 417.02C365.652 417.9 364.492 418.58 363.172 419.06C361.892 419.54 360.492 419.78 358.972 419.78C356.212 419.78 353.712 419.14 351.472 417.86C349.232 416.58 347.452 414.88 346.132 412.76C344.852 410.6 344.212 408.18 344.212 405.5ZM359.572 396.38C357.932 396.38 356.412 396.8 355.012 397.64C353.652 398.44 352.552 399.54 351.712 400.94C350.912 402.3 350.512 403.82 350.512 405.5C350.512 407.14 350.912 408.64 351.712 410C352.552 411.36 353.652 412.46 355.012 413.3C356.412 414.1 357.932 414.5 359.572 414.5C361.252 414.5 362.772 414.1 364.132 413.3C365.492 412.46 366.572 411.36 367.372 410C368.212 408.64 368.632 407.14 368.632 405.5C368.632 403.86 368.212 402.34 367.372 400.94C366.532 399.54 365.432 398.44 364.072 397.64C362.712 396.8 361.212 396.38 359.572 396.38ZM411.284 407.42C411.284 410.94 410.604 414.08 409.244 416.84C407.924 419.56 406.104 421.7 403.784 423.26C401.504 424.82 398.884 425.6 395.924 425.6C393.004 425.6 390.384 424.82 388.064 423.26C385.744 421.7 383.904 419.56 382.544 416.84C381.224 414.08 380.564 410.94 380.564 407.42C380.564 403.9 381.224 400.78 382.544 398.06C383.904 395.3 385.744 393.14 388.064 391.58C390.384 389.98 393.004 389.18 395.924 389.18C398.884 389.18 401.504 389.98 403.784 391.58C406.104 393.14 407.924 395.3 409.244 398.06C410.604 400.78 411.284 403.9 411.284 407.42ZM404.564 407.42C404.564 405.02 404.204 402.92 403.484 401.12C402.764 399.28 401.744 397.86 400.424 396.86C399.104 395.82 397.604 395.3 395.924 395.3C394.204 395.3 392.684 395.82 391.364 396.86C390.044 397.86 389.004 399.28 388.244 401.12C387.524 402.92 387.164 405.02 387.164 407.42C387.164 409.82 387.524 411.92 388.244 413.72C389.004 415.52 390.044 416.94 391.364 417.98C392.684 418.98 394.204 419.48 395.924 419.48C397.604 419.48 399.084 418.98 400.364 417.98C401.684 416.94 402.704 415.52 403.424 413.72C404.184 411.92 404.564 409.82 404.564 407.42ZM426.119 399.62C424.359 399.62 422.739 399.22 421.259 398.42C419.819 397.62 418.659 396.56 417.779 395.24C416.939 393.88 416.519 392.38 416.519 390.74C416.519 389.06 416.939 387.56 417.779 386.24C418.659 384.88 419.819 383.8 421.259 383C422.739 382.2 424.359 381.8 426.119 381.8C427.879 381.8 429.479 382.2 430.919 383C432.359 383.8 433.499 384.88 434.339 386.24C435.179 387.56 435.599 389.04 435.599 390.68C435.599 392.32 435.179 393.82 434.339 395.18C433.499 396.54 432.359 397.62 430.919 398.42C429.479 399.22 427.879 399.62 426.119 399.62ZM426.059 396.2C426.979 396.2 427.799 395.96 428.519 395.48C429.279 394.96 429.859 394.28 430.259 393.44C430.699 392.6 430.919 391.7 430.919 390.74C430.919 389.7 430.699 388.76 430.259 387.92C429.819 387.08 429.219 386.42 428.459 385.94C427.739 385.46 426.959 385.22 426.119 385.22C425.199 385.22 424.359 385.48 423.599 386C422.879 386.48 422.299 387.14 421.859 387.98C421.419 388.82 421.199 389.72 421.199 390.68C421.199 391.72 421.419 392.66 421.859 393.5C422.339 394.3 422.939 394.96 423.659 395.48C424.419 395.96 425.219 396.2 426.059 396.2ZM448.139 425.6C446.379 425.6 444.779 425.2 443.339 424.4C441.899 423.6 440.739 422.52 439.859 421.16C439.019 419.8 438.599 418.3 438.599 416.66C438.599 415.02 439.019 413.54 439.859 412.22C440.739 410.86 441.899 409.78 443.339 408.98C444.779 408.18 446.379 407.78 448.139 407.78C449.939 407.78 451.559 408.18 452.999 408.98C454.439 409.74 455.579 410.8 456.419 412.16C457.259 413.52 457.679 415.02 457.679 416.66C457.679 418.3 457.259 419.8 456.419 421.16C455.579 422.52 454.439 423.6 452.999 424.4C451.559 425.2 449.939 425.6 448.139 425.6ZM448.139 422.18C449.059 422.18 449.879 421.92 450.599 421.4C451.359 420.88 451.939 420.22 452.339 419.42C452.779 418.58 452.999 417.68 452.999 416.72C452.999 415.68 452.779 414.74 452.339 413.9C451.899 413.06 451.299 412.4 450.539 411.92C449.819 411.44 449.019 411.2 448.139 411.2C447.259 411.2 446.439 411.46 445.679 411.98C444.959 412.46 444.379 413.12 443.939 413.96C443.499 414.8 443.279 415.7 443.279 416.66C443.279 417.66 443.499 418.58 443.939 419.42C444.419 420.26 445.019 420.94 445.739 421.46C446.459 421.94 447.259 422.18 448.139 422.18ZM419.219 422.6L436.079 402.62L451.919 382.04L455.039 384.74L438.479 404.48L422.279 425.36L419.219 422.6Z" fill="white"/>
<path d="M411.228 293.521L413.725 293.798L418.375 311.242L415.595 310.934L414.332 306.193L407.877 305.478L405.631 309.831L402.828 309.521L411.228 293.521ZM414.03 304.18L412.155 296.557L408.565 303.575L414.03 304.18Z" fill="white"/>
<path d="M429.92 314.505C429.002 314.209 428.219 313.781 427.569 313.223C426.939 312.654 426.446 311.997 426.089 311.251C425.732 310.505 425.522 309.715 425.459 308.881C425.412 308.052 425.521 307.224 425.788 306.397C426.148 305.284 426.723 304.35 427.516 303.593C428.323 302.84 429.268 302.332 430.349 302.067C431.446 301.807 432.618 301.878 433.866 302.281C435.069 302.669 436.027 303.277 436.739 304.105C437.471 304.923 437.905 305.843 438.039 306.866L435.379 306.854C435.268 306.27 435.009 305.763 434.6 305.332C434.211 304.891 433.723 304.576 433.137 304.386C432.475 304.173 431.818 304.152 431.165 304.323C430.532 304.483 429.96 304.814 429.451 305.313C428.961 305.802 428.589 306.438 428.337 307.22C428.094 307.972 428.031 308.707 428.148 309.425C428.269 310.128 428.535 310.746 428.945 311.276C429.374 311.797 429.92 312.164 430.582 312.378C430.988 312.509 431.4 312.567 431.82 312.553C432.259 312.529 432.661 312.443 433.024 312.295C433.392 312.131 433.685 311.919 433.902 311.657L436.105 313.165C435.66 313.669 435.109 314.064 434.453 314.35C433.811 314.641 433.1 314.81 432.321 314.857C431.562 314.894 430.762 314.777 429.92 314.505Z" fill="white"/>
<path d="M445.629 321.062C444.781 320.604 444.089 320.04 443.552 319.373C443.036 318.699 442.671 317.962 442.456 317.163C442.242 316.365 442.179 315.55 442.27 314.718C442.374 313.895 442.633 313.101 443.047 312.336C443.603 311.308 444.34 310.494 445.257 309.894C446.188 309.302 447.209 308.974 448.321 308.911C449.447 308.856 450.587 309.14 451.74 309.764C452.852 310.365 453.683 311.138 454.232 312.082C454.803 313.019 455.061 314.003 455.006 315.033L452.392 314.536C452.39 313.942 452.228 313.396 451.904 312.897C451.602 312.393 451.181 311.994 450.639 311.701C450.027 311.37 449.385 311.229 448.712 311.278C448.06 311.321 447.438 311.541 446.845 311.939C446.274 312.331 445.793 312.888 445.402 313.61C445.026 314.305 444.83 315.017 444.814 315.744C444.805 316.458 444.953 317.113 445.259 317.71C445.587 318.3 446.056 318.761 446.668 319.091C447.043 319.294 447.438 319.427 447.853 319.49C448.29 319.547 448.7 319.535 449.084 319.455C449.476 319.362 449.803 319.206 450.064 318.989L451.955 320.874C451.425 321.288 450.812 321.575 450.114 321.737C449.43 321.906 448.7 321.942 447.926 321.847C447.173 321.745 446.407 321.483 445.629 321.062Z" fill="white"/>
<path d="M458.81 322.931L463.617 317.065L465.633 318.717L461.157 324.18C460.456 325.035 460.078 325.808 460.023 326.499C459.991 327.187 460.274 327.776 460.872 328.267C461.251 328.577 461.683 328.798 462.168 328.93C462.664 329.071 463.185 329.109 463.728 329.044C464.294 328.977 464.849 328.798 465.393 328.508L470.29 322.532L472.306 324.184L466.313 331.499C466.123 331.731 466.03 331.931 466.036 332.099C466.041 332.267 466.137 332.437 466.322 332.609L465 334.223C464.763 334.089 464.571 333.973 464.427 333.875C464.283 333.778 464.149 333.679 464.027 333.578C463.66 333.278 463.435 332.93 463.351 332.534C463.277 332.126 463.351 331.748 463.575 331.4L464.319 330.417C463.321 330.763 462.329 330.839 461.344 330.645C460.37 330.439 459.473 330 458.654 329.329C457.652 328.508 457.164 327.557 457.192 326.477C457.219 325.396 457.759 324.214 458.81 322.931Z" fill="white"/>
<path d="M481.89 337.294C481.205 336.549 480.435 336.029 479.579 335.734C478.734 335.45 477.9 335.452 477.078 335.74L471.415 340.785L469.681 338.839L478.936 330.594L480.544 332.398L478.474 334.243C479.394 333.994 480.275 333.961 481.115 334.144C481.966 334.316 482.668 334.675 483.218 335.222C483.323 335.34 483.407 335.434 483.47 335.505C483.544 335.587 483.601 335.664 483.642 335.733L481.89 337.294Z" fill="white"/>
<path d="M479.601 344.518C480.262 344.086 480.959 343.895 481.69 343.946C482.443 344.001 483.168 344.272 483.865 344.761C484.575 345.241 485.215 345.917 485.786 346.79C486.088 347.253 486.362 347.744 486.607 348.263C486.861 348.796 487.036 349.295 487.132 349.76L487.787 349.332C488.515 348.857 488.941 348.267 489.065 347.563C489.19 346.858 488.984 346.096 488.449 345.276C488.068 344.694 487.604 344.214 487.055 343.837C486.519 343.451 485.876 343.088 485.126 342.748L486.114 341.054C487.026 341.439 487.82 341.902 488.494 342.443C489.177 342.997 489.769 343.658 490.271 344.425C491.178 345.813 491.521 347.147 491.299 348.424C491.099 349.706 490.324 350.788 488.975 351.67L485.107 354.199C484.856 354.363 484.703 354.519 484.649 354.668C484.604 354.829 484.644 355.02 484.769 355.241L483.023 356.382C482.854 356.209 482.71 356.048 482.593 355.898C482.477 355.748 482.383 355.62 482.314 355.514C482.012 355.051 481.895 354.627 481.964 354.242C482.034 353.857 482.207 353.545 482.486 353.307L483.042 352.858C482.166 352.789 481.34 352.508 480.565 352.014C479.789 351.521 479.168 350.917 478.701 350.203C478.252 349.515 477.989 348.809 477.912 348.085C477.849 347.353 477.962 346.675 478.253 346.051C478.543 345.427 478.993 344.916 479.601 344.518ZM483.284 351.539C483.56 351.586 483.814 351.599 484.046 351.579C484.279 351.559 484.461 351.506 484.593 351.42L485.783 350.642C485.687 350.176 485.538 349.717 485.336 349.264C485.147 348.802 484.923 348.373 484.664 347.976C484.145 347.182 483.563 346.638 482.917 346.343C482.28 346.061 481.683 346.102 481.128 346.465C480.824 346.664 480.585 346.933 480.411 347.273C480.245 347.627 480.176 348.012 480.203 348.428C480.239 348.858 480.408 349.305 480.71 349.767C481.021 350.244 481.412 350.639 481.883 350.955C482.353 351.27 482.82 351.465 483.284 351.539Z" fill="white"/>
<path d="M488.059 367.096C487.687 366.207 487.501 365.335 487.501 364.478C487.523 363.629 487.7 362.827 488.034 362.07C488.368 361.313 488.831 360.64 489.423 360.049C490.021 359.473 490.721 359.017 491.522 358.681C492.6 358.229 493.685 358.058 494.775 358.166C495.872 358.289 496.873 358.675 497.778 359.323C498.69 359.986 499.399 360.922 499.906 362.132C500.395 363.297 500.557 364.42 500.393 365.5C500.249 366.588 499.833 367.516 499.144 368.284L497.421 366.257C497.792 365.793 498.008 365.266 498.068 364.675C498.15 364.093 498.071 363.517 497.833 362.949C497.565 362.308 497.153 361.795 496.598 361.411C496.063 361.035 495.441 360.817 494.73 360.755C494.039 360.701 493.315 360.834 492.557 361.151C491.829 361.456 491.23 361.887 490.76 362.444C490.306 362.994 490.011 363.597 489.875 364.254C489.759 364.919 489.836 365.572 490.105 366.213C490.269 366.607 490.494 366.958 490.778 367.268C491.082 367.585 491.409 367.834 491.758 368.013C492.122 368.186 492.474 368.27 492.814 368.264L493.104 370.918C492.432 370.909 491.773 370.748 491.129 370.435C490.49 370.138 489.899 369.709 489.356 369.148C488.833 368.596 488.401 367.912 488.059 367.096Z" fill="white"/>
<path d="M489.533 378.69C489.554 378.929 489.573 379.159 489.59 379.382C489.595 379.624 489.613 379.814 489.644 379.953C489.703 380.215 489.837 380.419 490.048 380.567C490.247 380.733 490.585 380.868 491.061 380.972C491.538 381.077 492.217 381.184 493.1 381.295L504.091 373.627L504.683 376.287L496 382.106L506.239 383.274L506.785 385.726L490.666 383.561C490.181 383.491 489.718 383.335 489.276 383.094C488.818 382.856 488.428 382.522 488.105 382.092C487.783 381.662 487.55 381.123 487.405 380.475C487.364 380.29 487.337 380.094 487.323 379.887C487.309 379.679 487.306 379.446 487.312 379.185L489.533 378.69Z" fill="white"/>
<path d="M495.807 401.21L508.201 401.061L508.232 403.668L495.838 403.817L495.807 401.21ZM510.239 401.036L513.106 401.002L513.138 403.609L510.27 403.643L510.239 401.036Z" fill="white"/>
<path d="M494.632 419.612L494.949 417.024L501.841 417.866C502.986 418.006 503.848 417.92 504.428 417.609C505.005 417.313 505.338 416.805 505.426 416.083C505.487 415.582 505.423 415.064 505.233 414.532C505.042 414.015 504.75 413.534 504.359 413.088C503.983 412.644 503.524 412.302 502.98 412.06L495.664 411.167L495.98 408.579L508.284 410.081L507.996 412.434L505.526 412.132C506.037 412.513 506.458 412.978 506.788 413.528C507.133 414.095 507.376 414.714 507.517 415.384C507.658 416.054 507.684 416.749 507.596 417.471C507.506 418.208 507.299 418.795 506.975 419.233C506.649 419.687 506.234 420.018 505.731 420.227C505.242 420.454 504.686 420.577 504.063 420.597C503.453 420.634 502.811 420.611 502.137 420.529L494.632 419.612Z" fill="white"/>
<path d="M499.253 437.345C500.19 437.764 501.032 438.339 501.779 439.07C502.54 439.808 503.146 440.658 503.598 441.621C504.059 442.606 504.299 443.656 504.32 444.773C504.355 445.896 504.111 447.041 503.59 448.21C502.971 449.595 502.119 450.651 501.033 451.377C499.962 452.11 498.826 452.503 497.626 452.555L497.2 450.081C497.949 450.069 498.604 449.92 499.164 449.634C499.718 449.362 500.183 448.999 500.559 448.544C500.929 448.104 501.223 447.638 501.442 447.148C501.803 446.34 501.953 445.559 501.892 444.804C501.845 444.057 501.648 443.355 501.301 442.698C500.947 442.056 500.487 441.478 499.92 440.965C499.347 440.467 498.728 440.07 498.065 439.773C497.329 439.445 496.56 439.249 495.758 439.185C494.97 439.127 494.213 439.196 493.486 439.39C492.767 439.605 492.121 439.948 491.547 440.419C490.973 440.89 490.526 441.486 490.204 442.207C489.985 442.698 489.842 443.248 489.777 443.86C489.712 444.471 489.76 445.08 489.921 445.689C490.09 446.318 490.419 446.898 490.909 447.428L488.864 448.928C488.241 448.269 487.814 447.482 487.583 446.565C487.345 445.663 487.276 444.733 487.376 443.774C487.469 442.829 487.696 441.953 488.056 441.145C488.54 440.063 489.205 439.174 490.051 438.479C490.912 437.791 491.863 437.29 492.903 436.975C493.957 436.668 495.034 436.543 496.133 436.601C497.246 436.665 498.286 436.913 499.253 437.345Z" fill="white"/>
<path d="M485.285 455.201C485.926 455.664 486.353 456.246 486.568 456.947C486.786 457.67 486.791 458.444 486.585 459.27C486.391 460.104 485.988 460.944 485.377 461.789C485.053 462.237 484.693 462.669 484.295 463.083C483.889 463.511 483.486 463.853 483.086 464.11L483.72 464.568C484.424 465.077 485.127 465.264 485.829 465.128C486.532 464.993 487.17 464.528 487.744 463.734C488.151 463.171 488.433 462.565 488.589 461.918C488.758 461.279 488.867 460.549 488.916 459.726L490.851 460.043C490.817 461.033 490.669 461.94 490.405 462.763C490.132 463.599 489.728 464.388 489.191 465.131C488.219 466.475 487.097 467.272 485.824 467.522C484.555 467.794 483.268 467.458 481.962 466.514L478.216 463.807C477.973 463.631 477.772 463.544 477.614 463.547C477.447 463.562 477.283 463.668 477.122 463.864L475.432 462.642C475.532 462.422 475.632 462.231 475.73 462.068C475.828 461.905 475.915 461.772 475.989 461.67C476.313 461.221 476.667 460.961 477.051 460.888C477.435 460.815 477.789 460.865 478.111 461.04L478.729 461.399C478.48 460.556 478.447 459.684 478.631 458.784C478.814 457.883 479.155 457.087 479.655 456.395C480.137 455.729 480.702 455.231 481.35 454.901C482.011 454.579 482.685 454.442 483.372 454.49C484.058 454.538 484.696 454.775 485.285 455.201ZM480.047 461.153C480.102 461.427 480.181 461.669 480.283 461.879C480.384 462.089 480.499 462.24 480.627 462.332L481.78 463.166C482.18 462.909 482.555 462.605 482.906 462.254C483.27 461.913 483.591 461.55 483.868 461.166C484.424 460.398 484.724 459.659 484.768 458.951C484.803 458.255 484.552 457.712 484.014 457.324C483.72 457.111 483.382 456.984 483.002 456.943C482.613 456.915 482.229 456.988 481.85 457.163C481.461 457.35 481.105 457.667 480.781 458.115C480.447 458.576 480.218 459.083 480.092 459.635C479.965 460.187 479.95 460.693 480.047 461.153Z" fill="white"/>
<path d="M463.39 475.153L465.285 473.362L470.055 478.408C470.848 479.246 471.566 479.73 472.211 479.859C472.844 480 473.425 479.821 473.953 479.321C474.32 478.974 474.601 478.535 474.795 478.004C474.977 477.484 475.059 476.927 475.042 476.334C475.036 475.753 474.901 475.196 474.637 474.663L469.573 469.307L471.467 467.516L479.983 476.523L478.261 478.151L476.551 476.343C476.701 476.962 476.729 477.589 476.633 478.223C476.536 478.88 476.328 479.511 476.009 480.117C475.691 480.723 475.267 481.275 474.739 481.774C474.2 482.285 473.665 482.605 473.136 482.735C472.596 482.877 472.065 482.867 471.544 482.708C471.023 482.57 470.516 482.31 470.024 481.927C469.531 481.567 469.051 481.14 468.584 480.646L463.39 475.153Z" fill="white"/>
<path d="M461.786 484.694C462.412 485.7 462.779 486.738 462.886 487.806C462.988 488.897 462.834 489.905 462.424 490.83C462.022 491.769 461.358 492.527 460.433 493.103C459.628 493.604 458.774 493.847 457.871 493.832C456.955 493.825 456.124 493.626 455.378 493.235L459.211 499.391L456.998 500.769L449.407 488.577C449.248 488.322 449.088 488.17 448.928 488.121C448.767 488.072 448.575 488.108 448.352 488.228L447.25 486.458C447.624 486.132 447.925 485.898 448.153 485.756C448.569 485.497 448.999 485.397 449.445 485.454C449.877 485.52 450.204 485.717 450.426 486.044L450.935 486.816C450.92 485.895 451.137 485.033 451.587 484.232C452.046 483.444 452.644 482.82 453.382 482.361C454.106 481.91 454.864 481.633 455.657 481.531C456.436 481.437 457.212 481.503 457.985 481.728C458.745 481.962 459.457 482.329 460.121 482.827C460.772 483.334 461.327 483.957 461.786 484.694ZM452.422 488.487L454.138 491.243C454.552 491.58 455.032 491.812 455.576 491.939C456.115 492.087 456.655 492.132 457.196 492.075C457.724 492.025 458.189 491.875 458.591 491.625C459.061 491.333 459.427 490.965 459.691 490.521C459.941 490.086 460.103 489.614 460.176 489.103C460.235 488.601 460.205 488.089 460.085 487.568C459.966 487.047 459.76 486.551 459.467 486.082C459.167 485.599 458.802 485.193 458.374 484.864C457.954 484.549 457.492 484.315 456.989 484.163C456.48 484.034 455.972 483.996 455.466 484.05C454.955 484.126 454.465 484.311 453.996 484.603C453.701 484.787 453.439 485.024 453.211 485.315C452.969 485.614 452.773 485.941 452.621 486.296C452.457 486.659 452.36 487.027 452.33 487.399C452.288 487.779 452.318 488.141 452.422 488.487Z" fill="white"/>
<path d="M441.273 489.359L446.282 500.697L443.897 501.751L438.888 490.413L441.273 489.359ZM447.105 502.562L448.264 505.185L445.88 506.238L444.721 503.615L447.105 502.562Z" fill="white"/>
<path d="M437.096 498.162C437.418 499.303 437.481 500.401 437.287 501.458C437.081 502.533 436.653 503.459 436.002 504.234C435.354 505.024 434.506 505.567 433.457 505.863C432.544 506.12 431.657 506.116 430.794 505.85C429.916 505.589 429.173 505.167 428.565 504.583L430.534 511.563L428.025 512.271L424.125 498.448C424.044 498.159 423.933 497.969 423.792 497.877C423.651 497.786 423.457 497.766 423.209 497.82L422.643 495.813C423.093 495.604 423.447 495.463 423.706 495.39C424.177 495.257 424.619 495.28 425.031 495.459C425.427 495.643 425.687 495.923 425.809 496.299L426.083 497.182C426.325 496.293 426.773 495.526 427.429 494.881C428.088 494.252 428.836 493.819 429.673 493.583C430.494 493.352 431.299 493.297 432.089 493.419C432.863 493.545 433.59 493.824 434.27 494.256C434.935 494.693 435.517 495.242 436.016 495.906C436.5 496.574 436.86 497.326 437.096 498.162ZM427.046 499.2L427.928 502.325C428.232 502.764 428.628 503.121 429.116 503.393C429.592 503.686 430.098 503.88 430.634 503.975C431.155 504.074 431.643 504.059 432.099 503.931C432.631 503.781 433.086 503.529 433.463 503.177C433.824 502.829 434.111 502.419 434.323 501.949C434.52 501.483 434.633 500.983 434.663 500.449C434.693 499.916 434.633 499.383 434.483 498.85C434.328 498.303 434.091 497.812 433.772 497.377C433.456 496.957 433.078 496.604 432.636 496.318C432.183 496.052 431.706 495.874 431.205 495.786C430.693 495.717 430.171 495.757 429.639 495.908C429.304 496.002 428.987 496.157 428.687 496.373C428.371 496.594 428.091 496.853 427.847 497.152C427.588 497.455 427.393 497.781 427.261 498.13C427.115 498.483 427.043 498.84 427.046 499.2Z" fill="white"/>
<path d="M417.003 500.715C417.067 501.502 416.901 502.205 416.507 502.823C416.099 503.458 415.514 503.965 414.752 504.344C413.991 504.738 413.091 504.977 412.051 505.061C411.5 505.105 410.938 505.111 410.364 505.078C409.775 505.046 409.253 504.961 408.799 504.823L408.861 505.603C408.931 506.469 409.246 507.125 409.805 507.572C410.364 508.018 411.131 508.202 412.108 508.123C412.801 508.067 413.444 507.889 414.038 507.587C414.633 507.302 415.26 506.91 415.917 506.413L416.932 508.091C416.157 508.708 415.371 509.184 414.574 509.518C413.761 509.853 412.898 510.057 411.984 510.13C410.331 510.264 408.996 509.927 407.98 509.122C406.949 508.333 406.369 507.135 406.24 505.529L405.869 500.922C405.845 500.623 405.78 500.414 405.676 500.296C405.555 500.179 405.368 500.122 405.115 500.127L404.948 498.048C405.18 497.982 405.39 497.933 405.578 497.902C405.766 497.871 405.922 497.851 406.048 497.841C406.6 497.796 407.028 497.896 407.333 498.141C407.638 498.386 407.829 498.688 407.905 499.046L408.033 499.749C408.513 499.013 409.155 498.422 409.959 497.977C410.763 497.532 411.59 497.275 412.441 497.207C413.26 497.141 414.005 497.247 414.678 497.526C415.351 497.82 415.893 498.244 416.302 498.798C416.711 499.351 416.945 499.99 417.003 500.715ZM409.076 500.592C408.903 500.812 408.77 501.029 408.676 501.243C408.583 501.456 408.542 501.642 408.555 501.8L408.669 503.217C409.124 503.355 409.599 503.443 410.093 503.483C410.589 503.538 411.073 503.546 411.546 503.508C412.491 503.432 413.247 503.181 413.815 502.755C414.367 502.33 414.617 501.787 414.564 501.125C414.534 500.763 414.412 500.424 414.196 500.109C413.965 499.794 413.66 499.549 413.281 499.374C412.887 499.2 412.414 499.135 411.863 499.179C411.296 499.225 410.761 499.379 410.259 499.641C409.757 499.904 409.363 500.221 409.076 500.592Z" fill="white"/>
<path d="M391.987 498.197C392.215 498.101 392.499 498.001 392.838 497.896C393.177 497.791 393.563 497.705 393.995 497.638C394.411 497.569 394.839 497.55 395.281 497.578C395.817 497.613 396.307 497.739 396.753 497.958C397.198 498.176 397.549 498.5 397.806 498.928C398.047 499.371 398.146 499.924 398.103 500.586L397.605 508.32L399.237 508.425L399.108 510.435L397.476 510.33L397.214 514.398L394.612 514.231L394.874 510.163L392.178 509.989L392.308 507.979L395.004 508.152L395.448 501.246C395.444 500.818 395.331 500.494 395.107 500.274C394.868 500.053 394.567 499.931 394.205 499.907C393.842 499.884 393.491 499.925 393.152 500.03C392.813 500.134 392.562 500.221 392.399 500.29L391.987 498.197Z" fill="white"/>
<path d="M383.009 495.875C383.95 496.082 384.771 496.432 385.472 496.925C386.153 497.431 386.709 498.03 387.139 498.723C387.566 499.432 387.852 500.19 387.998 500.999C388.125 501.819 388.096 502.654 387.909 503.503C387.658 504.645 387.167 505.629 386.436 506.455C385.701 507.296 384.8 507.899 383.733 508.263C382.663 508.643 381.495 508.694 380.23 508.416C378.964 508.138 377.941 507.606 377.159 506.819C376.359 506.045 375.807 505.131 375.505 504.078C375.202 503.025 375.17 501.958 375.407 500.878C375.448 500.692 375.494 500.517 375.547 500.35C375.596 500.199 375.641 500.072 375.68 499.967L385.379 502.098C385.488 501.378 385.433 500.71 385.212 500.095C384.972 499.493 384.616 498.978 384.144 498.551C383.668 498.139 383.122 497.865 382.504 497.729C381.825 497.58 381.148 497.609 380.471 497.817C379.779 498.02 379.264 498.376 378.926 498.885L376.888 497.782C377.279 497.253 377.797 496.809 378.442 496.449C379.069 496.101 379.775 495.868 380.561 495.75C381.344 495.647 382.16 495.688 383.009 495.875ZM385.077 503.803L377.762 502.196C377.656 502.9 377.723 503.554 377.962 504.157C378.183 504.771 378.531 505.285 379.007 505.697C379.464 506.12 380.017 506.404 380.665 506.546C381.297 506.685 381.918 506.659 382.526 506.469C383.115 506.292 383.638 505.97 384.097 505.504C384.551 505.054 384.878 504.487 385.077 503.803Z" fill="white"/>
<path d="M360.949 494.643L359.882 496.732L353.57 493.51L354.637 491.421L360.949 494.643Z" fill="white"/>
<path d="M344.432 478.806L333.165 491.304L327.726 486.4C327.163 485.892 326.752 485.31 326.494 484.652C326.237 483.994 326.112 483.318 326.121 482.624C326.118 481.919 326.239 481.242 326.485 480.591C326.72 479.93 327.064 479.347 327.519 478.843C328.016 478.291 328.592 477.853 329.247 477.528C329.901 477.203 330.58 477.028 331.283 477.003C331.975 476.967 332.642 477.089 333.283 477.37L334.628 469.967L336.845 471.966L335.637 478.758L338.541 481.376L342.461 477.028L344.432 478.806ZM336.97 483.119L333.52 480.009C333.156 479.681 332.738 479.495 332.266 479.453C331.794 479.41 331.317 479.491 330.836 479.695C330.343 479.91 329.907 480.229 329.526 480.652C329.134 481.086 328.879 481.558 328.76 482.068C328.631 482.589 328.623 483.093 328.738 483.579C328.841 484.055 329.068 484.451 329.42 484.769L332.765 487.784L336.97 483.119Z" fill="white"/>
<path d="M327.092 460.637C327.671 461.427 328.056 462.233 328.246 463.053C328.423 463.883 328.438 464.705 328.29 465.519C328.132 466.32 327.836 467.065 327.402 467.756C326.955 468.456 326.381 469.062 325.68 469.576C324.979 470.09 324.228 470.454 323.426 470.67C322.624 470.885 321.824 470.943 321.026 470.842C320.205 470.738 319.432 470.472 318.707 470.044C317.96 469.612 317.301 469.008 316.731 468.23C316.162 467.453 315.788 466.649 315.611 465.819C315.411 464.986 315.39 464.169 315.548 463.368C315.683 462.564 315.974 461.812 316.421 461.112C316.868 460.412 317.442 459.805 318.143 459.292C318.844 458.778 319.596 458.413 320.397 458.198C321.187 457.992 321.991 457.94 322.812 458.044C323.623 458.136 324.402 458.397 325.15 458.829C325.875 459.257 326.523 459.86 327.092 460.637ZM324.116 467.402C324.754 466.935 325.229 466.381 325.543 465.74C325.856 465.098 325.996 464.447 325.962 463.787C325.929 463.126 325.706 462.515 325.295 461.954C324.894 461.406 324.383 461.017 323.763 460.785C323.121 460.551 322.447 460.486 321.741 460.592C321.022 460.708 320.351 460.994 319.726 461.452C319.089 461.919 318.614 462.473 318.3 463.114C317.986 463.755 317.851 464.413 317.894 465.086C317.915 465.756 318.127 466.365 318.528 466.913C318.939 467.474 319.461 467.866 320.094 468.087C320.726 468.309 321.396 468.367 322.102 468.261C322.795 468.165 323.466 467.878 324.116 467.402Z" fill="white"/>
<path d="M304.584 458.212L303.363 455.909L315.485 449.478C316.043 449.182 316.354 448.909 316.419 448.66C316.484 448.411 316.45 448.161 316.316 447.91C316.168 447.631 316.003 447.387 315.822 447.18C315.632 446.958 315.448 446.779 315.268 446.642L316.912 445.34C317.229 445.601 317.559 445.936 317.901 446.345C318.243 446.754 318.51 447.14 318.702 447.503C319.117 448.284 319.227 449.013 319.031 449.689C318.821 450.373 318.325 450.922 317.544 451.337L304.584 458.212Z" fill="white"/>
<path d="M313.999 436.905C314.324 437.812 314.463 438.694 314.417 439.549C314.35 440.395 314.137 441.185 313.778 441.917C313.405 442.655 312.914 443.3 312.306 443.853C311.678 444.397 310.955 444.815 310.137 445.107C309.036 445.501 307.941 445.607 306.853 445.426C305.75 445.25 304.761 444.807 303.886 444.096C302.996 443.391 302.333 442.428 301.896 441.209C301.46 439.989 301.367 438.839 301.619 437.759C301.85 436.669 302.331 435.717 303.063 434.901C303.795 434.086 304.682 433.492 305.723 433.119C305.902 433.055 306.076 433.002 306.245 432.958C306.399 432.92 306.53 432.889 306.64 432.867L309.984 442.217C310.653 441.928 311.189 441.526 311.592 441.013C311.976 440.49 312.223 439.914 312.334 439.287C312.431 438.666 312.373 438.057 312.16 437.462C311.926 436.807 311.541 436.249 311.006 435.785C310.466 435.307 309.891 435.06 309.281 435.043L309.133 432.73C309.789 432.781 310.441 432.984 311.088 433.34C311.715 433.686 312.288 434.161 312.806 434.764C313.309 435.373 313.707 436.087 313.999 436.905ZM308.379 442.867L305.857 435.815C305.203 436.099 304.685 436.503 304.301 437.026C303.898 437.539 303.648 438.107 303.551 438.729C303.435 439.341 303.488 439.96 303.712 440.584C303.93 441.194 304.281 441.706 304.765 442.121C305.228 442.525 305.779 442.798 306.417 442.939C307.04 443.086 307.694 443.062 308.379 442.867Z" fill="white"/>
<path d="M307.797 402.041L295.806 402.207L304.975 407.033L304.996 408.598L295.965 413.7L307.956 413.534L307.993 416.188L291.168 416.421L291.128 413.577L301.336 407.866L290.974 402.439L290.935 399.596L307.76 399.363L307.797 402.041Z" fill="white"/>
<path d="M304.999 389.526C304.228 389.352 303.606 388.985 303.133 388.425C302.648 387.846 302.339 387.136 302.204 386.296C302.054 385.453 302.094 384.522 302.323 383.505C302.444 382.965 302.606 382.427 302.808 381.889C303.014 381.337 303.25 380.863 303.517 380.47L302.754 380.298C301.906 380.107 301.186 380.212 300.594 380.613C300.001 381.014 299.597 381.692 299.382 382.648C299.229 383.326 299.208 383.994 299.32 384.65C299.415 385.303 299.602 386.018 299.881 386.793L297.978 387.263C297.619 386.34 297.399 385.448 297.317 384.588C297.239 383.712 297.301 382.827 297.502 381.933C297.867 380.314 298.585 379.14 299.657 378.41C300.716 377.661 302.032 377.463 303.604 377.817L308.113 378.833C308.406 378.899 308.624 378.9 308.768 378.835C308.916 378.755 309.025 378.594 309.096 378.35L311.131 378.809C311.125 379.05 311.109 379.265 311.083 379.454C311.056 379.642 311.029 379.798 311.002 379.922C310.88 380.461 310.657 380.84 310.332 381.058C310.008 381.277 309.663 381.369 309.298 381.335L308.589 381.249C309.149 381.925 309.522 382.714 309.708 383.614C309.894 384.515 309.893 385.381 309.705 386.213C309.525 387.015 309.201 387.695 308.735 388.254C308.254 388.81 307.688 389.2 307.038 389.426C306.388 389.652 305.708 389.685 304.999 389.526ZM307.474 381.993C307.315 381.763 307.148 381.572 306.972 381.419C306.796 381.265 306.63 381.172 306.476 381.137L305.089 380.824C304.822 381.218 304.597 381.645 304.412 382.105C304.212 382.562 304.059 383.022 303.955 383.484C303.747 384.409 303.762 385.206 304 385.875C304.241 386.529 304.685 386.928 305.333 387.074C305.687 387.154 306.047 387.138 306.413 387.026C306.781 386.899 307.106 386.68 307.386 386.371C307.67 386.046 307.873 385.614 307.994 385.074C308.119 384.52 308.131 383.963 308.03 383.406C307.929 382.849 307.743 382.378 307.474 381.993Z" fill="white"/>
<path d="M314.817 366.538C314.841 366.785 314.852 367.085 314.851 367.44C314.849 367.795 314.816 368.189 314.751 368.621C314.692 369.038 314.583 369.454 314.424 369.866C314.231 370.368 313.963 370.798 313.622 371.157C313.28 371.517 312.866 371.755 312.381 371.873C311.886 371.97 311.329 371.9 310.71 371.661L303.478 368.875L302.89 370.401L301.01 369.676L301.598 368.151L297.795 366.685L298.732 364.252L302.536 365.718L303.507 363.197L305.387 363.921L304.415 366.442L310.873 368.93C311.283 369.054 311.626 369.042 311.903 368.895C312.185 368.733 312.392 368.482 312.522 368.143C312.653 367.804 312.719 367.457 312.72 367.102C312.722 366.747 312.714 366.482 312.697 366.306L314.817 366.538Z" fill="white"/>
<path d="M319.743 358.645C319.268 359.484 318.692 360.166 318.015 360.69C317.331 361.193 316.588 361.544 315.785 361.744C314.983 361.943 314.167 361.99 313.337 361.884C312.515 361.764 311.726 361.49 310.97 361.063C309.952 360.487 309.152 359.735 308.57 358.807C307.996 357.865 307.687 356.837 307.645 355.724C307.611 354.598 307.916 353.463 308.562 352.322C309.184 351.222 309.972 350.406 310.926 349.874C311.874 349.322 312.863 349.082 313.892 349.156L313.345 351.76C312.751 351.751 312.202 351.903 311.698 352.217C311.188 352.509 310.781 352.924 310.478 353.46C310.135 354.065 309.982 354.705 310.019 355.379C310.049 356.031 310.258 356.657 310.644 357.257C311.025 357.836 311.573 358.327 312.288 358.731C312.976 359.12 313.683 359.33 314.411 359.36C315.124 359.382 315.782 359.246 316.384 358.951C316.981 358.635 317.45 358.175 317.792 357.569C318.002 357.198 318.142 356.806 318.213 356.392C318.278 355.956 318.274 355.546 318.202 355.16C318.116 354.766 317.966 354.437 317.753 354.171L319.674 352.317C320.078 352.854 320.354 353.473 320.502 354.174C320.658 354.861 320.681 355.591 320.571 356.364C320.454 357.115 320.178 357.875 319.743 358.645Z" fill="white"/>
<path d="M332.789 340.07L331.103 342.058L325.807 337.567C324.952 336.842 324.18 336.457 323.493 336.412C322.805 336.368 322.221 336.629 321.741 337.195C321.445 337.545 321.234 337.988 321.11 338.525C320.987 339.062 320.971 339.618 321.063 340.194C321.143 340.759 321.344 341.292 321.665 341.792L327.287 346.559L325.601 348.547L312.405 337.358L314.091 335.37L319.731 340.152C319.399 339.249 319.318 338.331 319.488 337.398C319.645 336.454 320.031 335.621 320.644 334.898C321.145 334.307 321.661 333.906 322.193 333.694C322.725 333.482 323.263 333.421 323.809 333.511C324.352 333.578 324.895 333.769 325.436 334.083C325.976 334.375 326.505 334.741 327.023 335.18L332.789 340.07Z" fill="white"/>
<path d="M337.643 335.302L329.335 326.103L331.27 324.356L339.577 333.555L337.643 335.302ZM327.969 324.591L326.047 322.462L327.982 320.715L329.904 322.843L327.969 324.591Z" fill="white"/>
<path d="M352.143 324.079L349.993 325.554L346.066 319.827C345.413 318.876 344.779 318.286 344.162 318.057C343.559 317.82 342.957 317.907 342.358 318.318C341.941 318.604 341.595 318.994 341.321 319.488C341.061 319.974 340.892 320.511 340.817 321.099C340.732 321.674 340.779 322.246 340.958 322.813L345.127 328.891L342.977 330.366L335.966 320.144L337.92 318.804L339.328 320.856C339.276 320.221 339.346 319.598 339.54 318.986C339.738 318.352 340.041 317.761 340.45 317.212C340.859 316.663 341.363 316.183 341.963 315.772C342.575 315.352 343.153 315.119 343.696 315.072C344.251 315.017 344.774 315.109 345.264 315.348C345.757 315.565 346.218 315.9 346.644 316.355C347.075 316.788 347.483 317.284 347.867 317.844L352.143 324.079Z" fill="white"/>
<path d="M362.928 318.489C362.157 318.815 361.387 318.961 360.617 318.926C359.841 318.877 359.107 318.681 358.414 318.339C357.735 317.992 357.117 317.524 356.56 316.936C356.017 316.342 355.582 315.66 355.256 314.888C354.912 314.073 354.72 313.254 354.68 312.43C354.641 311.606 354.74 310.827 354.978 310.091C355.225 309.335 355.603 308.669 356.114 308.093C356.626 307.516 357.274 307.062 358.06 306.73C358.977 306.342 359.869 306.222 360.738 306.37C361.621 306.511 362.436 306.836 363.182 307.343L362.269 305.182L364.386 304.287L369.074 315.376C369.542 316.482 369.67 317.535 369.457 318.534C369.259 319.527 368.788 320.421 368.044 321.216C367.299 322.011 366.352 322.651 365.202 323.137C363.936 323.673 362.796 323.897 361.782 323.811C360.768 323.725 359.81 323.427 358.908 322.917L359.726 321.078C360.421 321.505 361.178 321.734 361.997 321.765C362.831 321.79 363.641 321.636 364.427 321.304C365.082 321.027 365.633 320.648 366.082 320.167C366.551 319.694 366.845 319.132 366.965 318.481C367.09 317.845 366.993 317.148 366.673 316.392L365.935 314.645C365.816 315.501 365.484 316.277 364.937 316.971C364.384 317.651 363.714 318.157 362.928 318.489ZM362.893 316.214C363.257 316.06 363.581 315.855 363.867 315.597C364.146 315.324 364.381 315.028 364.571 314.707C364.77 314.366 364.916 314.021 365.009 313.673C365.096 313.31 365.118 312.958 365.077 312.615L363.812 309.624C363.414 309.21 362.963 308.894 362.46 308.678C361.951 308.447 361.435 308.322 360.912 308.303C360.389 308.284 359.902 308.37 359.451 308.56C358.927 308.782 358.504 309.098 358.18 309.51C357.865 309.9 357.642 310.346 357.511 310.848C357.373 311.334 357.323 311.845 357.36 312.378C357.397 312.911 357.52 313.425 357.729 313.92C357.95 314.444 358.244 314.895 358.609 315.272C358.989 315.643 359.416 315.943 359.89 316.171C360.358 316.385 360.853 316.502 361.376 316.521C361.892 316.526 362.398 316.423 362.893 316.214Z" fill="white"/>
<path d="M383.184 306.319L382.857 303.995L389.874 303.007L390.201 305.33L383.184 306.319Z" fill="white"/>
<defs>
<linearGradient id="paint0_linear_2979_86" x1="189" y1="32" x2="189" y2="332" gradientUnits="userSpaceOnUse">
<stop stop-color="#C493FF"/>
<stop offset="1" stop-color="#C493FF"/>
</linearGradient>
<linearGradient id="paint1_linear_2979_86" x1="402" y1="285" x2="402" y2="523" gradientUnits="userSpaceOnUse">
<stop stop-color="#C493FF"/>
<stop offset="1" stop-color="#C493FF"/>
</linearGradient>
</defs>
</svg>
