<svg width="103" height="30" viewBox="0 0 103 30" fill="none" xmlns="http://www.w3.org/2000/svg">
<path d="M87.1269 2.83107C83.4699 0.422404 78.6016 3.04532 78.6016 7.42428V22.5757C78.6016 26.9547 83.4699 29.5776 87.1269 27.1689L98.1051 19.9381C99.65 18.9206 100.58 17.1947 100.58 15.3449V14.6551C100.58 12.8053 99.65 11.0794 98.1051 10.0619L87.1269 2.83107Z" fill="#FFAC2F" stroke="#F5ECFF" stroke-width="3"/>
<path d="M82.4727 8.72015C82.4727 7.12618 84.2462 6.17271 85.5758 7.05188L95.0187 13.2958C95.5787 13.6661 95.9156 14.2927 95.9156 14.9641V15.0359C95.9156 15.7073 95.5787 16.3339 95.0187 16.7042L85.5758 22.9481C84.2462 23.8273 82.4727 22.8738 82.4727 21.2799V8.72015Z" fill="#F5ECFF"/>
<circle cx="15" cy="15" r="13.5" fill="#FFAC2F" stroke="#F5ECFF" stroke-width="3"/>
<rect x="6" y="6" width="18" height="18" rx="9" fill="#F5ECFF"/>
<path d="M24 15L80 15" stroke="#FFAC2F" stroke-width="4"/>
</svg>
