<svg width="1440" height="822" viewBox="0 0 1440 822" fill="none" xmlns="http://www.w3.org/2000/svg">
<path opacity="0.7" d="M0 0H1440V750H0V0Z" fill="url(#paint0_linear_894_6)"/>
<rect x="462.615" y="782" width="218.614" height="8" rx="4" transform="rotate(-180 462.615 782)" fill="#FFAC2F"/>
<rect x="1452" y="782" width="963.153" height="8" rx="4" transform="rotate(-180 1452 782)" fill="#C493FF"/>
<path d="M-44 344.593V73H1207.5V822H547V344.593H-44Z" fill="url(#paint1_angular_894_6)" fill-opacity="0.1"/>
<circle opacity="0.6" cx="1329" cy="156" r="45" fill="url(#paint2_linear_894_6)"/>
<path d="M1318.06 166.358C1318.06 167.265 1318.46 168.071 1319.17 168.675L1322.29 171.294C1322.79 171.697 1323.5 172 1324.2 172H1333.87C1334.58 172 1335.28 171.798 1335.79 171.294L1338.91 168.675C1339.62 168.071 1340.02 167.265 1340.02 166.358V160.717H1318.06V166.358Z" fill="#FF52E3"/>
<path d="M1326.12 100.581C1314.53 101.891 1305.06 111.159 1303.65 122.744C1302.45 132.818 1307.18 141.985 1314.74 147.122C1316.75 148.432 1317.96 150.648 1317.96 153.066V155.182H1339.82V153.167C1339.82 150.85 1340.93 148.533 1342.94 147.223C1349.89 142.69 1354.43 134.832 1354.43 125.867C1354.53 110.857 1341.53 98.8687 1326.12 100.581Z" fill="#FF87EC"/>
<path d="M1329.14 93.1717C1330.54 93.1717 1331.68 92.203 1331.68 91.0267V85.1451C1331.68 83.9687 1330.54 83 1329.14 83C1327.75 83 1326.6 83.9687 1326.6 85.1451V90.9575C1326.6 92.203 1327.66 93.1717 1329.14 93.1717Z" fill="#FF52E3"/>
<path d="M1309.67 97.0514C1310.11 97.8077 1310.84 98.2616 1311.65 98.2616C1312.01 98.2616 1312.46 98.1859 1312.75 97.959C1313.85 97.2783 1314.22 95.8412 1313.56 94.7823L1310.47 89.2609C1309.81 88.1263 1308.42 87.7481 1307.39 88.4289C1306.29 89.1096 1305.92 90.5467 1306.58 91.6056L1309.67 97.0514Z" fill="#FF87EC"/>
<path d="M1292.17 107.607L1297.68 110.68C1298.06 110.899 1298.43 110.973 1298.81 110.973C1299.64 110.973 1300.4 110.534 1300.85 109.802C1301.53 108.704 1301.08 107.314 1300.02 106.729L1294.51 103.656C1293.38 102.997 1291.94 103.436 1291.34 104.46C1290.66 105.558 1291.04 106.948 1292.17 107.607Z" fill="#FF52E3"/>
<path d="M1359.49 110.973C1359.87 110.973 1360.32 110.899 1360.62 110.678L1366.12 107.581C1367.25 106.918 1367.63 105.517 1366.95 104.485C1366.27 103.379 1364.84 103.011 1363.79 103.674L1358.28 106.77C1357.15 107.434 1356.78 108.835 1357.45 109.867C1357.91 110.604 1358.66 110.973 1359.49 110.973Z" fill="#FF52E3"/>
<path d="M1345.54 96.6839C1345.91 96.9091 1346.28 96.9842 1346.65 96.9842C1347.45 96.9842 1348.19 96.5337 1348.63 95.783L1351.72 90.3023C1352.38 89.1761 1351.94 87.7496 1350.91 87.149C1349.81 86.4733 1348.41 86.8487 1347.82 87.9749L1344.73 93.4556C1344.07 94.5817 1344.44 96.0082 1345.54 96.6839Z" fill="#FF87EC"/>
<path d="M951.5 374.5H1V751.5H1440.5V9H951.5V374.5Z" fill="url(#paint3_angular_894_6)" fill-opacity="0.1"/>
<path d="M1440.5 271.5V-1H0V750.5H849.5V271.5H1440.5Z" fill="url(#paint4_angular_894_6)" fill-opacity="0.2"/>
<g filter="url(#filter0_d_894_6)">
<rect x="475" y="592" width="490" height="92" rx="46" fill="#7A1AF0"/>
<rect x="477" y="594" width="486" height="88" rx="44" stroke="#7A1AF0" stroke-width="4"/>
</g>
<rect x="480" y="596.896" width="480" height="81.7857" rx="40.8929" fill="#7A1AF0" stroke="white" stroke-width="2"/>
<path d="M633.528 644.838C632.595 644.838 631.722 644.645 630.908 644.258C630.095 643.872 629.382 643.338 628.768 642.658C628.168 641.978 627.695 641.205 627.348 640.338C627.015 639.472 626.848 638.552 626.848 637.578C626.848 636.605 627.015 635.692 627.348 634.838C627.695 633.985 628.168 633.225 628.768 632.558C629.382 631.892 630.095 631.372 630.908 630.998C631.735 630.625 632.635 630.438 633.608 630.438C634.955 630.438 636.088 630.725 637.008 631.298C637.942 631.858 638.642 632.605 639.108 633.538L637.388 634.778C637.015 634.005 636.482 633.425 635.788 633.038C635.108 632.652 634.362 632.458 633.548 632.458C632.882 632.458 632.275 632.598 631.728 632.878C631.182 633.158 630.708 633.545 630.308 634.038C629.922 634.518 629.628 635.072 629.428 635.698C629.228 636.312 629.128 636.958 629.128 637.638C629.128 638.358 629.242 639.032 629.468 639.658C629.695 640.285 630.015 640.838 630.428 641.318C630.842 641.785 631.328 642.152 631.888 642.418C632.448 642.685 633.055 642.818 633.708 642.818C634.482 642.818 635.215 642.625 635.908 642.238C636.615 641.838 637.275 641.245 637.888 640.458V642.738C636.648 644.138 635.195 644.838 633.528 644.838ZM637.668 639.218H634.688V637.558H639.548V644.738H637.668V639.218ZM651.735 642.758V644.738H641.995V630.538H651.555V632.518H644.235V636.558H650.575V638.418H644.235V642.758H651.735ZM664.358 632.518H659.638V644.738H657.378V632.518H652.638V630.538H664.358V632.518ZM678.782 633.878C678.649 633.732 678.456 633.578 678.202 633.418C677.949 633.245 677.649 633.085 677.302 632.938C676.956 632.792 676.582 632.672 676.182 632.578C675.782 632.485 675.369 632.438 674.942 632.438C674.009 632.438 673.316 632.612 672.862 632.958C672.409 633.305 672.182 633.785 672.182 634.398C672.182 634.852 672.309 635.212 672.562 635.478C672.816 635.732 673.202 635.945 673.722 636.118C674.242 636.292 674.896 636.478 675.682 636.678C676.642 636.905 677.476 637.178 678.182 637.498C678.889 637.805 679.429 638.218 679.802 638.738C680.176 639.258 680.362 639.945 680.362 640.798C680.362 641.518 680.229 642.138 679.962 642.658C679.696 643.178 679.322 643.605 678.842 643.938C678.362 644.258 677.809 644.498 677.182 644.658C676.556 644.805 675.882 644.878 675.162 644.878C674.456 644.878 673.749 644.805 673.042 644.658C672.349 644.512 671.682 644.298 671.042 644.018C670.416 643.725 669.836 643.372 669.302 642.958L670.322 641.038C670.496 641.212 670.742 641.405 671.062 641.618C671.396 641.818 671.776 642.012 672.202 642.198C672.642 642.385 673.116 642.545 673.622 642.678C674.142 642.798 674.669 642.858 675.202 642.858C676.096 642.858 676.776 642.705 677.242 642.398C677.722 642.078 677.962 641.625 677.962 641.038C677.962 640.558 677.809 640.178 677.502 639.898C677.196 639.605 676.749 639.358 676.162 639.158C675.576 638.958 674.876 638.758 674.062 638.558C673.129 638.305 672.349 638.032 671.722 637.738C671.096 637.432 670.622 637.045 670.302 636.578C669.996 636.098 669.842 635.492 669.842 634.758C669.842 633.825 670.069 633.038 670.522 632.398C670.976 631.745 671.589 631.258 672.362 630.938C673.149 630.605 674.029 630.438 675.002 630.438C675.642 630.438 676.249 630.512 676.822 630.658C677.396 630.792 677.929 630.978 678.422 631.218C678.929 631.458 679.389 631.732 679.802 632.038L678.782 633.878ZM692.921 632.518H688.201V644.738H685.941V632.518H681.201V630.538H692.921V632.518ZM697.489 630.538H699.609L705.129 644.738H702.769L701.269 640.878H695.789L694.309 644.738H691.929L697.489 630.538ZM700.829 639.218L698.549 632.998L696.189 639.218H700.829ZM706.777 644.738V630.538H712.957C713.597 630.538 714.184 630.672 714.717 630.938C715.25 631.205 715.71 631.558 716.097 631.998C716.497 632.438 716.804 632.932 717.017 633.478C717.244 634.025 717.357 634.585 717.357 635.158C717.357 635.785 717.244 636.385 717.017 636.958C716.79 637.532 716.464 638.025 716.037 638.438C715.624 638.852 715.137 639.152 714.577 639.338L717.917 644.738H715.397L712.317 639.798H709.017V644.738H706.777ZM709.017 637.818H712.937C713.35 637.818 713.717 637.698 714.037 637.458C714.357 637.218 714.61 636.898 714.797 636.498C714.984 636.085 715.077 635.638 715.077 635.158C715.077 634.665 714.97 634.225 714.757 633.838C714.544 633.438 714.264 633.118 713.917 632.878C713.584 632.638 713.217 632.518 712.817 632.518H709.017V637.818ZM730.175 632.518H725.455V644.738H723.195V632.518H718.455V630.538H730.175V632.518ZM741.711 642.758V644.738H731.971V630.538H741.531V632.518H734.211V636.558H740.551V638.418H734.211V642.758H741.711ZM743.914 644.738V630.538H748.954C750.487 630.538 751.767 630.858 752.794 631.498C753.821 632.125 754.587 632.978 755.094 634.058C755.614 635.125 755.874 636.312 755.874 637.618C755.874 639.058 755.587 640.312 755.014 641.378C754.454 642.445 753.654 643.272 752.614 643.858C751.574 644.445 750.354 644.738 748.954 644.738H743.914ZM753.594 637.618C753.594 636.618 753.407 635.738 753.034 634.978C752.674 634.205 752.147 633.605 751.454 633.178C750.774 632.738 749.941 632.518 748.954 632.518H746.154V642.758H748.954C749.954 642.758 750.794 642.532 751.474 642.078C752.167 641.625 752.694 641.012 753.054 640.238C753.414 639.465 753.594 638.592 753.594 637.618ZM765.196 634.698V644.738H762.956V630.538H764.796L772.836 640.798V630.558H775.096V644.738H773.136L765.196 634.698ZM784.08 644.838C783.053 644.838 782.126 644.638 781.3 644.238C780.473 643.838 779.76 643.298 779.16 642.618C778.56 641.925 778.093 641.152 777.76 640.298C777.44 639.432 777.28 638.545 777.28 637.638C777.28 636.692 777.453 635.792 777.8 634.938C778.146 634.072 778.626 633.305 779.24 632.638C779.853 631.958 780.573 631.425 781.4 631.038C782.24 630.638 783.146 630.438 784.12 630.438C785.133 630.438 786.053 630.645 786.88 631.058C787.72 631.472 788.433 632.025 789.02 632.718C789.62 633.412 790.08 634.185 790.4 635.038C790.733 635.892 790.9 636.765 790.9 637.658C790.9 638.605 790.726 639.512 790.38 640.378C790.046 641.232 789.573 641.998 788.96 642.678C788.346 643.345 787.62 643.872 786.78 644.258C785.953 644.645 785.053 644.838 784.08 644.838ZM779.56 637.638C779.56 638.305 779.666 638.952 779.88 639.578C780.093 640.205 780.393 640.765 780.78 641.258C781.18 641.738 781.66 642.118 782.22 642.398C782.78 642.678 783.406 642.818 784.1 642.818C784.82 642.818 785.46 642.672 786.02 642.378C786.58 642.085 787.046 641.692 787.42 641.198C787.806 640.692 788.1 640.132 788.3 639.518C788.5 638.892 788.6 638.265 788.6 637.638C788.6 636.972 788.493 636.332 788.28 635.718C788.08 635.092 787.78 634.538 787.38 634.058C786.98 633.565 786.5 633.178 785.94 632.898C785.393 632.618 784.78 632.478 784.1 632.478C783.38 632.478 782.74 632.625 782.18 632.918C781.62 633.212 781.146 633.605 780.76 634.098C780.373 634.592 780.073 635.145 779.86 635.758C779.66 636.372 779.56 636.998 779.56 637.638ZM797.604 630.598H799.704L801.464 635.418L803.244 630.598H805.344L802.904 636.918L805.024 642.138L809.444 630.538H811.904L806.084 644.738H804.144L801.484 638.378L798.804 644.738H796.844L791.044 630.538H793.484L797.924 642.138L800.044 636.918L797.604 630.598Z" fill="white"/>
<circle opacity="0.6" cx="199.176" cy="565.305" r="74.176" fill="url(#paint5_linear_894_6)"/>
<path d="M225.581 474.602C225.064 473.957 225.525 473 226.352 473H241.974C244.372 473 246.64 474.089 248.138 475.962L273.269 507.367C275.636 510.324 275.567 514.542 273.107 517.423L221.487 577.838C221.181 578.195 220.621 577.816 220.838 577.4L252.77 516.109C254.215 513.337 253.885 509.973 251.933 507.532L225.581 474.602Z" fill="#FFCBF7"/>
<path d="M183.533 473H218.113C218.413 473 218.697 473.136 218.882 473.371L249.362 511.459C249.85 512.068 249.933 512.909 249.571 513.603L202.574 603.807C201.836 605.222 199.81 605.222 199.072 603.807L152.075 513.601C151.713 512.909 151.796 512.068 152.284 511.457L182.764 473.371C182.951 473.136 183.233 473 183.533 473Z" fill="#FF9AEF"/>
<path d="M202.131 485.454L183.077 473C172.817 485.698 152.151 511.242 151.565 511.828C150.979 512.414 151.809 513.049 152.298 513.293L202.131 522.084V485.454Z" fill="#FF87EC"/>
<path d="M202.129 487.546V517.28C202.129 519.78 204.396 521.667 206.855 521.214L248.541 513.52C249.337 513.373 250.329 512.892 249.989 512.157C249.925 512.019 249.84 511.906 249.764 511.83L218.984 473.734L203.845 484.262C202.77 485.01 202.129 486.237 202.129 487.546Z" fill="#FFCBF7"/>
<path d="M180.81 577.398C181.027 577.814 180.464 578.193 180.16 577.836L128.54 517.421C126.081 514.542 126.012 510.322 128.378 507.365L153.509 475.96C155.005 474.089 157.273 473 159.671 473H175.293C176.12 473 176.58 473.957 176.063 474.602L149.714 507.53C147.76 509.971 147.432 513.335 148.877 516.107L180.81 577.398Z" fill="#FF87EC"/>
<path d="M273.107 517.42C275.567 514.539 275.636 510.321 273.269 507.363L253.429 510.359C253.429 510.359 254.215 513.334 252.77 516.106L220.838 577.397C220.621 577.813 221.181 578.192 221.487 577.835L273.107 517.42Z" fill="url(#paint6_linear_894_6)"/>
<path d="M202.571 603.805L249.569 513.602L200.821 522.392L152.072 513.6L199.07 603.805C199.808 605.22 201.833 605.22 202.571 603.805Z" fill="url(#paint7_linear_894_6)"/>
<path d="M180.16 577.835C180.464 578.192 181.027 577.813 180.81 577.397L148.877 516.106C147.432 513.334 147.901 511.094 147.901 511.094L128.378 507.363C126.012 510.321 126.081 514.541 128.54 517.42L180.16 577.835Z" fill="#FF52E3"/>
<mask id="path-28-inside-1_894_6" fill="white">
<path d="M408.146 343.39C407.294 346.568 404.019 348.474 400.906 347.41C387.717 342.907 375.747 335.347 365.994 325.314C354.854 313.854 347.02 299.594 343.323 284.046C339.625 268.497 340.2 252.238 344.988 236.99C349.18 223.64 356.465 211.501 366.214 201.542C368.516 199.191 372.298 199.418 374.489 201.873L398.645 228.931C400.836 231.385 400.582 235.127 398.476 237.655C395.108 241.696 392.549 246.371 390.962 251.426C388.777 258.383 388.515 265.802 390.202 272.897C391.889 279.991 395.463 286.497 400.546 291.726C404.24 295.525 408.629 298.548 413.455 300.64C416.474 301.949 418.385 305.176 417.534 308.354L408.146 343.39Z"/>
</mask>
<path d="M408.146 343.39C407.294 346.568 404.019 348.474 400.906 347.41C387.717 342.907 375.747 335.347 365.994 325.314C354.854 313.854 347.02 299.594 343.323 284.046C339.625 268.497 340.2 252.238 344.988 236.99C349.18 223.64 356.465 211.501 366.214 201.542C368.516 199.191 372.298 199.418 374.489 201.873L398.645 228.931C400.836 231.385 400.582 235.127 398.476 237.655C395.108 241.696 392.549 246.371 390.962 251.426C388.777 258.383 388.515 265.802 390.202 272.897C391.889 279.991 395.463 286.497 400.546 291.726C404.24 295.525 408.629 298.548 413.455 300.64C416.474 301.949 418.385 305.176 417.534 308.354L408.146 343.39Z" fill="#603F87" stroke="#F9C9B6" stroke-width="8" mask="url(#path-28-inside-1_894_6)"/>
<mask id="path-29-inside-2_894_6" fill="white">
<path d="M374.708 201.678C372.526 199.215 372.741 195.432 375.344 193.42C386.021 185.168 398.464 179.446 411.735 176.724C426.954 173.602 442.727 174.537 457.472 179.433C472.217 184.33 485.416 193.016 495.745 204.623C504.751 214.742 511.299 226.771 514.918 239.771C515.801 242.94 513.71 246.101 510.488 246.768L474.758 254.172C471.536 254.839 468.425 252.745 467.289 249.657C465.555 244.944 462.948 240.58 459.586 236.802C454.899 231.535 448.909 227.593 442.217 225.371C435.526 223.148 428.367 222.724 421.46 224.141C416.506 225.157 411.806 227.095 407.598 229.835C404.84 231.63 401.094 231.446 398.912 228.984L374.708 201.678Z"/>
</mask>
<path d="M374.708 201.678C372.526 199.215 372.741 195.432 375.344 193.42C386.021 185.168 398.464 179.446 411.735 176.724C426.954 173.602 442.727 174.537 457.472 179.433C472.217 184.33 485.416 193.016 495.745 204.623C504.751 214.742 511.299 226.771 514.918 239.771C515.801 242.94 513.71 246.101 510.488 246.768L474.758 254.172C471.536 254.839 468.425 252.745 467.289 249.657C465.555 244.944 462.948 240.58 459.586 236.802C454.899 231.535 448.909 227.593 442.217 225.371C435.526 223.148 428.367 222.724 421.46 224.141C416.506 225.157 411.806 227.095 407.598 229.835C404.84 231.63 401.094 231.446 398.912 228.984L374.708 201.678Z" fill="#FFE6C1" stroke="#F9C9B6" stroke-width="8" mask="url(#path-29-inside-2_894_6)"/>
<mask id="path-30-inside-3_894_6" fill="white">
<path d="M510.523 246.936C513.746 246.275 516.916 248.351 517.359 251.612C519.124 264.609 517.986 277.862 513.994 290.409C509.4 304.851 501.178 317.874 490.115 328.233C479.051 338.592 465.517 345.94 450.803 349.576C438.022 352.735 424.722 353 411.869 350.384C408.645 349.728 406.782 346.429 407.653 343.256L417.278 308.203C418.149 305.03 421.429 303.211 424.696 303.606C429.536 304.192 434.459 303.897 439.224 302.719C445.924 301.064 452.087 297.717 457.125 293C462.163 288.283 465.907 282.353 468 275.776C469.488 271.099 470.105 266.206 469.839 261.337C469.659 258.052 471.69 254.899 474.913 254.238L510.523 246.936Z"/>
</mask>
<path d="M510.523 246.936C513.746 246.275 516.916 248.351 517.359 251.612C519.124 264.609 517.986 277.862 513.994 290.409C509.4 304.851 501.178 317.874 490.115 328.233C479.051 338.592 465.517 345.94 450.803 349.576C438.022 352.735 424.722 353 411.869 350.384C408.645 349.728 406.782 346.429 407.653 343.256L417.278 308.203C418.149 305.03 421.429 303.211 424.696 303.606C429.536 304.192 434.459 303.897 439.224 302.719C445.924 301.064 452.087 297.717 457.125 293C462.163 288.283 465.907 282.353 468 275.776C469.488 271.099 470.105 266.206 469.839 261.337C469.659 258.052 471.69 254.899 474.913 254.238L510.523 246.936Z" fill="#FF82EB" stroke="#F9C9B6" stroke-width="8" mask="url(#path-30-inside-3_894_6)"/>
<defs>
<filter id="filter0_d_894_6" x="451" y="582" width="538" height="140" filterUnits="userSpaceOnUse" color-interpolation-filters="sRGB">
<feFlood flood-opacity="0" result="BackgroundImageFix"/>
<feColorMatrix in="SourceAlpha" type="matrix" values="0 0 0 0 0 0 0 0 0 0 0 0 0 0 0 0 0 0 127 0" result="hardAlpha"/>
<feOffset dy="14"/>
<feGaussianBlur stdDeviation="12"/>
<feComposite in2="hardAlpha" operator="out"/>
<feColorMatrix type="matrix" values="0 0 0 0 0.478431 0 0 0 0 0.101961 0 0 0 0 0.941176 0 0 0 0.3 0"/>
<feBlend mode="normal" in2="BackgroundImageFix" result="effect1_dropShadow_894_6"/>
<feBlend mode="normal" in="SourceGraphic" in2="effect1_dropShadow_894_6" result="shape"/>
</filter>
<linearGradient id="paint0_linear_894_6" x1="1857" y1="977" x2="-127" y2="-96.5002" gradientUnits="userSpaceOnUse">
<stop stop-color="#D359FE" stop-opacity="0.7"/>
<stop offset="1" stop-color="#FFAC2F"/>
</linearGradient>
<radialGradient id="paint1_angular_894_6" cx="0" cy="0" r="1" gradientUnits="userSpaceOnUse" gradientTransform="translate(542.5 349.079) rotate(90) scale(492.855 947.216)">
<stop stop-color="white"/>
<stop offset="1" stop-color="white" stop-opacity="0"/>
</radialGradient>
<linearGradient id="paint2_linear_894_6" x1="1329" y1="201" x2="1329" y2="111" gradientUnits="userSpaceOnUse">
<stop stop-color="white"/>
<stop offset="1" stop-color="white" stop-opacity="0"/>
</linearGradient>
<radialGradient id="paint3_angular_894_6" cx="0" cy="0" r="1" gradientUnits="userSpaceOnUse" gradientTransform="translate(854.407 282.683) rotate(90) scale(488.578 946.558)">
<stop stop-color="white"/>
<stop offset="1" stop-color="white" stop-opacity="0"/>
</radialGradient>
<radialGradient id="paint4_angular_894_6" cx="0" cy="0" r="1" gradientUnits="userSpaceOnUse" gradientTransform="translate(854 276) rotate(90) scale(494.5 947.216)">
<stop stop-color="white"/>
<stop offset="1" stop-color="white" stop-opacity="0"/>
</radialGradient>
<linearGradient id="paint5_linear_894_6" x1="199.176" y1="639.481" x2="199.176" y2="491.129" gradientUnits="userSpaceOnUse">
<stop stop-color="white"/>
<stop offset="1" stop-color="white" stop-opacity="0"/>
</linearGradient>
<linearGradient id="paint6_linear_894_6" x1="265.735" y1="532.065" x2="216.054" y2="532.065" gradientUnits="userSpaceOnUse">
<stop offset="0.981165" stop-color="#FF69E7"/>
<stop offset="1" stop-color="#FF52E3" stop-opacity="0"/>
</linearGradient>
<linearGradient id="paint7_linear_894_6" x1="232.908" y1="545.526" x2="201.396" y2="545.526" gradientUnits="userSpaceOnUse">
<stop offset="0.981165" stop-color="#FF86EC"/>
<stop offset="1" stop-color="#FF52E3" stop-opacity="0"/>
</linearGradient>
</defs>
</svg>
