<svg width="201" height="57" viewBox="0 0 201 57" fill="none" xmlns="http://www.w3.org/2000/svg">
<path d="M39.0645 55.8867C39.1303 56.007 39.1871 56.1296 39.2529 56.2477C39.2007 56.1228 39.1371 56.0002 39.0645 55.8867Z" fill="black"/>
<path d="M39.0645 55.8867C39.1303 56.007 39.1871 56.1296 39.2529 56.2477C39.2007 56.1228 39.1371 56.0002 39.0645 55.8867Z" fill="url(#paint0_linear_1957_940)"/>
<path d="M91.8233 23.457H86.043C84.2744 23.457 82.8418 24.8896 82.8418 26.6582C82.8418 28.4268 84.2744 29.8594 86.043 29.8594H91.8233C93.5919 29.8594 95.0244 28.4268 95.0244 26.6582C95.0244 24.8896 93.5919 23.457 91.8233 23.457Z" fill="url(#paint1_linear_1957_940)"/>
<path d="M77.0859 17.7991C77.0859 17.9013 77.1041 18.0035 77.1427 18.0988C77.1132 18.0103 77.0996 17.9149 77.1041 17.8196L77.0882 17.7969L77.0859 17.7991Z" fill="url(#paint2_linear_1957_940)"/>
<path d="M77.6149 18.3256C77.6013 17.758 78.0485 17.2881 78.6161 17.2745C78.6275 17.2745 78.6411 17.2745 78.6525 17.2745H78.8454L101.313 17.2608C103.075 17.2608 104.503 15.8305 104.503 14.0687C104.503 12.307 103.075 10.8812 101.313 10.8789H77.6149C74.0891 10.8789 71.2284 13.735 71.2262 17.2608V29.0552C71.2262 33.907 67.0692 36.2931 62.9076 36.2931C58.7461 36.2931 54.5551 33.8933 54.5551 29.0552V15.5853C53.4154 17.3403 51.0701 17.8398 49.3129 16.7023C48.8497 16.4026 48.4569 16.0031 48.1641 15.5354V29.0552C48.1641 38.098 55.5608 42.6001 62.919 42.6001C70.2772 42.6001 77.6285 38.098 77.6285 29.0552V18.7979M77.6285 18.3256V18.7956V18.3256Z" fill="url(#paint3_linear_1957_940)"/>
<path d="M166.174 12.9179C166.174 11.8123 166.655 10.7611 167.495 10.0414H135.851V10.0051L122.363 9.96875C115.793 10.055 109.792 12.6841 109.792 19.1568C109.792 26.2539 117.062 27.8272 122.976 29.1009C127.228 29.975 130.815 30.7719 130.815 33.4327C130.815 35.7099 128.186 36.7179 124.726 36.7179H88.1172C89.7337 38.0529 89.9607 40.4435 88.6257 42.06C88.485 42.2303 88.3283 42.3892 88.1581 42.5345H124.032C131.301 42.5345 137.872 39.8623 137.872 33.2488C137.872 26.011 130.468 24.5103 124.508 23.3933C120.308 22.5578 116.796 21.8517 116.796 19.3225C116.796 16.7934 119.421 15.7717 122.753 15.7717H153.321V39.3447C153.321 41.1133 154.754 42.5459 156.523 42.5459C158.291 42.5459 159.724 41.1133 159.724 39.3447V15.7649H167.463C166.641 15.0452 166.169 14.0054 166.171 12.9134L166.174 12.9179Z" fill="url(#paint4_linear_1957_940)"/>
<path d="M197.883 33.9325C198.505 33.9325 199.118 34.0778 199.674 34.3548L198.668 32.1276L190.018 13.0795L189.993 13.0136C189.296 11.4221 187.852 10.2801 186.143 9.97136C185.53 9.8533 184.899 9.8533 184.286 9.97136C182.619 10.2733 181.205 11.3653 180.492 12.9001L180.394 13.118L167.708 41.0659L165.735 45.4341L165.587 45.7678C164.933 47.3639 165.699 49.1869 167.295 49.8408C168.891 50.4947 170.714 49.7295 171.368 48.1335V48.0926L174.451 41.0659L183.977 20.1516L185.18 17.5043L186.402 20.1629L191.362 30.997H183.793C182.281 31.0651 181.112 32.3456 181.18 33.8576C181.244 35.2743 182.376 36.4072 183.793 36.4708H193.817L194.012 36.9135C194.482 35.1585 196.071 33.9393 197.887 33.9371L197.883 33.9325Z" fill="url(#paint5_linear_1957_940)"/>
<path d="M21.0211 0C9.41289 0 6.23966e-05 9.52635 6.23966e-05 21.2799C-0.0181003 28.8038 3.93002 35.7806 10.3914 39.6379C13.5222 41.5086 17.0957 42.5167 20.7419 42.5621H21.2981C26.4382 42.671 31.1741 45.3727 33.8826 49.7431C34.3844 51.287 36.0417 52.1338 37.5855 51.6321C38.2439 51.4187 38.8047 50.9805 39.1725 50.3947C39.7764 49.423 39.7537 48.1902 39.1157 47.2412C38.6571 46.433 38.144 45.6565 37.5855 44.9141C35.9532 42.7982 33.9371 41.0092 31.6418 39.6401C28.5087 37.7785 24.942 36.775 21.2981 36.7273H20.7419C16.9459 36.6614 13.3156 35.1698 10.5685 32.5521C7.48083 29.6143 5.73948 25.5345 5.75083 21.2708C5.75083 12.7321 12.5891 5.81661 21.0189 5.81661C29.4486 5.81661 36.2756 12.7457 36.2756 21.2822C36.2824 24.0111 35.5672 26.6947 34.1982 29.0581C36.212 28.495 38.3007 29.6733 38.8637 31.6871C38.9205 31.8869 38.9591 32.0935 38.9818 32.3001C40.9842 28.9741 42.0377 25.1644 42.0309 21.2844C42.0309 9.53316 32.6158 0.00454068 21.0189 0.00454068L21.0211 0ZM39.261 47.8474C39.1952 47.7271 39.1385 47.6045 39.0726 47.4864C39.143 47.6022 39.202 47.7225 39.2542 47.8474H39.2633H39.261Z" fill="url(#paint6_linear_1957_940)"/>
<path d="M51.3671 16.3005C52.9106 16.3005 54.1618 15.0492 54.1618 13.5057C54.1618 11.9622 52.9106 10.7109 51.3671 10.7109C49.8235 10.7109 48.5723 11.9622 48.5723 13.5057C48.5723 15.0492 49.8235 16.3005 51.3671 16.3005Z" fill="#FFAC2F"/>
<path d="M35.2104 35.6316C36.8216 35.6316 38.1277 34.3255 38.1277 32.7143C38.1277 31.103 36.8216 29.7969 35.2104 29.7969C33.5991 29.7969 32.293 31.103 32.293 32.7143C32.293 34.3255 33.5991 35.6316 35.2104 35.6316Z" fill="#FFAC2F"/>
<path d="M85.7077 42.509C87.285 42.509 88.5637 41.2303 88.5637 39.653C88.5637 38.0756 87.285 36.7969 85.7077 36.7969C84.1303 36.7969 82.8516 38.0756 82.8516 39.653C82.8516 41.2303 84.1303 42.509 85.7077 42.509Z" fill="#FFAC2F"/>
<path d="M169.971 15.7747C171.549 15.7747 172.827 14.496 172.827 12.9186C172.827 11.3412 171.549 10.0625 169.971 10.0625C168.394 10.0625 167.115 11.3412 167.115 12.9186C167.115 14.496 168.394 15.7747 169.971 15.7747Z" fill="#FFAC2F"/>
<path d="M197.883 41.0781C199.604 41.0781 201 39.6825 201 37.9609C201 36.2394 199.604 34.8438 197.883 34.8438C196.161 34.8438 194.766 36.2394 194.766 37.9609C194.766 39.6825 196.161 41.0781 197.883 41.0781Z" fill="#FFAC2F"/>
<path d="M196.843 10.1741H196.023V9.87891H198.019V10.1741H197.195V12.5738H196.843V10.1741Z" fill="black"/>
<path d="M200.591 11.3916C200.571 11.0147 200.546 10.5629 200.55 10.2269H200.539C200.448 10.5425 200.335 10.8785 200.199 11.2508L199.722 12.5585H199.458L199.023 11.2735C198.893 10.8944 198.786 10.5448 198.712 10.2246H198.702C198.696 10.5606 198.675 11.0124 198.65 11.4166L198.578 12.5722H198.246L198.435 9.875H198.88L199.34 11.1782C199.452 11.5096 199.545 11.8071 199.613 12.0863H199.624C199.692 11.8139 199.788 11.5187 199.908 11.1782L200.387 9.875H200.83L200.998 12.5722H200.657L200.589 11.387L200.591 11.3916Z" fill="black"/>
<defs>
<linearGradient id="paint0_linear_1957_940" x1="39.2938" y1="8.7909" x2="39.2938" y2="60.3093" gradientUnits="userSpaceOnUse">
<stop stop-color="#A268AA"/>
<stop offset="1" stop-color="#6951A1"/>
</linearGradient>
<linearGradient id="paint1_linear_1957_940" x1="88.9412" y1="23.6872" x2="88.9412" y2="30.1016" gradientUnits="userSpaceOnUse">
<stop stop-color="#D359FE"/>
<stop offset="1" stop-color="#7A1AF0"/>
</linearGradient>
<linearGradient id="paint2_linear_1957_940" x1="77.2613" y1="10.9041" x2="77.2613" y2="42.48" gradientUnits="userSpaceOnUse">
<stop stop-color="#A268AA"/>
<stop offset="1" stop-color="#6951A1"/>
</linearGradient>
<linearGradient id="paint3_linear_1957_940" x1="76.3322" y1="10.8766" x2="76.3322" y2="42.5978" gradientUnits="userSpaceOnUse">
<stop stop-color="#D359FE"/>
<stop offset="1" stop-color="#7A1AF0"/>
</linearGradient>
<linearGradient id="paint4_linear_1957_940" x1="127.458" y1="9.52785" x2="127.458" y2="41.9458" gradientUnits="userSpaceOnUse">
<stop stop-color="#D359FE"/>
<stop offset="1" stop-color="#7A1AF0"/>
</linearGradient>
<linearGradient id="paint5_linear_1957_940" x1="182.386" y1="10.7502" x2="182.386" y2="51.0015" gradientUnits="userSpaceOnUse">
<stop stop-color="#D359FE"/>
<stop offset="1" stop-color="#7A1AF0"/>
</linearGradient>
<linearGradient id="paint6_linear_1957_940" x1="21.1233" y1="0.345092" x2="21.1233" y2="51.8636" gradientUnits="userSpaceOnUse">
<stop stop-color="#D359FE"/>
<stop offset="1" stop-color="#7A1AF0"/>
</linearGradient>
</defs>
</svg>
