<svg width="73" height="102" viewBox="0 0 73 102" fill="none" xmlns="http://www.w3.org/2000/svg">
<path d="M60.6644 9.13723H33.3844C32.1747 3.9168 27.5094 0.00390625 21.9277 0.00390625C16.3081 0.00390625 11.6091 3.96696 10.4389 9.24096C4.60404 9.76947 0 14.6232 0 20.584V77.0669C0 83.3909 5.14469 88.5356 11.4675 88.5356H27.0155L33.7784 99.8633C34.2574 100.665 35.1196 101.155 36.0543 101.155C36.9864 101.155 37.8512 100.665 38.3302 99.8633L45.0957 88.5356H60.6644C66.9872 88.5356 72.1319 83.3909 72.1319 77.0669V20.584C72.1319 14.2716 66.9872 9.13723 60.6644 9.13723ZM21.9277 5.30654C25.5008 5.30654 28.4084 8.21419 28.4084 11.7885C28.4084 15.3616 25.5008 18.2693 21.9277 18.2693C18.3547 18.2693 15.447 15.3616 15.447 11.7885C15.447 8.21419 18.3547 5.30654 21.9277 5.30654ZM66.8292 77.0669C66.8292 80.4665 64.064 83.233 60.6644 83.233H43.5914C42.6593 83.233 41.7945 83.7236 41.3155 84.525L36.0543 93.3321L30.7957 84.525C30.3167 83.7236 29.4519 83.233 28.5198 83.233H11.4675C8.06787 83.233 5.30263 80.4665 5.30263 77.0669V20.584C5.30263 17.5365 7.53968 15.0004 10.4655 14.5214C10.6022 15.0952 10.7964 15.6458 11.0139 16.184C11.0406 16.2499 11.053 16.322 11.0809 16.3872C11.3599 17.0431 11.7055 17.6616 12.0937 18.2503C12.2188 18.4401 12.369 18.6076 12.5046 18.7897C12.7926 19.1763 13.0894 19.5525 13.4215 19.9006C13.6063 20.0943 13.8053 20.2684 14.0028 20.4492C14.3296 20.7486 14.6662 21.0317 15.0252 21.2932C15.2499 21.457 15.4779 21.6099 15.7144 21.7578C16.0912 21.9938 16.4821 22.2016 16.8858 22.3943C17.131 22.5115 17.3711 22.631 17.6253 22.7314C18.0771 22.9099 18.5466 23.0442 19.0237 23.1664C19.2534 23.2251 19.4734 23.3025 19.7082 23.3474C20.4288 23.4858 21.1673 23.5719 21.9277 23.5719C22.6891 23.5719 23.4288 23.4858 24.1504 23.3471C24.3873 23.3015 24.6092 23.2232 24.8409 23.1636C25.317 23.0414 25.7858 22.9076 26.2369 22.7293C26.4926 22.6281 26.7334 22.5069 26.98 22.3888C27.383 22.1957 27.7738 21.9889 28.1499 21.753C28.3877 21.604 28.6162 21.4483 28.8425 21.2832C29.1991 21.0228 29.5341 20.7419 29.859 20.444C30.0594 20.2602 30.2597 20.0817 30.4469 19.8847C30.7719 19.5431 31.0627 19.1751 31.3452 18.7966C31.4873 18.6063 31.6422 18.429 31.7729 18.2299C32.1252 17.6935 32.4319 17.1274 32.6942 16.5353C32.722 16.4725 32.7621 16.4172 32.7888 16.3539C33.0479 15.7401 33.258 15.1011 33.4107 14.4399H60.6644C64.064 14.4399 66.8292 17.196 66.8292 20.584V77.0669Z" fill="#FF82EB"/>
<path d="M14.2294 43.58H36.0536C37.5191 43.58 38.7049 42.3928 38.7049 40.9287C38.7049 39.4645 37.5191 38.2773 36.0536 38.2773H14.2294C12.764 38.2773 11.5781 39.4645 11.5781 40.9287C11.5781 42.3928 12.764 43.58 14.2294 43.58Z" fill="#FF82EB"/>
<path d="M57.8778 47.7539H14.2294C12.764 47.7539 11.5781 48.941 11.5781 50.4052C11.5781 51.8694 12.764 53.0565 14.2294 53.0565H57.8778C59.3433 53.0565 60.5291 51.8694 60.5291 50.4052C60.5291 48.941 59.3433 47.7539 57.8778 47.7539Z" fill="#FF82EB"/>
<path d="M57.8778 57.2305H14.2294C12.764 57.2305 11.5781 58.4176 11.5781 59.8818C11.5781 61.346 12.764 62.5331 14.2294 62.5331H57.8778C59.3433 62.5331 60.5291 61.346 60.5291 59.8818C60.5291 58.4176 59.3433 57.2305 57.8778 57.2305Z" fill="#FF82EB"/>
<path d="M57.8778 66.707H14.2294C12.764 66.707 11.5781 67.8942 11.5781 69.3583C11.5781 70.8225 12.764 72.0097 14.2294 72.0097H57.8778C59.3433 72.0097 60.5291 70.8225 60.5291 69.3583C60.5291 67.8942 59.3433 66.707 57.8778 66.707Z" fill="#FF82EB"/>
</svg>
