<svg width="150" height="167" viewBox="0 0 150 167" fill="none" xmlns="http://www.w3.org/2000/svg">
<circle opacity="0.6" cx="74.176" cy="92.3049" r="74.176" fill="url(#paint0_linear_1101_67)"/>
<path d="M100.581 1.60211C100.064 0.956928 100.525 0 101.352 0H116.974C119.372 0 121.64 1.08912 123.138 2.96154L148.269 34.3665C150.636 37.3241 150.567 41.5425 148.107 44.4231L96.4872 104.838C96.1812 105.195 95.6207 104.816 95.8378 104.4L127.77 43.1091C129.215 40.337 128.885 36.9729 126.933 34.5323L100.581 1.60211Z" fill="#FFCBF7"/>
<path d="M58.5334 0H93.1126C93.4126 0 93.6968 0.13614 93.8824 0.370932L124.362 38.4586C124.85 39.0683 124.933 39.9088 124.571 40.6033L77.5737 130.807C76.8355 132.222 74.8105 132.222 74.0723 130.807L27.0746 40.6013C26.7134 39.9088 26.7963 39.0683 27.2838 38.4566L57.7637 0.370932C57.9512 0.13614 58.2334 0 58.5334 0Z" fill="#FF9AEF"/>
<path d="M77.1311 12.4542L58.0772 0C47.8174 12.6984 27.1512 38.2417 26.5649 38.8278C25.9787 39.4139 26.8092 40.0488 27.2978 40.293L77.1311 49.0842V12.4542Z" fill="#FF87EC"/>
<path d="M77.1289 14.5464V44.2802C77.1289 46.7801 79.3965 48.6675 81.8549 48.2138L123.541 40.5204C124.337 40.3735 125.329 39.8923 124.989 39.1575C124.925 39.0192 124.84 38.9055 124.764 38.8296L93.9843 0.734375L78.8452 11.2625C77.77 12.0102 77.1289 13.2368 77.1289 14.5464Z" fill="#FFCBF7"/>
<path d="M55.8095 104.398C56.0266 104.814 55.4641 105.193 55.1602 104.836L3.54003 44.4212C1.0808 41.5425 1.01172 37.3221 3.37819 34.3645L28.5093 2.95957C30.0054 1.08912 32.2731 0 34.6712 0H50.293C51.12 0 51.5799 0.956928 51.0628 1.60211L24.7139 34.5303C22.7599 36.9709 22.4323 40.335 23.877 43.1071L55.8095 104.398Z" fill="#FF87EC"/>
<path d="M148.107 44.4199C150.567 41.5393 150.636 37.3209 148.269 34.3633L128.429 37.3593C128.429 37.3593 129.215 40.3337 127.77 43.1059L95.8378 104.397C95.6207 104.813 96.1812 105.192 96.4872 104.835L148.107 44.4199Z" fill="url(#paint1_linear_1101_67)"/>
<path d="M77.5713 130.805L124.569 40.6016L75.8207 49.3918L27.0723 40.5996L74.07 130.805C74.8082 132.22 76.8332 132.22 77.5713 130.805Z" fill="url(#paint2_linear_1101_67)"/>
<path d="M55.1602 104.835C55.4641 105.192 56.0266 104.813 55.8095 104.397L23.877 43.1059C22.4323 40.3337 22.9009 38.0939 22.9009 38.0939L3.37819 34.3633C1.01172 37.3209 1.0808 41.5412 3.54003 44.4199L55.1602 104.835Z" fill="#FF52E3"/>
<defs>
<linearGradient id="paint0_linear_1101_67" x1="74.176" y1="166.481" x2="74.176" y2="18.1289" gradientUnits="userSpaceOnUse">
<stop stop-color="white"/>
<stop offset="1" stop-color="white" stop-opacity="0"/>
</linearGradient>
<linearGradient id="paint1_linear_1101_67" x1="140.735" y1="59.0646" x2="91.0542" y2="59.0646" gradientUnits="userSpaceOnUse">
<stop offset="0.981165" stop-color="#FF69E7"/>
<stop offset="1" stop-color="#FF52E3" stop-opacity="0"/>
</linearGradient>
<linearGradient id="paint2_linear_1101_67" x1="107.908" y1="72.5257" x2="76.396" y2="72.5257" gradientUnits="userSpaceOnUse">
<stop offset="0.981165" stop-color="#FF86EC"/>
<stop offset="1" stop-color="#FF52E3" stop-opacity="0"/>
</linearGradient>
</defs>
</svg>
