<svg width="218" height="218" viewBox="0 0 218 218" fill="none" xmlns="http://www.w3.org/2000/svg">
<mask id="path-1-inside-1_1101_68" fill="white">
<path d="M87.1459 188.39C86.2943 191.568 83.0193 193.474 79.9056 192.41C66.7168 187.907 54.7473 180.347 44.9943 170.314C33.8542 158.854 26.0205 144.594 22.3226 129.046C18.6247 113.497 19.2003 97.238 23.9884 81.9897C28.1804 68.6401 35.4645 56.5005 45.214 46.5421C47.5158 44.1911 51.2979 44.4181 53.4891 46.8725L77.6447 73.9309C79.8358 76.3853 79.5818 80.1273 77.4756 82.655C74.1083 86.6962 71.5492 91.371 69.9619 96.426C67.7772 103.383 67.5145 110.802 69.2018 117.897C70.8891 124.991 74.4634 131.497 79.5464 136.726C83.2395 140.525 87.6292 143.548 92.4553 145.64C95.4739 146.949 97.3853 150.176 96.5338 153.354L87.1459 188.39Z"/>
</mask>
<path d="M87.1459 188.39C86.2943 191.568 83.0193 193.474 79.9056 192.41C66.7168 187.907 54.7473 180.347 44.9943 170.314C33.8542 158.854 26.0205 144.594 22.3226 129.046C18.6247 113.497 19.2003 97.238 23.9884 81.9897C28.1804 68.6401 35.4645 56.5005 45.214 46.5421C47.5158 44.1911 51.2979 44.4181 53.4891 46.8725L77.6447 73.9309C79.8358 76.3853 79.5818 80.1273 77.4756 82.655C74.1083 86.6962 71.5492 91.371 69.9619 96.426C67.7772 103.383 67.5145 110.802 69.2018 117.897C70.8891 124.991 74.4634 131.497 79.5464 136.726C83.2395 140.525 87.6292 143.548 92.4553 145.64C95.4739 146.949 97.3853 150.176 96.5338 153.354L87.1459 188.39Z" fill="#603F87" stroke="#F9C9B6" stroke-width="8" mask="url(#path-1-inside-1_1101_68)"/>
<mask id="path-2-inside-2_1101_68" fill="white">
<path d="M53.7082 46.6776C51.5258 44.2154 51.7411 40.4325 54.3443 38.4204C65.0211 30.168 77.4643 24.446 90.7347 21.7241C105.954 18.6024 121.727 19.5367 136.472 24.4332C151.217 29.3297 164.416 38.0165 174.745 49.6225C183.751 59.742 190.299 71.7709 193.918 84.7708C194.801 87.9404 192.71 91.1006 189.488 91.7681L153.758 99.1715C150.536 99.8391 147.425 97.7453 146.289 94.6573C144.555 89.944 141.948 85.5799 138.586 81.8021C133.899 76.535 127.909 72.5928 121.217 70.3706C114.526 68.1484 107.367 67.7245 100.46 69.1412C95.5063 70.1573 90.8063 72.0947 86.5976 74.8347C83.8403 76.6299 80.0943 76.4464 77.9119 73.9841L53.7082 46.6776Z"/>
</mask>
<path d="M53.7082 46.6776C51.5258 44.2154 51.7411 40.4325 54.3443 38.4204C65.0211 30.168 77.4643 24.446 90.7347 21.7241C105.954 18.6024 121.727 19.5367 136.472 24.4332C151.217 29.3297 164.416 38.0165 174.745 49.6225C183.751 59.742 190.299 71.7709 193.918 84.7708C194.801 87.9404 192.71 91.1006 189.488 91.7681L153.758 99.1715C150.536 99.8391 147.425 97.7453 146.289 94.6573C144.555 89.944 141.948 85.5799 138.586 81.8021C133.899 76.535 127.909 72.5928 121.217 70.3706C114.526 68.1484 107.367 67.7245 100.46 69.1412C95.5063 70.1573 90.8063 72.0947 86.5976 74.8347C83.8403 76.6299 80.0943 76.4464 77.9119 73.9841L53.7082 46.6776Z" fill="#FFE6C1" stroke="#F9C9B6" stroke-width="8" mask="url(#path-2-inside-2_1101_68)"/>
<mask id="path-3-inside-3_1101_68" fill="white">
<path d="M189.523 91.9363C192.746 91.2754 195.916 93.3514 196.359 96.6117C198.124 109.609 196.986 122.862 192.994 135.409C188.4 149.851 180.178 162.874 169.115 173.233C158.051 183.592 144.517 190.94 129.803 194.576C117.022 197.735 103.722 198 90.8691 195.384C87.645 194.728 85.7818 191.429 86.6529 188.256L96.2781 153.203C97.1493 150.03 100.429 148.211 103.696 148.606C108.536 149.192 113.459 148.897 118.224 147.719C124.924 146.064 131.087 142.717 136.125 138C141.163 133.283 144.907 127.353 147 120.776C148.488 116.099 149.105 111.206 148.839 106.337C148.659 103.052 150.69 99.8986 153.913 99.2378L189.523 91.9363Z"/>
</mask>
<path d="M189.523 91.9363C192.746 91.2754 195.916 93.3514 196.359 96.6117C198.124 109.609 196.986 122.862 192.994 135.409C188.4 149.851 180.178 162.874 169.115 173.233C158.051 183.592 144.517 190.94 129.803 194.576C117.022 197.735 103.722 198 90.8691 195.384C87.645 194.728 85.7818 191.429 86.6529 188.256L96.2781 153.203C97.1493 150.03 100.429 148.211 103.696 148.606C108.536 149.192 113.459 148.897 118.224 147.719C124.924 146.064 131.087 142.717 136.125 138C141.163 133.283 144.907 127.353 147 120.776C148.488 116.099 149.105 111.206 148.839 106.337C148.659 103.052 150.69 99.8986 153.913 99.2378L189.523 91.9363Z" fill="#FF82EB" stroke="#F9C9B6" stroke-width="8" mask="url(#path-3-inside-3_1101_68)"/>
</svg>
