<svg width="90" height="118" viewBox="0 0 90 118" fill="none" xmlns="http://www.w3.org/2000/svg">
<circle opacity="0.6" cx="45" cy="73" r="45" fill="url(#paint0_linear_1519_311)"/>
<path d="M34.0586 83.3582C34.0586 84.2648 34.4616 85.0707 35.1667 85.6751L38.2896 88.2944C38.7933 88.6973 39.4985 88.9995 40.2036 88.9995H49.8745C50.5797 88.9995 51.2849 88.798 51.7886 88.2944L54.9115 85.6751C55.6166 85.0707 56.0196 84.2648 56.0196 83.3582V77.7168H34.0586V83.3582Z" fill="#FF52E3"/>
<path d="M42.1193 17.5812C30.5344 18.8908 21.065 28.1588 19.6546 39.7437C18.4458 49.8176 23.1805 58.9848 30.7359 64.1225C32.7506 65.4321 33.9595 67.6483 33.9595 70.066V72.1815H55.8198V70.1668C55.8198 67.8498 56.9279 65.5328 58.9427 64.2232C65.8936 59.69 70.4269 51.8323 70.4269 42.8666C70.5276 27.8566 57.5323 15.8687 42.1193 17.5812Z" fill="#FF87EC"/>
<path d="M45.1406 10.1717C46.5351 10.1717 47.6835 9.20298 47.6835 8.02666V2.14506C47.6835 0.968735 46.5351 0 45.1406 0C43.7461 0 42.5977 0.968735 42.5977 2.14506V7.95746C42.5977 9.20298 43.664 10.1717 45.1406 10.1717Z" fill="#FF52E3"/>
<path d="M25.6667 14.0514C26.1069 14.8077 26.8407 15.2616 27.6479 15.2616C28.0148 15.2616 28.4551 15.1859 28.7486 14.959C29.8493 14.2783 30.2162 12.8412 29.5557 11.7823L26.4738 6.26086C25.8134 5.12632 24.4192 4.74814 23.3919 5.42886C22.2912 6.10959 21.9243 7.54667 22.5848 8.60558L25.6667 14.0514Z" fill="#FF87EC"/>
<path d="M8.16874 24.6067L13.6794 27.6799C14.0569 27.8994 14.4343 27.9725 14.8118 27.9725C15.6421 27.9725 16.397 27.5335 16.85 26.8018C17.5294 25.7043 17.0764 24.3141 16.0196 23.7287L10.5089 20.6556C9.37656 19.9971 7.94227 20.4361 7.33836 21.4605C6.65896 22.558 7.0364 23.9482 8.16874 24.6067Z" fill="#FF52E3"/>
<path d="M75.4899 27.9725C75.8667 27.9725 76.3189 27.8988 76.6204 27.6777L82.1221 24.5814C83.2526 23.9179 83.6294 22.5172 82.9511 21.4851C82.2728 20.3793 80.8409 20.0107 79.7857 20.6742L74.284 23.7705C73.1535 24.4339 72.7767 25.8346 73.455 26.8667C73.9072 27.6039 74.6608 27.9725 75.4899 27.9725Z" fill="#FF52E3"/>
<path d="M61.5428 13.6839C61.9104 13.9091 62.2781 13.9842 62.6458 13.9842C63.4547 13.9842 64.19 13.5337 64.6312 12.783L67.7197 7.30228C68.3815 6.17612 67.9403 4.74964 66.9108 4.14901C65.8078 3.47331 64.4106 3.8487 63.8223 4.97487L60.7339 10.4556C60.0721 11.5817 60.4398 13.0082 61.5428 13.6839Z" fill="#FF87EC"/>
<defs>
<linearGradient id="paint0_linear_1519_311" x1="45" y1="118" x2="45" y2="28" gradientUnits="userSpaceOnUse">
<stop stop-color="white"/>
<stop offset="1" stop-color="white" stop-opacity="0"/>
</linearGradient>
</defs>
</svg>
