<svg width="240" height="122" viewBox="0 0 240 122" fill="none" xmlns="http://www.w3.org/2000/svg">
<rect width="240" height="122" rx="20" fill="#C493FF"/>
<path d="M51.9494 51.96H54.4934L61.1174 69H58.2854L56.4854 64.368H49.9094L48.1334 69H45.2774L51.9494 51.96ZM55.9574 62.376L53.2214 54.912L50.3894 62.376H55.9574ZM67.1652 69.24C66.1092 69.24 65.1092 69.072 64.1652 68.736C63.2212 68.384 62.4132 67.864 61.7412 67.176L62.7252 65.4C63.4452 66.04 64.1652 66.504 64.8852 66.792C65.6212 67.08 66.3492 67.224 67.0692 67.224C67.8052 67.224 68.4052 67.088 68.8692 66.816C69.3332 66.528 69.5652 66.112 69.5652 65.568C69.5652 65.168 69.4452 64.872 69.2052 64.68C68.9652 64.488 68.6132 64.32 68.1492 64.176C67.7012 64.032 67.1572 63.872 66.5172 63.696C65.6212 63.424 64.8692 63.144 64.2612 62.856C63.6532 62.552 63.1972 62.184 62.8932 61.752C62.5892 61.32 62.4372 60.768 62.4372 60.096C62.4372 59.28 62.6452 58.584 63.0612 58.008C63.4772 57.432 64.0532 56.992 64.7892 56.688C65.5412 56.384 66.4052 56.232 67.3812 56.232C68.2932 56.232 69.1332 56.376 69.9012 56.664C70.6852 56.936 71.3732 57.368 71.9652 57.96L70.8372 59.712C70.2772 59.2 69.7012 58.824 69.1092 58.584C68.5332 58.344 67.9092 58.224 67.2372 58.224C66.8532 58.224 66.4852 58.272 66.1332 58.368C65.7812 58.448 65.4852 58.608 65.2452 58.848C65.0212 59.072 64.9092 59.392 64.9092 59.808C64.9092 60.144 65.0052 60.416 65.1972 60.624C65.3892 60.832 65.6772 61.008 66.0612 61.152C66.4452 61.296 66.9172 61.456 67.4772 61.632C68.4532 61.92 69.2852 62.208 69.9732 62.496C70.6612 62.768 71.1892 63.128 71.5572 63.576C71.9412 64.008 72.1332 64.608 72.1332 65.376C72.1332 66.592 71.6772 67.544 70.7652 68.232C69.8692 68.904 68.6692 69.24 67.1652 69.24ZM78.9543 69.24C77.8983 69.24 76.8983 69.072 75.9543 68.736C75.0103 68.384 74.2023 67.864 73.5303 67.176L74.5143 65.4C75.2343 66.04 75.9543 66.504 76.6743 66.792C77.4103 67.08 78.1383 67.224 78.8583 67.224C79.5943 67.224 80.1943 67.088 80.6583 66.816C81.1223 66.528 81.3543 66.112 81.3543 65.568C81.3543 65.168 81.2343 64.872 80.9943 64.68C80.7543 64.488 80.4023 64.32 79.9383 64.176C79.4903 64.032 78.9463 63.872 78.3063 63.696C77.4103 63.424 76.6583 63.144 76.0503 62.856C75.4423 62.552 74.9863 62.184 74.6823 61.752C74.3783 61.32 74.2263 60.768 74.2263 60.096C74.2263 59.28 74.4343 58.584 74.8503 58.008C75.2663 57.432 75.8423 56.992 76.5783 56.688C77.3303 56.384 78.1943 56.232 79.1703 56.232C80.0823 56.232 80.9223 56.376 81.6903 56.664C82.4743 56.936 83.1623 57.368 83.7543 57.96L82.6263 59.712C82.0663 59.2 81.4903 58.824 80.8983 58.584C80.3223 58.344 79.6983 58.224 79.0263 58.224C78.6423 58.224 78.2743 58.272 77.9223 58.368C77.5703 58.448 77.2743 58.608 77.0343 58.848C76.8103 59.072 76.6983 59.392 76.6983 59.808C76.6983 60.144 76.7943 60.416 76.9863 60.624C77.1783 60.832 77.4663 61.008 77.8503 61.152C78.2343 61.296 78.7063 61.456 79.2663 61.632C80.2423 61.92 81.0743 62.208 81.7623 62.496C82.4503 62.768 82.9783 63.128 83.3463 63.576C83.7303 64.008 83.9223 64.608 83.9223 65.376C83.9223 66.592 83.4663 67.544 82.5543 68.232C81.6583 68.904 80.4583 69.24 78.9543 69.24ZM91.9673 69.24C90.9913 69.24 90.1033 69.072 89.3033 68.736C88.5193 68.384 87.8393 67.912 87.2633 67.32C86.6873 66.712 86.2393 66.024 85.9193 65.256C85.6153 64.472 85.4633 63.64 85.4633 62.76C85.4633 61.576 85.7353 60.496 86.2793 59.52C86.8233 58.528 87.5833 57.736 88.5593 57.144C89.5353 56.536 90.6793 56.232 91.9913 56.232C93.3033 56.232 94.4313 56.536 95.3753 57.144C96.3353 57.736 97.0793 58.52 97.6073 59.496C98.1353 60.472 98.3993 61.52 98.3993 62.64C98.3993 62.832 98.3913 63.016 98.3753 63.192C98.3593 63.352 98.3433 63.488 98.3273 63.6H88.2713C88.3193 64.336 88.5193 64.984 88.8713 65.544C89.2393 66.088 89.7033 66.52 90.2633 66.84C90.8233 67.144 91.4233 67.296 92.0633 67.296C92.7673 67.296 93.4313 67.12 94.0553 66.768C94.6953 66.416 95.1273 65.952 95.3513 65.376L97.6073 66.024C97.3353 66.632 96.9193 67.184 96.3593 67.68C95.8153 68.16 95.1673 68.544 94.4153 68.832C93.6633 69.104 92.8473 69.24 91.9673 69.24ZM88.1993 61.848H95.7833C95.7353 61.128 95.5273 60.496 95.1593 59.952C94.8073 59.392 94.3513 58.96 93.7913 58.656C93.2473 58.336 92.6393 58.176 91.9673 58.176C91.3113 58.176 90.7033 58.336 90.1433 58.656C89.5993 58.96 89.1513 59.392 88.7993 59.952C88.4473 60.496 88.2473 61.128 88.1993 61.848ZM105.017 69.24C103.961 69.24 102.961 69.072 102.017 68.736C101.073 68.384 100.265 67.864 99.5928 67.176L100.577 65.4C101.297 66.04 102.017 66.504 102.737 66.792C103.473 67.08 104.201 67.224 104.921 67.224C105.657 67.224 106.257 67.088 106.721 66.816C107.185 66.528 107.417 66.112 107.417 65.568C107.417 65.168 107.297 64.872 107.057 64.68C106.817 64.488 106.465 64.32 106.001 64.176C105.553 64.032 105.009 63.872 104.369 63.696C103.473 63.424 102.721 63.144 102.113 62.856C101.505 62.552 101.049 62.184 100.745 61.752C100.441 61.32 100.289 60.768 100.289 60.096C100.289 59.28 100.497 58.584 100.913 58.008C101.329 57.432 101.905 56.992 102.641 56.688C103.393 56.384 104.257 56.232 105.233 56.232C106.145 56.232 106.985 56.376 107.753 56.664C108.537 56.936 109.225 57.368 109.817 57.96L108.689 59.712C108.129 59.2 107.553 58.824 106.961 58.584C106.385 58.344 105.761 58.224 105.089 58.224C104.705 58.224 104.337 58.272 103.985 58.368C103.633 58.448 103.337 58.608 103.097 58.848C102.873 59.072 102.761 59.392 102.761 59.808C102.761 60.144 102.857 60.416 103.049 60.624C103.241 60.832 103.529 61.008 103.913 61.152C104.297 61.296 104.769 61.456 105.329 61.632C106.305 61.92 107.137 62.208 107.825 62.496C108.513 62.768 109.041 63.128 109.409 63.576C109.793 64.008 109.985 64.608 109.985 65.376C109.985 66.592 109.529 67.544 108.617 68.232C107.721 68.904 106.521 69.24 105.017 69.24ZM116.806 69.24C115.75 69.24 114.75 69.072 113.806 68.736C112.862 68.384 112.054 67.864 111.382 67.176L112.366 65.4C113.086 66.04 113.806 66.504 114.526 66.792C115.262 67.08 115.99 67.224 116.71 67.224C117.446 67.224 118.046 67.088 118.51 66.816C118.974 66.528 119.206 66.112 119.206 65.568C119.206 65.168 119.086 64.872 118.846 64.68C118.606 64.488 118.254 64.32 117.79 64.176C117.342 64.032 116.798 63.872 116.158 63.696C115.262 63.424 114.51 63.144 113.902 62.856C113.294 62.552 112.838 62.184 112.534 61.752C112.23 61.32 112.078 60.768 112.078 60.096C112.078 59.28 112.286 58.584 112.702 58.008C113.118 57.432 113.694 56.992 114.43 56.688C115.182 56.384 116.046 56.232 117.022 56.232C117.934 56.232 118.774 56.376 119.542 56.664C120.326 56.936 121.014 57.368 121.606 57.96L120.478 59.712C119.918 59.2 119.342 58.824 118.75 58.584C118.174 58.344 117.55 58.224 116.878 58.224C116.494 58.224 116.126 58.272 115.774 58.368C115.422 58.448 115.126 58.608 114.886 58.848C114.662 59.072 114.55 59.392 114.55 59.808C114.55 60.144 114.646 60.416 114.838 60.624C115.03 60.832 115.318 61.008 115.702 61.152C116.086 61.296 116.558 61.456 117.118 61.632C118.094 61.92 118.926 62.208 119.614 62.496C120.302 62.768 120.83 63.128 121.198 63.576C121.582 64.008 121.774 64.608 121.774 65.376C121.774 66.592 121.318 67.544 120.406 68.232C119.51 68.904 118.31 69.24 116.806 69.24ZM143.331 69H140.691V61.968C140.691 60.8 140.499 59.944 140.115 59.4C139.731 58.856 139.171 58.584 138.435 58.584C137.699 58.584 137.011 58.864 136.371 59.424C135.747 59.968 135.307 60.68 135.051 61.56V69H132.411V61.968C132.411 60.8 132.219 59.944 131.835 59.4C131.451 58.856 130.899 58.584 130.179 58.584C129.443 58.584 128.755 58.856 128.115 59.4C127.491 59.944 127.043 60.656 126.771 61.536V69H124.131V56.448H126.531V58.968C127.027 58.088 127.675 57.416 128.475 56.952C129.291 56.472 130.219 56.232 131.259 56.232C132.299 56.232 133.115 56.504 133.707 57.048C134.315 57.592 134.691 58.272 134.835 59.088C135.379 58.16 136.043 57.456 136.827 56.976C137.627 56.48 138.539 56.232 139.563 56.232C140.299 56.232 140.915 56.368 141.411 56.64C141.907 56.912 142.291 57.288 142.563 57.768C142.835 58.232 143.027 58.776 143.139 59.4C143.267 60.008 143.331 60.656 143.331 61.344V69ZM152.061 69.24C151.085 69.24 150.197 69.072 149.397 68.736C148.613 68.384 147.933 67.912 147.357 67.32C146.781 66.712 146.333 66.024 146.013 65.256C145.709 64.472 145.557 63.64 145.557 62.76C145.557 61.576 145.829 60.496 146.373 59.52C146.917 58.528 147.677 57.736 148.653 57.144C149.629 56.536 150.773 56.232 152.085 56.232C153.397 56.232 154.525 56.536 155.469 57.144C156.429 57.736 157.173 58.52 157.701 59.496C158.229 60.472 158.493 61.52 158.493 62.64C158.493 62.832 158.485 63.016 158.469 63.192C158.453 63.352 158.437 63.488 158.421 63.6H148.365C148.413 64.336 148.613 64.984 148.965 65.544C149.333 66.088 149.797 66.52 150.357 66.84C150.917 67.144 151.517 67.296 152.157 67.296C152.861 67.296 153.525 67.12 154.149 66.768C154.789 66.416 155.221 65.952 155.445 65.376L157.701 66.024C157.429 66.632 157.013 67.184 156.453 67.68C155.909 68.16 155.261 68.544 154.509 68.832C153.757 69.104 152.941 69.24 152.061 69.24ZM148.293 61.848H155.877C155.829 61.128 155.621 60.496 155.253 59.952C154.901 59.392 154.445 58.96 153.885 58.656C153.341 58.336 152.733 58.176 152.061 58.176C151.405 58.176 150.797 58.336 150.237 58.656C149.693 58.96 149.245 59.392 148.893 59.952C148.541 60.496 148.341 61.128 148.293 61.848ZM171.903 69H169.263V61.968C169.263 60.8 169.071 59.944 168.687 59.4C168.319 58.856 167.767 58.584 167.031 58.584C166.519 58.584 166.007 58.712 165.495 58.968C164.999 59.224 164.551 59.576 164.151 60.024C163.751 60.456 163.463 60.96 163.287 61.536V69H160.646V56.448H163.047V58.968C163.367 58.408 163.783 57.928 164.295 57.528C164.823 57.112 165.415 56.792 166.071 56.568C166.727 56.344 167.423 56.232 168.159 56.232C168.911 56.232 169.527 56.368 170.007 56.64C170.503 56.912 170.887 57.288 171.159 57.768C171.447 58.232 171.639 58.776 171.734 59.4C171.847 60.008 171.903 60.656 171.903 61.344V69ZM181.857 68.352C181.633 68.464 181.353 68.584 181.017 68.712C180.681 68.84 180.297 68.952 179.865 69.048C179.449 69.144 179.017 69.192 178.569 69.192C178.025 69.192 177.521 69.096 177.057 68.904C176.593 68.712 176.217 68.408 175.929 67.992C175.657 67.56 175.521 67.008 175.521 66.336V58.488H173.865V56.448H175.521V52.32H178.161V56.448H180.897V58.488H178.161V65.496C178.193 65.928 178.329 66.248 178.569 66.456C178.825 66.664 179.137 66.768 179.505 66.768C179.873 66.768 180.225 66.704 180.561 66.576C180.897 66.448 181.145 66.344 181.305 66.264L181.857 68.352ZM188.15 69.24C187.094 69.24 186.094 69.072 185.15 68.736C184.206 68.384 183.398 67.864 182.726 67.176L183.71 65.4C184.43 66.04 185.15 66.504 185.87 66.792C186.606 67.08 187.334 67.224 188.054 67.224C188.79 67.224 189.39 67.088 189.854 66.816C190.318 66.528 190.55 66.112 190.55 65.568C190.55 65.168 190.43 64.872 190.19 64.68C189.95 64.488 189.598 64.32 189.134 64.176C188.686 64.032 188.142 63.872 187.502 63.696C186.606 63.424 185.854 63.144 185.246 62.856C184.638 62.552 184.182 62.184 183.878 61.752C183.574 61.32 183.422 60.768 183.422 60.096C183.422 59.28 183.63 58.584 184.046 58.008C184.462 57.432 185.038 56.992 185.774 56.688C186.526 56.384 187.39 56.232 188.366 56.232C189.278 56.232 190.118 56.376 190.886 56.664C191.67 56.936 192.358 57.368 192.95 57.96L191.822 59.712C191.262 59.2 190.686 58.824 190.094 58.584C189.518 58.344 188.894 58.224 188.222 58.224C187.838 58.224 187.47 58.272 187.118 58.368C186.766 58.448 186.47 58.608 186.23 58.848C186.006 59.072 185.894 59.392 185.894 59.808C185.894 60.144 185.99 60.416 186.182 60.624C186.374 60.832 186.662 61.008 187.046 61.152C187.43 61.296 187.902 61.456 188.462 61.632C189.438 61.92 190.27 62.208 190.958 62.496C191.646 62.768 192.174 63.128 192.542 63.576C192.926 64.008 193.118 64.608 193.118 65.376C193.118 66.592 192.662 67.544 191.75 68.232C190.854 68.904 189.654 69.24 188.15 69.24Z" fill="white"/>
</svg>
