<svg width="340" height="122" viewBox="0 0 340 122" fill="none" xmlns="http://www.w3.org/2000/svg">
<rect width="340" height="122" rx="20" fill="#C493FF"/>
<path d="M134.844 39.968C134.684 39.792 134.452 39.608 134.148 39.416C133.844 39.208 133.484 39.016 133.068 38.84C132.652 38.664 132.204 38.52 131.724 38.408C131.244 38.296 130.748 38.24 130.236 38.24C129.116 38.24 128.284 38.448 127.74 38.864C127.196 39.28 126.924 39.856 126.924 40.592C126.924 41.136 127.076 41.568 127.38 41.888C127.684 42.192 128.148 42.448 128.772 42.656C129.396 42.864 130.18 43.088 131.124 43.328C132.276 43.6 133.276 43.928 134.124 44.312C134.972 44.68 135.62 45.176 136.068 45.8C136.516 46.424 136.74 47.248 136.74 48.272C136.74 49.136 136.58 49.88 136.26 50.504C135.94 51.128 135.492 51.64 134.916 52.04C134.34 52.424 133.676 52.712 132.924 52.904C132.172 53.08 131.364 53.168 130.5 53.168C129.652 53.168 128.804 53.08 127.956 52.904C127.124 52.728 126.324 52.472 125.556 52.136C124.804 51.784 124.108 51.36 123.468 50.864L124.692 48.56C124.9 48.768 125.196 49 125.58 49.256C125.98 49.496 126.436 49.728 126.948 49.952C127.476 50.176 128.044 50.368 128.652 50.528C129.276 50.672 129.908 50.744 130.548 50.744C131.62 50.744 132.436 50.56 132.996 50.192C133.572 49.808 133.86 49.264 133.86 48.56C133.86 47.984 133.676 47.528 133.308 47.192C132.94 46.84 132.404 46.544 131.7 46.304C130.996 46.064 130.156 45.824 129.18 45.584C128.06 45.28 127.124 44.952 126.372 44.6C125.62 44.232 125.052 43.768 124.668 43.208C124.3 42.632 124.116 41.904 124.116 41.024C124.116 39.904 124.388 38.96 124.932 38.192C125.476 37.408 126.212 36.824 127.14 36.44C128.084 36.04 129.14 35.84 130.308 35.84C131.076 35.84 131.804 35.928 132.492 36.104C133.18 36.264 133.82 36.488 134.412 36.776C135.02 37.064 135.572 37.392 136.068 37.76L134.844 39.968ZM138.956 48.128V40.448H141.596V47.6C141.596 48.72 141.796 49.568 142.196 50.144C142.612 50.704 143.212 50.984 143.996 50.984C144.492 50.984 144.972 50.88 145.436 50.672C145.916 50.464 146.348 50.16 146.732 49.76C147.132 49.344 147.452 48.848 147.692 48.272V40.448H150.332V50.024C150.332 50.328 150.388 50.544 150.5 50.672C150.612 50.8 150.796 50.872 151.052 50.888V53C150.78 53.048 150.556 53.08 150.38 53.096C150.204 53.112 150.036 53.12 149.876 53.12C149.396 53.12 148.996 52.992 148.676 52.736C148.356 52.464 148.172 52.12 148.124 51.704L148.076 50.456C147.516 51.368 146.788 52.064 145.892 52.544C144.996 53.008 144.012 53.24 142.94 53.24C141.628 53.24 140.636 52.808 139.964 51.944C139.292 51.08 138.956 49.808 138.956 48.128ZM158.669 53.12C157.821 53.12 157.045 52.952 156.341 52.616C155.637 52.264 155.029 51.792 154.517 51.2C154.021 50.608 153.629 49.928 153.341 49.16C153.069 48.392 152.933 47.584 152.933 46.736C152.933 45.84 153.077 45 153.365 44.216C153.653 43.432 154.053 42.744 154.565 42.152C155.093 41.544 155.709 41.072 156.413 40.736C157.117 40.4 157.901 40.232 158.765 40.232C159.773 40.232 160.653 40.472 161.405 40.952C162.173 41.432 162.805 42.056 163.301 42.824V40.448H165.629V52.64C165.629 53.856 165.333 54.888 164.741 55.736C164.165 56.584 163.373 57.232 162.365 57.68C161.357 58.128 160.221 58.352 158.957 58.352C157.565 58.352 156.413 58.112 155.501 57.632C154.589 57.152 153.813 56.496 153.173 55.664L154.661 54.272C155.141 54.944 155.757 55.456 156.509 55.808C157.277 56.16 158.093 56.336 158.957 56.336C159.677 56.336 160.341 56.2 160.949 55.928C161.573 55.672 162.069 55.264 162.437 54.704C162.805 54.16 162.989 53.472 162.989 52.64V50.72C162.541 51.472 161.925 52.064 161.141 52.496C160.357 52.912 159.533 53.12 158.669 53.12ZM159.533 50.984C159.933 50.984 160.317 50.92 160.685 50.792C161.053 50.648 161.389 50.464 161.693 50.24C162.013 50 162.285 49.736 162.509 49.448C162.733 49.144 162.893 48.824 162.989 48.488V45.2C162.781 44.656 162.485 44.184 162.101 43.784C161.717 43.368 161.285 43.048 160.805 42.824C160.325 42.6 159.837 42.488 159.341 42.488C158.765 42.488 158.245 42.616 157.781 42.872C157.333 43.112 156.949 43.44 156.629 43.856C156.309 44.256 156.061 44.712 155.885 45.224C155.709 45.736 155.621 46.264 155.621 46.808C155.621 47.384 155.717 47.92 155.909 48.416C156.117 48.912 156.397 49.36 156.749 49.76C157.101 50.144 157.517 50.448 157.997 50.672C158.477 50.88 158.989 50.984 159.533 50.984ZM173.763 53.12C172.915 53.12 172.139 52.952 171.435 52.616C170.731 52.264 170.123 51.792 169.611 51.2C169.115 50.608 168.723 49.928 168.435 49.16C168.163 48.392 168.027 47.584 168.027 46.736C168.027 45.84 168.171 45 168.459 44.216C168.747 43.432 169.147 42.744 169.659 42.152C170.187 41.544 170.803 41.072 171.507 40.736C172.211 40.4 172.995 40.232 173.859 40.232C174.867 40.232 175.747 40.472 176.499 40.952C177.267 41.432 177.899 42.056 178.395 42.824V40.448H180.723V52.64C180.723 53.856 180.427 54.888 179.835 55.736C179.259 56.584 178.467 57.232 177.459 57.68C176.451 58.128 175.315 58.352 174.051 58.352C172.659 58.352 171.507 58.112 170.595 57.632C169.683 57.152 168.907 56.496 168.267 55.664L169.755 54.272C170.235 54.944 170.851 55.456 171.603 55.808C172.371 56.16 173.187 56.336 174.051 56.336C174.771 56.336 175.435 56.2 176.043 55.928C176.667 55.672 177.163 55.264 177.531 54.704C177.899 54.16 178.083 53.472 178.083 52.64V50.72C177.635 51.472 177.019 52.064 176.235 52.496C175.451 52.912 174.627 53.12 173.763 53.12ZM174.627 50.984C175.027 50.984 175.411 50.92 175.779 50.792C176.147 50.648 176.483 50.464 176.787 50.24C177.107 50 177.379 49.736 177.603 49.448C177.827 49.144 177.987 48.824 178.083 48.488V45.2C177.875 44.656 177.579 44.184 177.195 43.784C176.811 43.368 176.379 43.048 175.899 42.824C175.419 42.6 174.931 42.488 174.435 42.488C173.859 42.488 173.339 42.616 172.875 42.872C172.427 43.112 172.043 43.44 171.723 43.856C171.403 44.256 171.155 44.712 170.979 45.224C170.803 45.736 170.715 46.264 170.715 46.808C170.715 47.384 170.811 47.92 171.003 48.416C171.211 48.912 171.491 49.36 171.843 49.76C172.195 50.144 172.611 50.448 173.091 50.672C173.571 50.88 174.083 50.984 174.627 50.984ZM189.577 53.24C188.601 53.24 187.713 53.072 186.913 52.736C186.129 52.384 185.449 51.912 184.873 51.32C184.297 50.712 183.849 50.024 183.529 49.256C183.225 48.472 183.073 47.64 183.073 46.76C183.073 45.576 183.345 44.496 183.889 43.52C184.433 42.528 185.193 41.736 186.169 41.144C187.145 40.536 188.289 40.232 189.601 40.232C190.913 40.232 192.041 40.536 192.985 41.144C193.945 41.736 194.689 42.52 195.217 43.496C195.745 44.472 196.009 45.52 196.009 46.64C196.009 46.832 196.001 47.016 195.985 47.192C195.969 47.352 195.953 47.488 195.937 47.6H185.881C185.929 48.336 186.129 48.984 186.481 49.544C186.849 50.088 187.313 50.52 187.873 50.84C188.433 51.144 189.033 51.296 189.673 51.296C190.377 51.296 191.041 51.12 191.665 50.768C192.305 50.416 192.737 49.952 192.961 49.376L195.217 50.024C194.945 50.632 194.529 51.184 193.969 51.68C193.425 52.16 192.777 52.544 192.025 52.832C191.273 53.104 190.457 53.24 189.577 53.24ZM185.809 45.848H193.393C193.345 45.128 193.137 44.496 192.769 43.952C192.417 43.392 191.961 42.96 191.401 42.656C190.857 42.336 190.249 42.176 189.577 42.176C188.921 42.176 188.313 42.336 187.753 42.656C187.209 42.96 186.761 43.392 186.409 43.952C186.057 44.496 185.857 45.128 185.809 45.848ZM202.626 53.24C201.57 53.24 200.57 53.072 199.626 52.736C198.682 52.384 197.874 51.864 197.202 51.176L198.186 49.4C198.906 50.04 199.626 50.504 200.346 50.792C201.082 51.08 201.81 51.224 202.53 51.224C203.266 51.224 203.866 51.088 204.33 50.816C204.794 50.528 205.026 50.112 205.026 49.568C205.026 49.168 204.906 48.872 204.666 48.68C204.426 48.488 204.074 48.32 203.61 48.176C203.162 48.032 202.618 47.872 201.978 47.696C201.082 47.424 200.33 47.144 199.722 46.856C199.114 46.552 198.658 46.184 198.354 45.752C198.05 45.32 197.898 44.768 197.898 44.096C197.898 43.28 198.106 42.584 198.522 42.008C198.938 41.432 199.514 40.992 200.25 40.688C201.002 40.384 201.866 40.232 202.842 40.232C203.754 40.232 204.594 40.376 205.362 40.664C206.146 40.936 206.834 41.368 207.426 41.96L206.298 43.712C205.738 43.2 205.162 42.824 204.57 42.584C203.994 42.344 203.37 42.224 202.698 42.224C202.314 42.224 201.946 42.272 201.594 42.368C201.242 42.448 200.946 42.608 200.706 42.848C200.482 43.072 200.37 43.392 200.37 43.808C200.37 44.144 200.466 44.416 200.658 44.624C200.85 44.832 201.138 45.008 201.522 45.152C201.906 45.296 202.378 45.456 202.938 45.632C203.914 45.92 204.746 46.208 205.434 46.496C206.122 46.768 206.65 47.128 207.018 47.576C207.402 48.008 207.594 48.608 207.594 49.376C207.594 50.592 207.138 51.544 206.226 52.232C205.33 52.904 204.13 53.24 202.626 53.24ZM216.912 52.352C216.688 52.464 216.408 52.584 216.072 52.712C215.736 52.84 215.352 52.952 214.92 53.048C214.504 53.144 214.072 53.192 213.624 53.192C213.08 53.192 212.576 53.096 212.112 52.904C211.648 52.712 211.272 52.408 210.984 51.992C210.712 51.56 210.576 51.008 210.576 50.336V42.488H208.92V40.448H210.576V36.32H213.216V40.448H215.952V42.488H213.216V49.496C213.248 49.928 213.384 50.248 213.624 50.456C213.88 50.664 214.192 50.768 214.56 50.768C214.928 50.768 215.28 50.704 215.616 50.576C215.952 50.448 216.2 50.344 216.36 50.264L216.912 52.352ZM103.33 85V67.96H106.018V85H103.33ZM120.789 85H118.149V77.968C118.149 76.8 117.957 75.944 117.573 75.4C117.205 74.856 116.653 74.584 115.917 74.584C115.405 74.584 114.893 74.712 114.381 74.968C113.885 75.224 113.437 75.576 113.037 76.024C112.637 76.456 112.349 76.96 112.173 77.536V85H109.533V72.448H111.933V74.968C112.253 74.408 112.669 73.928 113.181 73.528C113.709 73.112 114.301 72.792 114.957 72.568C115.613 72.344 116.309 72.232 117.045 72.232C117.797 72.232 118.413 72.368 118.893 72.64C119.389 72.912 119.773 73.288 120.045 73.768C120.333 74.232 120.525 74.776 120.621 75.4C120.733 76.008 120.789 76.656 120.789 77.344V85ZM130.744 84.352C130.52 84.464 130.24 84.584 129.904 84.712C129.568 84.84 129.184 84.952 128.752 85.048C128.336 85.144 127.904 85.192 127.456 85.192C126.912 85.192 126.408 85.096 125.944 84.904C125.48 84.712 125.104 84.408 124.816 83.992C124.544 83.56 124.408 83.008 124.408 82.336V74.488H122.752V72.448H124.408V68.32H127.048V72.448H129.784V74.488H127.048V81.496C127.08 81.928 127.216 82.248 127.456 82.456C127.712 82.664 128.024 82.768 128.392 82.768C128.76 82.768 129.112 82.704 129.448 82.576C129.784 82.448 130.032 82.344 130.192 82.264L130.744 84.352ZM138.096 85.24C137.12 85.24 136.232 85.072 135.432 84.736C134.648 84.384 133.968 83.912 133.392 83.32C132.816 82.712 132.368 82.024 132.048 81.256C131.744 80.472 131.592 79.64 131.592 78.76C131.592 77.576 131.864 76.496 132.408 75.52C132.952 74.528 133.712 73.736 134.688 73.144C135.664 72.536 136.808 72.232 138.12 72.232C139.432 72.232 140.56 72.536 141.504 73.144C142.464 73.736 143.208 74.52 143.736 75.496C144.264 76.472 144.528 77.52 144.528 78.64C144.528 78.832 144.52 79.016 144.504 79.192C144.488 79.352 144.472 79.488 144.456 79.6H134.4C134.448 80.336 134.648 80.984 135 81.544C135.368 82.088 135.832 82.52 136.392 82.84C136.952 83.144 137.552 83.296 138.192 83.296C138.896 83.296 139.56 83.12 140.184 82.768C140.824 82.416 141.256 81.952 141.48 81.376L143.736 82.024C143.464 82.632 143.048 83.184 142.488 83.68C141.944 84.16 141.296 84.544 140.544 84.832C139.792 85.104 138.976 85.24 138.096 85.24ZM134.328 77.848H141.912C141.864 77.128 141.656 76.496 141.288 75.952C140.936 75.392 140.48 74.96 139.92 74.656C139.376 74.336 138.768 74.176 138.096 74.176C137.44 74.176 136.832 74.336 136.272 74.656C135.728 74.96 135.28 75.392 134.928 75.952C134.576 76.496 134.376 77.128 134.328 77.848ZM153.738 74.728C152.714 74.744 151.802 74.976 151.002 75.424C150.218 75.872 149.658 76.504 149.322 77.32V85H146.682V72.448H149.13V75.256C149.562 74.392 150.13 73.704 150.834 73.192C151.538 72.664 152.282 72.376 153.066 72.328C153.226 72.328 153.354 72.328 153.45 72.328C153.562 72.328 153.658 72.336 153.738 72.352V74.728ZM159.162 85L154.386 72.448H157.122L160.698 82.552L164.274 72.448H166.818L162.042 85H159.162ZM173.979 85.24C173.003 85.24 172.115 85.072 171.315 84.736C170.531 84.384 169.851 83.912 169.275 83.32C168.699 82.712 168.251 82.024 167.931 81.256C167.627 80.472 167.475 79.64 167.475 78.76C167.475 77.576 167.747 76.496 168.291 75.52C168.835 74.528 169.595 73.736 170.571 73.144C171.547 72.536 172.691 72.232 174.003 72.232C175.315 72.232 176.443 72.536 177.387 73.144C178.347 73.736 179.091 74.52 179.619 75.496C180.147 76.472 180.411 77.52 180.411 78.64C180.411 78.832 180.403 79.016 180.387 79.192C180.371 79.352 180.355 79.488 180.339 79.6H170.283C170.331 80.336 170.531 80.984 170.883 81.544C171.251 82.088 171.715 82.52 172.275 82.84C172.835 83.144 173.435 83.296 174.075 83.296C174.779 83.296 175.443 83.12 176.067 82.768C176.707 82.416 177.139 81.952 177.363 81.376L179.619 82.024C179.347 82.632 178.931 83.184 178.371 83.68C177.827 84.16 177.179 84.544 176.427 84.832C175.675 85.104 174.859 85.24 173.979 85.24ZM170.211 77.848H177.795C177.747 77.128 177.539 76.496 177.171 75.952C176.819 75.392 176.363 74.96 175.803 74.656C175.259 74.336 174.651 74.176 173.979 74.176C173.323 74.176 172.715 74.336 172.155 74.656C171.611 74.96 171.163 75.392 170.811 75.952C170.459 76.496 170.259 77.128 170.211 77.848ZM193.82 85H191.18V77.968C191.18 76.8 190.988 75.944 190.604 75.4C190.236 74.856 189.684 74.584 188.948 74.584C188.436 74.584 187.924 74.712 187.412 74.968C186.916 75.224 186.468 75.576 186.068 76.024C185.668 76.456 185.38 76.96 185.204 77.536V85H182.564V72.448H184.964V74.968C185.284 74.408 185.7 73.928 186.212 73.528C186.74 73.112 187.332 72.792 187.988 72.568C188.644 72.344 189.34 72.232 190.076 72.232C190.828 72.232 191.444 72.368 191.924 72.64C192.42 72.912 192.804 73.288 193.076 73.768C193.364 74.232 193.556 74.776 193.652 75.4C193.764 76.008 193.82 76.656 193.82 77.344V85ZM203.775 84.352C203.551 84.464 203.271 84.584 202.935 84.712C202.599 84.84 202.215 84.952 201.783 85.048C201.367 85.144 200.935 85.192 200.487 85.192C199.943 85.192 199.439 85.096 198.975 84.904C198.511 84.712 198.135 84.408 197.847 83.992C197.575 83.56 197.439 83.008 197.439 82.336V74.488H195.783V72.448H197.439V68.32H200.079V72.448H202.815V74.488H200.079V81.496C200.111 81.928 200.247 82.248 200.487 82.456C200.743 82.664 201.055 82.768 201.423 82.768C201.791 82.768 202.143 82.704 202.479 82.576C202.815 82.448 203.063 82.344 203.223 82.264L203.775 84.352ZM205.604 85V72.448H208.244V85H205.604ZM205.604 70.384V67.48H208.244V70.384H205.604ZM217.056 85.24C216.064 85.24 215.176 85.072 214.392 84.736C213.608 84.384 212.928 83.904 212.352 83.296C211.792 82.688 211.36 82 211.056 81.232C210.752 80.448 210.6 79.616 210.6 78.736C210.6 77.856 210.752 77.024 211.056 76.24C211.36 75.456 211.792 74.768 212.352 74.176C212.928 73.568 213.608 73.096 214.392 72.76C215.192 72.408 216.08 72.232 217.056 72.232C218.032 72.232 218.912 72.408 219.696 72.76C220.496 73.096 221.176 73.568 221.736 74.176C222.312 74.768 222.752 75.456 223.056 76.24C223.36 77.024 223.512 77.856 223.512 78.736C223.512 79.616 223.36 80.448 223.056 81.232C222.752 82 222.312 82.688 221.736 83.296C221.176 83.904 220.496 84.384 219.696 84.736C218.912 85.072 218.032 85.24 217.056 85.24ZM213.312 78.76C213.312 79.56 213.48 80.28 213.816 80.92C214.152 81.56 214.6 82.064 215.16 82.432C215.72 82.8 216.352 82.984 217.056 82.984C217.744 82.984 218.368 82.8 218.928 82.432C219.504 82.048 219.96 81.536 220.296 80.896C220.632 80.24 220.8 79.52 220.8 78.736C220.8 77.936 220.632 77.216 220.296 76.576C219.96 75.936 219.504 75.432 218.928 75.064C218.368 74.68 217.744 74.488 217.056 74.488C216.352 74.488 215.72 74.68 215.16 75.064C214.6 75.448 214.152 75.96 213.816 76.6C213.48 77.224 213.312 77.944 213.312 78.76ZM237.11 85H234.47V77.968C234.47 76.8 234.278 75.944 233.894 75.4C233.526 74.856 232.974 74.584 232.238 74.584C231.726 74.584 231.214 74.712 230.702 74.968C230.206 75.224 229.758 75.576 229.358 76.024C228.958 76.456 228.67 76.96 228.494 77.536V85H225.854V72.448H228.254V74.968C228.574 74.408 228.99 73.928 229.502 73.528C230.03 73.112 230.622 72.792 231.278 72.568C231.934 72.344 232.63 72.232 233.366 72.232C234.118 72.232 234.734 72.368 235.214 72.64C235.71 72.912 236.094 73.288 236.366 73.768C236.654 74.232 236.846 74.776 236.942 75.4C237.054 76.008 237.11 76.656 237.11 77.344V85Z" fill="white"/>
</svg>
