<svg width="240" height="122" viewBox="0 0 240 122" fill="none" xmlns="http://www.w3.org/2000/svg">
<rect width="240" height="122" rx="20" fill="#C493FF"/>
<path d="M47.7325 53V35.96H54.8845C55.6525 35.96 56.3565 36.12 56.9965 36.44C57.6365 36.76 58.1965 37.184 58.6765 37.712C59.1565 38.24 59.5245 38.832 59.7805 39.488C60.0365 40.144 60.1645 40.816 60.1645 41.504C60.1645 42.448 59.9485 43.352 59.5165 44.216C59.1005 45.064 58.5005 45.752 57.7165 46.28C56.9485 46.808 56.0525 47.072 55.0285 47.072H50.4205V53H47.7325ZM50.4205 44.696H54.8605C55.3725 44.696 55.8205 44.56 56.2045 44.288C56.5885 44 56.8845 43.616 57.0925 43.136C57.3165 42.656 57.4285 42.112 57.4285 41.504C57.4285 40.88 57.3005 40.328 57.0445 39.848C56.7885 39.368 56.4525 39 56.0365 38.744C55.6365 38.472 55.1965 38.336 54.7165 38.336H50.4205V44.696ZM67.8033 53.24C66.8273 53.24 65.9393 53.072 65.1393 52.736C64.3553 52.384 63.6753 51.912 63.0993 51.32C62.5233 50.712 62.0753 50.024 61.7553 49.256C61.4513 48.472 61.2993 47.64 61.2993 46.76C61.2993 45.576 61.5713 44.496 62.1152 43.52C62.6593 42.528 63.4193 41.736 64.3953 41.144C65.3713 40.536 66.5153 40.232 67.8273 40.232C69.1393 40.232 70.2673 40.536 71.2113 41.144C72.1713 41.736 72.9153 42.52 73.4433 43.496C73.9713 44.472 74.2353 45.52 74.2353 46.64C74.2353 46.832 74.2273 47.016 74.2113 47.192C74.1953 47.352 74.1793 47.488 74.1633 47.6H64.1073C64.1553 48.336 64.3553 48.984 64.7073 49.544C65.0753 50.088 65.5393 50.52 66.0993 50.84C66.6593 51.144 67.2593 51.296 67.8993 51.296C68.6033 51.296 69.2673 51.12 69.8913 50.768C70.5313 50.416 70.9633 49.952 71.1873 49.376L73.4433 50.024C73.1713 50.632 72.7553 51.184 72.1953 51.68C71.6513 52.16 71.0033 52.544 70.2513 52.832C69.4993 53.104 68.6833 53.24 67.8033 53.24ZM64.0353 45.848H71.6193C71.5713 45.128 71.3633 44.496 70.9953 43.952C70.6433 43.392 70.1873 42.96 69.6273 42.656C69.0833 42.336 68.4753 42.176 67.8033 42.176C67.1473 42.176 66.5393 42.336 65.9793 42.656C65.4353 42.96 64.9873 43.392 64.6353 43.952C64.2833 44.496 64.0833 45.128 64.0353 45.848ZM83.4447 42.728C82.4207 42.744 81.5087 42.976 80.7087 43.424C79.9247 43.872 79.3647 44.504 79.0287 45.32V53H76.3887V40.448H78.8367V43.256C79.2687 42.392 79.8367 41.704 80.5407 41.192C81.2447 40.664 81.9887 40.376 82.7727 40.328C82.9327 40.328 83.0607 40.328 83.1567 40.328C83.2687 40.328 83.3647 40.336 83.4447 40.352V42.728ZM86.0853 53V42.8H84.4053V40.76H86.0853V40.256C86.0853 39.232 86.2453 38.344 86.5653 37.592C86.9013 36.84 87.3653 36.264 87.9573 35.864C88.5653 35.448 89.2773 35.24 90.0933 35.24C90.6053 35.24 91.1093 35.312 91.6053 35.456C92.1013 35.584 92.5733 35.768 93.0213 36.008L92.4453 37.976C92.2053 37.816 91.9173 37.696 91.5813 37.616C91.2613 37.52 90.9493 37.472 90.6453 37.472C90.0373 37.472 89.5653 37.704 89.2293 38.168C88.8933 38.632 88.7253 39.304 88.7253 40.184V40.76H91.9413V42.8H88.7253V53H86.0853ZM99.3256 53.24C98.3336 53.24 97.4456 53.072 96.6616 52.736C95.8776 52.384 95.1976 51.904 94.6216 51.296C94.0616 50.688 93.6296 50 93.3256 49.232C93.0216 48.448 92.8696 47.616 92.8696 46.736C92.8696 45.856 93.0216 45.024 93.3256 44.24C93.6296 43.456 94.0616 42.768 94.6216 42.176C95.1976 41.568 95.8776 41.096 96.6616 40.76C97.4616 40.408 98.3496 40.232 99.3256 40.232C100.302 40.232 101.182 40.408 101.966 40.76C102.766 41.096 103.446 41.568 104.006 42.176C104.582 42.768 105.022 43.456 105.326 44.24C105.63 45.024 105.782 45.856 105.782 46.736C105.782 47.616 105.63 48.448 105.326 49.232C105.022 50 104.582 50.688 104.006 51.296C103.446 51.904 102.766 52.384 101.966 52.736C101.182 53.072 100.302 53.24 99.3256 53.24ZM95.5816 46.76C95.5816 47.56 95.7496 48.28 96.0856 48.92C96.4216 49.56 96.8696 50.064 97.4296 50.432C97.9896 50.8 98.6216 50.984 99.3256 50.984C100.014 50.984 100.638 50.8 101.198 50.432C101.774 50.048 102.23 49.536 102.566 48.896C102.902 48.24 103.07 47.52 103.07 46.736C103.07 45.936 102.902 45.216 102.566 44.576C102.23 43.936 101.774 43.432 101.198 43.064C100.638 42.68 100.014 42.488 99.3256 42.488C98.6216 42.488 97.9896 42.68 97.4296 43.064C96.8696 43.448 96.4216 43.96 96.0856 44.6C95.7496 45.224 95.5816 45.944 95.5816 46.76ZM115.179 42.728C114.155 42.744 113.243 42.976 112.443 43.424C111.659 43.872 111.099 44.504 110.763 45.32V53H108.123V40.448H110.571V43.256C111.003 42.392 111.571 41.704 112.275 41.192C112.979 40.664 113.723 40.376 114.507 40.328C114.667 40.328 114.795 40.328 114.891 40.328C115.003 40.328 115.099 40.336 115.179 40.352V42.728ZM136.3 53H133.66V45.968C133.66 44.8 133.468 43.944 133.084 43.4C132.7 42.856 132.14 42.584 131.404 42.584C130.668 42.584 129.98 42.864 129.34 43.424C128.716 43.968 128.276 44.68 128.02 45.56V53H125.38V45.968C125.38 44.8 125.188 43.944 124.804 43.4C124.42 42.856 123.868 42.584 123.148 42.584C122.412 42.584 121.724 42.856 121.084 43.4C120.46 43.944 120.012 44.656 119.74 45.536V53H117.1V40.448H119.5V42.968C119.996 42.088 120.644 41.416 121.444 40.952C122.26 40.472 123.188 40.232 124.228 40.232C125.268 40.232 126.084 40.504 126.676 41.048C127.284 41.592 127.66 42.272 127.804 43.088C128.348 42.16 129.012 41.456 129.796 40.976C130.596 40.48 131.508 40.232 132.532 40.232C133.268 40.232 133.884 40.368 134.38 40.64C134.876 40.912 135.26 41.288 135.532 41.768C135.804 42.232 135.996 42.776 136.108 43.4C136.236 44.008 136.3 44.656 136.3 45.344V53ZM138.43 49.328C138.43 48.528 138.654 47.832 139.102 47.24C139.566 46.632 140.198 46.168 140.998 45.848C141.798 45.512 142.726 45.344 143.782 45.344C144.342 45.344 144.91 45.384 145.486 45.464C146.078 45.544 146.598 45.672 147.046 45.848V45.056C147.046 44.176 146.782 43.488 146.254 42.992C145.726 42.496 144.966 42.248 143.974 42.248C143.27 42.248 142.606 42.376 141.982 42.632C141.358 42.872 140.694 43.216 139.99 43.664L139.102 41.888C139.934 41.328 140.766 40.912 141.598 40.64C142.446 40.368 143.334 40.232 144.262 40.232C145.942 40.232 147.262 40.68 148.222 41.576C149.198 42.456 149.686 43.712 149.686 45.344V50.024C149.686 50.328 149.734 50.544 149.83 50.672C149.942 50.8 150.126 50.872 150.382 50.888V53C150.142 53.048 149.926 53.08 149.734 53.096C149.542 53.112 149.382 53.12 149.254 53.12C148.694 53.12 148.27 52.984 147.982 52.712C147.694 52.44 147.526 52.12 147.478 51.752L147.406 51.032C146.862 51.736 146.166 52.28 145.318 52.664C144.47 53.048 143.614 53.24 142.75 53.24C141.918 53.24 141.174 53.072 140.518 52.736C139.862 52.384 139.35 51.912 138.982 51.32C138.614 50.728 138.43 50.064 138.43 49.328ZM146.422 50.096C146.614 49.888 146.766 49.68 146.878 49.472C146.99 49.264 147.046 49.08 147.046 48.92V47.48C146.598 47.304 146.126 47.176 145.63 47.096C145.134 47 144.646 46.952 144.166 46.952C143.206 46.952 142.422 47.144 141.814 47.528C141.222 47.912 140.926 48.44 140.926 49.112C140.926 49.48 141.022 49.832 141.214 50.168C141.422 50.504 141.71 50.776 142.078 50.984C142.462 51.192 142.934 51.296 143.494 51.296C144.07 51.296 144.622 51.184 145.15 50.96C145.678 50.736 146.102 50.448 146.422 50.096ZM164.145 53H161.505V45.968C161.505 44.8 161.313 43.944 160.929 43.4C160.561 42.856 160.009 42.584 159.273 42.584C158.761 42.584 158.249 42.712 157.737 42.968C157.241 43.224 156.793 43.576 156.393 44.024C155.993 44.456 155.705 44.96 155.529 45.536V53H152.889V40.448H155.289V42.968C155.609 42.408 156.025 41.928 156.537 41.528C157.065 41.112 157.657 40.792 158.313 40.568C158.969 40.344 159.665 40.232 160.401 40.232C161.153 40.232 161.769 40.368 162.249 40.64C162.745 40.912 163.129 41.288 163.401 41.768C163.689 42.232 163.881 42.776 163.977 43.4C164.089 44.008 164.145 44.656 164.145 45.344V53ZM172.897 53.24C171.921 53.24 171.033 53.072 170.233 52.736C169.449 52.384 168.769 51.904 168.193 51.296C167.617 50.688 167.169 49.992 166.849 49.208C166.545 48.424 166.393 47.592 166.393 46.712C166.393 45.528 166.657 44.448 167.185 43.472C167.729 42.496 168.481 41.712 169.441 41.12C170.417 40.528 171.569 40.232 172.897 40.232C174.177 40.232 175.289 40.52 176.233 41.096C177.193 41.656 177.897 42.408 178.345 43.352L175.777 44.168C175.489 43.64 175.081 43.232 174.553 42.944C174.041 42.64 173.473 42.488 172.849 42.488C172.145 42.488 171.505 42.672 170.929 43.04C170.369 43.392 169.921 43.888 169.585 44.528C169.265 45.152 169.105 45.88 169.105 46.712C169.105 47.512 169.273 48.24 169.609 48.896C169.945 49.536 170.393 50.048 170.953 50.432C171.529 50.8 172.169 50.984 172.873 50.984C173.305 50.984 173.721 50.912 174.121 50.768C174.537 50.608 174.897 50.4 175.201 50.144C175.505 49.872 175.721 49.576 175.849 49.256L178.441 50.024C178.169 50.648 177.761 51.2 177.217 51.68C176.689 52.16 176.057 52.544 175.321 52.832C174.601 53.104 173.793 53.24 172.897 53.24ZM186.186 53.24C185.21 53.24 184.322 53.072 183.522 52.736C182.738 52.384 182.058 51.912 181.482 51.32C180.906 50.712 180.458 50.024 180.138 49.256C179.834 48.472 179.682 47.64 179.682 46.76C179.682 45.576 179.954 44.496 180.498 43.52C181.042 42.528 181.802 41.736 182.778 41.144C183.754 40.536 184.898 40.232 186.21 40.232C187.522 40.232 188.65 40.536 189.594 41.144C190.554 41.736 191.298 42.52 191.826 43.496C192.354 44.472 192.618 45.52 192.618 46.64C192.618 46.832 192.61 47.016 192.594 47.192C192.578 47.352 192.562 47.488 192.546 47.6H182.49C182.538 48.336 182.738 48.984 183.09 49.544C183.458 50.088 183.922 50.52 184.482 50.84C185.042 51.144 185.642 51.296 186.282 51.296C186.986 51.296 187.65 51.12 188.274 50.768C188.914 50.416 189.346 49.952 189.57 49.376L191.826 50.024C191.554 50.632 191.138 51.184 190.578 51.68C190.034 52.16 189.386 52.544 188.634 52.832C187.882 53.104 187.066 53.24 186.186 53.24ZM182.418 45.848H190.002C189.954 45.128 189.746 44.496 189.378 43.952C189.026 43.392 188.57 42.96 188.01 42.656C187.466 42.336 186.858 42.176 186.186 42.176C185.53 42.176 184.922 42.336 184.362 42.656C183.818 42.96 183.37 43.392 183.018 43.952C182.666 44.496 182.466 45.128 182.418 45.848ZM58.9689 76.36C58.9689 75.32 59.1529 74.304 59.5209 73.312C59.8889 72.304 60.4249 71.392 61.1289 70.576C61.8489 69.744 62.7209 69.088 63.7449 68.608C64.7689 68.112 65.9289 67.864 67.2249 67.864C68.7609 67.864 70.0889 68.216 71.2089 68.92C72.3289 69.608 73.1609 70.496 73.7049 71.584L71.5929 73C71.2729 72.312 70.8649 71.768 70.3689 71.368C69.8889 70.968 69.3609 70.688 68.7849 70.528C68.2249 70.368 67.6729 70.288 67.1289 70.288C66.2329 70.288 65.4489 70.472 64.7769 70.84C64.1049 71.192 63.5369 71.664 63.0729 72.256C62.6249 72.848 62.2809 73.512 62.0409 74.248C61.8169 74.984 61.7049 75.72 61.7049 76.456C61.7049 77.272 61.8409 78.064 62.1129 78.832C62.3849 79.584 62.7609 80.256 63.2409 80.848C63.7369 81.424 64.3209 81.88 64.9929 82.216C65.6649 82.552 66.4009 82.72 67.2009 82.72C67.7449 82.72 68.3129 82.624 68.9049 82.432C69.4969 82.24 70.0409 81.944 70.5369 81.544C71.0489 81.128 71.4489 80.584 71.7369 79.912L73.9689 81.184C73.6169 82.032 73.0649 82.752 72.3129 83.344C71.5769 83.936 70.7449 84.384 69.8169 84.688C68.9049 84.992 68.0009 85.144 67.1049 85.144C65.9049 85.144 64.8089 84.896 63.8169 84.4C62.8249 83.888 61.9689 83.216 61.2489 82.384C60.5289 81.536 59.9689 80.592 59.5689 79.552C59.1689 78.496 58.9689 77.432 58.9689 76.36ZM81.7357 85.24C80.7437 85.24 79.8557 85.072 79.0717 84.736C78.2877 84.384 77.6077 83.904 77.0317 83.296C76.4717 82.688 76.0397 82 75.7357 81.232C75.4317 80.448 75.2797 79.616 75.2797 78.736C75.2797 77.856 75.4317 77.024 75.7357 76.24C76.0397 75.456 76.4717 74.768 77.0317 74.176C77.6077 73.568 78.2877 73.096 79.0717 72.76C79.8717 72.408 80.7597 72.232 81.7357 72.232C82.7117 72.232 83.5917 72.408 84.3757 72.76C85.1757 73.096 85.8557 73.568 86.4157 74.176C86.9917 74.768 87.4317 75.456 87.7357 76.24C88.0397 77.024 88.1917 77.856 88.1917 78.736C88.1917 79.616 88.0397 80.448 87.7357 81.232C87.4317 82 86.9917 82.688 86.4157 83.296C85.8557 83.904 85.1757 84.384 84.3757 84.736C83.5917 85.072 82.7117 85.24 81.7357 85.24ZM77.9917 78.76C77.9917 79.56 78.1597 80.28 78.4957 80.92C78.8317 81.56 79.2797 82.064 79.8397 82.432C80.3997 82.8 81.0317 82.984 81.7357 82.984C82.4237 82.984 83.0477 82.8 83.6077 82.432C84.1837 82.048 84.6397 81.536 84.9757 80.896C85.3117 80.24 85.4797 79.52 85.4797 78.736C85.4797 77.936 85.3117 77.216 84.9757 76.576C84.6397 75.936 84.1837 75.432 83.6077 75.064C83.0477 74.68 82.4237 74.488 81.7357 74.488C81.0317 74.488 80.3997 74.68 79.8397 75.064C79.2797 75.448 78.8317 75.96 78.4957 76.6C78.1597 77.224 77.9917 77.944 77.9917 78.76ZM101.789 85H99.1492V77.968C99.1492 76.8 98.9572 75.944 98.5732 75.4C98.2052 74.856 97.6532 74.584 96.9172 74.584C96.4052 74.584 95.8932 74.712 95.3812 74.968C94.8852 75.224 94.4372 75.576 94.0372 76.024C93.6372 76.456 93.3492 76.96 93.1732 77.536V85H90.5332V72.448H92.9332V74.968C93.2532 74.408 93.6692 73.928 94.1812 73.528C94.7092 73.112 95.3012 72.792 95.9572 72.568C96.6132 72.344 97.3092 72.232 98.0452 72.232C98.7972 72.232 99.4132 72.368 99.8932 72.64C100.389 72.912 100.773 73.288 101.045 73.768C101.333 74.232 101.525 74.776 101.621 75.4C101.733 76.008 101.789 76.656 101.789 77.344V85ZM109.318 85.24C108.262 85.24 107.262 85.072 106.318 84.736C105.374 84.384 104.566 83.864 103.894 83.176L104.878 81.4C105.598 82.04 106.318 82.504 107.038 82.792C107.774 83.08 108.502 83.224 109.222 83.224C109.958 83.224 110.558 83.088 111.022 82.816C111.486 82.528 111.718 82.112 111.718 81.568C111.718 81.168 111.598 80.872 111.358 80.68C111.118 80.488 110.766 80.32 110.302 80.176C109.854 80.032 109.31 79.872 108.67 79.696C107.774 79.424 107.022 79.144 106.414 78.856C105.806 78.552 105.35 78.184 105.046 77.752C104.742 77.32 104.59 76.768 104.59 76.096C104.59 75.28 104.798 74.584 105.214 74.008C105.63 73.432 106.206 72.992 106.942 72.688C107.694 72.384 108.558 72.232 109.534 72.232C110.446 72.232 111.286 72.376 112.054 72.664C112.838 72.936 113.526 73.368 114.118 73.96L112.99 75.712C112.43 75.2 111.854 74.824 111.262 74.584C110.686 74.344 110.062 74.224 109.39 74.224C109.006 74.224 108.638 74.272 108.286 74.368C107.934 74.448 107.638 74.608 107.398 74.848C107.174 75.072 107.062 75.392 107.062 75.808C107.062 76.144 107.158 76.416 107.35 76.624C107.542 76.832 107.83 77.008 108.214 77.152C108.598 77.296 109.07 77.456 109.63 77.632C110.606 77.92 111.438 78.208 112.126 78.496C112.814 78.768 113.342 79.128 113.71 79.576C114.094 80.008 114.286 80.608 114.286 81.376C114.286 82.592 113.83 83.544 112.918 84.232C112.022 84.904 110.822 85.24 109.318 85.24ZM116.523 80.128V72.448H119.163V79.6C119.163 80.72 119.363 81.568 119.763 82.144C120.179 82.704 120.779 82.984 121.563 82.984C122.059 82.984 122.539 82.88 123.003 82.672C123.483 82.464 123.915 82.16 124.299 81.76C124.699 81.344 125.019 80.848 125.259 80.272V72.448H127.899V82.024C127.899 82.328 127.955 82.544 128.067 82.672C128.179 82.8 128.363 82.872 128.619 82.888V85C128.347 85.048 128.123 85.08 127.947 85.096C127.771 85.112 127.603 85.12 127.443 85.12C126.963 85.12 126.563 84.992 126.243 84.736C125.923 84.464 125.739 84.12 125.691 83.704L125.643 82.456C125.083 83.368 124.355 84.064 123.459 84.544C122.563 85.008 121.579 85.24 120.507 85.24C119.195 85.24 118.203 84.808 117.531 83.944C116.859 83.08 116.523 81.808 116.523 80.128ZM131.292 67.48H133.932V81.376C133.932 82.016 134.028 82.424 134.22 82.6C134.412 82.776 134.652 82.864 134.94 82.864C135.26 82.864 135.556 82.832 135.828 82.768C136.116 82.704 136.364 82.624 136.572 82.528L136.956 84.616C136.572 84.776 136.116 84.912 135.588 85.024C135.06 85.136 134.588 85.192 134.172 85.192C133.276 85.192 132.572 84.944 132.06 84.448C131.548 83.936 131.292 83.232 131.292 82.336V67.48ZM145.4 84.352C145.176 84.464 144.896 84.584 144.56 84.712C144.224 84.84 143.84 84.952 143.408 85.048C142.992 85.144 142.56 85.192 142.112 85.192C141.568 85.192 141.064 85.096 140.6 84.904C140.136 84.712 139.76 84.408 139.472 83.992C139.2 83.56 139.064 83.008 139.064 82.336V74.488H137.408V72.448H139.064V68.32H141.704V72.448H144.44V74.488H141.704V81.496C141.736 81.928 141.872 82.248 142.112 82.456C142.368 82.664 142.68 82.768 143.048 82.768C143.416 82.768 143.768 82.704 144.104 82.576C144.44 82.448 144.688 82.344 144.848 82.264L145.4 84.352ZM147.229 85V72.448H149.869V85H147.229ZM147.229 70.384V67.48H149.869V70.384H147.229ZM164.297 85H161.657V77.968C161.657 76.8 161.465 75.944 161.081 75.4C160.713 74.856 160.161 74.584 159.425 74.584C158.913 74.584 158.401 74.712 157.889 74.968C157.393 75.224 156.945 75.576 156.545 76.024C156.145 76.456 155.857 76.96 155.681 77.536V85H153.041V72.448H155.441V74.968C155.761 74.408 156.177 73.928 156.689 73.528C157.217 73.112 157.809 72.792 158.465 72.568C159.121 72.344 159.817 72.232 160.553 72.232C161.305 72.232 161.921 72.368 162.401 72.64C162.897 72.912 163.281 73.288 163.553 73.768C163.841 74.232 164.033 74.776 164.129 75.4C164.241 76.008 164.297 76.656 164.297 77.344V85ZM172.329 85.12C171.481 85.12 170.705 84.952 170.001 84.616C169.297 84.264 168.689 83.792 168.177 83.2C167.681 82.608 167.289 81.928 167.001 81.16C166.729 80.392 166.593 79.584 166.593 78.736C166.593 77.84 166.737 77 167.025 76.216C167.313 75.432 167.713 74.744 168.225 74.152C168.753 73.544 169.369 73.072 170.073 72.736C170.777 72.4 171.561 72.232 172.425 72.232C173.433 72.232 174.313 72.472 175.065 72.952C175.833 73.432 176.465 74.056 176.961 74.824V72.448H179.289V84.64C179.289 85.856 178.993 86.888 178.401 87.736C177.825 88.584 177.033 89.232 176.025 89.68C175.017 90.128 173.881 90.352 172.617 90.352C171.225 90.352 170.073 90.112 169.161 89.632C168.249 89.152 167.473 88.496 166.833 87.664L168.321 86.272C168.801 86.944 169.417 87.456 170.169 87.808C170.937 88.16 171.753 88.336 172.617 88.336C173.337 88.336 174.001 88.2 174.609 87.928C175.233 87.672 175.729 87.264 176.097 86.704C176.465 86.16 176.649 85.472 176.649 84.64V82.72C176.201 83.472 175.585 84.064 174.801 84.496C174.017 84.912 173.193 85.12 172.329 85.12ZM173.193 82.984C173.593 82.984 173.977 82.92 174.345 82.792C174.713 82.648 175.049 82.464 175.353 82.24C175.673 82 175.945 81.736 176.169 81.448C176.393 81.144 176.553 80.824 176.649 80.488V77.2C176.441 76.656 176.145 76.184 175.761 75.784C175.377 75.368 174.945 75.048 174.465 74.824C173.985 74.6 173.497 74.488 173.001 74.488C172.425 74.488 171.905 74.616 171.441 74.872C170.993 75.112 170.609 75.44 170.289 75.856C169.969 76.256 169.721 76.712 169.545 77.224C169.369 77.736 169.281 78.264 169.281 78.808C169.281 79.384 169.377 79.92 169.569 80.416C169.777 80.912 170.057 81.36 170.409 81.76C170.761 82.144 171.177 82.448 171.657 82.672C172.137 82.88 172.649 82.984 173.193 82.984Z" fill="white"/>
</svg>
