<svg width="240" height="122" viewBox="0 0 240 122" fill="none" xmlns="http://www.w3.org/2000/svg">
<rect width="240" height="122" rx="20" fill="#C493FF"/>
<path d="M75.7018 49.624V52H64.0138V34.96H75.4858V37.336H66.7018V42.184H74.3098V44.416H66.7018V49.624H75.7018ZM81.3614 52L76.5854 39.448H79.3214L82.8974 49.552L86.4734 39.448H89.0174L84.2414 52H81.3614ZM89.6954 48.328C89.6954 47.528 89.9194 46.832 90.3674 46.24C90.8314 45.632 91.4634 45.168 92.2634 44.848C93.0634 44.512 93.9914 44.344 95.0474 44.344C95.6074 44.344 96.1754 44.384 96.7514 44.464C97.3434 44.544 97.8634 44.672 98.3114 44.848V44.056C98.3114 43.176 98.0474 42.488 97.5194 41.992C96.9914 41.496 96.2314 41.248 95.2394 41.248C94.5354 41.248 93.8714 41.376 93.2474 41.632C92.6234 41.872 91.9594 42.216 91.2554 42.664L90.3674 40.888C91.1994 40.328 92.0314 39.912 92.8634 39.64C93.7114 39.368 94.5994 39.232 95.5274 39.232C97.2074 39.232 98.5274 39.68 99.4874 40.576C100.463 41.456 100.951 42.712 100.951 44.344V49.024C100.951 49.328 100.999 49.544 101.095 49.672C101.207 49.8 101.391 49.872 101.647 49.888V52C101.407 52.048 101.191 52.08 100.999 52.096C100.807 52.112 100.647 52.12 100.519 52.12C99.9594 52.12 99.5354 51.984 99.2474 51.712C98.9594 51.44 98.7914 51.12 98.7434 50.752L98.6714 50.032C98.1274 50.736 97.4314 51.28 96.5834 51.664C95.7354 52.048 94.8794 52.24 94.0154 52.24C93.1834 52.24 92.4394 52.072 91.7834 51.736C91.1274 51.384 90.6154 50.912 90.2474 50.32C89.8794 49.728 89.6954 49.064 89.6954 48.328ZM97.6874 49.096C97.8794 48.888 98.0314 48.68 98.1434 48.472C98.2554 48.264 98.3114 48.08 98.3114 47.92V46.48C97.8634 46.304 97.3914 46.176 96.8954 46.096C96.3994 46 95.9114 45.952 95.4314 45.952C94.4714 45.952 93.6874 46.144 93.0794 46.528C92.4874 46.912 92.1914 47.44 92.1914 48.112C92.1914 48.48 92.2874 48.832 92.4794 49.168C92.6874 49.504 92.9754 49.776 93.3434 49.984C93.7274 50.192 94.1994 50.296 94.7594 50.296C95.3354 50.296 95.8874 50.184 96.4154 49.96C96.9434 49.736 97.3674 49.448 97.6874 49.096ZM104.178 34.48H106.818V48.376C106.818 49.016 106.914 49.424 107.106 49.6C107.298 49.776 107.538 49.864 107.826 49.864C108.146 49.864 108.442 49.832 108.714 49.768C109.002 49.704 109.25 49.624 109.458 49.528L109.842 51.616C109.458 51.776 109.002 51.912 108.474 52.024C107.946 52.136 107.474 52.192 107.058 52.192C106.162 52.192 105.458 51.944 104.946 51.448C104.434 50.936 104.178 50.232 104.178 49.336V34.48ZM111.253 47.128V39.448H113.893V46.6C113.893 47.72 114.093 48.568 114.493 49.144C114.909 49.704 115.509 49.984 116.293 49.984C116.789 49.984 117.269 49.88 117.733 49.672C118.213 49.464 118.645 49.16 119.029 48.76C119.429 48.344 119.749 47.848 119.989 47.272V39.448H122.629V49.024C122.629 49.328 122.685 49.544 122.797 49.672C122.909 49.8 123.093 49.872 123.349 49.888V52C123.077 52.048 122.853 52.08 122.677 52.096C122.501 52.112 122.333 52.12 122.173 52.12C121.693 52.12 121.293 51.992 120.973 51.736C120.653 51.464 120.469 51.12 120.421 50.704L120.373 49.456C119.813 50.368 119.085 51.064 118.189 51.544C117.293 52.008 116.309 52.24 115.237 52.24C113.925 52.24 112.933 51.808 112.261 50.944C111.589 50.08 111.253 48.808 111.253 47.128ZM125.086 48.328C125.086 47.528 125.31 46.832 125.758 46.24C126.222 45.632 126.854 45.168 127.654 44.848C128.454 44.512 129.382 44.344 130.438 44.344C130.998 44.344 131.566 44.384 132.142 44.464C132.734 44.544 133.254 44.672 133.702 44.848V44.056C133.702 43.176 133.438 42.488 132.91 41.992C132.382 41.496 131.622 41.248 130.63 41.248C129.926 41.248 129.262 41.376 128.638 41.632C128.014 41.872 127.35 42.216 126.646 42.664L125.758 40.888C126.59 40.328 127.422 39.912 128.254 39.64C129.102 39.368 129.99 39.232 130.918 39.232C132.598 39.232 133.918 39.68 134.878 40.576C135.854 41.456 136.342 42.712 136.342 44.344V49.024C136.342 49.328 136.39 49.544 136.486 49.672C136.598 49.8 136.782 49.872 137.038 49.888V52C136.798 52.048 136.582 52.08 136.39 52.096C136.198 52.112 136.038 52.12 135.91 52.12C135.35 52.12 134.926 51.984 134.638 51.712C134.35 51.44 134.182 51.12 134.134 50.752L134.062 50.032C133.518 50.736 132.822 51.28 131.974 51.664C131.126 52.048 130.27 52.24 129.406 52.24C128.574 52.24 127.83 52.072 127.174 51.736C126.518 51.384 126.006 50.912 125.638 50.32C125.27 49.728 125.086 49.064 125.086 48.328ZM133.078 49.096C133.27 48.888 133.422 48.68 133.534 48.472C133.646 48.264 133.702 48.08 133.702 47.92V46.48C133.254 46.304 132.782 46.176 132.286 46.096C131.79 46 131.302 45.952 130.822 45.952C129.862 45.952 129.078 46.144 128.47 46.528C127.878 46.912 127.582 47.44 127.582 48.112C127.582 48.48 127.678 48.832 127.87 49.168C128.078 49.504 128.366 49.776 128.734 49.984C129.118 50.192 129.59 50.296 130.15 50.296C130.726 50.296 131.278 50.184 131.806 49.96C132.334 49.736 132.758 49.448 133.078 49.096ZM146.435 51.352C146.211 51.464 145.931 51.584 145.595 51.712C145.259 51.84 144.875 51.952 144.443 52.048C144.027 52.144 143.595 52.192 143.147 52.192C142.603 52.192 142.099 52.096 141.635 51.904C141.171 51.712 140.795 51.408 140.507 50.992C140.235 50.56 140.099 50.008 140.099 49.336V41.488H138.443V39.448H140.099V35.32H142.739V39.448H145.475V41.488H142.739V48.496C142.771 48.928 142.907 49.248 143.147 49.456C143.403 49.664 143.715 49.768 144.083 49.768C144.451 49.768 144.803 49.704 145.139 49.576C145.475 49.448 145.723 49.344 145.883 49.264L146.435 51.352ZM148.264 52V39.448H150.904V52H148.264ZM148.264 37.384V34.48H150.904V37.384H148.264ZM165.332 52H162.692V44.968C162.692 43.8 162.5 42.944 162.116 42.4C161.748 41.856 161.196 41.584 160.46 41.584C159.948 41.584 159.436 41.712 158.924 41.968C158.428 42.224 157.98 42.576 157.58 43.024C157.18 43.456 156.892 43.96 156.716 44.536V52H154.076V39.448H156.476V41.968C156.796 41.408 157.212 40.928 157.724 40.528C158.252 40.112 158.844 39.792 159.5 39.568C160.156 39.344 160.852 39.232 161.588 39.232C162.34 39.232 162.956 39.368 163.436 39.64C163.932 39.912 164.316 40.288 164.588 40.768C164.876 41.232 165.068 41.776 165.164 42.4C165.276 43.008 165.332 43.656 165.332 44.344V52ZM173.365 52.12C172.517 52.12 171.741 51.952 171.037 51.616C170.333 51.264 169.725 50.792 169.213 50.2C168.717 49.608 168.325 48.928 168.037 48.16C167.765 47.392 167.629 46.584 167.629 45.736C167.629 44.84 167.773 44 168.061 43.216C168.349 42.432 168.749 41.744 169.261 41.152C169.789 40.544 170.405 40.072 171.109 39.736C171.813 39.4 172.597 39.232 173.461 39.232C174.469 39.232 175.349 39.472 176.101 39.952C176.869 40.432 177.501 41.056 177.997 41.824V39.448H180.325V51.64C180.325 52.856 180.029 53.888 179.437 54.736C178.861 55.584 178.069 56.232 177.061 56.68C176.053 57.128 174.917 57.352 173.653 57.352C172.261 57.352 171.109 57.112 170.197 56.632C169.285 56.152 168.509 55.496 167.869 54.664L169.357 53.272C169.837 53.944 170.453 54.456 171.205 54.808C171.973 55.16 172.789 55.336 173.653 55.336C174.373 55.336 175.037 55.2 175.645 54.928C176.269 54.672 176.765 54.264 177.133 53.704C177.501 53.16 177.685 52.472 177.685 51.64V49.72C177.237 50.472 176.621 51.064 175.837 51.496C175.053 51.912 174.229 52.12 173.365 52.12ZM174.229 49.984C174.629 49.984 175.013 49.92 175.381 49.792C175.749 49.648 176.085 49.464 176.389 49.24C176.709 49 176.981 48.736 177.205 48.448C177.429 48.144 177.589 47.824 177.685 47.488V44.2C177.477 43.656 177.181 43.184 176.797 42.784C176.413 42.368 175.981 42.048 175.501 41.824C175.021 41.6 174.533 41.488 174.037 41.488C173.461 41.488 172.941 41.616 172.477 41.872C172.029 42.112 171.645 42.44 171.325 42.856C171.005 43.256 170.757 43.712 170.581 44.224C170.405 44.736 170.317 45.264 170.317 45.808C170.317 46.384 170.413 46.92 170.605 47.416C170.813 47.912 171.093 48.36 171.445 48.76C171.797 49.144 172.213 49.448 172.693 49.672C173.173 49.88 173.685 49.984 174.229 49.984ZM60.4557 81.624V84H48.7677V66.96H60.2397V69.336H51.4557V74.184H59.0637V76.416H51.4557V81.624H60.4557ZM63.4251 84V73.8H61.7451V71.76H63.4251V71.568C63.4251 70.768 63.5931 70.032 63.9291 69.36C64.2651 68.688 64.7451 68.152 65.3691 67.752C66.0091 67.336 66.7611 67.128 67.6251 67.128C68.2171 67.128 68.7611 67.2 69.2571 67.344C69.7531 67.488 70.2411 67.672 70.7211 67.896L70.0971 69.936C69.7451 69.728 69.4091 69.584 69.0891 69.504C68.7851 69.424 68.4731 69.384 68.1531 69.384C67.8011 69.384 67.4971 69.448 67.2411 69.576C66.9851 69.688 66.7691 69.848 66.5931 70.056C66.4171 70.248 66.2811 70.472 66.1851 70.728C66.1051 70.968 66.0651 71.216 66.0651 71.472V71.76H69.2811V73.8H66.0651V84H63.4251ZM69.4491 84V73.8H67.7691V71.76H69.4491V71.256C69.4491 70.232 69.6091 69.344 69.9291 68.592C70.2491 67.84 70.7131 67.264 71.3211 66.864C71.9291 66.448 72.6411 66.24 73.4571 66.24C73.9531 66.24 74.4491 66.312 74.9451 66.456C75.4571 66.584 75.9291 66.768 76.3611 67.008L75.7851 68.976C75.5611 68.816 75.2811 68.696 74.9451 68.616C74.6251 68.52 74.3131 68.472 74.0091 68.472C73.3851 68.472 72.9051 68.704 72.5691 69.168C72.2491 69.632 72.0891 70.304 72.0891 71.184V71.76H75.2811V73.8H72.0891V84H69.4491ZM83.0415 84.24C82.0655 84.24 81.1775 84.072 80.3775 83.736C79.5935 83.384 78.9135 82.912 78.3375 82.32C77.7615 81.712 77.3135 81.024 76.9935 80.256C76.6895 79.472 76.5375 78.64 76.5375 77.76C76.5375 76.576 76.8095 75.496 77.3535 74.52C77.8975 73.528 78.6575 72.736 79.6335 72.144C80.6095 71.536 81.7535 71.232 83.0655 71.232C84.3775 71.232 85.5055 71.536 86.4495 72.144C87.4095 72.736 88.1535 73.52 88.6815 74.496C89.2095 75.472 89.4735 76.52 89.4735 77.64C89.4735 77.832 89.4655 78.016 89.4495 78.192C89.4335 78.352 89.4175 78.488 89.4015 78.6H79.3455C79.3935 79.336 79.5935 79.984 79.9455 80.544C80.3135 81.088 80.7775 81.52 81.3375 81.84C81.8975 82.144 82.4975 82.296 83.1375 82.296C83.8415 82.296 84.5055 82.12 85.1295 81.768C85.7695 81.416 86.2015 80.952 86.4255 80.376L88.6815 81.024C88.4095 81.632 87.9935 82.184 87.4335 82.68C86.8895 83.16 86.2415 83.544 85.4895 83.832C84.7375 84.104 83.9215 84.24 83.0415 84.24ZM79.2735 76.848H86.8575C86.8095 76.128 86.6015 75.496 86.2335 74.952C85.8815 74.392 85.4255 73.96 84.8655 73.656C84.3215 73.336 83.7135 73.176 83.0415 73.176C82.3855 73.176 81.7775 73.336 81.2175 73.656C80.6735 73.96 80.2255 74.392 79.8735 74.952C79.5215 75.496 79.3215 76.128 79.2735 76.848ZM97.315 84.24C96.339 84.24 95.451 84.072 94.651 83.736C93.867 83.384 93.187 82.904 92.611 82.296C92.035 81.688 91.587 80.992 91.267 80.208C90.963 79.424 90.811 78.592 90.811 77.712C90.811 76.528 91.075 75.448 91.603 74.472C92.147 73.496 92.899 72.712 93.859 72.12C94.835 71.528 95.987 71.232 97.315 71.232C98.595 71.232 99.707 71.52 100.651 72.096C101.611 72.656 102.315 73.408 102.763 74.352L100.195 75.168C99.907 74.64 99.499 74.232 98.971 73.944C98.459 73.64 97.891 73.488 97.267 73.488C96.563 73.488 95.923 73.672 95.347 74.04C94.787 74.392 94.339 74.888 94.003 75.528C93.683 76.152 93.523 76.88 93.523 77.712C93.523 78.512 93.691 79.24 94.027 79.896C94.363 80.536 94.811 81.048 95.371 81.432C95.947 81.8 96.587 81.984 97.291 81.984C97.723 81.984 98.139 81.912 98.539 81.768C98.955 81.608 99.315 81.4 99.619 81.144C99.923 80.872 100.139 80.576 100.267 80.256L102.859 81.024C102.587 81.648 102.179 82.2 101.635 82.68C101.107 83.16 100.475 83.544 99.739 83.832C99.019 84.104 98.211 84.24 97.315 84.24ZM112.017 83.352C111.793 83.464 111.513 83.584 111.177 83.712C110.841 83.84 110.457 83.952 110.025 84.048C109.609 84.144 109.177 84.192 108.729 84.192C108.185 84.192 107.681 84.096 107.217 83.904C106.753 83.712 106.377 83.408 106.089 82.992C105.817 82.56 105.681 82.008 105.681 81.336V73.488H104.025V71.448H105.681V67.32H108.321V71.448H111.057V73.488H108.321V80.496C108.353 80.928 108.489 81.248 108.729 81.456C108.985 81.664 109.297 81.768 109.665 81.768C110.033 81.768 110.385 81.704 110.721 81.576C111.057 81.448 111.305 81.344 111.465 81.264L112.017 83.352ZM113.846 84V71.448H116.486V84H113.846ZM113.846 69.384V66.48H116.486V69.384H113.846ZM123.162 84L118.386 71.448H121.122L124.698 81.552L128.274 71.448H130.818L126.042 84H123.162ZM137.979 84.24C137.003 84.24 136.115 84.072 135.315 83.736C134.531 83.384 133.851 82.912 133.275 82.32C132.699 81.712 132.251 81.024 131.931 80.256C131.627 79.472 131.475 78.64 131.475 77.76C131.475 76.576 131.747 75.496 132.291 74.52C132.835 73.528 133.595 72.736 134.571 72.144C135.547 71.536 136.691 71.232 138.003 71.232C139.315 71.232 140.443 71.536 141.387 72.144C142.347 72.736 143.091 73.52 143.619 74.496C144.147 75.472 144.411 76.52 144.411 77.64C144.411 77.832 144.403 78.016 144.387 78.192C144.371 78.352 144.355 78.488 144.339 78.6H134.283C134.331 79.336 134.531 79.984 134.883 80.544C135.251 81.088 135.715 81.52 136.275 81.84C136.835 82.144 137.435 82.296 138.075 82.296C138.779 82.296 139.443 82.12 140.067 81.768C140.707 81.416 141.139 80.952 141.363 80.376L143.619 81.024C143.347 81.632 142.931 82.184 142.371 82.68C141.827 83.16 141.179 83.544 140.427 83.832C139.675 84.104 138.859 84.24 137.979 84.24ZM134.211 76.848H141.795C141.747 76.128 141.539 75.496 141.171 74.952C140.819 74.392 140.363 73.96 139.803 73.656C139.259 73.336 138.651 73.176 137.979 73.176C137.323 73.176 136.715 73.336 136.155 73.656C135.611 73.96 135.163 74.392 134.811 74.952C134.459 75.496 134.259 76.128 134.211 76.848ZM157.82 84H155.18V76.968C155.18 75.8 154.988 74.944 154.604 74.4C154.236 73.856 153.684 73.584 152.948 73.584C152.436 73.584 151.924 73.712 151.412 73.968C150.916 74.224 150.468 74.576 150.068 75.024C149.668 75.456 149.38 75.96 149.204 76.536V84H146.564V71.448H148.964V73.968C149.284 73.408 149.7 72.928 150.212 72.528C150.74 72.112 151.332 71.792 151.988 71.568C152.644 71.344 153.34 71.232 154.076 71.232C154.828 71.232 155.444 71.368 155.924 71.64C156.42 71.912 156.804 72.288 157.076 72.768C157.364 73.232 157.556 73.776 157.652 74.4C157.764 75.008 157.82 75.656 157.82 76.344V84ZM166.573 84.24C165.597 84.24 164.709 84.072 163.909 83.736C163.125 83.384 162.445 82.912 161.869 82.32C161.293 81.712 160.845 81.024 160.525 80.256C160.221 79.472 160.069 78.64 160.069 77.76C160.069 76.576 160.341 75.496 160.885 74.52C161.429 73.528 162.189 72.736 163.165 72.144C164.141 71.536 165.285 71.232 166.597 71.232C167.909 71.232 169.037 71.536 169.981 72.144C170.941 72.736 171.685 73.52 172.213 74.496C172.741 75.472 173.005 76.52 173.005 77.64C173.005 77.832 172.997 78.016 172.981 78.192C172.965 78.352 172.949 78.488 172.933 78.6H162.877C162.925 79.336 163.125 79.984 163.477 80.544C163.845 81.088 164.309 81.52 164.869 81.84C165.429 82.144 166.029 82.296 166.669 82.296C167.373 82.296 168.037 82.12 168.661 81.768C169.301 81.416 169.733 80.952 169.957 80.376L172.213 81.024C171.941 81.632 171.525 82.184 170.965 82.68C170.421 83.16 169.773 83.544 169.021 83.832C168.269 84.104 167.453 84.24 166.573 84.24ZM162.805 76.848H170.389C170.341 76.128 170.133 75.496 169.765 74.952C169.413 74.392 168.957 73.96 168.397 73.656C167.853 73.336 167.245 73.176 166.573 73.176C165.917 73.176 165.309 73.336 164.749 73.656C164.205 73.96 163.757 74.392 163.405 74.952C163.053 75.496 162.853 76.128 162.805 76.848ZM179.622 84.24C178.566 84.24 177.566 84.072 176.622 83.736C175.678 83.384 174.87 82.864 174.198 82.176L175.182 80.4C175.902 81.04 176.622 81.504 177.342 81.792C178.078 82.08 178.806 82.224 179.526 82.224C180.262 82.224 180.862 82.088 181.326 81.816C181.79 81.528 182.022 81.112 182.022 80.568C182.022 80.168 181.902 79.872 181.662 79.68C181.422 79.488 181.07 79.32 180.606 79.176C180.158 79.032 179.614 78.872 178.974 78.696C178.078 78.424 177.326 78.144 176.718 77.856C176.11 77.552 175.654 77.184 175.35 76.752C175.046 76.32 174.894 75.768 174.894 75.096C174.894 74.28 175.102 73.584 175.518 73.008C175.934 72.432 176.51 71.992 177.246 71.688C177.998 71.384 178.862 71.232 179.838 71.232C180.75 71.232 181.59 71.376 182.358 71.664C183.142 71.936 183.83 72.368 184.422 72.96L183.294 74.712C182.734 74.2 182.158 73.824 181.566 73.584C180.99 73.344 180.366 73.224 179.694 73.224C179.31 73.224 178.942 73.272 178.59 73.368C178.238 73.448 177.942 73.608 177.702 73.848C177.478 74.072 177.366 74.392 177.366 74.808C177.366 75.144 177.462 75.416 177.654 75.624C177.846 75.832 178.134 76.008 178.518 76.152C178.902 76.296 179.374 76.456 179.934 76.632C180.91 76.92 181.742 77.208 182.43 77.496C183.118 77.768 183.646 78.128 184.014 78.576C184.398 79.008 184.59 79.608 184.59 80.376C184.59 81.592 184.134 82.544 183.222 83.232C182.326 83.904 181.126 84.24 179.622 84.24ZM191.411 84.24C190.355 84.24 189.355 84.072 188.411 83.736C187.467 83.384 186.659 82.864 185.987 82.176L186.971 80.4C187.691 81.04 188.411 81.504 189.131 81.792C189.867 82.08 190.595 82.224 191.315 82.224C192.051 82.224 192.651 82.088 193.115 81.816C193.579 81.528 193.811 81.112 193.811 80.568C193.811 80.168 193.691 79.872 193.451 79.68C193.211 79.488 192.859 79.32 192.395 79.176C191.947 79.032 191.403 78.872 190.763 78.696C189.867 78.424 189.115 78.144 188.507 77.856C187.899 77.552 187.443 77.184 187.139 76.752C186.835 76.32 186.683 75.768 186.683 75.096C186.683 74.28 186.891 73.584 187.307 73.008C187.723 72.432 188.299 71.992 189.035 71.688C189.787 71.384 190.651 71.232 191.627 71.232C192.539 71.232 193.379 71.376 194.147 71.664C194.931 71.936 195.619 72.368 196.211 72.96L195.083 74.712C194.523 74.2 193.947 73.824 193.355 73.584C192.779 73.344 192.155 73.224 191.483 73.224C191.099 73.224 190.731 73.272 190.379 73.368C190.027 73.448 189.731 73.608 189.491 73.848C189.267 74.072 189.155 74.392 189.155 74.808C189.155 75.144 189.251 75.416 189.443 75.624C189.635 75.832 189.923 76.008 190.307 76.152C190.691 76.296 191.163 76.456 191.723 76.632C192.699 76.92 193.531 77.208 194.219 77.496C194.907 77.768 195.435 78.128 195.803 78.576C196.187 79.008 196.379 79.608 196.379 80.376C196.379 81.592 195.923 82.544 195.011 83.232C194.115 83.904 192.915 84.24 191.411 84.24Z" fill="white"/>
</svg>
