<svg width="85" height="85" viewBox="0 0 85 85" fill="none" xmlns="http://www.w3.org/2000/svg">
<rect width="85" height="85" rx="20" fill="#603F87"/>
<path d="M19.1508 47.1513L19.1498 47.1503C18.0608 46.0606 17.2735 44.6942 16.8725 43.1977C16.2629 40.9217 16.5761 38.5454 17.7543 36.5042C18.9336 34.4627 20.8352 33.0031 23.1115 32.3945C26.146 31.5806 29.4144 32.4581 31.639 34.6827C31.9843 35.028 32.3026 35.4044 32.5848 35.8008C32.7669 36.0559 33.2457 36.659 33.8843 37.2976C34.8057 38.219 36.5616 39.7074 37.9716 39.3313L38.4937 39.1897L43.4035 20.8727C44.5597 16.5579 50.9214 16.4694 51.192 16.4684C51.3684 16.467 51.5323 16.5484 51.6438 16.6883C51.7509 16.8279 51.7877 17.01 51.7421 17.1806L46.4123 37.0665L66.2992 31.7377C66.4698 31.6921 66.6513 31.7282 66.7915 31.836C66.9303 31.9472 67.0121 32.1107 67.0108 32.2871C67.0094 32.5574 66.9236 38.9218 62.6095 40.0787L44.2911 44.9865L44.1502 45.5119C43.7734 46.9198 45.2625 48.6758 46.1839 49.5972C46.8229 50.2355 47.4263 50.7153 47.6818 50.8978C48.0771 51.1789 48.4531 51.4968 48.7988 51.8425C51.0238 54.0674 51.9009 57.3355 51.0876 60.3707C50.4774 62.646 49.0174 64.5479 46.9766 65.7265C44.9354 66.9047 42.5581 67.2176 40.2818 66.607C38.7853 66.2059 37.4185 65.419 36.3299 64.3303C34.1495 62.15 33.2619 58.9485 34.0039 55.9609C34.0066 55.938 34.0106 55.915 34.0174 55.8927C34.0174 55.8927 35.0212 52.152 36.3718 47.1077L27.5878 49.4631C27.5648 49.4692 27.5415 49.4736 27.5185 49.4763C24.5316 50.2183 21.3305 49.3303 19.1508 47.1513ZM30.8389 35.4828C28.8995 33.5433 26.0501 32.7787 23.4044 33.4883C21.4204 34.0187 19.7617 35.2909 18.7345 37.0702C17.7077 38.8491 17.4344 40.9214 17.9659 42.9044C18.3152 44.2087 19.0025 45.4007 19.9506 46.3495L19.9516 46.3505C21.8661 48.265 24.6843 49.037 27.3046 48.3623C27.3229 48.3582 27.3408 48.3545 27.359 48.3511L37.0259 45.7602C37.4168 45.6558 37.824 46.063 37.7192 46.4536C36.3488 51.5725 35.275 55.5704 35.128 56.1208C35.125 56.138 35.1212 56.1559 35.1165 56.1742C34.4428 58.7955 35.2145 61.6134 37.13 63.5289C38.0788 64.4777 39.2698 65.1639 40.5744 65.5129C42.5584 66.0454 44.631 65.7731 46.41 64.7456C48.1889 63.7188 49.4617 62.0614 49.9939 60.0777C50.7031 57.4318 49.9385 54.5824 47.9984 52.6422C47.6973 52.3412 47.3709 52.0648 47.0242 51.8188C46.6711 51.5664 46.0305 51.0434 45.3835 50.3977C44.0471 49.0614 42.5591 47.078 43.0578 45.2183L43.2839 44.3779C43.3356 44.1823 43.4876 44.0303 43.6839 43.9779L62.3175 38.9853C65.0358 38.2565 65.6815 34.6286 65.8332 33.0342L45.7592 38.4136C45.3686 38.5184 44.9614 38.1112 45.0659 37.7203L50.445 17.6479C48.8502 17.8034 45.223 18.4531 44.4969 21.1653L39.5033 39.7979C39.4509 39.9922 39.2985 40.1446 39.1039 40.1973L38.2642 40.424C36.4025 40.9214 34.4195 39.433 33.0835 38.0984C32.4378 37.4527 31.9151 36.811 31.663 36.4583C31.417 36.1116 31.14 35.7839 30.8389 35.4828ZM42.5392 40.8511C41.9022 40.2142 40.8649 40.2135 40.229 40.8494C39.5938 41.4846 39.5955 42.5209 40.2324 43.1578C40.8687 43.7941 41.9036 43.7944 42.5388 43.1592C43.1744 42.5236 43.1754 41.4873 42.5392 40.8511Z" fill="#FF82EB" stroke="#FF82EB" stroke-width="2"/>
</svg>
