<svg width="85" height="85" viewBox="0 0 85 85" fill="none" xmlns="http://www.w3.org/2000/svg">
<rect width="85" height="85" rx="20" fill="#603F87"/>
<path d="M66 41.4444C66 41.857 65.8453 42.2527 65.5698 42.5444C65.2944 42.8361 64.9208 43 64.5312 43C63.2094 43 62.6395 43.4822 61.7759 44.2133C60.7801 45.0596 59.5375 46.1111 57.1875 46.1111C54.8375 46.1111 53.5949 45.0596 52.5962 44.2133C51.7326 43.4822 51.1627 43 49.8408 43C48.5189 43 47.952 43.4822 47.0884 44.2133C46.0896 45.0596 44.85 46.1111 42.5 46.1111C40.15 46.1111 38.9074 45.0596 37.9087 44.2133C37.0451 43.4822 36.4752 43 35.1562 43C33.8373 43 33.2645 43.4822 32.4009 44.2133C31.4051 45.0596 30.1625 46.1111 27.8125 46.1111C25.4625 46.1111 24.2199 45.0596 23.2241 44.2133C22.3605 43.4822 21.7906 43 20.4688 43C20.0792 43 19.7056 42.8361 19.4302 42.5444C19.1547 42.2527 19 41.857 19 41.4444C19 41.0319 19.1547 40.6362 19.4302 40.3445C19.7056 40.0528 20.0792 39.8889 20.4688 39.8889C22.8187 39.8889 24.0613 40.9404 25.0571 41.7867C25.9208 42.5178 26.4906 43 27.8125 43C29.1344 43 29.7013 42.5178 30.5649 41.7867C31.5637 40.9404 32.8062 39.8889 35.1562 39.8889C37.5062 39.8889 38.7488 40.9404 39.7446 41.7867C40.6082 42.5178 41.1781 43 42.5 43C43.8219 43 44.3888 42.5178 45.2524 41.7867C46.2512 40.9404 47.4937 39.8889 49.8437 39.8889C52.1937 39.8889 53.4363 40.9404 54.4351 41.7867C55.2987 42.5178 55.8686 43 57.1904 43C58.5123 43 59.0822 42.5178 59.9458 41.7867C60.9387 40.9404 62.1812 39.8889 64.5312 39.8889C64.9208 39.8889 65.2944 40.0528 65.5698 40.3445C65.8453 40.6362 66 41.0319 66 41.4444ZM64.5312 50.7778C62.1812 50.7778 60.9387 51.8293 59.9429 52.6756C59.0793 53.4067 58.5064 53.8889 57.1875 53.8889C55.8686 53.8889 55.2957 53.4067 54.4321 52.6756C53.4334 51.8293 52.1937 50.7778 49.8408 50.7778C47.4879 50.7778 46.2512 51.8293 45.2524 52.6756C44.3888 53.4067 43.8189 53.8889 42.5 53.8889C41.1811 53.8889 40.6082 53.4067 39.7446 52.6756C38.7488 51.8293 37.5062 50.7778 35.1562 50.7778C32.8062 50.7778 31.5637 51.8293 30.5649 52.6756C29.7013 53.4067 29.1314 53.8889 27.8125 53.8889C26.4936 53.8889 25.9208 53.4067 25.0571 52.6756C24.0613 51.8293 22.8187 50.7778 20.4688 50.7778C20.0792 50.7778 19.7056 50.9417 19.4302 51.2334C19.1547 51.5251 19 51.9208 19 52.3333C19 52.7459 19.1547 53.1416 19.4302 53.4333C19.7056 53.725 20.0792 53.8889 20.4688 53.8889C21.7906 53.8889 22.3605 54.3711 23.2241 55.1022C24.2199 55.9484 25.4625 57 27.8125 57C30.1625 57 31.4051 55.9484 32.4009 55.1022C33.2645 54.3711 33.8344 53.8889 35.1562 53.8889C36.4781 53.8889 37.0451 54.3711 37.9087 55.1022C38.9074 55.9484 40.15 57 42.5 57C44.85 57 46.0896 55.9484 47.0884 55.1022C47.952 54.3711 48.5219 53.8889 49.8408 53.8889C51.1597 53.8889 51.7326 54.3711 52.5962 55.1022C53.5949 55.9484 54.8346 57 57.1875 57C59.5404 57 60.7801 55.9484 61.7759 55.1022C62.6395 54.3711 63.2094 53.8889 64.5312 53.8889C64.9208 53.8889 65.2944 53.725 65.5698 53.4333C65.8453 53.1416 66 52.7459 66 52.3333C66 51.9208 65.8453 51.5251 65.5698 51.2334C65.2944 50.9417 64.9208 50.7778 64.5312 50.7778ZM20.4688 32.1111C21.7906 32.1111 22.3605 32.5933 23.2241 33.3244C24.2199 34.1707 25.4625 35.2222 27.8125 35.2222C30.1625 35.2222 31.4051 34.1707 32.4009 33.3244C33.2645 32.5933 33.8344 32.1111 35.1562 32.1111C36.4781 32.1111 37.0451 32.5933 37.9087 33.3244C38.9074 34.1707 40.15 35.2222 42.5 35.2222C44.85 35.2222 46.0896 34.1707 47.0884 33.3244C47.952 32.5933 48.5219 32.1111 49.8437 32.1111C51.1656 32.1111 51.7355 32.5933 52.5991 33.3244C53.5949 34.1707 54.8375 35.2222 57.1875 35.2222C59.5375 35.2222 60.7801 34.1707 61.7759 33.3244C62.6395 32.5933 63.2094 32.1111 64.5312 32.1111C64.9208 32.1111 65.2944 31.9472 65.5698 31.6555C65.8453 31.3638 66 30.9681 66 30.5556C66 30.143 65.8453 29.7473 65.5698 29.4556C65.2944 29.1639 64.9208 29 64.5312 29C62.1812 29 60.9387 30.0516 59.9429 30.8978C59.0793 31.6289 58.5064 32.1111 57.1875 32.1111C55.8686 32.1111 55.2957 31.6289 54.4321 30.8978C53.4334 30.0516 52.1937 29 49.8437 29C47.4937 29 46.2541 30.0516 45.2554 30.8978C44.3888 31.6289 43.8189 32.1111 42.5 32.1111C41.1811 32.1111 40.6082 31.6289 39.7446 30.8978C38.7488 30.0516 37.5062 29 35.1562 29C32.8062 29 31.5637 30.0516 30.5649 30.8978C29.7013 31.6289 29.1314 32.1111 27.8125 32.1111C26.4936 32.1111 25.9208 31.6289 25.0571 30.8978C24.0613 30.0516 22.8187 29 20.4688 29C20.0792 29 19.7056 29.1639 19.4302 29.4556C19.1547 29.7473 19 30.143 19 30.5556C19 30.9681 19.1547 31.3638 19.4302 31.6555C19.7056 31.9472 20.0792 32.1111 20.4688 32.1111Z" fill="#FF82EB" stroke="#FF82EB"/>
</svg>
