<svg width="85" height="85" viewBox="0 0 85 85" fill="none" xmlns="http://www.w3.org/2000/svg">
<rect width="85" height="85" rx="20" fill="#603F87"/>
<path d="M63.7404 42.9813L63.749 42.9157L63.7533 42.8497L63.9958 39.1082L64 39.0436L64 38.9787L63.9991 25.8823L63.999 24.5336L62.7486 24.0282L43.2496 16.1458L42.5 15.8428L41.7505 16.1458L22.2505 24.0282L21 24.5336V25.8824V38.9789V39.0436L21.0042 39.1082L21.2467 42.8497L21.251 42.9157L21.2596 42.9813C22.7363 54.2024 30.6027 64.0095 41.7027 68.8342L42.5 69.1808L43.2973 68.8342C54.3973 64.0095 62.2637 54.2024 63.7404 42.9813ZM53.0411 34.0842C53.0409 34.0844 53.0408 34.0846 53.0406 34.0847L53.0411 34.0842Z" stroke="#FF82EB" stroke-width="4"/>
</svg>
