<svg width="85" height="85" viewBox="0 0 85 85" fill="none" xmlns="http://www.w3.org/2000/svg">
<rect width="85" height="85" rx="20" fill="#603F87"/>
<path d="M58.7072 36.2933L54.7073 32.2932C54.3162 31.9022 53.6842 31.9022 53.2932 32.2932C52.9022 32.6842 52.9022 33.3163 53.2932 33.7073L55.5862 36.0003H50.0002C46.5173 36.0003 43.4953 37.9933 42.0002 40.8963C40.5052 37.9933 37.4832 36.0003 34.0002 36.0003H28.4142L30.7073 33.7073C31.0983 33.3163 31.0983 32.6842 30.7073 32.2932C30.3163 31.9022 29.6842 31.9022 29.2932 32.2932L25.2932 36.2933C24.9022 36.6842 24.9022 37.3163 25.2932 37.7073L29.2932 41.7073C29.4882 41.9023 29.7442 42.0003 30.0002 42.0003C30.2562 42.0003 30.5123 41.9023 30.7073 41.7073C31.0983 41.3163 31.0983 40.6842 30.7073 40.2933L28.4142 38.0003H34.0002C37.8602 38.0003 41.0002 41.1403 41.0002 45.0003V59.0002C41.0002 59.5532 41.4482 60.0002 42.0002 60.0002C42.5522 60.0002 43.0002 59.5532 43.0002 59.0002V45.0003C43.0002 41.1403 46.1413 38.0003 50.0002 38.0003H55.5862L53.2932 40.2933C52.9022 40.6842 52.9022 41.3163 53.2932 41.7073C53.4882 41.9023 53.7442 42.0003 54.0002 42.0003C54.2563 42.0003 54.5123 41.9023 54.7073 41.7073L58.7072 37.7073C59.0982 37.3163 59.0982 36.6842 58.7072 36.2933Z" fill="#FF82EB" stroke="#FF82EB" stroke-width="1.6"/>
<path d="M42 18C28.215 18 17 29.215 17 43C17 56.785 28.215 68 42 68C55.785 68 67 56.785 67 43C67 29.215 55.785 18 42 18ZM42 66C29.318 66 19 55.683 19 43C19 30.318 29.318 20 42 20C54.683 20 65 30.318 65 43C65 55.683 54.683 66 42 66Z" fill="#FF82EB" stroke="#FF82EB" stroke-width="1.6"/>
</svg>
