<svg width="85" height="85" viewBox="0 0 85 85" fill="none" xmlns="http://www.w3.org/2000/svg">
<rect width="85" height="85" rx="20" fill="#603F87"/>
<path d="M60.1884 24.8254C57.0849 21.7141 52.9523 20 48.5507 20C44.1497 20 40.0172 21.7141 36.9136 24.8254C30.9303 30.8238 30.3651 40.3537 35.487 46.8596L33.8492 48.5431C33.6747 48.4772 33.4641 48.434 33.2103 48.434C32.5177 48.434 31.6705 48.7792 31.1959 49.2556L19.5452 60.935C19.1703 61.3103 18.9777 61.8099 19.0021 62.3419C19.0247 62.8376 19.236 63.3099 19.5956 63.6705L21.3427 65.4226C21.7137 65.7945 22.1956 66 22.7002 66C23.1969 66 23.6709 65.7996 24.034 65.4356L35.6847 53.7562C36.1615 53.2776 36.6656 52.263 36.5081 51.4023L38.2451 49.6173C41.083 51.844 44.6305 53.0619 48.3219 53.0619H48.3231C52.8192 53.0619 57.0333 51.3205 60.1867 48.1581C63.2902 45.0468 65 40.9033 65 36.4918C65 32.0803 63.2919 27.9367 60.1884 24.8254ZM57.4332 45.3971C55.0455 47.7902 51.7183 49.163 48.3038 49.163C44.9443 49.163 41.8192 47.8844 39.5035 45.5629C34.689 40.7352 34.7638 32.5032 39.6683 27.587C42.0367 25.2126 45.1912 23.9051 48.5513 23.9051C51.9108 23.9051 55.0653 25.2126 57.4343 27.587C62.3314 32.497 62.3314 40.4865 57.4332 45.3971Z" fill="#FF82EB"/>
</svg>
