<svg width="85" height="85" viewBox="0 0 85 85" fill="none" xmlns="http://www.w3.org/2000/svg">
<rect width="85" height="85" rx="20" fill="#603F87"/>
<path d="M37.8064 52.829H26.6774C24.986 52.829 23.3639 52.1571 22.1679 50.9611C20.9719 49.7651 20.3 48.143 20.3 46.4516V25.6774C20.3 23.986 20.9719 22.3639 22.1679 21.1679C23.3639 19.9719 24.986 19.3 26.6774 19.3H54.871C56.5624 19.3 58.1845 19.9719 59.3805 21.1679C60.5765 22.3639 61.2484 23.986 61.2484 25.6774V29.3871C61.2484 29.8979 61.0455 30.3877 60.6843 30.7488C60.3232 31.11 59.8333 31.3129 59.3226 31.3129C58.8118 31.3129 58.322 31.11 57.9608 30.7488C57.5997 30.3877 57.3968 29.8979 57.3968 29.3871V25.6774C57.3968 25.0075 57.1307 24.3651 56.657 23.8914C56.1833 23.4177 55.5408 23.1516 54.871 23.1516H26.6774C26.0075 23.1516 25.3651 23.4177 24.8914 23.8914C24.4177 24.3651 24.1516 25.0075 24.1516 25.6774V46.4516C24.1516 47.1215 24.4177 47.7639 24.8914 48.2376C25.3651 48.7113 26.0075 48.9774 26.6774 48.9774H37.8064C38.3172 48.9774 38.807 49.1803 39.1682 49.5415C39.5294 49.9026 39.7323 50.3925 39.7323 50.9032C39.7323 51.414 39.5294 51.9038 39.1682 52.265C38.807 52.6261 38.3172 52.829 37.8064 52.829Z" fill="#FF82EB" stroke="#FF82EB" stroke-width="0.6"/>
<path d="M37.8065 64.6985H22.2258C21.7151 64.6985 21.2252 64.4956 20.8641 64.1344C20.5029 63.7733 20.3 63.2834 20.3 62.7727C20.3 62.2619 20.5029 61.7721 20.8641 61.4109C21.2252 61.0498 21.7151 60.8469 22.2258 60.8469H37.8065C38.3172 60.8469 38.807 61.0498 39.1682 61.4109C39.5294 61.7721 39.7323 62.2619 39.7323 62.7727C39.7323 63.2834 39.5294 63.7733 39.1682 64.1344C38.807 64.4956 38.3172 64.6985 37.8065 64.6985Z" fill="#FF82EB" stroke="#FF82EB" stroke-width="0.6"/>
<path d="M51.1658 60.5422L51.3779 60.3301L51.1658 60.5422C51.3612 60.7376 51.6262 60.8474 51.9025 60.8474H60.8058C61.0821 60.8474 61.3471 60.7376 61.5425 60.5422C61.7379 60.3468 61.8477 60.0818 61.8477 59.8054V44.2248C61.8477 43.9485 61.7379 43.6834 61.5425 43.488C61.3471 43.2926 61.0821 43.1829 60.8058 43.1829H51.9025C51.6262 43.1829 51.3612 43.2926 51.1658 43.488C50.9704 43.6834 50.8606 43.9485 50.8606 44.2248V59.8054C50.8606 60.0818 50.9704 60.3468 51.1658 60.5422ZM51.9025 39.3313H60.8058C62.1036 39.3313 63.3483 39.8468 64.266 40.7645C65.1837 41.6823 65.6993 42.9269 65.6993 44.2248V59.8054C65.6993 61.1033 65.1837 62.348 64.266 63.2657C63.3483 64.1834 62.1036 64.699 60.8058 64.699H51.9025C50.6047 64.699 49.36 64.1834 48.4423 63.2657C47.5246 62.348 47.009 61.1033 47.009 59.8054V44.2248C47.009 42.9269 47.5246 41.6823 48.4423 40.7645C49.36 39.8468 50.6047 39.3313 51.9025 39.3313Z" fill="#FF82EB" stroke="#FF82EB" stroke-width="0.6"/>
</svg>
