<svg width="251" height="250" viewBox="0 0 251 250" fill="none" xmlns="http://www.w3.org/2000/svg">
<g filter="url(#filter0_d_1458_389)">
<circle cx="125.327" cy="100.788" r="67.7883" fill="white"/>
<circle cx="125.327" cy="100.788" r="69.2883" stroke="#F7EFFF" stroke-width="3"/>
</g>
<path d="M155.359 126.452V101.875H161.036V112.467L170.036 101.875H176.405L167.197 112.848L177.028 126.452H170.52L163.597 116.586L161.036 119.217V126.452H155.359Z" fill="#2C4190"/>
<path d="M134.833 112.398V126.452H129.156V101.875H133.656L145.044 116.344V101.875H150.721V126.452H146.083L134.833 112.398Z" fill="#2C4190"/>
<path d="M112.225 101.875H118.352L126.798 126.452H120.983L119.079 120.948H111.429L109.56 126.452H103.745L112.225 101.875ZM118.145 117.036L115.272 107.587L112.329 117.036H118.145Z" fill="#2C4190"/>
<path d="M103.288 120.152C103.288 121.56 102.908 122.736 102.146 123.683C101.408 124.606 100.404 125.298 99.1346 125.76C97.8653 126.221 96.4692 126.452 94.9461 126.452H82.9692V101.875H96.6423C97.7961 101.875 98.7884 102.187 99.6192 102.81C100.473 103.41 101.119 104.194 101.558 105.163C102.019 106.133 102.25 107.137 102.25 108.175C102.25 109.329 101.95 110.437 101.35 111.498C100.75 112.537 99.873 113.321 98.7192 113.852C100.127 114.267 101.235 115.006 102.042 116.067C102.873 117.129 103.288 118.49 103.288 120.152ZM97.5077 119.01C97.5077 118.479 97.4038 118.017 97.1961 117.625C96.9884 117.21 96.7115 116.886 96.3654 116.656C96.0423 116.402 95.65 116.275 95.1884 116.275H88.6461V121.64H94.9461C95.4307 121.64 95.8577 121.525 96.2269 121.294C96.6192 121.063 96.9307 120.752 97.1615 120.36C97.3923 119.967 97.5077 119.517 97.5077 119.01ZM88.6461 106.721V111.81H94.2192C94.6346 111.81 95.0154 111.717 95.3615 111.533C95.7307 111.348 96.0307 111.071 96.2615 110.702C96.4923 110.31 96.6077 109.825 96.6077 109.248C96.6077 108.694 96.5038 108.233 96.2961 107.863C96.1115 107.494 95.8577 107.217 95.5346 107.033C95.2115 106.825 94.8423 106.721 94.4269 106.721H88.6461Z" fill="#2C4190"/>
<path d="M151.773 89.0073C151.773 90.415 151.393 91.5919 150.631 92.5381C149.893 93.4612 148.889 94.1535 147.619 94.615C146.35 95.0766 144.954 95.3073 143.431 95.3073H131.454V70.7305H145.127C146.281 70.7305 147.273 71.042 148.104 71.6651C148.958 72.2651 149.604 73.0497 150.043 74.0189C150.504 74.9881 150.735 75.992 150.735 77.0305C150.735 78.1843 150.435 79.292 149.835 80.3535C149.235 81.392 148.358 82.1766 147.204 82.7074C148.612 83.1227 149.719 83.8612 150.527 84.9227C151.358 85.9843 151.773 87.3458 151.773 89.0073ZM145.993 87.865C145.993 87.3343 145.889 86.8727 145.681 86.4804C145.473 86.065 145.196 85.742 144.85 85.5112C144.527 85.2574 144.135 85.1304 143.673 85.1304H137.131V90.4958H143.431C143.916 90.4958 144.343 90.3804 144.712 90.1496C145.104 89.9189 145.416 89.6073 145.646 89.215C145.877 88.8227 145.993 88.3727 145.993 87.865ZM137.131 75.5766V80.6651H142.704C143.119 80.6651 143.5 80.5727 143.846 80.3881C144.216 80.2035 144.516 79.9266 144.746 79.5574C144.977 79.1651 145.093 78.6804 145.093 78.1035C145.093 77.5497 144.989 77.0881 144.781 76.7189C144.596 76.3497 144.343 76.0728 144.019 75.8881C143.696 75.6805 143.327 75.5766 142.912 75.5766H137.131Z" fill="#2C4190"/>
<path d="M106.266 82.809C106.266 81.309 106.543 79.8437 107.097 78.4129C107.651 76.9591 108.458 75.6437 109.52 74.4668C110.581 73.2898 111.874 72.3552 113.397 71.6629C114.92 70.9475 116.651 70.5898 118.589 70.5898C120.897 70.5898 122.893 71.086 124.578 72.0783C126.285 73.0706 127.555 74.3629 128.385 75.9552L124.024 79.0014C123.655 78.1244 123.158 77.4437 122.535 76.9591C121.935 76.4744 121.266 76.1398 120.528 75.9552C119.812 75.7475 119.12 75.6437 118.451 75.6437C117.366 75.6437 116.42 75.8629 115.612 76.3014C114.805 76.7167 114.135 77.2821 113.605 77.9975C113.074 78.7129 112.681 79.509 112.428 80.386C112.174 81.2629 112.047 82.1398 112.047 83.0167C112.047 83.986 112.197 84.9206 112.497 85.8206C112.797 86.7206 113.224 87.5167 113.778 88.209C114.355 88.9013 115.047 89.4552 115.855 89.8706C116.662 90.2629 117.551 90.459 118.52 90.459C119.212 90.459 119.916 90.3436 120.631 90.1129C121.347 89.8821 122.005 89.5244 122.605 89.0398C123.228 88.5321 123.701 87.8744 124.024 87.0667L128.662 89.8013C128.178 91.0013 127.381 92.0282 126.274 92.8821C125.166 93.7359 123.908 94.3936 122.501 94.8552C121.116 95.2936 119.743 95.5128 118.381 95.5128C116.605 95.5128 114.966 95.1552 113.466 94.4398C111.989 93.7013 110.708 92.7321 109.624 91.5321C108.562 90.309 107.731 88.9475 107.131 87.4475C106.555 85.9244 106.266 84.3783 106.266 82.809Z" fill="#2C4190"/>
<path d="M82.9692 95.3073V70.7305H92.1423C94.8423 70.7305 97.0923 71.2843 98.8923 72.392C100.715 73.4766 102.088 74.9535 103.011 76.8228C103.935 78.6689 104.396 80.7227 104.396 82.9843C104.396 85.4766 103.888 87.6458 102.873 89.492C101.858 91.3381 100.427 92.7689 98.5807 93.7843C96.7577 94.7996 94.6115 95.3073 92.1423 95.3073H82.9692ZM98.6153 82.9843C98.6153 81.5535 98.3615 80.2958 97.8538 79.2112C97.3461 78.1035 96.6077 77.2497 95.6384 76.6497C94.6692 76.0266 93.5038 75.7151 92.1423 75.7151H88.6461V90.3227H92.1423C93.5269 90.3227 94.6923 90.0112 95.6384 89.3881C96.6077 88.742 97.3461 87.865 97.8538 86.7573C98.3615 85.6266 98.6153 84.3689 98.6153 82.9843Z" fill="#2C4190"/>
<defs>
<filter id="filter0_d_1458_389" x="0.538574" y="0" width="249.577" height="249.578" filterUnits="userSpaceOnUse" color-interpolation-filters="sRGB">
<feFlood flood-opacity="0" result="BackgroundImageFix"/>
<feColorMatrix in="SourceAlpha" type="matrix" values="0 0 0 0 0 0 0 0 0 0 0 0 0 0 0 0 0 0 127 0" result="hardAlpha"/>
<feOffset dy="24"/>
<feGaussianBlur stdDeviation="27"/>
<feComposite in2="hardAlpha" operator="out"/>
<feColorMatrix type="matrix" values="0 0 0 0 0.960784 0 0 0 0 0.92549 0 0 0 0 1 0 0 0 1 0"/>
<feBlend mode="normal" in2="BackgroundImageFix" result="effect1_dropShadow_1458_389"/>
<feBlend mode="normal" in="SourceGraphic" in2="effect1_dropShadow_1458_389" result="shape"/>
</filter>
</defs>
</svg>
