<svg width="157" height="157" viewBox="0 0 157 157" fill="none" xmlns="http://www.w3.org/2000/svg">
<circle cx="78.5" cy="78.5" r="78.5" fill="url(#paint0_linear_1713_19)"/>
<path d="M59.7295 84.389C60.9219 85.4111 61.433 87.1145 61.0923 88.6476L57.8557 101.934C57.004 105.682 61.0923 108.578 64.3288 106.534L76.0826 99.3793C77.4453 98.5276 79.1488 98.5276 80.5115 99.3793L92.2653 106.534C95.5018 108.578 99.5901 105.512 98.7384 101.934L95.5018 88.6476C95.1611 87.1145 95.6722 85.4111 96.8646 84.389L107.256 75.5311C110.151 72.9759 108.618 68.2063 104.871 68.036L91.2432 66.8436C89.7101 66.6732 88.177 65.6511 87.666 64.2884L82.3853 51.6829C80.8522 48.1057 75.9122 48.1057 74.3791 51.6829L69.0985 64.118C68.4171 65.6511 67.0543 66.6732 65.5212 66.6732L51.8937 67.8656C48.1461 68.2063 46.613 72.9759 49.5089 75.3608L59.7295 84.389Z" fill="white"/>
<defs>
<linearGradient id="paint0_linear_1713_19" x1="78.5" y1="0" x2="78.5" y2="157" gradientUnits="userSpaceOnUse">
<stop stop-color="#FFC773"/>
<stop offset="1" stop-color="#FFC773"/>
</linearGradient>
</defs>
</svg>
