<svg width="157" height="157" viewBox="0 0 157 157" fill="none" xmlns="http://www.w3.org/2000/svg">
<circle cx="78.5" cy="78.5" r="78.5" fill="url(#paint0_linear_1713_17)"/>
<path d="M34.3269 77.4853L34.3266 77.4849L26.0278 65.5716C25.5659 64.9086 26.0403 64 26.8483 64H52.7769C53.1111 64 53.4232 64.1669 53.6087 64.4448L62.9467 78.4344C63.1709 78.7704 63.171 79.2082 62.947 79.5443L53.6068 93.5533C53.4213 93.8314 53.1091 93.9985 52.7748 93.9985H26.8054C25.9999 93.9985 25.525 93.0948 25.9818 92.4314L34.3332 80.3028L33.5105 79.7343L34.3341 80.3015L34.3338 80.302C34.9208 79.4517 34.9142 78.3292 34.3269 77.4853Z" fill="white" stroke="#FFC773" stroke-width="2"/>
<path d="M132.905 78.4343C133.129 78.7703 133.129 79.2083 132.905 79.5444L123.562 93.5548C123.377 93.8329 123.065 94 122.73 94H96.105C95.3067 94 94.8302 93.1107 95.2724 92.4461L103.314 80.3597C103.314 80.3596 103.314 80.3595 103.314 80.3594C103.867 79.5294 103.868 78.448 103.314 77.6178C103.314 77.6175 103.313 77.6173 103.313 77.617L95.2781 65.5544C94.8354 64.8898 95.3118 64 96.1103 64H122.734C123.068 64 123.38 64.1669 123.566 64.4448L132.905 78.4343Z" fill="white" stroke="#FFC773" stroke-width="2"/>
<path d="M87.7645 64C88.0989 64 88.4113 64.1672 88.5967 64.4456L97.9168 78.4367C98.1404 78.7723 98.1405 79.2093 97.9171 79.545L88.5963 93.5539C88.4109 93.8326 88.0984 94 87.7638 94H61.1233C60.3246 94 59.8482 93.1099 60.2912 92.4453L68.3461 80.3629C68.3464 80.3626 68.3466 80.3622 68.3469 80.3618C68.9029 79.5305 68.9028 78.4468 68.3465 77.6156C68.3464 77.6154 68.3463 77.6152 68.3461 77.615L60.2957 65.5552C59.8522 64.8907 60.3285 64 61.1275 64H87.7645Z" fill="white" stroke="#FFC773" stroke-width="2"/>
<defs>
<linearGradient id="paint0_linear_1713_17" x1="78.5" y1="0" x2="78.5" y2="157" gradientUnits="userSpaceOnUse">
<stop stop-color="#FFC773"/>
<stop offset="1" stop-color="#FFC773"/>
</linearGradient>
</defs>
</svg>
