<svg width="157" height="157" viewBox="0 0 157 157" fill="none" xmlns="http://www.w3.org/2000/svg">
<circle cx="78.5" cy="78.5" r="78.5" fill="url(#paint0_linear_1713_18)"/>
<path fill-rule="evenodd" clip-rule="evenodd" d="M81.274 39.6214C81.9269 38.9685 82.9856 38.9685 83.6377 39.6206C84.2898 40.2726 84.2898 41.3314 83.6369 41.9843L80.122 45.4992C79.4699 46.1512 78.412 46.1521 77.7591 45.4992C77.1062 44.8463 77.107 43.7884 77.7591 43.1363L81.274 39.6214ZM83.0361 44.9228C83.6881 44.2707 84.7469 44.2707 85.3989 44.9228C86.051 45.5748 86.051 46.6336 85.3989 47.2856L81.9092 50.7753C81.2563 51.4282 80.1993 51.4282 79.5464 50.7753C78.8935 50.1224 78.8935 49.0653 79.5464 48.4124L83.0361 44.9228ZM88.3374 46.6848C88.9903 46.0319 90.0491 46.0319 90.7011 46.684C91.3532 47.336 91.3532 48.3948 90.7003 49.0477L87.1854 52.5626C86.5333 53.2147 85.4754 53.2155 84.8225 52.5626C84.1696 51.9097 84.1704 50.8518 84.8225 50.1997L88.3374 46.6848ZM110.282 68.6296C110.935 67.9767 111.994 67.9767 112.646 68.6288C113.298 69.2809 113.298 70.3396 112.645 70.9925L109.13 74.5074C108.478 75.1595 107.42 75.1603 106.767 74.5074C106.114 73.8545 106.115 72.7966 106.767 72.1445L110.282 68.6296ZM112.044 73.931C112.696 73.2789 113.755 73.2789 114.408 73.9318C115.061 74.5847 115.06 75.6426 114.408 76.2947L110.918 79.7844C110.265 80.4373 109.208 80.4373 108.555 79.7844C107.903 79.1315 107.902 78.0736 108.555 77.4207L112.044 73.931ZM117.346 75.6931C117.999 75.0402 119.057 75.0402 119.709 75.6922C120.361 76.3443 120.361 77.403 119.709 78.0559L116.194 81.5708C115.542 82.2229 114.483 82.2229 113.831 81.5708C113.179 80.9188 113.179 79.86 113.831 79.208L117.346 75.6931ZM93.0026 85.9092L100.653 78.2593C101.158 77.7543 101.977 77.7534 102.483 78.2593L110.08 85.8563C110.585 86.3613 110.586 87.1806 110.08 87.6864L102.43 95.3363C102.094 95.6724 101.546 95.6724 101.21 95.3363L93.0026 87.1293C92.6665 86.7932 92.6665 86.2453 93.0026 85.9092ZM70.3722 69.3775L66.7194 73.0302C53.8194 85.9302 73.4005 105.511 86.3006 92.6113L89.9533 88.9586C90.2894 88.6225 90.8372 88.6225 91.1734 88.9586L99.3804 97.1656C99.7165 97.5017 99.7165 98.0496 99.3804 98.3857L95.2664 102.5C69.9327 127.833 31.4982 89.3989 56.8318 64.0652L60.9459 59.9512C61.282 59.6151 61.8298 59.6151 62.166 59.9512L70.373 68.1582C70.7091 68.4944 70.7083 69.0414 70.3722 69.3775ZM73.4745 49.251L81.0715 56.848C81.5773 57.3539 81.5773 58.1723 81.0715 58.6782L73.4215 66.3281C73.0854 66.6642 72.5376 66.6642 72.2015 66.3281L63.9944 58.1211C63.6583 57.785 63.6583 57.2371 63.9944 56.901L71.6443 49.251C72.1494 48.746 72.9686 48.7452 73.4745 49.251Z" fill="white"/>
<defs>
<linearGradient id="paint0_linear_1713_18" x1="78.5" y1="0" x2="78.5" y2="157" gradientUnits="userSpaceOnUse">
<stop stop-color="#FFC773"/>
<stop offset="1" stop-color="#FFC773"/>
</linearGradient>
</defs>
</svg>
