<svg width="102" height="102" viewBox="0 0 102 102" fill="none" xmlns="http://www.w3.org/2000/svg">
<circle cx="50.5294" cy="51.0006" r="37.6471" fill="#603F87"/>
<path d="M50.5 71.5C62.033 71.5 71.5 62.386 71.5 51C71.5 39.614 62.033 30.5 50.5 30.5C38.967 30.5 29.5 39.614 29.5 51C29.5 62.386 38.967 71.5 50.5 71.5Z" fill="#FF82EB" stroke="white" stroke-width="5"/>
<circle cx="7.05882" cy="7.05882" r="7.55882" transform="matrix(1 0 0 -1 43.9414 17.1172)" fill="#FF82EB" stroke="white"/>
<circle cx="7.05882" cy="7.05882" r="8.55882" transform="matrix(1 0 0 -1 43.9414 17.1172)" fill="#FF82EB" stroke="white" stroke-width="3"/>
<circle cx="7.05882" cy="7.05882" r="8.55882" transform="matrix(1 0 0 -1 43.9414 99)" fill="#FF82EB" stroke="white" stroke-width="3"/>
<circle cx="7.05882" cy="7.05882" r="8.55882" transform="matrix(-4.37114e-08 1 1 4.37114e-08 84.8823 43.9414)" fill="#FF82EB" stroke="white" stroke-width="3"/>
<circle cx="7.05882" cy="7.05882" r="8.55882" transform="matrix(-4.37114e-08 1 1 4.37114e-08 3 43.9414)" fill="#FF82EB" stroke="white" stroke-width="3"/>
</svg>
