<svg width="72" height="72" viewBox="0 0 72 72" fill="none" xmlns="http://www.w3.org/2000/svg">
<rect width="72" height="72" rx="20" fill="#603F87"/>
<path d="M20.0971 24.1704L20.0943 24.1736L10.9818 34.5399C10.5442 35.0373 10.3027 35.6769 10.3027 36.3393C10.3027 37.0016 10.5441 37.6411 10.9816 38.1385C10.9817 38.1386 10.9817 38.1386 10.9818 38.1387L20.0943 48.5049L20.0949 48.5057C20.573 49.0473 21.2465 49.3771 21.9676 49.423C22.6884 49.4689 23.3982 49.2274 23.9411 48.7512C24.4853 48.276 24.8185 47.6044 24.8675 46.8838C24.9165 46.163 24.6769 45.4523 24.2017 44.9079L24.2006 44.9066L16.6622 36.3311L24.2002 27.777L24.2017 27.7752C24.6769 27.2308 24.9164 26.5202 24.8675 25.7994C24.8185 25.0785 24.485 24.4068 23.9406 23.9315L23.9403 23.9312C23.396 23.4571 22.6859 23.2178 21.9654 23.2658C21.2478 23.3096 20.5763 23.6346 20.0971 24.1704ZM47.3619 23.931L47.3592 23.9333C46.8178 24.4115 46.4884 25.0848 46.4434 25.8056L46.9424 25.8367L46.4434 25.8056C46.3984 26.5263 46.6416 27.2353 47.1194 27.777L54.6572 36.3309L47.1194 44.9058C47.1193 44.9059 47.1193 44.906 47.1192 44.9061C46.6415 45.4477 46.3984 46.1566 46.4434 46.8772L46.9424 46.8461L46.4434 46.8772C46.4884 47.598 46.8178 48.2713 47.3592 48.7495L47.3604 48.7505C47.9034 49.227 48.6134 49.4688 49.3344 49.4228C50.0555 49.3769 50.729 49.0471 51.2071 48.5055L51.2075 48.505L60.3332 38.1386L60.3333 38.1385C60.7709 37.6411 61.0124 37.0015 61.0124 36.3391C61.0124 35.6767 60.7709 35.0371 60.3333 34.5397L60.3332 34.5396L51.2075 24.1732L51.2075 24.1732L51.2049 24.1702C50.7244 23.6331 50.0507 23.3081 49.3313 23.2658C48.6127 23.2192 47.9048 23.4582 47.3619 23.931L47.3619 23.931ZM41.5529 23.8003L41.5527 23.8002C41.0481 23.771 40.5452 23.8823 40.1002 24.122C39.6556 24.3614 39.2861 24.7195 39.0331 25.1564C39.0329 25.1567 39.0327 25.157 39.0325 25.1574L27.5538 44.771L27.5529 44.7726C27.1906 45.3969 27.091 46.1393 27.2758 46.837C27.4607 47.5346 27.9149 48.1303 28.5387 48.4938C29.1615 48.8568 29.9029 48.9587 30.6007 48.7772C31.2985 48.5958 31.8961 48.1456 32.2628 47.5251L32.2638 47.5234L43.7467 27.9144C43.7469 27.914 43.7472 27.9137 43.7474 27.9133C43.9304 27.6045 44.0505 27.2627 44.101 26.9073L43.6059 26.8371L44.101 26.9073C44.1515 26.5516 44.1311 26.1894 44.0409 25.8415C43.9507 25.4937 43.7926 25.1671 43.5757 24.8806C43.359 24.5945 43.0881 24.354 42.7783 24.1728C42.4052 23.9532 41.9852 23.8255 41.5529 23.8003Z" fill="#FF82EB" stroke="#FF82EB"/>
</svg>
