<svg width="360" height="441" viewBox="0 0 360 441" fill="none" xmlns="http://www.w3.org/2000/svg">
<g clip-path="url(#clip0_2804_1193)">
<rect width="360" height="441" fill="white"/>
<rect width="360" height="512" fill="#F3E8FF"/>
<path d="M203.256 401.356L204.246 396.265V394.426L201.276 393.719L200.145 401.356H203.256Z" fill="#FFE6C1"/>
<path d="M255.111 257.552C255.111 257.528 255.111 257.504 255.112 257.48C255.112 256.949 255.128 256.421 255.156 255.897C255.787 244.436 262.996 234.71 273.065 230.436C276.575 228.946 280.433 228.119 284.48 228.111C284.507 228.111 284.534 228.111 284.561 228.111L369.79 227.956C385.98 227.927 399.081 241.028 399.052 257.218C399.022 273.409 385.874 286.557 369.683 286.587L313.689 286.689L313.587 342.683C313.558 358.873 300.409 372.022 284.218 372.052C268.028 372.081 254.927 358.98 254.956 342.79L255.111 257.552Z" fill="url(#paint0_linear_2804_1193)"/>
<path d="M325.852 308.323C325.852 308.315 325.852 308.307 325.852 308.3C325.853 308.129 325.859 307.96 325.869 307.792C326.087 304.115 328.414 300.984 331.65 299.599C332.778 299.116 334.017 298.845 335.315 298.837C335.324 298.836 335.332 298.836 335.341 298.836L362.681 298.663C367.874 298.63 372.058 302.814 372.025 308.007C371.992 313.201 367.755 317.438 362.562 317.471L344.6 317.584L344.486 335.546C344.453 340.74 340.216 344.976 335.023 345.009C329.829 345.042 325.646 340.859 325.679 335.665L325.852 308.323Z" fill="url(#paint1_linear_2804_1193)"/>
<path opacity="0.6" d="M38.818 267.631C38.8369 267.613 38.8558 267.594 38.8748 267.575C39.2936 267.156 39.7211 266.751 40.1564 266.36C49.6774 257.804 63.0124 255.816 74.3066 260.394C78.2435 261.989 81.9323 264.383 85.1252 267.575C85.1464 267.596 85.1676 267.617 85.1887 267.638L152.421 334.841C165.193 347.607 165.193 368.305 152.421 381.071C139.65 393.838 118.943 393.838 106.171 381.071L62.6787 337.598C62.3038 337.224 61.6962 337.224 61.3213 337.598L17.8291 381.071C5.05742 393.838 -15.6496 393.838 -28.4212 381.071C-41.1929 368.305 -41.1929 347.607 -28.4212 334.841L38.818 267.631Z" fill="url(#paint2_linear_2804_1193)"/>
<path opacity="0.6" d="M50.6084 383.752C50.6177 383.742 50.627 383.733 50.6363 383.723C50.8421 383.515 51.0522 383.314 51.2661 383.119C55.9448 378.864 62.4978 377.874 68.0478 380.152C69.9824 380.945 71.7952 382.136 73.3642 383.723C73.3746 383.734 73.385 383.745 73.3954 383.755L106.434 417.183C112.71 423.533 112.71 433.828 106.434 440.178C100.158 446.528 89.9824 446.528 83.7062 440.178L62.683 418.907C62.3073 418.527 61.6933 418.527 61.3175 418.907L40.2943 440.178C34.0182 446.528 23.8426 446.528 17.5665 440.178C11.2903 433.828 11.2903 423.532 17.5665 417.183L50.6084 383.752Z" fill="url(#paint3_linear_2804_1193)"/>
</g>
<defs>
<linearGradient id="paint0_linear_2804_1193" x1="263.735" y1="236.735" x2="347.695" y2="320.695" gradientUnits="userSpaceOnUse">
<stop stop-color="#C493FF"/>
<stop offset="1" stop-color="#C493FF" stop-opacity="0"/>
</linearGradient>
<linearGradient id="paint1_linear_2804_1193" x1="328.648" y1="301.633" x2="355.459" y2="328.444" gradientUnits="userSpaceOnUse">
<stop stop-color="#C493FF"/>
<stop offset="1" stop-color="#C493FF" stop-opacity="0"/>
</linearGradient>
<linearGradient id="paint2_linear_2804_1193" x1="62" y1="258" x2="61.6444" y2="380.605" gradientUnits="userSpaceOnUse">
<stop stop-color="#FF82EB"/>
<stop offset="1" stop-color="#FFE6C1"/>
</linearGradient>
<linearGradient id="paint3_linear_2804_1193" x1="62.0003" y1="378.961" x2="61.8212" y2="439.946" gradientUnits="userSpaceOnUse">
<stop stop-color="#FF82EB"/>
<stop offset="1" stop-color="#FFE6C1"/>
</linearGradient>
<clipPath id="clip0_2804_1193">
<rect width="360" height="441" fill="white"/>
</clipPath>
</defs>
</svg>
