<svg width="181" height="240" viewBox="0 0 181 240" fill="none" xmlns="http://www.w3.org/2000/svg">
<path d="M0.299929 49.4216C0.299907 49.3817 0.299928 49.3417 0.299996 49.3017C0.301607 48.4183 0.326842 47.5403 0.3748 46.6684C1.42375 27.5998 13.4177 11.4172 30.1709 4.30622C36.0106 1.82751 42.4286 0.451033 49.1629 0.438787C49.2076 0.438704 49.2523 0.438693 49.297 0.43874L191.099 0.180838C218.036 0.131854 239.833 21.929 239.784 48.8662C239.735 75.8033 217.859 97.6799 190.922 97.7289L97.7595 97.8983L97.59 191.061C97.5411 217.998 75.6644 239.874 48.7273 239.923C21.7902 239.972 -0.00699814 218.175 0.041989 191.238L0.299929 49.4216Z" fill="url(#paint0_linear_2592_607)"/>
<defs>
<linearGradient id="paint0_linear_2592_607" x1="14.6484" y1="14.7872" x2="154.339" y2="154.478" gradientUnits="userSpaceOnUse">
<stop stop-color="#C493FF"/>
<stop offset="1" stop-color="#C493FF" stop-opacity="0"/>
</linearGradient>
</defs>
</svg>
