<svg width="196" height="193" viewBox="0 0 196 193" fill="none" xmlns="http://www.w3.org/2000/svg">
<path opacity="0.6" d="M16.7701 14.0138C16.7976 13.9862 16.8252 13.9586 16.8528 13.931C17.4622 13.3219 18.0841 12.7328 18.7176 12.1636C32.5706 -0.284586 51.9731 -3.17819 68.4061 3.48275C74.1342 5.80458 79.5015 9.28733 84.1472 13.931C84.1781 13.9618 84.2089 13.9927 84.2396 14.0236L182.063 111.804C200.646 130.379 200.646 160.494 182.063 179.069C163.48 197.644 133.351 197.644 114.769 179.069L51.1787 115.507C50.8038 115.132 50.1962 115.132 49.8213 115.507L-13.7687 179.069C-32.3515 197.644 -62.4801 197.644 -81.0629 179.069C-99.6457 160.494 -99.6457 130.379 -81.0629 111.804L16.7701 14.0138Z" fill="url(#paint0_linear_2621_2)"/>
<defs>
<linearGradient id="paint0_linear_2621_2" x1="50.5" y1="0" x2="49.9826" y2="178.391" gradientUnits="userSpaceOnUse">
<stop stop-color="#FF82EB"/>
<stop offset="1" stop-color="#FFE6C1"/>
</linearGradient>
</defs>
</svg>
