<svg width="128" height="309" viewBox="0 0 128 309" fill="none" xmlns="http://www.w3.org/2000/svg">
<path d="M-49.3494 16.776C-42.8677 -4.55794 -12.6633 -4.55794 -6.18161 16.776C-1.46027 32.3159 17.6411 37.9246 30.0145 27.4041C47.0013 12.9611 72.4108 29.2909 66.3296 50.7424C61.8999 66.3679 74.9368 81.4133 91.0337 79.2525C113.132 76.286 125.68 103.761 108.966 118.519C96.7919 129.269 99.6251 148.975 114.335 155.859C134.529 165.311 130.231 195.208 108.191 198.588C92.1379 201.05 83.8679 219.158 92.5203 232.903C104.399 251.772 84.6191 274.599 64.2514 265.527C49.4153 258.919 32.6678 269.682 32.5158 285.922C32.3071 308.218 3.32619 316.728 -8.90341 298.084C-17.8116 284.504 -37.7194 284.504 -46.6276 298.084C-58.8572 316.728 -87.8381 308.218 -88.0468 285.922C-88.1988 269.682 -104.946 258.919 -119.782 265.527C-140.15 274.599 -159.93 251.772 -148.051 232.903C-139.399 219.158 -147.669 201.05 -163.723 198.588C-185.762 195.208 -190.06 165.311 -169.866 155.859C-155.156 148.975 -152.323 129.269 -164.497 118.519C-181.211 103.761 -168.663 76.286 -146.565 79.2525C-130.468 81.4133 -117.431 66.3679 -121.861 50.7424C-127.942 29.2909 -102.532 12.9612 -85.5455 27.4041C-73.1722 37.9246 -54.0707 32.3159 -49.3494 16.776Z" fill="url(#paint0_linear_2384_1074)"/>
<defs>
<linearGradient id="paint0_linear_2384_1074" x1="-27.7655" y1="-54.2656" x2="-27.7655" y2="368.734" gradientUnits="userSpaceOnUse">
<stop stop-color="#C493FF"/>
<stop offset="1" stop-color="#C493FF" stop-opacity="0"/>
</linearGradient>
</defs>
</svg>
