<svg width="92" height="180" viewBox="0 0 92 180" fill="none" xmlns="http://www.w3.org/2000/svg">
<path d="M78.8966 9.48294C82.6814 -2.97447 100.319 -2.97447 104.103 9.48294C106.86 18.5571 118.014 21.8321 125.239 15.689C135.158 7.25535 149.995 16.7907 146.444 29.3167C143.858 38.4409 151.47 47.2262 160.87 45.9645C173.774 44.2323 181.1 60.2755 171.341 68.8933C164.232 75.1706 165.886 86.6769 174.476 90.6972C186.268 96.2163 183.758 113.674 170.889 115.647C161.514 117.085 156.685 127.659 161.738 135.685C168.674 146.703 157.124 160.032 145.231 154.735C136.568 150.876 126.788 157.161 126.7 166.644C126.578 179.663 109.655 184.632 102.514 173.746C97.3123 165.816 85.6877 165.816 80.486 173.746C73.3448 184.632 56.4221 179.663 56.3003 166.644C56.2115 157.161 46.4322 150.876 37.7691 154.735C25.8759 160.032 14.326 146.703 21.2622 135.685C26.3146 127.659 21.4855 117.085 12.1114 115.647C-0.757847 113.674 -3.26787 96.2163 8.52411 90.6972C17.1135 86.6769 18.7679 75.1706 11.659 68.8933C1.89964 60.2755 9.22635 44.2323 22.1303 45.9645C31.5296 47.2262 39.1422 38.4409 36.5556 29.3167C33.0046 16.7907 47.8419 7.25535 57.7608 15.689C64.9859 21.8321 76.1397 18.5571 78.8966 9.48294Z" fill="url(#paint0_linear_2384_1077)"/>
<defs>
<linearGradient id="paint0_linear_2384_1077" x1="91.5" y1="-32" x2="91.5" y2="215" gradientUnits="userSpaceOnUse">
<stop stop-color="#C493FF"/>
<stop offset="1" stop-color="#C493FF" stop-opacity="0"/>
</linearGradient>
</defs>
</svg>
