<svg width="241" height="57" viewBox="0 0 241 57" fill="none" xmlns="http://www.w3.org/2000/svg">
<path d="M6 4C6 1.79086 7.79086 0 10 0H237C239.209 0 241 1.79086 241 4V23.5V52.6451C241 54.9881 238.995 56.8294 236.661 56.6307L123.839 47.0289C123.613 47.0097 123.387 47.0097 123.161 47.0289L10.3392 56.6307C8.00468 56.8294 6 54.9881 6 52.6451V23.5V4Z" fill="#FF82EB"/>
<path d="M64.5251 14.2949C64.5689 14.2064 64.6366 14.1318 64.7205 14.0797C64.8045 14.0276 64.9013 14 65.0001 14C65.0989 14 65.1957 14.0276 65.2796 14.0797C65.3636 14.1318 65.4313 14.2064 65.4751 14.2949L67.7851 18.9739C67.9373 19.2819 68.1619 19.5483 68.4397 19.7503C68.7175 19.9524 69.0402 20.084 69.3801 20.1339L74.5461 20.8899C74.644 20.9041 74.7359 20.9454 74.8116 21.0091C74.8872 21.0728 74.9435 21.1564 74.9741 21.2505C75.0047 21.3446 75.0084 21.4453 74.9847 21.5413C74.961 21.6374 74.9109 21.7248 74.8401 21.7939L71.1041 25.4319C70.8577 25.672 70.6734 25.9684 70.5669 26.2955C70.4605 26.6227 70.4352 26.9708 70.4931 27.3099L71.3751 32.4499C71.3924 32.5477 71.3818 32.6485 71.3446 32.7406C71.3074 32.8327 71.245 32.9125 71.1646 32.9709C71.0842 33.0293 70.9891 33.0639 70.89 33.0708C70.7908 33.0777 70.6918 33.0566 70.6041 33.0099L65.9861 30.5819C65.6818 30.4221 65.3433 30.3386 64.9996 30.3386C64.6559 30.3386 64.3174 30.4221 64.0131 30.5819L59.3961 33.0099C59.3084 33.0563 59.2095 33.0772 59.1105 33.0701C59.0116 33.0631 58.9166 33.0285 58.8364 32.9701C58.7562 32.9118 58.6939 32.8321 58.6567 32.7401C58.6196 32.6481 58.6089 32.5476 58.6261 32.4499L59.5071 27.3109C59.5653 26.9716 59.5401 26.6233 59.4336 26.2959C59.3272 25.9686 59.1427 25.672 58.8961 25.4319L55.1601 21.7949C55.0887 21.7259 55.0381 21.6383 55.0141 21.542C54.99 21.4456 54.9935 21.3445 55.0242 21.2501C55.0548 21.1557 55.1114 21.0717 55.1874 21.0079C55.2634 20.944 55.3558 20.9028 55.4541 20.8889L60.6191 20.1339C60.9593 20.0844 61.2825 19.953 61.5607 19.7509C61.8389 19.5488 62.0638 19.2822 62.2161 18.9739L64.5251 14.2949Z" fill="white" stroke="white" stroke-linecap="round" stroke-linejoin="round"/>
<path d="M64.7156 18.1701C64.7419 18.119 64.7825 18.076 64.8328 18.046C64.8832 18.0159 64.9413 18 65.0005 18C65.0598 18 65.1179 18.0159 65.1683 18.046C65.2186 18.076 65.2592 18.119 65.2855 18.1701L66.6714 20.8687C66.7627 21.0464 66.8975 21.2 67.0641 21.3166C67.2308 21.4331 67.4244 21.509 67.6283 21.5378L70.7276 21.9738C70.7863 21.982 70.8415 22.0058 70.8869 22.0426C70.9323 22.0793 70.9661 22.1275 70.9844 22.1818C71.0028 22.236 71.005 22.2941 70.9908 22.3495C70.9765 22.4049 70.9465 22.4554 70.904 22.4952L68.6626 24.5935C68.5148 24.7319 68.4042 24.9029 68.3403 25.0916C68.2765 25.2802 68.2613 25.481 68.296 25.6766L68.8252 28.6412C68.8356 28.6976 68.8292 28.7557 68.8069 28.8088C68.7846 28.8619 68.7472 28.908 68.6989 28.9416C68.6507 28.9753 68.5936 28.9953 68.5341 28.9993C68.4747 29.0032 68.4152 28.9911 68.3626 28.9641L65.5921 27.5638C65.4095 27.4716 65.2064 27.4235 65.0002 27.4235C64.794 27.4235 64.5909 27.4716 64.4084 27.5638L61.6384 28.9641C61.5858 28.9909 61.5265 29.0029 61.4671 28.9989C61.4078 28.9948 61.3508 28.9748 61.3026 28.9412C61.2545 28.9075 61.2172 28.8616 61.1949 28.8085C61.1726 28.7555 61.1662 28.6975 61.1765 28.6412L61.705 25.6772C61.74 25.4815 61.7248 25.2806 61.661 25.0918C61.5971 24.903 61.4864 24.732 61.3385 24.5935L59.0971 22.4958C59.0542 22.456 59.0239 22.4055 59.0095 22.3499C58.995 22.2943 58.9971 22.236 59.0155 22.1816C59.0339 22.1271 59.0678 22.0787 59.1134 22.0419C59.159 22.005 59.2145 21.9813 59.2735 21.9732L62.3722 21.5378C62.5763 21.5092 62.7702 21.4334 62.9371 21.3169C63.104 21.2003 63.2389 21.0465 63.3303 20.8687L64.7156 18.1701Z" fill="white" stroke="#FF82EB" stroke-linecap="round" stroke-linejoin="round"/>
<path d="M96.6726 26.706C96.6726 27.426 96.4866 28.032 96.1146 28.524C95.7426 29.004 95.2386 29.37 94.6026 29.622C93.9786 29.874 93.2946 30 92.5506 30H86.3766V17.22H93.2166C93.8166 17.22 94.3326 17.382 94.7646 17.706C95.2086 18.018 95.5446 18.426 95.7726 18.93C96.0126 19.422 96.1326 19.938 96.1326 20.478C96.1326 21.09 95.9766 21.672 95.6646 22.224C95.3526 22.776 94.8966 23.184 94.2966 23.448C95.0286 23.664 95.6046 24.054 96.0246 24.618C96.4566 25.182 96.6726 25.878 96.6726 26.706ZM94.1706 26.238C94.1706 25.914 94.1046 25.626 93.9726 25.374C93.8406 25.11 93.6606 24.906 93.4326 24.762C93.2166 24.606 92.9646 24.528 92.6766 24.528H88.8606V27.894H92.5506C92.8506 27.894 93.1206 27.822 93.3606 27.678C93.6126 27.522 93.8106 27.318 93.9546 27.066C94.0986 26.814 94.1706 26.538 94.1706 26.238ZM88.8606 19.344V22.566H92.1726C92.4486 22.566 92.7006 22.5 92.9286 22.368C93.1566 22.236 93.3366 22.05 93.4686 21.81C93.6126 21.57 93.6846 21.282 93.6846 20.946C93.6846 20.622 93.6186 20.34 93.4866 20.1C93.3666 19.86 93.1986 19.674 92.9826 19.542C92.7786 19.41 92.5446 19.344 92.2806 19.344H88.8606ZM107.377 27.822V30H98.503V17.22H107.215V19.398H100.987V22.476H106.369V24.492H100.987V27.822H107.377ZM116.82 20.568C116.736 20.484 116.58 20.37 116.352 20.226C116.136 20.082 115.866 19.944 115.542 19.812C115.23 19.68 114.888 19.566 114.516 19.47C114.144 19.362 113.766 19.308 113.382 19.308C112.71 19.308 112.2 19.434 111.852 19.686C111.516 19.938 111.348 20.292 111.348 20.748C111.348 21.096 111.456 21.372 111.672 21.576C111.888 21.78 112.212 21.954 112.644 22.098C113.076 22.242 113.616 22.398 114.264 22.566C115.104 22.77 115.83 23.022 116.442 23.322C117.066 23.61 117.54 23.994 117.864 24.474C118.2 24.942 118.368 25.566 118.368 26.346C118.368 27.03 118.242 27.618 117.99 28.11C117.738 28.59 117.39 28.98 116.946 29.28C116.502 29.58 115.998 29.802 115.434 29.946C114.87 30.078 114.27 30.144 113.634 30.144C112.998 30.144 112.362 30.078 111.726 29.946C111.09 29.814 110.478 29.628 109.89 29.388C109.302 29.136 108.762 28.836 108.27 28.488L109.368 26.346C109.476 26.454 109.668 26.598 109.944 26.778C110.22 26.946 110.556 27.12 110.952 27.3C111.348 27.468 111.78 27.612 112.248 27.732C112.716 27.852 113.19 27.912 113.67 27.912C114.342 27.912 114.852 27.798 115.2 27.57C115.548 27.342 115.722 27.018 115.722 26.598C115.722 26.214 115.584 25.914 115.308 25.698C115.032 25.482 114.648 25.296 114.156 25.14C113.664 24.972 113.082 24.792 112.41 24.6C111.606 24.372 110.934 24.12 110.394 23.844C109.854 23.556 109.452 23.196 109.188 22.764C108.924 22.332 108.792 21.792 108.792 21.144C108.792 20.268 108.996 19.536 109.404 18.948C109.824 18.348 110.388 17.898 111.096 17.598C111.804 17.286 112.59 17.13 113.454 17.13C114.054 17.13 114.618 17.196 115.146 17.328C115.686 17.46 116.19 17.634 116.658 17.85C117.126 18.066 117.546 18.3 117.918 18.552L116.82 20.568ZM129.695 19.398H125.609V30H123.143V19.398H119.057V17.22H129.695V19.398ZM138.787 20.568C138.703 20.484 138.547 20.37 138.319 20.226C138.103 20.082 137.833 19.944 137.509 19.812C137.197 19.68 136.855 19.566 136.483 19.47C136.111 19.362 135.733 19.308 135.349 19.308C134.677 19.308 134.167 19.434 133.819 19.686C133.483 19.938 133.315 20.292 133.315 20.748C133.315 21.096 133.423 21.372 133.639 21.576C133.855 21.78 134.179 21.954 134.611 22.098C135.043 22.242 135.583 22.398 136.231 22.566C137.071 22.77 137.797 23.022 138.409 23.322C139.033 23.61 139.507 23.994 139.831 24.474C140.167 24.942 140.335 25.566 140.335 26.346C140.335 27.03 140.209 27.618 139.957 28.11C139.705 28.59 139.357 28.98 138.913 29.28C138.469 29.58 137.965 29.802 137.401 29.946C136.837 30.078 136.237 30.144 135.601 30.144C134.965 30.144 134.329 30.078 133.693 29.946C133.057 29.814 132.445 29.628 131.857 29.388C131.269 29.136 130.729 28.836 130.237 28.488L131.335 26.346C131.443 26.454 131.635 26.598 131.911 26.778C132.187 26.946 132.523 27.12 132.919 27.3C133.315 27.468 133.747 27.612 134.215 27.732C134.683 27.852 135.157 27.912 135.637 27.912C136.309 27.912 136.819 27.798 137.167 27.57C137.515 27.342 137.689 27.018 137.689 26.598C137.689 26.214 137.551 25.914 137.275 25.698C136.999 25.482 136.615 25.296 136.123 25.14C135.631 24.972 135.049 24.792 134.377 24.6C133.573 24.372 132.901 24.12 132.361 23.844C131.821 23.556 131.419 23.196 131.155 22.764C130.891 22.332 130.759 21.792 130.759 21.144C130.759 20.268 130.963 19.536 131.371 18.948C131.791 18.348 132.355 17.898 133.063 17.598C133.771 17.286 134.557 17.13 135.421 17.13C136.021 17.13 136.585 17.196 137.113 17.328C137.653 17.46 138.157 17.634 138.625 17.85C139.093 18.066 139.513 18.3 139.885 18.552L138.787 20.568ZM150.978 27.822V30H142.104V17.22H150.816V19.398H144.588V22.476H149.97V24.492H144.588V27.822H150.978ZM152.807 30V17.22H155.291V27.822H161.807V30H152.807ZM163.21 30V17.22H165.694V27.822H172.21V30H163.21ZM182.488 27.822V30H173.614V17.22H182.326V19.398H176.098V22.476H181.48V24.492H176.098V27.822H182.488ZM184.317 30V17.22H189.969C190.557 17.22 191.097 17.34 191.589 17.58C192.093 17.82 192.525 18.144 192.885 18.552C193.257 18.96 193.539 19.416 193.731 19.92C193.935 20.424 194.037 20.94 194.037 21.468C194.037 22.008 193.941 22.53 193.749 23.034C193.569 23.526 193.305 23.958 192.957 24.33C192.609 24.702 192.201 24.99 191.733 25.194L194.649 30H191.913L189.285 25.716H186.801V30H184.317ZM186.801 23.538H189.915C190.227 23.538 190.503 23.448 190.743 23.268C190.983 23.076 191.175 22.824 191.319 22.512C191.463 22.2 191.535 21.852 191.535 21.468C191.535 21.06 191.451 20.706 191.283 20.406C191.115 20.094 190.899 19.848 190.635 19.668C190.383 19.488 190.107 19.398 189.807 19.398H186.801V23.538Z" fill="white"/>
<path d="M4 0H11V12H0V4C0 1.79086 1.79086 0 4 0Z" fill="#FF82EB"/>
<path d="M4 2H6V12H2V4C2 2.89543 2.89543 2 4 2Z" fill="#3D245B"/>
</svg>
