<svg width="325" height="425" viewBox="0 0 325 425" fill="none" xmlns="http://www.w3.org/2000/svg">
<g clip-path="url(#clip0_2875_5)">
<rect y="3" width="314" height="422" rx="40" fill="#C493FF" stroke="url(#paint0_linear_2875_5)" stroke-width="6" stroke-linecap="round"/>
<path opacity="0.1" d="M324.848 473.184H-69.668V471.184H324.848V473.184ZM324.848 414.105H-69.668V412.105H324.848V414.105ZM324.848 355.035H-69.668V353.035H324.848V355.035ZM324.848 -60.4688V-58.4688H286.764V-1.39844H324.848V0.601562H286.764V57.6758L324.848 57.6758V59.6758L286.764 59.6758V116.75H324.848V118.75H286.764V175.82H324.848V177.82H286.764V234.891H324.848V236.891H286.764V293.961H324.848V295.961H286.764V334.048H284.764V295.961H227.693V334.048H225.693V295.961H168.619V334.048H166.619V295.961H109.549V334.048H107.549V295.961H50.4766L50.4766 334.048H48.4766L48.4766 295.961H-8.59766V334.048H-10.5977V295.961H-67.668L-67.668 334.048H-69.668L-69.668 -60.4688L324.848 -60.4688ZM345.836 334.048H343.836V-60.4688H345.836V334.048ZM404.906 334.048H402.906V-60.4688H404.906V334.048ZM463.98 334.048H461.98V-60.4688H463.98V334.048ZM-67.668 236.891V293.961H-10.5977L-10.5977 236.891H-67.668ZM-8.59766 236.891L-8.59766 293.961H48.4766V236.891H-8.59766ZM50.4766 236.891V293.961H107.549V236.891H50.4766ZM109.549 236.891V293.961H166.619V236.891H109.549ZM168.619 236.891V293.961H225.693V236.891H168.619ZM227.693 236.891V293.961H284.764V236.891H227.693ZM-67.668 177.82V234.891H-10.5977V177.82H-67.668ZM-8.59766 177.82V234.891H48.4766V177.82H-8.59766ZM50.4766 177.82V234.891H107.549L107.549 177.82H50.4766ZM109.549 177.82L109.549 234.891H166.619L166.619 177.82H109.549ZM168.619 177.82L168.619 234.891H225.693V177.82L168.619 177.82ZM227.693 177.82V234.891H284.764V177.82H227.693ZM-67.668 118.75V175.82H-10.5977L-10.5977 118.75H-67.668ZM-8.59766 118.75L-8.59766 175.82H48.4766V118.75H-8.59766ZM50.4766 118.75V175.82H107.549V118.75H50.4766ZM109.549 118.75V175.82H166.619V118.75H109.549ZM168.619 118.75V175.82L225.693 175.82V118.75L168.619 118.75ZM227.693 118.75V175.82H284.764V118.75H227.693ZM-67.668 59.6758L-67.668 116.75H-10.5977V59.6758H-67.668ZM-8.59766 59.6758V116.75H48.4766L48.4766 59.6758H-8.59766ZM50.4766 59.6758L50.4766 116.75H107.549V59.6758L50.4766 59.6758ZM109.549 59.6758V116.75H166.619V59.6758H109.549ZM168.619 59.6758V116.75L225.693 116.75V59.6758H168.619ZM227.693 59.6758V116.75H284.764V59.6758H227.693ZM-67.668 0.601562V57.6758H-10.5977L-10.5977 0.601562H-67.668ZM-8.59766 0.601562L-8.59766 57.6758H48.4766V0.601562L-8.59766 0.601562ZM50.4766 0.601562V57.6758L107.549 57.6758V0.601562H50.4766ZM109.549 0.601562V57.6758H166.619V0.601562L109.549 0.601562ZM168.619 0.601562V57.6758H225.693V0.601562H168.619ZM227.693 0.601562V57.6758H284.764V0.601562L227.693 0.601562ZM-67.668 -58.4688V-1.39844H-10.5977V-58.4688H-67.668ZM-8.59766 -58.4688V-1.39844L48.4766 -1.39844V-58.4688L-8.59766 -58.4688ZM50.4766 -58.4688V-1.39844H107.549V-58.4688H50.4766ZM109.549 -58.4688V-1.39844L166.619 -1.39844V-58.4688L109.549 -58.4688ZM168.619 -58.4688V-1.39844H225.693V-58.4688H168.619ZM227.693 -58.4688V-1.39844L284.764 -1.39844V-58.4688L227.693 -58.4688Z" fill="url(#paint1_radial_2875_5)"/>
</g>
<defs>
<linearGradient id="paint0_linear_2875_5" x1="156.209" y1="2.99987" x2="156.145" y2="425" gradientUnits="userSpaceOnUse">
<stop stop-color="#FFAC2F"/>
<stop offset="1" stop-color="#FFAC2F" stop-opacity="0"/>
</linearGradient>
<radialGradient id="paint1_radial_2875_5" cx="0" cy="0" r="1" gradientUnits="userSpaceOnUse" gradientTransform="translate(155.646 189.119) rotate(174.031) scale(229.252 229.253)">
<stop offset="0.42" stop-color="white"/>
<stop offset="1" stop-color="#666666" stop-opacity="0"/>
</radialGradient>
<clipPath id="clip0_2875_5">
<rect width="325" height="425" fill="white"/>
</clipPath>
</defs>
</svg>
