<svg width="360" height="315" viewBox="0 0 360 315" fill="none" xmlns="http://www.w3.org/2000/svg">
<g clip-path="url(#clip0_2802_18)">
<rect width="360" height="315" fill="white"/>
<rect x="-2" y="2" width="356" height="4" transform="matrix(-1 0 0 1 356 285)" stroke="url(#paint0_linear_2802_18)" stroke-width="4"/>
<path d="M-1.06207 33.5356C1.35899 25.5669 12.641 25.5669 15.0621 33.5356C16.8256 39.3401 23.9604 41.4351 28.5821 37.5055C34.9271 32.1107 44.4181 38.2102 42.1466 46.2229C40.492 52.0593 45.3616 57.6791 51.3742 56.872C59.6285 55.764 64.3152 66.0264 58.0724 71.539C53.525 75.5545 54.5833 82.9148 60.0777 85.4864C67.6207 89.0169 66.0151 100.184 57.783 101.446C51.7866 102.366 48.6976 109.13 51.9295 114.264C56.3663 121.312 48.9782 129.838 41.3704 126.45C35.8288 123.981 29.5732 128.002 29.5164 134.068C29.4385 142.396 18.6134 145.574 14.0454 138.611C10.718 133.538 3.28199 133.538 -0.0454178 138.611C-4.61345 145.574 -15.4385 142.396 -15.5164 134.068C-15.5732 128.002 -21.8288 123.981 -27.3704 126.45C-34.9782 129.838 -42.3663 121.312 -37.9294 114.264C-34.6976 109.13 -37.7866 102.366 -43.783 101.446C-52.0151 100.184 -53.6207 89.0169 -46.0777 85.4864C-40.5833 82.9148 -39.525 75.5545 -44.0724 71.539C-50.3152 66.0264 -45.6285 55.764 -37.3742 56.872C-31.3616 57.6791 -26.492 52.0593 -28.1466 46.2229C-30.4181 38.2102 -20.9271 32.1107 -14.5821 37.5055C-9.96041 41.4351 -2.8256 39.3401 -1.06207 33.5356Z" fill="url(#paint1_linear_2802_18)"/>
<path d="M341.224 170.657C343.109 164.454 351.891 164.454 353.776 170.657C355.149 175.176 360.703 176.807 364.301 173.748C369.241 169.548 376.629 174.297 374.861 180.534C373.573 185.078 377.364 189.453 382.044 188.824C388.47 187.962 392.119 195.951 387.259 200.242C383.719 203.368 384.543 209.098 388.82 211.1C394.692 213.849 393.442 222.542 387.034 223.525C382.366 224.241 379.961 229.506 382.477 233.503C385.931 238.99 380.179 245.627 374.257 242.989C369.943 241.068 365.073 244.197 365.029 248.92C364.968 255.403 356.541 257.878 352.985 252.456C350.394 248.507 344.606 248.507 342.015 252.456C338.459 257.878 330.032 255.403 329.971 248.92C329.927 244.197 325.057 241.068 320.743 242.989C314.821 245.627 309.069 238.99 312.523 233.503C315.039 229.506 312.634 224.241 307.966 223.525C301.558 222.542 300.308 213.849 306.18 211.1C310.457 209.098 311.281 203.368 307.741 200.242C302.881 195.951 306.53 187.962 312.956 188.824C317.636 189.453 321.427 185.078 320.139 180.534C318.371 174.297 325.759 169.548 330.699 173.748C334.297 176.807 339.851 175.176 341.224 170.657Z" fill="url(#paint2_linear_2802_18)"/>
</g>
<defs>
<linearGradient id="paint0_linear_2802_18" x1="360" y1="4.05152" x2="0" y2="4.05152" gradientUnits="userSpaceOnUse">
<stop stop-color="#C493FF"/>
<stop offset="1" stop-color="#FFC164"/>
</linearGradient>
<linearGradient id="paint1_linear_2802_18" x1="7" y1="7" x2="7" y2="165" gradientUnits="userSpaceOnUse">
<stop stop-color="#C493FF"/>
<stop offset="1" stop-color="#C493FF" stop-opacity="0"/>
</linearGradient>
<linearGradient id="paint2_linear_2802_18" x1="347.5" y1="150" x2="347.5" y2="273" gradientUnits="userSpaceOnUse">
<stop stop-color="#C493FF"/>
<stop offset="1" stop-color="#C493FF" stop-opacity="0"/>
</linearGradient>
<clipPath id="clip0_2802_18">
<rect width="360" height="315" fill="white"/>
</clipPath>
</defs>
</svg>
