<svg width="78" height="80" viewBox="0 0 78 80" fill="none" xmlns="http://www.w3.org/2000/svg">
<path d="M36.1692 37.5038L36.1692 36.9552L35.6469 37.1229C32.3574 38.1794 29.804 40.8707 28.9614 44.2362L28.9494 44.284V44.2889C28.6982 45.2056 27.9591 45.9194 27.006 46.1278L27.0015 46.1288C26.8248 46.1696 26.6428 46.1889 26.4543 46.1889C25.2835 46.1889 24.2457 45.399 23.9507 44.2575C23.9431 44.216 23.9324 44.1766 23.9291 44.1641L23.9285 44.1617L23.9278 44.1592C22.8098 39.8334 18.852 36.6371 14.1586 36.6371C10.4342 36.6371 7.17941 38.6506 5.42998 41.6387L5.42991 41.6388C4.9013 42.5423 3.86881 43.0397 2.82681 42.8858L2.82544 42.8856C1.7798 42.7348 0.938796 41.9688 0.690553 40.9502C0.500405 40.1656 0.4 39.3565 0.4 38.5185C0.4 17.4823 17.5815 0.4 38.75 0.4C59.9185 0.4 77.1 17.4823 77.1 38.5185C77.1 39.3565 76.9996 40.1656 76.8094 40.9502C76.5611 41.9689 75.7202 42.7348 74.6746 42.8856L74.6732 42.8858C73.6312 43.0397 72.5987 42.5423 72.0701 41.6388L72.07 41.6387C70.3207 38.6506 67.0658 36.6371 63.3414 36.6371C58.6479 36.6371 54.6902 39.8334 53.5722 44.1592L53.5715 44.1618C53.5712 44.1632 53.5706 44.1653 53.5699 44.1681C53.5658 44.1837 53.5563 44.2197 53.5493 44.2574C53.2544 45.3989 52.2165 46.1889 51.0457 46.1889C50.8572 46.1889 50.6752 46.1696 50.4985 46.1288L50.494 46.1278C49.5409 45.9194 48.8019 45.2057 48.5506 44.2889V44.2841L48.5386 44.2362C47.6961 40.8707 45.1426 38.1794 41.8531 37.1229L41.3308 36.9552V37.5038V69.974C41.3308 72.5222 40.3083 74.972 38.4943 76.779C36.6764 78.5825 34.2104 79.6 31.6445 79.6H30.9515C28.3856 79.6 25.9196 78.5825 24.1017 76.779C22.2877 74.972 21.2652 72.5222 21.2652 69.974V65.1851C21.2652 63.7712 22.4177 62.6221 23.846 62.6221C25.2743 62.6221 26.4268 63.7712 26.4268 65.1851V69.974C26.4268 71.1663 26.9056 72.3123 27.7513 73.157L27.7526 73.1584C28.6023 73.9989 29.7541 74.474 30.9514 74.474H31.6444C32.8417 74.474 33.9935 73.9989 34.8432 73.1584L34.8445 73.157C35.6902 72.3123 36.169 71.1663 36.169 69.974L36.1692 37.5038ZM27.9294 35.0937L27.9844 35.9075L28.5941 35.3658C31.292 32.9691 34.8499 31.5112 38.7502 31.5112C42.6505 31.5112 46.2081 32.9691 48.9063 35.3658L49.516 35.9074L49.571 35.0937C49.8332 31.2145 49.8231 26.3473 48.8902 21.5532C47.7029 15.4322 45.0038 9.28145 38.9437 5.93094L38.7502 5.82395L38.5567 5.93093C32.4967 9.28082 29.7976 15.4319 28.6101 21.5534C27.6772 26.3474 27.6672 31.2148 27.9294 35.0937ZM28.8401 7.78657L29.5849 6.77973L28.3944 7.16843C16.821 10.947 8.04381 20.8884 6.00998 33.0905L5.87188 33.919L6.60216 33.504C8.83138 32.2372 11.409 31.5118 14.1583 31.5118C17.0567 31.5118 19.7722 32.3168 22.0809 33.7168L22.7172 34.1027L22.688 33.3591C22.536 29.4939 22.6811 25.0044 23.5416 20.5849L23.5416 20.5846C24.4318 15.9952 26.0795 11.5182 28.8401 7.78657ZM54.8112 33.3586L54.782 34.1022L55.4183 33.7163C57.7271 32.3163 60.4425 31.5114 63.341 31.5114C66.0902 31.5114 68.6678 32.2368 70.897 33.5035L71.6273 33.9185L71.4892 33.09C69.4559 20.8879 60.6791 10.947 49.1049 7.16796L47.9143 6.77923L48.6591 7.78609C51.4196 11.5177 53.067 15.9942 53.9571 20.5836L53.9572 20.5839C54.8177 25.0038 54.9632 29.4938 54.8112 33.3586Z" fill="#603F87" stroke="white" stroke-width="0.8"/>
</svg>
