<svg width="76" height="59" viewBox="0 0 76 59" fill="none" xmlns="http://www.w3.org/2000/svg">
<path d="M37.8676 0.00716445C37.5774 0.0356104 37.2992 0.137558 37.0588 0.303486C36.8185 0.469414 36.6238 0.693909 36.4931 0.956007L34.3101 5.3749L29.1626 6.10687C28.8493 6.15554 28.5553 6.29013 28.3131 6.49586C28.0709 6.70158 27.8897 6.97048 27.7894 7.27302C27.6891 7.57556 27.6737 7.90004 27.7448 8.21083C27.8159 8.52162 27.9708 8.80668 28.1924 9.03473L31.8846 12.7488L31.1569 17.981C31.1141 18.2938 31.1569 18.6125 31.2809 18.9027C31.4048 19.1929 31.6051 19.4436 31.8603 19.6277C32.1154 19.8118 32.4156 19.9223 32.7286 19.9475C33.0416 19.9726 33.3554 19.9113 33.6364 19.7702L38.0293 17.5743L42.4222 19.7702C42.7031 19.9113 43.017 19.9726 43.33 19.9475C43.6429 19.9223 43.9432 19.8118 44.1983 19.6277C44.4534 19.4436 44.6537 19.1929 44.7777 18.9027C44.9016 18.6125 44.9445 18.2938 44.9016 17.981L44.174 12.7488L47.8662 9.03473C48.0878 8.80668 48.2427 8.52162 48.3137 8.21083C48.3848 7.90004 48.3694 7.57556 48.2692 7.27302C48.1689 6.97048 47.9877 6.70158 47.7454 6.49586C47.5032 6.29013 47.2093 6.15554 46.896 6.10687L41.7484 5.3749L39.5654 0.956007C39.4099 0.644638 39.1647 0.387601 38.8619 0.218364C38.5591 0.0491272 38.2126 -0.0244674 37.8676 0.00716445ZM38.0293 5.61889L39.0803 7.73346C39.207 7.97994 39.3906 8.19228 39.6157 8.35266C39.8407 8.51304 40.1008 8.61678 40.374 8.65519L43.0151 9.03473L41.1286 10.9324C40.9409 11.1222 40.7995 11.3532 40.7153 11.6071C40.6312 11.8611 40.6066 12.1312 40.6435 12.3963L41.0477 15.1886L38.8108 14.0771C38.5687 13.9534 38.3009 13.8888 38.0293 13.8888C37.7576 13.8888 37.4899 13.9534 37.2477 14.0771L35.0108 15.1886L35.4151 12.3963C35.452 12.1312 35.4274 11.8611 35.3432 11.6071C35.2591 11.3532 35.1176 11.1222 34.93 10.9324L33.0434 9.03473L35.6846 8.65519C35.9578 8.61678 36.2178 8.51304 36.4429 8.35266C36.668 8.19228 36.8516 7.97994 36.9782 7.73346L38.0293 5.61889ZM62.0151 8.6823C61.725 8.71074 61.4468 8.81269 61.2064 8.97862C60.966 9.14455 60.7714 9.36904 60.6407 9.63114L58.4577 14.05L53.3102 14.782C52.9968 14.8307 52.7029 14.9653 52.4607 15.171C52.2184 15.3767 52.0372 15.6456 51.937 15.9482C51.8367 16.2507 51.8213 16.5752 51.8924 16.886C51.9635 17.1967 52.1183 17.4818 52.3399 17.7099L56.0322 21.4239L55.3045 26.6561C55.2616 26.969 55.3045 27.2877 55.4284 27.5779C55.5524 27.8681 55.7527 28.1187 56.0078 28.3028C56.263 28.4869 56.5632 28.5975 56.8762 28.6226C57.1892 28.6477 57.503 28.5864 57.7839 28.4453L62.1768 26.2494L66.5698 28.4453C66.8507 28.5864 67.1645 28.6477 67.4775 28.6226C67.7905 28.5975 68.0907 28.4869 68.3459 28.3028C68.601 28.1187 68.8013 27.8681 68.9252 27.5779C69.0492 27.2877 69.092 26.969 69.0492 26.6561L68.3215 21.4239L72.0137 17.7099C72.2354 17.4818 72.3902 17.1967 72.4613 16.886C72.5324 16.5752 72.517 16.2507 72.4167 15.9482C72.3165 15.6456 72.1353 15.3767 71.893 15.171C71.6508 14.9653 71.3568 14.8307 71.0435 14.782L65.896 14.05L63.713 9.63114C63.5575 9.31977 63.3123 9.06274 63.0095 8.8935C62.7066 8.72426 62.3601 8.65067 62.0151 8.6823ZM62.1768 14.294L63.2279 16.4086C63.3546 16.6551 63.5381 16.8674 63.7632 17.0278C63.9883 17.1882 64.2484 17.2919 64.5215 17.3303L67.1627 17.7099L65.2761 19.6075C65.0885 19.7974 64.9471 20.0283 64.8629 20.2823C64.7788 20.5362 64.7542 20.8064 64.791 21.0715L65.1953 23.8638L62.9584 22.7523C62.7163 22.6285 62.4485 22.564 62.1768 22.564C61.9052 22.564 61.6374 22.6285 61.3953 22.7523L59.1584 23.8638L59.5627 21.0715C59.5995 20.8064 59.5749 20.5362 59.4908 20.2823C59.4066 20.0283 59.2652 19.7974 59.0775 19.6075L57.191 17.7099L59.8322 17.3303C60.1053 17.2919 60.3654 17.1882 60.5905 17.0278C60.8155 16.8674 60.9991 16.6551 61.1258 16.4086L62.1768 14.294ZM13.72 17.3574C13.4299 17.3859 13.1516 17.4878 12.9113 17.6538C12.6709 17.8197 12.4763 18.0442 12.3455 18.3063L10.1625 22.7252L5.01502 23.4571C4.7017 23.5058 4.40778 23.6404 4.16553 23.8461C3.92328 24.0518 3.74208 24.3207 3.64183 24.6233C3.54157 24.9258 3.52614 25.2503 3.59723 25.5611C3.66832 25.8719 3.82318 26.157 4.0448 26.385L7.73701 30.099L7.00935 35.3312C6.9665 35.6441 7.00936 35.9628 7.1333 36.253C7.25724 36.5432 7.45757 36.7938 7.71269 36.9779C7.96781 37.162 8.26804 37.2726 8.58103 37.2977C8.89401 37.3228 9.20788 37.2616 9.48878 37.1205L13.8817 34.9246L18.2746 37.1205C18.5555 37.2616 18.8694 37.3228 19.1824 37.2977C19.4954 37.2726 19.7956 37.162 20.0507 36.9779C20.3058 36.7938 20.5062 36.5432 20.6301 36.253C20.754 35.9628 20.7969 35.6441 20.7541 35.3312L20.0264 30.099L23.7186 26.385C23.9402 26.157 24.0951 25.8719 24.1662 25.5611C24.2373 25.2503 24.2218 24.9258 24.1216 24.6233C24.0213 24.3207 23.8401 24.0518 23.5979 23.8461C23.3556 23.6404 23.0617 23.5058 22.7484 23.4571L17.6009 22.7252L15.4179 18.3063C15.2623 17.9949 15.0171 17.7379 14.7143 17.5686C14.4115 17.3994 14.065 17.3258 13.72 17.3574ZM13.8817 22.9692L14.9328 25.0837C15.0594 25.3302 15.243 25.5425 15.4681 25.7029C15.6932 25.8633 15.9532 25.9671 16.2264 26.0055L18.8675 26.385L16.981 28.2827C16.7934 28.4725 16.6519 28.7035 16.5678 28.9574C16.4836 29.2114 16.459 29.4815 16.4959 29.7466L16.9001 32.5389L14.6633 31.4274C14.4211 31.3036 14.1533 31.2391 13.8817 31.2391C13.6101 31.2391 13.3423 31.3036 13.1001 31.4274L10.8633 32.5389L11.2675 29.7466C11.3044 29.4815 11.2798 29.2114 11.1956 28.9574C11.1115 28.7035 10.97 28.4725 10.7824 28.2827L8.89588 26.385L11.537 26.0055C11.8102 25.9671 12.0702 25.8633 12.2953 25.7029C12.5204 25.5425 12.704 25.3302 12.8306 25.0837L13.8817 22.9692ZM29.2434 23.43C28.8146 23.4707 28.4164 23.6713 28.1271 23.9923C27.8378 24.3134 27.6785 24.7318 27.6803 25.1651V55.528H24.2307V42.5153C24.2306 42.0552 24.0489 41.6139 23.7254 41.2885C23.402 40.9632 22.9633 40.7803 22.5058 40.7803H5.25757C5.2037 40.7778 5.14974 40.7778 5.09587 40.7803C4.66701 40.821 4.26879 41.0215 3.97952 41.3426C3.69026 41.6637 3.53089 42.082 3.53274 42.5153V55.528H1.80792C1.75405 55.5255 1.70009 55.5255 1.64621 55.528C1.41968 55.5387 1.19744 55.5941 0.992196 55.6911C0.786952 55.7882 0.602723 55.9249 0.45003 56.0936C0.297336 56.2623 0.179169 56.4595 0.102277 56.6742C0.0253856 56.8888 -0.00872491 57.1165 0.00189399 57.3444C0.0125129 57.5723 0.067653 57.7958 0.164166 58.0022C0.260678 58.2087 0.396673 58.394 0.564382 58.5475C0.732092 58.7011 0.928231 58.8199 1.1416 58.8972C1.35497 58.9745 1.58138 59.0088 1.80792 58.9981H74.2506C74.4792 59.0013 74.7061 58.9588 74.9182 58.8731C75.1303 58.7874 75.3233 58.6601 75.4861 58.4987C75.6489 58.3372 75.7781 58.1449 75.8663 57.9327C75.9546 57.7206 76 57.493 76 57.263C76 57.0331 75.9546 56.8055 75.8663 56.5934C75.7781 56.3812 75.6489 56.1889 75.4861 56.0274C75.3233 55.866 75.1303 55.7387 74.9182 55.653C74.7061 55.5672 74.4792 55.5248 74.2506 55.528H72.5258V33.8402C72.5258 33.38 72.344 32.9388 72.0206 32.6134C71.6971 32.288 71.2584 32.1052 70.801 32.1052H53.5527C53.4988 32.1026 53.4449 32.1026 53.391 32.1052C52.9622 32.1458 52.5639 32.3464 52.2747 32.6675C51.9854 32.9886 51.826 33.4069 51.8279 33.8402V55.528H48.3782V25.1651C48.3782 24.7049 48.1965 24.2636 47.873 23.9383C47.5495 23.6129 47.1108 23.4301 46.6534 23.43H29.4051C29.3513 23.4275 29.2973 23.4275 29.2434 23.43ZM31.13 26.9001H44.9286V55.528H31.13V26.9001ZM55.2775 35.5752H69.0761V55.528H55.2775V35.5752ZM6.9824 44.2503H20.781V55.528H6.9824V44.2503Z" fill="#603F87"/>
</svg>
