<svg width="80" height="80" viewBox="0 0 80 80" fill="none" xmlns="http://www.w3.org/2000/svg">
<path d="M16.7429 7.22081V7.98874L17.3721 7.54858C23.7941 3.05662 31.5871 0.4 40 0.4C61.8354 0.4 79.6 18.1646 79.6 40C79.6 61.8354 61.8354 79.6 40 79.6C18.1646 79.6 0.4 61.8354 0.4 40C0.4 29.2416 4.72562 19.484 11.7145 12.3389L11.8286 12.2223V12.0592V5.71429C11.8286 4.35596 12.9274 3.25714 14.2857 3.25714C15.644 3.25714 16.7429 4.35596 16.7429 5.71429V7.22081ZM14.517 16.7429H14.3385L14.2193 16.8756C8.70397 23.0182 5.31429 31.1101 5.31429 40C5.31429 59.1272 20.8728 74.6857 40 74.6857C59.1272 74.6857 74.6857 59.1272 74.6857 40C74.6857 20.8728 59.1272 5.31429 40 5.31429C32.9307 5.31429 26.3555 7.45039 20.8669 11.0954L19.7628 11.8286H21.0882H22.8571C24.2155 11.8286 25.3143 12.9274 25.3143 14.2857C25.3143 15.644 24.2155 16.7429 22.8571 16.7429H14.517Z" fill="#603F87" stroke="white" stroke-width="0.8"/>
<path d="M57.5433 59.1079V58.2112L56.876 58.8103C52.3904 62.8377 46.4858 65.3098 40.0004 65.3098C26.0416 65.3098 14.6861 53.9543 14.6861 39.9955C14.6861 26.0368 26.0416 14.6813 40.0004 14.6813C53.9592 14.6813 65.3147 26.0368 65.3147 39.9955C65.3147 44.155 64.288 48.0729 62.502 51.5398L62.4576 51.626V51.723V59.9955C62.4576 61.3539 61.3587 62.4527 60.0004 62.4527C58.6421 62.4527 57.5433 61.3539 57.5433 59.9955V59.1079ZM58.0428 48.967H58.2951L58.4038 48.7392C59.6697 46.0864 60.4004 43.1285 60.4004 39.9955C60.4004 28.7478 51.2481 19.5955 40.0004 19.5955C28.7527 19.5955 19.6004 28.7478 19.6004 39.9955C19.6004 51.2432 28.7527 60.3955 40.0004 60.3955C45.543 60.3955 50.5702 58.1658 54.2495 54.5672L54.9508 53.8812H53.9698H51.429C50.0707 53.8812 48.9718 52.7824 48.9718 51.4241C48.9718 50.0658 50.0707 48.967 51.429 48.967H58.0428Z" fill="#603F87" stroke="white" stroke-width="0.8"/>
<path d="M36.8579 41.9542L37.1408 42.237L37.4236 41.9542L46.8321 32.5457C47.792 31.5858 49.3467 31.5858 50.3066 32.5457C51.2665 33.5055 51.2665 35.0603 50.3066 36.0202L38.878 47.4487C38.3979 47.9288 37.77 48.1686 37.1408 48.1686C36.5116 48.1686 35.8836 47.9288 35.4035 47.4487L29.6892 41.7345C28.7294 40.7746 28.7294 39.2198 29.6892 38.26C30.6491 37.3001 32.2039 37.3001 33.1637 38.26L36.8579 41.9542Z" fill="#603F87" stroke="white" stroke-width="0.8"/>
</svg>
