<svg width="71" height="80" viewBox="0 0 71 80" fill="none" xmlns="http://www.w3.org/2000/svg">
<path d="M0.4 2.96873C0.4 1.54934 1.55185 0.4 2.96873 0.4C4.38838 0.4 5.53745 1.549 5.53745 2.96873V77.0313C5.53745 78.4509 4.38845 79.6 2.96873 79.6C1.55192 79.6 0.4 78.4507 0.4 77.0313V2.96873Z" fill="#603F87" stroke="white" stroke-width="0.8"/>
<path d="M17.8372 24.9063C17.8373 27.0793 18.0851 29.6168 18.2703 30.5262L18.2701 30.5263L18.273 30.5387C18.3897 31.0309 18.7342 31.5178 19.1315 31.8925C19.5297 32.2682 20.0386 32.5857 20.5427 32.683L20.5802 32.6902H20.6006C21.1117 32.7803 22.6623 32.8968 24.3277 32.9888C26.0529 33.0842 27.9565 33.1559 29.0772 33.1433H29.1381C30.2557 33.1559 32.1578 33.0842 33.8829 32.9888C35.5492 32.8968 37.1014 32.7802 37.6145 32.6902H37.6326L37.6707 32.6827C38.1747 32.5839 38.6839 32.2682 39.0827 31.8928C39.4803 31.5186 39.8248 31.0319 39.9396 30.5369L39.9398 30.5369L39.9422 30.5249C40.1238 29.617 40.3781 27.0705 40.375 24.8959C40.3718 22.7228 40.1239 20.1858 39.9422 19.2773L39.9424 19.2773L39.9395 19.2647C39.8246 18.7733 39.4804 18.2861 39.0832 17.911C38.6849 17.535 38.1751 17.2165 37.6693 17.1192L37.6318 17.112H37.6116C37.1004 17.022 35.5504 16.9062 33.8854 16.815C32.1607 16.7204 30.2572 16.6495 29.1351 16.662H29.0734C27.9552 16.6526 26.0528 16.7235 24.3273 16.8173C22.6619 16.9078 21.11 17.0221 20.5976 17.112H20.5765L20.5384 17.1195C20.0343 17.2184 19.5252 17.5341 19.1264 17.9094C18.7288 18.2836 18.3843 18.7704 18.2695 19.2654L18.1557 19.7558H18.1892C18.0207 20.8983 17.8319 23.0423 17.8372 24.9063ZM17.8372 24.9063C17.8372 24.9065 17.8372 24.9067 17.8372 24.907L18.2372 24.9058H17.8372C17.8372 24.906 17.8372 24.9061 17.8372 24.9063ZM19.5572 37.723L19.5542 37.7224C16.5725 37.1426 13.9246 34.5891 13.2562 31.6705V31.6361L13.2477 31.5956C12.9459 30.1538 12.6937 27.2211 12.6999 24.9099C12.7061 22.5914 12.9431 19.6472 13.2475 18.2104L13.2562 18.1694V18.1341C13.9184 15.21 16.5692 12.6562 19.5513 12.0764L19.5525 12.0761C20.3174 11.925 22.1771 11.7797 24.1349 11.675C26.0818 11.5708 28.0807 11.5088 29.1025 11.5181V11.5182L29.1098 11.5181C30.1284 11.5088 32.1271 11.5716 34.0749 11.6761C36.0329 11.7812 37.8944 11.9265 38.6601 12.0762C41.6543 12.6705 44.3102 15.2355 44.9633 18.1663L44.9678 18.1933L44.9692 18.2018L44.971 18.2102C45.2758 19.6518 45.531 22.5779 45.5248 24.8889C45.5187 27.1848 45.2863 30.0913 44.9861 31.5461L44.9685 31.6261C44.3221 34.5677 41.6633 37.1429 38.6642 37.7255L38.6629 37.7257C37.898 37.8769 36.0375 38.0222 34.0797 38.1269C32.1328 38.2311 30.1348 38.2931 29.1161 38.2838V38.2838H29.1124H28.8874C27.7771 38.2838 25.8187 38.2201 23.9431 38.1172C22.0556 38.0136 20.2949 37.8723 19.5572 37.723Z" fill="#603F87" stroke="white" stroke-width="0.8"/>
<path d="M17.8403 55.1084C17.8403 57.2783 18.0882 59.8191 18.2733 60.7286L18.2732 60.7286L18.2754 60.7382C18.3866 61.223 18.7207 61.7009 19.1073 62.0712C19.4956 62.4433 19.9906 62.7586 20.4831 62.8702L20.5049 62.8751L20.5271 62.8776C20.551 62.8803 20.5773 62.8829 20.6058 62.8856V62.8894H20.6183H20.637V62.8885C21.7863 62.9918 26.1901 63.1109 30.6283 63.2022C35.2333 63.2971 39.9253 63.3629 41.1707 63.3488H41.232C42.4771 63.3613 47.1704 63.2939 51.7758 63.1987C56.2153 63.1069 60.6183 62.9886 61.762 62.8883V62.8894H61.7808H61.7933V62.8855C61.8214 62.8829 61.8473 62.8803 61.8709 62.8777L61.8935 62.8753L61.9157 62.8702C62.4103 62.7586 62.9055 62.4422 63.2936 62.0699C63.6801 61.6991 64.0134 61.222 64.1264 60.7401L64.1266 60.7402L64.1292 60.7272C64.3108 59.8193 64.5652 57.2697 64.562 55.0982C64.5588 52.9283 64.3109 50.3882 64.1292 49.4797L64.1294 49.4796L64.1264 49.4668C64.0134 48.9846 63.6789 48.5073 63.2923 48.1368C62.9039 47.7647 62.4089 47.4484 61.916 47.3367L61.894 47.3317L61.8715 47.3292C61.8477 47.3266 61.8216 47.324 61.7933 47.3213V47.3142H61.7808H61.762V47.3185C60.615 47.2167 56.2121 47.0976 51.7737 47.0058C47.1693 46.9106 42.4774 46.844 41.2318 46.8581H41.1704C39.9238 46.8456 35.2297 46.9129 30.6237 47.0082C26.1837 47.1 21.7805 47.2183 20.637 47.3186V47.3142H20.6183H20.6058V47.3214C20.5777 47.324 20.5518 47.3266 20.5282 47.3292L20.5055 47.3317L20.4831 47.3367C19.9901 47.4485 19.4957 47.765 19.1081 48.1372C18.7222 48.5078 18.3889 48.985 18.2758 49.4668L18.2756 49.4667L18.273 49.4797C18.0915 50.3875 17.8371 52.9369 17.8403 55.1084ZM17.8403 55.1084C17.8403 55.1085 17.8403 55.1086 17.8403 55.1087L18.2403 55.1081H17.8403C17.8403 55.1082 17.8403 55.1083 17.8403 55.1084ZM69.1447 61.8347C69.1446 61.8356 69.1444 61.8366 69.1443 61.8375C68.4882 64.7716 65.8299 67.342 62.8246 67.9307C62.6249 67.968 62.1676 68.008 61.4867 68.0471C60.8147 68.0857 59.9501 68.1224 58.9563 68.1567C56.969 68.2255 54.4725 68.285 51.9811 68.3338C46.9972 68.4315 42.0426 68.4861 41.2373 68.4861H41.1373C40.335 68.4861 35.3797 68.4315 30.3947 68.3338C27.9027 68.285 25.4055 68.2255 23.4179 68.1567C22.4239 68.1224 21.5593 68.0857 20.8874 68.0471C20.2064 68.008 19.7493 67.968 19.5501 67.9307C16.5687 67.3505 13.9153 64.7939 13.2499 61.873V61.8398L13.242 61.8006C12.9489 60.3503 12.6937 57.4193 12.6999 55.1091C12.7061 52.7907 12.9431 49.8495 13.2475 48.4094L13.2562 48.3685V48.3337C13.9245 45.4094 16.5719 42.8562 19.5559 42.2759C19.7587 42.2382 20.225 42.1978 20.9187 42.1583C21.6033 42.1193 22.4841 42.0823 23.4956 42.0476C25.5181 41.9782 28.0554 41.9182 30.5754 41.8692C35.6173 41.7711 40.5782 41.7173 41.1976 41.7204H41.1996H41.2496C42.0519 41.7204 47.0064 41.7751 51.9911 41.8727C54.4829 41.9215 56.98 41.981 58.9677 42.0498C59.9618 42.0842 60.8265 42.1208 61.4987 42.1594C62.1798 42.1986 62.6372 42.2385 62.8368 42.2758C65.8338 42.8616 68.4933 45.4336 69.145 48.3691L69.1452 48.3706C69.1464 48.3793 69.1482 48.3912 69.151 48.4051L69.1517 48.4085C69.4535 49.8533 69.7026 52.7829 69.6995 55.0949C69.6933 57.4079 69.4568 60.3484 69.1528 61.7898C69.1497 61.8037 69.1476 61.8155 69.1462 61.8244C69.1456 61.828 69.1451 61.8315 69.1447 61.8347ZM69.1432 48.3552L69.1432 48.3553L69.1432 48.3552Z" fill="#603F87" stroke="white" stroke-width="0.8"/>
</svg>
