<svg width="68" height="55" viewBox="0 0 68 55" fill="none" xmlns="http://www.w3.org/2000/svg">
<path d="M60.8466 39.2913H7.15324M53.9999 2.66797C55.768 2.66797 57.4637 3.37035 58.7139 4.62059C59.9642 5.87083 60.6666 7.56653 60.6666 9.33464V37.7546C60.6661 38.7927 60.9081 39.8166 61.3732 40.7446L64.9332 47.8346C65.1902 48.3446 65.3119 48.912 65.2866 49.4825C65.2613 50.053 65.0898 50.6074 64.7887 51.0926C64.4875 51.5778 64.0668 51.9775 63.5668 52.2533C63.0668 52.5292 62.5043 52.672 61.9332 52.668H6.06657C5.49554 52.672 4.93305 52.5292 4.43306 52.2533C3.93306 51.9775 3.51231 51.5778 3.21116 51.0926C2.91001 50.6074 2.73856 50.053 2.71324 49.4825C2.68792 48.912 2.80959 48.3446 3.06657 47.8346L6.62657 40.7446C7.09171 39.8166 7.33369 38.7927 7.33324 37.7546V9.33464C7.33324 7.56653 8.03562 5.87083 9.28586 4.62059C10.5361 3.37035 12.2318 2.66797 13.9999 2.66797H53.9999Z" stroke="#603F87" stroke-width="4" stroke-linecap="round" stroke-linejoin="round"/>
</svg>
