<svg width="73" height="72" viewBox="0 0 73 72" fill="none" xmlns="http://www.w3.org/2000/svg">
<path fill-rule="evenodd" clip-rule="evenodd" d="M72.5878 37.7363H62.0423C61.5878 37.7363 61.1521 37.9164 60.8296 38.2389L52.5483 46.5202C51.5826 47.4859 50.2739 48.0279 48.9102 48.0279H38.0286C37.5741 48.0279 37.1384 48.208 36.8159 48.5305L33.3854 51.961C33.0646 52.2818 32.8828 52.7192 32.8828 53.1737C32.8828 53.6283 33.0646 54.0657 33.3854 54.3864L36.8159 57.8169C37.7816 58.7826 38.3236 60.0914 38.3236 61.455V72.0005C56.8399 71.1326 71.7181 56.2543 72.5878 37.7363Z" fill="#FF82EB"/>
<path fill-rule="evenodd" clip-rule="evenodd" d="M19.5879 4.27148C8.28085 10.3521 0.587891 22.2938 0.587891 36.0193C0.587891 37.4104 0.666796 38.7844 0.82117 40.1326L6.69766 35.726C8.04758 34.7123 9.80916 34.4259 11.4112 34.961L17.9875 37.1514C18.6033 37.3573 19.2826 37.1977 19.7423 36.738L24.099 32.3813C24.4215 32.0588 24.6016 31.6231 24.6016 31.1686C24.6016 29.2046 24.6016 25.6814 24.6016 23.7175C24.6016 22.3538 25.1436 21.0451 26.1093 20.0794L29.5399 16.6488C29.8606 16.3281 30.0424 15.8907 30.0424 15.4361C30.0424 14.9816 29.8606 14.5442 29.5399 14.2235L19.5879 4.27148Z" fill="#FF82EB"/>
<path fill-rule="evenodd" clip-rule="evenodd" d="M72.5871 34.3053C71.6918 15.2213 55.913 0 36.6077 0C31.7467 0 27.1103 0.965696 22.8787 2.71355L31.9645 11.7993C32.9302 12.7633 33.4722 14.072 33.4722 15.4374C33.4722 16.8027 32.9285 18.1115 31.9645 19.0755L28.534 22.506C28.2115 22.8285 28.0314 23.2642 28.0314 23.7187C28.0314 25.6827 28.0314 29.2058 28.0314 31.1698C28.0314 32.5334 27.4894 33.8422 26.5237 34.8079C25.3762 35.9554 23.4894 37.8439 22.1669 39.1647C20.7895 40.5437 18.7501 41.024 16.901 40.4082L10.3264 38.2161C9.79296 38.0377 9.20462 38.1338 8.75522 38.4717L1.46191 43.94C4.95591 59.4786 18.4979 71.2316 34.8925 72V61.4546C34.8925 61 34.7124 60.5643 34.3899 60.2419L30.9594 56.8113C29.9954 55.8473 29.4516 54.5386 29.4516 53.1732C29.4516 51.8079 29.9954 50.4991 30.9594 49.5352C32.1395 48.3551 33.4911 47.0017 34.3899 46.1046C35.3556 45.1389 36.6643 44.5969 38.028 44.5969H48.9096C49.3642 44.5969 49.7998 44.4168 50.1223 44.0943L58.4036 35.813C59.3693 34.8473 60.6781 34.3053 62.0417 34.3053H72.5871ZM41.7535 14.0652V24.8765C41.7535 25.8765 42.1515 26.837 42.8582 27.5455C43.9902 28.6758 46.4465 31.1338 47.9233 32.6089C49.1961 33.8817 51.1892 34.0789 52.6849 33.0806L59.4842 28.5489C60.4242 27.9211 61.0348 26.9057 61.1463 25.7804C61.2578 24.6552 60.8582 23.5403 60.0588 22.741L55.2098 17.8919C55.1841 17.8645 55.1618 17.8353 55.1446 17.8027L52.4328 12.3774C51.793 11.0995 50.4877 10.2916 49.0571 10.2916C48.0674 10.2916 46.6746 10.2916 45.5271 10.2916C44.5271 10.2916 43.5666 10.6895 42.8582 11.3962C42.1515 12.1046 41.7535 13.0652 41.7535 14.0652Z" fill="#603F87"/>
<path d="M45.1846 14.7227V24.502C45.1846 24.7407 45.27 24.9715 45.4253 25.1528L49.7537 30.2025C50.0828 30.5865 50.6468 30.6643 51.0677 30.3838L57.0341 26.4061C57.5592 26.0561 57.6327 25.3132 57.1865 24.867L53.018 20.6985C52.942 20.6225 52.8788 20.5347 52.8307 20.4386L49.7491 14.2754C49.5797 13.9367 49.2335 13.7227 48.8547 13.7227H46.1846C45.6323 13.7227 45.1846 14.1704 45.1846 14.7227Z" fill="#FF82EB"/>
</svg>
