<svg width="91" height="73" viewBox="0 0 91 73" fill="none" xmlns="http://www.w3.org/2000/svg">
<path d="M84.6938 21.2578C82.3969 21.4731 78.808 21.832 73.7835 22.4062C71.1278 22.6933 68.1849 22.9805 65.242 23.2676C64.7395 22.6933 64.2371 22.1191 63.7346 21.5449C60.8635 18.602 57.2747 16.2333 53.2551 14.6542C49.2355 13.0751 44.7136 12.142 40.1198 12.3573C35.526 12.5727 30.7887 13.6493 26.3384 15.6591C17.438 19.7505 9.90134 27.9331 6.52778 38.2691C4.80512 43.3653 4.15912 49.0358 4.66156 54.6344C4.66156 56.07 5.02045 57.4338 5.23578 58.8693C5.45112 60.3049 5.81001 61.7404 6.24067 63.1042C7.10201 65.9036 8.17867 68.6311 9.61423 71.2151L8.17867 72.22C5.88178 68.9182 4.01556 65.3293 2.65178 61.3816C-5.81799 37.4796 6.67134 11.2089 30.5733 2.66734C51.1735 -4.65399 73.4247 3.60045 84.6938 21.2578Z" fill="#FF82EB"/>
<path d="M32.2241 43.7213C31.6498 49.8224 35.3823 55.3493 41.3398 57.0719C45.0723 58.0768 48.6612 57.4308 52.4654 54.9904C58.3512 51.1862 87.5647 33.6006 89.5745 32.3804C90.5076 31.8062 90.9383 30.6577 90.5794 29.6528C90.3659 29.0658 89.9541 28.5581 89.4028 28.2773C89.0155 28.08 88.5736 28.002 88.1389 28.002C86.2009 28.1455 47.2974 32.3086 43.7085 32.5957C37.5356 33.0982 32.8701 37.6202 32.2241 43.7213Z" fill="#603F87"/>
</svg>
