<svg width="85" height="86" viewBox="0 0 85 86" fill="none" xmlns="http://www.w3.org/2000/svg">
<rect y="0.78125" width="85" height="85" rx="20" fill="#603F87"/>
<path d="M62.6246 36.1063C62.6246 39.6813 61.5246 42.8438 59.5996 45.5938C56.7121 49.5813 52.0371 52.1937 46.6746 52.1937C44.3371 52.1937 41.9996 51.6437 40.0746 50.8187C39.7996 50.6812 39.6621 50.6813 39.3871 50.5438C37.1871 49.4438 35.1246 47.7938 33.7496 45.7313C33.1996 45.0438 32.7871 44.3563 32.3746 43.5312C32.2371 43.3937 32.0996 43.1188 32.0996 42.8438C31.1371 40.7812 30.7246 38.5812 30.7246 36.2437C30.5871 27.3062 37.7371 20.1562 46.6746 20.1562C55.4746 20.1562 62.6246 27.3063 62.6246 36.1063Z" stroke="#FF82EB" stroke-width="3" stroke-miterlimit="10" stroke-linecap="round" stroke-linejoin="round"/>
<path d="M39.3871 50.407L29.8996 59.8945C27.9746 61.8195 24.8121 61.8195 22.8871 59.8945C20.9621 57.9695 20.9621 54.807 22.8871 52.882L32.3746 43.3945C33.8871 46.4195 36.3621 48.8945 39.3871 50.407Z" stroke="#FF82EB" stroke-width="3" stroke-miterlimit="10" stroke-linecap="round" stroke-linejoin="round"/>
<path d="M59.6 45.5938C56.7125 49.5813 52.0375 52.1937 46.675 52.1937C44.3375 52.1937 42 51.6437 40.075 50.8187C39.8 50.6812 39.6625 50.6813 39.3875 50.5438C37.1875 49.4438 35.125 47.7938 33.75 45.7313C35.675 40.5063 40.7625 36.6562 46.675 36.6562C52.5875 36.6562 57.675 40.3688 59.6 45.5938Z" stroke="#FF82EB" stroke-width="3" stroke-miterlimit="10" stroke-linecap="round" stroke-linejoin="round"/>
<path d="M46.6746 36.6578C49.7881 36.6578 52.3121 34.1338 52.3121 31.0203C52.3121 27.9068 49.7881 25.3828 46.6746 25.3828C43.5611 25.3828 41.0371 27.9068 41.0371 31.0203C41.0371 34.1338 43.5611 36.6578 46.6746 36.6578Z" stroke="#FF82EB" stroke-width="3" stroke-miterlimit="10" stroke-linecap="round" stroke-linejoin="round"/>
</svg>
