<svg width="85" height="86" viewBox="0 0 85 86" fill="none" xmlns="http://www.w3.org/2000/svg">
<rect y="0.78125" width="85" height="85" rx="20" fill="#603F87"/>
<path d="M21.1263 46.8542L22.2798 51.0895C22.489 51.8718 22.9583 52.562 23.6122 53.0493C24.2661 53.5367 25.0668 53.7931 25.8859 53.7773L27.8025 53.7468C27.9888 53.7388 28.1742 53.7763 28.3422 53.8561C28.5103 53.9359 28.6558 54.0555 28.7657 54.2043C29.5293 55.1796 30.3977 56.0702 31.3557 56.8606C31.4958 56.9698 31.6076 57.1103 31.6819 57.2706C31.7562 57.4309 31.7909 57.6063 31.7831 57.7824L31.7432 59.9615C31.7294 60.7698 31.9897 61.5594 32.4827 62.2048C32.9756 62.8501 33.673 63.3141 34.4637 63.5229L38.7521 64.6573C39.5426 64.8669 40.3813 64.8095 41.1349 64.4941C41.8885 64.1788 42.5137 63.6236 42.911 62.9169L43.8414 61.2661C43.9274 61.1033 44.0529 60.9641 44.2068 60.8611C44.3607 60.7581 44.5381 60.6944 44.723 60.6758C45.961 60.5091 47.177 60.2106 48.35 59.7854C48.5164 59.7206 48.696 59.6957 48.874 59.7128C49.052 59.7299 49.2234 59.7885 49.374 59.8838L51.2667 61.0034C51.9688 61.4198 52.7919 61.5919 53.6046 61.4922C54.4173 61.3926 55.1727 61.0268 55.7504 60.4534L58.8892 57.3535C59.4686 56.7824 59.8379 56.0364 59.9383 55.2341C60.0386 54.4318 59.8643 53.6194 59.4431 52.9263L58.4579 51.304C58.3575 51.1491 58.2976 50.972 58.2835 50.7887C58.2694 50.6053 58.3016 50.4213 58.3772 50.2533C58.8502 49.1105 59.1976 47.9208 59.4132 46.7047C59.4393 46.53 59.5072 46.3639 59.6111 46.2202C59.715 46.0766 59.852 45.9593 60.0109 45.8782L61.9354 44.8108C62.6513 44.4185 63.2137 43.8009 63.533 43.0564C63.8523 42.3118 63.9103 41.4832 63.6976 40.7024L62.5481 36.472C62.3378 35.6905 61.8684 35.0012 61.215 34.514C60.5615 34.0268 59.7616 33.7698 58.943 33.7842L57.0254 33.8147C56.839 33.8236 56.6533 33.7863 56.4851 33.7065C56.3169 33.6266 56.1716 33.5066 56.0621 33.3572C55.2989 32.3817 54.4304 31.491 53.4722 30.7009C53.3323 30.5913 53.2206 30.4506 53.1463 30.2902C53.0721 30.1298 53.0373 29.9543 53.0448 29.7781L53.0807 27.6029C53.0946 26.7945 52.8342 26.0047 52.341 25.3593C51.8478 24.7139 51.1502 24.25 50.3592 24.0415L46.0758 22.9072C45.2852 22.6957 44.4457 22.7517 43.691 23.0663C42.9364 23.3808 42.3101 23.9357 41.9119 24.6426L40.9825 26.2935C40.8964 26.4561 40.7708 26.5952 40.6169 26.6982C40.4631 26.8012 40.2858 26.865 40.1009 26.8838C38.8625 27.0499 37.646 27.3484 36.4729 27.7741C36.3068 27.8392 36.1273 27.8642 35.9494 27.8471C35.7714 27.83 35.6002 27.7712 35.4499 27.6757L33.5572 26.5571C32.8555 26.141 32.033 25.9686 31.2206 26.0676C30.4083 26.1665 29.6528 26.5311 29.0745 27.1031L25.9357 30.2041C25.3563 30.7751 24.987 31.5212 24.8866 32.3235C24.7863 33.1258 24.9606 33.9382 25.3818 34.6313L26.366 36.2536C26.4664 36.4085 26.5263 36.5855 26.5404 36.7689C26.5545 36.9523 26.5223 37.1362 26.4467 37.3043C26.1703 37.9747 25.9374 38.6618 25.7494 39.3615C25.6169 39.8534 25.5043 40.3522 25.4157 40.8519C25.3897 41.0268 25.3219 41.193 25.218 41.3369C25.1141 41.4808 24.977 41.5981 24.818 41.6793L22.8875 42.7448C22.1716 43.1373 21.6093 43.7551 21.2901 44.4999C20.9709 45.2446 20.9133 46.0734 21.1263 46.8542ZM24.0928 44.8866L26.0213 43.827C26.5032 43.5685 26.9191 43.205 27.2374 42.7639C27.5557 42.3229 27.768 41.8161 27.8582 41.2819C27.9349 40.8529 28.0306 40.423 28.1441 40.0029C28.306 39.4032 28.5056 38.8141 28.7418 38.2389C28.9638 37.7189 29.0569 37.154 29.0136 36.5913C28.9703 36.0286 28.7918 35.4841 28.4928 35.0032L27.5096 33.3809C27.3674 33.1575 27.3076 32.8925 27.3403 32.6307C27.3729 32.3688 27.4961 32.1261 27.6889 31.9435L30.8268 28.8435C31.0119 28.6532 31.2578 28.5316 31.5231 28.4994C31.7883 28.4671 32.0568 28.5261 32.2831 28.6664L34.1758 29.786C34.6439 30.0691 35.1712 30.2429 35.7176 30.294C36.264 30.3452 36.815 30.2724 37.3286 30.0811C38.3327 29.7172 39.3738 29.4615 40.4336 29.3187C41.0012 29.2496 41.5438 29.0475 42.0162 28.7292C42.4885 28.4108 42.877 27.9855 43.1491 27.4888L44.0785 25.838C44.2037 25.6048 44.4062 25.4213 44.6522 25.3183C44.8982 25.2153 45.1726 25.1991 45.4293 25.2723L49.7177 26.4076C49.9771 26.4705 50.2066 26.6199 50.3676 26.8304C50.5285 27.041 50.611 27.2999 50.6013 27.5636L50.5704 29.7368C50.5568 30.2777 50.6682 30.8146 50.8963 31.3066C51.1243 31.7986 51.4629 32.2327 51.8863 32.5761C52.7065 33.2543 53.45 34.0183 54.1037 34.8546C54.4491 35.3051 54.8981 35.668 55.4136 35.9131C55.9291 36.1583 56.4963 36.2787 57.0682 36.2644L58.9868 36.2339C59.2534 36.2257 59.5149 36.3078 59.7278 36.4665C59.9407 36.6253 60.0922 36.8511 60.1573 37.1066L61.3059 41.3419C61.3804 41.5951 61.3642 41.866 61.2601 42.1089C61.1559 42.3517 60.9701 42.5516 60.7341 42.6749L58.8065 43.7345C58.3255 43.9936 57.9105 44.3574 57.593 44.7984C57.2754 45.2393 57.0636 45.7459 56.9736 46.2796C56.7893 47.3225 56.4918 48.3427 56.086 49.3226C55.8644 49.8427 55.7713 50.4075 55.8146 50.9702C55.8579 51.5329 56.0363 52.0773 56.3351 52.5583L57.3193 54.1807C57.461 54.4042 57.5204 54.6692 57.4876 54.931C57.4547 55.1927 57.3316 55.4353 57.139 55.618L54.0001 58.718C53.8152 58.9083 53.5695 59.0299 53.3045 59.0623C53.0394 59.0947 52.7711 59.036 52.5447 58.8961L50.6521 57.7765C50.1839 57.4936 49.6566 57.32 49.1102 57.2688C48.5639 57.2177 48.0129 57.2904 47.4993 57.4813C46.4955 57.847 45.4544 58.1034 44.3943 58.2458C43.8268 58.3157 43.2845 58.5182 42.8122 58.8367C42.3399 59.1551 41.9513 59.5802 41.6788 60.0766L40.7444 61.7324C40.6194 61.9657 40.4168 62.1493 40.1708 62.2523C39.9248 62.3553 39.6503 62.3715 39.3936 62.2981L35.1102 61.1628C34.8511 61.0995 34.6219 60.95 34.4612 60.7395C34.3004 60.529 34.218 60.2703 34.2276 60.0068L34.2625 57.8306C34.2756 57.2883 34.1632 56.7501 33.9338 56.2572C33.7044 55.7643 33.364 55.3296 32.9386 54.9864C32.1178 54.3084 31.3739 53.5445 30.7202 52.7079C30.3822 52.265 29.9436 51.9067 29.4398 51.6618C28.9359 51.417 28.3809 51.2924 27.8194 51.2981H27.7586L25.842 51.3286C25.575 51.3388 25.3125 51.2575 25.0992 51.0984C24.8859 50.9394 24.7348 50.7124 24.6716 50.4559L23.522 46.2255C23.4463 45.9716 23.4617 45.6996 23.5657 45.4555C23.6697 45.2115 23.8559 45.0105 24.0928 44.8866ZM39.2143 55.5609C41.5742 56.1863 44.0689 56.1064 46.3828 55.3313C48.6968 54.5562 50.7259 53.1208 52.2137 51.2066C53.7015 49.2924 54.5811 46.9854 54.7411 44.5775C54.9011 42.1695 54.3345 39.7688 53.1129 37.6789C51.8912 35.5891 50.0694 33.904 47.8779 32.8369C45.6865 31.7697 43.2237 31.3684 40.8013 31.6837C38.3789 31.9991 36.1056 33.0168 34.2689 34.6084C32.4322 36.1999 31.1147 38.2936 30.4831 40.6247C29.6453 43.7485 30.0934 47.0728 31.7293 49.8714C33.3653 52.67 36.0563 54.7155 39.2143 55.5609ZM32.8788 41.2583C33.384 39.3963 34.437 37.7241 35.9044 36.4531C37.3719 35.1821 39.188 34.3695 41.1232 34.1179C43.0583 33.8662 45.0255 34.187 46.7761 35.0396C48.5266 35.8921 49.9819 37.2382 50.9578 38.9076C51.9338 40.5769 52.3866 42.4947 52.259 44.4182C52.1315 46.3417 51.4292 48.1847 50.2411 49.7141C49.053 51.2435 47.4324 52.3906 45.5842 53.0103C43.736 53.63 41.7432 53.6946 39.8578 53.1959C37.3322 52.5226 35.1796 50.8883 33.8716 48.6508C32.5635 46.4133 32.2065 43.7551 32.8788 41.2583Z" fill="#FF82EB" stroke="#FF82EB"/>
</svg>
