<svg width="85" height="86" viewBox="0 0 85 86" fill="none" xmlns="http://www.w3.org/2000/svg">
<rect y="0.78125" width="85" height="85" rx="20" fill="#603F87"/>
<path fill-rule="evenodd" clip-rule="evenodd" d="M25.0833 25.8646V61.6979H60.9167V25.8646H25.0833ZM24.6667 23.7812C23.7462 23.7812 23 24.5274 23 25.4479V62.1146C23 63.0351 23.7462 63.7812 24.6667 63.7812H61.3333C62.2538 63.7812 63 63.0351 63 62.1146V25.4479C63 24.5274 62.2538 23.7812 61.3333 23.7812H24.6667Z" fill="#FF82EB" stroke="#FF82EB"/>
<path fill-rule="evenodd" clip-rule="evenodd" d="M42.167 63.7812V23.7812H44.2503V63.7812H42.167Z" fill="#FF82EB" stroke="#FF82EB"/>
<path fill-rule="evenodd" clip-rule="evenodd" d="M63 44.6146H23V42.5312H63V44.6146Z" fill="#FF82EB" stroke="#FF82EB"/>
<path fill-rule="evenodd" clip-rule="evenodd" d="M33 36.6979C34.6108 36.6979 35.9167 35.3921 35.9167 33.7812C35.9167 32.1704 34.6108 30.8646 33 30.8646C31.3892 30.8646 30.0833 32.1704 30.0833 33.7812C30.0833 35.3921 31.3892 36.6979 33 36.6979ZM33 38.7812C35.7615 38.7812 38 36.5427 38 33.7812C38 31.0198 35.7615 28.7812 33 28.7812C30.2386 28.7812 28 31.0198 28 33.7812C28 36.5427 30.2386 38.7812 33 38.7812Z" fill="#FF82EB" stroke="#FF82EB"/>
<path fill-rule="evenodd" clip-rule="evenodd" d="M53 56.6979C54.6108 56.6979 55.9167 55.3921 55.9167 53.7812C55.9167 52.1704 54.6108 50.8646 53 50.8646C51.3892 50.8646 50.0833 52.1704 50.0833 53.7812C50.0833 55.3921 51.3892 56.6979 53 56.6979ZM53 58.7812C55.7615 58.7812 58 56.5427 58 53.7812C58 51.0197 55.7615 48.7812 53 48.7812C50.2385 48.7812 48 51.0197 48 53.7812C48 56.5427 50.2385 58.7812 53 58.7812Z" fill="#FF82EB" stroke="#FF82EB"/>
</svg>
