<svg width="85" height="86" viewBox="0 0 85 86" fill="none" xmlns="http://www.w3.org/2000/svg">
<rect y="0.78125" width="85" height="85" rx="20" fill="#603F87"/>
<path d="M20 54.0915V45.6024C26.3397 48.8329 34.9574 50.0692 42.5811 50.0692C50.2047 50.0692 58.8225 48.8329 65.1621 45.6024V54.0915C65.1621 54.695 64.8617 55.4758 63.8704 56.3993C62.8751 57.3265 61.3252 58.2525 59.2403 59.0711C55.0824 60.7037 49.1968 61.7536 42.5811 61.7536C35.9653 61.7536 30.0797 60.7037 25.9218 59.0711C23.8369 58.2525 22.287 57.3265 21.2917 56.3993C20.3004 55.4758 20 54.695 20 54.0915Z" fill="#603F87" stroke="#FF82EB" stroke-width="4"/>
<path d="M20 34.8702C26.3435 38.1431 34.9624 39.3775 42.5811 39.3775C50.1997 39.3775 58.8187 38.1431 65.1621 34.8702V43.3337C65.1621 43.9372 64.8617 44.718 63.8704 45.6415C62.8751 46.5687 61.3252 47.4947 59.2403 48.3133C55.0824 49.9459 49.1968 50.9958 42.5811 50.9958C35.9657 50.9958 30.0786 49.946 25.9188 48.3204C23.8327 47.5052 22.2815 46.5841 21.2858 45.6639C20.2922 44.7457 20 43.9786 20 43.3999V34.8702Z" fill="#603F87" stroke="#FF82EB" stroke-width="4"/>
<path d="M65.1621 32.4434C65.1621 33.037 64.8641 33.8145 63.8689 34.7393C62.871 35.6667 61.3178 36.5939 59.2308 37.4142C55.0691 39.0501 49.1832 40.1056 42.5811 40.1056C35.9789 40.1056 30.093 39.0501 25.9313 37.4142C23.8443 36.5939 22.2911 35.6667 21.2932 34.7393C20.298 33.8145 20 33.037 20 32.4434C20 31.8498 20.298 31.0724 21.2932 30.1475C22.2911 29.2201 23.8443 28.2929 25.9313 27.4726C30.093 25.8367 35.9789 24.7812 42.5811 24.7812C49.1832 24.7812 55.0691 25.8367 59.2308 27.4726C61.3178 28.2929 62.871 29.2201 63.8689 30.1475C64.8641 31.0724 65.1621 31.8498 65.1621 32.4434Z" fill="#603F87" stroke="#FF82EB" stroke-width="4"/>
</svg>
