<svg width="85" height="86" viewBox="0 0 85 86" fill="none" xmlns="http://www.w3.org/2000/svg">
<rect y="0.78125" width="85" height="85" rx="20" fill="#603F87"/>
<path d="M35.9456 64.4299C33.3952 64.4299 31.0363 63.0508 29.7889 60.8314C29.598 60.4926 29.7184 60.0622 30.0579 59.8721C30.3967 59.6812 30.8264 59.8016 31.0166 60.1411C32.0153 61.9175 33.9037 63.0219 35.9456 63.0219C39.0603 63.0219 41.5945 60.4877 41.5945 57.3723C41.5945 56.9828 41.9101 56.668 42.2989 56.668C42.6877 56.668 43.0032 56.9828 43.0032 57.3723C43.0032 61.2639 39.8372 64.4299 35.9456 64.4299Z" stroke="#FF82EB" stroke-width="2"/>
<path d="M30.0039 61.2045C26.1123 61.2045 22.9463 58.0384 22.9463 54.1469C22.9463 53.6573 22.9977 53.158 23.0998 52.6628C23.178 52.2817 23.5513 52.0394 23.9317 52.1155C24.3127 52.1937 24.5578 52.567 24.4797 52.9481C24.3965 53.3495 24.355 53.7538 24.355 54.1476C24.355 57.2622 26.8892 59.7965 30.0039 59.7965C30.125 59.7965 30.2469 59.7901 30.3687 59.7845C30.7449 59.7606 31.0872 60.0669 31.1048 60.455C31.1224 60.8438 30.8224 61.1742 30.4335 61.1918C30.2906 61.1981 30.1476 61.2045 30.0039 61.2045Z" stroke="#FF82EB" stroke-width="2"/>
<path d="M26.8546 54.5184C23.6265 54.5184 21 51.8919 21 48.6632C21 45.4351 23.6265 42.8086 26.8546 42.8086C27.2434 42.8086 27.5589 43.1234 27.5589 43.5129C27.5589 43.9025 27.2434 44.2173 26.8546 44.2173C24.4034 44.2173 22.4087 46.2113 22.4087 48.6632C22.4087 51.115 24.4034 53.1097 26.8546 53.1097C27.2434 53.1097 27.5589 53.4246 27.5589 53.8141C27.5589 54.2036 27.2441 54.5184 26.8546 54.5184Z" stroke="#FF82EB" stroke-width="2"/>
<path d="M23.4226 45.5287C23.255 45.5287 23.0867 45.4695 22.9528 45.3484C21.7146 44.2362 21.0039 42.643 21.0039 40.9772C21.0039 38.8669 22.1428 36.9145 23.9763 35.8833C24.3151 35.6931 24.7447 35.8129 24.9356 36.1517C25.1265 36.4905 25.006 36.9201 24.6672 37.111C23.2768 37.8928 22.4133 39.3748 22.4133 40.9772C22.4133 42.2436 22.9536 43.4551 23.8946 44.3003C24.1841 44.5602 24.208 45.0054 23.9481 45.2949C23.8079 45.4498 23.6156 45.5287 23.4226 45.5287Z" stroke="#FF82EB" stroke-width="2"/>
<path d="M27.251 28.6276C26.9333 28.6276 26.6452 28.4114 26.5671 28.0888C26.1064 26.1835 26.6614 24.2205 28.0518 22.8357C29.2351 21.6461 30.8819 21.0572 32.5667 21.2228C33.8437 21.3495 35.0496 21.9229 35.9631 22.8371C36.2385 23.1125 36.2385 23.5577 35.9631 23.8331C35.6877 24.1085 35.2426 24.1085 34.9672 23.8331C34.2825 23.1485 33.381 22.7195 32.428 22.6251C31.17 22.504 29.9353 22.9407 29.0485 23.8317C28.0068 24.8685 27.5926 26.3349 27.9363 27.757C28.0279 28.1353 27.7955 28.5156 27.4172 28.6079C27.3616 28.6213 27.3059 28.6276 27.251 28.6276Z" stroke="#FF82EB" stroke-width="2"/>
<path d="M40.8299 26.5464C40.6496 26.5464 40.4693 26.4774 40.3319 26.34C40.0565 26.0646 40.0565 25.6195 40.3319 25.3441C41.966 23.71 41.966 21.0517 40.3319 19.4176C39.5402 18.6259 38.4886 18.1907 37.3687 18.1907C36.2488 18.1907 35.1972 18.6267 34.4055 19.4176C33.7166 20.1114 33.2877 21.0257 33.1975 21.9899C33.1616 22.3773 32.8193 22.6591 32.4312 22.626C32.0438 22.59 31.7585 22.247 31.7952 21.8596C31.9149 20.57 32.4875 19.35 33.4081 18.4231C34.4668 17.3637 35.8734 16.7812 37.3694 16.7812C38.8654 16.7812 40.2713 17.3637 41.3286 18.421C43.5121 20.6045 43.5121 24.1565 41.3286 26.3393C41.1905 26.4774 41.0102 26.5464 40.8299 26.5464Z" stroke="#FF82EB" stroke-width="2"/>
<path d="M29.2958 39.9666C27.0088 39.9666 24.926 38.8079 23.723 36.8681C23.0792 35.8363 22.7383 34.6396 22.7383 33.4091C22.7383 30.6832 24.4534 28.2131 27.0059 27.2629C27.7448 26.9896 28.5147 26.8516 29.2958 26.8516C31.8315 26.8516 34.1636 28.337 35.237 30.6375C35.6462 31.5066 35.8533 32.4406 35.8533 33.4098C35.8533 33.7986 35.5378 34.1141 35.149 34.1141C34.7602 34.1141 34.4446 33.7986 34.4446 33.4098C34.4446 32.6491 34.2819 31.918 33.9607 31.2354C33.1169 29.4281 31.2863 28.261 29.2951 28.261C28.6809 28.261 28.0759 28.3694 27.4955 28.5843C25.493 29.3302 24.1463 31.2693 24.1463 33.4098C24.1463 34.3762 24.4132 35.3151 24.919 36.1251C25.8642 37.65 27.4997 38.5593 29.2951 38.5593C29.6839 38.5593 29.9994 38.8741 29.9994 39.2636C29.9994 39.6532 29.6846 39.9666 29.2958 39.9666Z" stroke="#FF82EB" stroke-width="2"/>
<path d="M42.2639 56.93C41.8751 56.93 41.5596 56.6151 41.5596 56.2256V22.3801C41.5596 21.9913 41.8751 21.6758 42.2639 21.6758C42.6527 21.6758 42.9683 21.9913 42.9683 22.3801V56.2256C42.9683 56.6151 42.6527 56.93 42.2639 56.93Z" stroke="#FF82EB" stroke-width="2"/>
<path d="M48.6514 64.4306C44.7598 64.4306 41.5938 61.2646 41.5938 57.3723C41.5938 56.9828 41.9093 56.668 42.2981 56.668C42.6869 56.668 43.0025 56.9828 43.0025 57.3723C43.0025 60.4877 45.5367 63.0219 48.6514 63.0219C50.6926 63.0219 52.5816 61.9182 53.5804 60.1411C53.7713 59.8023 54.1995 59.6819 54.5397 59.8721C54.8785 60.0629 54.999 60.4926 54.8088 60.8314C53.5607 63.0515 51.2011 64.4306 48.6514 64.4306Z" stroke="#FF82EB" stroke-width="2"/>
<path d="M54.5936 61.2058C54.4499 61.2058 54.3062 61.1994 54.1625 61.1924C53.7737 61.1748 53.4737 60.8444 53.492 60.4556C53.5103 60.0675 53.8167 59.7534 54.2288 59.7851C54.3506 59.7907 54.4725 59.797 54.5943 59.797C57.7097 59.797 60.2439 57.2628 60.2439 54.1482C60.2439 53.7544 60.2017 53.3508 60.1185 52.9486C60.0404 52.5676 60.2848 52.195 60.6658 52.1161C61.0518 52.0379 61.4195 52.283 61.4984 52.6634C61.6012 53.1599 61.6526 53.6593 61.6526 54.1474C61.6512 58.0397 58.4852 61.2058 54.5936 61.2058Z" stroke="#FF82EB" stroke-width="2"/>
<path d="M57.7415 54.5184C57.352 54.5184 57.0371 54.2036 57.0371 53.8141C57.0371 53.4246 57.352 53.1097 57.7415 53.1097C60.1926 53.1097 62.1873 51.115 62.1873 48.6632C62.1873 46.2113 60.1933 44.2173 57.7415 44.2173C57.352 44.2173 57.0371 43.9025 57.0371 43.5129C57.0371 43.1234 57.352 42.8086 57.7415 42.8086C60.9695 42.8086 63.596 45.4351 63.596 48.6632C63.596 51.8926 60.9695 54.5184 57.7415 54.5184Z" stroke="#FF82EB" stroke-width="2"/>
<path d="M61.1742 45.5293C60.9819 45.5293 60.7889 45.4504 60.6502 45.2955C60.3902 45.0067 60.4142 44.5608 60.7037 44.3009C61.6447 43.4557 62.1849 42.2442 62.1849 40.9778C62.1849 39.3754 61.3207 37.8935 59.9303 37.1116C59.5915 36.9207 59.4711 36.4918 59.6619 36.1523C59.8514 35.8135 60.2804 35.6924 60.6206 35.8839C62.4547 36.9151 63.5936 38.8669 63.5936 40.9778C63.5936 42.6429 62.8836 44.2361 61.6447 45.349C61.5109 45.4695 61.3425 45.5293 61.1742 45.5293Z" stroke="#FF82EB" stroke-width="2"/>
<path d="M57.3467 28.6282C57.2917 28.6282 57.2361 28.6218 57.1805 28.6084C56.8022 28.5169 56.5705 28.1365 56.6621 27.7576C57.0058 26.3348 56.5909 24.8683 55.5527 23.835C54.6631 22.9405 53.4305 22.4996 52.1697 22.6257C51.2167 22.7208 50.3151 23.1497 49.6312 23.8336C49.3558 24.109 48.9107 24.109 48.6353 23.8336C48.3599 23.5582 48.3599 23.1131 48.6353 22.8377C49.5488 21.9241 50.7554 21.3508 52.0316 21.2233C53.715 21.0557 55.3625 21.6466 56.5487 22.8384C57.9369 24.2196 58.4927 26.1834 58.0306 28.0886C57.9524 28.4119 57.6643 28.6282 57.3467 28.6282Z" stroke="#FF82EB" stroke-width="2"/>
<path d="M43.7665 26.5457C43.5861 26.5457 43.4058 26.4767 43.2685 26.3393C41.085 24.1558 41.085 20.6038 43.2685 18.421C44.3257 17.3637 45.7316 16.7812 47.2276 16.7812C48.7237 16.7812 50.1296 17.3637 51.1868 18.421C52.1095 19.3493 52.6814 20.57 52.8019 21.8596C52.8378 22.247 52.5525 22.59 52.1658 22.626C51.7813 22.6591 51.4354 22.3773 51.3988 21.9899C51.3094 21.025 50.8797 20.1114 50.1887 19.4155C49.3999 18.6259 48.3476 18.19 47.2276 18.19C46.1077 18.19 45.0554 18.6259 44.2644 19.4169C43.4734 20.2079 43.0374 21.2602 43.0374 22.3801C43.0374 23.5001 43.4734 24.5524 44.2644 25.3434C44.5398 25.6188 44.5398 26.0639 44.2644 26.3393C44.1264 26.4767 43.9461 26.5457 43.7665 26.5457Z" stroke="#FF82EB" stroke-width="2"/>
<path d="M55.3026 39.9666C54.9131 39.9666 54.5983 39.6517 54.5983 39.2622C54.5983 38.8727 54.9131 38.5579 55.3026 38.5579C57.098 38.5579 58.7335 37.6486 59.6774 36.1258C60.1838 35.3143 60.4514 34.3754 60.4514 33.4091C60.4514 31.2686 59.1047 29.3295 57.1008 28.5829C56.5219 28.3687 55.9161 28.2603 55.3026 28.2603C53.3121 28.2603 51.4808 29.4274 50.6384 31.2326C50.3165 31.9166 50.1538 32.6477 50.1538 33.4091C50.1538 33.7979 49.839 34.1134 49.4495 34.1134C49.06 34.1134 48.7451 33.7979 48.7451 33.4091C48.7451 32.4385 48.9529 31.5052 49.3635 30.6346C50.4349 28.3377 52.767 26.8516 55.3033 26.8516C56.0838 26.8516 56.8536 26.9896 57.5911 27.2622C60.1458 28.2131 61.8609 30.6832 61.8609 33.4091C61.8609 34.6403 61.5199 35.837 60.8748 36.8703C59.6724 38.8079 57.5897 39.9666 55.3026 39.9666Z" stroke="#FF82EB" stroke-width="2"/>
<path d="M42.3333 58.0767C41.9445 58.0767 41.6289 57.7618 41.6289 57.3723V22.3801C41.6289 21.9913 41.9445 21.6758 42.3333 21.6758C42.7221 21.6758 43.0376 21.9913 43.0376 22.3801V57.3723C43.0376 57.7618 42.7221 58.0767 42.3333 58.0767Z" stroke="#FF82EB" stroke-width="2"/>
<path d="M39.8646 63.1349C39.6512 63.1349 39.4406 63.0384 39.3025 62.856C39.068 62.5461 39.1285 62.1045 39.4391 61.8699L39.5314 61.7974C41.0021 60.6352 41.0901 58.9673 40.6823 57.7945C40.2639 56.5901 39.1292 55.3032 37.2014 55.3032C36.8126 55.3032 36.4971 54.9884 36.4971 54.5989C36.4971 54.2094 36.8126 53.8945 37.2014 53.8945C39.399 53.8945 41.2874 55.2441 42.0129 57.3318C42.7249 59.3807 42.0938 61.5677 40.4055 62.9018L40.2893 62.9919C40.1618 63.0884 40.0125 63.1349 39.8646 63.1349Z" stroke="#FF82EB" stroke-width="2"/>
<path d="M43.1863 61.2168C42.9792 61.2168 42.7736 61.1252 42.6341 60.9506C41.524 59.5524 41.429 57.6676 42.3918 56.1483C43.373 54.6015 45.1557 53.8718 46.9243 54.2867C47.3033 54.3754 47.5378 54.7544 47.4491 55.1333C47.3596 55.5123 46.98 55.7426 46.6024 55.6581C45.1719 55.32 44.1027 56.0807 43.5815 56.9026C43.0743 57.7028 42.8489 58.9558 43.7371 60.0743C43.9787 60.3793 43.928 60.8224 43.6237 61.064C43.4948 61.1668 43.3406 61.2168 43.1863 61.2168Z" stroke="#FF82EB" stroke-width="2"/>
<path d="M36.8733 44.745C36.8261 44.745 36.7775 44.7401 36.7289 44.7302C36.3478 44.6506 36.1034 44.2773 36.183 43.8963C36.3922 42.8897 37.1134 42.0234 38.065 41.6346C38.425 41.4874 38.8363 41.6599 38.9835 42.0206C39.1307 42.3805 38.9581 42.7918 38.5975 42.939C38.0819 43.1496 37.6755 43.6378 37.5621 44.1843C37.4931 44.5168 37.2001 44.745 36.8733 44.745Z" stroke="#FF82EB" stroke-width="2"/>
<path d="M47.724 44.7447C47.3972 44.7447 47.1042 44.5165 47.0345 44.1833C46.9218 43.6382 46.5154 43.1494 45.9991 42.9388C45.6385 42.7915 45.4659 42.3802 45.6131 42.0203C45.7603 41.6597 46.1717 41.4878 46.5316 41.6343C47.4839 42.0231 48.2051 42.8902 48.4143 43.8967C48.4932 44.2777 48.2488 44.6503 47.8677 44.7299C47.8198 44.7398 47.7712 44.7447 47.724 44.7447Z" stroke="#FF82EB" stroke-width="2"/>
</svg>
