<svg width="197" height="107" viewBox="0 0 197 107" fill="none" xmlns="http://www.w3.org/2000/svg">
<path d="M102.412 0.898438C99.4008 0.898438 96.7979 2.16726 93.9811 3.85086C91.1648 5.53486 88.1792 7.77714 84.9986 10.3227C83.0364 11.893 80.9119 13.6929 78.8331 15.4326L35.5693 15.4326C34.0565 11.2273 30.0554 8.16571 25.3694 8.16571L10.8726 8.16571C4.91151 8.16571 0 13.0902 0 19.066L0 69.9277C0 75.9032 4.91151 80.8284 10.8726 80.8284H25.3694C30.0573 80.8284 34.058 77.7686 35.5693 73.5611H45.6917L75.7253 103.097C77.6719 105.01 80.3839 106.263 83.3775 106.263C87.9806 106.263 91.9179 103.308 93.4854 99.2155L97.4705 103.105C99.4131 105 102.116 106.263 105.115 106.263C109.747 106.263 113.709 103.275 115.259 99.1447L115.592 99.4716C117.535 101.367 120.238 102.629 123.237 102.629C127.866 102.629 131.836 99.6455 133.388 95.5184L133.714 95.8386C135.656 97.7345 138.359 98.9963 141.359 98.9963C147.316 98.9963 152.224 94.0754 152.224 88.1036V85.924L157.307 80.8288H160.152C161.665 85.0334 165.659 88.0961 170.345 88.0961H184.842C190.803 88.0961 195.714 83.1709 195.714 77.1958V26.3337C195.714 20.3579 190.803 15.4334 184.842 15.4334L170.345 15.4334C167.169 15.4334 164.321 16.857 162.325 19.0668L159.642 19.0668C147.851 17.3242 139.58 13.1026 133.183 9.15977C129.97 7.17996 127.246 5.26586 124.689 3.73813C122.132 2.21067 119.694 0.899276 116.683 0.899276L102.412 0.898438ZM18.1279 22.6923C18.6038 22.6923 19.0752 22.7863 19.5149 22.9689C19.9546 23.1515 20.3542 23.4189 20.6907 23.7563C21.0273 24.0938 21.2942 24.4944 21.4763 24.9352C21.6584 25.3761 21.7521 25.8486 21.752 26.3257C21.7521 27.2893 21.3702 28.2137 20.6906 28.8951C20.0109 29.5765 19.0891 29.9591 18.1279 29.9591C17.1666 29.9591 16.2448 29.5765 15.5651 28.8951C14.8855 28.2137 14.5036 27.2893 14.5037 26.3257C14.5036 25.8486 14.5973 25.3761 14.7794 24.9352C14.9615 24.4944 15.2284 24.0938 15.565 23.7563C15.9015 23.4189 16.3011 23.1515 16.7408 22.9689C17.1805 22.7863 17.6519 22.6923 18.1279 22.6923ZM36.2419 22.6923H70.0629C68.2265 24.1906 66.3833 25.6623 64.5487 27.0637C62.721 28.4599 61.6026 30.757 61.6182 32.9891C61.6182 35.221 62.6032 37.2862 64.1098 38.979C67.1237 42.3639 72.319 44.4933 79.3782 44.4933C88.8464 44.4933 94.4581 40.697 97.4426 38.3261L144.975 86.0015V88.0952C144.975 90.139 143.399 91.7215 141.358 91.7215C140.358 91.7215 139.48 91.3177 138.767 90.6214L114.926 67.3516C114.233 66.6553 113.288 66.2721 112.308 66.2859C109.053 66.3271 107.5 70.3177 109.865 72.5595L126.854 89.1379V91.7278C126.854 93.7712 125.278 95.3541 123.237 95.3541C122.237 95.3541 121.359 94.9503 120.646 94.254L96.8055 70.9842C96.1122 70.2893 95.1673 69.9046 94.1866 69.9197C90.9317 69.9609 89.3791 73.9515 91.7443 76.1933L108.733 92.7713V95.3612C108.733 97.405 107.157 98.988 105.116 98.988C104.116 98.988 103.238 98.5841 102.525 97.8879L78.6845 74.618C77.9912 73.9231 77.0464 73.5384 76.0657 73.5536C72.8108 73.5947 71.2582 77.5855 73.6233 79.8272L86.9875 92.8706V95.3616C86.9875 97.4072 85.4135 98.9884 83.3778 98.9884C82.3754 98.9884 81.4994 98.5887 80.801 97.9021L49.7051 67.3227C49.0281 66.658 48.1184 66.2859 47.1711 66.2859H36.2419L36.2419 22.6923ZM170.344 22.6923H184.841C186.912 22.6923 188.465 24.2503 188.465 26.3257V77.1949C188.465 79.2703 186.912 80.8284 184.841 80.8284H170.344C168.273 80.8284 166.72 79.2703 166.72 77.1949V77.14V26.3349C166.72 24.2596 168.273 22.6923 170.344 22.6923Z" fill="#FF52E3"/>
<path d="M94.2967 3.73367C97.1134 2.05008 99.7163 0.78125 102.727 0.78125L116.999 0.782088C120.01 0.782088 122.448 2.09348 125.004 3.62094C127.561 5.14867 130.286 7.06278 133.498 9.04258C139.896 12.9854 148.166 17.207 159.958 18.9496H162.641C164.637 16.7398 167.485 15.3162 170.661 15.3162L185.157 15.3162C191.118 15.3162 196.03 20.2407 196.03 26.2165V77.0786C196.03 83.0537 191.118 87.9789 185.157 87.9789H170.661C165.974 87.9789 161.98 84.9162 160.468 80.7116H157.622L152.54 85.8068V87.9864L145.29 85.8843L97.7582 38.2089C94.7737 40.5798 89.162 44.3761 79.6938 44.3761C72.6346 44.3761 67.4393 42.2467 64.4254 38.8618C62.9188 37.169 61.9338 35.1038 61.9338 32.8719C61.9182 30.6398 63.0366 28.3427 64.8643 26.9465C66.6988 25.5451 68.5421 24.0734 70.3785 22.5751L79.1487 15.3154C81.2275 13.5758 83.352 11.7758 85.3142 10.2055C88.4947 7.65995 91.4804 5.41768 94.2967 3.73367Z" fill="#FF87EC"/>
<rect x="165.912" y="21.7188" width="24.162" height="57.9888" rx="4" fill="white"/>
</svg>
