<svg width="85" height="85" viewBox="0 0 85 85" fill="none" xmlns="http://www.w3.org/2000/svg">
<rect width="85" height="85" rx="20" fill="#603F87"/>
<path fill-rule="evenodd" clip-rule="evenodd" d="M25.0833 25.0833V60.9167H60.9167V25.0833H25.0833ZM24.6667 23C23.7462 23 23 23.7462 23 24.6667V61.3333C23 62.2538 23.7462 63 24.6667 63H61.3333C62.2538 63 63 62.2538 63 61.3333V24.6667C63 23.7462 62.2538 23 61.3333 23H24.6667Z" fill="#FF82EB" stroke="#FF82EB"/>
<path fill-rule="evenodd" clip-rule="evenodd" d="M42.167 63V23H44.2503V63H42.167Z" fill="#FF82EB" stroke="#FF82EB"/>
<path fill-rule="evenodd" clip-rule="evenodd" d="M63 43.8333H23V41.75H63V43.8333Z" fill="#FF82EB" stroke="#FF82EB"/>
<path fill-rule="evenodd" clip-rule="evenodd" d="M33 35.9167C34.6108 35.9167 35.9167 34.6108 35.9167 33C35.9167 31.3892 34.6108 30.0833 33 30.0833C31.3892 30.0833 30.0833 31.3892 30.0833 33C30.0833 34.6108 31.3892 35.9167 33 35.9167ZM33 38C35.7615 38 38 35.7615 38 33C38 30.2386 35.7615 28 33 28C30.2386 28 28 30.2386 28 33C28 35.7615 30.2386 38 33 38Z" fill="#FF82EB" stroke="#FF82EB"/>
<path fill-rule="evenodd" clip-rule="evenodd" d="M53 55.9167C54.6108 55.9167 55.9167 54.6108 55.9167 53C55.9167 51.3892 54.6108 50.0833 53 50.0833C51.3892 50.0833 50.0833 51.3892 50.0833 53C50.0833 54.6108 51.3892 55.9167 53 55.9167ZM53 58C55.7615 58 58 55.7615 58 53C58 50.2385 55.7615 48 53 48C50.2385 48 48 50.2385 48 53C48 55.7615 50.2385 58 53 58Z" fill="#FF82EB" stroke="#FF82EB"/>
</svg>
