<svg width="85" height="85" viewBox="0 0 85 85" fill="none" xmlns="http://www.w3.org/2000/svg">
<rect width="85" height="85" rx="20" fill="#603F87"/>
<path d="M22.917 31.4248C22.9171 30.6449 23.758 30.1847 24.4043 30.5508L24.5312 30.6357L38.7695 41.71C39.2519 42.0852 39.2822 42.7921 38.8604 43.209L38.7695 43.2891L24.5312 54.3633C23.8745 54.8741 22.9173 54.4061 22.917 53.5742V31.4248ZM49.959 31.4248C49.9591 30.6448 50.8 30.1844 51.4463 30.5508L51.5723 30.6357L65.8115 41.71C66.2939 42.0853 66.3235 42.7922 65.9014 43.209L65.8115 43.2891L51.5723 54.3633C50.9155 54.8737 49.9593 54.406 49.959 53.5742V31.4248Z" fill="#603F87" stroke="#FF82EB" stroke-width="4"/>
</svg>
