<svg width="85" height="85" viewBox="0 0 85 85" fill="none" xmlns="http://www.w3.org/2000/svg">
<rect width="85" height="85" rx="20" fill="#603F87"/>
<path d="M29.3708 25.4825C29.1755 24.1752 30.1882 23 31.51 23H53.522C54.6036 23 55.519 23.799 55.6651 24.8706C55.8423 26.1693 54.8328 27.3258 53.522 27.3258H31.51C30.4389 27.3258 29.5291 26.5419 29.3708 25.4825ZM48.1613 39.1236C48.1613 42.1573 47.5525 44.4607 46.3351 46.0337C45.1363 47.6067 43.1977 48.4869 40.5193 48.6742L47.9632 57.1701C48.9932 58.3458 48.8445 60.1409 47.635 61.131C46.3988 62.1429 44.5646 61.8993 43.6354 60.5998L33.8707 46.9447C32.8717 45.5475 32.9412 43.6522 34.04 42.3321C34.8723 41.332 36.1726 40.7988 37.4157 41.1828C37.8885 41.3289 38.3705 41.5039 38.8616 41.7079C39.7446 42.0746 40.5488 42.4659 41.2742 42.8819C41.7277 43.142 42.3141 43.0396 42.4959 42.5495C42.8264 41.6589 42.9917 40.3577 42.9917 38.6461V35.3876H31.51C30.4389 35.3876 29.5291 34.6037 29.3708 33.5443C29.1755 32.237 30.1882 31.0618 31.51 31.0618H53.522C54.6036 31.0618 55.519 31.8608 55.6651 32.9324C55.8423 34.2311 54.8328 35.3876 53.522 35.3876H48.1613V39.1236Z" fill="#FF82EB"/>
</svg>
