<svg width="85" height="85" viewBox="0 0 85 85" fill="none" xmlns="http://www.w3.org/2000/svg">
<rect width="85" height="85" rx="20" fill="#603F87"/>
<path d="M42.0013 19.666C46.5283 19.6652 50.9578 20.9813 54.7499 23.4538C58.542 25.9264 61.5329 29.4487 63.3582 33.5914C65.1835 37.7342 65.7642 42.3184 65.0297 46.7854C64.2951 51.2524 62.277 55.4092 59.2213 58.7493M51.3346 42.9993L42.0013 33.666M42.0013 33.666L32.668 42.9993M42.0013 33.666V52.3327M19.8346 35.7077C19.0911 37.9679 18.6977 40.3285 18.668 42.7077M20.6046 52.3327C21.9148 55.3469 23.847 58.0504 26.2746 60.266M24.8186 27.2143C25.4697 26.5056 26.1641 25.8377 26.8976 25.2147M34.1706 64.9793C39.9893 67.0522 46.3924 66.7334 51.9763 64.0927" stroke="#FF82EB" stroke-width="4" stroke-miterlimit="10" stroke-linecap="round" stroke-linejoin="round"/>
</svg>
