<svg width="212" height="213" viewBox="0 0 212 213" fill="none" xmlns="http://www.w3.org/2000/svg">
<path opacity="0.2" d="M103.26 6.92843C104.317 4.55696 107.683 4.55696 108.74 6.92843L134.579 64.8956C135.015 65.8737 135.939 66.5452 137.004 66.6576L200.119 73.319C202.701 73.5916 203.741 76.7929 201.812 78.531L154.667 121.018C153.872 121.735 153.518 122.822 153.741 123.869L166.909 185.953C167.448 188.493 164.724 190.472 162.475 189.174L107.499 157.466C106.571 156.931 105.429 156.931 104.501 157.466L49.5248 189.174C47.2757 190.472 44.5525 188.493 45.0912 185.953L58.2593 123.869C58.4815 122.822 58.1285 121.735 57.333 121.018L10.1876 78.531C8.25884 76.7929 9.29901 73.5916 11.8811 73.319L74.9958 66.6576C76.0607 66.5452 76.985 65.8737 77.421 64.8956L103.26 6.92843Z" fill="#D4AAFF"/>
<path d="M102.347 38.9775C103.756 35.8155 108.244 35.8155 109.653 38.9775L126.056 75.7759C126.638 77.0801 127.87 77.9755 129.29 78.1253L169.356 82.3541C172.799 82.7174 174.186 86.9858 171.614 89.3034L141.686 116.275C140.625 117.231 140.154 118.679 140.45 120.076L148.81 159.488C149.528 162.875 145.897 165.513 142.898 163.783L107.998 143.654C106.762 142.941 105.238 142.941 104.002 143.654L69.1017 163.783C66.1029 165.513 62.4719 162.875 63.1902 159.488L71.5496 120.076C71.8458 118.679 71.3751 117.231 70.3144 116.275L40.3858 89.3034C37.8141 86.9858 39.201 82.7174 42.6438 82.3541L82.71 78.1253C84.1299 77.9755 85.3623 77.0801 85.9436 75.7759L102.347 38.9775Z" fill="#603F87"/>
</svg>
