<svg width="83" height="30" viewBox="0 0 83 30" fill="none" xmlns="http://www.w3.org/2000/svg">
<path d="M67.1269 2.83107C63.4699 0.422404 58.6016 3.04532 58.6016 7.42428V22.5757C58.6016 26.9547 63.4699 29.5776 67.1269 27.1689L78.1051 19.9381C79.65 18.9206 80.5798 17.1947 80.5798 15.3449V14.6551C80.5798 12.8053 79.65 11.0794 78.1051 10.0619L67.1269 2.83107Z" fill="#FFAC2F" stroke="#3D245C" stroke-width="3"/>
<path d="M62.4727 8.72015C62.4727 7.12618 64.2462 6.17271 65.5758 7.05188L75.0187 13.2958C75.5787 13.6661 75.9156 14.2927 75.9156 14.9641V15.0359C75.9156 15.7073 75.5787 16.3339 75.0187 16.7042L65.5758 22.9481C64.2462 23.8273 62.4727 22.8738 62.4727 21.2799V8.72015Z" fill="#3D245C"/>
<circle cx="15" cy="15" r="13.5" fill="#FFAC2F" stroke="#3D245C" stroke-width="3"/>
<rect x="6" y="6" width="18" height="18" rx="9" fill="#3D245C"/>
<path d="M24 15L60 15" stroke="#FFAC2F" stroke-width="4"/>
</svg>
