<svg width="404" height="451" viewBox="0 0 404 451" fill="none" xmlns="http://www.w3.org/2000/svg">
<path d="M139.691 128.388C144.288 113.257 165.712 113.257 170.309 128.388L171.054 130.839C174.402 141.862 187.951 145.84 196.727 138.378L198.679 136.718C210.727 126.474 228.749 138.057 224.436 153.272L223.737 155.736C220.596 166.819 229.842 177.491 241.26 175.958L243.798 175.617C259.473 173.513 268.372 193.001 256.518 203.468L254.597 205.164C245.962 212.789 247.972 226.765 258.405 231.649L260.726 232.735C275.049 239.439 272 260.644 256.368 263.041L253.836 263.429C242.449 265.175 236.584 278.02 242.721 287.768L244.085 289.936C252.511 303.32 238.481 319.511 224.035 313.076L221.695 312.033C211.172 307.346 199.293 314.98 199.185 326.499L199.161 329.061C199.013 344.875 178.458 350.911 169.784 337.687L168.379 335.545C162.06 325.913 147.94 325.913 141.621 335.545L140.216 337.687C131.542 350.911 110.987 344.875 110.839 329.061L110.815 326.499C110.707 314.98 98.8281 307.346 88.3052 312.033L85.9651 313.076C71.5187 319.511 57.4894 303.32 65.9146 289.936L67.2793 287.768C73.4163 278.02 67.5505 265.175 56.164 263.429L53.6319 263.041C37.9999 260.644 34.951 239.439 49.2745 232.735L51.5947 231.649C62.028 226.765 64.0375 212.789 55.4026 205.164L53.4823 203.468C41.6278 193.001 50.5274 173.513 66.2015 175.617L68.7405 175.958C80.1577 177.491 89.4045 166.819 86.2626 155.736L85.5639 153.272C81.2506 138.057 99.2731 126.474 111.321 136.718L113.273 138.378C122.049 145.84 135.598 141.862 138.946 130.839L139.691 128.388Z" fill="url(#paint0_linear_2260_9)"/>
<path d="M170.259 9.41362C171.604 6.02832 176.396 6.02831 177.741 9.41362L180.38 16.0528C181.218 18.1612 183.632 19.1611 185.715 18.2627L192.275 15.4339C195.62 13.9914 199.009 17.3796 197.566 20.7247L194.737 27.285C193.839 29.3684 194.839 31.7823 196.947 32.6203L203.586 35.2588C206.972 36.6042 206.972 41.3958 203.586 42.7412L196.947 45.3797C194.839 46.2177 193.839 48.6316 194.737 50.715L197.566 57.2753C199.009 60.6204 195.62 64.0086 192.275 62.5662L185.715 59.7373C183.632 58.8389 181.218 59.8388 180.38 61.9472L177.741 68.5864C176.396 71.9717 171.604 71.9717 170.259 68.5864L167.62 61.9472C166.782 59.8388 164.368 58.8389 162.285 59.7373L155.725 62.5661C152.38 64.0086 148.991 60.6204 150.434 57.2753L153.263 50.715C154.161 48.6316 153.161 46.2177 151.053 45.3797L144.414 42.7412C141.028 41.3958 141.028 36.6042 144.414 35.2588L151.053 32.6203C153.161 31.7823 154.161 29.3684 153.263 27.285L150.434 20.7247C148.991 17.3796 152.38 13.9914 155.725 15.4339L162.285 18.2627C164.368 19.1611 166.782 18.1612 167.62 16.0528L170.259 9.41362Z" fill="url(#paint1_linear_2260_9)"/>
<path d="M98.9664 373.248C98.4389 369.643 102.589 367.247 105.446 369.506L111.051 373.937C112.831 375.344 115.421 375.003 116.776 373.183L121.043 367.453C123.219 364.531 127.847 365.771 128.271 369.39L129.101 376.485C129.365 378.739 131.438 380.33 133.683 380.001L140.752 378.966C144.356 378.439 146.752 382.589 144.493 385.446L140.062 391.051C138.655 392.831 138.996 395.421 140.816 396.776L146.546 401.043C149.468 403.219 148.228 407.847 144.61 408.271L137.514 409.101C135.26 409.365 133.67 411.438 133.998 413.683L135.033 420.752C135.56 424.356 131.411 426.752 128.553 424.493L122.948 420.062C121.168 418.655 118.578 418.996 117.223 420.816L112.956 426.546C110.78 429.468 106.152 428.228 105.728 424.61L104.898 417.514C104.634 415.26 102.562 413.67 100.317 413.998L93.2476 415.033C89.6432 415.56 87.2474 411.411 89.5064 408.553L93.9368 402.948C95.3438 401.168 95.0028 398.578 93.1831 397.223L87.4531 392.956C84.5313 390.78 85.7715 386.152 89.3896 385.728L96.4855 384.898C98.739 384.634 100.33 382.562 100.001 380.317L98.9664 373.248Z" fill="url(#paint2_linear_2260_9)"/>
<path d="M297.964 62.8098C296.777 54.6969 306.117 49.3044 312.549 54.3891C316.555 57.556 322.386 56.7884 325.436 52.6926C330.333 46.1163 340.75 48.9077 341.703 57.0514C342.297 62.1235 346.962 65.7035 352.015 64.9641C360.128 63.7768 365.521 73.1167 360.436 79.549C357.269 83.5552 358.037 89.3857 362.132 92.4358C368.709 97.3329 365.917 107.75 357.774 108.703C352.701 109.297 349.121 113.962 349.861 119.015C351.048 127.128 341.708 132.521 335.276 127.436C331.27 124.269 325.439 125.037 322.389 129.132C317.492 135.709 307.075 132.917 306.122 124.774C305.528 119.701 300.863 116.121 295.81 116.861C287.697 118.048 282.304 108.708 287.389 102.276C290.556 98.2697 289.788 92.4392 285.693 89.3892C279.116 84.492 281.908 74.0747 290.051 73.1217C295.124 72.5282 298.704 67.8627 297.964 62.8098Z" fill="url(#paint3_linear_2260_9)"/>
<path d="M297.775 284.373C299.114 281.002 303.886 281.002 305.225 284.373L306.771 288.262C307.605 290.362 310.009 291.357 312.083 290.463L315.926 288.806C319.257 287.369 322.631 290.743 321.194 294.074L319.537 297.917C318.643 299.991 319.638 302.395 321.738 303.229L325.627 304.775C328.998 306.114 328.998 310.886 325.627 312.225L321.738 313.771C319.638 314.605 318.643 317.009 319.537 319.083L321.194 322.926C322.631 326.257 319.257 329.631 315.926 328.194L312.083 326.537C310.009 325.643 307.605 326.638 306.771 328.738L305.225 332.627C303.886 335.998 299.114 335.998 297.775 332.627L296.229 328.738C295.395 326.638 292.991 325.643 290.917 326.537L287.074 328.194C283.743 329.631 280.369 326.257 281.806 322.926L283.463 319.083C284.357 317.009 283.362 314.605 281.262 313.771L277.373 312.225C274.002 310.886 274.002 306.114 277.373 304.775L281.262 303.229C283.362 302.395 284.357 299.991 283.463 297.917L281.806 294.074C280.369 290.743 283.743 287.369 287.074 288.806L290.917 290.463C292.991 291.357 295.395 290.362 296.229 288.262L297.775 284.373Z" fill="url(#paint4_linear_2260_9)"/>
<defs>
<linearGradient id="paint0_linear_2260_9" x1="155" y1="78" x2="155" y2="388" gradientUnits="userSpaceOnUse">
<stop stop-color="#C493FF"/>
<stop offset="1" stop-color="#C493FF" stop-opacity="0"/>
</linearGradient>
<linearGradient id="paint1_linear_2260_9" x1="174" y1="0" x2="174" y2="78" gradientUnits="userSpaceOnUse">
<stop stop-color="#C493FF"/>
<stop offset="1" stop-color="#C493FF" stop-opacity="0"/>
</linearGradient>
<linearGradient id="paint2_linear_2260_9" x1="97.4996" y1="363.225" x2="136.5" y2="430.775" gradientUnits="userSpaceOnUse">
<stop stop-color="#C493FF"/>
<stop offset="1" stop-color="#C493FF" stop-opacity="0"/>
</linearGradient>
<linearGradient id="paint3_linear_2260_9" x1="294.662" y1="40.25" x2="355.932" y2="155.395" gradientUnits="userSpaceOnUse">
<stop stop-color="#FF82EB"/>
<stop offset="1" stop-color="#FFE6C1"/>
</linearGradient>
<linearGradient id="paint4_linear_2260_9" x1="301.5" y1="275" x2="298.917" y2="349.646" gradientUnits="userSpaceOnUse">
<stop stop-color="#FF82EB"/>
<stop offset="1" stop-color="#FFE6C1"/>
</linearGradient>
</defs>
</svg>
