<svg width="85" height="85" viewBox="0 0 85 85" fill="none" xmlns="http://www.w3.org/2000/svg">
<rect width="85" height="85" rx="20" fill="#603F87"/>
<path d="M54.7046 12.0306L49.7548 16.9804C49.2152 17.5163 48.9012 18.2386 48.8774 18.9988C48.8536 19.759 49.1218 20.4995 49.6268 21.0681C43.9247 25.9825 40.4408 27.3098 38.1003 28.1979C36.6119 28.7711 35.3308 29.7797 34.4243 31.0921C33.5179 32.4045 33.0281 33.9597 33.019 35.5546L33.0197 36.4887C30.058 38.9818 27.3018 41.7092 24.7777 44.6445C24.2292 44.3973 23.6181 44.3242 23.0267 44.4351C22.4354 44.546 21.8922 44.8355 21.4705 45.2646L16.5208 50.2144C15.9582 50.777 15.6421 51.54 15.6421 52.3357C15.6421 53.1313 15.9582 53.8944 16.5208 54.457L29.2487 67.1849C29.8113 67.7476 30.5744 68.0636 31.37 68.0636C32.1657 68.0636 32.9288 67.7476 33.4914 67.1849L37.2836 63.3927C37.6586 63.0203 37.9276 62.5546 38.0629 62.0437C38.1983 61.5328 38.1951 60.9951 38.0536 60.4858C40.4256 60.3244 42.8069 60.3609 45.1728 60.5947C47.7622 60.763 50.9852 60.9723 55.0468 60.9751C55.7524 60.9765 56.4458 60.7911 57.0567 60.4379C57.6675 60.0847 58.1741 59.5762 58.5249 58.964C58.8758 58.3518 59.0584 57.6576 59.0543 56.952C59.0503 56.2464 58.8596 55.5545 58.5017 54.9463C59.4724 54.8197 60.3652 54.3484 61.0173 53.6184C61.6694 52.8884 62.0375 51.9483 62.0542 50.9696C62.0486 50.173 61.8059 49.3961 61.357 48.7379C62.1352 48.4568 62.8094 47.9456 63.2901 47.2721C63.7708 46.5987 64.0353 45.7949 64.0483 44.9676C64.0492 44.0203 63.7122 43.1037 63.0979 42.3825C63.5267 42.1203 63.9042 41.7825 64.2123 41.3854C64.5851 40.9097 64.8429 40.3542 64.9654 39.7623C65.088 39.1705 65.072 38.5583 64.9187 37.9737C64.7739 37.4553 64.526 36.9715 64.1898 36.5512C63.8536 36.131 63.4361 35.7829 62.9622 35.5278C63.2867 34.4706 63.5066 33.5691 63.6587 32.8302L63.8383 32.9801C64.4127 33.4625 65.1477 33.7112 65.897 33.6766C66.6464 33.642 67.3554 33.3267 67.8829 32.7934L71.6751 29.0012C72.2377 28.4386 72.5538 27.6755 72.5538 26.8799C72.5538 26.0842 72.2377 25.3211 71.6751 24.7585L58.9472 12.0306C58.3846 11.468 57.6215 11.1519 56.8259 11.1519C56.0302 11.1519 55.2672 11.468 54.7046 12.0306ZM35.8694 61.9785L32.0772 65.7707C31.8896 65.9583 31.6353 66.0636 31.37 66.0636C31.1048 66.0636 30.8505 65.9583 30.6629 65.7707L17.935 53.0428C17.7475 52.8553 17.6421 52.6009 17.6421 52.3357C17.6421 52.0705 17.7475 51.8161 17.935 51.6286L22.8848 46.6788C22.9828 46.58 23.1005 46.5027 23.2301 46.4519C23.3598 46.4011 23.4986 46.378 23.6378 46.384C23.7769 46.39 23.9132 46.425 24.038 46.4867C24.1629 46.5484 24.2734 46.6356 24.3626 46.7425L35.9337 60.6272C36.0942 60.8196 36.1766 61.0652 36.1647 61.3154C36.1528 61.5656 36.0474 61.8023 35.8694 61.9785ZM62.9855 38.4898C63.0586 38.7776 63.0644 39.0783 63.0022 39.3687C62.94 39.659 62.8116 39.931 62.627 40.1636C62.4413 40.4097 62.2018 40.6101 61.9268 40.7496C61.6518 40.8891 61.3486 40.9638 61.0402 40.9683L51.0382 40.9633C50.7761 40.9679 50.5262 41.0752 50.3424 41.2622C50.1586 41.4492 50.0556 41.7009 50.0556 41.9632C50.0556 42.2254 50.1586 42.4771 50.3424 42.6641C50.5262 42.8511 50.776 42.9584 51.0382 42.963L60.0432 42.9665L60.0475 42.9708L60.0552 42.9701C60.5836 42.9726 61.0895 43.1841 61.4625 43.5583C61.8354 43.9326 62.0451 44.4393 62.0457 44.9676C62.0376 45.497 61.8237 46.0023 61.4494 46.3766C61.075 46.7509 60.5697 46.9648 60.0404 46.973L50.0412 46.9652C49.9098 46.9651 49.7797 46.9909 49.6582 47.0411C49.5368 47.0913 49.4265 47.1649 49.3335 47.2578C49.2405 47.3506 49.1667 47.4609 49.1164 47.5822C49.066 47.7036 49.04 47.8337 49.0399 47.9651C49.0398 48.0965 49.0656 48.2266 49.1158 48.348C49.166 48.4695 49.2396 48.5798 49.3325 48.6728C49.4253 48.7658 49.5356 48.8395 49.6569 48.8899C49.7783 48.9403 49.9084 48.9662 50.0398 48.9663L58.0414 48.972C58.3042 48.9718 58.5645 49.0235 58.8074 49.124C59.0502 49.2245 59.2709 49.3719 59.4567 49.5578C59.6426 49.7436 59.79 49.9643 59.8905 50.2071C59.991 50.45 60.0427 50.7103 60.0425 50.9731C60.033 51.5003 59.8194 52.0033 59.4465 52.3761C59.0737 52.7489 58.5707 52.9626 58.0435 52.9721L49.0286 52.9643C48.8959 52.962 48.764 52.9862 48.6406 53.0354C48.5173 53.0846 48.405 53.1579 48.3103 53.2509C48.2156 53.344 48.1404 53.455 48.089 53.5775C48.0377 53.6999 48.0112 53.8314 48.0112 53.9642C48.0112 54.097 48.0377 54.2284 48.089 54.3509C48.1404 54.4733 48.2156 54.5843 48.3103 54.6774C48.405 54.7705 48.5173 54.8437 48.6406 54.893C48.764 54.9422 48.8959 54.9663 49.0286 54.964L55.0327 54.9675L55.0496 54.9647C55.578 54.9688 56.0834 55.1812 56.4561 55.5557C56.8288 55.9303 57.0387 56.4367 57.0401 56.9651C57.0252 57.4926 56.809 57.9944 56.4358 58.3676C56.0627 58.7408 55.5609 58.957 55.0334 58.9719C51.0361 58.9698 47.8492 58.7626 45.288 58.5957C42.4844 58.2832 39.6541 58.2938 36.8529 58.6275L26.3001 45.9505C28.3678 43.5172 30.616 41.243 33.0254 39.1474L33.0268 44.4564C33.0265 45.3483 33.2907 46.2203 33.786 46.9621C34.2813 47.7039 34.9854 48.2821 35.8093 48.6238C36.6332 48.9654 37.5399 49.0551 38.4148 48.8815C39.2896 48.7078 40.0934 48.2787 40.7244 47.6483L40.73 47.6426C41.148 47.2259 41.4785 46.7299 41.7021 46.1837C41.9258 45.6376 42.0381 45.0522 42.0325 44.4621V37.9567C42.0324 37.8253 42.0583 37.6951 42.1085 37.5737C42.1588 37.4523 42.2325 37.3419 42.3254 37.249C42.4183 37.1561 42.5287 37.0824 42.6501 37.0321C42.7715 36.9819 42.9016 36.9561 43.0331 36.9561L60.809 36.9653C61.0281 36.9655 61.246 36.996 61.4567 37.0558C61.8141 37.1415 62.1431 37.3188 62.4111 37.5702C62.6792 37.8217 62.8772 38.1386 62.9855 38.4898ZM61.0353 34.984C60.9589 34.9798 60.8797 34.9699 60.8055 34.9677L43.0288 34.9508C42.2333 34.9521 41.4708 35.2687 40.9083 35.8312C40.3458 36.3937 40.0292 37.1562 40.0279 37.9517L40.0286 44.4649C40.0321 44.7916 39.9704 45.1157 39.8469 45.4182C39.7234 45.7207 39.5407 45.9955 39.3094 46.2263L39.3059 46.2298C39.0738 46.4625 38.7977 46.6467 38.4937 46.7717C38.1898 46.8968 37.864 46.9601 37.5353 46.9582C36.872 46.9572 36.2362 46.6935 35.7668 46.2249C35.5327 45.9939 35.3468 45.7187 35.2201 45.4152C35.0933 45.1117 35.0282 44.786 35.0286 44.4571L35.0208 35.5553C35.0279 34.3652 35.3935 33.2048 36.07 32.2256C36.7465 31.2464 37.7024 30.4938 38.813 30.0661C41.1606 29.1765 45.0412 27.6959 51.1464 22.3996L61.8987 31.3601C61.7039 32.5874 61.4159 33.7982 61.0374 34.9819L61.0353 34.984ZM70.2609 26.1727C70.4485 26.3603 70.5538 26.6146 70.5538 26.8799C70.5538 27.1451 70.4485 27.3994 70.2609 27.587L66.4687 31.3792C66.2924 31.5569 66.0559 31.6621 65.8058 31.6738C65.5557 31.6856 65.3104 31.6032 65.1181 31.4428L51.2334 19.8717C51.1265 19.7826 51.0394 19.6721 50.9777 19.5474C50.916 19.4226 50.881 19.2864 50.8749 19.1474C50.8689 19.0083 50.8919 18.8696 50.9425 18.7399C50.9932 18.6103 51.0703 18.4927 51.169 18.3946L56.1188 13.4448C56.3063 13.2573 56.5607 13.1519 56.8259 13.1519C57.0911 13.1519 57.3455 13.2573 57.533 13.4448L70.2609 26.1727Z" fill="#FF82EB" stroke="#FF82EB"/>
</svg>
