<svg width="85" height="85" viewBox="0 0 85 85" fill="none" xmlns="http://www.w3.org/2000/svg">
<rect width="85" height="85" rx="20" fill="#603F87"/>
<path d="M36.2825 21.7033C39.0127 21.7033 41.4876 22.8114 43.2783 24.602C45.0689 26.3926 46.177 28.8676 46.177 31.5978C46.177 34.328 45.0689 36.8029 43.2783 38.5935C42.8858 38.986 42.462 39.3438 42.0087 39.6669V49.3928C42.0087 50.1918 41.3609 50.8396 40.5619 50.8396C40.1729 50.8396 39.8221 50.6867 39.5616 50.4384L36.2808 47.7759L32.9114 50.5113C32.2931 51.0133 31.3848 50.9195 30.8811 50.3029C30.664 50.0354 30.5581 49.7124 30.5581 49.3928L30.5546 39.6669C30.1013 39.3456 29.6775 38.986 29.285 38.5935C27.4944 36.8029 26.3863 34.328 26.3863 31.5978C26.3863 28.8658 27.4944 26.3926 29.285 24.602C31.0756 22.8114 33.5506 21.7033 36.2808 21.7033H36.2825ZM61.8358 17.2937C60.6635 17.2937 59.5953 17.7747 58.8225 18.5476L58.7582 18.6084C58.0235 19.3761 57.5685 20.4199 57.5685 21.5627V24.9529V44.8842H66.1065V21.5627C66.1065 20.3886 65.6272 19.3187 64.856 18.5459C64.0797 17.7747 63.0116 17.2954 61.8393 17.2954H61.8375L61.8358 17.2937ZM61.8358 14.3984C63.807 14.3984 65.5994 15.2043 66.8968 16.5017C68.1941 17.806 69 19.5949 69 21.5627V46.3326C69 47.1316 68.3522 47.7794 67.5533 47.7794H57.5685V68.5235C57.5685 69.3224 56.9207 69.9702 56.1218 69.9702H16.4467C15.6478 69.9702 15 69.3224 15 68.5235V21.7919C15 19.7651 15.8319 17.9172 17.171 16.5746L17.1762 16.5694C18.5205 15.2286 20.3667 14.3984 22.3935 14.3984H61.8375H61.8358ZM54.6733 24.9529V21.5627C54.6733 19.9666 55.2047 18.4886 56.0957 17.2937H22.3917C21.1517 17.2937 20.0262 17.7991 19.2152 18.6101L19.21 18.6153C18.3971 19.4264 17.8935 20.5519 17.8935 21.7919V67.0767H54.675V46.3326V24.9529H54.6733ZM22.3466 62.6671C21.5477 62.6671 20.8998 62.0192 20.8998 61.2203C20.8998 60.4214 21.5477 59.7736 22.3466 59.7736H50.2202C51.0191 59.7736 51.6669 60.4214 51.6669 61.2203C51.6669 62.0192 51.0191 62.6671 50.2202 62.6671H22.3466ZM27.0863 57.7676C26.2873 57.7676 25.6395 57.1198 25.6395 56.3209C25.6395 55.5219 26.2873 54.8741 27.0863 54.8741H45.4805C46.2794 54.8741 46.9272 55.5219 46.9272 56.3209C46.9272 57.1198 46.2794 57.7676 45.4805 57.7676H27.0863ZM39.1152 41.0841C38.2173 41.3515 37.2673 41.4957 36.2825 41.4957C35.2978 41.4957 34.346 41.3515 33.4498 41.0841V46.3622L35.3568 44.8147C35.8761 44.3788 36.6472 44.3579 37.1926 44.8025L39.1152 46.3622V41.0841ZM41.2341 26.6497C39.968 25.3836 38.2173 24.6003 36.2843 24.6003C34.3512 24.6003 32.5988 25.3853 31.3344 26.6497C30.0683 27.9158 29.285 29.6665 29.285 31.5995C29.285 33.5326 30.0701 35.285 31.3344 36.5493C32.6457 37.8606 34.4155 38.5987 36.2843 38.5987C38.153 38.5987 39.9245 37.8589 41.2341 36.5493C42.5002 35.2832 43.2835 33.5326 43.2835 31.5995C43.2835 29.6665 42.4985 27.9141 41.2341 26.6497Z" fill="#FF82EB"/>
</svg>
