<svg width="85" height="85" viewBox="0 0 85 85" fill="none" xmlns="http://www.w3.org/2000/svg">
<rect width="85" height="85" rx="20" fill="#603F87"/>
<path fill-rule="evenodd" clip-rule="evenodd" d="M34.2555 38.8635V62.3154C34.2555 63.1597 33.5703 63.8449 32.726 63.8449H24.5688C23.6205 63.8449 22.713 63.4697 22.0441 62.7988C21.3752 62.1299 21 61.2224 21 60.2761V40.9028C21 39.9565 21.3752 39.049 22.0441 38.3801C22.713 37.7092 23.6205 37.334 24.5688 37.334H32.726C33.5703 37.334 34.2555 38.0192 34.2555 38.8635ZM31.1965 40.3929H24.5688C24.4321 40.3929 24.3037 40.446 24.2078 40.5418C24.112 40.6377 24.059 40.7682 24.059 40.9028V60.2761C24.059 60.4107 24.112 60.5413 24.2078 60.6371C24.3037 60.7329 24.4321 60.786 24.5688 60.786H31.1965V40.3929Z" fill="#FF82EB" stroke="#FF82EB" stroke-width="0.4"/>
<path fill-rule="evenodd" clip-rule="evenodd" d="M64.1027 40.7356L61.2803 59.0894C60.8582 61.8261 58.5048 63.845 55.7375 63.845H32.726C31.8797 63.845 31.1965 63.1598 31.1965 62.3155V38.8636C31.1965 38.6392 31.2454 38.4169 31.3413 38.213L39.4985 20.8789C39.7514 20.3426 40.2898 20 40.8832 20H42.9225C44.4091 20 45.8346 20.5914 46.8869 21.6416C47.9392 22.6939 48.5306 24.1214 48.5306 25.6081V33.7653C48.5306 34.0467 48.759 34.2751 49.0404 34.2751H58.5599C60.1974 34.2751 61.7514 34.9889 62.8179 36.2308C63.8825 37.4727 64.3515 39.1185 64.1027 40.7356ZM61.0804 40.2707C61.1926 39.5365 60.9805 38.7881 60.4952 38.2232C60.0119 37.6583 59.3042 37.3341 58.5599 37.3341H49.0404C47.0684 37.3341 45.4716 35.7373 45.4716 33.7653V25.6081C45.4716 24.931 45.2024 24.2846 44.7232 23.8053C44.246 23.3281 43.5975 23.059 42.9225 23.059H41.8539L34.2555 39.2062V60.7861H55.7375C56.9957 60.7861 58.0643 59.8684 58.256 58.6244L61.0804 40.2707Z" fill="#FF82EB" stroke="#FF82EB" stroke-width="0.4"/>
</svg>
