<svg width="85" height="85" viewBox="0 0 85 85" fill="none" xmlns="http://www.w3.org/2000/svg">
<rect width="85" height="85" rx="20" fill="#603F87"/>
<path fill-rule="evenodd" clip-rule="evenodd" d="M26.1213 31.7377C26.1213 28.9194 28.8554 26.9081 31.5442 27.7502L35.7236 29.0546C37.4666 29.601 38.6554 31.2148 38.6554 33.044V36.4987C38.6554 39.319 35.9214 41.3284 33.2306 40.4882L29.0531 39.1818C27.3081 38.6374 26.1213 37.0216 26.1213 35.1944L26.1213 31.7377ZM34.4762 33.044L30.2988 31.7377V35.1944L34.4762 36.4987V33.044Z" fill="#FF82EB" stroke="#603F87" stroke-width="1.5"/>
<path d="M27.825 41.538C26.7302 41.1717 25.5473 41.7651 25.1831 42.858C24.8188 43.9528 25.4102 45.1357 26.505 45.5019L35.9058 48.6355C37.0006 48.9998 38.1835 48.4083 38.5477 47.3135C38.912 46.2187 38.3206 45.0358 37.2258 44.6715L27.825 41.538Z" fill="#FF82EB" stroke="#603F87" stroke-width="1.5"/>
<path d="M25.1833 49.1256C25.5475 48.0327 26.7304 47.4393 27.8252 47.8055L37.226 50.9391C38.3208 51.3034 38.9122 52.4863 38.5479 53.5811C38.1836 54.6759 37.0007 55.2674 35.9059 54.9031L26.5052 51.7695C25.4104 51.4032 24.819 50.2203 25.1833 49.1256Z" fill="#FF82EB" stroke="#603F87" stroke-width="1.5"/>
<path fill-rule="evenodd" clip-rule="evenodd" d="M54.122 27.7502C56.811 26.9081 59.5448 28.9194 59.5448 31.7377V35.1944C59.5448 37.0216 58.358 38.6374 56.6129 39.1818L52.4355 40.4882C49.7445 41.3284 47.0107 39.319 47.0107 36.4987V33.044C47.0107 31.2148 48.1995 29.601 49.9425 29.0546L54.122 27.7502ZM55.3676 31.7377L51.1901 33.044V36.4987L55.3676 35.1944V31.7377Z" fill="#FF82EB" stroke="#603F87" stroke-width="1.5"/>
<path d="M57.8411 43.6251C58.9359 43.2608 60.1189 43.8523 60.4831 44.947C60.8474 46.0418 60.2559 47.2248 59.1611 47.589L49.7604 50.7226C48.6656 51.0888 47.4827 50.4974 47.1184 49.4026C46.7542 48.3078 47.3456 47.1249 48.4404 46.7586L57.8411 43.6251Z" fill="#FF82EB" stroke="#603F87" stroke-width="1.5"/>
<path fill-rule="evenodd" clip-rule="evenodd" d="M33.0152 21.5294L41.1114 23.8424C42.3609 24.2008 42.6077 24.2517 42.8329 24.2517C43.0581 24.2517 43.3049 24.2008 44.5544 23.8424L52.6505 21.5294C54.9616 20.8694 56.9161 20.3113 58.4965 20.0978C60.1632 19.8745 61.8514 19.9685 63.3183 21.075C64.7872 22.1816 65.3395 23.7797 65.5823 25.4444C65.8115 27.021 65.8115 29.0539 65.8115 31.4569V50.1625C65.8115 51.5824 65.8115 52.8241 65.692 53.8445C65.5627 54.9471 65.2748 56.0106 64.5483 56.9742C63.8217 57.9378 62.8777 58.5077 61.8534 58.9346C60.9055 59.3303 59.7108 59.6711 58.3458 60.0608L45.5096 63.7271C44.5598 64.0012 43.7176 64.2421 42.8324 64.2421C41.9472 64.2421 41.105 64.0012 40.1552 63.7271L27.3191 60.0608C25.954 59.671 24.7593 59.3303 23.8114 58.9346C22.7871 58.5077 21.8431 57.9378 21.1165 56.9742C20.3899 56.0106 20.1021 54.9471 19.9728 53.8445C19.8533 52.8241 19.8533 51.5825 19.8533 50.1625V31.4569C19.8533 29.0538 19.8533 27.0209 20.0825 25.4444C20.3253 23.7797 20.8776 22.1816 22.3465 21.075C23.8134 19.9685 25.5016 19.8745 27.1683 20.0978C28.7487 20.3112 30.7033 20.8694 33.0143 21.5294H33.0152ZM26.6127 24.24C25.4219 24.0794 25.0576 24.2635 24.8618 24.4103C24.6679 24.5572 24.3898 24.8569 24.2174 26.0457C24.0373 27.2874 24.0314 29.0108 24.0314 31.6174V50.0489C24.0314 51.6156 24.0353 52.6086 24.1234 53.3568C24.2037 54.052 24.3369 54.3046 24.4525 54.4574C24.568 54.6121 24.7756 54.808 25.42 55.0783C26.1152 55.3681 27.071 55.6443 28.577 56.0751L40.7433 59.5515V28.0823C40.5514 28.0295 40.3556 27.9727 40.1558 27.9159L32.02 25.5912C29.5132 24.8744 27.8543 24.4064 26.6127 24.24ZM57.0886 56.0751L44.9223 59.5514V28.0823C45.1142 28.0294 45.3101 27.9726 45.5099 27.9158L53.6456 25.5911C56.1525 24.8743 57.8113 24.4062 59.0529 24.2397C60.2437 24.0792 60.608 24.2632 60.8038 24.4101C60.9977 24.557 61.2758 24.8567 61.4482 26.0455C61.6283 27.2872 61.6342 29.0106 61.6342 31.6172V50.0486C61.6342 51.6154 61.6303 52.6084 61.5422 53.3565C61.4619 54.0518 61.3287 54.3044 61.2132 54.4572C61.0976 54.6119 60.89 54.8078 60.2457 55.078C59.5504 55.3679 58.5947 55.6442 57.0886 56.0751Z" fill="#FF82EB" stroke="#603F87" stroke-width="1.5"/>
</svg>
