<svg width="98" height="92" viewBox="0 0 98 92" fill="none" xmlns="http://www.w3.org/2000/svg">
<path d="M43.3793 7.59744L44.4748 6.50193C44.8091 6.17906 45.0758 5.79285 45.2592 5.36584C45.4426 4.93882 45.5392 4.47955 45.5432 4.01482C45.5473 3.55008 45.4587 3.0892 45.2827 2.65906C45.1067 2.22892 44.8468 1.83814 44.5182 1.50951C44.1896 1.18088 43.7988 0.920994 43.3687 0.745009C42.9385 0.569025 42.4776 0.480469 42.0129 0.484507C41.5482 0.488546 41.0889 0.585098 40.6619 0.768531C40.2349 0.951964 39.8487 1.2186 39.5258 1.55289L32.5257 8.55295C31.8696 9.2093 31.501 10.0994 31.501 11.0275C31.501 11.9555 31.8696 12.8456 32.5257 13.502L39.5258 20.502C40.1859 21.1396 41.07 21.4924 41.9877 21.4844C42.9054 21.4764 43.7833 21.1083 44.4322 20.4594C45.0811 19.8105 45.4492 18.9326 45.4572 18.0149C45.4652 17.0972 45.1124 16.2131 44.4748 15.553L43.5263 14.6045C51.7412 14.992 59.4782 18.579 65.0823 24.5981C70.6863 30.6172 73.7123 38.5904 73.5129 46.812C73.3135 55.0336 69.9046 62.8507 64.0154 68.591C58.1261 74.3314 50.2243 77.5391 42.0003 77.528H3.50003C2.57176 77.528 1.68152 77.8967 1.02513 78.5531C0.368752 79.2095 0 80.0997 0 81.028C0 81.9563 0.368752 82.8465 1.02513 83.5029C1.68152 84.1593 2.57176 84.528 3.50003 84.528H42.0003C52.1048 84.5577 61.8154 80.6113 69.0346 73.5412C76.2537 66.4711 80.4018 56.8449 80.5829 46.742C80.764 36.6391 76.9635 26.8704 70.0024 19.5461C63.0413 12.2219 53.4784 7.92992 43.3793 7.59744Z" fill="#FF82EB"/>
<path d="M96.9757 78.549L89.9756 71.5489C89.3155 70.9113 88.4314 70.5586 87.5137 70.5665C86.596 70.5745 85.7182 70.9426 85.0692 71.5915C84.4203 72.2405 84.0522 73.1183 84.0442 74.036C84.0362 74.9537 84.389 75.8378 85.0266 76.4979L86.0521 77.5235H73.501C72.5727 77.5235 71.6825 77.8922 71.0261 78.5486C70.3697 79.205 70.001 80.0952 70.001 81.0235C70.001 81.9517 70.3697 82.842 71.0261 83.4984C71.6825 84.1548 72.5727 84.5235 73.501 84.5235H86.0521L85.0266 85.549C84.6923 85.8719 84.4257 86.2581 84.2422 86.6851C84.0588 87.1121 83.9622 87.5714 83.9582 88.0361C83.9542 88.5009 84.0427 88.9617 84.2187 89.3919C84.3947 89.822 84.6546 90.2128 84.9832 90.5414C85.3118 90.8701 85.7026 91.13 86.1328 91.3059C86.5629 91.4819 87.0238 91.5705 87.4885 91.5664C87.9532 91.5624 88.4125 91.4658 88.8395 91.2824C89.2666 91.099 89.6528 90.8323 89.9756 90.4981L96.9757 83.498C97.6318 82.8417 98.0004 81.9516 98.0004 81.0235C98.0004 80.0954 97.6318 79.2053 96.9757 78.549Z" fill="#FF82EB"/>
<path d="M14.0387 70.5362C14.6887 70.5362 15.3258 70.3552 15.8788 70.0135C16.4317 69.6718 16.8785 69.1828 17.1692 68.6015C17.4599 68.0201 17.5829 67.3692 17.5246 66.7219C17.4662 66.0745 17.2287 65.4562 16.8387 64.9362C12.7126 59.5005 10.4857 52.8603 10.5002 46.036C10.507 40.5133 11.9658 35.0893 14.7302 30.3082C17.4946 25.527 21.4674 21.5567 26.2503 18.7953C27.0551 18.3312 27.6425 17.5664 27.8834 16.6691C28.1243 15.7718 27.9989 14.8156 27.5348 14.0108C27.0706 13.206 26.3058 12.6185 25.4085 12.3776C24.5113 12.1367 23.555 12.2621 22.7502 12.7263C16.9039 16.1045 12.0481 20.96 8.66955 26.8062C5.29097 32.6524 3.50827 39.2838 3.5001 46.036C3.48129 54.3756 6.19991 62.4909 11.2387 69.1362C11.5647 69.5709 11.9874 69.9237 12.4734 70.1667C12.9594 70.4097 13.4953 70.5362 14.0387 70.5362Z" fill="#FF82EB"/>
</svg>
