<svg width="90" height="108" viewBox="0 0 90 108" fill="none" xmlns="http://www.w3.org/2000/svg">
<path d="M44.138 2.4231e-05C43.719 -0.00161268 43.3038 0.0797012 42.9165 0.239277C42.5291 0.398852 42.1771 0.633533 41.8808 0.929788C41.5846 1.22604 41.3499 1.57801 41.1903 1.9654C41.0308 2.35279 40.9494 2.76793 40.9511 3.1869V17.2241C40.9527 17.6409 41.0364 18.0534 41.1975 18.4379C41.3585 18.8225 41.5937 19.1715 41.8896 19.4651C42.1855 19.7588 42.5364 19.9912 42.9222 20.1493C43.308 20.3073 43.7211 20.3878 44.138 20.3862C44.9756 20.3829 45.778 20.0487 46.3703 19.4564C46.9626 18.8641 47.2968 18.0617 47.3 17.2241V3.1869C47.3017 2.77002 47.2212 2.3569 47.0632 1.97113C46.9051 1.58536 46.6727 1.23449 46.379 0.938559C46.0854 0.64263 45.7364 0.407434 45.3518 0.2464C44.9673 0.0853654 44.5548 0.00164707 44.138 2.4231e-05ZM13.9308 7.93622C13.4198 7.95986 12.922 8.10664 12.4799 8.36408C11.7523 8.78754 11.2227 9.48268 11.0076 10.2966C10.7925 11.1105 10.9095 11.9765 11.3329 12.7042L18.4755 24.8627C18.902 25.5855 19.5974 26.1099 20.4095 26.3214C21.2217 26.5328 22.0845 26.4141 22.8094 25.9911C23.5338 25.5646 24.0595 24.868 24.2711 24.0544C24.4826 23.2407 24.3628 22.3764 23.9378 21.651L16.8138 9.49247C16.5202 8.99544 16.0966 8.58789 15.5886 8.31367C15.0806 8.03946 14.5074 7.90896 13.9308 7.93622ZM74.3452 7.93622C73.7685 7.90896 73.1953 8.03946 72.6873 8.31367C72.1793 8.58789 71.7557 8.99544 71.4621 9.49247L64.3133 21.651C63.8899 22.3786 63.7729 23.2447 63.988 24.0586C64.2031 24.8725 64.7327 25.5676 65.4603 25.9911C66.1852 26.4141 67.048 26.5328 67.8602 26.3214C68.6723 26.1099 69.3677 25.5854 69.7942 24.8627L76.9182 12.7042C77.3437 11.9795 77.4645 11.1157 77.2541 10.3022C77.0438 9.48859 76.5194 8.79162 75.796 8.36404C75.3539 8.10662 74.8562 7.95985 74.3452 7.93622ZM16.9564 32.0796C16.4015 32.0782 15.8558 32.2223 15.3739 32.4976C14.8919 32.7728 14.4906 33.1696 14.2098 33.6483L0.433032 57.4569C0.0749538 58.0703 -0.0671149 58.786 0.0295432 59.4896C0.126201 60.1932 0.456003 60.8441 0.966213 61.3382L42.1911 106.903C42.4888 107.233 42.8523 107.496 43.2581 107.677C43.6639 107.857 44.1031 107.95 44.5472 107.95C44.9913 107.95 45.4304 107.857 45.8362 107.677C46.2421 107.496 46.6056 107.233 46.9032 106.903L88.0661 61.4002C88.601 60.9099 88.9518 60.2512 89.0601 59.5337C89.1684 58.8162 89.0277 58.0832 88.6613 57.4569L74.8846 33.6483C74.6022 33.1668 74.1979 32.7683 73.7124 32.4929C73.2269 32.2175 72.6774 32.075 72.1193 32.0796H16.9564ZM22.487 38.4286H39.029L30.758 52.72L22.487 38.4286ZM50.0653 38.4286H66.6074L58.3363 52.72L50.0653 38.4286ZM16.975 41.5969L25.2523 55.8883H8.68545L16.975 41.5969ZM44.5348 41.5969L52.8306 55.8883H36.2638L44.5348 41.5969ZM72.1379 41.5969L80.4151 55.8883H63.8483L72.1379 41.5969ZM10.3223 62.2372H28.3957L37.4418 92.2026L10.3223 62.2372ZM35.0361 62.2372H54.0582L44.5472 93.796L35.0361 62.2372ZM60.6986 62.2372H78.7473L51.665 92.1654L60.6986 62.2372Z" fill="#FF82EB"/>
</svg>
