<svg width="92" height="92" viewBox="0 0 92 92" fill="none" xmlns="http://www.w3.org/2000/svg">
<path d="M63.2497 30.1875C62.6827 30.1854 62.1209 30.2954 61.5967 30.5112C61.0724 30.7271 60.596 31.0446 60.195 31.4453L40.2497 51.3907L30.3669 41.5078C29.9657 41.1067 29.4895 40.7885 28.9654 40.5714C28.4412 40.3543 27.8795 40.2426 27.3122 40.2426C26.7449 40.2426 26.1831 40.3543 25.659 40.5714C25.1349 40.7885 24.6586 41.1067 24.2575 41.5078C23.8563 41.909 23.5381 42.3852 23.321 42.9093C23.1039 43.4335 22.9922 43.9952 22.9922 44.5625C22.9922 45.1298 23.1039 45.6916 23.321 46.2157C23.5381 46.7398 23.8563 47.2161 24.2575 47.6172L37.195 60.5547C37.5956 60.9568 38.0717 61.2758 38.5959 61.4934C39.1201 61.7111 39.6821 61.8231 40.2497 61.8231C40.8173 61.8231 41.3793 61.7111 41.9034 61.4934C42.4276 61.2758 42.9037 60.9568 43.3044 60.5547L66.3044 37.5547C66.9096 36.9516 67.322 36.1822 67.4893 35.3443C67.6566 34.5063 67.5712 33.6376 67.2439 32.8483C66.9166 32.059 66.3622 31.3847 65.6511 30.9109C64.94 30.4372 64.1041 30.1854 63.2497 30.1875Z" fill="#FF82EB"/>
<path d="M46 0C20.5958 0 0 20.5958 0 46C0 71.4042 20.5958 92 46 92C71.4042 92 92 71.4042 92 46C92 20.5958 71.4042 0 46 0ZM46 83.375C25.3593 83.375 8.625 66.6407 8.625 46C8.625 25.3593 25.3593 8.625 46 8.625C66.6407 8.625 83.375 25.3575 83.375 46C83.375 66.6425 66.6407 83.375 46 83.375Z" fill="#FF82EB"/>
</svg>
