<svg width="89" height="103" viewBox="0 0 89 103" fill="none" xmlns="http://www.w3.org/2000/svg">
<path d="M50.7102 21.5664C40.7298 21.5664 35.5272 28.4678 34.4654 35.5815C34.2531 37.0679 35.421 38.342 36.9075 38.342H40.7298C41.8977 38.342 42.8533 37.4926 43.0656 36.3247C43.4903 33.6703 45.1891 30.1666 50.7102 30.1666C54.9572 30.1666 56.656 32.3962 57.293 33.7765C58.2486 35.6877 58.1424 38.0235 56.8683 39.6161C55.7004 41.3149 54.5325 42.0582 53.2584 43.0137C50.0731 45.2434 47.4188 47.5793 46.9941 54.1621C46.8879 55.5424 48.0558 56.8165 49.4361 56.8165H53.1522C54.4263 56.8165 55.4881 55.8609 55.5942 54.5868C55.8066 51.7201 56.5498 51.2954 58.2486 50.0213C59.7351 48.9595 61.8586 47.4731 63.8759 44.7125C67.0611 40.3594 67.4858 34.7321 65.0438 29.8481C62.4956 24.6455 57.0807 21.5664 50.7102 21.5664Z" fill="#FF82EB" stroke="#603F87"/>
<path d="M51.2416 71.9169C54.1149 71.9169 56.4442 69.5876 56.4442 66.7143C56.4442 63.841 54.1149 61.5117 51.2416 61.5117C48.3683 61.5117 46.0391 63.841 46.0391 66.7143C46.0391 69.5876 48.3683 71.9169 51.2416 71.9169Z" fill="#FF82EB" stroke="#603F87"/>
<path d="M49.5007 1C29.3275 1 12.8704 16.0768 11.1716 36.1439C11.1716 36.4624 11.0654 36.7809 10.9592 36.9933L2.35904 50.0528C0.66024 52.601 0.554065 55.7863 2.04051 58.4406C3.42079 61.095 6.18133 62.6876 9.26041 62.6876H11.0654V73.1989C11.0654 78.72 15.6309 83.2856 21.152 83.2856H28.5842V94.4339C28.5842 96.4513 29.4336 98.4686 30.9201 99.8489C32.3004 101.123 34.1053 101.76 35.9103 101.76C36.1227 101.76 36.335 101.76 36.5474 101.76L66.064 99.2118C69.8863 98.8933 72.753 95.708 72.753 91.8857V72.3495C82.3087 64.0679 88.0422 51.8578 88.0422 39.5415C88.0422 18.3065 70.7357 1 49.5007 1ZM67.1257 65.6605C65.1084 67.3593 63.9405 69.8013 63.9405 72.3495V90.7178L37.2906 93.0537V80.6312C37.2906 77.3398 34.6362 74.5792 31.2386 74.5792H20.9396C20.1964 74.5792 19.5594 73.9422 19.5594 73.1989V59.3962C19.5594 56.4233 17.1173 53.8751 14.0383 53.8751H10.0036L18.1791 41.3465C19.0285 39.7538 19.5594 38.3736 19.6655 36.7809C21.152 21.3856 33.893 9.70634 49.5007 9.70634C65.9578 9.70634 79.3358 23.0844 79.3358 39.5415C79.3358 49.2034 74.6641 59.1839 67.1257 65.6605Z" fill="#FF82EB" stroke="#603F87"/>
</svg>
