<svg width="96" height="96" viewBox="0 0 96 96" fill="none" xmlns="http://www.w3.org/2000/svg">
<path d="M48 2C60.7017 2 72.2003 7.15056 80.5263 15.4737C88.8494 23.7969 94 35.2955 94 48C94 60.7017 88.8494 72.2003 80.5263 80.5263C72.2031 88.8494 60.7045 94 48 94C35.2983 94 23.7997 88.8494 15.4737 80.5263C7.15056 72.2031 2 60.7017 2 48C2 35.2983 7.15056 23.7997 15.4737 15.4737C23.7969 7.15056 35.2983 2 48 2ZM48 60.172H69.3686V34.5009L61.3807 43.5651C60.5946 44.4583 59.2337 44.5456 58.3406 43.7595C58.2673 43.6947 58.1997 43.6243 58.1349 43.551L48.0028 32.0553L37.8567 43.5651C37.0706 44.4583 35.7097 44.5456 34.8165 43.7595C34.7432 43.6947 34.6756 43.6243 34.6108 43.551L26.6342 34.5009V60.172H48.0028H48ZM71.5241 64.4857H24.4759C23.2869 64.4857 22.3205 63.5193 22.3205 62.3303V28.7981C22.3233 28.2008 22.5712 27.6063 23.053 27.1808C23.9462 26.3947 25.3071 26.4821 26.0932 27.3752L36.2394 38.8851L46.3714 27.3893C46.4334 27.3161 46.501 27.2484 46.5771 27.1808C47.4703 26.3947 48.8312 26.4821 49.6173 27.3752L59.7606 38.8851L69.8504 27.44C70.2449 26.9526 70.8479 26.6427 71.5241 26.6427C72.7131 26.6427 73.6795 27.6091 73.6795 28.7981V62.3303C73.6795 63.5221 72.7131 64.4857 71.5241 64.4857ZM77.4776 18.5224C69.935 10.9797 59.5127 6.31373 48 6.31373C36.4873 6.31373 26.0651 10.9797 18.5224 18.5224C10.9797 26.0651 6.31373 36.4873 6.31373 48C6.31373 59.5127 10.9797 69.935 18.5224 77.4776C26.0651 85.0203 36.4873 89.6863 48 89.6863C59.5127 89.6863 69.935 85.0203 77.4776 77.4776C85.0203 69.935 89.6863 59.5127 89.6863 48C89.6863 36.4873 85.0203 26.0651 77.4776 18.5224Z" fill="#FF82EB" stroke="#FF82EB" stroke-width="3"/>
</svg>
