<svg width="97" height="104" viewBox="0 0 97 104" fill="none" xmlns="http://www.w3.org/2000/svg">
<path d="M74.3045 26.3467C71.075 22.706 67.066 19.8406 62.5759 17.9638C58.0857 16.0869 53.2301 15.247 48.3704 15.5064C43.5107 15.247 38.6551 16.0869 34.1649 17.9638C29.6748 19.8406 25.6658 22.706 22.4363 26.3467C19.2613 30.5274 17.0093 35.3341 15.8291 40.4494C14.6488 45.5647 14.5672 50.8722 15.5896 56.0213C17.1213 64.952 21.8902 73.005 28.9848 78.6413C31.6992 81.068 33.1205 82.3992 33.1205 83.9037V93.6C33.1205 96.3583 34.2162 99.0035 36.1666 100.954C38.117 102.904 40.7623 104 43.5205 104H53.2272C55.9855 104 58.6307 102.904 60.5811 100.954C62.5315 99.0035 63.6272 96.3583 63.6272 93.6V83.8933C63.6272 82.3888 65.0485 81.0541 67.7629 78.6309C74.8576 72.9946 79.6265 64.9416 81.1581 56.0109C82.178 50.8629 82.0945 45.5571 80.9131 40.4437C79.7317 35.3303 77.4793 30.5256 74.3045 26.3467ZM56.6904 93.6C56.6904 94.5194 56.3252 95.4012 55.675 96.0513C55.0249 96.7014 54.1432 97.0667 53.2237 97.0667H43.5171C42.5977 97.0667 41.7159 96.7014 41.0658 96.0513C40.4156 95.4012 40.0504 94.5194 40.0504 93.6V90.7296H56.6904V93.6ZM74.3357 54.7456C73.0905 62.1709 69.0938 68.8547 63.1419 73.4656C59.8485 76.4019 56.7493 79.1821 56.7008 83.7963H51.8371V55.4667C51.8371 54.5969 52.1826 53.7628 52.7976 53.1477C53.4126 52.5327 54.2468 52.1872 55.1165 52.1872C55.9863 52.1872 56.8205 52.5327 57.4355 53.1477C58.0505 53.7628 58.396 54.5969 58.396 55.4667V58.1152C58.396 59.0346 58.7612 59.9164 59.4114 60.5665C60.0615 61.2166 60.9433 61.5819 61.8627 61.5819C62.7821 61.5819 63.6638 61.2166 64.314 60.5665C64.9641 59.9164 65.3293 59.0346 65.3293 58.1152V55.4667C65.339 53.4982 64.7769 51.5692 63.7112 49.9141C62.6455 48.259 61.1222 46.949 59.3262 46.1431C57.5301 45.3372 55.5388 45.0703 53.5939 45.3746C51.6491 45.6789 49.8344 46.5414 48.3704 47.8573C46.9064 46.5414 45.0917 45.6789 43.1469 45.3746C41.202 45.0703 39.2107 45.3372 37.4146 46.1431C35.6186 46.949 34.0953 48.259 33.0296 49.9141C31.9639 51.5692 31.4018 53.4982 31.4115 55.4667V58.1152C31.4115 59.0346 31.7767 59.9164 32.4268 60.5665C33.077 61.2166 33.9587 61.5819 34.8781 61.5819C35.7976 61.5819 36.6793 61.2166 37.3294 60.5665C37.9796 59.9164 38.3448 59.0346 38.3448 58.1152V55.4667C38.3448 54.5969 38.6903 53.7628 39.3053 53.1477C39.9204 52.5327 40.7545 52.1872 41.6243 52.1872C42.494 52.1872 43.3282 52.5327 43.9432 53.1477C44.5582 53.7628 44.9037 54.5969 44.9037 55.4667V83.7963H40.0504C40.0019 79.1821 36.9027 76.4019 33.6093 73.4656C27.6574 68.8547 23.6607 62.1709 22.4155 54.7456C21.5681 50.5979 21.6076 46.3178 22.5312 42.1864C23.4549 38.055 25.2419 34.1656 27.7749 30.7736C30.3505 27.9128 33.5434 25.6757 37.1117 24.2318C40.68 22.7879 44.5301 22.1751 48.3704 22.4397C52.2107 22.1723 56.0615 22.7824 59.631 24.2239C63.2006 25.6654 66.3952 27.9005 68.9728 30.7597C71.5077 34.1534 73.2958 38.0451 74.2195 42.1791C75.1432 46.3131 75.1851 50.5957 74.3357 54.7456ZM44.9037 6.24V3.46667C44.9037 2.54725 45.269 1.66549 45.9191 1.01536C46.5692 0.365237 47.451 0 48.3704 0C49.2898 0 50.1716 0.365237 50.8217 1.01536C51.4718 1.66549 51.8371 2.54725 51.8371 3.46667V6.24C51.8371 7.15942 51.4718 8.04118 50.8217 8.6913C50.1716 9.34143 49.2898 9.70667 48.3704 9.70667C47.451 9.70667 46.5692 9.34143 45.9191 8.6913C45.269 8.04118 44.9037 7.15942 44.9037 6.24ZM85.0547 12.6464C85.377 12.9684 85.6327 13.3507 85.8071 13.7715C85.9816 14.1924 86.0714 14.6435 86.0714 15.0991C86.0714 15.5546 85.9816 16.0057 85.8071 16.4266C85.6327 16.8474 85.377 17.2298 85.0547 17.5517L83.1029 19.5035C82.4524 20.1558 81.5695 20.523 80.6482 20.5243C79.727 20.5256 78.843 20.1609 78.1907 19.5104C77.5383 18.8599 77.1711 17.9769 77.1698 17.0557C77.1685 16.1345 77.5332 15.2505 78.1837 14.5981L80.1389 12.6464C80.4611 12.3225 80.8441 12.0655 81.2659 11.8901C81.6877 11.7147 82.14 11.6245 82.5968 11.6245C83.0536 11.6245 83.5059 11.7147 83.9277 11.8901C84.3495 12.0655 84.7325 12.3225 85.0547 12.6464ZM96.7269 48.3531C96.7269 49.2725 96.3617 50.1542 95.7116 50.8044C95.0614 51.4545 94.1797 51.8197 93.2603 51.8197H90.4869C89.5675 51.8197 88.6858 51.4545 88.0356 50.8044C87.3855 50.1542 87.0203 49.2725 87.0203 48.3531C87.0203 47.4337 87.3855 46.5519 88.0356 45.9018C88.6858 45.2516 89.5675 44.8864 90.4869 44.8864H93.2603C93.7158 44.8864 94.1669 44.9762 94.5877 45.1506C95.0085 45.325 95.3908 45.5807 95.7128 45.903C96.0347 46.2253 96.29 46.6078 96.4641 47.0288C96.6381 47.4498 96.7274 47.901 96.7269 48.3565V48.3531ZM11.6861 17.5517C11.364 17.2299 11.1085 16.8477 10.9341 16.4271C10.7597 16.0065 10.6699 15.5556 10.6697 15.1003C10.6695 14.645 10.7591 14.194 10.9332 13.7733C11.1073 13.3526 11.3625 12.9702 11.6844 12.6481C12.0063 12.326 12.3884 12.0705 12.809 11.8961C13.2296 11.7217 13.6805 11.6319 14.1358 11.6317C14.5912 11.6315 15.0421 11.7211 15.4628 11.8952C15.8836 12.0693 16.2659 12.3245 16.588 12.6464L18.5432 14.5981C19.1937 15.2486 19.5591 16.1309 19.5591 17.0508C19.5591 17.9707 19.1937 18.853 18.5432 19.5035C17.8927 20.154 17.0105 20.5194 16.0905 20.5194C15.1706 20.5194 14.2884 20.154 13.6379 19.5035L11.6861 17.5517ZM85.0547 79.1613C85.7052 79.8114 86.0708 80.6932 86.0711 81.6128C86.0714 82.5324 85.7064 83.4144 85.0564 84.0649C84.4064 84.7154 83.5246 85.081 82.605 85.0814C81.6854 85.0817 80.8033 84.7167 80.1528 84.0667L78.1976 82.1149C77.8755 81.7928 77.62 81.4105 77.4457 80.9896C77.2714 80.5688 77.1817 80.1178 77.1817 79.6623C77.1817 79.2068 77.2714 78.7557 77.4457 78.3349C77.62 77.9141 77.8755 77.5317 78.1976 77.2096C78.5197 76.8875 78.9021 76.632 79.3229 76.4577C79.7437 76.2834 80.1948 76.1937 80.6503 76.1937C81.1058 76.1937 81.5568 76.2834 81.9776 76.4577C82.3985 76.632 82.7808 76.8875 83.1029 77.2096L85.0547 79.1613ZM18.5571 77.2096C18.8794 77.5316 19.1351 77.9139 19.3095 78.3347C19.484 78.7556 19.5738 79.2067 19.5738 79.6623C19.5738 80.1178 19.484 80.5689 19.3095 80.9898C19.1351 81.4106 18.8794 81.793 18.5571 82.1149L16.6019 84.0667C15.9514 84.7167 15.0693 85.0817 14.1497 85.0814C13.2301 85.081 12.3483 84.7154 11.6983 84.0649C11.0482 83.4144 10.6832 82.5324 10.6836 81.6128C10.6839 80.6932 11.0495 79.8114 11.7 79.1613L13.6517 77.2096C13.9737 76.8873 14.356 76.6316 14.7769 76.4571C15.1977 76.2827 15.6488 76.1929 16.1044 76.1929C16.56 76.1929 17.0111 76.2827 17.4319 76.4571C17.8528 76.6316 18.2351 76.8873 18.5571 77.2096ZM9.70667 48.3565C9.70667 49.276 9.34143 50.1577 8.6913 50.8078C8.04118 51.458 7.15942 51.8232 6.24 51.8232H3.46667C2.54725 51.8232 1.66549 51.458 1.01536 50.8078C0.365237 50.1577 0 49.276 0 48.3565C0 47.4371 0.365237 46.5554 1.01536 45.9052C1.66549 45.2551 2.54725 44.8899 3.46667 44.8899H6.24C7.15942 44.8899 8.04118 45.2551 8.6913 45.9052C9.34143 46.5554 9.70667 47.4371 9.70667 48.3565Z" fill="#FF82EB"/>
</svg>
