<svg width="107" height="38" viewBox="0 0 107 38" fill="none" xmlns="http://www.w3.org/2000/svg">
<path d="M42.12 24V14.06H46.292C46.74 14.06 47.1507 14.1533 47.524 14.34C47.8973 14.5267 48.224 14.774 48.504 15.082C48.784 15.39 48.9987 15.7353 49.148 16.118C49.2973 16.5007 49.372 16.8927 49.372 17.294C49.372 17.8447 49.246 18.372 48.994 18.876C48.7513 19.3707 48.4013 19.772 47.944 20.08C47.496 20.388 46.9733 20.542 46.376 20.542H43.688V24H42.12ZM43.688 19.156H46.278C46.5767 19.156 46.838 19.0767 47.062 18.918C47.286 18.75 47.4587 18.526 47.58 18.246C47.7107 17.966 47.776 17.6487 47.776 17.294C47.776 16.93 47.7013 16.608 47.552 16.328C47.4027 16.048 47.2067 15.8333 46.964 15.684C46.7307 15.5253 46.474 15.446 46.194 15.446H43.688V19.156ZM50.5427 24V14.06H54.8687C55.3167 14.06 55.7273 14.1533 56.1007 14.34C56.474 14.5267 56.796 14.774 57.0667 15.082C57.3467 15.39 57.5613 15.7353 57.7107 16.118C57.8693 16.5007 57.9487 16.8927 57.9487 17.294C57.9487 17.7327 57.8693 18.1527 57.7107 18.554C57.552 18.9553 57.3233 19.3007 57.0247 19.59C56.7353 19.8793 56.3947 20.0893 56.0027 20.22L58.3407 24H56.5767L54.4207 20.542H52.1107V24H50.5427ZM52.1107 19.156H54.8547C55.144 19.156 55.4007 19.072 55.6247 18.904C55.8487 18.736 56.026 18.512 56.1567 18.232C56.2873 17.9427 56.3527 17.63 56.3527 17.294C56.3527 16.9487 56.278 16.6407 56.1287 16.37C55.9793 16.09 55.7833 15.866 55.5407 15.698C55.3073 15.53 55.0507 15.446 54.7707 15.446H52.1107V19.156ZM63.6012 24.07C62.8825 24.07 62.2338 23.93 61.6552 23.65C61.0765 23.37 60.5772 22.992 60.1572 22.516C59.7372 22.0307 59.4105 21.4893 59.1772 20.892C58.9532 20.2853 58.8412 19.6647 58.8412 19.03C58.8412 18.3673 58.9625 17.7373 59.2052 17.14C59.4478 16.5333 59.7838 15.9967 60.2132 15.53C60.6425 15.054 61.1465 14.6807 61.7252 14.41C62.3132 14.13 62.9478 13.99 63.6292 13.99C64.3385 13.99 64.9825 14.1347 65.5612 14.424C66.1492 14.7133 66.6485 15.1007 67.0592 15.586C67.4792 16.0713 67.8012 16.6127 68.0252 17.21C68.2585 17.8073 68.3752 18.4187 68.3752 19.044C68.3752 19.7067 68.2538 20.3413 68.0112 20.948C67.7778 21.5453 67.4465 22.082 67.0172 22.558C66.5878 23.0247 66.0792 23.3933 65.4912 23.664C64.9125 23.9347 64.2825 24.07 63.6012 24.07ZM60.4372 19.03C60.4372 19.4967 60.5118 19.9493 60.6612 20.388C60.8105 20.8267 61.0205 21.2187 61.2912 21.564C61.5712 21.9 61.9072 22.166 62.2992 22.362C62.6912 22.558 63.1298 22.656 63.6152 22.656C64.1192 22.656 64.5672 22.5533 64.9592 22.348C65.3512 22.1427 65.6778 21.8673 65.9392 21.522C66.2098 21.1673 66.4152 20.7753 66.5552 20.346C66.6952 19.9073 66.7652 19.4687 66.7652 19.03C66.7652 18.5633 66.6905 18.1153 66.5412 17.686C66.4012 17.2473 66.1912 16.86 65.9112 16.524C65.6312 16.1787 65.2952 15.908 64.9032 15.712C64.5205 15.516 64.0912 15.418 63.6152 15.418C63.1112 15.418 62.6632 15.5207 62.2712 15.726C61.8792 15.9313 61.5478 16.2067 61.2772 16.552C61.0065 16.8973 60.7965 17.2847 60.6472 17.714C60.5072 18.1433 60.4372 18.582 60.4372 19.03ZM69.6985 24V14.06H76.3205V15.446H71.2665V18.414H75.4945V19.716H71.2665V24H69.6985ZM77.5059 24V14.06H79.0739V24H77.5059ZM81.0204 24V14.06H82.5884V22.614H87.9224V24H81.0204ZM95.7142 22.614V24H88.8962V14.06H95.5882V15.446H90.4642V18.274H94.9022V19.576H90.4642V22.614H95.7142Z" fill="#007BB5"/>
<g clip-path="url(#clip0_1344_854)">
<path d="M0 7C0 4.79086 1.79086 3 4 3H32V35H4C1.79086 35 0 33.2091 0 31V7Z" fill="#007BB5"/>
<path d="M16 35C24.8366 35 32 27.8366 32 19C32 10.1634 24.8366 3 16 3C7.16344 3 0 10.1634 0 19C0 27.8366 7.16344 35 16 35Z" fill="#007BB5"/>
<path d="M11 14H7V28H11V14Z" fill="white"/>
<path d="M20.499 14C17.708 14 17.228 15.018 17 16V14H13V28H17V20C17 18.703 17.703 18 19 18C20.266 18 21 18.688 21 20V28H25V21C25 17 24.479 14 20.499 14Z" fill="white"/>
<path d="M9 13C10.1046 13 11 12.1046 11 11C11 9.89543 10.1046 9 9 9C7.89543 9 7 9.89543 7 11C7 12.1046 7.89543 13 9 13Z" fill="white"/>
</g>
<path d="M31.5 3.5H103C104.933 3.5 106.5 5.067 106.5 7V31C106.5 32.933 104.933 34.5 103 34.5H31.5V3.5Z" stroke="#007BB5"/>
<defs>
<clipPath id="clip0_1344_854">
<rect width="32" height="32" fill="white" transform="translate(0 3)"/>
</clipPath>
</defs>
</svg>
