<svg width="119" height="82" viewBox="0 0 119 82" fill="none" xmlns="http://www.w3.org/2000/svg">
<path d="M117.373 32.0722L95.7928 3.08056C94.1329 0.839772 90.9282 0.354654 88.6688 1.99482L82.6975 6.29159C81.5908 7.10012 80.8531 8.27827 80.6456 9.64123C80.5303 10.4267 80.5995 11.2121 80.8531 11.9282C78.5706 12.5981 74.9279 13.3836 70.6627 13.1295C66.8586 12.9216 63.1928 13.2219 59.6884 14.0304C56.184 13.2219 52.4952 12.8985 48.7372 13.1295C44.5181 13.3836 40.8523 12.5981 38.5468 11.9051C38.7773 11.1659 38.8695 10.4036 38.7312 9.61812C38.5237 8.25517 37.7859 7.07702 36.6793 6.26849L30.708 1.97172C28.4486 0.331552 25.2439 0.81667 23.5839 3.05746L2.00424 32.0722C1.19731 33.158 0.851484 34.5209 1.05898 35.8608C1.26648 37.2006 2.00424 38.4019 3.11089 39.2104L9.0822 43.5072C9.98135 44.154 11.0419 44.4774 12.0794 44.4774C13.6471 44.4774 15.2149 43.7613 16.2063 42.4214L16.4368 42.098C18.2582 45.4477 20.7251 48.9821 23.8145 52.7014C23.0998 53.6485 22.6848 54.6418 22.5926 55.6583C22.3851 58.4766 23.4917 61.3411 25.5897 63.3047C27.2497 64.8525 29.3708 65.7072 31.561 65.7072C31.7455 65.7072 31.953 65.6841 32.1374 65.661C32.5524 67.5784 33.4977 69.4033 34.9732 70.7663C36.6793 72.3834 38.8695 73.2381 41.1289 73.2381C41.152 73.2381 41.1981 73.2381 41.2212 73.2381C41.6823 74.9938 42.6045 76.6339 43.9647 77.8814C45.6247 79.406 47.6766 80.1915 49.8208 80.1915C50.2127 80.1915 50.6046 80.1684 51.0196 80.0991C52.5413 79.8912 54.2012 79.0595 55.9073 77.7428C61.6711 79.9143 66.2591 81 69.8327 81C71.8846 81 73.6137 80.6535 75.0432 79.9374C77.9712 78.5051 79.1239 75.9409 79.7925 73.7463C80.6686 73.8387 81.4986 73.908 82.2825 73.908C84.3113 73.908 85.9944 73.5615 87.4007 72.8916C90.5132 71.4131 91.689 68.6179 92.3346 66.3771C92.5882 65.4762 92.6573 64.5521 92.5882 63.6281C92.7265 63.6281 92.8648 63.6512 93.0032 63.6512C95.032 63.6512 96.715 63.3047 98.1214 62.6348C101.234 61.1332 102.387 58.3611 103.055 56.1203C104.277 51.9159 101.511 48.2429 99.8275 46.5103C100.219 45.286 101.072 43.2993 102.594 41.7053L103.101 42.3983C104.093 43.7382 105.66 44.4543 107.228 44.4543C108.266 44.4543 109.326 44.1309 110.225 43.4841L116.197 39.1873C117.303 38.3788 118.041 37.2006 118.249 35.8377C118.502 34.5209 118.179 33.158 117.373 32.0722ZM11.7797 39.7648L5.80835 35.4681C5.67002 35.3757 5.62391 35.2602 5.62391 35.1678C5.60086 35.0985 5.62391 34.9598 5.71613 34.8443L27.2958 5.82957C27.4572 5.59856 27.803 5.55236 28.0336 5.73717L34.0049 10.0339C34.1432 10.1263 34.1893 10.2418 34.1893 10.3343C34.2124 10.4036 34.1893 10.5422 34.0971 10.6577L12.5174 39.6493C12.356 39.8803 12.0102 39.9265 11.7797 39.7648ZM28.7713 59.9319C27.7108 58.9155 27.1114 57.4139 27.2036 56.0048C27.2266 55.6121 28.3333 54.0643 32.783 52.1007C34.2815 51.4308 36.0568 51.8697 37.1173 53.1403C37.832 54.0412 38.0395 55.2194 37.7398 56.3051C35.1115 57.7605 33.3824 59.2851 32.5293 60.9022C32.391 60.9484 32.2527 61.0177 32.1374 61.0408C30.5005 61.2718 29.3247 60.4402 28.7713 59.9319ZM36.5179 63.2585C36.541 62.8196 37.6707 61.2256 42.3509 59.1465C42.8581 58.9155 43.3883 58.8231 43.9186 58.8231C45.0714 58.8231 46.2011 59.3313 46.9619 60.2785C48.1608 61.7569 48.0455 63.9053 46.7083 65.2683C44.08 67.9249 42.4661 68.5024 41.7284 68.5948C39.9762 68.8489 38.7312 67.948 38.1548 67.4166C37.0482 66.3309 36.4026 64.76 36.5179 63.2585ZM50.4202 75.5482C49.2213 75.7099 48.0455 75.3403 47.1002 74.4624C46.3625 73.7925 45.8553 72.8916 45.6247 71.9213C47.008 71.1359 48.4605 70.004 49.9821 68.4793C50.5816 67.8787 51.0427 67.1856 51.4116 66.4926C52.8179 66.0306 54.4087 66.4464 55.4001 67.6477C56.5298 69.0337 56.4376 71.0435 55.1465 72.3372C53.3021 74.2314 51.5729 75.3865 50.4202 75.5482ZM98.6748 54.8497C98.0753 56.9057 97.3837 57.9222 96.1848 58.4997C94.0637 59.5161 89.0377 59.6778 77.0951 54.6649C75.9193 54.1798 74.559 54.7342 74.0748 55.9124C73.5907 57.0905 74.144 58.4535 75.3198 58.9386C80.2306 60.9946 84.3805 62.3575 87.8619 63.0737C88.1155 63.8129 88.1616 64.4828 87.9771 65.1066C87.3546 67.1856 86.686 68.179 85.4872 68.7565C83.3661 69.7729 78.317 69.9346 66.3744 64.9217C65.1986 64.4366 63.8614 64.9911 63.3542 66.1692C62.87 67.3473 63.4233 68.7103 64.5991 69.1954C68.6569 70.9049 72.1843 72.1061 75.2737 72.8916C74.7204 74.4393 74.0748 75.2941 73.0835 75.8023C71.3774 76.6339 67.6424 76.9573 59.5731 74.139C61.3945 71.2514 61.2561 67.4629 58.9967 64.7138C57.3368 62.7041 54.8698 61.6414 52.3799 61.6876C52.2185 60.1399 51.6191 58.6383 50.5816 57.3446C48.5988 54.8959 45.4633 53.8102 42.4892 54.3415C42.3048 52.8631 41.7053 51.4077 40.737 50.2065C38.3623 47.3188 34.3507 46.3717 30.9846 47.8733C29.6244 48.4739 28.4486 49.0745 27.4111 49.6982C23.9528 45.5401 21.3015 41.5205 19.5954 37.963L35.9876 15.9247C38.4545 16.7563 43.2961 18.05 49.0599 17.7265C49.4749 17.7034 49.8899 17.7034 50.3049 17.7034H50.2819C46.0628 20.129 41.7284 21.8154 37.6476 23.2939C36.3104 23.779 35.2268 24.8185 34.6735 26.1353C34.1432 27.4058 34.1663 28.8612 34.7426 30.1086C37.5093 36.1149 43.0195 38.0785 49.4288 35.3757C63.3772 29.508 70.6166 35.3295 78.2709 41.4743C83.32 45.517 88.5074 49.6982 95.4009 49.6982C95.7467 49.6982 96.1387 49.652 96.4845 49.6289C97.4298 50.6223 99.2742 52.8169 98.6748 54.8497ZM95.4931 45.055C95.447 45.055 95.4009 45.055 95.3779 45.055C90.0752 45.055 85.8791 41.6822 81.1067 37.8475C73.5215 31.7488 64.0689 24.1717 47.6075 31.102C43.4114 32.8808 40.6217 31.9336 38.8926 28.1682C38.8695 28.1451 38.8465 28.0527 38.8926 27.9141C38.9156 27.8448 39.0079 27.7062 39.1923 27.6368C43.4575 26.0891 48.0224 24.3103 52.5643 21.6999C57.7287 18.7199 63.9075 17.3338 70.4091 17.7034C76.1959 18.0269 81.0145 16.7332 83.4814 15.9016L99.8967 37.963C97.4067 40.2731 96.0926 43.2069 95.4931 45.055ZM113.568 35.445L107.597 39.7417C107.367 39.9034 107.021 39.8572 106.859 39.6262L85.2797 10.6115C85.1874 10.496 85.1875 10.3805 85.1875 10.288C85.2105 10.1956 85.2336 10.0801 85.3719 9.98774L91.3432 5.69097C91.4354 5.62166 91.5507 5.59856 91.666 5.59856C91.8273 5.59856 91.9887 5.66787 92.081 5.80647L113.661 34.8212C113.753 34.9367 113.753 35.0753 113.753 35.1446C113.73 35.2371 113.684 35.3526 113.568 35.445Z" fill="#FF82EB" stroke="#FF82EB"/>
</svg>
