<svg width="46" height="69" viewBox="0 0 46 69" fill="none" xmlns="http://www.w3.org/2000/svg">
<path d="M39.6586 61.7307H43.0579C44.3072 61.7307 45.3241 62.7476 45.3241 63.9969V67.3962C45.3241 68.0223 44.8171 68.5293 44.191 68.5293H1.1331C0.507065 68.5293 0 68.0223 0 67.3962V63.9969C0 62.7476 1.01693 61.7307 2.26621 61.7307H5.66552V50.3997C5.66552 49.1504 6.68244 48.1335 7.93172 48.1335H37.3924C38.6417 48.1335 39.6586 49.1504 39.6586 50.3997V61.7307Z" fill="#FF82EB"/>
<path d="M13.5965 59.4646H26.061C26.687 59.4646 27.1941 58.9576 27.1941 58.3315C27.1941 57.7055 26.687 57.1984 26.061 57.1984H13.5965C12.9704 57.1984 12.4634 57.7055 12.4634 58.3315C12.4634 58.9576 12.9704 59.4646 13.5965 59.4646Z" fill="#603F87"/>
<path d="M29.4603 59.4646H31.7265C32.3525 59.4646 32.8596 58.9576 32.8596 58.3315C32.8596 57.7055 32.3525 57.1984 31.7265 57.1984H29.4603C28.8342 57.1984 28.3272 57.7055 28.3272 58.3315C28.3272 58.9576 28.8342 59.4646 29.4603 59.4646Z" fill="#603F87"/>
<path d="M13.5968 54.9322H31.7265C32.3525 54.9322 32.8596 54.4252 32.8596 53.7991C32.8596 53.1731 32.3525 52.666 31.7265 52.666H13.5968C12.9708 52.666 12.4637 53.1731 12.4637 53.7991C12.4637 54.4252 12.9708 54.9322 13.5968 54.9322Z" fill="#603F87"/>
<rect x="8.271" y="9.69141" width="26.8319" height="24.6563" fill="#FF82EB"/>
<path d="M10.0387 46.7193H36.004L45.5844 7.33008C45.6609 7.01848 45.5986 6.68988 45.4202 6.4236C45.2389 6.15732 44.9556 5.98168 44.6355 5.93919L2.71105 0.27368C2.35129 0.225523 1.9887 0.353 1.73655 0.616446C1.48443 0.879891 1.37679 1.25098 1.44478 1.60792L10.0387 46.7193ZM12.0556 18.8083C12.3701 17.8678 13.2143 17.2588 14.2057 17.2588H19.2678L20.8032 12.5338C21.1091 11.582 21.9561 10.9672 22.9561 10.9672C23.9561 10.9672 24.8031 11.582 25.1119 12.5338L26.6472 17.2588H31.7151C32.7065 17.2588 33.5506 17.865 33.8651 18.8055C34.1795 19.746 33.8708 20.7375 33.0804 21.3352L28.9248 24.4654L30.4941 29.3434C30.7179 30.0431 30.6018 30.7796 30.1769 31.3632C29.4658 32.3405 28.0098 32.5926 27.0155 31.8759L22.9675 28.9638L18.9223 31.9156C18.5257 32.2045 18.0668 32.3575 17.591 32.3575C16.8686 32.3575 16.1803 32.0062 15.7496 31.4142C15.3247 30.8306 15.2058 30.0941 15.4295 29.3973L17.0017 24.4541L12.8517 21.3352C12.05 20.7404 11.7413 19.7488 12.0556 18.8083Z" fill="#603F87"/>
</svg>
