<svg width="45" height="47" viewBox="0 0 45 47" fill="none" xmlns="http://www.w3.org/2000/svg">
<rect x="7.271" y="9.69141" width="26.8319" height="24.6563" fill="#FF82EB"/>
<path d="M9.03874 46.7193H35.004L44.5844 7.33008C44.6609 7.01848 44.5986 6.68988 44.4202 6.4236C44.2389 6.15732 43.9556 5.98168 43.6355 5.93919L1.71105 0.27368C1.35129 0.225523 0.988701 0.353 0.736546 0.616446C0.484428 0.879891 0.376789 1.25098 0.444775 1.60792L9.03874 46.7193ZM11.0556 18.8083C11.3701 17.8678 12.2143 17.2588 13.2057 17.2588H18.2678L19.8032 12.5338C20.1091 11.582 20.9561 10.9672 21.9561 10.9672C22.9561 10.9672 23.8031 11.582 24.1119 12.5338L25.6472 17.2588H30.7151C31.7065 17.2588 32.5506 17.865 32.8651 18.8055C33.1795 19.746 32.8708 20.7375 32.0804 21.3352L27.9248 24.4654L29.4941 29.3434C29.7179 30.0431 29.6018 30.7796 29.1769 31.3632C28.4658 32.3405 27.0098 32.5926 26.0155 31.8759L21.9675 28.9638L17.9223 31.9156C17.5257 32.2045 17.0668 32.3575 16.591 32.3575C15.8686 32.3575 15.1803 32.0062 14.7496 31.4142C14.3247 30.8306 14.2058 30.0941 14.4295 29.3973L16.0017 24.4541L11.8517 21.3352C11.05 20.7404 10.7413 19.7488 11.0556 18.8083Z" fill="#603F87"/>
</svg>
