<svg width="64" height="64" viewBox="0 0 64 64" fill="none" xmlns="http://www.w3.org/2000/svg">
<path d="M32 0C14.355 0 0 14.355 0 32C0 49.645 14.355 64 32 64C49.645 64 64 49.645 64 32C64 14.355 49.645 0 32 0Z" fill="#603F87"/>
<path d="M20 28.9951C22.5138 28.9951 24.5517 26.9572 24.5517 24.4434C24.5517 21.9295 22.5138 19.8916 20 19.8916C17.4862 19.8916 15.4483 21.9295 15.4483 24.4434C15.4483 26.9572 17.4862 28.9951 20 28.9951Z" fill="#FF82EB" stroke="#FF82EB" stroke-width="1.10345"/>
<path d="M43.9982 28.9951C46.5126 28.9951 48.5517 26.9562 48.5517 24.4434C48.5517 21.9305 46.5126 19.8916 43.9982 19.8916C41.4871 19.8916 39.4483 21.9308 39.4483 24.4434C39.4483 26.9559 41.4871 28.9951 43.9982 28.9951Z" fill="#FF82EB" stroke="#FF82EB" stroke-width="1.10345"/>
<path d="M43.3172 37.5949L43.3172 37.595C40.9721 41.8165 36.631 44.4255 32.0001 44.4255C27.3692 44.4255 23.0281 41.8165 20.6831 37.595L20.6828 37.5945C19.7804 35.9742 17.7693 35.3986 16.1873 36.3554C14.6203 37.3012 14.1026 39.3727 14.9963 40.9825L14.9964 40.9827C18.5002 47.2878 25.0102 51.2173 32.0001 51.2173C38.99 51.2173 45.5 47.2878 49.0029 40.9827C49.8977 39.3727 49.3799 37.3011 47.8129 36.3554C46.2321 35.3988 44.2188 35.9729 43.3172 37.5949Z" fill="#FF82EB" stroke="#FF82EB" stroke-width="1.10345"/>
</svg>
