<svg width="73" height="72" viewBox="0 0 73 72" fill="none" xmlns="http://www.w3.org/2000/svg">
<path d="M50.6057 61.9365L40.7013 67.6532L35.7492 62.7017C40.9204 59.2388 49.8341 53.4654 52.6493 51.0255C53.9428 52.703 54.462 54.8547 54.0719 56.9402C53.6817 59.0228 52.4185 60.8412 50.6057 61.9365ZM19.8336 18.7328C16.3941 16.8153 12.0513 18.0096 10.0798 21.4156L4.36237 31.3187L9.31444 36.2702C11.7455 32.7622 18.2823 22.4299 20.9922 19.3724L19.8336 18.7328ZM12.4925 46.3949L11.187 47.7003C10.0045 48.8827 10.0045 50.8032 11.187 51.9855L20.0319 60.8293C21.2144 62.0117 23.1352 62.0117 24.3177 60.8293L25.6232 59.5239L12.4925 46.3949ZM15.6168 56.3995C13.7801 54.641 11.1269 54.0288 8.70792 54.806C6.28594 55.5832 4.48515 57.6239 4.01394 60.1236C3.49172 62.7343 2.55835 67.2687 2.01807 69.9991C4.67416 69.4739 9.2721 68.5256 11.8948 68.0035L11.8918 68.0005C14.3919 67.5293 16.4328 65.7288 17.2101 63.3101C17.9874 60.8884 17.3755 58.236 15.6168 56.3995Z" fill="#FF82EB"/>
<path d="M50.2092 46.6166C47.0549 49.5485 35.8723 56.5674 32.199 59.154L12.8619 39.8164L21.5838 26.7865M50.6057 61.9365L40.7013 67.6532L35.7492 62.7017C40.9204 59.2388 49.8341 53.4654 52.6493 51.0255C53.9428 52.703 54.462 54.8547 54.0719 56.9402C53.6817 59.0228 52.4185 60.8412 50.6057 61.9365ZM19.8336 18.7328C16.3941 16.8153 12.0513 18.0096 10.0798 21.4156L4.36237 31.3187L9.31444 36.2702C11.7455 32.7622 18.2823 22.4299 20.9922 19.3724L19.8336 18.7328ZM12.4925 46.3949L11.187 47.7003C10.0045 48.8827 10.0045 50.8032 11.187 51.9855L20.0319 60.8293C21.2144 62.0117 23.1352 62.0117 24.3177 60.8293L25.6232 59.5239L12.4925 46.3949ZM15.6168 56.3995C13.7801 54.641 11.1269 54.0288 8.70792 54.806C6.28594 55.5832 4.48515 57.6239 4.01394 60.1236C3.49172 62.7343 2.55835 67.2687 2.01807 69.9991C4.67416 69.4739 9.2721 68.5256 11.8948 68.0035L11.8918 68.0005C14.3919 67.5293 16.4328 65.7288 17.2101 63.3101C17.9874 60.8884 17.3755 58.236 15.6168 56.3995Z" stroke="#FF82EB" stroke-width="3"/>
<path d="M48.6307 18.888C47.3777 18.8813 46.1747 19.3725 45.2859 20.2547C44.4003 21.1368 43.8991 22.3398 43.8991 23.5895C43.8991 24.8425 44.4004 26.0422 45.2859 26.9243C46.1747 27.8098 47.3776 28.301 48.6307 28.2943C49.8804 28.301 51.0834 27.8098 51.9722 26.9243C52.861 26.0422 53.3589 24.8425 53.3589 23.5895C53.3589 22.3398 52.861 21.1368 51.9722 20.2547C51.0833 19.3726 49.8804 18.8814 48.6307 18.888ZM72.2181 7.36635C71.1923 23.0847 63.8644 37.7236 51.8916 47.9621C48.3797 51.2267 35.9294 59.0424 31.8397 61.9226L10.3104 40.3899L20.0212 25.8811C30.1596 10.7812 46.7197 1.22784 64.8675 0.0148557C66.8557 -0.115459 68.8005 0.61632 70.2105 2.02313C71.6173 3.43321 72.3484 5.37818 72.2181 7.36635ZM58.9155 23.5227C58.7517 10.4673 38.7797 9.72902 38.3717 23.6597C38.8061 37.213 58.6443 37.0488 58.9155 23.5227Z" fill="#603F87"/>
</svg>
