<svg width="85" height="85" viewBox="0 0 85 85" fill="none" xmlns="http://www.w3.org/2000/svg">
<rect width="85" height="85" rx="20" fill="#603F87"/>
<path d="M59.3176 44.1651C60.7042 41.917 61.8535 39.6203 62.6664 37.4187C64.7239 31.7266 64.3894 27.133 61.7096 24.453C60.3697 23.1131 58.5047 22.3488 56.2568 22.2049C56.0662 21.4873 55.6831 20.8183 55.1094 20.2913C54.2479 19.4298 53.1472 19 51.9512 19C50.7552 19 49.6078 19.4784 48.793 20.2913C47.7876 21.2967 47.3578 22.6833 47.5017 24.0232C45.6833 24.7894 43.865 25.7462 42 26.8936C39.7519 25.507 37.4552 24.3577 35.2536 23.5448C29.5616 21.4873 24.968 21.8218 22.2879 24.5016C19.6079 27.1814 19.2736 31.8217 21.3311 37.4673C22.144 39.6687 23.2448 41.9168 24.68 44.2137C23.2934 46.4618 22.144 48.7585 21.3311 50.9601C19.2736 56.6522 19.6081 61.2458 22.2879 63.9258C23.8184 65.4563 25.9713 66.2225 28.556 66.2225C30.5649 66.2225 32.813 65.7927 35.2536 64.8826C37.455 64.0697 39.7031 62.969 42 61.5338C44.2481 62.9204 46.5449 64.0697 48.7465 64.8826C51.1871 65.7908 53.4352 66.2225 55.4441 66.2225C58.0753 66.2225 60.2281 65.4563 61.7121 63.9258C64.3919 61.246 64.7264 56.6058 62.6689 50.9601C61.8542 48.6634 60.7534 46.4153 59.3182 44.1654L59.3176 44.1651ZM50.4672 21.9194C50.8503 21.5363 51.3754 21.2971 51.951 21.2971C52.5247 21.2971 53.0517 21.5363 53.4348 21.9194C53.5301 22.0147 53.6254 22.11 53.674 22.2539C54.1524 22.9715 54.1524 23.9769 53.5787 24.6945C53.5301 24.7431 53.4834 24.8384 53.3881 24.8851C52.7191 25.5541 51.7137 25.6514 50.9475 25.2682C50.7569 25.1729 50.5644 25.0776 50.4205 24.8851C49.9421 24.4067 49.7515 23.7377 49.8468 23.0668C49.9421 22.637 50.1327 22.2558 50.4672 21.9194ZM48.4097 26.1783C48.505 26.3222 48.6489 26.4661 48.7442 26.5614C49.6057 27.4229 50.7531 27.8527 51.9024 27.8527C53.0498 27.8527 54.1991 27.4229 55.0606 26.5614C55.6343 25.9877 56.0174 25.3168 56.208 24.5525C57.7871 24.6964 59.0784 25.2215 59.9399 26.083C61.9021 28.0452 62.0441 31.8726 60.323 36.559C59.7007 38.282 58.8392 40.0984 57.7871 41.8702C56.0174 39.3343 53.9113 36.847 51.5191 34.455C49.1269 32.063 46.6399 29.9588 44.1039 28.187C45.6362 27.4694 47.0231 26.752 48.4097 26.1783ZM23.5815 36.6079C21.8585 31.9192 22.0024 28.0919 23.9646 26.1319C25.0167 25.0798 26.5959 24.5528 28.6048 24.5528C30.3278 24.5528 32.2881 24.9359 34.4408 25.7488C36.1638 26.3711 37.9802 27.2326 39.752 28.2847C37.2161 30.0544 34.7288 32.1605 32.3368 34.5527C29.9448 36.9449 27.8406 39.4319 26.0687 41.9679C25.0652 40.1478 24.2037 38.3295 23.5814 36.6084L23.5815 36.6079ZM34.4408 62.5837C29.7521 64.3067 25.9248 64.1628 23.9647 62.2006C22.0025 60.2384 21.8605 56.411 23.5817 51.7246C24.204 50.0016 25.0655 48.1852 26.1176 46.4134C27.8873 48.9493 29.9934 51.4366 32.3856 53.8286C34.7778 56.2206 37.2648 58.3248 39.8008 60.0966C37.9825 61.0534 36.2109 61.9149 34.4413 62.5839L34.4408 62.5837ZM34.0577 52.0589C31.5218 49.523 29.3223 46.8453 27.5041 44.1165C29.3224 41.3899 31.5219 38.71 34.0577 36.174C36.5936 33.64 39.2732 31.4872 42.0001 29.6706C44.7266 31.4889 47.4066 33.6884 49.9426 36.2243C52.4785 38.7602 54.678 41.4379 56.4962 44.1667C54.6779 46.8932 52.4784 49.5731 49.9426 52.1091C47.4067 54.645 44.7289 56.8445 42.0001 58.6628C39.2736 56.8426 36.5937 54.5949 34.0577 52.0589ZM60.0354 62.1541C58.0732 64.1163 54.2458 64.2583 49.5594 62.5372C47.8364 61.9149 46.02 61.0534 44.2481 60.0013C46.7841 58.2316 49.2714 56.1255 51.6634 53.7333C54.0554 51.3411 56.1129 48.9024 57.8826 46.3668C58.9347 48.1852 59.7962 49.9549 60.4185 51.6781C62.1415 56.3649 61.9976 60.1922 60.0354 62.1541Z" fill="#FF82EB" stroke="#FF82EB" stroke-width="0.4"/>
<path d="M45.9225 40.1961C44.8704 39.144 43.4819 38.5703 42 38.5703C40.5162 38.5703 39.1296 39.144 38.0775 40.1961C37.0254 41.2482 36.4517 42.6367 36.4517 44.1186C36.4517 45.6024 37.0254 46.989 38.0775 48.0411C39.1296 49.1419 40.5162 49.7156 42 49.7156C43.4837 49.7156 44.8704 49.1419 45.9225 48.0898C46.9746 47.0376 47.5483 45.6491 47.5483 44.1672C47.5502 42.6834 47.0232 41.2482 45.9225 40.1961ZM44.2481 46.4153C43.6258 47.0376 42.8615 47.3721 42 47.3721C41.1385 47.3721 40.3256 47.0376 39.7519 46.4153C39.1296 45.793 38.7951 45.0287 38.7951 44.1672C38.7951 43.3057 39.1296 42.4928 39.7519 41.9191C40.3742 41.2968 41.1385 40.9623 42 40.9623C42.8615 40.9623 43.6744 41.2968 44.2481 41.9191C44.8704 42.5414 45.2049 43.3057 45.2049 44.1672C45.2049 44.9801 44.8704 45.793 44.2481 46.4153Z" fill="#FF82EB" stroke="#FF82EB" stroke-width="0.4"/>
</svg>
