<svg width="85" height="85" viewBox="0 0 85 85" fill="none" xmlns="http://www.w3.org/2000/svg">
<rect width="85" height="85" rx="20" fill="#603F87"/>
<path d="M55.3975 40.5265C55.1096 40.0784 54.3674 40.0784 54.0776 40.5265L50.9815 45.3405L43.2836 33.3862V31.6192H51.4066C51.8394 31.6192 52.19 31.2705 52.19 30.8399V24.7793C52.19 24.3487 51.8394 24 51.4066 24H42.5C42.0672 24 41.7167 24.3487 41.7167 24.7793V33.3865L34.0168 45.3407L30.9187 40.5287C30.6309 40.0826 29.8887 40.0826 29.5988 40.5287L19.1236 56.796C18.9689 57.0356 18.9591 57.3415 19.0962 57.5909C19.2332 57.8402 19.4976 57.9961 19.7835 57.9961H27.2799C27.2877 57.9961 27.2916 58 27.2995 58H65.2165C65.5024 58 65.7668 57.8441 65.9038 57.5948C66.0409 57.3454 66.0311 57.0415 65.8764 56.7999L55.3997 40.5266L55.3975 40.5265ZM50.6232 30.061H43.2832V25.5588H50.6232V30.061ZM30.2587 42.3948L33.3607 47.2107C33.3685 47.2224 33.3724 47.2321 33.3802 47.2418L39.3019 56.4375H21.215L30.2587 42.3948ZM44.2703 56.4412H41.1664L34.9489 46.7861L42.5019 35.0598L56.2729 56.4412H44.2703ZM58.1311 56.4412L51.9136 46.7861L54.7394 42.393L63.7849 56.4414L58.1311 56.4412Z" fill="#FF82EB" stroke="#FF82EB"/>
</svg>
