<svg width="85" height="85" viewBox="0 0 85 85" fill="none" xmlns="http://www.w3.org/2000/svg">
<rect width="85" height="85" rx="20" fill="#603F87"/>
<mask id="path-2-inside-1_1494_36" fill="white">
<path fill-rule="evenodd" clip-rule="evenodd" d="M47.6444 16.0971C44.5419 15.0607 41.1495 16.466 39.6849 19.3929L34.0075 30.7492C33.7937 29.6764 32.8477 28.8672 31.7121 28.8672H24.6857C22.097 28.8672 20 30.9641 20 33.5529V56.9729C20 59.5616 22.0969 61.6586 24.6857 61.6586H31.7121C33.0054 61.6586 34.0528 60.609 34.0528 59.3157V59.0081L35.0781 59.6918C37.0018 60.9741 39.2635 61.6592 41.5756 61.6592H53.8651C58.4457 61.6592 62.3542 58.3478 63.1051 53.8289L65.9025 37.0487C66.6164 32.7668 63.3138 28.8672 58.9728 28.8672H50.9627L52.0118 23.6221C52.6618 20.3722 50.791 17.1445 47.6444 16.0971ZM46.2361 32.6204C46.3803 32.8116 46.5538 32.9813 46.7518 33.1217C47.1339 33.3933 47.6009 33.553 48.1054 33.553H58.9722C60.4192 33.553 61.5193 34.8529 61.2822 36.2802L58.4847 53.0604C58.1092 55.3176 56.155 56.9732 53.8648 56.9732H41.5754C40.1877 56.9732 38.8307 56.5626 37.6757 55.794L34.0528 53.3788V38.2369C34.9399 38.2369 35.7523 37.7363 36.1475 36.9414L43.8765 21.4878C44.2959 20.6468 45.2709 20.2428 46.1645 20.5414C47.067 20.8423 47.6049 21.7689 47.4183 22.7043L45.8088 30.7515C45.6977 31.3091 45.7945 31.8603 46.046 32.3245C46.102 32.4281 46.1657 32.5269 46.2361 32.6204ZM29.3693 35.8665C29.3692 35.8757 29.3691 35.8849 29.3691 35.894V35.8942V54.6328L29.3693 54.66V56.9728H24.6858V33.5529H29.3693V35.8665Z"/>
</mask>
<path fill-rule="evenodd" clip-rule="evenodd" d="M47.6444 16.0971C44.5419 15.0607 41.1495 16.466 39.6849 19.3929L34.0075 30.7492C33.7937 29.6764 32.8477 28.8672 31.7121 28.8672H24.6857C22.097 28.8672 20 30.9641 20 33.5529V56.9729C20 59.5616 22.0969 61.6586 24.6857 61.6586H31.7121C33.0054 61.6586 34.0528 60.609 34.0528 59.3157V59.0081L35.0781 59.6918C37.0018 60.9741 39.2635 61.6592 41.5756 61.6592H53.8651C58.4457 61.6592 62.3542 58.3478 63.1051 53.8289L65.9025 37.0487C66.6164 32.7668 63.3138 28.8672 58.9728 28.8672H50.9627L52.0118 23.6221C52.6618 20.3722 50.791 17.1445 47.6444 16.0971ZM46.2361 32.6204C46.3803 32.8116 46.5538 32.9813 46.7518 33.1217C47.1339 33.3933 47.6009 33.553 48.1054 33.553H58.9722C60.4192 33.553 61.5193 34.8529 61.2822 36.2802L58.4847 53.0604C58.1092 55.3176 56.155 56.9732 53.8648 56.9732H41.5754C40.1877 56.9732 38.8307 56.5626 37.6757 55.794L34.0528 53.3788V38.2369C34.9399 38.2369 35.7523 37.7363 36.1475 36.9414L43.8765 21.4878C44.2959 20.6468 45.2709 20.2428 46.1645 20.5414C47.067 20.8423 47.6049 21.7689 47.4183 22.7043L45.8088 30.7515C45.6977 31.3091 45.7945 31.8603 46.046 32.3245C46.102 32.4281 46.1657 32.5269 46.2361 32.6204ZM29.3693 35.8665C29.3692 35.8757 29.3691 35.8849 29.3691 35.894V35.8942V54.6328L29.3693 54.66V56.9728H24.6858V33.5529H29.3693V35.8665Z" fill="#FF82EB"/>
<path d="M39.6849 19.3929L38.7906 18.9454L38.7905 18.9458L39.6849 19.3929ZM47.6444 16.0971L47.3276 17.0456L47.3286 17.0459L47.6444 16.0971ZM34.0075 30.7492L33.0268 30.9447L33.5972 33.8063L34.902 31.1964L34.0075 30.7492ZM34.0528 59.0081L34.6076 58.1761L33.0528 57.1393V59.0081H34.0528ZM35.0781 59.6918L34.5233 60.5238L34.5235 60.5239L35.0781 59.6918ZM63.1051 53.8289L62.1187 53.6645L62.1186 53.665L63.1051 53.8289ZM65.9025 37.0487L64.9161 36.8843V36.8843L65.9025 37.0487ZM50.9627 28.8672L49.9821 28.6711L49.7429 29.8672H50.9627V28.8672ZM52.0118 23.6221L52.9924 23.8182V23.8182L52.0118 23.6221ZM46.7518 33.1217L47.3311 32.3067L47.3305 32.3062L46.7518 33.1217ZM46.2361 32.6204L47.0347 32.0185L47.0345 32.0182L46.2361 32.6204ZM61.2822 36.2802L62.2685 36.4446L62.2686 36.4441L61.2822 36.2802ZM58.4847 53.0604L57.4984 52.8959L57.4983 52.8963L58.4847 53.0604ZM37.6757 55.794L37.121 56.6261L37.1217 56.6266L37.6757 55.794ZM34.0528 53.3788H33.0528V53.9139L33.4981 54.2108L34.0528 53.3788ZM34.0528 38.2369L34.0528 37.2369L33.0528 37.237V38.2369H34.0528ZM36.1475 36.9414L35.2531 36.4941L35.2521 36.4962L36.1475 36.9414ZM43.8765 21.4878L44.7709 21.9351L44.7714 21.9341L43.8765 21.4878ZM46.1645 20.5414L45.8476 21.4899L45.8483 21.4901L46.1645 20.5414ZM47.4183 22.7043L48.3989 22.9004L48.399 22.9L47.4183 22.7043ZM45.8088 30.7515L44.8282 30.5554L44.8281 30.556L45.8088 30.7515ZM46.046 32.3245L46.9254 31.8485L46.9252 31.8481L46.046 32.3245ZM29.3693 35.8665L30.3693 35.8781V35.8665H29.3693ZM29.3691 54.6328H28.3691L28.3692 54.6386L29.3691 54.6328ZM29.3693 54.66H30.3693L30.3693 54.6542L29.3693 54.66ZM29.3693 56.9728V57.9728H30.3693V56.9728H29.3693ZM24.6858 56.9728H23.6858V57.9728H24.6858V56.9728ZM24.6858 33.5529V32.5529H23.6858V33.5529H24.6858ZM29.3693 33.5529H30.3693V32.5529H29.3693V33.5529ZM40.5792 19.8404C41.8214 17.358 44.6979 16.1671 47.3276 17.0456L47.9613 15.1486C44.386 13.9543 40.4777 15.574 38.7906 18.9454L40.5792 19.8404ZM34.902 31.1964L40.5794 19.8401L38.7905 18.9458L33.1131 30.3021L34.902 31.1964ZM34.9883 30.5538C34.6832 29.0232 33.3348 27.8672 31.7121 27.8672V29.8672C32.3606 29.8672 32.9042 30.3296 33.0268 30.9447L34.9883 30.5538ZM31.7121 27.8672H24.6857V29.8672H31.7121V27.8672ZM24.6857 27.8672C21.5447 27.8672 19 30.4118 19 33.5529H21C21 31.5164 22.6492 29.8672 24.6857 29.8672V27.8672ZM19 33.5529V56.9729H21V33.5529H19ZM19 56.9729C19 60.1139 21.5446 62.6586 24.6857 62.6586V60.6586C22.6492 60.6586 21 59.0094 21 56.9729H19ZM24.6857 62.6586H31.7121V60.6586H24.6857V62.6586ZM31.7121 62.6586C33.5589 62.6586 35.0528 61.1601 35.0528 59.3157H33.0528C33.0528 60.058 32.4519 60.6586 31.7121 60.6586V62.6586ZM35.0528 59.3157V59.0081H33.0528V59.3157H35.0528ZM33.498 59.8401L34.5233 60.5238L35.6329 58.8598L34.6076 58.1761L33.498 59.8401ZM34.5235 60.5239C36.6114 61.9156 39.0659 62.6592 41.5756 62.6592V60.6592C39.461 60.6592 37.3923 60.0326 35.6328 58.8597L34.5235 60.5239ZM41.5756 62.6592H53.8651V60.6592H41.5756V62.6592ZM53.8651 62.6592C58.9345 62.6592 63.2604 58.9943 64.0916 53.9929L62.1186 53.665C61.4479 57.7013 57.9568 60.6592 53.8651 60.6592V62.6592ZM64.0915 53.9934L66.8889 37.2132L64.9161 36.8843L62.1187 53.6645L64.0915 53.9934ZM66.8889 37.2132C67.7044 32.3219 63.9319 27.8672 58.9728 27.8672V29.8672C62.6957 29.8672 65.5284 33.2118 64.9161 36.8843L66.8889 37.2132ZM58.9728 27.8672H50.9627V29.8672H58.9728V27.8672ZM51.0312 23.426L49.9821 28.6711L51.9433 29.0633L52.9924 23.8182L51.0312 23.426ZM47.3286 17.0459C49.9959 17.9338 51.5824 20.6702 51.0312 23.426L52.9924 23.8182C53.7411 20.0743 51.5861 16.3552 47.9603 15.1483L47.3286 17.0459ZM47.3305 32.3062C47.2174 32.226 47.1178 32.1287 47.0347 32.0185L45.4375 33.2222C45.6428 33.4945 45.8902 33.7366 46.1731 33.9373L47.3305 32.3062ZM46.1725 33.9368C46.7181 34.3247 47.3865 34.553 48.1054 34.553V32.553C47.8154 32.553 47.5496 32.4619 47.3311 32.3067L46.1725 33.9368ZM48.1054 34.553H58.9722V32.553H48.1054V34.553ZM58.9722 34.553C59.8005 34.553 60.4317 35.2975 60.2957 36.1163L62.2686 36.4441C62.6069 34.4083 61.0379 32.553 58.9722 32.553V34.553ZM60.2958 36.1157L57.4984 52.8959L59.4711 53.2248L62.2685 36.4446L60.2958 36.1157ZM57.4983 52.8963C57.2031 54.6708 55.6664 55.9732 53.8648 55.9732V57.9732C56.6436 57.9732 59.0154 55.9644 59.4712 53.2245L57.4983 52.8963ZM53.8648 55.9732H41.5754V57.9732H53.8648V55.9732ZM41.5754 55.9732C40.385 55.9732 39.2207 55.6209 38.2297 54.9615L37.1217 56.6266C38.4407 57.5042 39.9904 57.9732 41.5754 57.9732V55.9732ZM38.2304 54.962L34.6075 52.5467L33.4981 54.2108L37.121 56.6261L38.2304 54.962ZM35.0528 53.3788V38.2369H33.0528V53.3788H35.0528ZM35.2521 36.4962C35.0267 36.9494 34.5623 37.2369 34.0528 37.2369L34.0529 39.2369C35.3175 39.2369 36.4778 38.5231 37.0429 37.3867L35.2521 36.4962ZM42.9822 21.0405L35.2531 36.4941L37.0419 37.3887L44.7709 21.9351L42.9822 21.0405ZM46.4814 19.593C45.1159 19.1367 43.6238 19.7539 42.9816 21.0415L44.7714 21.9341C44.9681 21.5398 45.4258 21.349 45.8476 21.4899L46.4814 19.593ZM48.399 22.9C48.6841 21.471 47.8623 20.0533 46.4808 19.5928L45.8483 21.4901C46.2716 21.6313 46.5258 22.0668 46.4376 22.5086L48.399 22.9ZM46.7894 30.9476L48.3989 22.9004L46.4377 22.5082L44.8282 30.5554L46.7894 30.9476ZM46.9252 31.8481C46.7808 31.5816 46.7257 31.2673 46.7895 30.947L44.8281 30.556C44.6696 31.3509 44.8082 32.1391 45.1667 32.8009L46.9252 31.8481ZM45.1665 32.8005C45.2466 32.9483 45.3373 33.0893 45.4377 33.2225L47.0345 32.0182C46.994 31.9645 46.9575 31.9078 46.9254 31.8485L45.1665 32.8005ZM30.3691 35.894C30.3691 35.8887 30.3692 35.8834 30.3692 35.8781L28.3694 35.855C28.3692 35.868 28.3691 35.8811 28.3691 35.894H30.3691ZM30.3691 35.8942V35.894H28.3691V35.8942H30.3691ZM30.3691 54.6328V35.8942H28.3691V54.6328H30.3691ZM30.3693 54.6542L30.3691 54.6269L28.3692 54.6386L28.3693 54.6658L30.3693 54.6542ZM30.3693 56.9728V54.66H28.3693V56.9728H30.3693ZM24.6858 57.9728H29.3693V55.9728H24.6858V57.9728ZM23.6858 33.5529V56.9728H25.6858V33.5529H23.6858ZM29.3693 32.5529H24.6858V34.5529H29.3693V32.5529ZM30.3693 35.8665V33.5529H28.3693V35.8665H30.3693Z" fill="#603F87" mask="url(#path-2-inside-1_1494_36)"/>
</svg>
