<svg width="85" height="85" viewBox="0 0 85 85" fill="none" xmlns="http://www.w3.org/2000/svg">
<rect width="85" height="85" rx="20" fill="#603F87"/>
<path d="M55.3479 66.997H29.3555C26.9587 66.98 25.0192 65.0405 25 62.6416V44.299C25.0043 41.8809 26.9651 39.9201 29.3831 39.918H55.3478C57.7553 39.935 59.6991 41.8915 59.7033 44.299V62.6416C59.6842 65.0405 57.7447 66.9801 55.3479 66.997ZM29.3555 43.1992C28.7557 43.1992 28.2666 43.6862 28.2666 44.2881V62.6416C28.2666 62.9308 28.3815 63.2073 28.5856 63.4115C28.7898 63.6156 29.0663 63.7305 29.3555 63.7305H55.3479C55.6372 63.7305 55.9137 63.6156 56.1178 63.4115C56.322 63.2073 56.4368 62.9308 56.4368 62.6416V44.299C56.4368 44.0119 56.322 43.7333 56.1178 43.5291C55.9137 43.3249 55.6372 43.2101 55.3479 43.2101L29.3555 43.1992Z" fill="#FF82EB"/>
<path d="M56.1412 38.2641H51.7857V31.7903C51.7857 28.4301 49.9929 25.3251 47.0836 23.6428C44.1721 21.9627 40.5863 21.9627 37.6752 23.6428C34.7637 25.325 32.971 28.43 32.971 31.7903V38.2641H28.6155V31.7903C28.6155 26.8648 31.2441 22.3116 35.5102 19.8486C39.7785 17.3838 45.0357 17.3838 49.3019 19.8486C53.568 22.3113 56.1966 26.8648 56.1966 31.7903L56.1412 38.2641Z" fill="#FF82EB"/>
<path d="M46.4626 51.0262C46.4626 49.5482 45.6694 48.1828 44.3827 47.4513C43.0961 46.7197 41.5181 46.7367 40.2463 47.4938C38.9766 48.2509 38.211 49.6333 38.2429 51.1113C38.2727 52.5893 39.0957 53.9377 40.3972 54.6416V58.3591H44.3061V54.6416C45.6332 53.9228 46.4605 52.5362 46.4626 51.0262Z" fill="#FF82EB"/>
</svg>
