<svg width="85" height="85" viewBox="0 0 85 85" fill="none" xmlns="http://www.w3.org/2000/svg">
<rect width="85" height="85" rx="20" fill="#603F87"/>
<path d="M34.4139 34.75C34.4139 33.2172 34.8585 31.7188 35.6915 30.4443C36.5245 29.1698 37.7084 28.1765 39.0936 27.5899C40.4788 27.0034 42.003 26.8499 43.4735 27.1489C44.9441 27.448 46.2948 28.1861 47.355 29.2699C48.4152 30.3538 49.1372 31.7347 49.4297 33.238C49.7222 34.7414 49.5721 36.2996 48.9983 37.7158C48.4245 39.1319 47.4529 40.3423 46.2062 41.1938C44.9596 42.0454 43.4939 42.4999 41.9946 42.4999C39.9841 42.4999 38.0559 41.6834 36.6342 40.23C35.2126 38.7766 34.4139 36.8054 34.4139 34.75ZM54.9035 54.136C53.5065 48.5892 48.2 44.7142 41.9946 44.7142C35.7893 44.7142 30.4828 48.5892 29.0857 54.136C28.9787 54.578 28.9718 55.0392 29.0656 55.4843C29.1595 55.9295 29.3516 56.3468 29.6272 56.7045C29.942 57.1065 30.3407 57.4314 30.7942 57.6555C31.2476 57.8797 31.7443 57.9973 32.248 57.9999H51.7413C52.2522 58.004 52.7574 57.8895 53.2189 57.6652C53.6803 57.4408 54.086 57.1123 54.4053 56.7045C54.6736 56.3431 54.8579 55.924 54.9442 55.479C55.0305 55.034 55.0166 54.5747 54.9035 54.136Z" stroke="#FF82EB" stroke-width="3"/>
<path d="M29.5 16H19C16.7909 16 15 17.7909 15 20V30.5" stroke="#FF82EB" stroke-width="3" stroke-linecap="round"/>
<path d="M69 30.5L69 20C69 17.7909 67.2091 16 65 16L54.5 16" stroke="#FF82EB" stroke-width="3" stroke-linecap="round"/>
<path d="M15 54.5L15 65C15 67.2091 16.7909 69 19 69L29.5 69" stroke="#FF82EB" stroke-width="3" stroke-linecap="round"/>
<path d="M54.5 69L65 69C67.2091 69 69 67.2091 69 65L69 54.5" stroke="#FF82EB" stroke-width="3" stroke-linecap="round"/>
</svg>
