<svg width="265" height="350" viewBox="0 0 265 350" fill="none" xmlns="http://www.w3.org/2000/svg">
<rect x="0.721154" y="1.02779" width="263.558" height="347.558" rx="12.2596" fill="white" stroke="#FF9901" stroke-width="1.44231"/>
<g filter="url(#filter0_d_3240_184)">
<mask id="path-2-inside-1_3240_184" fill="white">
<path d="M105.318 53.7776C103.241 49.043 105.371 43.4577 110.32 41.9619C124.983 37.5298 140.721 37.6861 155.409 42.5366C173.071 48.369 187.964 60.5762 197.218 76.8055C206.472 93.0349 209.432 112.138 205.528 130.433C201.624 148.729 191.132 164.922 176.074 175.892C161.016 186.862 142.457 191.833 123.975 189.847C105.492 187.861 88.3935 179.058 75.9739 165.135C63.5543 151.212 56.6926 133.154 56.7111 114.441C56.7264 98.8968 61.4881 83.8146 70.2344 71.187C73.1947 66.913 79.2084 66.6323 83.0578 70.1268C86.871 73.5884 87.0983 79.4466 84.3329 83.7912C78.5404 92.8912 75.404 103.524 75.3932 114.46C75.3793 128.527 80.5374 142.102 89.8735 152.568C99.2096 163.035 112.063 169.652 125.957 171.145C139.851 172.638 153.801 168.901 165.121 160.655C176.44 152.408 184.328 140.235 187.262 126.482C190.197 112.729 187.972 98.3688 181.016 86.1688C174.059 73.9688 162.864 64.7924 149.587 60.408C139.318 57.0169 128.366 56.678 118.017 59.3274C112.973 60.6185 107.409 58.5454 105.318 53.7776Z"/>
</mask>
<path d="M105.318 53.7776C103.241 49.043 105.371 43.4577 110.32 41.9619C124.983 37.5298 140.721 37.6861 155.409 42.5366C173.071 48.369 187.964 60.5762 197.218 76.8055C206.472 93.0349 209.432 112.138 205.528 130.433C201.624 148.729 191.132 164.922 176.074 175.892C161.016 186.862 142.457 191.833 123.975 189.847C105.492 187.861 88.3935 179.058 75.9739 165.135C63.5543 151.212 56.6926 133.154 56.7111 114.441C56.7264 98.8968 61.4881 83.8146 70.2344 71.187C73.1947 66.913 79.2084 66.6323 83.0578 70.1268C86.871 73.5884 87.0983 79.4466 84.3329 83.7912C78.5404 92.8912 75.404 103.524 75.3932 114.46C75.3793 128.527 80.5374 142.102 89.8735 152.568C99.2096 163.035 112.063 169.652 125.957 171.145C139.851 172.638 153.801 168.901 165.121 160.655C176.44 152.408 184.328 140.235 187.262 126.482C190.197 112.729 187.972 98.3688 181.016 86.1688C174.059 73.9688 162.864 64.7924 149.587 60.408C139.318 57.0169 128.366 56.678 118.017 59.3274C112.973 60.6185 107.409 58.5454 105.318 53.7776Z" fill="#FFC164"/>
<path d="M105.318 53.7776C103.241 49.043 105.371 43.4577 110.32 41.9619C124.983 37.5298 140.721 37.6861 155.409 42.5366C173.071 48.369 187.964 60.5762 197.218 76.8055C206.472 93.0349 209.432 112.138 205.528 130.433C201.624 148.729 191.132 164.922 176.074 175.892C161.016 186.862 142.457 191.833 123.975 189.847C105.492 187.861 88.3935 179.058 75.9739 165.135C63.5543 151.212 56.6926 133.154 56.7111 114.441C56.7264 98.8968 61.4881 83.8146 70.2344 71.187C73.1947 66.913 79.2084 66.6323 83.0578 70.1268C86.871 73.5884 87.0983 79.4466 84.3329 83.7912C78.5404 92.8912 75.404 103.524 75.3932 114.46C75.3793 128.527 80.5374 142.102 89.8735 152.568C99.2096 163.035 112.063 169.652 125.957 171.145C139.851 172.638 153.801 168.901 165.121 160.655C176.44 152.408 184.328 140.235 187.262 126.482C190.197 112.729 187.972 98.3688 181.016 86.1688C174.059 73.9688 162.864 64.7924 149.587 60.408C139.318 57.0169 128.366 56.678 118.017 59.3274C112.973 60.6185 107.409 58.5454 105.318 53.7776Z" stroke="white" stroke-width="8.65385" mask="url(#path-2-inside-1_3240_184)"/>
</g>
<path d="M63.3368 220.538H66.0928L73.2688 238.998H70.2008L68.2508 233.98H61.1268L59.2028 238.998H56.1088L63.3368 220.538ZM67.6788 231.822L64.7148 223.736L61.6468 231.822H67.6788ZM75.1883 220.018H78.0483V235.072C78.0483 235.765 78.1523 236.207 78.3603 236.398C78.5683 236.589 78.8283 236.684 79.1403 236.684C79.487 236.684 79.8076 236.649 80.1023 236.58C80.4143 236.511 80.683 236.424 80.9083 236.32L81.3243 238.582C80.9083 238.755 80.4143 238.903 79.8423 239.024C79.2703 239.145 78.759 239.206 78.3083 239.206C77.3376 239.206 76.575 238.937 76.0203 238.4C75.4656 237.845 75.1883 237.083 75.1883 236.112V220.018ZM82.9826 238.998V225.4H85.8426V238.998H82.9826ZM82.9826 223.164V220.018H85.8426V223.164H82.9826ZM94.6615 239.128C93.7428 239.128 92.9021 238.946 92.1395 238.582C91.3768 238.201 90.7181 237.689 90.1635 237.048C89.6261 236.407 89.2015 235.67 88.8895 234.838C88.5948 234.006 88.4475 233.131 88.4475 232.212C88.4475 231.241 88.6035 230.331 88.9155 229.482C89.2275 228.633 89.6608 227.887 90.2155 227.246C90.7875 226.587 91.4548 226.076 92.2175 225.712C92.9801 225.348 93.8295 225.166 94.7655 225.166C95.8575 225.166 96.8108 225.426 97.6255 225.946C98.4575 226.466 99.1421 227.142 99.6795 227.974V225.4H102.201V238.608C102.201 239.925 101.881 241.043 101.239 241.962C100.615 242.881 99.7575 243.583 98.6655 244.068C97.5735 244.553 96.3428 244.796 94.9735 244.796C93.4655 244.796 92.2175 244.536 91.2295 244.016C90.2415 243.496 89.4008 242.785 88.7075 241.884L90.3195 240.376C90.8395 241.104 91.5068 241.659 92.3215 242.04C93.1535 242.421 94.0375 242.612 94.9735 242.612C95.7535 242.612 96.4728 242.465 97.1315 242.17C97.8075 241.893 98.3448 241.451 98.7435 240.844C99.1421 240.255 99.3415 239.509 99.3415 238.608V236.528C98.8561 237.343 98.1888 237.984 97.3395 238.452C96.4901 238.903 95.5975 239.128 94.6615 239.128ZM95.5975 236.814C96.0308 236.814 96.4468 236.745 96.8455 236.606C97.2441 236.45 97.6081 236.251 97.9375 236.008C98.2841 235.748 98.5788 235.462 98.8215 235.15C99.0641 234.821 99.2375 234.474 99.3415 234.11V230.548C99.1161 229.959 98.7955 229.447 98.3795 229.014C97.9635 228.563 97.4955 228.217 96.9755 227.974C96.4555 227.731 95.9268 227.61 95.3895 227.61C94.7655 227.61 94.2021 227.749 93.6995 228.026C93.2141 228.286 92.7981 228.641 92.4515 229.092C92.1048 229.525 91.8361 230.019 91.6455 230.574C91.4548 231.129 91.3595 231.701 91.3595 232.29C91.3595 232.914 91.4635 233.495 91.6715 234.032C91.8968 234.569 92.2001 235.055 92.5815 235.488C92.9628 235.904 93.4135 236.233 93.9335 236.476C94.4535 236.701 95.0081 236.814 95.5975 236.814ZM117.825 238.998H114.965V231.38C114.965 230.115 114.757 229.187 114.341 228.598C113.942 228.009 113.344 227.714 112.547 227.714C111.992 227.714 111.438 227.853 110.883 228.13C110.346 228.407 109.86 228.789 109.427 229.274C108.994 229.742 108.682 230.288 108.491 230.912V238.998H105.631V225.4H108.231V228.13C108.578 227.523 109.028 227.003 109.583 226.57C110.155 226.119 110.796 225.773 111.507 225.53C112.218 225.287 112.972 225.166 113.769 225.166C114.584 225.166 115.251 225.313 115.771 225.608C116.308 225.903 116.724 226.31 117.019 226.83C117.331 227.333 117.539 227.922 117.643 228.598C117.764 229.257 117.825 229.959 117.825 230.704V238.998ZM127.307 239.258C126.249 239.258 125.287 239.076 124.421 238.712C123.571 238.331 122.835 237.819 122.211 237.178C121.587 236.519 121.101 235.774 120.755 234.942C120.425 234.093 120.261 233.191 120.261 232.238C120.261 230.955 120.555 229.785 121.145 228.728C121.734 227.653 122.557 226.795 123.615 226.154C124.672 225.495 125.911 225.166 127.333 225.166C128.754 225.166 129.976 225.495 130.999 226.154C132.039 226.795 132.845 227.645 133.417 228.702C133.989 229.759 134.275 230.895 134.275 232.108C134.275 232.316 134.266 232.515 134.249 232.706C134.231 232.879 134.214 233.027 134.197 233.148H123.303C123.355 233.945 123.571 234.647 123.953 235.254C124.351 235.843 124.854 236.311 125.461 236.658C126.067 236.987 126.717 237.152 127.411 237.152C128.173 237.152 128.893 236.961 129.569 236.58C130.262 236.199 130.73 235.696 130.973 235.072L133.417 235.774C133.122 236.433 132.671 237.031 132.065 237.568C131.475 238.088 130.773 238.504 129.959 238.816C129.144 239.111 128.26 239.258 127.307 239.258ZM123.225 231.25H131.441C131.389 230.47 131.163 229.785 130.765 229.196C130.383 228.589 129.889 228.121 129.283 227.792C128.693 227.445 128.035 227.272 127.307 227.272C126.596 227.272 125.937 227.445 125.331 227.792C124.741 228.121 124.256 228.589 123.875 229.196C123.493 229.785 123.277 230.47 123.225 231.25ZM135.75 232.212C135.75 230.912 136.01 229.733 136.53 228.676C137.067 227.601 137.795 226.752 138.714 226.128C139.632 225.487 140.69 225.166 141.886 225.166C142.926 225.166 143.862 225.435 144.694 225.972C145.543 226.509 146.202 227.177 146.67 227.974V220.018H149.53V235.774C149.53 236.103 149.59 236.337 149.712 236.476C149.833 236.615 150.032 236.693 150.31 236.71V238.998C149.772 239.085 149.356 239.128 149.062 239.128C148.524 239.128 148.065 238.972 147.684 238.66C147.32 238.348 147.129 237.975 147.112 237.542L147.086 236.528C146.566 237.395 145.864 238.071 144.98 238.556C144.096 239.024 143.177 239.258 142.224 239.258C141.288 239.258 140.421 239.076 139.624 238.712C138.844 238.348 138.159 237.837 137.57 237.178C136.998 236.519 136.547 235.765 136.218 234.916C135.906 234.067 135.75 233.165 135.75 232.212ZM146.67 234.11V230.548C146.479 229.993 146.167 229.499 145.734 229.066C145.318 228.615 144.841 228.26 144.304 228C143.784 227.74 143.264 227.61 142.744 227.61C142.137 227.61 141.582 227.74 141.08 228C140.594 228.26 140.17 228.607 139.806 229.04C139.459 229.473 139.19 229.967 139 230.522C138.809 231.077 138.714 231.657 138.714 232.264C138.714 232.888 138.818 233.477 139.026 234.032C139.234 234.569 139.528 235.055 139.91 235.488C140.308 235.904 140.759 236.233 141.262 236.476C141.782 236.701 142.345 236.814 142.952 236.814C143.333 236.814 143.714 236.745 144.096 236.606C144.494 236.467 144.867 236.277 145.214 236.034C145.578 235.791 145.881 235.505 146.124 235.176C146.384 234.847 146.566 234.491 146.67 234.11ZM175.802 225.4H178.532L172.812 238.998H170.368L167.924 232.862L165.48 238.998H163.036L157.29 225.4H160.02L164.388 236.216L166.312 231.198L163.972 225.426H166.39L167.924 229.664L169.432 225.426H171.85L169.536 231.198L171.46 236.216L175.802 225.4ZM180.432 238.998V225.4H183.292V238.998H180.432ZM180.432 223.164V220.018H183.292V223.164H180.432ZM194.295 238.296C194.052 238.417 193.749 238.547 193.385 238.686C193.021 238.825 192.605 238.946 192.137 239.05C191.686 239.154 191.218 239.206 190.733 239.206C190.143 239.206 189.597 239.102 189.095 238.894C188.592 238.686 188.185 238.357 187.873 237.906C187.578 237.438 187.431 236.84 187.431 236.112V227.61H185.637V225.4H187.431V220.928H190.291V225.4H193.255V227.61H190.291V235.202C190.325 235.67 190.473 236.017 190.733 236.242C191.01 236.467 191.348 236.58 191.747 236.58C192.145 236.58 192.527 236.511 192.891 236.372C193.255 236.233 193.523 236.121 193.697 236.034L194.295 238.296ZM208.47 238.998H205.61V231.38C205.61 230.149 205.384 229.231 204.934 228.624C204.483 228.017 203.85 227.714 203.036 227.714C202.533 227.714 202.013 227.853 201.476 228.13C200.938 228.407 200.462 228.789 200.046 229.274C199.63 229.742 199.326 230.288 199.136 230.912V238.998H196.276V220.018H199.136V228.13C199.656 227.211 200.366 226.492 201.268 225.972C202.169 225.435 203.14 225.166 204.18 225.166C205.029 225.166 205.731 225.313 206.286 225.608C206.84 225.903 207.274 226.31 207.586 226.83C207.915 227.333 208.14 227.922 208.262 228.598C208.4 229.257 208.47 229.959 208.47 230.704V238.998ZM41.3315 271.02C41.3315 270.153 41.5742 269.399 42.0595 268.758C42.5622 268.099 43.2468 267.597 44.1135 267.25C44.9802 266.886 45.9855 266.704 47.1295 266.704C47.7362 266.704 48.3515 266.747 48.9755 266.834C49.6168 266.921 50.1802 267.059 50.6655 267.25V266.392C50.6655 265.439 50.3795 264.693 49.8075 264.156C49.2355 263.619 48.4122 263.35 47.3375 263.35C46.5748 263.35 45.8555 263.489 45.1795 263.766C44.5035 264.026 43.7842 264.399 43.0215 264.884L42.0595 262.96C42.9608 262.353 43.8622 261.903 44.7635 261.608C45.6822 261.313 46.6442 261.166 47.6495 261.166C49.4695 261.166 50.8995 261.651 51.9395 262.622C52.9968 263.575 53.5255 264.936 53.5255 266.704V271.774C53.5255 272.103 53.5775 272.337 53.6815 272.476C53.8029 272.615 54.0022 272.693 54.2795 272.71V274.998C54.0195 275.05 53.7855 275.085 53.5775 275.102C53.3695 275.119 53.1962 275.128 53.0575 275.128C52.4508 275.128 51.9915 274.981 51.6795 274.686C51.3675 274.391 51.1855 274.045 51.1335 273.646L51.0555 272.866C50.4662 273.629 49.7122 274.218 48.7935 274.634C47.8748 275.05 46.9475 275.258 46.0115 275.258C45.1102 275.258 44.3042 275.076 43.5935 274.712C42.8828 274.331 42.3282 273.819 41.9295 273.178C41.5308 272.537 41.3315 271.817 41.3315 271.02ZM49.9895 271.852C50.1975 271.627 50.3622 271.401 50.4835 271.176C50.6048 270.951 50.6655 270.751 50.6655 270.578V269.018C50.1802 268.827 49.6688 268.689 49.1315 268.602C48.5942 268.498 48.0655 268.446 47.5455 268.446C46.5055 268.446 45.6562 268.654 44.9975 269.07C44.3562 269.486 44.0355 270.058 44.0355 270.786C44.0355 271.185 44.1395 271.566 44.3475 271.93C44.5728 272.294 44.8848 272.589 45.2835 272.814C45.6995 273.039 46.2108 273.152 46.8175 273.152C47.4415 273.152 48.0395 273.031 48.6115 272.788C49.1835 272.545 49.6428 272.233 49.9895 271.852ZM69.1893 274.998H66.3293V267.38C66.3293 266.115 66.1213 265.187 65.7053 264.598C65.3066 264.009 64.7086 263.714 63.9113 263.714C63.3566 263.714 62.802 263.853 62.2473 264.13C61.71 264.407 61.2246 264.789 60.7913 265.274C60.358 265.742 60.046 266.288 59.8553 266.912V274.998H56.9953V261.4H59.5953V264.13C59.942 263.523 60.3926 263.003 60.9473 262.57C61.5193 262.119 62.1606 261.773 62.8713 261.53C63.582 261.287 64.336 261.166 65.1333 261.166C65.948 261.166 66.6153 261.313 67.1353 261.608C67.6726 261.903 68.0886 262.31 68.3833 262.83C68.6953 263.333 68.9033 263.922 69.0073 264.598C69.1286 265.257 69.1893 265.959 69.1893 266.704V274.998ZM71.651 268.212C71.651 266.912 71.911 265.733 72.431 264.676C72.9683 263.601 73.6963 262.752 74.615 262.128C75.5336 261.487 76.591 261.166 77.787 261.166C78.827 261.166 79.763 261.435 80.595 261.972C81.4443 262.509 82.103 263.177 82.571 263.974V256.018H85.431V271.774C85.431 272.103 85.4916 272.337 85.613 272.476C85.7343 272.615 85.9336 272.693 86.211 272.71V274.998C85.6736 275.085 85.2576 275.128 84.963 275.128C84.4256 275.128 83.9663 274.972 83.585 274.66C83.221 274.348 83.0303 273.975 83.013 273.542L82.987 272.528C82.467 273.395 81.765 274.071 80.881 274.556C79.997 275.024 79.0783 275.258 78.125 275.258C77.189 275.258 76.3223 275.076 75.525 274.712C74.745 274.348 74.0603 273.837 73.471 273.178C72.899 272.519 72.4483 271.765 72.119 270.916C71.807 270.067 71.651 269.165 71.651 268.212ZM82.571 270.11V266.548C82.3803 265.993 82.0683 265.499 81.635 265.066C81.219 264.615 80.7423 264.26 80.205 264C79.685 263.74 79.165 263.61 78.645 263.61C78.0383 263.61 77.4836 263.74 76.981 264C76.4956 264.26 76.071 264.607 75.707 265.04C75.3603 265.473 75.0916 265.967 74.901 266.522C74.7103 267.077 74.615 267.657 74.615 268.264C74.615 268.888 74.719 269.477 74.927 270.032C75.135 270.569 75.4296 271.055 75.811 271.488C76.2096 271.904 76.6603 272.233 77.163 272.476C77.683 272.701 78.2463 272.814 78.853 272.814C79.2343 272.814 79.6156 272.745 79.997 272.606C80.3956 272.467 80.7683 272.277 81.115 272.034C81.479 271.791 81.7823 271.505 82.025 271.176C82.285 270.847 82.467 270.491 82.571 270.11ZM100.323 275.258C99.1795 275.258 98.0962 275.076 97.0735 274.712C96.0508 274.331 95.1755 273.767 94.4475 273.022L95.5135 271.098C96.2935 271.791 97.0735 272.294 97.8535 272.606C98.6508 272.918 99.4395 273.074 100.219 273.074C101.017 273.074 101.667 272.927 102.169 272.632C102.672 272.32 102.923 271.869 102.923 271.28C102.923 270.847 102.793 270.526 102.533 270.318C102.273 270.11 101.892 269.928 101.389 269.772C100.904 269.616 100.315 269.443 99.6215 269.252C98.6508 268.957 97.8362 268.654 97.1775 268.342C96.5188 268.013 96.0248 267.614 95.6955 267.146C95.3662 266.678 95.2015 266.08 95.2015 265.352C95.2015 264.468 95.4268 263.714 95.8775 263.09C96.3282 262.466 96.9522 261.989 97.7495 261.66C98.5642 261.331 99.5002 261.166 100.557 261.166C101.545 261.166 102.455 261.322 103.287 261.634C104.137 261.929 104.882 262.397 105.523 263.038L104.301 264.936C103.695 264.381 103.071 263.974 102.429 263.714C101.805 263.454 101.129 263.324 100.401 263.324C99.9855 263.324 99.5868 263.376 99.2055 263.48C98.8242 263.567 98.5035 263.74 98.2435 264C98.0008 264.243 97.8795 264.589 97.8795 265.04C97.8795 265.404 97.9835 265.699 98.1915 265.924C98.3995 266.149 98.7115 266.34 99.1275 266.496C99.5435 266.652 100.055 266.825 100.661 267.016C101.719 267.328 102.62 267.64 103.365 267.952C104.111 268.247 104.683 268.637 105.081 269.122C105.497 269.59 105.705 270.24 105.705 271.072C105.705 272.389 105.211 273.421 104.223 274.166C103.253 274.894 101.953 275.258 100.323 275.258ZM108.129 269.72V261.4H110.989V269.148C110.989 270.361 111.206 271.28 111.639 271.904C112.09 272.511 112.74 272.814 113.589 272.814C114.126 272.814 114.646 272.701 115.149 272.476C115.669 272.251 116.137 271.921 116.553 271.488C116.986 271.037 117.333 270.5 117.593 269.876V261.4H120.453V271.774C120.453 272.103 120.514 272.337 120.635 272.476C120.756 272.615 120.956 272.693 121.233 272.71V274.998C120.938 275.05 120.696 275.085 120.505 275.102C120.314 275.119 120.132 275.128 119.959 275.128C119.439 275.128 119.006 274.989 118.659 274.712C118.312 274.417 118.113 274.045 118.061 273.594L118.009 272.242C117.402 273.23 116.614 273.984 115.643 274.504C114.672 275.007 113.606 275.258 112.445 275.258C111.024 275.258 109.949 274.79 109.221 273.854C108.493 272.918 108.129 271.54 108.129 269.72ZM131.825 275.258C130.733 275.258 129.771 274.998 128.939 274.478C128.107 273.958 127.448 273.282 126.963 272.45V280.536H124.103V261.4H126.625V263.844C127.145 263.029 127.821 262.379 128.653 261.894C129.485 261.409 130.412 261.166 131.435 261.166C132.371 261.166 133.229 261.357 134.009 261.738C134.789 262.102 135.465 262.613 136.037 263.272C136.609 263.931 137.051 264.685 137.363 265.534C137.692 266.366 137.857 267.25 137.857 268.186C137.857 269.486 137.597 270.673 137.077 271.748C136.574 272.823 135.863 273.681 134.945 274.322C134.043 274.946 133.003 275.258 131.825 275.258ZM130.889 272.814C131.495 272.814 132.041 272.684 132.527 272.424C133.029 272.164 133.454 271.817 133.801 271.384C134.165 270.951 134.442 270.457 134.633 269.902C134.823 269.347 134.919 268.775 134.919 268.186C134.919 267.562 134.815 266.973 134.607 266.418C134.399 265.863 134.095 265.378 133.697 264.962C133.315 264.546 132.865 264.217 132.345 263.974C131.842 263.731 131.287 263.61 130.681 263.61C130.317 263.61 129.935 263.679 129.537 263.818C129.138 263.957 128.765 264.147 128.419 264.39C128.072 264.633 127.769 264.919 127.509 265.248C127.249 265.577 127.067 265.924 126.963 266.288V269.85C127.205 270.405 127.526 270.907 127.925 271.358C128.323 271.791 128.783 272.147 129.303 272.424C129.823 272.684 130.351 272.814 130.889 272.814ZM148.151 275.258C147.059 275.258 146.097 274.998 145.265 274.478C144.433 273.958 143.774 273.282 143.289 272.45V280.536H140.429V261.4H142.951V263.844C143.471 263.029 144.147 262.379 144.979 261.894C145.811 261.409 146.738 261.166 147.761 261.166C148.697 261.166 149.555 261.357 150.335 261.738C151.115 262.102 151.791 262.613 152.363 263.272C152.935 263.931 153.377 264.685 153.689 265.534C154.018 266.366 154.183 267.25 154.183 268.186C154.183 269.486 153.923 270.673 153.403 271.748C152.9 272.823 152.19 273.681 151.271 274.322C150.37 274.946 149.33 275.258 148.151 275.258ZM147.215 272.814C147.822 272.814 148.368 272.684 148.853 272.424C149.356 272.164 149.78 271.817 150.127 271.384C150.491 270.951 150.768 270.457 150.959 269.902C151.15 269.347 151.245 268.775 151.245 268.186C151.245 267.562 151.141 266.973 150.933 266.418C150.725 265.863 150.422 265.378 150.023 264.962C149.642 264.546 149.191 264.217 148.671 263.974C148.168 263.731 147.614 263.61 147.007 263.61C146.643 263.61 146.262 263.679 145.863 263.818C145.464 263.957 145.092 264.147 144.745 264.39C144.398 264.633 144.095 264.919 143.835 265.248C143.575 265.577 143.393 265.924 143.289 266.288V269.85C143.532 270.405 143.852 270.907 144.251 271.358C144.65 271.791 145.109 272.147 145.629 272.424C146.149 272.684 146.678 272.814 147.215 272.814ZM162.865 275.258C161.79 275.258 160.828 275.076 159.979 274.712C159.13 274.331 158.393 273.811 157.769 273.152C157.162 272.493 156.694 271.748 156.365 270.916C156.036 270.067 155.871 269.165 155.871 268.212C155.871 267.259 156.036 266.357 156.365 265.508C156.694 264.659 157.162 263.913 157.769 263.272C158.393 262.613 159.13 262.102 159.979 261.738C160.846 261.357 161.808 261.166 162.865 261.166C163.922 261.166 164.876 261.357 165.725 261.738C166.592 262.102 167.328 262.613 167.935 263.272C168.559 263.913 169.036 264.659 169.365 265.508C169.694 266.357 169.859 267.259 169.859 268.212C169.859 269.165 169.694 270.067 169.365 270.916C169.036 271.748 168.559 272.493 167.935 273.152C167.328 273.811 166.592 274.331 165.725 274.712C164.876 275.076 163.922 275.258 162.865 275.258ZM158.809 268.238C158.809 269.105 158.991 269.885 159.355 270.578C159.719 271.271 160.204 271.817 160.811 272.216C161.418 272.615 162.102 272.814 162.865 272.814C163.61 272.814 164.286 272.615 164.893 272.216C165.517 271.8 166.011 271.245 166.375 270.552C166.739 269.841 166.921 269.061 166.921 268.212C166.921 267.345 166.739 266.565 166.375 265.872C166.011 265.179 165.517 264.633 164.893 264.234C164.286 263.818 163.61 263.61 162.865 263.61C162.102 263.61 161.418 263.818 160.811 264.234C160.204 264.65 159.719 265.205 159.355 265.898C158.991 266.574 158.809 267.354 158.809 268.238ZM180.04 263.87C178.93 263.887 177.942 264.139 177.076 264.624C176.226 265.109 175.62 265.794 175.256 266.678V274.998H172.396V261.4H175.048V264.442C175.516 263.506 176.131 262.761 176.894 262.206C177.656 261.634 178.462 261.322 179.312 261.27C179.485 261.27 179.624 261.27 179.728 261.27C179.849 261.27 179.953 261.279 180.04 261.296V263.87ZM189.686 274.296C189.444 274.417 189.14 274.547 188.776 274.686C188.412 274.825 187.996 274.946 187.528 275.05C187.078 275.154 186.61 275.206 186.124 275.206C185.535 275.206 184.989 275.102 184.486 274.894C183.984 274.686 183.576 274.357 183.264 273.906C182.97 273.438 182.822 272.84 182.822 272.112V263.61H181.028V261.4H182.822V256.928H185.682V261.4H188.646V263.61H185.682V271.202C185.717 271.67 185.864 272.017 186.124 272.242C186.402 272.467 186.74 272.58 187.138 272.58C187.537 272.58 187.918 272.511 188.282 272.372C188.646 272.233 188.915 272.121 189.088 272.034L189.686 274.296ZM191.667 274.998V261.4H194.527V274.998H191.667ZM191.667 259.164V256.018H194.527V259.164H191.667ZM201.76 274.998L196.586 261.4H199.55L203.424 272.346L207.298 261.4H210.054L204.88 274.998H201.76ZM217.812 275.258C216.754 275.258 215.792 275.076 214.926 274.712C214.076 274.331 213.34 273.819 212.716 273.178C212.092 272.519 211.606 271.774 211.26 270.942C210.93 270.093 210.766 269.191 210.766 268.238C210.766 266.955 211.06 265.785 211.65 264.728C212.239 263.653 213.062 262.795 214.12 262.154C215.177 261.495 216.416 261.166 217.838 261.166C219.259 261.166 220.481 261.495 221.504 262.154C222.544 262.795 223.35 263.645 223.922 264.702C224.494 265.759 224.78 266.895 224.78 268.108C224.78 268.316 224.771 268.515 224.754 268.706C224.736 268.879 224.719 269.027 224.702 269.148H213.808C213.86 269.945 214.076 270.647 214.458 271.254C214.856 271.843 215.359 272.311 215.966 272.658C216.572 272.987 217.222 273.152 217.916 273.152C218.678 273.152 219.398 272.961 220.074 272.58C220.767 272.199 221.235 271.696 221.478 271.072L223.922 271.774C223.627 272.433 223.176 273.031 222.57 273.568C221.98 274.088 221.278 274.504 220.464 274.816C219.649 275.111 218.765 275.258 217.812 275.258ZM213.73 267.25H221.946C221.894 266.47 221.668 265.785 221.27 265.196C220.888 264.589 220.394 264.121 219.788 263.792C219.198 263.445 218.54 263.272 217.812 263.272C217.101 263.272 216.442 263.445 215.836 263.792C215.246 264.121 214.761 264.589 214.38 265.196C213.998 265.785 213.782 266.47 213.73 267.25ZM57.824 311.258C56.7494 311.258 55.7874 311.076 54.938 310.712C54.0887 310.331 53.352 309.811 52.728 309.152C52.1214 308.493 51.6534 307.748 51.324 306.916C50.9947 306.067 50.83 305.165 50.83 304.212C50.83 303.259 50.9947 302.357 51.324 301.508C51.6534 300.659 52.1214 299.913 52.728 299.272C53.352 298.613 54.0887 298.102 54.938 297.738C55.8047 297.357 56.7667 297.166 57.824 297.166C58.8814 297.166 59.8347 297.357 60.684 297.738C61.5507 298.102 62.2874 298.613 62.894 299.272C63.518 299.913 63.9947 300.659 64.324 301.508C64.6534 302.357 64.818 303.259 64.818 304.212C64.818 305.165 64.6534 306.067 64.324 306.916C63.9947 307.748 63.518 308.493 62.894 309.152C62.2874 309.811 61.5507 310.331 60.684 310.712C59.8347 311.076 58.8814 311.258 57.824 311.258ZM53.768 304.238C53.768 305.105 53.95 305.885 54.314 306.578C54.678 307.271 55.1634 307.817 55.77 308.216C56.3767 308.615 57.0614 308.814 57.824 308.814C58.5694 308.814 59.2454 308.615 59.852 308.216C60.476 307.8 60.97 307.245 61.334 306.552C61.698 305.841 61.88 305.061 61.88 304.212C61.88 303.345 61.698 302.565 61.334 301.872C60.97 301.179 60.476 300.633 59.852 300.234C59.2454 299.818 58.5694 299.61 57.824 299.61C57.0614 299.61 56.3767 299.818 55.77 300.234C55.1634 300.65 54.678 301.205 54.314 301.898C53.95 302.574 53.768 303.354 53.768 304.238ZM67.9569 310.998V299.948H66.1369V297.738H67.9569V297.192C67.9569 296.083 68.1303 295.121 68.4769 294.306C68.8409 293.491 69.3436 292.867 69.9849 292.434C70.6436 291.983 71.4149 291.758 72.2989 291.758C72.8536 291.758 73.3996 291.836 73.9369 291.992C74.4743 292.131 74.9856 292.33 75.4709 292.59L74.8469 294.722C74.5869 294.549 74.2749 294.419 73.9109 294.332C73.5643 294.228 73.2263 294.176 72.8969 294.176C72.2383 294.176 71.7269 294.427 71.3629 294.93C70.9989 295.433 70.8169 296.161 70.8169 297.114V297.738H74.3009V299.948H70.8169V310.998H67.9569ZM89.8758 310.296C89.6331 310.417 89.3298 310.547 88.9658 310.686C88.6018 310.825 88.1858 310.946 87.7178 311.05C87.2671 311.154 86.7991 311.206 86.3138 311.206C85.7244 311.206 85.1784 311.102 84.6758 310.894C84.1731 310.686 83.7658 310.357 83.4538 309.906C83.1591 309.438 83.0118 308.84 83.0118 308.112V299.61H81.2178V297.4H83.0118V292.928H85.8718V297.4H88.8358V299.61H85.8718V307.202C85.9064 307.67 86.0538 308.017 86.3138 308.242C86.5911 308.467 86.9291 308.58 87.3278 308.58C87.7264 308.58 88.1078 308.511 88.4718 308.372C88.8358 308.233 89.1044 308.121 89.2778 308.034L89.8758 310.296ZM104.051 310.998H101.191V303.38C101.191 302.149 100.965 301.231 100.515 300.624C100.064 300.017 99.4313 299.714 98.6166 299.714C98.114 299.714 97.594 299.853 97.0566 300.13C96.5193 300.407 96.0426 300.789 95.6266 301.274C95.2106 301.742 94.9073 302.288 94.7166 302.912V310.998H91.8566V292.018H94.7166V300.13C95.2366 299.211 95.9473 298.492 96.8486 297.972C97.75 297.435 98.7206 297.166 99.7606 297.166C100.61 297.166 101.312 297.313 101.867 297.608C102.421 297.903 102.855 298.31 103.167 298.83C103.496 299.333 103.721 299.922 103.843 300.598C103.981 301.257 104.051 301.959 104.051 302.704V310.998ZM113.532 311.258C112.475 311.258 111.513 311.076 110.646 310.712C109.797 310.331 109.06 309.819 108.436 309.178C107.812 308.519 107.327 307.774 106.98 306.942C106.651 306.093 106.486 305.191 106.486 304.238C106.486 302.955 106.781 301.785 107.37 300.728C107.96 299.653 108.783 298.795 109.84 298.154C110.898 297.495 112.137 297.166 113.558 297.166C114.98 297.166 116.202 297.495 117.224 298.154C118.264 298.795 119.07 299.645 119.642 300.702C120.214 301.759 120.5 302.895 120.5 304.108C120.5 304.316 120.492 304.515 120.474 304.706C120.457 304.879 120.44 305.027 120.422 305.148H109.528C109.58 305.945 109.797 306.647 110.178 307.254C110.577 307.843 111.08 308.311 111.686 308.658C112.293 308.987 112.943 309.152 113.636 309.152C114.399 309.152 115.118 308.961 115.794 308.58C116.488 308.199 116.956 307.696 117.198 307.072L119.642 307.774C119.348 308.433 118.897 309.031 118.29 309.568C117.701 310.088 116.999 310.504 116.184 310.816C115.37 311.111 114.486 311.258 113.532 311.258ZM109.45 303.25H117.666C117.614 302.47 117.389 301.785 116.99 301.196C116.609 300.589 116.115 300.121 115.508 299.792C114.919 299.445 114.26 299.272 113.532 299.272C112.822 299.272 112.163 299.445 111.556 299.792C110.967 300.121 110.482 300.589 110.1 301.196C109.719 301.785 109.502 302.47 109.45 303.25ZM135.419 311.258C134.362 311.258 133.4 311.076 132.533 310.712C131.684 310.331 130.947 309.811 130.323 309.152C129.699 308.493 129.214 307.739 128.867 306.89C128.538 306.041 128.373 305.139 128.373 304.186C128.373 302.903 128.659 301.733 129.231 300.676C129.82 299.619 130.635 298.769 131.675 298.128C132.732 297.487 133.98 297.166 135.419 297.166C136.806 297.166 138.01 297.478 139.033 298.102C140.073 298.709 140.836 299.523 141.321 300.546L138.539 301.43C138.227 300.858 137.785 300.416 137.213 300.104C136.658 299.775 136.043 299.61 135.367 299.61C134.604 299.61 133.911 299.809 133.287 300.208C132.68 300.589 132.195 301.127 131.831 301.82C131.484 302.496 131.311 303.285 131.311 304.186C131.311 305.053 131.493 305.841 131.857 306.552C132.221 307.245 132.706 307.8 133.313 308.216C133.937 308.615 134.63 308.814 135.393 308.814C135.861 308.814 136.312 308.736 136.745 308.58C137.196 308.407 137.586 308.181 137.915 307.904C138.244 307.609 138.478 307.289 138.617 306.942L141.425 307.774C141.13 308.45 140.688 309.048 140.099 309.568C139.527 310.088 138.842 310.504 138.045 310.816C137.265 311.111 136.39 311.258 135.419 311.258ZM143.65 305.72V297.4H146.51V305.148C146.51 306.361 146.727 307.28 147.16 307.904C147.611 308.511 148.261 308.814 149.11 308.814C149.648 308.814 150.168 308.701 150.67 308.476C151.19 308.251 151.658 307.921 152.074 307.488C152.508 307.037 152.854 306.5 153.114 305.876V297.4H155.974V307.774C155.974 308.103 156.035 308.337 156.156 308.476C156.278 308.615 156.477 308.693 156.754 308.71V310.998C156.46 311.05 156.217 311.085 156.026 311.102C155.836 311.119 155.654 311.128 155.48 311.128C154.96 311.128 154.527 310.989 154.18 310.712C153.834 310.417 153.634 310.045 153.582 309.594L153.53 308.242C152.924 309.23 152.135 309.984 151.164 310.504C150.194 311.007 149.128 311.258 147.966 311.258C146.545 311.258 145.47 310.79 144.742 309.854C144.014 308.918 143.65 307.54 143.65 305.72ZM159.65 292.018H162.51V307.072C162.51 307.765 162.614 308.207 162.822 308.398C163.03 308.589 163.29 308.684 163.602 308.684C163.949 308.684 164.27 308.649 164.564 308.58C164.876 308.511 165.145 308.424 165.37 308.32L165.786 310.582C165.37 310.755 164.876 310.903 164.304 311.024C163.732 311.145 163.221 311.206 162.77 311.206C161.8 311.206 161.037 310.937 160.482 310.4C159.928 309.845 159.65 309.083 159.65 308.112V292.018ZM174.934 310.296C174.692 310.417 174.388 310.547 174.024 310.686C173.66 310.825 173.244 310.946 172.776 311.05C172.326 311.154 171.858 311.206 171.372 311.206C170.783 311.206 170.237 311.102 169.734 310.894C169.232 310.686 168.824 310.357 168.512 309.906C168.218 309.438 168.07 308.84 168.07 308.112V299.61H166.276V297.4H168.07V292.928H170.93V297.4H173.894V299.61H170.93V307.202C170.965 307.67 171.112 308.017 171.372 308.242C171.65 308.467 171.988 308.58 172.386 308.58C172.785 308.58 173.166 308.511 173.53 308.372C173.894 308.233 174.163 308.121 174.336 308.034L174.934 310.296ZM176.785 305.72V297.4H179.645V305.148C179.645 306.361 179.862 307.28 180.295 307.904C180.746 308.511 181.396 308.814 182.245 308.814C182.783 308.814 183.303 308.701 183.805 308.476C184.325 308.251 184.793 307.921 185.209 307.488C185.643 307.037 185.989 306.5 186.249 305.876V297.4H189.109V307.774C189.109 308.103 189.17 308.337 189.291 308.476C189.413 308.615 189.612 308.693 189.889 308.71V310.998C189.595 311.05 189.352 311.085 189.161 311.102C188.971 311.119 188.789 311.128 188.615 311.128C188.095 311.128 187.662 310.989 187.315 310.712C186.969 310.417 186.769 310.045 186.717 309.594L186.665 308.242C186.059 309.23 185.27 309.984 184.299 310.504C183.329 311.007 182.263 311.258 181.101 311.258C179.68 311.258 178.605 310.79 177.877 309.854C177.149 308.918 176.785 307.54 176.785 305.72ZM200.403 299.87C199.294 299.887 198.306 300.139 197.439 300.624C196.59 301.109 195.983 301.794 195.619 302.678V310.998H192.759V297.4H195.411V300.442C195.879 299.506 196.494 298.761 197.257 298.206C198.02 297.634 198.826 297.322 199.675 297.27C199.848 297.27 199.987 297.27 200.091 297.27C200.212 297.27 200.316 297.279 200.403 297.296V299.87ZM208.417 311.258C207.36 311.258 206.398 311.076 205.531 310.712C204.682 310.331 203.945 309.819 203.321 309.178C202.697 308.519 202.212 307.774 201.865 306.942C201.536 306.093 201.371 305.191 201.371 304.238C201.371 302.955 201.666 301.785 202.255 300.728C202.844 299.653 203.668 298.795 204.725 298.154C205.782 297.495 207.022 297.166 208.443 297.166C209.864 297.166 211.086 297.495 212.109 298.154C213.149 298.795 213.955 299.645 214.527 300.702C215.099 301.759 215.385 302.895 215.385 304.108C215.385 304.316 215.376 304.515 215.359 304.706C215.342 304.879 215.324 305.027 215.307 305.148H204.413C204.465 305.945 204.682 306.647 205.063 307.254C205.462 307.843 205.964 308.311 206.571 308.658C207.178 308.987 207.828 309.152 208.521 309.152C209.284 309.152 210.003 308.961 210.679 308.58C211.372 308.199 211.84 307.696 212.083 307.072L214.527 307.774C214.232 308.433 213.782 309.031 213.175 309.568C212.586 310.088 211.884 310.504 211.069 310.816C210.254 311.111 209.37 311.258 208.417 311.258ZM204.335 303.25H212.551C212.499 302.47 212.274 301.785 211.875 301.196C211.494 300.589 211 300.121 210.393 299.792C209.804 299.445 209.145 299.272 208.417 299.272C207.706 299.272 207.048 299.445 206.441 299.792C205.852 300.121 205.366 300.589 204.985 301.196C204.604 301.785 204.387 302.47 204.335 303.25Z" fill="black"/>
<path d="M115.143 107.28H101.355V105.012H119.031L106.107 130.572H103.299L115.143 107.28ZM120.98 126C120.98 125.184 121.052 124.368 121.196 123.552C121.34 122.712 121.616 121.884 122.024 121.068C122.432 120.252 123.032 119.472 123.824 118.728C124.616 117.96 125.66 117.24 126.956 116.568C127.652 116.208 128.372 115.86 129.116 115.524C129.86 115.164 130.556 114.78 131.204 114.372C131.876 113.94 132.404 113.46 132.788 112.932C133.196 112.38 133.4 111.732 133.4 110.988C133.4 110.388 133.22 109.8 132.86 109.224C132.524 108.648 131.996 108.18 131.276 107.82C130.58 107.46 129.704 107.28 128.648 107.28C127.88 107.28 127.184 107.388 126.56 107.604C125.936 107.82 125.384 108.096 124.904 108.432C124.424 108.744 124.016 109.068 123.68 109.404C123.344 109.716 123.068 109.98 122.852 110.196L121.304 108.504C121.424 108.36 121.688 108.108 122.096 107.748C122.528 107.364 123.068 106.968 123.716 106.56C124.388 106.152 125.168 105.804 126.056 105.516C126.968 105.228 127.964 105.084 129.044 105.084C130.508 105.084 131.756 105.348 132.788 105.876C133.844 106.38 134.648 107.064 135.2 107.928C135.752 108.792 136.028 109.728 136.028 110.736C136.028 111.72 135.812 112.572 135.38 113.292C134.972 113.988 134.432 114.6 133.76 115.128C133.112 115.632 132.428 116.076 131.708 116.46C131.012 116.82 130.376 117.132 129.8 117.396C128.672 117.924 127.724 118.452 126.956 118.98C126.188 119.508 125.576 120.048 125.12 120.6C124.664 121.128 124.304 121.656 124.04 122.184C123.8 122.688 123.632 123.216 123.536 123.768H136.424V126H120.98ZM145.01 110.412C144.026 110.412 143.126 110.184 142.31 109.728C141.494 109.272 140.834 108.648 140.33 107.856C139.85 107.064 139.61 106.2 139.61 105.264C139.61 104.304 139.85 103.428 140.33 102.636C140.834 101.844 141.494 101.22 142.31 100.764C143.126 100.308 144.026 100.08 145.01 100.08C145.994 100.08 146.894 100.308 147.71 100.764C148.526 101.22 149.174 101.844 149.654 102.636C150.134 103.428 150.374 104.292 150.374 105.228C150.374 106.188 150.134 107.064 149.654 107.856C149.174 108.648 148.526 109.272 147.71 109.728C146.894 110.184 145.994 110.412 145.01 110.412ZM145.01 109.008C145.658 109.008 146.246 108.84 146.774 108.504C147.326 108.144 147.758 107.676 148.07 107.1C148.382 106.524 148.538 105.912 148.538 105.264C148.538 104.568 148.37 103.932 148.034 103.356C147.698 102.78 147.254 102.336 146.702 102.024C146.174 101.688 145.61 101.52 145.01 101.52C144.338 101.52 143.738 101.7 143.21 102.06C142.682 102.396 142.25 102.852 141.914 103.428C141.602 103.98 141.446 104.58 141.446 105.228C141.446 105.924 141.602 106.56 141.914 107.136C142.25 107.688 142.682 108.144 143.21 108.504C143.762 108.84 144.362 109.008 145.01 109.008ZM157.07 126.36C156.086 126.36 155.186 126.132 154.37 125.676C153.554 125.22 152.906 124.596 152.426 123.804C151.946 123.012 151.706 122.136 151.706 121.176C151.706 120.216 151.946 119.352 152.426 118.584C152.906 117.792 153.554 117.168 154.37 116.712C155.186 116.256 156.086 116.028 157.07 116.028C158.078 116.028 158.99 116.256 159.806 116.712C160.622 117.168 161.27 117.792 161.75 118.584C162.23 119.352 162.47 120.216 162.47 121.176C162.47 122.136 162.23 123.012 161.75 123.804C161.27 124.572 160.622 125.196 159.806 125.676C158.99 126.132 158.078 126.36 157.07 126.36ZM157.07 124.92C157.742 124.92 158.342 124.752 158.87 124.416C159.422 124.056 159.842 123.6 160.13 123.048C160.442 122.472 160.598 121.86 160.598 121.212C160.598 120.516 160.43 119.88 160.094 119.304C159.782 118.728 159.35 118.272 158.798 117.936C158.27 117.6 157.694 117.432 157.07 117.432C156.422 117.432 155.822 117.612 155.27 117.972C154.742 118.308 154.322 118.764 154.01 119.34C153.698 119.916 153.542 120.528 153.542 121.176C153.542 121.872 153.698 122.508 154.01 123.084C154.346 123.636 154.778 124.08 155.306 124.416C155.858 124.752 156.446 124.92 157.07 124.92ZM140.474 125.028L150.554 112.788L160.31 100.296L161.57 101.376L151.562 113.616L141.734 126.144L140.474 125.028Z" fill="black"/>
<defs>
<filter id="filter0_d_3240_184" x="43.5859" y="26.2733" width="176.746" height="177.762" filterUnits="userSpaceOnUse" color-interpolation-filters="sRGB">
<feFlood flood-opacity="0" result="BackgroundImageFix"/>
<feColorMatrix in="SourceAlpha" type="matrix" values="0 0 0 0 0 0 0 0 0 0 0 0 0 0 0 0 0 0 127 0" result="hardAlpha"/>
<feOffset dy="0.634615"/>
<feGaussianBlur stdDeviation="6.5625"/>
<feComposite in2="hardAlpha" operator="out"/>
<feColorMatrix type="matrix" values="0 0 0 0 0.93 0 0 0 0 0.93 0 0 0 0 0.93 0 0 0 1 0"/>
<feBlend mode="normal" in2="BackgroundImageFix" result="effect1_dropShadow_3240_184"/>
<feBlend mode="normal" in="SourceGraphic" in2="effect1_dropShadow_3240_184" result="shape"/>
</filter>
</defs>
</svg>
