<svg width="265" height="350" viewBox="0 0 265 350" fill="none" xmlns="http://www.w3.org/2000/svg">
<rect x="0.721154" y="1.02779" width="263.558" height="347.558" rx="12.2596" fill="white" stroke="#FF9901" stroke-width="1.44231"/>
<g filter="url(#filter0_d_3240_182)">
<mask id="path-2-inside-1_3240_182" fill="white">
<path d="M105.306 54.1926C103.236 49.4726 105.359 43.9047 110.292 42.4116C124.963 37.971 140.712 38.1245 155.409 42.978C173.071 48.8105 187.964 61.0176 197.218 77.2469C206.472 93.4763 209.432 112.579 205.528 130.875C201.624 149.17 191.132 165.363 176.074 176.333C161.016 187.304 142.457 192.275 123.975 190.288C105.492 188.302 88.3935 179.499 75.9739 165.576C63.5543 151.653 56.6926 133.595 56.7111 114.882C56.7264 99.3284 61.4941 84.2369 70.2509 71.6045C73.2037 67.3448 79.1987 67.0649 83.0363 70.5487C86.8377 73.9996 87.0647 79.8398 84.3049 84.1691C78.4934 93.2855 75.3464 103.941 75.3356 114.902C75.3217 128.983 80.4851 142.571 89.8307 153.048C99.1763 163.525 112.043 170.149 125.951 171.644C139.859 173.139 153.824 169.398 165.155 161.143C176.486 152.888 184.381 140.703 187.319 126.936C190.256 113.169 188.029 98.7938 181.065 86.5814C174.102 74.3689 162.895 65.1832 149.605 60.7943C139.313 57.3956 128.336 57.0597 117.965 59.7222C112.938 61.0128 107.391 58.9458 105.306 54.1926Z"/>
</mask>
<path d="M105.306 54.1926C103.236 49.4726 105.359 43.9047 110.292 42.4116C124.963 37.971 140.712 38.1245 155.409 42.978C173.071 48.8105 187.964 61.0176 197.218 77.2469C206.472 93.4763 209.432 112.579 205.528 130.875C201.624 149.17 191.132 165.363 176.074 176.333C161.016 187.304 142.457 192.275 123.975 190.288C105.492 188.302 88.3935 179.499 75.9739 165.576C63.5543 151.653 56.6926 133.595 56.7111 114.882C56.7264 99.3284 61.4941 84.2369 70.2509 71.6045C73.2037 67.3448 79.1987 67.0649 83.0363 70.5487C86.8377 73.9996 87.0647 79.8398 84.3049 84.1691C78.4934 93.2855 75.3464 103.941 75.3356 114.902C75.3217 128.983 80.4851 142.571 89.8307 153.048C99.1763 163.525 112.043 170.149 125.951 171.644C139.859 173.139 153.824 169.398 165.155 161.143C176.486 152.888 184.381 140.703 187.319 126.936C190.256 113.169 188.029 98.7938 181.065 86.5814C174.102 74.3689 162.895 65.1832 149.605 60.7943C139.313 57.3956 128.336 57.0597 117.965 59.7222C112.938 61.0128 107.391 58.9458 105.306 54.1926Z" fill="#FFC164"/>
<path d="M105.306 54.1926C103.236 49.4726 105.359 43.9047 110.292 42.4116C124.963 37.971 140.712 38.1245 155.409 42.978C173.071 48.8105 187.964 61.0176 197.218 77.2469C206.472 93.4763 209.432 112.579 205.528 130.875C201.624 149.17 191.132 165.363 176.074 176.333C161.016 187.304 142.457 192.275 123.975 190.288C105.492 188.302 88.3935 179.499 75.9739 165.576C63.5543 151.653 56.6926 133.595 56.7111 114.882C56.7264 99.3284 61.4941 84.2369 70.2509 71.6045C73.2037 67.3448 79.1987 67.0649 83.0363 70.5487C86.8377 73.9996 87.0647 79.8398 84.3049 84.1691C78.4934 93.2855 75.3464 103.941 75.3356 114.902C75.3217 128.983 80.4851 142.571 89.8307 153.048C99.1763 163.525 112.043 170.149 125.951 171.644C139.859 173.139 153.824 169.398 165.155 161.143C176.486 152.888 184.381 140.703 187.319 126.936C190.256 113.169 188.029 98.7938 181.065 86.5814C174.102 74.3689 162.895 65.1832 149.605 60.7943C139.313 57.3956 128.336 57.0597 117.965 59.7222C112.938 61.0128 107.391 58.9458 105.306 54.1926Z" stroke="white" stroke-width="8.65385" mask="url(#path-2-inside-1_3240_182)"/>
</g>
<path d="M74.4525 257V243.844L69.0185 253.828H67.3025L61.8425 243.844V257H58.9305V238.54H62.0505L68.1605 249.824L74.2705 238.54H77.3905V257H74.4525ZM87.071 257.26C85.9963 257.26 85.0343 257.078 84.185 256.714C83.3357 256.333 82.599 255.813 81.975 255.154C81.3683 254.495 80.9003 253.75 80.571 252.918C80.2417 252.069 80.077 251.167 80.077 250.214C80.077 249.261 80.2417 248.359 80.571 247.51C80.9003 246.661 81.3683 245.915 81.975 245.274C82.599 244.615 83.3357 244.104 84.185 243.74C85.0517 243.359 86.0137 243.168 87.071 243.168C88.1283 243.168 89.0817 243.359 89.931 243.74C90.7977 244.104 91.5343 244.615 92.141 245.274C92.765 245.915 93.2417 246.661 93.571 247.51C93.9003 248.359 94.065 249.261 94.065 250.214C94.065 251.167 93.9003 252.069 93.571 252.918C93.2417 253.75 92.765 254.495 92.141 255.154C91.5343 255.813 90.7977 256.333 89.931 256.714C89.0817 257.078 88.1283 257.26 87.071 257.26ZM83.015 250.24C83.015 251.107 83.197 251.887 83.561 252.58C83.925 253.273 84.4103 253.819 85.017 254.218C85.6237 254.617 86.3083 254.816 87.071 254.816C87.8163 254.816 88.4923 254.617 89.099 254.218C89.723 253.802 90.217 253.247 90.581 252.554C90.945 251.843 91.127 251.063 91.127 250.214C91.127 249.347 90.945 248.567 90.581 247.874C90.217 247.181 89.723 246.635 89.099 246.236C88.4923 245.82 87.8163 245.612 87.071 245.612C86.3083 245.612 85.6237 245.82 85.017 246.236C84.4103 246.652 83.925 247.207 83.561 247.9C83.197 248.576 83.015 249.356 83.015 250.24ZM103.965 256.298C103.722 256.419 103.419 256.549 103.055 256.688C102.691 256.827 102.275 256.948 101.807 257.052C101.356 257.156 100.888 257.208 100.403 257.208C99.8132 257.208 99.2672 257.104 98.7645 256.896C98.2618 256.688 97.8545 256.359 97.5425 255.908C97.2478 255.44 97.1005 254.842 97.1005 254.114V245.612H95.3065V243.402H97.1005V238.93H99.9605V243.402H102.925V245.612H99.9605V253.204C99.9952 253.672 100.143 254.019 100.403 254.244C100.68 254.469 101.018 254.582 101.417 254.582C101.815 254.582 102.197 254.513 102.561 254.374C102.925 254.235 103.193 254.123 103.367 254.036L103.965 256.298ZM105.945 257V243.402H108.805V257H105.945ZM105.945 241.166V238.02H108.805V241.166H105.945ZM116.038 257L110.864 243.402H113.828L117.702 254.348L121.576 243.402H124.332L119.158 257H116.038ZM125.067 253.022C125.067 252.155 125.309 251.401 125.795 250.76C126.297 250.101 126.982 249.599 127.849 249.252C128.715 248.888 129.721 248.706 130.865 248.706C131.471 248.706 132.087 248.749 132.711 248.836C133.352 248.923 133.915 249.061 134.401 249.252V248.394C134.401 247.441 134.115 246.695 133.543 246.158C132.971 245.621 132.147 245.352 131.073 245.352C130.31 245.352 129.591 245.491 128.915 245.768C128.239 246.028 127.519 246.401 126.757 246.886L125.795 244.962C126.696 244.355 127.597 243.905 128.499 243.61C129.417 243.315 130.379 243.168 131.385 243.168C133.205 243.168 134.635 243.653 135.675 244.624C136.732 245.577 137.261 246.938 137.261 248.706V253.776C137.261 254.105 137.313 254.339 137.417 254.478C137.538 254.617 137.737 254.695 138.015 254.712V257C137.755 257.052 137.521 257.087 137.313 257.104C137.105 257.121 136.931 257.13 136.793 257.13C136.186 257.13 135.727 256.983 135.415 256.688C135.103 256.393 134.921 256.047 134.869 255.648L134.791 254.868C134.201 255.631 133.447 256.22 132.529 256.636C131.61 257.052 130.683 257.26 129.747 257.26C128.845 257.26 128.039 257.078 127.329 256.714C126.618 256.333 126.063 255.821 125.665 255.18C125.266 254.539 125.067 253.819 125.067 253.022ZM133.725 253.854C133.933 253.629 134.097 253.403 134.219 253.178C134.34 252.953 134.401 252.753 134.401 252.58V251.02C133.915 250.829 133.404 250.691 132.867 250.604C132.329 250.5 131.801 250.448 131.281 250.448C130.241 250.448 129.391 250.656 128.733 251.072C128.091 251.488 127.771 252.06 127.771 252.788C127.771 253.187 127.875 253.568 128.083 253.932C128.308 254.296 128.62 254.591 129.019 254.816C129.435 255.041 129.946 255.154 130.553 255.154C131.177 255.154 131.775 255.033 132.347 254.79C132.919 254.547 133.378 254.235 133.725 253.854ZM148.195 256.298C147.952 256.419 147.649 256.549 147.285 256.688C146.921 256.827 146.505 256.948 146.037 257.052C145.586 257.156 145.118 257.208 144.633 257.208C144.044 257.208 143.498 257.104 142.995 256.896C142.492 256.688 142.085 256.359 141.773 255.908C141.478 255.44 141.331 254.842 141.331 254.114V245.612H139.537V243.402H141.331V238.93H144.191V243.402H147.155V245.612H144.191V253.204C144.226 253.672 144.373 254.019 144.633 254.244C144.91 254.469 145.248 254.582 145.647 254.582C146.046 254.582 146.427 254.513 146.791 254.374C147.155 254.235 147.424 254.123 147.597 254.036L148.195 256.298ZM156.16 257.26C155.103 257.26 154.141 257.078 153.274 256.714C152.425 256.333 151.688 255.821 151.064 255.18C150.44 254.521 149.955 253.776 149.608 252.944C149.279 252.095 149.114 251.193 149.114 250.24C149.114 248.957 149.409 247.787 149.998 246.73C150.587 245.655 151.411 244.797 152.468 244.156C153.525 243.497 154.765 243.168 156.186 243.168C157.607 243.168 158.829 243.497 159.852 244.156C160.892 244.797 161.698 245.647 162.27 246.704C162.842 247.761 163.128 248.897 163.128 250.11C163.128 250.318 163.119 250.517 163.102 250.708C163.085 250.881 163.067 251.029 163.05 251.15H152.156C152.208 251.947 152.425 252.649 152.806 253.256C153.205 253.845 153.707 254.313 154.314 254.66C154.921 254.989 155.571 255.154 156.264 255.154C157.027 255.154 157.746 254.963 158.422 254.582C159.115 254.201 159.583 253.698 159.826 253.074L162.27 253.776C161.975 254.435 161.525 255.033 160.918 255.57C160.329 256.09 159.627 256.506 158.812 256.818C157.997 257.113 157.113 257.26 156.16 257.26ZM152.078 249.252H160.294C160.242 248.472 160.017 247.787 159.618 247.198C159.237 246.591 158.743 246.123 158.136 245.794C157.547 245.447 156.888 245.274 156.16 245.274C155.449 245.274 154.791 245.447 154.184 245.794C153.595 246.123 153.109 246.591 152.728 247.198C152.347 247.787 152.13 248.472 152.078 249.252ZM164.603 250.214C164.603 248.914 164.863 247.735 165.383 246.678C165.92 245.603 166.648 244.754 167.567 244.13C168.486 243.489 169.543 243.168 170.739 243.168C171.779 243.168 172.715 243.437 173.547 243.974C174.396 244.511 175.055 245.179 175.523 245.976V238.02H178.383V253.776C178.383 254.105 178.444 254.339 178.565 254.478C178.686 254.617 178.886 254.695 179.163 254.712V257C178.626 257.087 178.21 257.13 177.915 257.13C177.378 257.13 176.918 256.974 176.537 256.662C176.173 256.35 175.982 255.977 175.965 255.544L175.939 254.53C175.419 255.397 174.717 256.073 173.833 256.558C172.949 257.026 172.03 257.26 171.077 257.26C170.141 257.26 169.274 257.078 168.477 256.714C167.697 256.35 167.012 255.839 166.423 255.18C165.851 254.521 165.4 253.767 165.071 252.918C164.759 252.069 164.603 251.167 164.603 250.214ZM175.523 252.112V248.55C175.332 247.995 175.02 247.501 174.587 247.068C174.171 246.617 173.694 246.262 173.157 246.002C172.637 245.742 172.117 245.612 171.597 245.612C170.99 245.612 170.436 245.742 169.933 246.002C169.448 246.262 169.023 246.609 168.659 247.042C168.312 247.475 168.044 247.969 167.853 248.524C167.662 249.079 167.567 249.659 167.567 250.266C167.567 250.89 167.671 251.479 167.879 252.034C168.087 252.571 168.382 253.057 168.763 253.49C169.162 253.906 169.612 254.235 170.115 254.478C170.635 254.703 171.198 254.816 171.805 254.816C172.186 254.816 172.568 254.747 172.949 254.608C173.348 254.469 173.72 254.279 174.067 254.036C174.431 253.793 174.734 253.507 174.977 253.178C175.237 252.849 175.419 252.493 175.523 252.112ZM188.44 257V243.402H191.3V257H188.44ZM188.44 241.166V238.02H191.3V241.166H188.44ZM206.93 257H204.07V249.382C204.07 248.117 203.862 247.189 203.446 246.6C203.048 246.011 202.45 245.716 201.652 245.716C201.098 245.716 200.543 245.855 199.988 246.132C199.451 246.409 198.966 246.791 198.532 247.276C198.099 247.744 197.787 248.29 197.596 248.914V257H194.736V243.402H197.336V246.132C197.683 245.525 198.134 245.005 198.688 244.572C199.26 244.121 199.902 243.775 200.612 243.532C201.323 243.289 202.077 243.168 202.874 243.168C203.689 243.168 204.356 243.315 204.876 243.61C205.414 243.905 205.83 244.312 206.124 244.832C206.436 245.335 206.644 245.924 206.748 246.6C206.87 247.259 206.93 247.961 206.93 248.706V257ZM85.1881 292.298C84.9455 292.419 84.6421 292.549 84.2781 292.688C83.9141 292.827 83.4981 292.948 83.0301 293.052C82.5795 293.156 82.1115 293.208 81.6261 293.208C81.0368 293.208 80.4908 293.104 79.9881 292.896C79.4855 292.688 79.0781 292.359 78.7661 291.908C78.4715 291.44 78.3241 290.842 78.3241 290.114V281.612H76.5301V279.402H78.3241V274.93H81.1841V279.402H84.1481V281.612H81.1841V289.204C81.2188 289.672 81.3661 290.019 81.6261 290.244C81.9035 290.469 82.2415 290.582 82.6401 290.582C83.0388 290.582 83.4201 290.513 83.7841 290.374C84.1481 290.235 84.4168 290.123 84.5901 290.036L85.1881 292.298ZM99.363 293H96.503V285.382C96.503 284.151 96.2777 283.233 95.827 282.626C95.3763 282.019 94.7437 281.716 93.929 281.716C93.4263 281.716 92.9063 281.855 92.369 282.132C91.8317 282.409 91.355 282.791 90.939 283.276C90.523 283.744 90.2197 284.29 90.029 284.914V293H87.169V274.02H90.029V282.132C90.549 281.213 91.2597 280.494 92.161 279.974C93.0623 279.437 94.033 279.168 95.073 279.168C95.9223 279.168 96.6243 279.315 97.179 279.61C97.7337 279.905 98.167 280.312 98.479 280.832C98.8083 281.335 99.0337 281.924 99.155 282.6C99.2937 283.259 99.363 283.961 99.363 284.706V293ZM108.845 293.26C107.787 293.26 106.825 293.078 105.959 292.714C105.109 292.333 104.373 291.821 103.749 291.18C103.125 290.521 102.639 289.776 102.293 288.944C101.963 288.095 101.799 287.193 101.799 286.24C101.799 284.957 102.093 283.787 102.683 282.73C103.272 281.655 104.095 280.797 105.153 280.156C106.21 279.497 107.449 279.168 108.871 279.168C110.292 279.168 111.514 279.497 112.537 280.156C113.577 280.797 114.383 281.647 114.955 282.704C115.527 283.761 115.813 284.897 115.813 286.11C115.813 286.318 115.804 286.517 115.787 286.708C115.769 286.881 115.752 287.029 115.735 287.15H104.841C104.893 287.947 105.109 288.649 105.491 289.256C105.889 289.845 106.392 290.313 106.999 290.66C107.605 290.989 108.255 291.154 108.949 291.154C109.711 291.154 110.431 290.963 111.107 290.582C111.8 290.201 112.268 289.698 112.511 289.074L114.955 289.776C114.66 290.435 114.209 291.033 113.603 291.57C113.013 292.09 112.311 292.506 111.497 292.818C110.682 293.113 109.798 293.26 108.845 293.26ZM104.763 285.252H112.979C112.927 284.472 112.701 283.787 112.303 283.198C111.921 282.591 111.427 282.123 110.821 281.794C110.231 281.447 109.573 281.274 108.845 281.274C108.134 281.274 107.475 281.447 106.869 281.794C106.279 282.123 105.794 282.591 105.413 283.198C105.031 283.787 104.815 284.472 104.763 285.252ZM118.146 293V279.402H121.006V293H118.146ZM118.146 277.166V274.02H121.006V277.166H118.146ZM132.086 281.872C130.977 281.889 129.989 282.141 129.122 282.626C128.273 283.111 127.666 283.796 127.302 284.68V293H124.442V279.402H127.094V282.444C127.562 281.508 128.178 280.763 128.94 280.208C129.703 279.636 130.509 279.324 131.358 279.272C131.532 279.272 131.67 279.272 131.774 279.272C131.896 279.272 132 279.281 132.086 279.298V281.872ZM138.577 297.966C137.953 297.966 137.364 297.871 136.809 297.68C136.237 297.489 135.734 297.195 135.301 296.796L136.575 294.872C136.783 295.08 137.043 295.227 137.355 295.314C137.65 295.418 137.944 295.47 138.239 295.47C138.586 295.47 138.898 295.383 139.175 295.21C139.47 295.037 139.704 294.794 139.877 294.482C140.068 294.187 140.163 293.858 140.163 293.494V279.402H143.023V293.286C143.023 294.187 142.815 294.993 142.399 295.704C142 296.415 141.463 296.969 140.787 297.368C140.128 297.767 139.392 297.966 138.577 297.966ZM140.163 277.166V274.02H143.023V277.166H140.163ZM152.566 293.26C151.491 293.26 150.529 293.078 149.68 292.714C148.831 292.333 148.094 291.813 147.47 291.154C146.863 290.495 146.395 289.75 146.066 288.918C145.737 288.069 145.572 287.167 145.572 286.214C145.572 285.261 145.737 284.359 146.066 283.51C146.395 282.661 146.863 281.915 147.47 281.274C148.094 280.615 148.831 280.104 149.68 279.74C150.547 279.359 151.509 279.168 152.566 279.168C153.623 279.168 154.577 279.359 155.426 279.74C156.293 280.104 157.029 280.615 157.636 281.274C158.26 281.915 158.737 282.661 159.066 283.51C159.395 284.359 159.56 285.261 159.56 286.214C159.56 287.167 159.395 288.069 159.066 288.918C158.737 289.75 158.26 290.495 157.636 291.154C157.029 291.813 156.293 292.333 155.426 292.714C154.577 293.078 153.623 293.26 152.566 293.26ZM148.51 286.24C148.51 287.107 148.692 287.887 149.056 288.58C149.42 289.273 149.905 289.819 150.512 290.218C151.119 290.617 151.803 290.816 152.566 290.816C153.311 290.816 153.987 290.617 154.594 290.218C155.218 289.802 155.712 289.247 156.076 288.554C156.44 287.843 156.622 287.063 156.622 286.214C156.622 285.347 156.44 284.567 156.076 283.874C155.712 283.181 155.218 282.635 154.594 282.236C153.987 281.82 153.311 281.612 152.566 281.612C151.803 281.612 151.119 281.82 150.512 282.236C149.905 282.652 149.42 283.207 149.056 283.9C148.692 284.576 148.51 285.356 148.51 286.24ZM169.429 293.26C168.389 293.26 167.444 293.017 166.595 292.532C165.763 292.029 165.104 291.362 164.619 290.53V293H162.097V274.02H164.957V281.976C165.494 281.109 166.161 280.425 166.959 279.922C167.773 279.419 168.727 279.168 169.819 279.168C170.72 279.168 171.543 279.359 172.289 279.74C173.034 280.121 173.667 280.641 174.187 281.3C174.724 281.959 175.131 282.713 175.409 283.562C175.703 284.411 175.851 285.313 175.851 286.266C175.851 287.219 175.686 288.121 175.357 288.97C175.045 289.819 174.594 290.565 174.005 291.206C173.415 291.847 172.731 292.35 171.951 292.714C171.188 293.078 170.347 293.26 169.429 293.26ZM168.675 290.816C169.299 290.816 169.871 290.695 170.391 290.452C170.911 290.192 171.361 289.854 171.743 289.438C172.124 289.022 172.41 288.537 172.601 287.982C172.809 287.427 172.913 286.855 172.913 286.266C172.913 285.451 172.739 284.689 172.393 283.978C172.063 283.267 171.595 282.695 170.989 282.262C170.382 281.829 169.68 281.612 168.883 281.612C168.311 281.612 167.773 281.751 167.271 282.028C166.768 282.288 166.317 282.643 165.919 283.094C165.537 283.527 165.217 284.013 164.957 284.55V288.138C165.061 288.537 165.243 288.901 165.503 289.23C165.763 289.542 166.066 289.819 166.413 290.062C166.759 290.287 167.132 290.469 167.531 290.608C167.929 290.747 168.311 290.816 168.675 290.816ZM183.259 293.26C182.115 293.26 181.032 293.078 180.009 292.714C178.986 292.333 178.111 291.769 177.383 291.024L178.449 289.1C179.229 289.793 180.009 290.296 180.789 290.608C181.586 290.92 182.375 291.076 183.155 291.076C183.952 291.076 184.602 290.929 185.105 290.634C185.608 290.322 185.859 289.871 185.859 289.282C185.859 288.849 185.729 288.528 185.469 288.32C185.209 288.112 184.828 287.93 184.325 287.774C183.84 287.618 183.25 287.445 182.557 287.254C181.586 286.959 180.772 286.656 180.113 286.344C179.454 286.015 178.96 285.616 178.631 285.148C178.302 284.68 178.137 284.082 178.137 283.354C178.137 282.47 178.362 281.716 178.813 281.092C179.264 280.468 179.888 279.991 180.685 279.662C181.5 279.333 182.436 279.168 183.493 279.168C184.481 279.168 185.391 279.324 186.223 279.636C187.072 279.931 187.818 280.399 188.459 281.04L187.237 282.938C186.63 282.383 186.006 281.976 185.365 281.716C184.741 281.456 184.065 281.326 183.337 281.326C182.921 281.326 182.522 281.378 182.141 281.482C181.76 281.569 181.439 281.742 181.179 282.002C180.936 282.245 180.815 282.591 180.815 283.042C180.815 283.406 180.919 283.701 181.127 283.926C181.335 284.151 181.647 284.342 182.063 284.498C182.479 284.654 182.99 284.827 183.597 285.018C184.654 285.33 185.556 285.642 186.301 285.954C187.046 286.249 187.618 286.639 188.017 287.124C188.433 287.592 188.641 288.242 188.641 289.074C188.641 290.391 188.147 291.423 187.159 292.168C186.188 292.896 184.888 293.26 183.259 293.26Z" fill="black"/>
<path d="M118.702 118.908C118.702 120.396 118.282 121.692 117.442 122.796C116.626 123.9 115.534 124.764 114.166 125.388C112.822 125.988 111.346 126.288 109.738 126.288C108.034 126.288 106.522 125.952 105.202 125.28C103.882 124.584 102.838 123.672 102.07 122.544C101.326 121.416 100.954 120.156 100.954 118.764C100.954 117.684 101.206 116.712 101.71 115.848C102.238 114.96 102.886 114.216 103.654 113.616C104.446 113.016 105.25 112.584 106.066 112.32C105.322 112.008 104.626 111.6 103.978 111.096C103.33 110.568 102.814 109.956 102.43 109.26C102.046 108.564 101.854 107.796 101.854 106.956C101.854 105.9 102.082 104.976 102.538 104.184C103.018 103.368 103.642 102.684 104.41 102.132C105.178 101.556 106.03 101.136 106.966 100.872C107.926 100.584 108.886 100.44 109.846 100.44C110.782 100.44 111.718 100.584 112.654 100.872C113.614 101.136 114.478 101.544 115.246 102.096C116.038 102.648 116.662 103.332 117.118 104.148C117.598 104.94 117.838 105.864 117.838 106.92C117.838 107.76 117.634 108.54 117.226 109.26C116.842 109.956 116.326 110.568 115.678 111.096C115.03 111.6 114.322 112.008 113.554 112.32C114.49 112.632 115.342 113.112 116.11 113.76C116.902 114.384 117.526 115.128 117.982 115.992C118.462 116.856 118.702 117.828 118.702 118.908ZM116.218 118.728C116.218 117.864 116.026 117.108 115.642 116.46C115.282 115.788 114.778 115.224 114.13 114.768C113.506 114.312 112.81 113.964 112.042 113.724C111.298 113.484 110.542 113.364 109.774 113.364C108.742 113.364 107.734 113.592 106.75 114.048C105.79 114.48 104.998 115.104 104.374 115.92C103.774 116.712 103.474 117.66 103.474 118.764C103.474 119.604 103.654 120.348 104.014 120.996C104.398 121.644 104.902 122.208 105.526 122.688C106.15 123.144 106.834 123.492 107.578 123.732C108.346 123.972 109.114 124.092 109.882 124.092C110.914 124.092 111.91 123.876 112.87 123.444C113.854 122.988 114.658 122.352 115.282 121.536C115.906 120.72 116.218 119.784 116.218 118.728ZM104.302 107.064C104.302 107.976 104.578 108.768 105.13 109.44C105.706 110.088 106.426 110.58 107.29 110.916C108.154 111.252 108.994 111.42 109.81 111.42C110.674 111.42 111.526 111.252 112.366 110.916C113.23 110.556 113.938 110.052 114.49 109.404C115.066 108.732 115.354 107.928 115.354 106.992C115.354 106.08 115.09 105.3 114.562 104.652C114.034 104.004 113.338 103.512 112.474 103.176C111.634 102.84 110.734 102.672 109.774 102.672C108.862 102.672 107.974 102.852 107.11 103.212C106.27 103.548 105.586 104.052 105.058 104.724C104.554 105.372 104.302 106.152 104.302 107.064ZM133.31 130.572V124.164H121.322V122.004L134.102 105.444H135.758V121.932H138.926V124.164H135.758V130.572H133.31ZM123.914 121.932H133.562V109.296L123.914 121.932ZM146.986 110.412C146.002 110.412 145.102 110.184 144.286 109.728C143.47 109.272 142.81 108.648 142.306 107.856C141.826 107.064 141.586 106.2 141.586 105.264C141.586 104.304 141.826 103.428 142.306 102.636C142.81 101.844 143.47 101.22 144.286 100.764C145.102 100.308 146.002 100.08 146.986 100.08C147.97 100.08 148.87 100.308 149.686 100.764C150.502 101.22 151.15 101.844 151.63 102.636C152.11 103.428 152.35 104.292 152.35 105.228C152.35 106.188 152.11 107.064 151.63 107.856C151.15 108.648 150.502 109.272 149.686 109.728C148.87 110.184 147.97 110.412 146.986 110.412ZM146.986 109.008C147.634 109.008 148.222 108.84 148.75 108.504C149.302 108.144 149.734 107.676 150.046 107.1C150.358 106.524 150.514 105.912 150.514 105.264C150.514 104.568 150.346 103.932 150.01 103.356C149.674 102.78 149.23 102.336 148.678 102.024C148.15 101.688 147.586 101.52 146.986 101.52C146.314 101.52 145.714 101.7 145.186 102.06C144.658 102.396 144.226 102.852 143.89 103.428C143.578 103.98 143.422 104.58 143.422 105.228C143.422 105.924 143.578 106.56 143.89 107.136C144.226 107.688 144.658 108.144 145.186 108.504C145.738 108.84 146.338 109.008 146.986 109.008ZM159.046 126.36C158.062 126.36 157.162 126.132 156.346 125.676C155.53 125.22 154.882 124.596 154.402 123.804C153.922 123.012 153.682 122.136 153.682 121.176C153.682 120.216 153.922 119.352 154.402 118.584C154.882 117.792 155.53 117.168 156.346 116.712C157.162 116.256 158.062 116.028 159.046 116.028C160.054 116.028 160.966 116.256 161.782 116.712C162.598 117.168 163.246 117.792 163.726 118.584C164.206 119.352 164.446 120.216 164.446 121.176C164.446 122.136 164.206 123.012 163.726 123.804C163.246 124.572 162.598 125.196 161.782 125.676C160.966 126.132 160.054 126.36 159.046 126.36ZM159.046 124.92C159.718 124.92 160.318 124.752 160.846 124.416C161.398 124.056 161.818 123.6 162.106 123.048C162.418 122.472 162.574 121.86 162.574 121.212C162.574 120.516 162.406 119.88 162.07 119.304C161.758 118.728 161.326 118.272 160.774 117.936C160.246 117.6 159.67 117.432 159.046 117.432C158.398 117.432 157.798 117.612 157.246 117.972C156.718 118.308 156.298 118.764 155.986 119.34C155.674 119.916 155.518 120.528 155.518 121.176C155.518 121.872 155.674 122.508 155.986 123.084C156.322 123.636 156.754 124.08 157.282 124.416C157.834 124.752 158.422 124.92 159.046 124.92ZM142.45 125.028L152.53 112.788L162.286 100.296L163.546 101.376L153.538 113.616L143.71 126.144L142.45 125.028Z" fill="black"/>
<defs>
<filter id="filter0_d_3240_182" x="43.5859" y="26.7147" width="176.746" height="177.762" filterUnits="userSpaceOnUse" color-interpolation-filters="sRGB">
<feFlood flood-opacity="0" result="BackgroundImageFix"/>
<feColorMatrix in="SourceAlpha" type="matrix" values="0 0 0 0 0 0 0 0 0 0 0 0 0 0 0 0 0 0 127 0" result="hardAlpha"/>
<feOffset dy="0.634615"/>
<feGaussianBlur stdDeviation="6.5625"/>
<feComposite in2="hardAlpha" operator="out"/>
<feColorMatrix type="matrix" values="0 0 0 0 0.93 0 0 0 0 0.93 0 0 0 0 0.93 0 0 0 1 0"/>
<feBlend mode="normal" in2="BackgroundImageFix" result="effect1_dropShadow_3240_182"/>
<feBlend mode="normal" in="SourceGraphic" in2="effect1_dropShadow_3240_182" result="shape"/>
</filter>
</defs>
</svg>
