<svg width="265" height="350" viewBox="0 0 265 350" fill="none" xmlns="http://www.w3.org/2000/svg">
<rect x="0.721154" y="1.02779" width="263.558" height="347.558" rx="12.2596" fill="white" stroke="#FF9901" stroke-width="1.44231"/>
<g filter="url(#filter0_d_3240_183)">
<mask id="path-2-inside-1_3240_183" fill="white">
<path d="M105.327 53.7988C103.245 49.0525 105.38 43.4532 110.342 41.9552C124.999 37.53 140.729 37.6886 155.409 42.5366C173.071 48.369 187.964 60.5762 197.218 76.8055C206.472 93.0349 209.432 112.138 205.528 130.433C201.624 148.729 191.132 164.922 176.074 175.892C161.016 186.862 142.457 191.833 123.975 189.847C105.492 187.861 88.3935 179.058 75.9739 165.135C63.5543 151.212 56.6926 133.154 56.7111 114.441C56.7264 98.9047 61.4833 83.8299 70.221 71.2062C73.1874 66.9207 79.2161 66.6393 83.0751 70.1425C86.8978 73.6127 87.1253 79.4854 84.3553 83.8422C78.5781 92.929 75.4502 103.543 75.4394 114.46C75.4256 128.516 80.5795 142.079 89.908 152.537C99.2364 162.995 112.079 169.607 125.962 171.099C139.844 172.59 153.784 168.857 165.094 160.617C176.404 152.377 184.285 140.214 187.217 126.472C190.15 112.731 187.926 98.382 180.975 86.192C174.025 74.002 162.839 64.8331 149.573 60.4522C139.322 57.0672 128.39 56.726 118.058 59.3648C113.002 60.6564 107.423 58.5784 105.327 53.7988Z"/>
</mask>
<path d="M105.327 53.7988C103.245 49.0525 105.38 43.4532 110.342 41.9552C124.999 37.53 140.729 37.6886 155.409 42.5366C173.071 48.369 187.964 60.5762 197.218 76.8055C206.472 93.0349 209.432 112.138 205.528 130.433C201.624 148.729 191.132 164.922 176.074 175.892C161.016 186.862 142.457 191.833 123.975 189.847C105.492 187.861 88.3935 179.058 75.9739 165.135C63.5543 151.212 56.6926 133.154 56.7111 114.441C56.7264 98.9047 61.4833 83.8299 70.221 71.2062C73.1874 66.9207 79.2161 66.6393 83.0751 70.1425C86.8978 73.6127 87.1253 79.4854 84.3553 83.8422C78.5781 92.929 75.4502 103.543 75.4394 114.46C75.4256 128.516 80.5795 142.079 89.908 152.537C99.2364 162.995 112.079 169.607 125.962 171.099C139.844 172.59 153.784 168.857 165.094 160.617C176.404 152.377 184.285 140.214 187.217 126.472C190.15 112.731 187.926 98.382 180.975 86.192C174.025 74.002 162.839 64.8331 149.573 60.4522C139.322 57.0672 128.39 56.726 118.058 59.3648C113.002 60.6564 107.423 58.5784 105.327 53.7988Z" fill="#FFC164"/>
<path d="M105.327 53.7988C103.245 49.0525 105.38 43.4532 110.342 41.9552C124.999 37.53 140.729 37.6886 155.409 42.5366C173.071 48.369 187.964 60.5762 197.218 76.8055C206.472 93.0349 209.432 112.138 205.528 130.433C201.624 148.729 191.132 164.922 176.074 175.892C161.016 186.862 142.457 191.833 123.975 189.847C105.492 187.861 88.3935 179.058 75.9739 165.135C63.5543 151.212 56.6926 133.154 56.7111 114.441C56.7264 98.9047 61.4833 83.8299 70.221 71.2062C73.1874 66.9207 79.2161 66.6393 83.0751 70.1425C86.8978 73.6127 87.1253 79.4854 84.3553 83.8422C78.5781 92.929 75.4502 103.543 75.4394 114.46C75.4256 128.516 80.5795 142.079 89.908 152.537C99.2364 162.995 112.079 169.607 125.962 171.099C139.844 172.59 153.784 168.857 165.094 160.617C176.404 152.377 184.285 140.214 187.217 126.472C190.15 112.731 187.926 98.382 180.975 86.192C174.025 74.002 162.839 64.8331 149.573 60.4522C139.322 57.0672 128.39 56.726 118.058 59.3648C113.002 60.6564 107.423 58.5784 105.327 53.7988Z" stroke="white" stroke-width="8.65385" mask="url(#path-2-inside-1_3240_183)"/>
</g>
<path d="M50.6721 265.64C50.6721 264.513 50.8714 263.413 51.2701 262.338C51.6688 261.246 52.2494 260.258 53.0121 259.374C53.7921 258.473 54.7368 257.762 55.8461 257.242C56.9554 256.705 58.2121 256.436 59.6161 256.436C61.2801 256.436 62.7188 256.817 63.9321 257.58C65.1454 258.325 66.0468 259.287 66.6361 260.466L64.3481 262C64.0014 261.255 63.5594 260.665 63.0221 260.232C62.5021 259.799 61.9301 259.495 61.3061 259.322C60.6994 259.149 60.1014 259.062 59.5121 259.062C58.5414 259.062 57.6921 259.261 56.9641 259.66C56.2361 260.041 55.6208 260.553 55.1181 261.194C54.6328 261.835 54.2601 262.555 54.0001 263.352C53.7574 264.149 53.6361 264.947 53.6361 265.744C53.6361 266.628 53.7834 267.486 54.0781 268.318C54.3728 269.133 54.7801 269.861 55.3001 270.502C55.8374 271.126 56.4701 271.62 57.1981 271.984C57.9261 272.348 58.7234 272.53 59.5901 272.53C60.1794 272.53 60.7948 272.426 61.4361 272.218C62.0774 272.01 62.6668 271.689 63.2041 271.256C63.7588 270.805 64.1921 270.216 64.5041 269.488L66.9221 270.866C66.5408 271.785 65.9428 272.565 65.1281 273.206C64.3308 273.847 63.4294 274.333 62.4241 274.662C61.4361 274.991 60.4568 275.156 59.4861 275.156C58.1861 275.156 56.9988 274.887 55.9241 274.35C54.8494 273.795 53.9221 273.067 53.1421 272.166C52.3621 271.247 51.7554 270.225 51.3221 269.098C50.8888 267.954 50.6721 266.801 50.6721 265.64ZM75.3361 275.26C74.2615 275.26 73.2995 275.078 72.4501 274.714C71.6008 274.333 70.8641 273.813 70.2401 273.154C69.6335 272.495 69.1655 271.75 68.8361 270.918C68.5068 270.069 68.3421 269.167 68.3421 268.214C68.3421 267.261 68.5068 266.359 68.8361 265.51C69.1655 264.661 69.6335 263.915 70.2401 263.274C70.8641 262.615 71.6008 262.104 72.4501 261.74C73.3168 261.359 74.2788 261.168 75.3361 261.168C76.3935 261.168 77.3468 261.359 78.1961 261.74C79.0628 262.104 79.7995 262.615 80.4061 263.274C81.0301 263.915 81.5068 264.661 81.8361 265.51C82.1655 266.359 82.3301 267.261 82.3301 268.214C82.3301 269.167 82.1655 270.069 81.8361 270.918C81.5068 271.75 81.0301 272.495 80.4061 273.154C79.7995 273.813 79.0628 274.333 78.1961 274.714C77.3468 275.078 76.3935 275.26 75.3361 275.26ZM71.2801 268.24C71.2801 269.107 71.4621 269.887 71.8261 270.58C72.1901 271.273 72.6755 271.819 73.2821 272.218C73.8888 272.617 74.5735 272.816 75.3361 272.816C76.0815 272.816 76.7575 272.617 77.3641 272.218C77.9881 271.802 78.4821 271.247 78.8461 270.554C79.2101 269.843 79.3921 269.063 79.3921 268.214C79.3921 267.347 79.2101 266.567 78.8461 265.874C78.4821 265.181 77.9881 264.635 77.3641 264.236C76.7575 263.82 76.0815 263.612 75.3361 263.612C74.5735 263.612 73.8888 263.82 73.2821 264.236C72.6755 264.652 72.1901 265.207 71.8261 265.9C71.4621 266.576 71.2801 267.356 71.2801 268.24ZM84.8928 256.02H87.7528V271.074C87.7528 271.767 87.8568 272.209 88.0648 272.4C88.2728 272.591 88.5328 272.686 88.8448 272.686C89.1914 272.686 89.5121 272.651 89.8068 272.582C90.1188 272.513 90.3874 272.426 90.6128 272.322L91.0288 274.584C90.6128 274.757 90.1188 274.905 89.5468 275.026C88.9748 275.147 88.4634 275.208 88.0128 275.208C87.0421 275.208 86.2794 274.939 85.7248 274.402C85.1701 273.847 84.8928 273.085 84.8928 272.114V256.02ZM92.7131 256.02H95.5731V271.074C95.5731 271.767 95.6771 272.209 95.8851 272.4C96.0931 272.591 96.3531 272.686 96.6651 272.686C97.0117 272.686 97.3324 272.651 97.6271 272.582C97.9391 272.513 98.2077 272.426 98.4331 272.322L98.8491 274.584C98.4331 274.757 97.9391 274.905 97.3671 275.026C96.7951 275.147 96.2837 275.208 95.8331 275.208C94.8624 275.208 94.0997 274.939 93.5451 274.402C92.9904 273.847 92.7131 273.085 92.7131 272.114V256.02ZM99.5194 271.022C99.5194 270.155 99.7621 269.401 100.247 268.76C100.75 268.101 101.435 267.599 102.301 267.252C103.168 266.888 104.173 266.706 105.317 266.706C105.924 266.706 106.539 266.749 107.163 266.836C107.805 266.923 108.368 267.061 108.853 267.252V266.394C108.853 265.441 108.567 264.695 107.995 264.158C107.423 263.621 106.6 263.352 105.525 263.352C104.763 263.352 104.043 263.491 103.367 263.768C102.691 264.028 101.972 264.401 101.209 264.886L100.247 262.962C101.149 262.355 102.05 261.905 102.951 261.61C103.87 261.315 104.832 261.168 105.837 261.168C107.657 261.168 109.087 261.653 110.127 262.624C111.185 263.577 111.713 264.938 111.713 266.706V271.776C111.713 272.105 111.765 272.339 111.869 272.478C111.991 272.617 112.19 272.695 112.467 272.712V275C112.207 275.052 111.973 275.087 111.765 275.104C111.557 275.121 111.384 275.13 111.245 275.13C110.639 275.13 110.179 274.983 109.867 274.688C109.555 274.393 109.373 274.047 109.321 273.648L109.243 272.868C108.654 273.631 107.9 274.22 106.981 274.636C106.063 275.052 105.135 275.26 104.199 275.26C103.298 275.26 102.492 275.078 101.781 274.714C101.071 274.333 100.516 273.821 100.117 273.18C99.7187 272.539 99.5194 271.819 99.5194 271.022ZM108.177 271.854C108.385 271.629 108.55 271.403 108.671 271.178C108.793 270.953 108.853 270.753 108.853 270.58V269.02C108.368 268.829 107.857 268.691 107.319 268.604C106.782 268.5 106.253 268.448 105.733 268.448C104.693 268.448 103.844 268.656 103.185 269.072C102.544 269.488 102.223 270.06 102.223 270.788C102.223 271.187 102.327 271.568 102.535 271.932C102.761 272.296 103.073 272.591 103.471 272.816C103.887 273.041 104.399 273.154 105.005 273.154C105.629 273.154 106.227 273.033 106.799 272.79C107.371 272.547 107.831 272.235 108.177 271.854ZM122.515 275.26C121.475 275.26 120.531 275.017 119.681 274.532C118.849 274.029 118.191 273.362 117.705 272.53V275H115.183V256.02H118.043V263.976C118.581 263.109 119.248 262.425 120.045 261.922C120.86 261.419 121.813 261.168 122.905 261.168C123.807 261.168 124.63 261.359 125.375 261.74C126.121 262.121 126.753 262.641 127.273 263.3C127.811 263.959 128.218 264.713 128.495 265.562C128.79 266.411 128.937 267.313 128.937 268.266C128.937 269.219 128.773 270.121 128.443 270.97C128.131 271.819 127.681 272.565 127.091 273.206C126.502 273.847 125.817 274.35 125.037 274.714C124.275 275.078 123.434 275.26 122.515 275.26ZM121.761 272.816C122.385 272.816 122.957 272.695 123.477 272.452C123.997 272.192 124.448 271.854 124.829 271.438C125.211 271.022 125.497 270.537 125.687 269.982C125.895 269.427 125.999 268.855 125.999 268.266C125.999 267.451 125.826 266.689 125.479 265.978C125.15 265.267 124.682 264.695 124.075 264.262C123.469 263.829 122.767 263.612 121.969 263.612C121.397 263.612 120.86 263.751 120.357 264.028C119.855 264.288 119.404 264.643 119.005 265.094C118.624 265.527 118.303 266.013 118.043 266.55V270.138C118.147 270.537 118.329 270.901 118.589 271.23C118.849 271.542 119.153 271.819 119.499 272.062C119.846 272.287 120.219 272.469 120.617 272.608C121.016 272.747 121.397 272.816 121.761 272.816ZM137.619 275.26C136.545 275.26 135.583 275.078 134.733 274.714C133.884 274.333 133.147 273.813 132.523 273.154C131.917 272.495 131.449 271.75 131.119 270.918C130.79 270.069 130.625 269.167 130.625 268.214C130.625 267.261 130.79 266.359 131.119 265.51C131.449 264.661 131.917 263.915 132.523 263.274C133.147 262.615 133.884 262.104 134.733 261.74C135.6 261.359 136.562 261.168 137.619 261.168C138.677 261.168 139.63 261.359 140.479 261.74C141.346 262.104 142.083 262.615 142.689 263.274C143.313 263.915 143.79 264.661 144.119 265.51C144.449 266.359 144.613 267.261 144.613 268.214C144.613 269.167 144.449 270.069 144.119 270.918C143.79 271.75 143.313 272.495 142.689 273.154C142.083 273.813 141.346 274.333 140.479 274.714C139.63 275.078 138.677 275.26 137.619 275.26ZM133.563 268.24C133.563 269.107 133.745 269.887 134.109 270.58C134.473 271.273 134.959 271.819 135.565 272.218C136.172 272.617 136.857 272.816 137.619 272.816C138.365 272.816 139.041 272.617 139.647 272.218C140.271 271.802 140.765 271.247 141.129 270.554C141.493 269.843 141.675 269.063 141.675 268.214C141.675 267.347 141.493 266.567 141.129 265.874C140.765 265.181 140.271 264.635 139.647 264.236C139.041 263.82 138.365 263.612 137.619 263.612C136.857 263.612 136.172 263.82 135.565 264.236C134.959 264.652 134.473 265.207 134.109 265.9C133.745 266.576 133.563 267.356 133.563 268.24ZM154.794 263.872C153.685 263.889 152.697 264.141 151.83 264.626C150.981 265.111 150.374 265.796 150.01 266.68V275H147.15V261.402H149.802V264.444C150.27 263.508 150.885 262.763 151.648 262.208C152.411 261.636 153.217 261.324 154.066 261.272C154.239 261.272 154.378 261.272 154.482 261.272C154.603 261.272 154.707 261.281 154.794 261.298V263.872ZM155.861 271.022C155.861 270.155 156.104 269.401 156.589 268.76C157.092 268.101 157.777 267.599 158.643 267.252C159.51 266.888 160.515 266.706 161.659 266.706C162.266 266.706 162.881 266.749 163.505 266.836C164.147 266.923 164.71 267.061 165.195 267.252V266.394C165.195 265.441 164.909 264.695 164.337 264.158C163.765 263.621 162.942 263.352 161.867 263.352C161.105 263.352 160.385 263.491 159.709 263.768C159.033 264.028 158.314 264.401 157.551 264.886L156.589 262.962C157.491 262.355 158.392 261.905 159.293 261.61C160.212 261.315 161.174 261.168 162.179 261.168C163.999 261.168 165.429 261.653 166.469 262.624C167.527 263.577 168.055 264.938 168.055 266.706V271.776C168.055 272.105 168.107 272.339 168.211 272.478C168.333 272.617 168.532 272.695 168.809 272.712V275C168.549 275.052 168.315 275.087 168.107 275.104C167.899 275.121 167.726 275.13 167.587 275.13C166.981 275.13 166.521 274.983 166.209 274.688C165.897 274.393 165.715 274.047 165.663 273.648L165.585 272.868C164.996 273.631 164.242 274.22 163.323 274.636C162.405 275.052 161.477 275.26 160.541 275.26C159.64 275.26 158.834 275.078 158.123 274.714C157.413 274.333 156.858 273.821 156.459 273.18C156.061 272.539 155.861 271.819 155.861 271.022ZM164.519 271.854C164.727 271.629 164.892 271.403 165.013 271.178C165.135 270.953 165.195 270.753 165.195 270.58V269.02C164.71 268.829 164.199 268.691 163.661 268.604C163.124 268.5 162.595 268.448 162.075 268.448C161.035 268.448 160.186 268.656 159.527 269.072C158.886 269.488 158.565 270.06 158.565 270.788C158.565 271.187 158.669 271.568 158.877 271.932C159.103 272.296 159.415 272.591 159.813 272.816C160.229 273.041 160.741 273.154 161.347 273.154C161.971 273.154 162.569 273.033 163.141 272.79C163.713 272.547 164.173 272.235 164.519 271.854ZM178.989 274.298C178.747 274.419 178.443 274.549 178.079 274.688C177.715 274.827 177.299 274.948 176.831 275.052C176.381 275.156 175.913 275.208 175.427 275.208C174.838 275.208 174.292 275.104 173.789 274.896C173.287 274.688 172.879 274.359 172.567 273.908C172.273 273.44 172.125 272.842 172.125 272.114V263.612H170.331V261.402H172.125V256.93H174.985V261.402H177.949V263.612H174.985V271.204C175.02 271.672 175.167 272.019 175.427 272.244C175.705 272.469 176.043 272.582 176.441 272.582C176.84 272.582 177.221 272.513 177.585 272.374C177.949 272.235 178.218 272.123 178.391 272.036L178.989 274.298ZM180.97 275V261.402H183.83V275H180.97ZM180.97 259.166V256.02H183.83V259.166H180.97ZM191.063 275L185.889 261.402H188.853L192.727 272.348L196.601 261.402H199.357L194.183 275H191.063ZM207.115 275.26C206.057 275.26 205.095 275.078 204.229 274.714C203.379 274.333 202.643 273.821 202.019 273.18C201.395 272.521 200.909 271.776 200.563 270.944C200.233 270.095 200.069 269.193 200.069 268.24C200.069 266.957 200.363 265.787 200.953 264.73C201.542 263.655 202.365 262.797 203.423 262.156C204.48 261.497 205.719 261.168 207.141 261.168C208.562 261.168 209.784 261.497 210.807 262.156C211.847 262.797 212.653 263.647 213.225 264.704C213.797 265.761 214.083 266.897 214.083 268.11C214.083 268.318 214.074 268.517 214.057 268.708C214.039 268.881 214.022 269.029 214.005 269.15H203.111C203.163 269.947 203.379 270.649 203.761 271.256C204.159 271.845 204.662 272.313 205.269 272.66C205.875 272.989 206.525 273.154 207.219 273.154C207.981 273.154 208.701 272.963 209.377 272.582C210.07 272.201 210.538 271.698 210.781 271.074L213.225 271.776C212.93 272.435 212.479 273.033 211.873 273.57C211.283 274.09 210.581 274.506 209.767 274.818C208.952 275.113 208.068 275.26 207.115 275.26ZM203.033 267.252H211.249C211.197 266.472 210.971 265.787 210.573 265.198C210.191 264.591 209.697 264.123 209.091 263.794C208.501 263.447 207.843 263.274 207.115 263.274C206.404 263.274 205.745 263.447 205.139 263.794C204.549 264.123 204.064 264.591 203.683 265.198C203.301 265.787 203.085 266.472 203.033 267.252Z" fill="black"/>
<path d="M115.397 107.28H101.609V105.012H119.285L106.361 130.572H103.553L115.397 107.28ZM134.662 107.28H120.874V105.012H138.55L125.626 130.572H122.818L134.662 107.28ZM145.756 110.412C144.772 110.412 143.872 110.184 143.056 109.728C142.24 109.272 141.58 108.648 141.076 107.856C140.596 107.064 140.356 106.2 140.356 105.264C140.356 104.304 140.596 103.428 141.076 102.636C141.58 101.844 142.24 101.22 143.056 100.764C143.872 100.308 144.772 100.08 145.756 100.08C146.74 100.08 147.64 100.308 148.456 100.764C149.272 101.22 149.92 101.844 150.4 102.636C150.88 103.428 151.12 104.292 151.12 105.228C151.12 106.188 150.88 107.064 150.4 107.856C149.92 108.648 149.272 109.272 148.456 109.728C147.64 110.184 146.74 110.412 145.756 110.412ZM145.756 109.008C146.404 109.008 146.992 108.84 147.52 108.504C148.072 108.144 148.504 107.676 148.816 107.1C149.128 106.524 149.284 105.912 149.284 105.264C149.284 104.568 149.116 103.932 148.78 103.356C148.444 102.78 148 102.336 147.448 102.024C146.92 101.688 146.356 101.52 145.756 101.52C145.084 101.52 144.484 101.7 143.956 102.06C143.428 102.396 142.996 102.852 142.66 103.428C142.348 103.98 142.192 104.58 142.192 105.228C142.192 105.924 142.348 106.56 142.66 107.136C142.996 107.688 143.428 108.144 143.956 108.504C144.508 108.84 145.108 109.008 145.756 109.008ZM157.816 126.36C156.832 126.36 155.932 126.132 155.116 125.676C154.3 125.22 153.652 124.596 153.172 123.804C152.692 123.012 152.452 122.136 152.452 121.176C152.452 120.216 152.692 119.352 153.172 118.584C153.652 117.792 154.3 117.168 155.116 116.712C155.932 116.256 156.832 116.028 157.816 116.028C158.824 116.028 159.736 116.256 160.552 116.712C161.368 117.168 162.016 117.792 162.496 118.584C162.976 119.352 163.216 120.216 163.216 121.176C163.216 122.136 162.976 123.012 162.496 123.804C162.016 124.572 161.368 125.196 160.552 125.676C159.736 126.132 158.824 126.36 157.816 126.36ZM157.816 124.92C158.488 124.92 159.088 124.752 159.616 124.416C160.168 124.056 160.588 123.6 160.876 123.048C161.188 122.472 161.344 121.86 161.344 121.212C161.344 120.516 161.176 119.88 160.84 119.304C160.528 118.728 160.096 118.272 159.544 117.936C159.016 117.6 158.44 117.432 157.816 117.432C157.168 117.432 156.568 117.612 156.016 117.972C155.488 118.308 155.068 118.764 154.756 119.34C154.444 119.916 154.288 120.528 154.288 121.176C154.288 121.872 154.444 122.508 154.756 123.084C155.092 123.636 155.524 124.08 156.052 124.416C156.604 124.752 157.192 124.92 157.816 124.92ZM141.22 125.028L151.3 112.788L161.056 100.296L162.316 101.376L152.308 113.616L142.48 126.144L141.22 125.028Z" fill="black"/>
<defs>
<filter id="filter0_d_3240_183" x="43.5859" y="26.2733" width="176.746" height="177.762" filterUnits="userSpaceOnUse" color-interpolation-filters="sRGB">
<feFlood flood-opacity="0" result="BackgroundImageFix"/>
<feColorMatrix in="SourceAlpha" type="matrix" values="0 0 0 0 0 0 0 0 0 0 0 0 0 0 0 0 0 0 127 0" result="hardAlpha"/>
<feOffset dy="0.634615"/>
<feGaussianBlur stdDeviation="6.5625"/>
<feComposite in2="hardAlpha" operator="out"/>
<feColorMatrix type="matrix" values="0 0 0 0 0.93 0 0 0 0 0.93 0 0 0 0 0.93 0 0 0 1 0"/>
<feBlend mode="normal" in2="BackgroundImageFix" result="effect1_dropShadow_3240_183"/>
<feBlend mode="normal" in="SourceGraphic" in2="effect1_dropShadow_3240_183" result="shape"/>
</filter>
</defs>
</svg>
