<svg width="265" height="350" viewBox="0 0 265 350" fill="none" xmlns="http://www.w3.org/2000/svg">
<rect x="0.721154" y="1.02779" width="263.558" height="347.558" rx="12.2596" fill="white" stroke="#FF9901" stroke-width="1.44231"/>
<g filter="url(#filter0_d_3240_185)">
<mask id="path-2-inside-1_3240_185" fill="white">
<path d="M105.325 53.7916C103.244 49.0482 105.378 43.4523 110.336 41.9549C124.995 37.528 140.727 37.686 155.409 42.5346C173.071 48.3671 187.964 60.5742 197.218 76.8036C206.472 93.0329 209.432 112.136 205.528 130.431C201.624 148.727 191.132 164.92 176.074 175.89C161.016 186.86 142.457 191.831 123.975 189.845C105.492 187.859 88.3935 179.056 75.9739 165.133C63.5543 151.21 56.6926 133.152 56.7111 114.439C56.7264 98.9008 61.4845 83.8242 70.2243 71.1996C73.1892 66.9169 79.2142 66.6356 83.0709 70.1367C86.8912 73.6048 87.1187 79.4739 84.3498 83.8277C78.5689 92.9178 75.4389 103.536 75.4281 114.458C75.4142 128.517 80.5691 142.083 89.8995 152.543C99.2299 163.003 112.075 169.616 125.961 171.108C139.846 172.6 153.788 168.866 165.1 160.624C176.413 152.383 184.295 140.218 187.228 126.473C190.161 112.728 187.937 98.3768 180.985 86.1843C174.033 73.9919 162.845 64.8211 149.576 60.4394C139.321 57.0529 128.385 56.7122 118.048 59.3537C112.995 60.6451 107.42 58.5684 105.325 53.7916Z"/>
</mask>
<path d="M105.325 53.7916C103.244 49.0482 105.378 43.4523 110.336 41.9549C124.995 37.528 140.727 37.686 155.409 42.5346C173.071 48.3671 187.964 60.5742 197.218 76.8036C206.472 93.0329 209.432 112.136 205.528 130.431C201.624 148.727 191.132 164.92 176.074 175.89C161.016 186.86 142.457 191.831 123.975 189.845C105.492 187.859 88.3935 179.056 75.9739 165.133C63.5543 151.21 56.6926 133.152 56.7111 114.439C56.7264 98.9008 61.4845 83.8242 70.2243 71.1996C73.1892 66.9169 79.2142 66.6356 83.0709 70.1367C86.8912 73.6048 87.1187 79.4739 84.3498 83.8277C78.5689 92.9178 75.4389 103.536 75.4281 114.458C75.4142 128.517 80.5691 142.083 89.8995 152.543C99.2299 163.003 112.075 169.616 125.961 171.108C139.846 172.6 153.788 168.866 165.1 160.624C176.413 152.383 184.295 140.218 187.228 126.473C190.161 112.728 187.937 98.3768 180.985 86.1843C174.033 73.9919 162.845 64.8211 149.576 60.4394C139.321 57.0529 128.385 56.7122 118.048 59.3537C112.995 60.6451 107.42 58.5684 105.325 53.7916Z" fill="#FFC164"/>
<path d="M105.325 53.7916C103.244 49.0482 105.378 43.4523 110.336 41.9549C124.995 37.528 140.727 37.686 155.409 42.5346C173.071 48.3671 187.964 60.5742 197.218 76.8036C206.472 93.0329 209.432 112.136 205.528 130.431C201.624 148.727 191.132 164.92 176.074 175.89C161.016 186.86 142.457 191.831 123.975 189.845C105.492 187.859 88.3935 179.056 75.9739 165.133C63.5543 151.21 56.6926 133.152 56.7111 114.439C56.7264 98.9008 61.4845 83.8242 70.2243 71.1996C73.1892 66.9169 79.2142 66.6356 83.0709 70.1367C86.8912 73.6048 87.1187 79.4739 84.3498 83.8277C78.5689 92.9178 75.4389 103.536 75.4281 114.458C75.4142 128.517 80.5691 142.083 89.8995 152.543C99.2299 163.003 112.075 169.616 125.961 171.108C139.846 172.6 153.788 168.866 165.1 160.624C176.413 152.383 184.295 140.218 187.228 126.473C190.161 112.728 187.937 98.3768 180.985 86.1843C174.033 73.9919 162.845 64.8211 149.576 60.4394C139.321 57.0529 128.385 56.7122 118.048 59.3537C112.995 60.6451 107.42 58.5684 105.325 53.7916Z" stroke="white" stroke-width="8.65385" mask="url(#path-2-inside-1_3240_185)"/>
</g>
<path d="M48.3006 247.638C48.3006 246.511 48.5 245.411 48.8986 244.336C49.2973 243.244 49.878 242.256 50.6406 241.372C51.4206 240.471 52.3653 239.76 53.4746 239.24C54.584 238.703 55.8406 238.434 57.2446 238.434C58.9086 238.434 60.3473 238.815 61.5606 239.578C62.774 240.323 63.6753 241.285 64.2646 242.464L61.9766 243.998C61.63 243.253 61.188 242.663 60.6506 242.23C60.1306 241.797 59.5586 241.493 58.9346 241.32C58.328 241.147 57.73 241.06 57.1406 241.06C56.17 241.06 55.3206 241.259 54.5926 241.658C53.8646 242.039 53.2493 242.551 52.7466 243.192C52.2613 243.833 51.8886 244.553 51.6286 245.35C51.386 246.147 51.2646 246.945 51.2646 247.742C51.2646 248.626 51.412 249.484 51.7066 250.316C52.0013 251.131 52.4086 251.859 52.9286 252.5C53.466 253.124 54.0986 253.618 54.8266 253.982C55.5546 254.346 56.352 254.528 57.2186 254.528C57.808 254.528 58.4233 254.424 59.0646 254.216C59.706 254.008 60.2953 253.687 60.8326 253.254C61.3873 252.803 61.8206 252.214 62.1326 251.486L64.5506 252.864C64.1693 253.783 63.5713 254.563 62.7566 255.204C61.9593 255.845 61.058 256.331 60.0526 256.66C59.0646 256.989 58.0853 257.154 57.1146 257.154C55.8146 257.154 54.6273 256.885 53.5526 256.348C52.478 255.793 51.5506 255.065 50.7706 254.164C49.9906 253.245 49.384 252.223 48.9506 251.096C48.5173 249.952 48.3006 248.799 48.3006 247.638ZM72.9647 257.258C71.89 257.258 70.928 257.076 70.0787 256.712C69.2293 256.331 68.4927 255.811 67.8687 255.152C67.262 254.493 66.794 253.748 66.4647 252.916C66.1353 252.067 65.9707 251.165 65.9707 250.212C65.9707 249.259 66.1353 248.357 66.4647 247.508C66.794 246.659 67.262 245.913 67.8687 245.272C68.4927 244.613 69.2293 244.102 70.0787 243.738C70.9453 243.357 71.9073 243.166 72.9647 243.166C74.022 243.166 74.9753 243.357 75.8247 243.738C76.6913 244.102 77.428 244.613 78.0347 245.272C78.6587 245.913 79.1353 246.659 79.4647 247.508C79.794 248.357 79.9587 249.259 79.9587 250.212C79.9587 251.165 79.794 252.067 79.4647 252.916C79.1353 253.748 78.6587 254.493 78.0347 255.152C77.428 255.811 76.6913 256.331 75.8247 256.712C74.9753 257.076 74.022 257.258 72.9647 257.258ZM68.9087 250.238C68.9087 251.105 69.0907 251.885 69.4547 252.578C69.8187 253.271 70.304 253.817 70.9107 254.216C71.5173 254.615 72.202 254.814 72.9647 254.814C73.71 254.814 74.386 254.615 74.9927 254.216C75.6167 253.8 76.1107 253.245 76.4747 252.552C76.8387 251.841 77.0207 251.061 77.0207 250.212C77.0207 249.345 76.8387 248.565 76.4747 247.872C76.1107 247.179 75.6167 246.633 74.9927 246.234C74.386 245.818 73.71 245.61 72.9647 245.61C72.202 245.61 71.5173 245.818 70.9107 246.234C70.304 246.65 69.8187 247.205 69.4547 247.898C69.0907 248.574 68.9087 249.354 68.9087 250.238ZM103.295 256.998H100.435V249.38C100.435 248.115 100.227 247.187 99.8113 246.598C99.3953 246.009 98.7886 245.714 97.9913 245.714C97.194 245.714 96.4486 246.017 95.7553 246.624C95.0793 247.213 94.6026 247.985 94.3253 248.938V256.998H91.4653V249.38C91.4653 248.115 91.2573 247.187 90.8413 246.598C90.4253 246.009 89.8273 245.714 89.0473 245.714C88.25 245.714 87.5046 246.009 86.8113 246.598C86.1353 247.187 85.65 247.959 85.3553 248.912V256.998H82.4953V243.4H85.0953V246.13C85.6326 245.177 86.3346 244.449 87.2013 243.946C88.0853 243.426 89.0906 243.166 90.2173 243.166C91.344 243.166 92.228 243.461 92.8693 244.05C93.528 244.639 93.9353 245.376 94.0913 246.26C94.6806 245.255 95.4 244.492 96.2493 243.972C97.116 243.435 98.104 243.166 99.2133 243.166C100.011 243.166 100.678 243.313 101.215 243.608C101.753 243.903 102.169 244.31 102.463 244.83C102.758 245.333 102.966 245.922 103.087 246.598C103.226 247.257 103.295 247.959 103.295 248.704V256.998ZM127.391 256.998H124.531V249.38C124.531 248.115 124.323 247.187 123.907 246.598C123.491 246.009 122.884 245.714 122.087 245.714C121.29 245.714 120.544 246.017 119.851 246.624C119.175 247.213 118.698 247.985 118.421 248.938V256.998H115.561V249.38C115.561 248.115 115.353 247.187 114.937 246.598C114.521 246.009 113.923 245.714 113.143 245.714C112.346 245.714 111.6 246.009 110.907 246.598C110.231 247.187 109.746 247.959 109.451 248.912V256.998H106.591V243.4H109.191V246.13C109.728 245.177 110.43 244.449 111.297 243.946C112.181 243.426 113.186 243.166 114.313 243.166C115.44 243.166 116.324 243.461 116.965 244.05C117.624 244.639 118.031 245.376 118.187 246.26C118.776 245.255 119.496 244.492 120.345 243.972C121.212 243.435 122.2 243.166 123.309 243.166C124.106 243.166 124.774 243.313 125.311 243.608C125.848 243.903 126.264 244.31 126.559 244.83C126.854 245.333 127.062 245.922 127.183 246.598C127.322 247.257 127.391 247.959 127.391 248.704V256.998ZM130.687 256.998V243.4H133.547V256.998H130.687ZM130.687 241.164V238.018H133.547V241.164H130.687ZM144.55 256.296C144.307 256.417 144.004 256.547 143.64 256.686C143.276 256.825 142.86 256.946 142.392 257.05C141.941 257.154 141.473 257.206 140.988 257.206C140.398 257.206 139.852 257.102 139.35 256.894C138.847 256.686 138.44 256.357 138.128 255.906C137.833 255.438 137.686 254.84 137.686 254.112V245.61H135.892V243.4H137.686V238.928H140.546V243.4H143.51V245.61H140.546V253.202C140.58 253.67 140.728 254.017 140.988 254.242C141.265 254.467 141.603 254.58 142.002 254.58C142.4 254.58 142.782 254.511 143.146 254.372C143.51 254.233 143.778 254.121 143.952 254.034L144.55 256.296ZM154.071 256.296C153.828 256.417 153.525 256.547 153.161 256.686C152.797 256.825 152.381 256.946 151.913 257.05C151.462 257.154 150.994 257.206 150.509 257.206C149.92 257.206 149.374 257.102 148.871 256.894C148.368 256.686 147.961 256.357 147.649 255.906C147.354 255.438 147.207 254.84 147.207 254.112V245.61H145.413V243.4H147.207V238.928H150.067V243.4H153.031V245.61H150.067V253.202C150.102 253.67 150.249 254.017 150.509 254.242C150.786 254.467 151.124 254.58 151.523 254.58C151.922 254.58 152.303 254.511 152.667 254.372C153.031 254.233 153.3 254.121 153.473 254.034L154.071 256.296ZM162.036 257.258C160.979 257.258 160.017 257.076 159.15 256.712C158.301 256.331 157.564 255.819 156.94 255.178C156.316 254.519 155.831 253.774 155.484 252.942C155.155 252.093 154.99 251.191 154.99 250.238C154.99 248.955 155.285 247.785 155.874 246.728C156.464 245.653 157.287 244.795 158.344 244.154C159.402 243.495 160.641 243.166 162.062 243.166C163.484 243.166 164.706 243.495 165.728 244.154C166.768 244.795 167.574 245.645 168.146 246.702C168.718 247.759 169.004 248.895 169.004 250.108C169.004 250.316 168.996 250.515 168.978 250.706C168.961 250.879 168.944 251.027 168.926 251.148H158.032C158.084 251.945 158.301 252.647 158.682 253.254C159.081 253.843 159.584 254.311 160.19 254.658C160.797 254.987 161.447 255.152 162.14 255.152C162.903 255.152 163.622 254.961 164.298 254.58C164.992 254.199 165.46 253.696 165.702 253.072L168.146 253.774C167.852 254.433 167.401 255.031 166.794 255.568C166.205 256.088 165.503 256.504 164.688 256.816C163.874 257.111 162.99 257.258 162.036 257.258ZM157.954 249.25H166.17C166.118 248.47 165.893 247.785 165.494 247.196C165.113 246.589 164.619 246.121 164.012 245.792C163.423 245.445 162.764 245.272 162.036 245.272C161.326 245.272 160.667 245.445 160.06 245.792C159.471 246.121 158.986 246.589 158.604 247.196C158.223 247.785 158.006 248.47 157.954 249.25ZM170.479 250.212C170.479 248.912 170.739 247.733 171.259 246.676C171.796 245.601 172.524 244.752 173.443 244.128C174.362 243.487 175.419 243.166 176.615 243.166C177.655 243.166 178.591 243.435 179.423 243.972C180.272 244.509 180.931 245.177 181.399 245.974V238.018H184.259V253.774C184.259 254.103 184.32 254.337 184.441 254.476C184.562 254.615 184.762 254.693 185.039 254.71V256.998C184.502 257.085 184.086 257.128 183.791 257.128C183.254 257.128 182.794 256.972 182.413 256.66C182.049 256.348 181.858 255.975 181.841 255.542L181.815 254.528C181.295 255.395 180.593 256.071 179.709 256.556C178.825 257.024 177.906 257.258 176.953 257.258C176.017 257.258 175.15 257.076 174.353 256.712C173.573 256.348 172.888 255.837 172.299 255.178C171.727 254.519 171.276 253.765 170.947 252.916C170.635 252.067 170.479 251.165 170.479 250.212ZM181.399 252.11V248.548C181.208 247.993 180.896 247.499 180.463 247.066C180.047 246.615 179.57 246.26 179.033 246C178.513 245.74 177.993 245.61 177.473 245.61C176.866 245.61 176.312 245.74 175.809 246C175.324 246.26 174.899 246.607 174.535 247.04C174.188 247.473 173.92 247.967 173.729 248.522C173.538 249.077 173.443 249.657 173.443 250.264C173.443 250.888 173.547 251.477 173.755 252.032C173.963 252.569 174.258 253.055 174.639 253.488C175.038 253.904 175.488 254.233 175.991 254.476C176.511 254.701 177.074 254.814 177.681 254.814C178.062 254.814 178.444 254.745 178.825 254.606C179.224 254.467 179.596 254.277 179.943 254.034C180.307 253.791 180.61 253.505 180.853 253.176C181.113 252.847 181.295 252.491 181.399 252.11ZM201.882 256.296C201.639 256.417 201.336 256.547 200.972 256.686C200.608 256.825 200.192 256.946 199.724 257.05C199.273 257.154 198.805 257.206 198.32 257.206C197.73 257.206 197.184 257.102 196.682 256.894C196.179 256.686 195.772 256.357 195.46 255.906C195.165 255.438 195.018 254.84 195.018 254.112V245.61H193.224V243.4H195.018V238.928H197.878V243.4H200.842V245.61H197.878V253.202C197.912 253.67 198.06 254.017 198.32 254.242C198.597 254.467 198.935 254.58 199.334 254.58C199.732 254.58 200.114 254.511 200.478 254.372C200.842 254.233 201.11 254.121 201.284 254.034L201.882 256.296ZM209.795 257.258C208.72 257.258 207.758 257.076 206.909 256.712C206.059 256.331 205.323 255.811 204.699 255.152C204.092 254.493 203.624 253.748 203.295 252.916C202.965 252.067 202.801 251.165 202.801 250.212C202.801 249.259 202.965 248.357 203.295 247.508C203.624 246.659 204.092 245.913 204.699 245.272C205.323 244.613 206.059 244.102 206.909 243.738C207.775 243.357 208.737 243.166 209.795 243.166C210.852 243.166 211.805 243.357 212.655 243.738C213.521 244.102 214.258 244.613 214.865 245.272C215.489 245.913 215.965 246.659 216.295 247.508C216.624 248.357 216.789 249.259 216.789 250.212C216.789 251.165 216.624 252.067 216.295 252.916C215.965 253.748 215.489 254.493 214.865 255.152C214.258 255.811 213.521 256.331 212.655 256.712C211.805 257.076 210.852 257.258 209.795 257.258ZM205.739 250.238C205.739 251.105 205.921 251.885 206.285 252.578C206.649 253.271 207.134 253.817 207.741 254.216C208.347 254.615 209.032 254.814 209.795 254.814C210.54 254.814 211.216 254.615 211.823 254.216C212.447 253.8 212.941 253.245 213.305 252.552C213.669 251.841 213.851 251.061 213.851 250.212C213.851 249.345 213.669 248.565 213.305 247.872C212.941 247.179 212.447 246.633 211.823 246.234C211.216 245.818 210.54 245.61 209.795 245.61C209.032 245.61 208.347 245.818 207.741 246.234C207.134 246.65 206.649 247.205 206.285 247.898C205.921 248.574 205.739 249.354 205.739 250.238ZM42.1238 292.296C41.8811 292.417 41.5778 292.547 41.2138 292.686C40.8498 292.825 40.4338 292.946 39.9658 293.05C39.5151 293.154 39.0471 293.206 38.5618 293.206C37.9725 293.206 37.4265 293.102 36.9238 292.894C36.4211 292.686 36.0138 292.357 35.7018 291.906C35.4071 291.438 35.2598 290.84 35.2598 290.112V281.61H33.4658V279.4H35.2598V274.928H38.1198V279.4H41.0838V281.61H38.1198V289.202C38.1545 289.67 38.3018 290.017 38.5618 290.242C38.8391 290.467 39.1771 290.58 39.5758 290.58C39.9745 290.58 40.3558 290.511 40.7198 290.372C41.0838 290.233 41.3525 290.121 41.5258 290.034L42.1238 292.296ZM56.2987 292.998H53.4387V285.38C53.4387 284.149 53.2133 283.231 52.7627 282.624C52.312 282.017 51.6793 281.714 50.8647 281.714C50.362 281.714 49.842 281.853 49.3047 282.13C48.7673 282.407 48.2907 282.789 47.8747 283.274C47.4587 283.742 47.1553 284.288 46.9647 284.912V292.998H44.1047V274.018H46.9647V282.13C47.4847 281.211 48.1953 280.492 49.0967 279.972C49.998 279.435 50.9687 279.166 52.0087 279.166C52.858 279.166 53.56 279.313 54.1147 279.608C54.6693 279.903 55.1027 280.31 55.4147 280.83C55.744 281.333 55.9693 281.922 56.0907 282.598C56.2293 283.257 56.2987 283.959 56.2987 284.704V292.998ZM65.7803 293.258C64.723 293.258 63.761 293.076 62.8943 292.712C62.045 292.331 61.3083 291.819 60.6843 291.178C60.0603 290.519 59.575 289.774 59.2283 288.942C58.899 288.093 58.7343 287.191 58.7343 286.238C58.7343 284.955 59.029 283.785 59.6183 282.728C60.2077 281.653 61.031 280.795 62.0883 280.154C63.1457 279.495 64.385 279.166 65.8063 279.166C67.2277 279.166 68.4497 279.495 69.4723 280.154C70.5123 280.795 71.3183 281.645 71.8903 282.702C72.4623 283.759 72.7483 284.895 72.7483 286.108C72.7483 286.316 72.7397 286.515 72.7223 286.706C72.705 286.879 72.6877 287.027 72.6703 287.148H61.7763C61.8283 287.945 62.045 288.647 62.4263 289.254C62.825 289.843 63.3277 290.311 63.9343 290.658C64.541 290.987 65.191 291.152 65.8843 291.152C66.647 291.152 67.3663 290.961 68.0423 290.58C68.7357 290.199 69.2037 289.696 69.4463 289.072L71.8903 289.774C71.5957 290.433 71.145 291.031 70.5383 291.568C69.949 292.088 69.247 292.504 68.4323 292.816C67.6177 293.111 66.7337 293.258 65.7803 293.258ZM61.6983 285.25H69.9143C69.8623 284.47 69.637 283.785 69.2383 283.196C68.857 282.589 68.363 282.121 67.7563 281.792C67.167 281.445 66.5083 281.272 65.7803 281.272C65.0697 281.272 64.411 281.445 63.8043 281.792C63.215 282.121 62.7297 282.589 62.3483 283.196C61.967 283.785 61.7503 284.47 61.6983 285.25ZM87.6151 293.258C86.5404 293.258 85.5784 293.076 84.7291 292.712C83.8797 292.331 83.1431 291.811 82.5191 291.152C81.9124 290.493 81.4444 289.748 81.1151 288.916C80.7857 288.067 80.6211 287.165 80.6211 286.212C80.6211 285.259 80.7857 284.357 81.1151 283.508C81.4444 282.659 81.9124 281.913 82.5191 281.272C83.1431 280.613 83.8797 280.102 84.7291 279.738C85.5957 279.357 86.5577 279.166 87.6151 279.166C88.6724 279.166 89.6257 279.357 90.4751 279.738C91.3417 280.102 92.0784 280.613 92.6851 281.272C93.3091 281.913 93.7857 282.659 94.1151 283.508C94.4444 284.357 94.6091 285.259 94.6091 286.212C94.6091 287.165 94.4444 288.067 94.1151 288.916C93.7857 289.748 93.3091 290.493 92.6851 291.152C92.0784 291.811 91.3417 292.331 90.4751 292.712C89.6257 293.076 88.6724 293.258 87.6151 293.258ZM83.5591 286.238C83.5591 287.105 83.7411 287.885 84.1051 288.578C84.4691 289.271 84.9544 289.817 85.5611 290.216C86.1677 290.615 86.8524 290.814 87.6151 290.814C88.3604 290.814 89.0364 290.615 89.6431 290.216C90.2671 289.8 90.7611 289.245 91.1251 288.552C91.4891 287.841 91.6711 287.061 91.6711 286.212C91.6711 285.345 91.4891 284.565 91.1251 283.872C90.7611 283.179 90.2671 282.633 89.6431 282.234C89.0364 281.818 88.3604 281.61 87.6151 281.61C86.8524 281.61 86.1677 281.818 85.5611 282.234C84.9544 282.65 84.4691 283.205 84.1051 283.898C83.7411 284.574 83.5591 285.354 83.5591 286.238ZM104.79 281.87C103.68 281.887 102.692 282.139 101.826 282.624C100.976 283.109 100.37 283.794 100.006 284.678V292.998H97.1457V279.4H99.7977V282.442C100.266 281.506 100.881 280.761 101.644 280.206C102.406 279.634 103.212 279.322 104.062 279.27C104.235 279.27 104.374 279.27 104.478 279.27C104.599 279.27 104.703 279.279 104.79 279.296V281.87ZM112.075 293.128C111.156 293.128 110.315 292.946 109.553 292.582C108.79 292.201 108.131 291.689 107.577 291.048C107.039 290.407 106.615 289.67 106.303 288.838C106.008 288.006 105.861 287.131 105.861 286.212C105.861 285.241 106.017 284.331 106.329 283.482C106.641 282.633 107.074 281.887 107.629 281.246C108.201 280.587 108.868 280.076 109.631 279.712C110.393 279.348 111.243 279.166 112.179 279.166C113.271 279.166 114.224 279.426 115.039 279.946C115.871 280.466 116.555 281.142 117.093 281.974V279.4H119.615V292.608C119.615 293.925 119.294 295.043 118.653 295.962C118.029 296.881 117.171 297.583 116.079 298.068C114.987 298.553 113.756 298.796 112.387 298.796C110.879 298.796 109.631 298.536 108.643 298.016C107.655 297.496 106.814 296.785 106.121 295.884L107.733 294.376C108.253 295.104 108.92 295.659 109.735 296.04C110.567 296.421 111.451 296.612 112.387 296.612C113.167 296.612 113.886 296.465 114.545 296.17C115.221 295.893 115.758 295.451 116.157 294.844C116.555 294.255 116.755 293.509 116.755 292.608V290.528C116.269 291.343 115.602 291.984 114.753 292.452C113.903 292.903 113.011 293.128 112.075 293.128ZM113.011 290.814C113.444 290.814 113.86 290.745 114.259 290.606C114.657 290.45 115.021 290.251 115.351 290.008C115.697 289.748 115.992 289.462 116.235 289.15C116.477 288.821 116.651 288.474 116.755 288.11V284.548C116.529 283.959 116.209 283.447 115.793 283.014C115.377 282.563 114.909 282.217 114.389 281.974C113.869 281.731 113.34 281.61 112.803 281.61C112.179 281.61 111.615 281.749 111.113 282.026C110.627 282.286 110.211 282.641 109.865 283.092C109.518 283.525 109.249 284.019 109.059 284.574C108.868 285.129 108.773 285.701 108.773 286.29C108.773 286.914 108.877 287.495 109.085 288.032C109.31 288.569 109.613 289.055 109.995 289.488C110.376 289.904 110.827 290.233 111.347 290.476C111.867 290.701 112.421 290.814 113.011 290.814ZM122.056 289.02C122.056 288.153 122.299 287.399 122.784 286.758C123.287 286.099 123.971 285.597 124.838 285.25C125.705 284.886 126.71 284.704 127.854 284.704C128.461 284.704 129.076 284.747 129.7 284.834C130.341 284.921 130.905 285.059 131.39 285.25V284.392C131.39 283.439 131.104 282.693 130.532 282.156C129.96 281.619 129.137 281.35 128.062 281.35C127.299 281.35 126.58 281.489 125.904 281.766C125.228 282.026 124.509 282.399 123.746 282.884L122.784 280.96C123.685 280.353 124.587 279.903 125.488 279.608C126.407 279.313 127.369 279.166 128.374 279.166C130.194 279.166 131.624 279.651 132.664 280.622C133.721 281.575 134.25 282.936 134.25 284.704V289.774C134.25 290.103 134.302 290.337 134.406 290.476C134.527 290.615 134.727 290.693 135.004 290.71V292.998C134.744 293.05 134.51 293.085 134.302 293.102C134.094 293.119 133.921 293.128 133.782 293.128C133.175 293.128 132.716 292.981 132.404 292.686C132.092 292.391 131.91 292.045 131.858 291.646L131.78 290.866C131.191 291.629 130.437 292.218 129.518 292.634C128.599 293.05 127.672 293.258 126.736 293.258C125.835 293.258 125.029 293.076 124.318 292.712C123.607 292.331 123.053 291.819 122.654 291.178C122.255 290.537 122.056 289.817 122.056 289.02ZM130.714 289.852C130.922 289.627 131.087 289.401 131.208 289.176C131.329 288.951 131.39 288.751 131.39 288.578V287.018C130.905 286.827 130.393 286.689 129.856 286.602C129.319 286.498 128.79 286.446 128.27 286.446C127.23 286.446 126.381 286.654 125.722 287.07C125.081 287.486 124.76 288.058 124.76 288.786C124.76 289.185 124.864 289.566 125.072 289.93C125.297 290.294 125.609 290.589 126.008 290.814C126.424 291.039 126.935 291.152 127.542 291.152C128.166 291.152 128.764 291.031 129.336 290.788C129.908 290.545 130.367 290.233 130.714 289.852ZM149.914 292.998H147.054V285.38C147.054 284.115 146.846 283.187 146.43 282.598C146.031 282.009 145.433 281.714 144.636 281.714C144.081 281.714 143.527 281.853 142.972 282.13C142.435 282.407 141.949 282.789 141.516 283.274C141.083 283.742 140.771 284.288 140.58 284.912V292.998H137.72V279.4H140.32V282.13C140.667 281.523 141.117 281.003 141.672 280.57C142.244 280.119 142.885 279.773 143.596 279.53C144.307 279.287 145.061 279.166 145.858 279.166C146.673 279.166 147.34 279.313 147.86 279.608C148.397 279.903 148.813 280.31 149.108 280.83C149.42 281.333 149.628 281.922 149.732 282.598C149.853 283.257 149.914 283.959 149.914 284.704V292.998ZM153.234 292.998V279.4H156.094V292.998H153.234ZM153.234 277.164V274.018H156.094V277.164H153.234ZM164.366 293.258C163.222 293.258 162.139 293.076 161.116 292.712C160.094 292.331 159.218 291.767 158.49 291.022L159.556 289.098C160.336 289.791 161.116 290.294 161.896 290.606C162.694 290.918 163.482 291.074 164.262 291.074C165.06 291.074 165.71 290.927 166.212 290.632C166.715 290.32 166.966 289.869 166.966 289.28C166.966 288.847 166.836 288.526 166.576 288.318C166.316 288.11 165.935 287.928 165.432 287.772C164.947 287.616 164.358 287.443 163.664 287.252C162.694 286.957 161.879 286.654 161.22 286.342C160.562 286.013 160.068 285.614 159.738 285.146C159.409 284.678 159.244 284.08 159.244 283.352C159.244 282.468 159.47 281.714 159.92 281.09C160.371 280.466 160.995 279.989 161.792 279.66C162.607 279.331 163.543 279.166 164.6 279.166C165.588 279.166 166.498 279.322 167.33 279.634C168.18 279.929 168.925 280.397 169.566 281.038L168.344 282.936C167.738 282.381 167.114 281.974 166.472 281.714C165.848 281.454 165.172 281.324 164.444 281.324C164.028 281.324 163.63 281.376 163.248 281.48C162.867 281.567 162.546 281.74 162.286 282C162.044 282.243 161.922 282.589 161.922 283.04C161.922 283.404 162.026 283.699 162.234 283.924C162.442 284.149 162.754 284.34 163.17 284.496C163.586 284.652 164.098 284.825 164.704 285.016C165.762 285.328 166.663 285.64 167.408 285.952C168.154 286.247 168.726 286.637 169.124 287.122C169.54 287.59 169.748 288.24 169.748 289.072C169.748 290.389 169.254 291.421 168.266 292.166C167.296 292.894 165.996 293.258 164.366 293.258ZM171.314 289.02C171.314 288.153 171.557 287.399 172.042 286.758C172.545 286.099 173.229 285.597 174.096 285.25C174.963 284.886 175.968 284.704 177.112 284.704C177.719 284.704 178.334 284.747 178.958 284.834C179.599 284.921 180.163 285.059 180.648 285.25V284.392C180.648 283.439 180.362 282.693 179.79 282.156C179.218 281.619 178.395 281.35 177.32 281.35C176.557 281.35 175.838 281.489 175.162 281.766C174.486 282.026 173.767 282.399 173.004 282.884L172.042 280.96C172.943 280.353 173.845 279.903 174.746 279.608C175.665 279.313 176.627 279.166 177.632 279.166C179.452 279.166 180.882 279.651 181.922 280.622C182.979 281.575 183.508 282.936 183.508 284.704V289.774C183.508 290.103 183.56 290.337 183.664 290.476C183.785 290.615 183.985 290.693 184.262 290.71V292.998C184.002 293.05 183.768 293.085 183.56 293.102C183.352 293.119 183.179 293.128 183.04 293.128C182.433 293.128 181.974 292.981 181.662 292.686C181.35 292.391 181.168 292.045 181.116 291.646L181.038 290.866C180.449 291.629 179.695 292.218 178.776 292.634C177.857 293.05 176.93 293.258 175.994 293.258C175.093 293.258 174.287 293.076 173.576 292.712C172.865 292.331 172.311 291.819 171.912 291.178C171.513 290.537 171.314 289.817 171.314 289.02ZM179.972 289.852C180.18 289.627 180.345 289.401 180.466 289.176C180.587 288.951 180.648 288.751 180.648 288.578V287.018C180.163 286.827 179.651 286.689 179.114 286.602C178.577 286.498 178.048 286.446 177.528 286.446C176.488 286.446 175.639 286.654 174.98 287.07C174.339 287.486 174.018 288.058 174.018 288.786C174.018 289.185 174.122 289.566 174.33 289.93C174.555 290.294 174.867 290.589 175.266 290.814C175.682 291.039 176.193 291.152 176.8 291.152C177.424 291.152 178.022 291.031 178.594 290.788C179.166 290.545 179.625 290.233 179.972 289.852ZM194.442 292.296C194.199 292.417 193.896 292.547 193.532 292.686C193.168 292.825 192.752 292.946 192.284 293.05C191.833 293.154 191.365 293.206 190.88 293.206C190.291 293.206 189.745 293.102 189.242 292.894C188.739 292.686 188.332 292.357 188.02 291.906C187.725 291.438 187.578 290.84 187.578 290.112V281.61H185.784V279.4H187.578V274.928H190.438V279.4H193.402V281.61H190.438V289.202C190.473 289.67 190.62 290.017 190.88 290.242C191.157 290.467 191.495 290.58 191.894 290.58C192.293 290.58 192.674 290.511 193.038 290.372C193.402 290.233 193.671 290.121 193.844 290.034L194.442 292.296ZM196.423 292.998V279.4H199.283V292.998H196.423ZM196.423 277.164V274.018H199.283V277.164H196.423ZM208.83 293.258C207.755 293.258 206.793 293.076 205.944 292.712C205.095 292.331 204.358 291.811 203.734 291.152C203.127 290.493 202.659 289.748 202.33 288.916C202.001 288.067 201.836 287.165 201.836 286.212C201.836 285.259 202.001 284.357 202.33 283.508C202.659 282.659 203.127 281.913 203.734 281.272C204.358 280.613 205.095 280.102 205.944 279.738C206.811 279.357 207.773 279.166 208.83 279.166C209.887 279.166 210.841 279.357 211.69 279.738C212.557 280.102 213.293 280.613 213.9 281.272C214.524 281.913 215.001 282.659 215.33 283.508C215.659 284.357 215.824 285.259 215.824 286.212C215.824 287.165 215.659 288.067 215.33 288.916C215.001 289.748 214.524 290.493 213.9 291.152C213.293 291.811 212.557 292.331 211.69 292.712C210.841 293.076 209.887 293.258 208.83 293.258ZM204.774 286.238C204.774 287.105 204.956 287.885 205.32 288.578C205.684 289.271 206.169 289.817 206.776 290.216C207.383 290.615 208.067 290.814 208.83 290.814C209.575 290.814 210.251 290.615 210.858 290.216C211.482 289.8 211.976 289.245 212.34 288.552C212.704 287.841 212.886 287.061 212.886 286.212C212.886 285.345 212.704 284.565 212.34 283.872C211.976 283.179 211.482 282.633 210.858 282.234C210.251 281.818 209.575 281.61 208.83 281.61C208.067 281.61 207.383 281.818 206.776 282.234C206.169 282.65 205.684 283.205 205.32 283.898C204.956 284.574 204.774 285.354 204.774 286.238ZM230.555 292.998H227.695V285.38C227.695 284.115 227.487 283.187 227.071 282.598C226.672 282.009 226.074 281.714 225.277 281.714C224.722 281.714 224.167 281.853 223.613 282.13C223.075 282.407 222.59 282.789 222.157 283.274C221.723 283.742 221.411 284.288 221.221 284.912V292.998H218.361V279.4H220.961V282.13C221.307 281.523 221.758 281.003 222.313 280.57C222.885 280.119 223.526 279.773 224.237 279.53C224.947 279.287 225.701 279.166 226.499 279.166C227.313 279.166 227.981 279.313 228.501 279.608C229.038 279.903 229.454 280.31 229.749 280.83C230.061 281.333 230.269 281.922 230.373 282.598C230.494 283.257 230.555 283.959 230.555 284.704V292.998Z" fill="black"/>
<path d="M114.078 107.28H100.29V105.012H117.966L105.042 130.572H102.234L114.078 107.28ZM138.243 115.452C138.243 117.564 137.847 119.448 137.055 121.104C136.287 122.736 135.219 124.02 133.851 124.956C132.483 125.892 130.935 126.36 129.207 126.36C127.479 126.36 125.931 125.892 124.563 124.956C123.219 124.02 122.151 122.736 121.359 121.104C120.567 119.448 120.171 117.564 120.171 115.452C120.171 113.34 120.567 111.468 121.359 109.836C122.151 108.18 123.219 106.884 124.563 105.948C125.931 104.988 127.479 104.508 129.207 104.508C130.935 104.508 132.483 104.988 133.851 105.948C135.219 106.884 136.287 108.18 137.055 109.836C137.847 111.468 138.243 113.34 138.243 115.452ZM135.759 115.452C135.759 113.748 135.483 112.248 134.931 110.952C134.379 109.656 133.611 108.648 132.627 107.928C131.643 107.184 130.503 106.812 129.207 106.812C127.911 106.812 126.771 107.184 125.787 107.928C124.803 108.648 124.023 109.656 123.447 110.952C122.895 112.248 122.619 113.748 122.619 115.452C122.619 117.156 122.895 118.656 123.447 119.952C124.023 121.248 124.803 122.256 125.787 122.976C126.771 123.696 127.911 124.056 129.207 124.056C130.503 124.056 131.643 123.696 132.627 122.976C133.611 122.232 134.379 121.224 134.931 119.952C135.483 118.656 135.759 117.156 135.759 115.452ZM147.074 110.412C146.09 110.412 145.19 110.184 144.374 109.728C143.558 109.272 142.898 108.648 142.394 107.856C141.914 107.064 141.674 106.2 141.674 105.264C141.674 104.304 141.914 103.428 142.394 102.636C142.898 101.844 143.558 101.22 144.374 100.764C145.19 100.308 146.09 100.08 147.074 100.08C148.058 100.08 148.958 100.308 149.774 100.764C150.59 101.22 151.238 101.844 151.718 102.636C152.198 103.428 152.438 104.292 152.438 105.228C152.438 106.188 152.198 107.064 151.718 107.856C151.238 108.648 150.59 109.272 149.774 109.728C148.958 110.184 148.058 110.412 147.074 110.412ZM147.074 109.008C147.722 109.008 148.31 108.84 148.838 108.504C149.39 108.144 149.822 107.676 150.134 107.1C150.446 106.524 150.602 105.912 150.602 105.264C150.602 104.568 150.434 103.932 150.098 103.356C149.762 102.78 149.318 102.336 148.766 102.024C148.238 101.688 147.674 101.52 147.074 101.52C146.402 101.52 145.802 101.7 145.274 102.06C144.746 102.396 144.314 102.852 143.978 103.428C143.666 103.98 143.51 104.58 143.51 105.228C143.51 105.924 143.666 106.56 143.978 107.136C144.314 107.688 144.746 108.144 145.274 108.504C145.826 108.84 146.426 109.008 147.074 109.008ZM159.134 126.36C158.15 126.36 157.25 126.132 156.434 125.676C155.618 125.22 154.97 124.596 154.49 123.804C154.01 123.012 153.77 122.136 153.77 121.176C153.77 120.216 154.01 119.352 154.49 118.584C154.97 117.792 155.618 117.168 156.434 116.712C157.25 116.256 158.15 116.028 159.134 116.028C160.142 116.028 161.054 116.256 161.87 116.712C162.686 117.168 163.334 117.792 163.814 118.584C164.294 119.352 164.534 120.216 164.534 121.176C164.534 122.136 164.294 123.012 163.814 123.804C163.334 124.572 162.686 125.196 161.87 125.676C161.054 126.132 160.142 126.36 159.134 126.36ZM159.134 124.92C159.806 124.92 160.406 124.752 160.934 124.416C161.486 124.056 161.906 123.6 162.194 123.048C162.506 122.472 162.662 121.86 162.662 121.212C162.662 120.516 162.494 119.88 162.158 119.304C161.846 118.728 161.414 118.272 160.862 117.936C160.334 117.6 159.758 117.432 159.134 117.432C158.486 117.432 157.886 117.612 157.334 117.972C156.806 118.308 156.386 118.764 156.074 119.34C155.762 119.916 155.606 120.528 155.606 121.176C155.606 121.872 155.762 122.508 156.074 123.084C156.41 123.636 156.842 124.08 157.37 124.416C157.922 124.752 158.51 124.92 159.134 124.92ZM142.538 125.028L152.618 112.788L162.374 100.296L163.634 101.376L153.626 113.616L143.798 126.144L142.538 125.028Z" fill="black"/>
<defs>
<filter id="filter0_d_3240_185" x="43.5859" y="26.2713" width="176.746" height="177.762" filterUnits="userSpaceOnUse" color-interpolation-filters="sRGB">
<feFlood flood-opacity="0" result="BackgroundImageFix"/>
<feColorMatrix in="SourceAlpha" type="matrix" values="0 0 0 0 0 0 0 0 0 0 0 0 0 0 0 0 0 0 127 0" result="hardAlpha"/>
<feOffset dy="0.634615"/>
<feGaussianBlur stdDeviation="6.5625"/>
<feComposite in2="hardAlpha" operator="out"/>
<feColorMatrix type="matrix" values="0 0 0 0 0.93 0 0 0 0 0.93 0 0 0 0 0.93 0 0 0 1 0"/>
<feBlend mode="normal" in2="BackgroundImageFix" result="effect1_dropShadow_3240_185"/>
<feBlend mode="normal" in="SourceGraphic" in2="effect1_dropShadow_3240_185" result="shape"/>
</filter>
</defs>
</svg>
