<svg width="16" height="16" viewBox="0 0 16 16" fill="none" xmlns="http://www.w3.org/2000/svg">
<path d="M8 0C3.58333 0 0 3.58333 0 8C0 12.4167 3.58333 16 8 16C12.4167 16 16 12.4167 16 8C16 3.58333 12.4167 0 8 0ZM12.1167 6.06667L7.41667 10.7833C7.26667 10.9333 7.05 11.0333 6.83333 11.0333C6.61667 11.0333 6.4 10.95 6.25 10.7833L3.88333 8.41667C3.55 8.08333 3.55 7.56667 3.88333 7.23333C4.21667 6.9 4.73333 6.9 5.06667 7.23333L6.83333 9L10.95 4.88333C11.2833 4.55 11.8 4.55 12.1333 4.88333C12.45 5.21667 12.45 5.73333 12.1167 6.06667Z" fill="#FFAC2F"/>
</svg>
