<svg width="236" height="113" viewBox="0 0 236 113" fill="none" xmlns="http://www.w3.org/2000/svg">
<path d="M138.097 91.6783C136.96 91.8726 135.838 91.264 135.381 90.2051C118.486 51.0836 95.3188 34.6964 76.6215 27.9704C69.7777 25.5085 63.4899 24.3258 58.2682 23.8159C104.22 41.8405 127.157 85.3564 135.31 104.412C135.609 105.11 135.574 105.905 135.216 106.575C134.859 107.244 134.216 107.714 133.47 107.853C89.4716 116.065 64.3424 103.859 50.266 89.0918C43.2915 81.7752 39.1413 73.944 36.7334 67.9498C35.5282 64.9495 34.7548 62.3978 34.2804 60.5827C34.0431 59.6746 33.8802 58.9496 33.7753 58.4432C33.7228 58.1899 33.6848 57.9912 33.6593 57.8516C33.652 57.8117 33.6457 57.7766 33.6403 57.7465C30.0131 43.952 22.5487 33.8976 15.9528 27.2712C12.6489 23.952 9.57584 21.5064 7.34 19.8973C6.22284 19.0933 5.31699 18.4999 4.69887 18.1121C4.38989 17.9182 4.15306 17.7759 3.99794 17.6846C3.92039 17.6389 3.86329 17.606 3.82785 17.5858L3.79108 17.5649L3.78772 17.563C3.78724 17.5627 3.78676 17.5625 3.78628 17.5622M138.097 91.6783L8.2128 14.4274C7.89227 14.2166 7.60551 14.0331 7.35607 13.8766C7.00587 13.6569 6.72897 13.4903 6.53514 13.3762C6.43822 13.3191 6.36205 13.2751 6.30784 13.2441L6.24314 13.2074L6.22342 13.1964L6.21677 13.1927L6.21426 13.1913C6.21322 13.1907 6.21228 13.1902 5 15.3766C3.78772 17.563 3.78696 17.5626 3.78628 17.5622M138.097 91.6783C139.234 91.4839 140.09 90.5371 140.17 89.3865C141.38 71.8812 140.099 42.9123 121.779 23.2054C103.241 3.26412 68.2394 -6.25463 4.27994 12.9825C3.31731 13.2721 2.62171 14.11 2.51431 15.1095C2.40697 16.1084 2.90804 17.0745 3.78628 17.5622M138.097 91.6783L3.78628 17.5622" stroke="#FF6AE8" stroke-width="5" stroke-linejoin="round"/>
<path d="M232.211 55.3324L232.212 55.3317L232.197 55.3405C232.18 55.3503 232.15 55.3676 232.107 55.3923C232.023 55.4418 231.891 55.5211 231.715 55.6307C231.365 55.85 230.845 56.1895 230.2 56.6522C228.909 57.5785 227.128 58.9915 225.211 60.9115C221.389 64.7402 217.08 70.5303 214.98 78.4596C214.978 78.4678 214.977 78.4764 214.975 78.4852C214.958 78.5755 214.934 78.701 214.902 78.859C214.836 79.175 214.735 79.6216 214.589 80.1774C214.298 81.2883 213.826 82.8411 213.092 84.6633C211.626 88.3014 209.098 93.0592 204.845 97.508C196.211 106.538 180.922 113.831 154.506 108.916C153.759 108.777 153.116 108.306 152.758 107.636C152.4 106.966 152.366 106.17 152.666 105.472C157.06 95.2309 168.72 72.9315 191.346 60.7344C190.515 60.9782 189.665 61.2535 188.799 61.5639C177.971 65.4478 164.415 74.9442 154.487 97.8679C154.029 98.9257 152.906 99.5331 151.77 99.3384C150.634 99.1437 149.778 98.1973 149.699 97.0473C148.976 86.6297 149.704 69.0869 160.894 57.0851C172.3 44.8523 193.588 39.316 231.718 50.7507C232.682 51.0397 233.378 51.8784 233.486 52.8788C233.593 53.8786 233.091 54.8453 232.211 55.3324ZM232.211 55.3324C232.21 55.3328 232.21 55.3333 231 53.1454M232.211 55.3324C232.211 55.3327 232.21 55.333 232.21 55.3333L231 53.1454M231 53.1454C229.79 50.9574 229.79 50.9579 229.789 50.9585L229.786 50.9597L229.781 50.9627L229.767 50.9708L229.722 50.9957C229.686 51.0162 229.637 51.0445 229.576 51.0806C229.453 51.1528 229.28 51.2564 229.064 51.3917C228.739 51.5948 228.316 51.8697 227.812 52.218L228.287 54.953C228.946 55.1432 229.611 55.3388 230.282 55.54L231 53.1454Z" stroke="#FF6AE8" stroke-width="5" stroke-linejoin="round"/>
</svg>
