<svg width="80" height="80" viewBox="0 0 80 80" fill="none" xmlns="http://www.w3.org/2000/svg">
<path d="M73.3332 40V50C73.3332 51.7681 72.6308 53.4638 71.3805 54.714C70.1303 55.9643 68.4346 56.6667 66.6665 56.6667H13.3332C11.5651 56.6667 9.86937 55.9643 8.61913 54.714C7.36888 53.4638 6.6665 51.7681 6.6665 50V16.6667C6.6665 14.8986 7.36888 13.2029 8.61913 11.9526C9.86937 10.7024 11.5651 10 13.3332 10H43.3332M39.9998 56.6667V70M26.6665 70H53.3332M73.3332 20C73.3332 25.5228 68.856 30 63.3332 30C57.8103 30 53.3332 25.5228 53.3332 20C53.3332 14.4772 57.8103 10 63.3332 10C68.856 10 73.3332 14.4772 73.3332 20Z" stroke="#603F87" stroke-width="4" stroke-linecap="round" stroke-linejoin="round"/>
</svg>
