<svg width="80" height="80" viewBox="0 0 80 80" fill="none" xmlns="http://www.w3.org/2000/svg">
<path d="M33.3333 70V26.6667C33.3333 25.7826 32.9821 24.9348 32.357 24.3096C31.7319 23.6845 30.8841 23.3333 30 23.3333H13.3333C12.4493 23.3333 11.6014 23.6845 10.9763 24.3096C10.3512 24.9348 10 25.7826 10 26.6667V66.6667C10 67.5507 10.3512 68.3986 10.9763 69.0237C11.6014 69.6488 12.4493 70 13.3333 70H53.3333C54.2174 70 55.0652 69.6488 55.6904 69.0237C56.3155 68.3986 56.6667 67.5507 56.6667 66.6667V50C56.6667 49.1159 56.3155 48.2681 55.6904 47.643C55.0652 47.0179 54.2174 46.6667 53.3333 46.6667H10M50 10H66.6667C68.5076 10 70 11.4924 70 13.3333V30C70 31.8409 68.5076 33.3333 66.6667 33.3333H50C48.159 33.3333 46.6667 31.8409 46.6667 30V13.3333C46.6667 11.4924 48.159 10 50 10Z" stroke="#603F87" stroke-width="4" stroke-linecap="round" stroke-linejoin="round"/>
</svg>
