<svg width="305" height="305" viewBox="0 0 305 305" fill="none" xmlns="http://www.w3.org/2000/svg">
<path d="M42.2209 10.332V31.0046M62.8935 10.332V31.0046M83.5661 10.332V31.0046M42.2209 51.6772H73.2298M42.2209 72.3498H83.5661M42.2209 93.0224H68.0617M31.8846 20.6683H93.9024C99.611 20.6683 104.239 25.296 104.239 31.0046V103.359C104.239 109.067 99.611 113.695 93.9024 113.695H31.8846C26.1761 113.695 21.5483 109.067 21.5483 103.359V31.0046C21.5483 25.296 26.1761 20.6683 31.8846 20.6683Z" stroke="#603F87" stroke-width="6.20178" stroke-linecap="round" stroke-linejoin="round"/>
<path d="M294.611 62.0172V77.5217C294.611 80.263 293.522 82.8921 291.583 84.8306C289.645 86.769 287.016 87.858 284.274 87.858H201.584C198.842 87.858 196.213 86.769 194.275 84.8306C192.337 82.8921 191.248 80.263 191.248 77.5217V25.8402C191.248 23.0988 192.337 20.4698 194.275 18.5313C196.213 16.5929 198.842 15.5039 201.584 15.5039H248.097M242.929 87.858V108.531M222.256 108.531H263.602M294.611 31.0084C294.611 39.5712 287.669 46.5128 279.106 46.5128C270.543 46.5128 263.602 39.5712 263.602 31.0084C263.602 22.4455 270.543 15.5039 279.106 15.5039C287.669 15.5039 294.611 22.4455 294.611 31.0084Z" stroke="#603F87" stroke-width="6.20178" stroke-linecap="round" stroke-linejoin="round"/>
<path d="M52.5564 288.566V221.38C52.5564 220.009 52.0119 218.695 51.0427 217.725C50.0735 216.756 48.759 216.212 47.3883 216.212H21.5475C20.1769 216.212 18.8623 216.756 17.8931 217.725C16.9239 218.695 16.3794 220.009 16.3794 221.38V283.398C16.3794 284.768 16.9239 286.083 17.8931 287.052C18.8623 288.021 20.1769 288.566 21.5475 288.566H83.5653C84.936 288.566 86.2505 288.021 87.2198 287.052C88.189 286.083 88.7335 284.768 88.7335 283.398V257.557C88.7335 256.186 88.189 254.872 87.2198 253.902C86.2505 252.933 84.936 252.389 83.5653 252.389H16.3794M78.3972 195.539H104.238C107.092 195.539 109.406 197.853 109.406 200.707V226.548C109.406 229.402 107.092 231.716 104.238 231.716H78.3972C75.5429 231.716 73.229 229.402 73.229 226.548V200.707C73.229 197.853 75.5429 195.539 78.3972 195.539Z" stroke="#603F87" stroke-width="6.20178" stroke-linecap="round" stroke-linejoin="round"/>
<path d="M289.442 242.052C289.442 251.252 286.714 260.245 281.603 267.894C276.492 275.543 269.227 281.505 260.728 285.025C252.229 288.546 242.877 289.467 233.854 287.672C224.831 285.877 216.544 281.447 210.038 274.942C203.533 268.437 199.104 260.149 197.309 251.127C195.514 242.104 196.435 232.752 199.956 224.253C203.476 215.753 209.438 208.489 217.087 203.378C224.736 198.267 233.729 195.539 242.928 195.539C255.952 195.539 268.407 200.707 277.762 209.7L289.442 221.38M289.442 221.38V195.539M289.442 221.38H263.601" stroke="#603F87" stroke-width="6.20178" stroke-linecap="round" stroke-linejoin="round"/>
</svg>
