<svg width="85" height="86" viewBox="0 0 85 86" fill="none" xmlns="http://www.w3.org/2000/svg">
<rect y="0.273438" width="85" height="85" rx="20" fill="#603F87"/>
<path d="M64.2507 34.3897V27.38C64.2492 26.0562 63.7227 24.7871 62.7866 23.851C61.8506 22.9149 60.5815 22.3883 59.2576 22.3868H57.9431V21.598C57.9374 20.5237 57.5067 19.4953 56.745 18.7377C55.9833 17.98 54.9527 17.5547 53.8783 17.5547C52.804 17.5547 51.7733 17.98 51.0117 18.7377C50.25 19.4953 49.8192 20.5237 49.8135 21.598V22.3868H35.1281V21.598C35.1225 20.5237 34.6917 19.4953 33.93 18.7377C33.1683 17.98 32.1377 17.5547 31.0633 17.5547C29.989 17.5547 28.9584 17.98 28.1967 18.7377C27.435 19.4953 27.0042 20.5237 26.9986 21.598V22.3868H25.6835C24.3597 22.3883 23.0906 22.9149 22.1545 23.8509C21.2185 24.787 20.6919 26.0561 20.6904 27.3799V58.0058C20.6919 59.3295 21.2185 60.5987 22.1545 61.5348C23.0906 62.4708 24.3597 62.9974 25.6835 62.9989H59.2576C60.5814 62.9974 61.8506 62.4708 62.7866 61.5348C63.7226 60.5987 64.2492 59.3295 64.2507 58.0058V35.1104C64.3297 34.8768 64.3297 34.6237 64.2507 34.39V34.3897ZM53.8779 19.8066C54.3529 19.8072 54.8082 19.9961 55.1441 20.3319C55.4799 20.6678 55.6688 21.1231 55.6694 21.598V23.992C55.6656 24.4647 55.4752 24.9167 55.1397 25.2496C54.8041 25.5825 54.3506 25.7693 53.8779 25.7693C53.4052 25.7693 52.9517 25.5825 52.6161 25.2496C52.2805 24.9167 52.0901 24.4647 52.0864 23.992V21.598C52.0869 21.1231 52.2758 20.6677 52.6117 20.3319C52.9476 19.996 53.403 19.8071 53.8779 19.8066ZM29.2713 21.598C29.275 21.1254 29.4654 20.6734 29.801 20.3404C30.1366 20.0075 30.5901 19.8207 31.0628 19.8207C31.5355 19.8207 31.989 20.0075 32.3246 20.3404C32.6601 20.6734 32.8505 21.1254 32.8543 21.598V23.992C32.8505 24.4647 32.6601 24.9167 32.3246 25.2496C31.989 25.5825 31.5355 25.7693 31.0628 25.7693C30.5901 25.7693 30.1366 25.5825 29.801 25.2496C29.4654 24.9167 29.275 24.4647 29.2713 23.992V21.598ZM25.6835 24.66H27.0539C27.2121 25.609 27.7017 26.4711 28.4358 27.0929C29.1699 27.7148 30.1007 28.0561 31.0628 28.0561C32.0248 28.0561 32.9557 27.7148 33.6898 27.0929C34.4238 26.4711 34.9135 25.609 35.0717 24.66H49.8695C50.0276 25.609 50.5173 26.4711 51.2514 27.0929C51.9854 27.7148 52.9163 28.0561 53.8783 28.0561C54.8404 28.0561 55.7712 27.7148 56.5053 27.0929C57.2394 26.4711 57.729 25.609 57.8872 24.66H59.2576C59.9787 24.6609 60.6701 24.9477 61.1799 25.4576C61.6898 25.9675 61.9766 26.6588 61.9774 27.3799V33.6131H22.9637V27.3804C22.9644 26.6592 23.2511 25.9677 23.761 25.4577C24.2709 24.9477 24.9623 24.6609 25.6835 24.66ZM59.2576 60.7256H25.6835C24.9624 60.7248 24.271 60.438 23.7612 59.9281C23.2513 59.4182 22.9645 58.7269 22.9637 58.0058V35.8867H61.9774V58.0058C61.9766 58.7269 61.6898 59.4182 61.1799 59.9281C60.6701 60.438 59.9787 60.7248 59.2576 60.7256Z" fill="#FF82EB" stroke="#FF82EB"/>
<path d="M49.3954 46.0207L45.3091 45.4387L43.4858 41.8169C43.3912 41.6289 43.2461 41.4708 43.0668 41.3603C42.8876 41.2499 42.6812 41.1914 42.4706 41.1914C42.26 41.1914 42.0536 41.2499 41.8744 41.3603C41.6951 41.4708 41.55 41.6289 41.4554 41.8169L39.6321 45.4387L35.5458 46.0207C35.3346 46.0507 35.1362 46.1396 34.9731 46.2772C34.81 46.4147 34.689 46.5954 34.6238 46.7985C34.5585 47.0016 34.5518 47.219 34.6043 47.4258C34.6568 47.6326 34.7665 47.8204 34.9207 47.9678L37.8639 50.7803L37.1706 54.7458C37.1341 54.9542 37.1565 55.1687 37.2354 55.3651C37.3142 55.5615 37.4464 55.732 37.6169 55.8574C37.7874 55.9827 37.9895 56.058 38.2004 56.0747C38.4114 56.0915 38.6228 56.0489 38.811 55.952L42.4709 54.0657L46.1309 55.952C46.319 56.0488 46.5303 56.0912 46.7412 56.0744C46.952 56.0577 47.154 55.9824 47.3244 55.8571C47.4948 55.7318 47.6269 55.5615 47.7058 55.3652C47.7846 55.169 47.8072 54.9546 47.7709 54.7462L47.0775 50.7807L50.0207 47.9682C50.175 47.8208 50.2846 47.633 50.3371 47.4262C50.3896 47.2195 50.3829 47.0021 50.3177 46.799C50.2525 46.5959 50.1314 46.4152 49.9683 46.2776C49.8053 46.1401 49.6068 46.0512 49.3956 46.0211L49.3954 46.0207ZM45.0675 49.5556C44.9324 49.6847 44.8313 49.8451 44.773 50.0226C44.7146 50.2001 44.701 50.3892 44.7332 50.5733L45.1372 52.8821L42.9914 51.7762C42.8304 51.6932 42.6519 51.6499 42.4707 51.6499C42.2896 51.6499 42.111 51.6932 41.95 51.7762L39.804 52.8821L40.208 50.5734C40.2402 50.3893 40.2265 50.2002 40.1682 50.0227C40.1099 49.8452 40.0087 49.6848 39.8736 49.5558L38.1835 47.9412L40.5405 47.6055C40.7219 47.5797 40.8944 47.5104 41.0433 47.4035C41.1922 47.2967 41.313 47.1554 41.3955 46.9917L42.4706 44.8562L43.5456 46.9917C43.6281 47.1554 43.7489 47.2967 43.8978 47.4035C44.0467 47.5104 44.2192 47.5797 44.4006 47.6055L46.7577 47.9412L45.0675 49.5556Z" fill="#FF82EB" stroke="#FF82EB"/>
</svg>
