<svg width="85" height="85" viewBox="0 0 85 85" fill="none" xmlns="http://www.w3.org/2000/svg">
<rect width="85" height="85" rx="20" fill="#603F87"/>
<path d="M20 25.5556C20 23.141 22.1231 21.2769 24.5174 21.5892L43 24V60V63.7593C43 64.3971 42.4109 64.8719 41.7876 64.7364L31.5 62.5L23.1503 60.6848C21.3115 60.2851 20 58.6578 20 56.7761V25.5556Z" stroke="#FF82EB" stroke-width="4"/>
<path d="M43 24L61.4826 21.5892C63.8769 21.2769 66 23.141 66 25.5556V56.7761C66 58.6578 64.6885 60.2851 62.8497 60.6848L54.5 62.5L44.2124 64.7364C43.5891 64.8719 43 64.3971 43 63.7593V60V24Z" stroke="#FF82EB" stroke-width="4"/>
</svg>
