<svg width="85" height="85" viewBox="0 0 85 85" fill="none" xmlns="http://www.w3.org/2000/svg">
<rect width="85" height="85" rx="20" fill="#603F87"/>
<path d="M35.1866 21C35.0868 21.0004 34.988 21.02 34.8959 21.0578C34.8038 21.0956 34.7203 21.1507 34.65 21.2201L24.2178 31.4152C24.1498 31.4836 24.0959 31.5642 24.0592 31.6526L24.0563 31.6599C24.0207 31.7465 24.0021 31.8388 24.0015 31.9321L24 31.9408V60.0818C24 62.2408 25.8012 64 28.011 64H55.983C58.1929 64 60 62.2414 60 60.0818V47.8176V24.9197C60 22.7601 58.1929 21.0015 55.983 21.0015H35.2015L35.1866 21ZM35.95 22.4842H55.9829C57.3783 22.4842 58.4821 23.5565 58.4821 24.9196V47.8176V60.0818C58.4821 61.445 57.3783 62.5173 55.9829 62.5173H28.0109C26.6156 62.5173 25.5177 61.4456 25.5177 60.0818V32.6807H31.939C34.1488 32.6807 35.95 30.92 35.95 28.761V22.4842ZM34.4307 23.531V28.761C34.4307 30.1248 33.3343 31.1965 31.939 31.1965H26.5924L34.4307 23.531ZM32.3866 36.357C32.2864 36.3566 32.1872 36.3756 32.0946 36.4129C32.002 36.4502 31.9178 36.505 31.847 36.5742C31.7762 36.6433 31.7201 36.7255 31.6819 36.816C31.6438 36.9065 31.6243 37.0034 31.6247 37.1013C31.6249 37.1988 31.6448 37.2952 31.6832 37.3852C31.7216 37.4752 31.7778 37.5569 31.8486 37.6256C31.9193 37.6943 32.0033 37.7487 32.0956 37.7857C32.1879 37.8227 32.2868 37.8416 32.3866 37.8412H51.6132C51.8137 37.8404 52.0058 37.7622 52.1474 37.6235C52.289 37.4849 52.3688 37.2971 52.3692 37.1013C52.3695 37.0039 52.3503 36.9074 52.3125 36.8174C52.2747 36.7273 52.2192 36.6453 52.149 36.5762C52.0788 36.5071 51.9953 36.4522 51.9034 36.4146C51.8115 36.377 51.7129 36.3574 51.6132 36.357H32.3866ZM32.3866 43.5809C32.2868 43.5805 32.1879 43.5993 32.0956 43.6363C32.0033 43.6733 31.9193 43.7278 31.8486 43.7965C31.7778 43.8652 31.7216 43.9469 31.6832 44.0369C31.6448 44.1268 31.6249 44.2233 31.6247 44.3208C31.6243 44.4186 31.6438 44.5156 31.6819 44.6061C31.7201 44.6965 31.7762 44.7787 31.847 44.8479C31.9178 44.9171 32.002 44.9719 32.0946 45.0092C32.1872 45.0464 32.2864 45.0654 32.3866 45.065H51.6132C51.7129 45.0647 51.8115 45.0451 51.9034 45.0075C51.9953 44.9699 52.0788 44.915 52.149 44.8459C52.2192 44.7767 52.2747 44.6948 52.3125 44.6047C52.3503 44.5146 52.3695 44.4181 52.3692 44.3208C52.3688 44.1249 52.289 43.9372 52.1474 43.7985C52.0058 43.6599 51.8137 43.5816 51.6132 43.5809H32.3866ZM32.3866 51.216C32.2864 51.2156 32.1872 51.2346 32.0946 51.2718C32.002 51.3091 31.9178 51.3639 31.847 51.4331C31.7762 51.5023 31.7201 51.5845 31.6819 51.6749C31.6438 51.7654 31.6243 51.8624 31.6247 51.9602C31.6251 52.0576 31.6451 52.1539 31.6836 52.2437C31.7221 52.3335 31.7783 52.415 31.8491 52.4836C31.9198 52.5521 32.0037 52.6064 32.096 52.6433C32.1882 52.6802 32.2869 52.699 32.3866 52.6987H40.8904C40.9901 52.699 41.0888 52.6802 41.1811 52.6433C41.2733 52.6064 41.3572 52.5521 41.4279 52.4836C41.4987 52.415 41.5549 52.3335 41.5934 52.2437C41.6319 52.1539 41.6519 52.0576 41.6523 51.9602C41.6527 51.8624 41.6333 51.7654 41.5951 51.6749C41.557 51.5845 41.5009 51.5023 41.43 51.4331C41.3592 51.3639 41.2751 51.3091 41.1824 51.2718C41.0898 51.2346 40.9906 51.2156 40.8904 51.216H32.3866Z" fill="#FF82EB" stroke="#FF82EB" stroke-width="1.5"/>
</svg>
