<svg width="85" height="85" viewBox="0 0 85 85" fill="none" xmlns="http://www.w3.org/2000/svg">
<rect width="85" height="85" rx="20" fill="#603F87"/>
<path d="M17.2081 46.744H16.9081V47.044V55.4602V55.7602H17.2081H25.6243H25.9243V55.4602V47.044V46.744H25.6243H17.2081ZM15.104 59.3683C14.1078 59.3683 13.3 58.5605 13.3 57.5642V44.94C13.3 43.9437 14.1078 43.1359 15.104 43.1359H27.7283C28.7246 43.1359 29.5323 43.9437 29.5323 44.94V57.5642C29.5323 58.5605 28.7246 59.3683 27.7283 59.3683H15.104Z" fill="#FF82EB" stroke="#603F87" stroke-width="0.6"/>
<path d="M67.7053 55.7584H68.0053V55.4584V38.6261V38.3261H67.7053H59.2891H58.9891V38.6261V55.4584V55.7584H59.2891H67.7053ZM57.1851 34.718H69.8094C70.8056 34.718 71.6134 35.5257 71.6134 36.522V57.5624C71.6134 58.5587 70.8056 59.3665 69.8094 59.3665H57.1851C56.1888 59.3665 55.3811 58.5587 55.3811 57.5624V36.522C55.3811 35.5257 56.1888 34.718 57.1851 34.718Z" fill="#FF82EB" stroke="#603F87" stroke-width="0.6"/>
<path d="M46.6643 55.7566H46.9643V55.4566V30.2081V29.9081H46.6643H38.2481H37.9481V30.2081V55.4566V55.7566H38.2481H46.6643ZM50.5724 28.104V57.5606C50.5724 58.5569 49.7646 59.3647 48.7683 59.3647H36.1441C35.1478 59.3647 34.34 58.5569 34.34 57.5606V28.104C34.34 27.1078 35.1478 26.3 36.1441 26.3H48.7683C49.7646 26.3 50.5724 27.1078 50.5724 28.104Z" fill="#FF82EB" stroke="#603F87" stroke-width="0.6"/>
</svg>
