<svg width="85" height="86" viewBox="0 0 85 86" fill="none" xmlns="http://www.w3.org/2000/svg">
<rect y="0.273438" width="85" height="85" rx="20" fill="#603F87"/>
<path d="M48.422 31.5984C48.422 30.6592 49.1827 29.8984 50.1219 29.8984H55.2495C56.1888 29.8984 56.9495 30.6592 56.9495 31.5984V37.083C56.9495 38.0222 56.1888 38.7829 55.2495 38.7829C54.3103 38.7829 53.5495 38.0222 53.5495 37.083V35.9057L44.2402 45.8613C43.677 46.4648 42.7633 46.5753 42.0727 46.127L36.4097 42.4486L30.974 48.0801C30.3217 48.7558 29.2443 48.7728 28.5685 48.1226C27.8928 47.4702 27.8758 46.3928 28.526 45.7171L34.937 39.0787C35.5023 38.4922 36.4032 38.3902 37.0875 38.8343L42.7292 42.4999L51.333 33.2988H50.1218C49.1825 33.2988 48.422 32.5377 48.422 31.5984Z" fill="#FF82EB"/>
<path fill-rule="evenodd" clip-rule="evenodd" d="M44.1997 19.7C44.1997 18.7607 43.439 18 42.4997 18C41.5604 18 40.7997 18.7607 40.7997 19.7V21.4H22.0999C19.2843 21.4 17 23.6843 17 26.4999V51.9996C17 54.8152 19.2843 57.0995 22.0999 57.0995H40.7997V61.1497L31.5393 65.7779C30.6999 66.1987 30.3599 67.2208 30.7786 68.0601C31.1993 68.8995 32.2214 69.2395 33.0608 68.8209L42.5002 64.0992L51.9396 68.8209C52.7789 69.2395 53.8011 68.8995 54.2218 68.0601C54.6404 67.2208 54.3004 66.1986 53.4611 65.7779L44.2007 61.1497V57.0995H62.9004C65.716 57.0995 68.0004 54.8152 68.0004 51.9996V26.4999C68.0004 23.6843 65.716 21.4 62.9004 21.4H44.2007L44.1997 19.7ZM62.8995 53.6996H22.0999C21.1607 53.6996 20.4 52.9389 20.4 51.9996V26.4999C20.4 25.5606 21.1607 24.7999 22.0999 24.7999H62.8995C63.8387 24.7999 64.5994 25.5606 64.5994 26.4999V51.9996C64.5994 52.9389 63.8387 53.6996 62.8995 53.6996Z" fill="#FF82EB"/>
</svg>
