<svg width="85" height="85" viewBox="0 0 85 85" fill="none" xmlns="http://www.w3.org/2000/svg">
<rect width="85" height="85" rx="20" fill="#603F87"/>
<path d="M26.3125 51.0937C26.3125 50.1445 25.543 49.375 24.5937 49.375C23.6445 49.375 22.875 50.1445 22.875 51.0937C22.875 57.7453 28.2547 63.125 34.9062 63.125H38.3437C39.293 63.125 40.0625 62.3555 40.0625 61.4062C40.0625 60.457 39.293 59.6875 38.3437 59.6875H34.9062C30.1625 59.6875 26.3125 55.8375 26.3125 51.0937Z" fill="#FF82EB"/>
<path d="M57.25 33.9062C57.25 34.8555 58.0195 35.625 58.9687 35.625C59.918 35.625 60.6875 34.8555 60.6875 33.9062C60.6875 27.2547 55.3078 21.875 48.6562 21.875H45.2188C44.2695 21.875 43.5 22.6445 43.5 23.5937C43.5 24.543 44.2695 25.3125 45.2188 25.3125H48.6562C53.4 25.3125 57.25 29.1625 57.25 33.9062Z" fill="#FF82EB"/>
<path d="M34.9062 33.9062H24.5937C21.7406 33.9062 19.4375 36.2094 19.4375 39.0625V40.7812C19.4375 41.7305 20.207 42.5 21.1562 42.5C22.1055 42.5 22.875 41.7305 22.875 40.7812V39.0625C22.875 38.1172 23.6484 37.3437 24.5937 37.3437H34.9062C35.8516 37.3437 36.625 38.1172 36.625 39.0625V40.7812C36.625 41.7305 37.3945 42.5 38.3437 42.5C39.293 42.5 40.0625 41.7305 40.0625 40.7812V39.0625C40.0625 36.2094 37.7594 33.9062 34.9062 33.9062Z" fill="#FF82EB"/>
<path d="M29.75 32.1875C33.5484 32.1875 36.625 29.1109 36.625 25.3125C36.625 21.5141 33.5484 18.4375 29.75 18.4375C25.9516 18.4375 22.875 21.5141 22.875 25.3125C22.875 29.1109 25.9516 32.1875 29.75 32.1875ZM29.75 21.875C31.6406 21.875 33.1875 23.4219 33.1875 25.3125C33.1875 27.2031 31.6406 28.75 29.75 28.75C27.8594 28.75 26.3125 27.2031 26.3125 25.3125C26.3125 23.4219 27.8594 21.875 29.75 21.875Z" fill="#FF82EB"/>
<path d="M62.4062 57.9688H52.0937C49.2406 57.9688 46.9375 60.2719 46.9375 63.125V64.8437C46.9375 65.793 47.707 66.5625 48.6562 66.5625C49.6055 66.5625 50.375 65.793 50.375 64.8437V63.125C50.375 62.1797 51.1484 61.4062 52.0937 61.4062H62.4062C63.3516 61.4062 64.125 62.1797 64.125 63.125V64.8437C64.125 65.793 64.8945 66.5625 65.8437 66.5625C66.793 66.5625 67.5625 65.793 67.5625 64.8437V63.125C67.5625 60.2719 65.2594 57.9688 62.4062 57.9688Z" fill="#FF82EB"/>
<path d="M50.375 49.375C50.375 53.1734 53.4516 56.25 57.25 56.25C61.0484 56.25 64.125 53.1734 64.125 49.375C64.125 45.5766 61.0484 42.5 57.25 42.5C53.4516 42.5 50.375 45.5766 50.375 49.375ZM60.6875 49.375C60.6875 51.2656 59.1406 52.8125 57.25 52.8125C55.3594 52.8125 53.8125 51.2656 53.8125 49.375C53.8125 47.4844 55.3594 45.9375 57.25 45.9375C59.1406 45.9375 60.6875 47.4844 60.6875 49.375Z" fill="#FF82EB"/>
</svg>
