<svg width="32" height="33" viewBox="0 0 32 33" fill="none" xmlns="http://www.w3.org/2000/svg">
<path d="M16 0.271484C7.16667 0.271484 0 7.43815 0 16.2715C0 25.1048 7.16667 32.2715 16 32.2715C24.8333 32.2715 32 25.1048 32 16.2715C32 7.43815 24.8333 0.271484 16 0.271484ZM24.2333 12.4048L14.8333 21.8382C14.5333 22.1381 14.1 22.3382 13.6667 22.3382C13.2333 22.3382 12.8 22.1715 12.5 21.8382L7.76667 17.1048C7.1 16.4382 7.1 15.4048 7.76667 14.7382C8.43333 14.0715 9.46667 14.0715 10.1333 14.7382L13.6667 18.2715L21.9 10.0382C22.5667 9.37148 23.6 9.37148 24.2667 10.0382C24.9 10.7048 24.9 11.7382 24.2333 12.4048Z" fill="#FF87EC"/>
</svg>
