<svg width="85" height="86" viewBox="0 0 85 86" fill="none" xmlns="http://www.w3.org/2000/svg">
<rect y="0.273438" width="85" height="85" rx="20" fill="#603F87"/>
<path d="M20 35.4727C20 34.3681 20.8954 33.4727 22 33.4727H63.9333C65.0379 33.4727 65.9333 34.3681 65.9333 35.4727V52.2727C65.9333 53.3772 65.0379 54.2727 63.9333 54.2727H22C20.8954 54.2727 20 53.3772 20 52.2727V35.4727Z" stroke="#FF82EB" stroke-width="4"/>
<path d="M39.0664 31.4727C39.0664 32.5772 39.9618 33.4727 41.0664 33.4727H45.7331C46.8376 33.4727 47.7331 32.5772 47.7331 31.4727V30.2727C47.7331 29.1681 46.8376 28.2727 45.7331 28.2727H41.0664C39.9618 28.2727 39.0664 29.1681 39.0664 30.2727V31.4727Z" stroke="#FF82EB" stroke-width="3"/>
<path d="M25.1992 31.4727C25.1992 32.5772 26.0946 33.4727 27.1992 33.4727H31.8659C32.9705 33.4727 33.8659 32.5772 33.8659 31.4727V30.2727C33.8659 29.1681 32.9705 28.2727 31.8659 28.2727H27.1992C26.0946 28.2727 25.1992 29.1681 25.1992 30.2727V31.4727Z" stroke="#FF82EB" stroke-width="3"/>
<path d="M52.9336 31.4766C52.9336 32.5811 53.829 33.4766 54.9336 33.4766H59.6003C60.7048 33.4766 61.6003 32.5811 61.6003 31.4766V30.2766C61.6003 29.172 60.7048 28.2766 59.6003 28.2766H54.9336C53.829 28.2766 52.9336 29.172 52.9336 30.2766V31.4766Z" stroke="#FF82EB" stroke-width="3"/>
</svg>
