<svg width="85" height="86" viewBox="0 0 85 86" fill="none" xmlns="http://www.w3.org/2000/svg">
<rect y="0.273438" width="85" height="85" rx="20" fill="#603F87"/>
<path d="M60.9216 61.6645L60.9216 61.6645L60.9244 61.6754C61.0298 62.0753 61.0428 62.494 60.9623 62.8996C60.8835 63.297 60.7172 63.6717 60.4754 63.9966C60.151 64.3954 59.7417 64.7171 59.2772 64.938C58.8046 65.1628 58.2873 65.2774 57.7641 65.2733L57.7562 65.2733H57.7484H26.2538C25.7397 65.27 25.2327 65.1522 24.7698 64.9284C24.3078 64.705 23.9013 64.3818 23.5798 63.982C23.3254 63.6573 23.1481 63.279 23.0612 62.8757C22.9743 62.4726 22.98 62.0551 23.0779 61.6546C25.0797 53.901 32.7515 48.2733 41.9985 48.2733C51.2494 48.2733 58.9239 53.9059 60.9216 61.6645ZM31.7485 30.5234C31.7485 28.4962 32.3497 26.5144 33.476 24.8288C34.6022 23.1432 36.2031 21.8295 38.076 21.0537C39.9489 20.2779 42.0099 20.0749 43.9982 20.4704C45.9865 20.8659 47.8128 21.8421 49.2463 23.2756C50.6798 24.7091 51.656 26.5354 52.0515 28.5237C52.447 30.512 52.244 32.573 51.4682 34.4459C50.6924 36.3188 49.3787 37.9196 47.6931 39.0459C46.0075 40.1722 44.0257 40.7734 41.9985 40.7734C39.28 40.7734 36.6729 39.6935 34.7507 37.7712C32.8284 35.849 31.7485 33.2419 31.7485 30.5234Z" stroke="#FF82EB" stroke-width="4"/>
</svg>
