<svg width="85" height="86" viewBox="0 0 85 86" fill="none" xmlns="http://www.w3.org/2000/svg">
<rect y="0.273438" width="85" height="85" rx="20" fill="#603F87"/>
<path d="M62.3678 26.1417C48.2561 24.7192 44.1591 16.5822 43.9884 16.2408C43.7039 15.6718 43.078 15.2734 42.4521 15.2734C41.7692 15.2734 41.2002 15.6718 40.9157 16.2408C40.8588 16.3546 36.7619 24.7192 22.5364 26.1417C21.6828 26.2555 21 26.9383 21 27.8488V41.9036C21 58.2914 40.8019 68.6475 41.6554 69.1027C41.883 69.2165 42.1675 69.2734 42.4521 69.2734C42.7366 69.2734 42.9642 69.2165 43.2487 69.1027C44.1022 68.6475 63.9041 58.2914 63.9041 41.9036V27.8488C63.9041 26.9953 63.2213 26.2555 62.3678 26.1417ZM60.49 41.9605C60.49 54.5927 46.0369 63.6401 42.4521 65.6886C38.9241 63.6401 24.4141 54.5927 24.4141 41.9605V29.3851C34.7703 27.9057 40.1191 23.069 42.4521 20.0532C44.785 23.0121 50.1338 27.9057 60.49 29.3282V41.9605Z" fill="#FF82EB" stroke="#603F87" stroke-width="0.6"/>
<path d="M36.8117 40.9884L36.8179 40.9944L36.8242 41.0002L39.7367 43.6722L40.0866 43.9931L40.4252 43.6603L48.0949 36.1217L48.1026 36.114L48.11 36.1061C48.9721 35.1817 50.492 35.159 51.4714 36.1217L51.4791 36.1293L51.4872 36.1365C52.4227 36.9794 52.4462 38.4582 51.4714 39.4164L41.6659 49.0544C41.178 49.534 40.5276 49.7698 39.9777 49.7698C39.4277 49.7698 38.7773 49.534 38.2894 49.0544L33.4352 44.2831L33.4274 44.2755L33.4194 44.2682C32.4839 43.4253 32.4604 41.9465 33.4352 40.9884L33.4429 40.9808L33.4504 40.9728C34.3124 40.0484 35.8324 40.0257 36.8117 40.9884Z" fill="#FF82EB" stroke="#603F87"/>
</svg>
