<svg width="85" height="86" viewBox="0 0 85 86" fill="none" xmlns="http://www.w3.org/2000/svg">
<rect y="0.273438" width="85" height="85" rx="20" fill="#603F87"/>
<path d="M55.1507 38.9255L55.1543 38.929C55.502 39.2738 55.7092 39.7355 55.7356 40.2245C55.7621 40.7135 55.6059 41.1949 55.2974 41.5752L55.295 41.5782L48.0213 50.6671L47.8586 50.8705L47.896 51.1282C48.0721 52.3417 47.8616 53.5798 47.2943 54.6668C46.7271 55.7539 45.8319 56.6347 44.7358 57.1843C43.6397 57.7339 42.3983 57.9243 41.1879 57.7286C39.9774 57.5329 38.8593 56.9609 37.9923 56.0939C37.1253 55.2268 36.5533 54.1088 36.3576 52.8983C36.1618 51.6879 36.3523 50.4465 36.9019 49.3504C37.4514 48.2543 38.3323 47.3591 39.4193 46.7918C40.5064 46.2246 41.7445 46.0141 42.958 46.1902L43.216 46.2276L43.4194 46.0646L52.5018 38.7845L52.5045 38.7823C52.8849 38.4738 53.3662 38.3176 53.8552 38.3441C54.3442 38.3705 54.8059 38.5777 55.1507 38.9255ZM15.681 54.008H15.6809C15.4055 54.0081 15.1329 53.9534 14.8788 53.8471C14.6247 53.7408 14.3943 53.5851 14.201 53.3889C14.0077 53.1928 13.8553 52.9602 13.7526 52.7047C13.65 52.4491 13.5992 52.1757 13.6032 51.9003L13.6033 51.8916L13.6032 51.8828C13.5469 48.0937 14.2446 44.3312 15.6557 40.8142C17.0668 37.2971 19.1631 34.0958 21.8228 31.3964C24.4824 28.697 27.6522 26.5533 31.1479 25.0901C34.6436 23.6269 38.3953 22.8734 42.1848 22.8734C45.9744 22.8734 49.7261 23.6269 53.2217 25.0901C56.7174 26.5533 59.8872 28.697 62.5469 31.3964C65.2065 34.0958 67.3028 37.2971 68.714 40.8142C70.1251 44.3312 70.8228 48.0937 70.7665 51.8828H70.7664L70.7664 51.8903C70.7651 52.4498 70.5422 52.9861 70.1466 53.3817C69.7511 53.7772 69.2151 54.0001 68.6558 54.0016C68.6556 54.0016 68.6553 54.0016 68.6551 54.0016L62.1515 54.0016C61.6154 53.972 61.1106 53.7391 60.7401 53.35C60.3665 52.9577 60.158 52.4367 60.158 51.8949C60.158 51.3531 60.3665 50.8321 60.7401 50.4398C61.1106 50.0507 61.6154 49.8178 62.1515 49.7882H65.3544H66.0293L65.9502 49.1179C65.3192 43.7708 62.9084 38.7912 59.1054 34.9798C55.3024 31.1684 50.3282 28.7467 44.9825 28.1039L44.3108 28.0231V28.6996V31.9604C44.2812 32.4965 44.0483 33.0013 43.6593 33.3718C43.267 33.7454 42.7459 33.9539 42.2041 33.9539C41.6623 33.9539 41.1413 33.7454 40.749 33.3718C40.36 33.0013 40.1271 32.4965 40.0974 31.9604V28.706V28.0323L39.4282 28.11C35.0142 28.6226 30.8312 30.3584 27.3513 33.1217L26.8244 33.5401L27.3001 34.0159L29.5964 36.3122C29.9643 36.7114 30.1643 37.2371 30.1546 37.7801C30.1448 38.3265 29.9234 38.8477 29.5369 39.2341C29.1505 39.6206 28.6293 39.842 28.0829 39.8518C27.5399 39.8615 27.0141 39.6615 26.615 39.2936L24.3187 36.9973L23.843 36.5216L23.4246 37.0484C20.6609 40.5283 18.925 44.7113 18.4128 49.1255L18.3352 49.7946H19.0088H22.2273H22.2419L22.2565 49.7939C22.5419 49.78 22.8272 49.8242 23.095 49.9238C23.3628 50.0234 23.6075 50.1764 23.8144 50.3735C24.0214 50.5705 24.1861 50.8076 24.2986 51.0702C24.4112 51.3328 24.4692 51.6156 24.4692 51.9013C24.4692 52.1871 24.4112 52.4698 24.2986 52.7325C24.1861 52.9951 24.0214 53.2321 23.8144 53.4292C23.6075 53.6263 23.3628 53.7792 23.095 53.8789C22.8272 53.9785 22.5419 54.0227 22.2565 54.0088L22.2419 54.008H22.2273H15.681Z" fill="#FF82EB" stroke="#603F87" stroke-width="1.2"/>
</svg>
