<svg width="85" height="86" viewBox="0 0 85 86" fill="none" xmlns="http://www.w3.org/2000/svg">
<rect y="0.273438" width="85" height="85" rx="20" fill="#603F87"/>
<path d="M41.195 19.0562C41.9194 17.5379 44.0806 17.5379 44.805 19.0562L50.5969 31.1941C50.8885 31.8051 51.4694 32.2271 52.1406 32.3156L65.4742 34.0732C67.142 34.2931 67.8098 36.3484 66.5898 37.5066L56.8358 46.7658C56.3447 47.2319 56.1229 47.9148 56.2461 48.5805L58.6949 61.8046C59.0011 63.4588 57.2528 64.729 55.7743 63.9266L43.954 57.5112C43.359 57.1883 42.641 57.1883 42.046 57.5112L30.2257 63.9266C28.7472 64.729 26.9989 63.4588 27.3051 61.8046L29.7539 48.5805C29.8771 47.9148 29.6553 47.2319 29.1642 46.7658L19.4102 37.5066C18.1902 36.3484 18.858 34.2931 20.5258 34.0732L33.8594 32.3156C34.5306 32.2271 35.1115 31.8051 35.4031 31.1941L41.195 19.0562Z" fill="#603F87" stroke="#FF82EB" stroke-width="4"/>
</svg>
