<svg width="68" height="82" viewBox="0 0 68 82" fill="none" xmlns="http://www.w3.org/2000/svg">
<path d="M29 75.9127C29 73.5488 31.039 71.7006 33.3916 71.932L53.2811 73.8883C56.674 74.222 59.6629 71.6651 59.8585 68.2614L61.7833 34.7705C61.9049 32.654 63.6567 31 65.7767 31H66.002V25C66.002 22.7909 64.2111 21 62.002 21H24C21.7909 21 20 22.7909 20 25V76C20 78.2091 21.7909 80 24 80H29V75.9127Z" fill="#FF82EB"/>
<path d="M16 13C13.7909 13 12 14.7909 12 17V78C12 80.2091 13.7909 82 16 82H64.002C66.2111 82 68.002 80.2091 68.002 78V17C68.002 14.7909 66.2111 13 64.002 13H16ZM33.002 69C29.137 69 26.002 65.865 26.002 62C26.002 58.135 29.137 55 33.002 55C36.867 55 40.002 58.135 40.002 62C40.002 65.865 36.867 69 33.002 69ZM48.502 68C48.502 68.828 47.83 69.5 47.002 69.5C46.174 69.5 45.502 68.828 45.502 68V63C45.502 62.172 46.174 61.5 47.002 61.5C47.83 61.5 48.502 62.172 48.502 63V68ZM54.502 68C54.502 68.828 53.83 69.5 53.002 69.5C52.174 69.5 51.502 68.828 51.502 68V56C51.502 55.172 52.174 54.5 53.002 54.5C53.83 54.5 54.502 55.172 54.502 56V68ZM53.002 41.5H27.002C26.174 41.5 25.502 40.828 25.502 40C25.502 39.172 26.174 38.5 27.002 38.5H53.002C53.83 38.5 54.502 39.172 54.502 40C54.502 40.828 53.83 41.5 53.002 41.5ZM53.002 31.5H27.002C26.174 31.5 25.502 30.828 25.502 30C25.502 29.172 26.174 28.5 27.002 28.5H53.002C53.83 28.5 54.502 29.172 54.502 30C54.502 30.828 53.83 31.5 53.002 31.5Z" fill="#603F87"/>
<path d="M9 39.5V16C9 12.6863 11.6863 10 15 10H42H56.002V4C56.002 1.79086 54.2111 0 52.002 0H4C1.79087 0 0 1.79086 0 4V65C0 67.2091 1.79086 69 4 69H9V39.5Z" fill="#FF82EB"/>
</svg>
