<svg width="92" height="70" viewBox="0 0 92 70" fill="none" xmlns="http://www.w3.org/2000/svg">
<path d="M64.5658 23.533C62.1498 23.533 60.6049 20.9583 61.7418 18.8264L67.4578 8.109C69.4167 4.43597 66.7552 0 62.5925 0C61.13 0 59.7276 0.580951 58.6934 1.61499L40.4514 19.857C38.0978 22.2107 36.7754 25.4031 36.7754 28.7317V56.4792C36.7754 63.4109 42.3946 69.0301 49.3263 69.0301H75.3136C79.5973 69.0301 83.3407 66.1379 84.422 61.9929L91.7293 33.9818C91.9086 33.2942 91.9995 32.5864 91.9995 31.8759C91.9995 27.2683 88.2641 23.533 83.6565 23.533H64.5658Z" fill="#603F87"/>
<path d="M23.465 50.5747L23.4592 50.569L23.4534 50.5633L17.0006 44.2145C16.98 44.1932 16.9721 44.1776 16.9689 44.1698C16.9652 44.1607 16.964 44.153 16.964 44.1466C16.964 44.1401 16.9652 44.1325 16.9689 44.1234C16.9723 44.1152 16.9807 44.0985 17.0035 44.0757C17.0263 44.0529 17.043 44.0445 17.0512 44.0411C17.0603 44.0373 17.0679 44.0362 17.0744 44.0362C17.0808 44.0362 17.0885 44.0373 17.0976 44.0411C17.1058 44.0445 17.1225 44.0529 17.1453 44.0757L22.0435 48.9739L23.4577 50.3881L24.8719 48.9739L35.9189 37.9269C35.9417 37.9041 35.9584 37.8957 35.9666 37.8923C35.9757 37.8885 35.9833 37.8874 35.9898 37.8874C35.9963 37.8874 36.0039 37.8885 36.013 37.8923C36.0176 37.8942 36.0248 37.8976 36.0343 37.9043C36.073 37.9649 36.0698 38.0474 36.0249 38.1045L23.5546 50.5747C23.534 50.5954 23.5185 50.6059 23.5098 50.6108C23.5011 50.6059 23.4856 50.5954 23.465 50.5747ZM27.0532 19.1406C13.5989 19.1406 2.64648 30.093 2.64648 43.5473C2.64648 57.0016 13.5989 67.954 27.0532 67.954C40.5075 67.954 51.4599 57.0016 51.4599 43.5473C51.4599 30.093 40.5075 19.1406 27.0532 19.1406Z" fill="#FF82EB" stroke="white" stroke-width="4"/>
</svg>
