<svg width="80" height="80" viewBox="0 0 80 80" fill="none" xmlns="http://www.w3.org/2000/svg">
<path d="M39.996 21.1367C29.6381 21.1367 21.1328 29.5578 21.1328 39.9999C21.1328 50.442 29.5539 58.863 39.996 58.863C50.4381 58.863 58.8591 50.442 58.8591 39.9999C58.8591 29.5578 50.3539 21.1367 39.996 21.1367Z" fill="#FF82EB"/>
<path d="M77.2211 33.7684L73.2632 30.1474C71.4105 28.4632 70.4 26.0211 70.4842 23.4947L70.7368 18.1053C70.9895 13.1368 66.8632 9.01053 61.8947 9.26316L56.5053 9.51579C53.9789 9.6 51.5368 8.58947 49.8526 6.73684L46.2316 2.77895C42.8632 -0.926316 37.0526 -0.926316 33.7684 2.77895L30.1474 6.73684C28.4632 8.58947 26.0211 9.6 23.4947 9.51579L18.1053 9.26316C13.1368 9.01053 9.01053 13.1368 9.26316 18.1053L9.51579 23.4947C9.6 26.0211 8.58947 28.4632 6.73684 30.1474L2.77895 33.7684C-0.926316 37.1368 -0.926316 42.9474 2.77895 46.3158L6.73684 49.9368C8.58947 51.6211 9.6 54.0632 9.51579 56.5895L9.26316 61.8947C9.01053 66.8632 13.1368 70.9895 18.1053 70.7368L23.4947 70.4842C26.0211 70.4 28.4632 71.4105 30.1474 73.2632L33.7684 77.2211C37.1368 80.9263 42.9474 80.9263 46.2316 77.2211L49.8526 73.2632C51.5368 71.4105 53.9789 70.4 56.5053 70.4842L61.8947 70.7368C66.8632 70.9895 70.9895 66.8632 70.7368 61.8947L70.4842 56.5053C70.4 53.9789 71.4105 51.5368 73.2632 49.8526L77.2211 46.2316C80.9263 42.8632 80.9263 37.1368 77.2211 33.7684ZM40 64.3368C26.6105 64.3368 15.6632 53.3895 15.6632 40C15.6632 26.6105 26.6105 15.6632 40 15.6632C53.3895 15.6632 64.3368 26.6105 64.3368 40C64.3368 53.3895 53.3895 64.3368 40 64.3368Z" fill="#603F87"/>
</svg>
