<svg width="79" height="78" viewBox="0 0 79 78" fill="none" xmlns="http://www.w3.org/2000/svg">
<path d="M77.833 57.306C79.2993 55.5953 79.2993 53.0294 77.833 51.3188C77.0999 50.4635 60.6047 31.4023 39.4663 31.4023C18.328 31.4023 1.8328 50.4635 1.09968 51.3188C-0.366561 53.0294 -0.366561 55.5953 1.09968 57.306C1.8328 58.1613 18.328 77.1002 39.4663 77.1002C60.6047 77.2224 77.0999 58.1613 77.833 57.306ZM23.4599 54.3735C23.4599 45.576 30.6689 38.367 39.4663 38.367C48.2638 38.367 55.4728 45.576 55.4728 54.3735C55.4728 63.1709 48.2638 70.3799 39.4663 70.3799C30.6689 70.2578 23.4599 63.1709 23.4599 54.3735Z" fill="#603F87"/>
<path d="M39.4661 44.7188C38.6108 44.7188 37.7555 44.8409 36.9002 45.0853C37.5111 45.8184 37.8777 46.7959 37.8777 47.8956C37.8777 50.4615 35.8005 52.6609 33.1124 52.6609C32.0127 52.6609 31.1574 52.2943 30.3021 51.6834C30.0577 52.5387 29.9355 53.394 29.9355 54.2493C29.9355 59.5034 34.2121 63.7799 39.4661 63.7799C44.7202 63.7799 48.9967 59.5034 48.9967 54.2493C48.9967 48.9953 44.7202 44.7188 39.4661 44.7188Z" fill="#FF82EB"/>
<path d="M39.4673 22.1158C42.0332 22.1158 44.1104 20.0386 44.1104 17.4727V4.6431C44.1104 2.07718 42.0332 0 39.4673 0C36.9014 0 34.8242 2.07718 34.8242 4.6431V17.5949C34.8242 20.0386 36.9014 22.1158 39.4673 22.1158Z" fill="#FF82EB"/>
<path d="M59.9936 26.1479C60.6045 26.3922 61.2155 26.5144 61.7042 26.5144C63.537 26.5144 65.2476 25.4147 65.9808 23.7041L70.8682 11.852C71.8457 9.53046 70.7461 6.84235 68.4245 5.86485C66.103 4.88736 63.4148 5.98704 62.4373 8.30859L57.5499 20.1607C56.4502 22.4823 57.5499 25.1704 59.9936 26.1479Z" fill="#FF82EB"/>
<path d="M12.9535 23.7041C13.6866 25.5369 15.3972 26.5144 17.23 26.5144C17.841 26.5144 18.4519 26.3922 18.9407 26.1479C21.2622 25.1704 22.3619 22.4823 21.3844 20.1607L16.4969 8.30859C15.5194 5.98704 12.8313 4.88736 10.5098 5.86485C8.18821 6.84235 7.08853 9.53046 8.06602 11.852L12.9535 23.7041Z" fill="#FF82EB"/>
</svg>
