<svg width="506" height="501" viewBox="0 0 506 501" fill="none" xmlns="http://www.w3.org/2000/svg">
<g clip-path="url(#clip0_1944_802)">
<mask id="path-1-inside-1_1944_802" fill="white">
<path d="M181.76 52.5996C179.508 46.3667 182.728 39.4544 189.073 37.5418C231.336 24.8031 276.449 24.9511 318.627 37.9668C324.959 39.921 328.134 46.8543 325.841 53.0723L303.409 113.891C301.116 120.109 294.225 123.234 287.826 121.509C265.405 115.466 241.785 115.388 219.325 121.285C212.914 122.967 206.044 119.797 203.792 113.564L181.76 52.5996Z"/>
</mask>
<path d="M181.76 52.5996C179.508 46.3667 182.728 39.4544 189.073 37.5418C231.336 24.8031 276.449 24.9511 318.627 37.9668C324.959 39.921 328.134 46.8543 325.841 53.0723L303.409 113.891C301.116 120.109 294.225 123.234 287.826 121.509C265.405 115.466 241.785 115.388 219.325 121.285C212.914 122.967 206.044 119.797 203.792 113.564L181.76 52.5996Z" fill="#D52A2A" stroke="white" stroke-width="4" mask="url(#path-1-inside-1_1944_802)"/>
<mask id="path-2-inside-2_1944_802" fill="white">
<path d="M325.799 53.057C328.091 46.8386 335.007 43.6256 341.092 46.25C381.38 63.624 415.626 92.5527 439.489 129.369C443.094 134.93 441.082 142.286 435.334 145.585L379.114 177.855C373.366 181.154 366.075 179.131 362.272 173.703C349.039 154.815 331.123 139.681 310.289 129.791C304.302 126.949 301.089 120.099 303.381 113.881L325.799 53.057Z"/>
</mask>
<path d="M325.799 53.057C328.091 46.8386 335.007 43.6256 341.092 46.25C381.38 63.624 415.626 92.5527 439.489 129.369C443.094 134.93 441.082 142.286 435.334 145.585L379.114 177.855C373.366 181.154 366.075 179.131 362.272 173.703C349.039 154.815 331.123 139.681 310.289 129.791C304.302 126.949 301.089 120.099 303.381 113.881L325.799 53.057Z" fill="#FF8A58" stroke="white" stroke-width="4" mask="url(#path-2-inside-2_1944_802)"/>
<path d="M375.633 121.44V124H364.145V121.44H368.689V108.96C368.497 109.216 368.198 109.493 367.793 109.792C367.388 110.069 366.929 110.336 366.417 110.592C365.905 110.848 365.393 111.061 364.881 111.232C364.369 111.381 363.9 111.456 363.473 111.456V108.768C363.942 108.768 364.454 108.64 365.009 108.384C365.585 108.107 366.14 107.787 366.673 107.424C367.206 107.061 367.654 106.72 368.017 106.4C368.401 106.08 368.625 105.856 368.689 105.728H371.569V121.44H375.633Z" fill="white"/>
<path d="M244.038 69.2555C244.038 67.8048 244.39 66.4928 245.094 65.3195C245.819 64.1248 246.8 63.1755 248.038 62.4715C249.275 61.7675 250.651 61.4155 252.166 61.4155C253.808 61.4155 255.238 61.8102 256.454 62.5995C257.691 63.3675 258.651 64.4875 259.334 65.9595C260.038 67.4102 260.39 69.1595 260.39 71.2075C260.39 74.1942 260.038 76.6795 259.334 78.6635C258.63 80.6475 257.638 82.1302 256.358 83.1115C255.078 84.1142 253.584 84.6155 251.878 84.6155C250.406 84.6155 249.062 84.2528 247.846 83.5275C246.651 82.8235 245.712 81.8422 245.03 80.5835L246.758 78.8875C247.227 79.8688 247.92 80.6582 248.838 81.2555C249.776 81.8528 250.8 82.1515 251.91 82.1515C253.083 82.1515 254.096 81.7995 254.95 81.0955C255.824 80.3915 256.496 79.3782 256.966 78.0555C257.456 76.7328 257.712 75.1328 257.734 73.2555C257.435 73.9808 256.987 74.6208 256.39 75.1755C255.814 75.7302 255.142 76.1568 254.374 76.4555C253.606 76.7542 252.774 76.9035 251.878 76.9035C250.427 76.9035 249.104 76.5622 247.91 75.8795C246.715 75.1968 245.766 74.2795 245.062 73.1275C244.379 71.9755 244.038 70.6848 244.038 69.2555ZM252.134 63.8475C251.152 63.8475 250.246 64.0928 249.414 64.5835C248.603 65.0742 247.952 65.7248 247.462 66.5355C246.971 67.3462 246.726 68.2528 246.726 69.2555C246.726 70.2368 246.971 71.1328 247.462 71.9435C247.952 72.7542 248.603 73.4048 249.414 73.8955C250.246 74.3862 251.152 74.6315 252.134 74.6315C253.136 74.6315 254.043 74.3862 254.854 73.8955C255.664 73.4048 256.315 72.7542 256.806 71.9435C257.296 71.1328 257.542 70.2368 257.542 69.2555C257.542 68.2742 257.296 67.3782 256.806 66.5675C256.315 65.7355 255.654 65.0742 254.822 64.5835C254.011 64.0928 253.115 63.8475 252.134 63.8475Z" fill="white"/>
<mask id="path-5-outside-3_1944_802" maskUnits="userSpaceOnUse" x="343.407" y="123.858" width="173.063" height="181.357" fill="black">
<rect fill="white" x="343.407" y="123.858" width="173.063" height="181.357"/>
<path d="M435.759 146.329C441.521 143.053 448.878 145.056 451.838 150.986C471.432 190.241 478.959 234.434 473.464 277.962C472.634 284.537 466.354 288.863 459.833 287.679L396.052 276.099C389.531 274.915 385.262 268.668 385.855 262.067C387.917 239.097 383.98 215.977 374.43 194.985C371.686 188.952 373.646 181.645 379.408 178.369L435.759 146.329Z"/>
</mask>
<path d="M435.759 146.329C441.521 143.053 448.878 145.056 451.838 150.986C471.432 190.241 478.959 234.434 473.464 277.962C472.634 284.537 466.354 288.863 459.833 287.679L396.052 276.099C389.531 274.915 385.262 268.668 385.855 262.067C387.917 239.097 383.98 215.977 374.43 194.985C371.686 188.952 373.646 181.645 379.408 178.369L435.759 146.329Z" fill="#6FD592"/>
<path d="M435.759 146.329C441.521 143.053 448.878 145.056 451.838 150.986C471.432 190.241 478.959 234.434 473.464 277.962C472.634 284.537 466.354 288.863 459.833 287.679L396.052 276.099C389.531 274.915 385.262 268.668 385.855 262.067C387.917 239.097 383.98 215.977 374.43 194.985C371.686 188.952 373.646 181.645 379.408 178.369L435.759 146.329Z" stroke="white" stroke-width="4" mask="url(#path-5-outside-3_1944_802)"/>
<path d="M435.759 146.329C441.52 143.053 448.878 145.056 451.838 150.986C471.432 190.241 478.959 234.434 473.464 277.962C472.634 284.537 466.354 288.863 459.833 287.679L396.052 276.099C389.531 274.915 385.262 268.668 385.855 262.067C387.917 239.097 383.98 215.977 374.43 194.985C371.686 188.952 373.646 181.645 379.408 178.369L435.759 146.329Z" fill="#6FD592"/>
<mask id="path-7-inside-4_1944_802" fill="white">
<path d="M459.927 287.158C466.45 288.325 470.825 294.571 469.307 301.022C459.167 344.115 436.37 383.203 403.855 413.246C398.988 417.743 391.397 417.011 387.169 411.908L345.812 361.991C341.584 356.888 342.338 349.359 347.04 344.689C363.572 328.271 375.512 307.798 381.662 285.326C383.412 278.934 389.593 274.571 396.117 275.738L459.927 287.158Z"/>
</mask>
<path d="M459.927 287.158C466.45 288.325 470.825 294.571 469.307 301.022C459.167 344.115 436.37 383.203 403.855 413.246C398.988 417.743 391.397 417.011 387.169 411.908L345.812 361.991C341.584 356.888 342.338 349.359 347.04 344.689C363.572 328.271 375.512 307.798 381.662 285.326C383.412 278.934 389.593 274.571 396.117 275.738L459.927 287.158Z" fill="#3EA03C" stroke="white" stroke-width="4" mask="url(#path-7-inside-4_1944_802)"/>
<mask id="path-8-inside-5_1944_802" fill="white">
<path d="M387.515 411.621C391.754 416.715 391.079 424.31 385.763 428.268C350.506 454.519 308.24 469.717 264.34 471.931C257.721 472.264 252.363 466.838 252.387 460.211L252.624 395.388C252.648 388.761 258.051 383.464 264.653 382.892C287.678 380.898 309.796 372.944 328.818 359.819C334.273 356.055 341.812 356.698 346.051 361.792L387.515 411.621Z"/>
</mask>
<path d="M387.515 411.621C391.754 416.715 391.079 424.31 385.763 428.268C350.506 454.519 308.24 469.717 264.34 471.931C257.721 472.264 252.363 466.838 252.387 460.211L252.624 395.388C252.648 388.761 258.051 383.464 264.653 382.892C287.678 380.898 309.796 372.944 328.818 359.819C334.273 356.055 341.812 356.698 346.051 361.792L387.515 411.621Z" fill="#286A1E" stroke="white" stroke-width="4" mask="url(#path-8-inside-5_1944_802)"/>
<mask id="path-9-inside-6_1944_802" fill="white">
<path d="M252.715 460.212C252.701 466.839 247.312 472.235 240.695 471.863C196.523 469.382 154.088 453.756 118.855 426.999C113.578 422.991 112.974 415.389 117.262 410.336L159.197 360.904C163.485 355.85 171.029 355.279 176.448 359.094C195.485 372.498 217.709 380.682 240.892 382.824C247.491 383.434 252.864 388.761 252.85 395.389L252.715 460.212Z"/>
</mask>
<path d="M252.715 460.212C252.701 466.839 247.312 472.235 240.695 471.863C196.523 469.382 154.088 453.756 118.855 426.999C113.578 422.991 112.974 415.389 117.262 410.336L159.197 360.904C163.485 355.85 171.029 355.279 176.448 359.094C195.485 372.498 217.709 380.682 240.892 382.824C247.491 383.434 252.864 388.761 252.85 395.389L252.715 460.212Z" fill="#82B4FF" stroke="white" stroke-width="4" mask="url(#path-9-inside-6_1944_802)"/>
<path d="M191.432 427.127C189.811 427.127 188.349 426.743 187.048 425.975C185.747 425.207 184.765 424.183 184.104 422.903L185.864 421.367C186.461 422.349 187.251 423.138 188.232 423.735C189.235 424.333 190.312 424.631 191.464 424.631C192.445 424.631 193.32 424.418 194.088 423.991C194.856 423.565 195.464 422.978 195.912 422.231C196.36 421.463 196.584 420.589 196.584 419.607C196.584 418.647 196.36 417.805 195.912 417.079C195.485 416.354 194.899 415.789 194.152 415.383C193.427 414.978 192.605 414.775 191.688 414.775C190.771 414.775 189.907 414.978 189.096 415.383C188.307 415.789 187.656 416.365 187.144 417.111H184.616L187.176 404.087H198.216V406.679H189.256L187.88 413.911C188.349 413.421 188.936 413.037 189.64 412.759C190.365 412.461 191.165 412.311 192.04 412.311C193.448 412.311 194.707 412.621 195.816 413.239C196.947 413.858 197.832 414.711 198.472 415.799C199.133 416.887 199.464 418.146 199.464 419.575C199.464 421.069 199.101 422.381 198.376 423.511C197.672 424.663 196.712 425.549 195.496 426.167C194.28 426.807 192.925 427.127 191.432 427.127Z" fill="white"/>
<path d="M419.168 229.008C419.168 228.154 419.232 227.354 419.36 226.608C419.509 225.861 419.765 225.146 420.128 224.464C420.512 223.781 421.045 223.13 421.728 222.512C422.411 221.872 423.296 221.253 424.384 220.656C425.024 220.293 425.664 219.952 426.304 219.632C426.965 219.312 427.573 218.97 428.128 218.608C428.704 218.245 429.163 217.85 429.504 217.424C429.845 216.976 430.016 216.464 430.016 215.888C430.016 215.397 429.867 214.928 429.568 214.48C429.291 214.01 428.864 213.637 428.288 213.36C427.733 213.061 427.04 212.912 426.208 212.912C425.568 212.912 424.981 212.997 424.448 213.168C423.936 213.338 423.467 213.562 423.04 213.84C422.635 214.096 422.272 214.373 421.952 214.672C421.653 214.949 421.397 215.205 421.184 215.44L419.424 213.456C419.595 213.264 419.883 213.008 420.288 212.688C420.693 212.346 421.205 212.005 421.824 211.664C422.443 211.322 423.157 211.034 423.968 210.8C424.8 210.544 425.707 210.416 426.688 210.416C428.011 210.416 429.141 210.65 430.08 211.12C431.04 211.568 431.776 212.186 432.288 212.976C432.8 213.744 433.056 214.608 433.056 215.568C433.056 216.4 432.875 217.125 432.512 217.744C432.171 218.362 431.723 218.906 431.168 219.376C430.635 219.845 430.069 220.25 429.472 220.592C428.896 220.912 428.373 221.189 427.904 221.424C426.944 221.893 426.123 222.32 425.44 222.704C424.757 223.088 424.192 223.472 423.744 223.856C423.317 224.218 422.965 224.602 422.688 225.008C422.432 225.413 422.24 225.893 422.112 226.448H433.408V229.008H419.168Z" fill="white"/>
<path d="M410.242 336.882C411.159 337.031 411.949 337.372 412.61 337.906C413.271 338.418 413.783 339.079 414.146 339.89C414.509 340.679 414.69 341.575 414.69 342.578C414.69 343.879 414.37 345.02 413.73 346.002C413.111 347.004 412.226 347.772 411.074 348.306C409.922 348.86 408.578 349.138 407.042 349.138C405.421 349.138 403.991 348.828 402.754 348.21C401.538 347.612 400.589 346.759 399.906 345.65L401.794 343.762C402.285 344.615 402.946 345.298 403.778 345.81C404.631 346.322 405.719 346.578 407.042 346.578C408.514 346.578 409.666 346.236 410.498 345.554C411.351 344.892 411.778 343.9 411.778 342.578C411.778 341.234 411.319 340.167 410.402 339.378C409.506 338.567 408.194 338.162 406.466 338.162H405.634V335.794H406.53C408.066 335.794 409.239 335.42 410.05 334.674C410.882 333.927 411.298 332.999 411.298 331.89C411.298 331.122 411.117 330.492 410.754 330.002C410.391 329.511 409.901 329.148 409.282 328.914C408.663 328.658 407.949 328.53 407.138 328.53C405.965 328.53 404.93 328.786 404.034 329.298C403.159 329.788 402.477 330.482 401.986 331.378L400.258 329.586C400.642 328.86 401.186 328.231 401.89 327.698C402.615 327.164 403.447 326.748 404.386 326.45C405.346 326.151 406.359 326.002 407.426 326.002C408.77 326.002 409.954 326.236 410.978 326.706C412.023 327.175 412.834 327.836 413.41 328.69C413.986 329.543 414.274 330.546 414.274 331.698C414.274 332.53 414.114 333.319 413.794 334.066C413.474 334.791 413.005 335.41 412.386 335.922C411.789 336.412 411.074 336.732 410.242 336.882Z" fill="white"/>
<path d="M313.986 428.158V422.75H303.714V420.254L314.882 405.822H316.802V420.19H319.618V422.75H316.802V428.158H313.986ZM306.626 420.19H314.274V410.174L306.626 420.19Z" fill="white"/>
<mask id="path-14-inside-7_1944_802" fill="white">
<path d="M117.96 410.925C113.694 415.997 106.099 416.674 101.264 412.141C69.1979 382.075 46.7719 343.157 36.839 300.337C35.3414 293.881 39.7357 287.649 46.2631 286.502L110.109 275.285C116.636 274.138 122.804 278.521 124.533 284.919C130.563 307.23 142.299 327.596 158.578 344.001C163.247 348.705 163.945 356.239 159.68 361.312L117.96 410.925Z"/>
</mask>
<path d="M117.96 410.925C113.694 415.997 106.099 416.674 101.264 412.141C69.1979 382.075 46.7719 343.157 36.839 300.337C35.3414 293.881 39.7357 287.649 46.2631 286.502L110.109 275.285C116.636 274.138 122.804 278.521 124.533 284.919C130.563 307.23 142.299 327.596 158.578 344.001C163.247 348.705 163.945 356.239 159.68 361.312L117.96 410.925Z" fill="#8287FF" stroke="white" stroke-width="4" mask="url(#path-14-inside-7_1944_802)"/>
<mask id="path-15-inside-8_1944_802" fill="white">
<path d="M46.1597 285.909C39.629 287.037 33.3862 282.658 32.6124 276.076C27.5073 232.651 35.3402 188.673 55.1246 149.681C58.1234 143.771 65.4942 141.816 71.2338 145.13L127.374 177.54C133.113 180.854 135.026 188.174 132.242 194.188C122.592 215.036 118.496 238.033 120.354 260.931C120.89 267.537 116.568 273.747 110.037 274.875L46.1597 285.909Z"/>
</mask>
<path d="M46.1597 285.909C39.629 287.037 33.3862 282.658 32.6124 276.076C27.5073 232.651 35.3402 188.673 55.1246 149.681C58.1234 143.771 65.4942 141.816 71.2338 145.13L127.374 177.54C133.113 180.854 135.026 188.174 132.242 194.188C122.592 215.036 118.496 238.033 120.354 260.931C120.89 267.537 116.568 273.747 110.037 274.875L46.1597 285.909Z" fill="#AA82FF" stroke="white" stroke-width="4" mask="url(#path-15-inside-8_1944_802)"/>
<path d="M107.553 340.824C107.553 342.274 107.191 343.597 106.465 344.792C105.761 345.965 104.791 346.904 103.553 347.608C102.337 348.312 100.961 348.664 99.4253 348.664C97.804 348.664 96.3747 348.28 95.1373 347.512C93.9 346.722 92.9293 345.592 92.2253 344.12C91.5427 342.648 91.2013 340.898 91.2013 338.872C91.2013 335.885 91.5533 333.4 92.2573 331.416C92.9613 329.432 93.9533 327.949 95.2333 326.968C96.5133 325.965 98.0067 325.464 99.7133 325.464C101.185 325.464 102.519 325.826 103.713 326.552C104.929 327.256 105.879 328.237 106.561 329.496L104.833 331.192C104.364 330.189 103.671 329.4 102.753 328.824C101.836 328.226 100.812 327.928 99.6813 327.928C98.5293 327.928 97.516 328.28 96.6413 328.984C95.7667 329.688 95.084 330.701 94.5933 332.024C94.124 333.346 93.8787 334.946 93.8573 336.824C94.1773 336.077 94.6253 335.437 95.2013 334.904C95.7773 334.349 96.4493 333.922 97.2173 333.624C98.0067 333.325 98.8387 333.176 99.7133 333.176C101.185 333.176 102.508 333.517 103.681 334.2C104.876 334.882 105.815 335.8 106.497 336.952C107.201 338.104 107.553 339.394 107.553 340.824ZM99.4573 346.232C100.439 346.232 101.335 345.986 102.145 345.496C102.977 345.005 103.639 344.354 104.129 343.544C104.62 342.712 104.865 341.805 104.865 340.824C104.865 339.842 104.62 338.946 104.129 338.136C103.639 337.325 102.977 336.674 102.145 336.184C101.335 335.693 100.439 335.448 99.4573 335.448C98.476 335.448 97.5693 335.693 96.7373 336.184C95.9267 336.674 95.276 337.325 94.7853 338.136C94.2947 338.946 94.0493 339.842 94.0493 340.824C94.0493 341.805 94.2947 342.712 94.7853 343.544C95.276 344.354 95.9267 345.005 96.7373 345.496C97.5693 345.986 98.476 346.232 99.4573 346.232Z" fill="white"/>
<mask id="path-17-outside-9_1944_802" maskUnits="userSpaceOnUse" x="28.3835" y="-9.28128" width="226.997" height="235.291" fill="black">
<rect fill="white" x="28.3835" y="-9.28128" width="226.997" height="235.291"/>
<path d="M71.0856 145.387C65.3414 142.082 63.3375 134.724 66.9483 129.167C90.9971 92.1525 125.543 63.139 166.155 45.8465C172.253 43.2502 179.153 46.495 181.417 52.724L203.554 113.65C205.818 119.879 202.573 126.715 196.573 129.529C175.549 139.39 157.462 154.581 144.117 173.585C140.308 179.008 133.015 181.023 127.271 177.718L71.0856 145.387Z"/>
</mask>
<path d="M71.0856 145.387C65.3414 142.082 63.3375 134.724 66.9483 129.167C90.9971 92.1525 125.543 63.139 166.155 45.8465C172.253 43.2502 179.153 46.495 181.417 52.724L203.554 113.65C205.818 119.879 202.573 126.715 196.573 129.529C175.549 139.39 157.462 154.581 144.117 173.585C140.308 179.008 133.015 181.023 127.271 177.718L71.0856 145.387Z" fill="#AA82FF"/>
<path d="M71.0856 145.387C65.3414 142.082 63.3375 134.724 66.9483 129.167C90.9971 92.1525 125.543 63.139 166.155 45.8465C172.253 43.2502 179.153 46.495 181.417 52.724L203.554 113.65C205.818 119.879 202.573 126.715 196.573 129.529C175.549 139.39 157.462 154.581 144.117 173.585C140.308 179.008 133.015 181.023 127.271 177.718L71.0856 145.387Z" stroke="white" stroke-width="46" mask="url(#path-17-outside-9_1944_802)"/>
<mask id="path-18-outside-10_1944_802" maskUnits="userSpaceOnUse" x="33.5201" y="-4.14475" width="216.724" height="225.018" fill="black">
<rect fill="white" x="33.5201" y="-4.14475" width="216.724" height="225.018"/>
<path d="M71.0856 145.387C65.3414 142.082 63.3375 134.724 66.9483 129.167C90.9971 92.1525 125.543 63.139 166.155 45.8465C172.253 43.2502 179.153 46.495 181.417 52.724L203.554 113.65C205.818 119.879 202.573 126.715 196.573 129.529C175.549 139.39 157.462 154.581 144.117 173.585C140.308 179.008 133.015 181.023 127.271 177.718L71.0856 145.387Z"/>
</mask>
<path d="M71.0856 145.387C65.3414 142.082 63.3375 134.724 66.9483 129.167C90.9971 92.1525 125.543 63.139 166.155 45.8465C172.253 43.2502 179.153 46.495 181.417 52.724L203.554 113.65C205.818 119.879 202.573 126.715 196.573 129.529C175.549 139.39 157.462 154.581 144.117 173.585C140.308 179.008 133.015 181.023 127.271 177.718L71.0856 145.387Z" fill="#EB5555"/>
<path d="M71.0856 145.387C65.3414 142.082 63.3375 134.724 66.9483 129.167C90.9971 92.1525 125.543 63.139 166.155 45.8465C172.253 43.2502 179.153 46.495 181.417 52.724L203.554 113.65C205.818 119.879 202.573 126.715 196.573 129.529C175.549 139.39 157.462 154.581 144.117 173.585C140.308 179.008 133.015 181.023 127.271 177.718L71.0856 145.387Z" stroke="#EB5555" stroke-width="38" mask="url(#path-18-outside-10_1944_802)"/>
<path d="M157.561 120.458C157.561 123.018 156.861 125.258 155.461 127.178C154.101 129.098 152.241 130.598 149.881 131.678C147.561 132.718 145.021 133.238 142.261 133.238C139.421 133.238 136.861 132.678 134.581 131.558C132.301 130.398 130.481 128.838 129.121 126.878C127.761 124.918 127.081 122.678 127.081 120.158C127.081 118.478 127.461 116.978 128.221 115.658C128.981 114.298 129.921 113.138 131.041 112.178C132.161 111.218 133.301 110.478 134.461 109.958C133.381 109.438 132.381 108.778 131.461 107.978C130.581 107.138 129.861 106.178 129.301 105.098C128.781 104.018 128.521 102.858 128.521 101.618C128.521 99.7778 128.921 98.1578 129.721 96.7578C130.561 95.3178 131.661 94.1178 133.021 93.1578C134.381 92.1578 135.861 91.4178 137.461 90.9378C139.101 90.4178 140.721 90.1578 142.321 90.1578C143.961 90.1578 145.581 90.4178 147.181 90.9378C148.821 91.4178 150.321 92.1378 151.681 93.0978C153.081 94.0578 154.181 95.2578 154.981 96.6978C155.821 98.0978 156.241 99.7178 156.241 101.558C156.241 102.798 155.961 103.978 155.401 105.098C154.881 106.178 154.141 107.138 153.181 107.978C152.261 108.818 151.261 109.478 150.181 109.958C151.461 110.518 152.661 111.298 153.781 112.298C154.941 113.298 155.861 114.478 156.541 115.838C157.221 117.198 157.561 118.738 157.561 120.458ZM150.901 120.038C150.901 118.878 150.641 117.838 150.121 116.918C149.641 115.998 148.981 115.238 148.141 114.638C147.301 113.998 146.381 113.518 145.381 113.198C144.381 112.878 143.361 112.718 142.321 112.718C140.841 112.718 139.461 113.018 138.181 113.618C136.901 114.218 135.861 115.078 135.061 116.198C134.261 117.278 133.861 118.558 133.861 120.038C133.861 121.158 134.101 122.178 134.581 123.098C135.061 123.978 135.701 124.738 136.501 125.378C137.341 126.018 138.261 126.498 139.261 126.818C140.301 127.138 141.341 127.298 142.381 127.298C143.821 127.298 145.181 126.998 146.461 126.398C147.781 125.758 148.841 124.898 149.641 123.818C150.481 122.698 150.901 121.438 150.901 120.038ZM135.181 101.858C135.181 103.098 135.541 104.158 136.261 105.038C136.981 105.918 137.901 106.578 139.021 107.018C140.141 107.458 141.241 107.678 142.321 107.678C143.441 107.678 144.541 107.458 145.621 107.018C146.741 106.538 147.661 105.858 148.381 104.978C149.141 104.098 149.521 103.018 149.521 101.738C149.521 100.578 149.181 99.5778 148.501 98.7378C147.821 97.8578 146.921 97.1978 145.801 96.7578C144.721 96.2778 143.561 96.0378 142.321 96.0378C141.081 96.0378 139.901 96.2778 138.781 96.7578C137.701 97.2378 136.821 97.9178 136.141 98.7978C135.501 99.6378 135.181 100.658 135.181 101.858Z" fill="white"/>
<path d="M83.9883 211.983H72.3083V209.391H88.4363L77.0123 232.111H73.8123L83.9883 211.983Z" fill="white"/>
</g>
<defs>
<clipPath id="clip0_1944_802">
<rect width="506" height="501" fill="white"/>
</clipPath>
</defs>
</svg>
