<svg width="218" height="338" viewBox="0 0 218 338" fill="none" xmlns="http://www.w3.org/2000/svg">
<g opacity="0.6">
<path d="M60.9024 212.625C60.8844 212.644 60.8665 212.662 60.8485 212.68C60.4509 213.077 60.0452 213.462 59.6319 213.833C50.5948 221.957 37.9375 223.846 27.2173 219.498C23.4805 217.983 19.9791 215.71 16.9485 212.68C16.9283 212.659 16.9082 212.639 16.8882 212.619L-46.9275 148.803C-59.0501 136.681 -59.0501 117.026 -46.9275 104.904C-34.8049 92.7809 -15.1502 92.7809 -3.02763 104.904L38.8985 146.83L80.8246 104.904C92.9472 92.7809 112.602 92.7809 124.724 104.904C136.847 117.026 136.847 136.681 124.724 148.803L60.9024 212.625Z" fill="url(#paint0_linear_1102_79)"/>
<path opacity="0.6" d="M79.7272 219.848C79.7347 219.841 79.7423 219.833 79.7499 219.826C79.9174 219.658 80.0884 219.497 80.2626 219.34C84.071 215.922 89.405 215.127 93.9226 216.956C95.4974 217.594 96.9729 218.55 98.2501 219.826C98.2586 219.834 98.267 219.843 98.2755 219.851L125.168 246.703C130.277 251.804 130.277 260.074 125.168 265.174C120.06 270.275 111.777 270.275 106.668 265.174L89.6783 248.21C89.3035 247.836 88.6965 247.836 88.3217 248.21L71.3316 265.174C66.223 270.275 57.9402 270.275 52.8315 265.174C47.7228 260.074 47.7228 251.803 52.8315 246.703L79.7272 219.848Z" fill="url(#paint1_linear_1102_79)"/>
</g>
<defs>
<linearGradient id="paint0_linear_1102_79" x1="38.8985" y1="221.771" x2="38.8985" y2="95.8116" gradientUnits="userSpaceOnUse">
<stop stop-color="#C493FF"/>
<stop offset="1" stop-color="#C493FF" stop-opacity="0"/>
</linearGradient>
<linearGradient id="paint1_linear_1102_79" x1="89" y1="216" x2="88.8581" y2="264.988" gradientUnits="userSpaceOnUse">
<stop stop-color="#FF82EB"/>
<stop offset="1" stop-color="#FFE6C1"/>
</linearGradient>
</defs>
</svg>
