<svg width="64" height="64" viewBox="0 0 64 64" fill="none" xmlns="http://www.w3.org/2000/svg">
<path d="M43.7464 15.3053H56.1101C56.7899 15.3053 57.3409 14.7543 57.3409 14.0745C57.3409 13.3947 56.7899 12.8438 56.1101 12.8438H43.7464C43.0667 12.8438 42.5156 13.3947 42.5156 14.0745C42.5156 14.7543 43.0667 15.3053 43.7464 15.3053Z" fill="#603F87"/>
<path d="M56.1101 45.1992H43.7464C43.0667 45.1992 42.5156 45.7502 42.5156 46.43C42.5156 47.1098 43.0667 47.6607 43.7464 47.6607H56.1101C56.7899 47.6607 57.3409 47.1098 57.3409 46.43C57.3409 45.7502 56.7899 45.1992 56.1101 45.1992Z" fill="#603F87"/>
<path d="M56.1101 52.1953H43.7464C43.0667 52.1953 42.5156 52.7463 42.5156 53.4261C42.5156 54.1055 43.0667 54.6568 43.7464 54.6568H56.1101C56.7899 54.6568 57.3409 54.1055 57.3409 53.4261C57.3409 52.7463 56.7899 52.1953 56.1101 52.1953Z" fill="#603F87"/>
<path d="M20.2527 12.8424H15.302V7.89092C15.302 7.21147 14.751 6.66016 14.0712 6.66016C13.3914 6.66016 12.8404 7.21147 12.8404 7.89092V12.8424H7.889C7.20964 12.8424 6.6582 13.3934 6.6582 14.0732C6.6582 14.7529 7.20964 15.3039 7.889 15.3039H12.8404V20.2546C12.8404 20.9344 13.3914 21.4854 14.0712 21.4854C14.751 21.4854 15.302 20.9344 15.302 20.2546V15.3039H20.2527C20.9325 15.3039 21.4835 14.7529 21.4835 14.0732C21.4835 13.3934 20.9325 12.8424 20.2527 12.8424Z" fill="#603F87"/>
<path d="M19.3122 44.6887C18.8311 44.2079 18.0524 44.2079 17.5717 44.6887L14.0707 48.1895L10.5698 44.6887C10.0891 44.2079 9.30996 44.2079 8.82929 44.6887C8.34857 45.1693 8.34857 45.9481 8.82929 46.4288L12.3303 49.9298L8.82929 53.4307C8.34857 53.9117 8.34857 54.6905 8.82929 55.1713C9.06963 55.4116 9.38476 55.5318 9.69952 55.5318C10.0143 55.5318 10.3295 55.4116 10.5698 55.1713L14.0707 51.6703L17.5717 55.1713C17.812 55.4116 18.1268 55.5318 18.4419 55.5318C18.7567 55.5318 19.0718 55.4116 19.3122 55.1713C19.7929 54.6905 19.7929 53.9117 19.3122 53.4307L15.8112 49.9298L19.3122 46.4288C19.7929 45.9481 19.7929 45.1693 19.3122 44.6887Z" fill="#603F87"/>
<path d="M14.0726 0C6.31281 0 0 6.31285 0 14.0726C0 21.8323 6.31281 28.1455 14.0726 28.1455C21.8323 28.1455 28.1455 21.8323 28.1455 14.0726C28.1455 6.31285 21.8323 0 14.0726 0ZM14.0726 25.684C7.67009 25.684 2.46119 20.4754 2.46119 14.0726C2.46119 7.67009 7.67009 2.46119 14.0726 2.46119C20.4754 2.46119 25.684 7.67009 25.684 14.0726C25.684 20.4754 20.4754 25.684 14.0726 25.684Z" fill="#603F87"/>
<path d="M49.9284 28.1455C57.6878 28.1455 64.001 21.8323 64.001 14.0726C64.001 6.31285 57.6878 0 49.9284 0C42.1686 0 35.8555 6.31285 35.8555 14.0726C35.8555 21.8323 42.1686 28.1455 49.9284 28.1455ZM49.9284 2.46119C56.3309 2.46119 61.5394 7.67009 61.5394 14.0726C61.5394 20.4754 56.3309 25.684 49.9284 25.684C43.5256 25.684 38.317 20.4754 38.317 14.0726C38.317 7.67009 43.5256 2.46119 49.9284 2.46119Z" fill="#603F87"/>
<path d="M49.9284 35.8555C42.1686 35.8555 35.8555 42.1686 35.8555 49.9284C35.8555 57.6878 42.1686 64.0009 49.9284 64.0009C57.6878 64.0009 64.001 57.6878 64.001 49.9284C64.001 42.1686 57.6878 35.8555 49.9284 35.8555ZM49.9284 61.5394C43.5256 61.5394 38.317 56.3309 38.317 49.9284C38.317 43.5256 43.5256 38.317 49.9284 38.317C56.3309 38.317 61.5394 43.5256 61.5394 49.9284C61.5394 56.3309 56.3309 61.5394 49.9284 61.5394Z" fill="#603F87"/>
<path d="M14.0726 35.8555C6.31281 35.8555 0 42.1686 0 49.9284C0 57.6878 6.31281 64.0009 14.0726 64.0009C21.8323 64.0009 28.1455 57.6878 28.1455 49.9284C28.1455 42.1686 21.8323 35.8555 14.0726 35.8555ZM14.0726 61.5394C7.67009 61.5394 2.46119 56.3309 2.46119 49.9284C2.46119 43.5256 7.67009 38.317 14.0726 38.317C20.4754 38.317 25.684 43.5256 25.684 49.9284C25.684 56.3309 20.4754 61.5394 14.0726 61.5394Z" fill="#603F87"/>
</svg>
