<svg width="560" height="561" viewBox="0 0 560 561" fill="none" xmlns="http://www.w3.org/2000/svg">
<g clip-path="url(#clip0_1859_488)">
<mask id="path-1-inside-1_1859_488" fill="white">
<path d="M351.711 523.49C351.702 527.86 348.149 531.417 343.787 531.172C314.665 529.536 286.687 519.234 263.459 501.593C259.979 498.951 259.581 493.939 262.408 490.607L289.974 458.114C292.8 454.782 297.774 454.405 301.347 456.921C313.921 465.777 328.602 471.183 343.916 472.596C348.267 472.998 351.809 476.51 351.8 480.88L351.711 523.49Z"/>
</mask>
<path d="M351.711 523.49C351.702 527.86 348.149 531.417 343.787 531.172C314.665 529.536 286.687 519.234 263.459 501.593C259.979 498.951 259.581 493.939 262.408 490.607L289.974 458.114C292.8 454.782 297.774 454.405 301.347 456.921C313.921 465.777 328.602 471.183 343.916 472.596C348.267 472.998 351.809 476.51 351.8 480.88L351.711 523.49Z" fill="#82B4FF"/>
<path d="M343.916 472.596L344.038 471.283L343.916 472.596ZM351.8 480.88L353.119 480.883L351.8 480.88ZM289.974 458.114L290.979 458.967L289.974 458.114ZM301.347 456.921L300.587 457.999L301.347 456.921ZM263.459 501.593L264.256 500.543L263.459 501.593ZM262.408 490.607L261.402 489.754L262.408 490.607ZM343.787 531.172L343.861 529.855L343.787 531.172ZM343.861 529.855C315.001 528.234 287.276 518.025 264.256 500.543L262.661 502.643C286.099 520.443 314.328 530.838 343.713 532.488L343.861 529.855ZM263.413 491.46L290.979 458.967L288.968 457.261L261.402 489.754L263.413 491.46ZM300.587 457.999C313.35 466.988 328.251 472.475 343.795 473.909L344.038 471.283C328.953 469.892 314.491 464.567 302.106 455.843L300.587 457.999ZM350.482 480.877L350.393 523.488L353.03 523.493L353.119 480.883L350.482 480.877ZM343.795 473.909C347.542 474.255 350.489 477.263 350.482 480.877L353.119 480.883C353.13 475.758 348.993 471.741 344.038 471.283L343.795 473.909ZM290.979 458.967C293.317 456.211 297.511 455.833 300.587 457.999L302.106 455.843C298.037 452.978 292.283 453.353 288.968 457.261L290.979 458.967ZM264.256 500.543C261.416 498.386 261.045 494.252 263.413 491.46L261.402 489.754C258.117 493.626 258.542 499.515 262.661 502.643L264.256 500.543ZM343.713 532.488C348.877 532.778 353.019 528.571 353.03 523.493L350.393 523.488C350.385 527.149 347.421 530.055 343.861 529.855L343.713 532.488Z" fill="white" mask="url(#path-1-inside-1_1859_488)"/>
<mask id="path-3-inside-2_1859_488" fill="white">
<path d="M215.53 408.572C211.224 409.316 207.109 406.429 206.598 402.089C203.233 373.459 208.397 344.465 221.441 318.757C223.418 314.861 228.277 313.572 232.061 315.757L269.074 337.125C272.858 339.309 274.119 344.136 272.284 348.101C265.921 361.846 263.221 377.008 264.446 392.104C264.8 396.459 261.95 400.553 257.644 401.297L215.53 408.572Z"/>
</mask>
<path d="M215.53 408.572C211.224 409.316 207.109 406.429 206.598 402.089C203.233 373.459 208.397 344.465 221.441 318.757C223.418 314.861 228.277 313.572 232.061 315.757L269.074 337.125C272.858 339.309 274.119 344.136 272.284 348.101C265.921 361.846 263.221 377.008 264.446 392.104C264.8 396.459 261.95 400.553 257.644 401.297L215.53 408.572Z" fill="#AA82FF" stroke="white" stroke-width="2.63718" mask="url(#path-3-inside-2_1859_488)"/>
<mask id="path-4-inside-3_1859_488" fill="white">
<path d="M231.964 315.926C228.177 313.747 226.855 308.896 229.236 305.232C245.091 280.829 267.867 261.701 294.643 250.3C298.663 248.588 303.212 250.727 304.705 254.834L319.3 295.002C320.792 299.109 318.653 303.616 314.697 305.471C300.836 311.973 288.911 321.988 280.113 334.517C277.602 338.093 272.794 339.421 269.007 337.242L231.964 315.926Z"/>
</mask>
<path d="M231.964 315.926C228.177 313.747 226.855 308.896 229.236 305.232C245.091 280.829 267.867 261.701 294.643 250.3C298.663 248.588 303.212 250.727 304.705 254.834L319.3 295.002C320.792 299.109 318.653 303.616 314.697 305.471C300.836 311.973 288.911 321.988 280.113 334.517C277.602 338.093 272.794 339.421 269.007 337.242L231.964 315.926Z" fill="#EB5555" stroke="white" stroke-width="2.63718" mask="url(#path-4-inside-3_1859_488)"/>
<mask id="path-5-inside-4_1859_488" fill="white">
<path d="M304.931 254.752C303.446 250.643 305.569 246.085 309.752 244.824C337.616 236.426 367.359 236.524 395.166 245.105C399.342 246.393 401.435 250.964 399.923 255.064L385.134 295.161C383.622 299.261 379.079 301.321 374.86 300.184C360.078 296.199 344.505 296.148 329.697 300.036C325.471 301.145 320.941 299.055 319.456 294.946L304.931 254.752Z"/>
</mask>
<path d="M304.931 254.752C303.446 250.643 305.569 246.085 309.752 244.824C337.616 236.426 367.359 236.524 395.166 245.105C399.342 246.393 401.435 250.964 399.923 255.064L385.134 295.161C383.622 299.261 379.079 301.321 374.86 300.184C360.078 296.199 344.505 296.148 329.697 300.036C325.471 301.145 320.941 299.055 319.456 294.946L304.931 254.752Z" fill="#D52A2A" stroke="white" stroke-width="2.63718" mask="url(#path-5-inside-4_1859_488)"/>
<mask id="path-6-inside-5_1859_488" fill="white">
<path d="M262.868 490.995C260.055 494.339 255.048 494.785 251.86 491.796C230.719 471.974 215.934 446.315 209.385 418.084C208.398 413.828 211.295 409.719 215.598 408.963L257.691 401.568C261.995 400.812 266.061 403.701 267.201 407.919C271.177 422.629 278.914 436.056 289.647 446.872C292.725 449.973 293.186 454.94 290.374 458.285L262.868 490.995Z"/>
</mask>
<path d="M262.868 490.995C260.055 494.339 255.048 494.785 251.86 491.796C230.719 471.974 215.934 446.315 209.385 418.084C208.398 413.828 211.295 409.719 215.598 408.963L257.691 401.568C261.995 400.812 266.061 403.701 267.201 407.919C271.177 422.629 278.914 436.056 289.647 446.872C292.725 449.973 293.186 454.94 290.374 458.285L262.868 490.995Z" fill="#8287FF" stroke="white" stroke-width="2.63718" mask="url(#path-6-inside-5_1859_488)"/>
<mask id="path-7-inside-6_1859_488" fill="white">
<path d="M440.584 491.453C443.379 494.812 442.934 499.82 439.429 502.429C416.185 519.736 388.318 529.756 359.375 531.215C355.012 531.435 351.479 527.858 351.495 523.489L351.651 480.751C351.667 476.382 355.229 472.89 359.582 472.512C374.762 471.198 389.344 465.954 401.886 457.301C405.482 454.819 410.453 455.243 413.247 458.602L440.584 491.453Z"/>
</mask>
<path d="M440.584 491.453C443.379 494.812 442.934 499.82 439.429 502.429C416.185 519.736 388.318 529.756 359.375 531.215C355.012 531.435 351.479 527.858 351.495 523.489L351.651 480.751C351.667 476.382 355.229 472.89 359.582 472.512C374.762 471.198 389.344 465.954 401.886 457.301C405.482 454.819 410.453 455.243 413.247 458.602L440.584 491.453Z" fill="#286A1E" stroke="white" stroke-width="2.63718" mask="url(#path-7-inside-6_1859_488)"/>
<mask id="path-8-inside-7_1859_488" fill="white">
<path d="M488.325 409.395C492.626 410.165 495.51 414.283 494.509 418.536C487.824 446.947 472.794 472.717 451.357 492.525C448.148 495.49 443.144 495.007 440.356 491.642L413.09 458.733C410.302 455.368 410.799 450.404 413.899 447.325C424.798 436.501 432.671 423.004 436.726 408.188C437.879 403.973 441.954 401.097 446.256 401.867L488.325 409.395Z"/>
</mask>
<path d="M488.325 409.395C492.626 410.165 495.51 414.283 494.509 418.536C487.824 446.947 472.794 472.717 451.357 492.525C448.148 495.49 443.144 495.007 440.356 491.642L413.09 458.733C410.302 455.368 410.799 450.404 413.899 447.325C424.798 436.501 432.671 423.004 436.726 408.188C437.879 403.973 441.954 401.097 446.256 401.867L488.325 409.395Z" fill="#3EA03C" stroke="white" stroke-width="2.63718" mask="url(#path-8-inside-7_1859_488)"/>
<mask id="path-9-inside-8_1859_488" fill="white">
<path d="M472.392 316.547C476.19 314.388 481.041 315.708 482.992 319.618C495.911 345.498 500.873 374.635 497.25 403.333C496.703 407.668 492.562 410.519 488.263 409.739L446.213 402.104C441.914 401.324 439.099 397.205 439.49 392.853C440.85 377.709 438.254 362.466 431.957 348.626C430.148 344.649 431.441 339.831 435.239 337.671L472.392 316.547Z"/>
</mask>
<path d="M472.392 316.547C476.19 314.388 481.041 315.708 482.992 319.618C495.911 345.498 500.873 374.635 497.25 403.333C496.703 407.668 492.562 410.519 488.263 409.739L446.213 402.104C441.914 401.324 439.099 397.205 439.49 392.853C440.85 377.709 438.254 362.466 431.957 348.626C430.148 344.649 431.441 339.831 435.239 337.671L472.392 316.547Z" fill="#6FD592" stroke="white" stroke-width="2.63718" mask="url(#path-9-inside-8_1859_488)"/>
<mask id="path-10-inside-9_1859_488" fill="white">
<path d="M472.392 316.547C476.19 314.388 481.041 315.708 482.992 319.618C495.911 345.498 500.873 374.635 497.25 403.333C496.703 407.668 492.562 410.519 488.263 409.739L446.213 402.104C441.914 401.324 439.099 397.205 439.49 392.853C440.85 377.709 438.254 362.466 431.957 348.626C430.148 344.649 431.441 339.831 435.239 337.671L472.392 316.547Z"/>
</mask>
<path d="M472.392 316.547C476.19 314.388 481.041 315.708 482.992 319.618C495.911 345.498 500.873 374.635 497.25 403.333C496.703 407.668 492.562 410.519 488.263 409.739L446.213 402.104C441.914 401.324 439.099 397.205 439.49 392.853C440.85 377.709 438.254 362.466 431.957 348.626C430.148 344.649 431.441 339.831 435.239 337.671L472.392 316.547Z" fill="#6FD592" stroke="white" stroke-width="2.63718" mask="url(#path-10-inside-9_1859_488)"/>
<mask id="path-11-inside-10_1859_488" fill="white">
<path d="M399.895 255.054C401.406 250.954 405.966 248.835 409.978 250.566C436.539 262.02 459.118 281.093 474.851 305.366C477.227 309.032 475.901 313.882 472.111 316.057L435.045 337.332C431.256 339.507 426.449 338.174 423.942 334.595C415.217 322.142 403.405 312.164 389.669 305.644C385.722 303.77 383.604 299.254 385.115 295.154L399.895 255.054Z"/>
</mask>
<path d="M399.895 255.054C401.406 250.954 405.966 248.835 409.978 250.566C436.539 262.02 459.118 281.093 474.851 305.366C477.227 309.032 475.901 313.882 472.111 316.057L435.045 337.332C431.256 339.507 426.449 338.174 423.942 334.595C415.217 322.142 403.405 312.164 389.669 305.644C385.722 303.77 383.604 299.254 385.115 295.154L399.895 255.054Z" fill="#FF8A58" stroke="white" stroke-width="2.63718" mask="url(#path-11-inside-10_1859_488)"/>
<path d="M432.6 298.211V299.898H425.026V298.211H428.022V289.983C427.895 290.151 427.698 290.334 427.431 290.531C427.164 290.714 426.861 290.89 426.524 291.059C426.186 291.227 425.849 291.368 425.511 291.481C425.174 291.579 424.864 291.628 424.583 291.628V289.856C424.892 289.856 425.23 289.772 425.595 289.603C425.975 289.42 426.341 289.209 426.693 288.97C427.044 288.731 427.34 288.506 427.579 288.295C427.832 288.084 427.979 287.936 428.022 287.852H429.92V298.211H432.6Z" fill="white"/>
<path d="M455.568 442.4C456.172 442.498 456.693 442.723 457.129 443.075C457.565 443.413 457.902 443.849 458.141 444.383C458.381 444.903 458.5 445.494 458.5 446.155C458.5 447.013 458.289 447.766 457.867 448.413C457.459 449.074 456.876 449.58 456.116 449.932C455.357 450.297 454.47 450.48 453.458 450.48C452.389 450.48 451.447 450.276 450.631 449.868C449.829 449.475 449.203 448.912 448.753 448.181L449.998 446.936C450.321 447.498 450.757 447.949 451.306 448.286C451.868 448.624 452.586 448.792 453.458 448.792C454.428 448.792 455.188 448.567 455.736 448.117C456.299 447.681 456.58 447.027 456.58 446.155C456.58 445.269 456.278 444.566 455.673 444.046C455.082 443.511 454.217 443.244 453.078 443.244H452.53V441.683H453.12C454.133 441.683 454.906 441.436 455.441 440.944C455.989 440.452 456.264 439.84 456.264 439.109C456.264 438.602 456.144 438.187 455.905 437.864C455.666 437.54 455.343 437.301 454.935 437.147C454.527 436.978 454.056 436.893 453.521 436.893C452.748 436.893 452.065 437.062 451.475 437.4C450.898 437.723 450.448 438.18 450.124 438.771L448.985 437.59C449.238 437.111 449.597 436.697 450.061 436.345C450.539 435.993 451.088 435.719 451.707 435.522C452.34 435.325 453.008 435.227 453.711 435.227C454.597 435.227 455.378 435.381 456.053 435.691C456.742 436 457.276 436.436 457.656 436.999C458.036 437.562 458.226 438.223 458.226 438.982C458.226 439.531 458.12 440.051 457.909 440.543C457.698 441.022 457.389 441.429 456.981 441.767C456.587 442.09 456.116 442.301 455.568 442.4Z" fill="white"/>
<path d="M392.107 502.578V499.012H385.335V497.367L392.698 487.852H393.964V497.325H395.82V499.012H393.964V502.578H392.107ZM387.255 497.325H392.297V490.721L387.255 497.325Z" fill="white"/>
<path d="M311.307 501.897C310.238 501.897 309.275 501.644 308.417 501.138C307.559 500.632 306.912 499.956 306.476 499.113L307.636 498.1C308.03 498.747 308.551 499.267 309.198 499.661C309.859 500.055 310.569 500.252 311.328 500.252C311.975 500.252 312.552 500.111 313.058 499.83C313.565 499.549 313.966 499.162 314.261 498.67C314.556 498.163 314.704 497.587 314.704 496.94C314.704 496.307 314.556 495.751 314.261 495.273C313.98 494.795 313.593 494.422 313.101 494.155C312.622 493.887 312.081 493.754 311.476 493.754C310.871 493.754 310.302 493.887 309.767 494.155C309.247 494.422 308.818 494.802 308.48 495.294H306.814L308.501 486.707H315.78V488.416H309.873L308.966 493.184C309.275 492.861 309.662 492.608 310.126 492.425C310.604 492.228 311.132 492.129 311.708 492.129C312.636 492.129 313.466 492.333 314.198 492.741C314.943 493.149 315.527 493.712 315.949 494.429C316.385 495.146 316.603 495.976 316.603 496.918C316.603 497.903 316.364 498.768 315.885 499.513C315.421 500.273 314.788 500.857 313.987 501.265C313.185 501.686 312.292 501.897 311.307 501.897Z" fill="white"/>
<path d="M256.007 444.999C256.007 445.956 255.768 446.828 255.289 447.615C254.825 448.389 254.185 449.008 253.369 449.472C252.568 449.936 251.661 450.168 250.648 450.168C249.579 450.168 248.637 449.915 247.821 449.408C247.005 448.888 246.365 448.143 245.901 447.172C245.451 446.202 245.226 445.048 245.226 443.712C245.226 441.743 245.458 440.105 245.922 438.796C246.386 437.488 247.04 436.511 247.884 435.864C248.728 435.203 249.713 434.872 250.838 434.872C251.808 434.872 252.687 435.111 253.475 435.59C254.277 436.054 254.903 436.701 255.353 437.531L254.213 438.649C253.904 437.988 253.447 437.467 252.842 437.088C252.237 436.694 251.562 436.497 250.817 436.497C250.057 436.497 249.389 436.729 248.812 437.193C248.236 437.657 247.786 438.325 247.462 439.197C247.153 440.069 246.991 441.124 246.977 442.362C247.188 441.87 247.483 441.448 247.863 441.096C248.243 440.73 248.686 440.449 249.192 440.252C249.713 440.055 250.261 439.957 250.838 439.957C251.808 439.957 252.68 440.182 253.454 440.632C254.242 441.082 254.86 441.687 255.31 442.446C255.775 443.206 256.007 444.057 256.007 444.999ZM250.669 448.565C251.316 448.565 251.907 448.403 252.441 448.079C252.99 447.756 253.426 447.327 253.749 446.792C254.073 446.244 254.234 445.646 254.234 444.999C254.234 444.352 254.073 443.761 253.749 443.227C253.426 442.692 252.99 442.263 252.441 441.94C251.907 441.616 251.316 441.455 250.669 441.455C250.022 441.455 249.424 441.616 248.876 441.94C248.341 442.263 247.912 442.692 247.589 443.227C247.265 443.761 247.104 444.352 247.104 444.999C247.104 445.646 247.265 446.244 247.589 446.792C247.912 447.327 248.341 447.756 248.876 448.079C249.424 448.403 250.022 448.565 250.669 448.565Z" fill="white"/>
<path d="M240.47 360.054H232.77V358.345H243.403L235.871 373.324H233.761L240.47 360.054Z" fill="white"/>
<path d="M282.6 297.65C282.6 298.536 282.354 299.31 281.862 299.971C281.383 300.632 280.736 301.145 279.921 301.511C279.119 301.877 278.24 302.059 277.284 302.059C276.285 302.059 275.392 301.862 274.604 301.469C273.817 301.061 273.191 300.519 272.726 299.844C272.276 299.169 272.051 298.41 272.051 297.566C272.051 296.947 272.192 296.391 272.473 295.899C272.755 295.407 273.106 294.992 273.528 294.654C273.964 294.303 274.407 294.042 274.857 293.874C274.449 293.691 274.07 293.452 273.718 293.156C273.366 292.861 273.085 292.516 272.874 292.122C272.663 291.729 272.558 291.3 272.558 290.836C272.558 290.203 272.698 289.647 272.98 289.169C273.261 288.677 273.634 288.262 274.098 287.924C274.562 287.587 275.075 287.333 275.638 287.165C276.201 286.996 276.763 286.911 277.326 286.911C277.888 286.911 278.451 286.996 279.014 287.165C279.576 287.333 280.089 287.587 280.554 287.924C281.032 288.248 281.412 288.655 281.693 289.148C281.974 289.626 282.115 290.182 282.115 290.814C282.115 291.279 282.009 291.715 281.798 292.122C281.587 292.516 281.299 292.861 280.933 293.156C280.582 293.452 280.195 293.691 279.773 293.874C280.279 294.07 280.744 294.352 281.165 294.717C281.601 295.069 281.946 295.491 282.199 295.983C282.466 296.476 282.6 297.031 282.6 297.65ZM280.722 297.523C280.722 297.073 280.624 296.673 280.427 296.321C280.23 295.955 279.963 295.653 279.625 295.414C279.288 295.161 278.915 294.971 278.507 294.844C278.113 294.717 277.713 294.654 277.305 294.654C276.742 294.654 276.201 294.774 275.68 295.013C275.174 295.252 274.759 295.59 274.435 296.026C274.112 296.447 273.95 296.954 273.95 297.545C273.95 297.981 274.049 298.374 274.245 298.726C274.442 299.078 274.703 299.38 275.026 299.633C275.364 299.886 275.729 300.076 276.123 300.203C276.531 300.329 276.939 300.393 277.347 300.393C277.909 300.393 278.444 300.273 278.95 300.034C279.471 299.795 279.893 299.457 280.216 299.021C280.554 298.585 280.722 298.086 280.722 297.523ZM274.435 290.899C274.435 291.391 274.583 291.813 274.878 292.165C275.174 292.516 275.547 292.784 275.997 292.966C276.447 293.135 276.89 293.22 277.326 293.22C277.776 293.22 278.219 293.128 278.655 292.945C279.105 292.762 279.478 292.495 279.773 292.144C280.068 291.792 280.216 291.363 280.216 290.857C280.216 290.378 280.075 289.971 279.794 289.633C279.527 289.295 279.168 289.035 278.718 288.852C278.282 288.67 277.811 288.578 277.305 288.578C276.812 288.578 276.341 288.677 275.891 288.873C275.455 289.056 275.103 289.324 274.836 289.675C274.569 290.013 274.435 290.421 274.435 290.899Z" fill="white"/>
<path d="M345.99 265.958C345.99 265.002 346.223 264.137 346.687 263.363C347.165 262.576 347.812 261.95 348.628 261.485C349.443 261.021 350.351 260.789 351.349 260.789C352.432 260.789 353.375 261.049 354.176 261.57C354.992 262.076 355.625 262.815 356.075 263.785C356.539 264.742 356.771 265.895 356.771 267.245C356.771 269.214 356.539 270.853 356.075 272.161C355.611 273.469 354.957 274.446 354.113 275.093C353.269 275.754 352.285 276.085 351.159 276.085C350.189 276.085 349.303 275.846 348.501 275.368C347.713 274.903 347.095 274.257 346.644 273.427L347.784 272.309C348.093 272.955 348.55 273.476 349.155 273.87C349.774 274.264 350.449 274.46 351.18 274.46C351.954 274.46 352.622 274.228 353.185 273.764C353.761 273.3 354.204 272.632 354.514 271.76C354.837 270.888 355.006 269.833 355.02 268.595C354.823 269.074 354.528 269.496 354.134 269.861C353.754 270.227 353.311 270.508 352.805 270.705C352.299 270.902 351.75 271 351.159 271C350.203 271 349.331 270.775 348.543 270.325C347.756 269.875 347.13 269.27 346.666 268.511C346.216 267.751 345.99 266.901 345.99 265.958ZM351.328 262.393C350.681 262.393 350.083 262.554 349.535 262.878C349 263.201 348.571 263.63 348.248 264.165C347.924 264.699 347.763 265.297 347.763 265.958C347.763 266.605 347.924 267.196 348.248 267.73C348.571 268.265 349 268.694 349.535 269.017C350.083 269.341 350.681 269.503 351.328 269.503C351.989 269.503 352.587 269.341 353.121 269.017C353.656 268.694 354.085 268.265 354.408 267.73C354.732 267.196 354.894 266.605 354.894 265.958C354.894 265.311 354.732 264.72 354.408 264.186C354.085 263.637 353.649 263.201 353.1 262.878C352.566 262.554 351.975 262.393 351.328 262.393Z" fill="white"/>
<path d="M461.453 371.281C461.453 370.719 461.495 370.191 461.579 369.699C461.678 369.207 461.846 368.735 462.086 368.285C462.339 367.835 462.69 367.406 463.14 366.998C463.59 366.577 464.174 366.169 464.891 365.775C465.313 365.536 465.735 365.311 466.157 365.1C466.593 364.889 466.994 364.664 467.36 364.425C467.74 364.185 468.042 363.925 468.267 363.644C468.492 363.349 468.605 363.011 468.605 362.631C468.605 362.308 468.506 361.998 468.309 361.703C468.126 361.394 467.845 361.147 467.465 360.965C467.1 360.768 466.643 360.669 466.094 360.669C465.672 360.669 465.285 360.725 464.934 360.838C464.596 360.951 464.287 361.098 464.005 361.281C463.738 361.45 463.499 361.633 463.288 361.83C463.091 362.012 462.922 362.181 462.782 362.336L461.621 361.028C461.734 360.901 461.924 360.733 462.191 360.522C462.458 360.296 462.796 360.071 463.204 359.846C463.612 359.621 464.083 359.432 464.617 359.277C465.166 359.108 465.764 359.024 466.411 359.024C467.283 359.024 468.028 359.178 468.647 359.488C469.28 359.783 469.765 360.191 470.103 360.711C470.44 361.218 470.609 361.787 470.609 362.42C470.609 362.969 470.489 363.447 470.25 363.855C470.025 364.263 469.73 364.621 469.364 364.931C469.013 365.24 468.64 365.508 468.246 365.733C467.866 365.944 467.522 366.126 467.212 366.281C466.579 366.591 466.038 366.872 465.588 367.125C465.138 367.378 464.765 367.631 464.47 367.885C464.188 368.124 463.956 368.377 463.773 368.644C463.605 368.911 463.478 369.228 463.394 369.593H470.841V371.281H461.453Z" fill="white"/>
<path d="M232.607 390.373V393H221.904V377.586H232.412V380.213H224.9V383.925H231.391V386.357H224.9V390.373H232.607ZM245.17 393H242.261V386.617C242.261 385.705 242.101 385.04 241.783 384.62C241.465 384.2 241.023 383.99 240.459 383.99C240.068 383.99 239.67 384.092 239.265 384.294C238.874 384.497 238.519 384.779 238.201 385.141C237.882 385.488 237.651 385.894 237.506 386.357V393H234.597V381.624H237.224V383.73C237.513 383.238 237.882 382.825 238.331 382.492C238.78 382.145 239.294 381.884 239.872 381.711C240.466 381.523 241.088 381.429 241.74 381.429C242.449 381.429 243.028 381.559 243.476 381.819C243.939 382.065 244.287 382.406 244.518 382.84C244.764 383.259 244.931 383.737 245.018 384.273C245.119 384.808 245.17 385.351 245.17 385.901V393ZM258.272 393H255.363V386.617C255.363 385.705 255.204 385.04 254.885 384.62C254.567 384.2 254.125 383.99 253.561 383.99C253.17 383.99 252.772 384.092 252.367 384.294C251.976 384.497 251.622 384.779 251.303 385.141C250.985 385.488 250.753 385.894 250.608 386.357V393H247.699V381.624H250.326V383.73C250.616 383.238 250.985 382.825 251.433 382.492C251.882 382.145 252.396 381.884 252.975 381.711C253.568 381.523 254.191 381.429 254.842 381.429C255.551 381.429 256.13 381.559 256.579 381.819C257.042 382.065 257.389 382.406 257.621 382.84C257.867 383.259 258.033 383.737 258.12 384.273C258.221 384.808 258.272 385.351 258.272 385.901V393ZM266.077 393.217C265.165 393.217 264.34 393.065 263.602 392.761C262.864 392.443 262.234 392.016 261.713 391.48C261.192 390.93 260.787 390.308 260.498 389.613C260.223 388.904 260.085 388.159 260.085 387.377C260.085 386.292 260.324 385.3 260.802 384.403C261.294 383.505 261.988 382.789 262.886 382.254C263.798 381.704 264.869 381.429 266.099 381.429C267.344 381.429 268.407 381.704 269.29 382.254C270.173 382.789 270.846 383.505 271.309 384.403C271.787 385.286 272.026 386.241 272.026 387.269C272.026 387.442 272.018 387.623 272.004 387.811C271.989 387.985 271.975 388.13 271.961 388.246H263.168C263.226 388.824 263.392 389.331 263.667 389.765C263.957 390.199 264.319 390.532 264.753 390.764C265.201 390.981 265.679 391.09 266.186 391.09C266.765 391.09 267.307 390.952 267.814 390.677C268.335 390.388 268.69 390.011 268.878 389.548L271.374 390.243C271.099 390.822 270.701 391.336 270.18 391.784C269.674 392.233 269.073 392.588 268.378 392.848C267.684 393.094 266.917 393.217 266.077 393.217ZM263.103 386.4H269.051C268.993 385.821 268.827 385.322 268.552 384.902C268.292 384.468 267.944 384.135 267.51 383.904C267.076 383.657 266.591 383.534 266.055 383.534C265.534 383.534 265.057 383.657 264.623 383.904C264.203 384.135 263.855 384.468 263.58 384.902C263.32 385.322 263.161 385.821 263.103 386.4ZM273.016 389.635C273.016 388.897 273.219 388.253 273.624 387.703C274.044 387.138 274.623 386.704 275.361 386.4C276.099 386.096 276.946 385.944 277.901 385.944C278.379 385.944 278.864 385.98 279.356 386.053C279.848 386.125 280.275 386.241 280.637 386.4V385.792C280.637 385.069 280.419 384.511 279.985 384.121C279.566 383.73 278.936 383.534 278.096 383.534C277.474 383.534 276.881 383.643 276.316 383.86C275.752 384.077 275.158 384.396 274.536 384.815L273.603 382.905C274.355 382.413 275.122 382.044 275.904 381.798C276.7 381.552 277.532 381.429 278.4 381.429C280.021 381.429 281.281 381.834 282.178 382.644C283.09 383.455 283.546 384.613 283.546 386.118V389.744C283.546 390.047 283.596 390.265 283.698 390.395C283.813 390.525 283.994 390.605 284.24 390.634V393C283.98 393.043 283.741 393.08 283.524 393.109C283.321 393.137 283.148 393.152 283.003 393.152C282.424 393.152 281.983 393.022 281.679 392.761C281.389 392.501 281.208 392.182 281.136 391.806L281.071 391.22C280.579 391.857 279.964 392.349 279.225 392.696C278.487 393.043 277.735 393.217 276.968 393.217C276.215 393.217 275.535 393.065 274.927 392.761C274.333 392.443 273.863 392.016 273.516 391.48C273.183 390.93 273.016 390.315 273.016 389.635ZM280.094 390.221C280.253 390.047 280.383 389.874 280.485 389.7C280.586 389.526 280.637 389.367 280.637 389.222V388.072C280.289 387.927 279.913 387.819 279.508 387.746C279.102 387.659 278.719 387.616 278.357 387.616C277.604 387.616 276.982 387.782 276.49 388.115C276.012 388.434 275.774 388.861 275.774 389.396C275.774 389.686 275.853 389.961 276.012 390.221C276.172 390.482 276.403 390.692 276.707 390.851C277.011 391.01 277.373 391.09 277.793 391.09C278.227 391.09 278.654 391.01 279.073 390.851C279.493 390.677 279.833 390.467 280.094 390.221ZM290.715 393.065C289.962 393.065 289.267 392.92 288.631 392.631C288.008 392.327 287.465 391.907 287.002 391.372C286.554 390.836 286.206 390.221 285.96 389.526C285.714 388.832 285.591 388.094 285.591 387.312C285.591 386.487 285.721 385.72 285.982 385.011C286.242 384.302 286.604 383.679 287.067 383.144C287.545 382.594 288.102 382.174 288.739 381.884C289.39 381.581 290.107 381.429 290.888 381.429C291.771 381.429 292.546 381.631 293.211 382.036C293.877 382.427 294.427 382.956 294.861 383.621V381.624H297.401V392.457C297.401 393.586 297.126 394.549 296.576 395.345C296.041 396.155 295.296 396.77 294.34 397.19C293.385 397.624 292.3 397.841 291.084 397.841C289.854 397.841 288.811 397.631 287.958 397.212C287.104 396.806 286.373 396.228 285.765 395.475L287.35 393.934C287.784 394.469 288.327 394.889 288.978 395.193C289.644 395.497 290.346 395.649 291.084 395.649C291.706 395.649 292.271 395.533 292.777 395.301C293.298 395.084 293.711 394.737 294.015 394.259C294.333 393.796 294.492 393.195 294.492 392.457V391.024C294.116 391.676 293.58 392.182 292.886 392.544C292.205 392.891 291.482 393.065 290.715 393.065ZM291.692 390.742C292.01 390.742 292.314 390.692 292.604 390.59C292.893 390.489 293.161 390.351 293.407 390.178C293.653 390.004 293.87 389.801 294.058 389.57C294.246 389.324 294.391 389.078 294.492 388.832V386.118C294.319 385.669 294.073 385.278 293.754 384.946C293.45 384.613 293.103 384.359 292.712 384.186C292.336 383.998 291.938 383.904 291.518 383.904C291.069 383.904 290.664 383.998 290.302 384.186C289.94 384.374 289.629 384.642 289.369 384.989C289.108 385.322 288.906 385.698 288.761 386.118C288.631 386.523 288.565 386.95 288.565 387.399C288.565 387.862 288.645 388.296 288.804 388.701C288.963 389.107 289.181 389.461 289.456 389.765C289.745 390.069 290.078 390.308 290.454 390.482C290.845 390.655 291.257 390.742 291.692 390.742ZM306.797 384.142C305.914 384.142 305.126 384.316 304.431 384.663C303.736 384.996 303.237 385.481 302.933 386.118V393H300.024V381.624H302.694V384.055C303.099 383.274 303.613 382.659 304.235 382.21C304.858 381.761 305.516 381.515 306.211 381.472C306.37 381.472 306.493 381.472 306.58 381.472C306.667 381.472 306.739 381.479 306.797 381.494V384.142ZM307.574 389.635C307.574 388.897 307.777 388.253 308.182 387.703C308.602 387.138 309.181 386.704 309.919 386.4C310.657 386.096 311.504 385.944 312.459 385.944C312.937 385.944 313.421 385.98 313.914 386.053C314.406 386.125 314.833 386.241 315.194 386.4V385.792C315.194 385.069 314.977 384.511 314.543 384.121C314.123 383.73 313.494 383.534 312.654 383.534C312.032 383.534 311.439 383.643 310.874 383.86C310.31 384.077 309.716 384.396 309.094 384.815L308.16 382.905C308.913 382.413 309.68 382.044 310.462 381.798C311.258 381.552 312.09 381.429 312.958 381.429C314.579 381.429 315.839 381.834 316.736 382.644C317.648 383.455 318.104 384.613 318.104 386.118V389.744C318.104 390.047 318.154 390.265 318.256 390.395C318.371 390.525 318.552 390.605 318.798 390.634V393C318.538 393.043 318.299 393.08 318.082 393.109C317.879 393.137 317.706 393.152 317.561 393.152C316.982 393.152 316.54 393.022 316.237 392.761C315.947 392.501 315.766 392.182 315.694 391.806L315.629 391.22C315.137 391.857 314.521 392.349 313.783 392.696C313.045 393.043 312.293 393.217 311.525 393.217C310.773 393.217 310.093 393.065 309.485 392.761C308.891 392.443 308.421 392.016 308.074 391.48C307.741 390.93 307.574 390.315 307.574 389.635ZM314.652 390.221C314.811 390.047 314.941 389.874 315.042 389.7C315.144 389.526 315.194 389.367 315.194 389.222V388.072C314.847 387.927 314.471 387.819 314.066 387.746C313.66 387.659 313.277 387.616 312.915 387.616C312.162 387.616 311.54 387.782 311.048 388.115C310.57 388.434 310.331 388.861 310.331 389.396C310.331 389.686 310.411 389.961 310.57 390.221C310.729 390.482 310.961 390.692 311.265 390.851C311.569 391.01 311.931 391.09 312.35 391.09C312.785 391.09 313.212 391.01 313.631 390.851C314.051 390.677 314.391 390.467 314.652 390.221ZM338.494 393H335.585V386.617C335.585 385.72 335.426 385.061 335.107 384.642C334.803 384.207 334.376 383.99 333.826 383.99C333.262 383.99 332.719 384.215 332.198 384.663C331.692 385.098 331.33 385.669 331.113 386.378V393H328.203V386.617C328.203 385.705 328.044 385.04 327.726 384.62C327.422 384.2 326.995 383.99 326.445 383.99C325.881 383.99 325.338 384.207 324.817 384.642C324.31 385.076 323.948 385.648 323.731 386.357V393H320.822V381.624H323.449V383.73C323.883 382.992 324.462 382.427 325.186 382.036C325.909 381.631 326.742 381.429 327.682 381.429C328.623 381.429 329.354 381.66 329.875 382.123C330.411 382.586 330.751 383.158 330.896 383.838C331.359 383.057 331.945 382.463 332.654 382.058C333.378 381.638 334.188 381.429 335.086 381.429C335.795 381.429 336.366 381.559 336.801 381.819C337.249 382.065 337.597 382.406 337.843 382.84C338.089 383.259 338.255 383.737 338.342 384.273C338.443 384.808 338.494 385.351 338.494 385.901V393Z" fill="black"/>
<path d="M300.357 137.665L351.792 49.4914C352.179 48.8275 353.139 48.8305 353.522 49.4968L404.222 137.67C404.606 138.337 404.124 139.169 403.355 139.169H301.221C300.449 139.169 299.968 138.332 300.357 137.665Z" stroke="#9478B8" stroke-width="4"/>
<path d="M332.913 165L314.238 63.408C314.098 62.6446 314.843 62.0193 315.57 62.29L410.815 97.73C411.396 97.9461 411.642 98.6327 411.332 99.1687L373.179 165" stroke="#9478B8" stroke-width="4" stroke-linecap="round"/>
<path d="M332.916 165L294.016 99.1698C293.7 98.6343 293.944 97.9431 294.526 97.7247L389.043 62.2808C389.762 62.0112 390.504 62.6189 390.381 63.3768L373.942 165" stroke="#9478B8" stroke-width="4" stroke-linecap="round"/>
<circle cx="352.91" cy="108.5" r="61.5" stroke="#9478B8" stroke-width="4" stroke-linecap="round"/>
<path fill-rule="evenodd" clip-rule="evenodd" d="M272.39 133.449C264.034 127.602 267.316 102.544 236.398 93.3533C268.919 98.5858 263.46 120.673 272.39 133.449ZM300.819 161.939C281.721 161.501 275.555 155.564 273.419 148.818C271.801 154.027 263.205 163.121 254.635 160.295C256.595 156.572 259.468 151.842 257.584 145.887C251.814 152.805 238.434 156.176 229.568 151.245C235.342 148.976 241.876 144.624 242.837 140.037C229.408 145.643 209.954 144.53 199.364 130.143C206.674 133.054 224.425 132.293 228.873 127.917C209.927 130.195 185.979 121.549 180.594 100.826C186.687 107.362 208.132 112.847 218.896 111.887C199.277 106.641 178.883 101.743 172.579 72.141C179.489 80.9661 202.634 92.4848 213.396 92.2597C194.917 85.8968 169.755 67.466 170.364 31.3462C191.935 82.3488 266.234 70.7393 278.012 112.656C281.041 124.247 285.998 146.386 300.819 161.939Z" fill="#9478B8"/>
<path fill-rule="evenodd" clip-rule="evenodd" d="M434.839 133.449C443.194 127.602 439.912 102.544 470.83 93.3533C438.309 98.5858 443.768 120.673 434.839 133.449ZM406.409 161.939C425.508 161.501 431.674 155.564 433.81 148.818C435.428 154.027 444.024 163.121 452.593 160.295C450.633 156.572 447.761 151.842 449.644 145.887C455.414 152.805 468.794 156.176 477.66 151.245C471.886 148.976 465.352 144.624 464.391 140.037C477.821 145.643 497.275 144.53 507.864 130.143C500.555 133.054 482.804 132.293 478.355 127.917C497.302 130.195 521.249 121.549 526.635 100.826C520.542 107.362 499.097 112.847 488.333 111.887C507.951 106.641 528.345 101.743 534.649 72.141C527.74 80.9661 504.594 92.4848 493.832 92.2597C512.312 85.8968 537.474 67.466 536.865 31.3462C515.294 82.3488 440.995 70.7393 429.216 112.656C426.187 124.247 421.231 146.386 406.409 161.939Z" fill="#9478B8"/>
</g>
<defs>
<clipPath id="clip0_1859_488">
<rect width="560" height="561" fill="white"/>
</clipPath>
</defs>
</svg>
