<svg width="132" height="146" viewBox="0 0 132 146" fill="none" xmlns="http://www.w3.org/2000/svg">
<circle cx="100.563" cy="30.4167" r="11.5" transform="rotate(17.6783 100.563 30.4167)" stroke="#FF6AE8" stroke-width="4"/>
<circle cx="122.463" cy="9.91047" r="7.5" transform="rotate(17.6783 122.463 9.91047)" stroke="#FF6AE8" stroke-width="4"/>
<mask id="path-3-outside-1_788_660" maskUnits="userSpaceOnUse" x="-0.0976562" y="29.7461" width="108" height="116" fill="black">
<rect fill="white" x="-0.0976562" y="29.7461" width="108" height="116"/>
<path d="M54.001 49.8204C62.6827 49.8204 70.5518 53.3565 76.2508 59.0713L76.2623 59.0829C81.9555 64.8006 85.4786 72.6925 85.4786 81.4027C85.4786 90.1188 81.9541 98.0122 76.2594 103.727C70.5561 109.448 62.6885 112.984 54.001 112.984C45.3134 112.984 37.4458 109.448 31.7497 103.734C26.0478 98.0122 22.5233 90.1188 22.5233 81.4027C22.5233 72.6911 26.0478 64.7962 31.7439 59.0785L31.7555 59.067C37.4545 53.3551 45.3206 49.8204 54.001 49.8204ZM4.63091 142.614C4.70152 143.623 3.94213 144.501 2.93634 144.572C1.93056 144.643 1.0559 143.881 0.985289 142.872C0.483837 135.836 2.25621 131.127 6.2981 128.75C10.1584 126.482 15.9611 126.579 23.6976 129.039C23.8461 129.086 23.983 129.149 24.1083 129.227L24.5103 129.447V119.391C24.5103 118.377 25.3302 117.555 26.3404 117.555H27.1257C22.3734 113.994 18.3459 109.514 15.3098 104.379C13.8559 101.92 12.6282 99.3118 11.6541 96.5824H8.02868C6.08772 96.5824 4.32399 95.7873 3.0473 94.5064C1.77061 93.2255 0.978085 91.456 0.978085 89.5087V73.2954C0.978085 71.348 1.77061 69.5785 3.0473 68.2977C4.32399 67.0168 6.08772 66.2217 8.02868 66.2217H11.6527C13.9135 59.8722 17.5534 54.1791 22.2106 49.5081C28.7828 42.9144 37.3824 38.3518 46.9878 36.8425C47.1017 36.0546 47.3466 35.2942 47.7069 34.5945C48.289 33.464 49.1838 32.4838 50.3164 31.7913C51.4533 31.0931 52.73 30.7461 53.9995 30.7461C55.2704 30.7461 56.5471 31.0931 57.6855 31.7884L57.7979 31.8636C58.8771 32.5503 59.7302 33.5016 60.2936 34.5945C60.6538 35.2942 60.8974 36.0546 61.0112 36.8425C70.6181 38.3533 79.2191 42.9144 85.7913 49.5081C90.4485 54.1791 94.0884 59.8708 96.3492 66.2217H99.9732C101.914 66.2217 103.678 67.0168 104.955 68.2977C106.231 69.5785 107.024 71.348 107.024 73.2954V89.5087C107.024 91.456 106.231 93.2255 104.955 94.5064C103.678 95.7873 101.914 96.5824 99.9732 96.5824H96.3478C95.3737 99.3118 94.146 101.921 92.6921 104.379C89.656 109.514 85.6285 113.994 80.8762 117.555H81.6616C82.6717 117.555 83.4916 118.377 83.4916 119.391V129.447L83.9757 129.182L84.3043 129.041C92.0407 126.579 97.8435 126.482 101.704 128.75C105.746 131.127 107.518 135.836 107.017 142.872C106.946 143.881 106.071 144.643 105.066 144.572C104.06 144.501 103.3 143.623 103.371 142.614C103.764 137.083 102.593 133.512 99.8594 131.905C96.9645 130.203 92.1964 130.4 85.5637 132.489C75.3847 138.078 64.6957 140.874 54.001 140.874C43.3062 140.874 32.6172 138.078 22.4382 132.489C15.8055 130.4 11.0374 130.203 8.14252 131.905C5.40903 133.512 4.23753 137.083 4.63091 142.614ZM28.1084 131.266C36.538 135.221 45.2716 137.202 54.001 137.202C62.7303 137.202 71.4639 135.223 79.8935 131.266C79.8531 131.114 79.8315 130.953 79.8315 130.789V121.227H28.1704V130.789C28.1704 130.953 28.1488 131.114 28.1084 131.266ZM33.7959 117.555H74.206C80.5376 113.986 85.8432 108.781 89.5479 102.514C93.3333 96.1111 95.3002 88.8596 95.3002 81.4027C95.3002 70.4055 90.9989 59.9257 83.2034 52.1046C75.7306 44.6073 65.4047 39.9681 54.001 39.9681C42.5972 39.9681 32.2713 44.6073 24.7985 52.1046C17.003 59.9228 12.7017 70.4083 12.7017 81.4027C12.7017 88.8523 14.6686 96.1169 18.454 102.514C22.1587 108.781 27.4643 113.986 33.7959 117.555ZM57.112 36.403L57.0486 36.2715C56.7791 35.7467 56.3742 35.2899 55.8684 34.9631L55.7834 34.914C55.2431 34.5844 54.6234 34.4181 53.9995 34.4181C53.377 34.4181 52.7574 34.5844 52.217 34.914C51.668 35.2436 51.2358 35.7207 50.9519 36.2715L50.887 36.403C51.9144 36.3322 52.9548 36.2961 54.001 36.2961C55.0471 36.2961 56.0846 36.3322 57.112 36.403ZM10.5201 69.8937H8.02868C7.09783 69.8937 6.25054 70.2768 5.63526 70.8941C5.01997 71.5114 4.63811 72.3615 4.63811 73.2954V89.5087C4.63811 90.4426 5.01997 91.2926 5.63526 91.91C6.25054 92.5273 7.09783 92.9104 8.02868 92.9104H10.5201C9.5561 89.2354 9.04168 85.3784 9.04168 81.4027C9.04168 77.4257 9.5561 73.5686 10.5201 69.8937ZM97.4818 92.9104H99.9732C100.904 92.9104 101.751 92.5273 102.367 91.91C102.982 91.2926 103.364 90.4426 103.364 89.5087V73.2954C103.364 72.3615 102.982 71.5114 102.367 70.8941C101.751 70.2768 100.904 69.8937 99.9732 69.8937H97.4818C98.4458 73.5686 98.9602 77.4257 98.9602 81.4027C98.9602 85.3784 98.4473 89.2354 97.4818 92.9104ZM73.6729 61.6634C68.6425 56.6151 61.6856 53.4924 54.001 53.4924C46.3163 53.4924 39.3594 56.6151 34.3319 61.6605C29.2958 66.7117 26.1833 73.6915 26.1833 81.4027C26.1833 89.1126 29.2972 96.0923 34.3276 101.141C39.3594 106.187 46.3163 109.312 54.001 109.312C61.6856 109.312 68.6425 106.187 73.6743 101.141C78.7047 96.0923 81.8186 89.1126 81.8186 81.4027C81.8186 73.6915 78.7061 66.7117 73.6729 61.6634Z"/>
</mask>
<path d="M54.001 49.8204C62.6827 49.8204 70.5518 53.3565 76.2508 59.0713L76.2623 59.0829C81.9555 64.8006 85.4786 72.6925 85.4786 81.4027C85.4786 90.1188 81.9541 98.0122 76.2594 103.727C70.5561 109.448 62.6885 112.984 54.001 112.984C45.3134 112.984 37.4458 109.448 31.7497 103.734C26.0478 98.0122 22.5233 90.1188 22.5233 81.4027C22.5233 72.6911 26.0478 64.7962 31.7439 59.0785L31.7555 59.067C37.4545 53.3551 45.3206 49.8204 54.001 49.8204ZM4.63091 142.614C4.70152 143.623 3.94213 144.501 2.93634 144.572C1.93056 144.643 1.0559 143.881 0.985289 142.872C0.483837 135.836 2.25621 131.127 6.2981 128.75C10.1584 126.482 15.9611 126.579 23.6976 129.039C23.8461 129.086 23.983 129.149 24.1083 129.227L24.5103 129.447V119.391C24.5103 118.377 25.3302 117.555 26.3404 117.555H27.1257C22.3734 113.994 18.3459 109.514 15.3098 104.379C13.8559 101.92 12.6282 99.3118 11.6541 96.5824H8.02868C6.08772 96.5824 4.32399 95.7873 3.0473 94.5064C1.77061 93.2255 0.978085 91.456 0.978085 89.5087V73.2954C0.978085 71.348 1.77061 69.5785 3.0473 68.2977C4.32399 67.0168 6.08772 66.2217 8.02868 66.2217H11.6527C13.9135 59.8722 17.5534 54.1791 22.2106 49.5081C28.7828 42.9144 37.3824 38.3518 46.9878 36.8425C47.1017 36.0546 47.3466 35.2942 47.7069 34.5945C48.289 33.464 49.1838 32.4838 50.3164 31.7913C51.4533 31.0931 52.73 30.7461 53.9995 30.7461C55.2704 30.7461 56.5471 31.0931 57.6855 31.7884L57.7979 31.8636C58.8771 32.5503 59.7302 33.5016 60.2936 34.5945C60.6538 35.2942 60.8974 36.0546 61.0112 36.8425C70.6181 38.3533 79.2191 42.9144 85.7913 49.5081C90.4485 54.1791 94.0884 59.8708 96.3492 66.2217H99.9732C101.914 66.2217 103.678 67.0168 104.955 68.2977C106.231 69.5785 107.024 71.348 107.024 73.2954V89.5087C107.024 91.456 106.231 93.2255 104.955 94.5064C103.678 95.7873 101.914 96.5824 99.9732 96.5824H96.3478C95.3737 99.3118 94.146 101.921 92.6921 104.379C89.656 109.514 85.6285 113.994 80.8762 117.555H81.6616C82.6717 117.555 83.4916 118.377 83.4916 119.391V129.447L83.9757 129.182L84.3043 129.041C92.0407 126.579 97.8435 126.482 101.704 128.75C105.746 131.127 107.518 135.836 107.017 142.872C106.946 143.881 106.071 144.643 105.066 144.572C104.06 144.501 103.3 143.623 103.371 142.614C103.764 137.083 102.593 133.512 99.8594 131.905C96.9645 130.203 92.1964 130.4 85.5637 132.489C75.3847 138.078 64.6957 140.874 54.001 140.874C43.3062 140.874 32.6172 138.078 22.4382 132.489C15.8055 130.4 11.0374 130.203 8.14252 131.905C5.40903 133.512 4.23753 137.083 4.63091 142.614ZM28.1084 131.266C36.538 135.221 45.2716 137.202 54.001 137.202C62.7303 137.202 71.4639 135.223 79.8935 131.266C79.8531 131.114 79.8315 130.953 79.8315 130.789V121.227H28.1704V130.789C28.1704 130.953 28.1488 131.114 28.1084 131.266ZM33.7959 117.555H74.206C80.5376 113.986 85.8432 108.781 89.5479 102.514C93.3333 96.1111 95.3002 88.8596 95.3002 81.4027C95.3002 70.4055 90.9989 59.9257 83.2034 52.1046C75.7306 44.6073 65.4047 39.9681 54.001 39.9681C42.5972 39.9681 32.2713 44.6073 24.7985 52.1046C17.003 59.9228 12.7017 70.4083 12.7017 81.4027C12.7017 88.8523 14.6686 96.1169 18.454 102.514C22.1587 108.781 27.4643 113.986 33.7959 117.555ZM57.112 36.403L57.0486 36.2715C56.7791 35.7467 56.3742 35.2899 55.8684 34.9631L55.7834 34.914C55.2431 34.5844 54.6234 34.4181 53.9995 34.4181C53.377 34.4181 52.7574 34.5844 52.217 34.914C51.668 35.2436 51.2358 35.7207 50.9519 36.2715L50.887 36.403C51.9144 36.3322 52.9548 36.2961 54.001 36.2961C55.0471 36.2961 56.0846 36.3322 57.112 36.403ZM10.5201 69.8937H8.02868C7.09783 69.8937 6.25054 70.2768 5.63526 70.8941C5.01997 71.5114 4.63811 72.3615 4.63811 73.2954V89.5087C4.63811 90.4426 5.01997 91.2926 5.63526 91.91C6.25054 92.5273 7.09783 92.9104 8.02868 92.9104H10.5201C9.5561 89.2354 9.04168 85.3784 9.04168 81.4027C9.04168 77.4257 9.5561 73.5686 10.5201 69.8937ZM97.4818 92.9104H99.9732C100.904 92.9104 101.751 92.5273 102.367 91.91C102.982 91.2926 103.364 90.4426 103.364 89.5087V73.2954C103.364 72.3615 102.982 71.5114 102.367 70.8941C101.751 70.2768 100.904 69.8937 99.9732 69.8937H97.4818C98.4458 73.5686 98.9602 77.4257 98.9602 81.4027C98.9602 85.3784 98.4473 89.2354 97.4818 92.9104ZM73.6729 61.6634C68.6425 56.6151 61.6856 53.4924 54.001 53.4924C46.3163 53.4924 39.3594 56.6151 34.3319 61.6605C29.2958 66.7117 26.1833 73.6915 26.1833 81.4027C26.1833 89.1126 29.2972 96.0923 34.3276 101.141C39.3594 106.187 46.3163 109.312 54.001 109.312C61.6856 109.312 68.6425 106.187 73.6743 101.141C78.7047 96.0923 81.8186 89.1126 81.8186 81.4027C81.8186 73.6915 78.7061 66.7117 73.6729 61.6634Z" fill="#FF6AE8"/>
<path d="M54.001 49.8204C62.6827 49.8204 70.5518 53.3565 76.2508 59.0713L76.2623 59.0829C81.9555 64.8006 85.4786 72.6925 85.4786 81.4027C85.4786 90.1188 81.9541 98.0122 76.2594 103.727C70.5561 109.448 62.6885 112.984 54.001 112.984C45.3134 112.984 37.4458 109.448 31.7497 103.734C26.0478 98.0122 22.5233 90.1188 22.5233 81.4027C22.5233 72.6911 26.0478 64.7962 31.7439 59.0785L31.7555 59.067C37.4545 53.3551 45.3206 49.8204 54.001 49.8204ZM4.63091 142.614C4.70152 143.623 3.94213 144.501 2.93634 144.572C1.93056 144.643 1.0559 143.881 0.985289 142.872C0.483837 135.836 2.25621 131.127 6.2981 128.75C10.1584 126.482 15.9611 126.579 23.6976 129.039C23.8461 129.086 23.983 129.149 24.1083 129.227L24.5103 129.447V119.391C24.5103 118.377 25.3302 117.555 26.3404 117.555H27.1257C22.3734 113.994 18.3459 109.514 15.3098 104.379C13.8559 101.92 12.6282 99.3118 11.6541 96.5824H8.02868C6.08772 96.5824 4.32399 95.7873 3.0473 94.5064C1.77061 93.2255 0.978085 91.456 0.978085 89.5087V73.2954C0.978085 71.348 1.77061 69.5785 3.0473 68.2977C4.32399 67.0168 6.08772 66.2217 8.02868 66.2217H11.6527C13.9135 59.8722 17.5534 54.1791 22.2106 49.5081C28.7828 42.9144 37.3824 38.3518 46.9878 36.8425C47.1017 36.0546 47.3466 35.2942 47.7069 34.5945C48.289 33.464 49.1838 32.4838 50.3164 31.7913C51.4533 31.0931 52.73 30.7461 53.9995 30.7461C55.2704 30.7461 56.5471 31.0931 57.6855 31.7884L57.7979 31.8636C58.8771 32.5503 59.7302 33.5016 60.2936 34.5945C60.6538 35.2942 60.8974 36.0546 61.0112 36.8425C70.6181 38.3533 79.2191 42.9144 85.7913 49.5081C90.4485 54.1791 94.0884 59.8708 96.3492 66.2217H99.9732C101.914 66.2217 103.678 67.0168 104.955 68.2977C106.231 69.5785 107.024 71.348 107.024 73.2954V89.5087C107.024 91.456 106.231 93.2255 104.955 94.5064C103.678 95.7873 101.914 96.5824 99.9732 96.5824H96.3478C95.3737 99.3118 94.146 101.921 92.6921 104.379C89.656 109.514 85.6285 113.994 80.8762 117.555H81.6616C82.6717 117.555 83.4916 118.377 83.4916 119.391V129.447L83.9757 129.182L84.3043 129.041C92.0407 126.579 97.8435 126.482 101.704 128.75C105.746 131.127 107.518 135.836 107.017 142.872C106.946 143.881 106.071 144.643 105.066 144.572C104.06 144.501 103.3 143.623 103.371 142.614C103.764 137.083 102.593 133.512 99.8594 131.905C96.9645 130.203 92.1964 130.4 85.5637 132.489C75.3847 138.078 64.6957 140.874 54.001 140.874C43.3062 140.874 32.6172 138.078 22.4382 132.489C15.8055 130.4 11.0374 130.203 8.14252 131.905C5.40903 133.512 4.23753 137.083 4.63091 142.614ZM28.1084 131.266C36.538 135.221 45.2716 137.202 54.001 137.202C62.7303 137.202 71.4639 135.223 79.8935 131.266C79.8531 131.114 79.8315 130.953 79.8315 130.789V121.227H28.1704V130.789C28.1704 130.953 28.1488 131.114 28.1084 131.266ZM33.7959 117.555H74.206C80.5376 113.986 85.8432 108.781 89.5479 102.514C93.3333 96.1111 95.3002 88.8596 95.3002 81.4027C95.3002 70.4055 90.9989 59.9257 83.2034 52.1046C75.7306 44.6073 65.4047 39.9681 54.001 39.9681C42.5972 39.9681 32.2713 44.6073 24.7985 52.1046C17.003 59.9228 12.7017 70.4083 12.7017 81.4027C12.7017 88.8523 14.6686 96.1169 18.454 102.514C22.1587 108.781 27.4643 113.986 33.7959 117.555ZM57.112 36.403L57.0486 36.2715C56.7791 35.7467 56.3742 35.2899 55.8684 34.9631L55.7834 34.914C55.2431 34.5844 54.6234 34.4181 53.9995 34.4181C53.377 34.4181 52.7574 34.5844 52.217 34.914C51.668 35.2436 51.2358 35.7207 50.9519 36.2715L50.887 36.403C51.9144 36.3322 52.9548 36.2961 54.001 36.2961C55.0471 36.2961 56.0846 36.3322 57.112 36.403ZM10.5201 69.8937H8.02868C7.09783 69.8937 6.25054 70.2768 5.63526 70.8941C5.01997 71.5114 4.63811 72.3615 4.63811 73.2954V89.5087C4.63811 90.4426 5.01997 91.2926 5.63526 91.91C6.25054 92.5273 7.09783 92.9104 8.02868 92.9104H10.5201C9.5561 89.2354 9.04168 85.3784 9.04168 81.4027C9.04168 77.4257 9.5561 73.5686 10.5201 69.8937ZM97.4818 92.9104H99.9732C100.904 92.9104 101.751 92.5273 102.367 91.91C102.982 91.2926 103.364 90.4426 103.364 89.5087V73.2954C103.364 72.3615 102.982 71.5114 102.367 70.8941C101.751 70.2768 100.904 69.8937 99.9732 69.8937H97.4818C98.4458 73.5686 98.9602 77.4257 98.9602 81.4027C98.9602 85.3784 98.4473 89.2354 97.4818 92.9104ZM73.6729 61.6634C68.6425 56.6151 61.6856 53.4924 54.001 53.4924C46.3163 53.4924 39.3594 56.6151 34.3319 61.6605C29.2958 66.7117 26.1833 73.6915 26.1833 81.4027C26.1833 89.1126 29.2972 96.0923 34.3276 101.141C39.3594 106.187 46.3163 109.312 54.001 109.312C61.6856 109.312 68.6425 106.187 73.6743 101.141C78.7047 96.0923 81.8186 89.1126 81.8186 81.4027C81.8186 73.6915 78.7061 66.7117 73.6729 61.6634Z" stroke="#FF6AE8" stroke-width="1.2" mask="url(#path-3-outside-1_788_660)"/>
</svg>
