<svg width="18" height="18" viewBox="0 0 18 18" fill="none" xmlns="http://www.w3.org/2000/svg">
<path d="M8.52844 0.924015C8.72493 0.538999 9.27507 0.538999 9.47155 0.924014L11.8753 5.63412C11.9522 5.78486 12.0966 5.88973 12.2637 5.91632L17.4861 6.74689C17.9129 6.81478 18.0829 7.338 17.7775 7.64384L14.0407 11.3854C13.9211 11.5052 13.866 11.6749 13.8923 11.842L14.7162 17.0655C14.7836 17.4924 14.3385 17.8158 13.9532 17.6198L9.24005 15.2221C9.08921 15.1454 8.91079 15.1454 8.75995 15.2221L4.04677 17.6198C3.6615 17.8158 3.21643 17.4924 3.28377 17.0655L4.10765 11.842C4.13402 11.6749 4.07888 11.5052 3.9593 11.3854L0.222507 7.64384C-0.082947 7.338 0.0870544 6.81478 0.513943 6.74689L5.73632 5.91632C5.90344 5.88973 6.04779 5.78486 6.12472 5.63412L8.52844 0.924015Z" fill="#FFAC2F"/>
</svg>
