<svg width="62" height="64" viewBox="0 0 62 64" fill="none" xmlns="http://www.w3.org/2000/svg">
<path fill-rule="evenodd" clip-rule="evenodd" d="M9.11765 0C4.08215 0 0 4.09344 0 9.14286V42.0571C0 47.1066 4.08215 51.2 9.11765 51.2H14.5882V62.1714C14.5882 62.8889 15.0066 63.5401 15.6583 63.8366C16.3098 64.133 17.0741 64.02 17.6126 63.5475L31.6852 51.2H52.8824C57.9178 51.2 62 47.1066 62 42.0571V9.14286C62 4.09344 57.9178 0 52.8824 0H9.11765ZM3.64706 9.14286C3.64706 6.11319 6.09633 3.65714 9.11765 3.65714H52.8824C55.9037 3.65714 58.3529 6.11319 58.3529 9.14286V42.0571C58.3529 45.0868 55.9037 47.5428 52.8824 47.5428H31C30.5583 47.5428 30.1316 47.7036 29.7992 47.9952L18.2353 58.1417V49.3714C18.2353 48.3615 17.4189 47.5428 16.4118 47.5428H9.11765C6.09633 47.5428 3.64706 45.0868 3.64706 42.0571V9.14286ZM16.4118 29.2571C18.4259 29.2571 20.0588 27.6197 20.0588 25.6C20.0588 23.5802 18.4259 21.9429 16.4118 21.9429C14.3976 21.9429 12.7647 23.5802 12.7647 25.6C12.7647 27.6197 14.3976 29.2571 16.4118 29.2571ZM34.6471 25.6C34.6471 27.6197 33.0142 29.2571 31 29.2571C28.9858 29.2571 27.3529 27.6197 27.3529 25.6C27.3529 23.5802 28.9858 21.9429 31 21.9429C33.0142 21.9429 34.6471 23.5802 34.6471 25.6ZM45.5882 29.2571C47.6024 29.2571 49.2353 27.6197 49.2353 25.6C49.2353 23.5802 47.6024 21.9429 45.5882 21.9429C43.5741 21.9429 41.9412 23.5802 41.9412 25.6C41.9412 27.6197 43.5741 29.2571 45.5882 29.2571Z" fill="#603F87"/>
</svg>
