<svg width="201" height="68" viewBox="0 0 201 68" fill="none" xmlns="http://www.w3.org/2000/svg">
<g clip-path="url(#clip0_1652_76)">
<path d="M3.9593 64.9965V58.2559H8.44322V58.7985H4.595V61.2323H8.06862V61.7749H4.595V64.4539H8.53631V64.9965H3.95703H3.9593Z" fill="black"/>
<path d="M11.2807 62.902L9.77322 64.9998H9.08984L10.9515 62.4911L9.23742 60.1504H9.92987L11.2694 62.0802L12.6452 60.1504H13.3581L11.6077 62.4911L13.4262 64.9998H12.7519L11.2807 62.902Z" fill="black"/>
<path d="M14.6251 62.7053C14.6251 62.9687 14.6591 63.2162 14.7272 63.45C14.7954 63.6839 14.8975 63.8882 15.0315 64.0585C15.1654 64.2287 15.3357 64.3672 15.5423 64.4717C15.7466 64.5738 15.985 64.6261 16.2552 64.6261C16.623 64.6261 16.9386 64.5284 17.1996 64.3354C17.4607 64.1425 17.6355 63.8678 17.7241 63.5136H18.3507C18.2826 63.7452 18.1895 63.9586 18.0783 64.1561C17.9647 64.3513 17.824 64.5239 17.656 64.6715C17.488 64.819 17.2882 64.9325 17.0566 65.0143C16.825 65.0937 16.5571 65.1346 16.2529 65.1346C15.8647 65.1346 15.5309 65.0688 15.2494 64.9371C14.9702 64.8054 14.7386 64.6283 14.557 64.399C14.3753 64.1697 14.2414 63.9018 14.1551 63.5931C14.0688 63.2843 14.0234 62.9505 14.0234 62.5964C14.0234 62.2422 14.0734 61.9062 14.1778 61.5951C14.2823 61.2818 14.4276 61.0094 14.6183 60.7756C14.809 60.5417 15.0428 60.3578 15.3153 60.2216C15.59 60.0876 15.901 60.0195 16.2529 60.0195C16.9204 60.0195 17.4448 60.2488 17.8263 60.7075C18.2054 61.1661 18.3938 61.8335 18.387 62.7053H14.6228H14.6251ZM17.7899 62.2354C17.7899 61.9993 17.7581 61.7745 17.6923 61.5679C17.6265 61.359 17.5311 61.1774 17.4017 61.0253C17.2746 60.8709 17.1134 60.7506 16.9181 60.6598C16.7251 60.569 16.5026 60.5235 16.2552 60.5235C16.0077 60.5235 15.7852 60.5712 15.5945 60.6643C15.4038 60.7597 15.2426 60.8845 15.1087 61.0389C14.9747 61.1933 14.8657 61.3749 14.7863 61.5815C14.7045 61.7859 14.6523 62.0061 14.6273 62.2354H17.7922H17.7899Z" fill="black"/>
<path d="M22.9208 61.6746C22.8209 61.3136 22.6484 61.0298 22.4055 60.8278C22.1625 60.6257 21.8515 60.5235 21.4792 60.5235C21.1931 60.5235 20.9456 60.5848 20.739 60.7029C20.5347 60.821 20.3644 60.9776 20.235 61.1751C20.1033 61.3727 20.008 61.5929 19.9444 61.8403C19.8831 62.0855 19.8513 62.333 19.8513 62.585C19.8513 62.837 19.8808 63.089 19.9399 63.3342C19.9989 63.5772 20.0942 63.7974 20.2259 63.9904C20.3576 64.1856 20.5256 64.34 20.7299 64.4535C20.9365 64.5693 21.1863 64.6261 21.4792 64.6261C21.8969 64.6261 22.2329 64.5103 22.4849 64.2787C22.7392 64.0471 22.8981 63.7293 22.9685 63.3252H23.5679C23.5179 63.5931 23.4385 63.8382 23.3295 64.0585C23.2205 64.281 23.0797 64.4717 22.9072 64.6306C22.7347 64.7895 22.5326 64.9144 22.2942 65.0007C22.0558 65.0869 21.7857 65.1323 21.4792 65.1323C21.0932 65.1323 20.7572 65.0665 20.4779 64.9348C20.1964 64.8031 19.9648 64.6261 19.7855 64.3968C19.6039 64.1697 19.4699 63.8995 19.3836 63.5862C19.2974 63.2729 19.252 62.9415 19.252 62.585C19.252 62.2467 19.2996 61.9244 19.3973 61.6156C19.4949 61.3068 19.6356 61.0321 19.8241 60.796C20.0102 60.5599 20.2441 60.3714 20.5211 60.2307C20.7981 60.0899 21.1182 60.0195 21.4814 60.0195C22.0422 60.0195 22.4963 60.1535 22.8436 60.4214C23.191 60.6893 23.4067 61.107 23.4952 61.6769H22.9231L22.9208 61.6746Z" fill="black"/>
<path d="M27.975 60.1484H28.538V64.9979H27.975V64.3236C27.9 64.4099 27.816 64.5007 27.7229 64.596C27.6276 64.6891 27.5209 64.7754 27.3983 64.8526C27.278 64.9298 27.1349 64.9956 26.9715 65.0501C26.8103 65.1023 26.6218 65.1296 26.4107 65.1296C26.086 65.1296 25.8136 65.0842 25.5956 64.9956C25.3754 64.9048 25.2006 64.7799 25.0666 64.6165C24.9327 64.4553 24.8351 64.2668 24.776 64.0489C24.717 63.8332 24.6875 63.5994 24.6875 63.3428V60.1484H25.2505V63.3315C25.2505 63.7515 25.3459 64.0693 25.5411 64.2918C25.7341 64.5143 26.0542 64.6255 26.497 64.6255C26.7285 64.6255 26.9351 64.5801 27.119 64.4893C27.3029 64.3985 27.4573 64.2736 27.5822 64.1102C27.7071 63.9467 27.8024 63.7537 27.8728 63.529C27.9409 63.3042 27.975 63.0567 27.975 62.7888V60.1484Z" fill="black"/>
<path d="M31.6014 65.0153C31.5332 65.029 31.4402 65.0494 31.3289 65.0812C31.2154 65.113 31.0905 65.1266 30.9543 65.1266C30.6751 65.1266 30.4616 65.0562 30.3118 64.9154C30.1665 64.7769 30.0916 64.5249 30.0916 64.1617V60.6131H29.4082V60.1455H30.0916V58.7969H30.6523V60.1455H31.5605V60.6131H30.6523V63.9369C30.6523 64.055 30.6569 64.1571 30.6614 64.2457C30.666 64.332 30.6864 64.4046 30.7182 64.4614C30.75 64.5181 30.7977 64.5567 30.8635 64.5817C30.9293 64.6067 31.0201 64.6203 31.1382 64.6203C31.2131 64.6203 31.2903 64.6135 31.3698 64.5999C31.447 64.5885 31.5242 64.5726 31.5991 64.5545V65.0131L31.6014 65.0153Z" fill="black"/>
<path d="M32.5547 59.0891V58.2559H33.1722V59.0891H32.5547ZM32.5842 64.9965V60.147H33.145V64.9965H32.5842Z" fill="black"/>
<path d="M34.0645 60.1484H34.6729L36.2462 64.3054L37.8196 60.1484H38.428L36.5459 64.9979H35.9193L34.0645 60.1484Z" fill="black"/>
<path d="M39.6055 62.7053C39.6055 62.9687 39.6396 63.2162 39.7077 63.45C39.7758 63.6839 39.878 63.8882 40.0119 64.0585C40.1459 64.231 40.3162 64.3672 40.5228 64.4717C40.7271 64.5738 40.9655 64.6261 41.2357 64.6261C41.6034 64.6261 41.919 64.5284 42.1801 64.3354C42.4412 64.1425 42.616 63.8678 42.7046 63.5136H43.3312C43.2631 63.7452 43.17 63.9586 43.0587 64.1561C42.9452 64.3513 42.8045 64.5239 42.6365 64.6715C42.4684 64.819 42.2687 64.9325 42.0371 65.0143C41.8055 65.0937 41.5376 65.1346 41.2334 65.1346C40.8452 65.1346 40.5114 65.0688 40.2299 64.9371C39.9506 64.8054 39.7191 64.6283 39.5374 64.399C39.3558 64.172 39.2219 63.9018 39.1356 63.5931C39.0493 63.2843 39.0039 62.9505 39.0039 62.5964C39.0039 62.2422 39.0539 61.9062 39.1583 61.5951C39.2627 61.2818 39.408 61.0094 39.5987 60.7756C39.7894 60.5417 40.0233 60.3578 40.2957 60.2216C40.5704 60.0876 40.8815 60.0195 41.2334 60.0195C41.9009 60.0195 42.4253 60.2488 42.8067 60.7075C43.1859 61.1661 43.3743 61.8335 43.3675 62.7053H39.6033H39.6055ZM42.7704 62.2354C42.7704 61.9993 42.7386 61.7745 42.6728 61.5679C42.6069 61.359 42.5116 61.1774 42.3822 61.0253C42.255 60.8709 42.0938 60.7506 41.8986 60.6598C41.7056 60.569 41.4831 60.5235 41.2357 60.5235C40.9882 60.5235 40.7657 60.5712 40.575 60.6643C40.3843 60.7597 40.2231 60.8845 40.0891 61.0389C39.9552 61.1933 39.8462 61.3749 39.7667 61.5815C39.685 61.7859 39.6328 62.0061 39.6078 62.2354H42.7727H42.7704Z" fill="black"/>
<path d="M47.416 62.9863C47.441 63.286 47.5068 63.5402 47.6181 63.7491C47.727 63.958 47.8678 64.1283 48.0381 64.2599C48.2083 64.3916 48.4081 64.487 48.6329 64.546C48.8577 64.605 49.096 64.6345 49.3526 64.6345C49.6523 64.6345 49.9111 64.5982 50.1313 64.5233C50.3493 64.4484 50.5264 64.3462 50.6648 64.2191C50.8033 64.0919 50.9032 63.9444 50.9691 63.7741C51.0349 63.6061 51.0667 63.429 51.0667 63.2406C51.0667 62.9772 51.0077 62.7661 50.8896 62.6026C50.7716 62.4414 50.6172 62.3074 50.4265 62.2053C50.2358 62.1031 50.0178 62.0191 49.7703 61.9578C49.5251 61.8942 49.2709 61.8329 49.012 61.7739C48.7532 61.7149 48.4989 61.6445 48.2537 61.5628C48.0086 61.4833 47.7906 61.3721 47.5976 61.2358C47.4069 61.0996 47.2525 60.9225 47.1345 60.7069C47.0141 60.4912 46.9551 60.2187 46.9551 59.8873C46.9551 59.6557 47.0051 59.4309 47.1004 59.213C47.1958 58.9928 47.3388 58.7998 47.5318 58.6318C47.7225 58.4638 47.9609 58.3298 48.2469 58.2299C48.533 58.13 48.8645 58.0801 49.2391 58.0801C49.6137 58.0801 49.952 58.1346 50.2358 58.239C50.5195 58.3457 50.7557 58.491 50.9441 58.6749C51.1303 58.8588 51.271 59.0722 51.3641 59.3174C51.4595 59.5603 51.5049 59.8192 51.5049 60.0939H50.8964C50.8964 59.8373 50.851 59.6171 50.7602 59.4309C50.6694 59.2448 50.5468 59.0904 50.3901 58.9723C50.2335 58.852 50.0564 58.7657 49.8566 58.709C49.6568 58.6522 49.4502 58.625 49.2368 58.625C48.9121 58.625 48.6397 58.6704 48.4172 58.7612C48.1947 58.852 48.0199 58.9678 47.8882 59.1108C47.7565 59.2561 47.6657 59.415 47.6158 59.5899C47.5658 59.7647 47.5568 59.9395 47.5885 60.1143C47.6271 60.3323 47.7134 60.5071 47.8496 60.6387C47.9881 60.7704 48.1561 60.8771 48.3559 60.9634C48.5557 61.0474 48.7759 61.1178 49.0166 61.1677C49.2572 61.2222 49.5024 61.2767 49.7522 61.3357C50.0019 61.3948 50.2426 61.4652 50.4764 61.5469C50.7103 61.6286 50.9191 61.7376 51.0985 61.8738C51.2801 62.0123 51.4254 62.1871 51.5321 62.4028C51.6411 62.6185 51.6956 62.8887 51.6956 63.2133C51.6956 63.8354 51.4799 64.3212 51.0508 64.6641C50.6194 65.0069 50.0133 65.1794 49.2323 65.1794C48.8826 65.1794 48.558 65.134 48.2583 65.0455C47.9586 64.9547 47.6998 64.8184 47.4818 64.6323C47.2616 64.4484 47.0936 64.2191 46.971 63.9489C46.8484 63.6765 46.7871 63.3586 46.7871 62.9886H47.4069L47.416 62.9863Z" fill="black"/>
<path d="M53.1368 62.7053C53.1368 62.9687 53.1709 63.2162 53.239 63.45C53.3071 63.6839 53.4092 63.8882 53.5432 64.0585C53.6771 64.231 53.8474 64.3672 54.054 64.4717C54.2583 64.5738 54.4967 64.6261 54.7669 64.6261C55.1347 64.6261 55.4503 64.5284 55.7114 64.3354C55.9725 64.1425 56.1473 63.8678 56.2358 63.5136H56.8624C56.7943 63.7452 56.7012 63.9586 56.59 64.1561C56.4765 64.3513 56.3357 64.5239 56.1677 64.6715C55.9997 64.819 55.7999 64.9325 55.5683 65.0143C55.3368 65.0937 55.0689 65.1346 54.7646 65.1346C54.3764 65.1346 54.0427 65.0688 53.7611 64.9371C53.4819 64.8054 53.2503 64.6283 53.0687 64.399C52.8871 64.172 52.7531 63.9018 52.6668 63.5931C52.5806 63.2843 52.5352 62.9505 52.5352 62.5964C52.5352 62.2422 52.5851 61.9062 52.6895 61.5951C52.794 61.2818 52.9393 61.0094 53.13 60.7756C53.3207 60.5417 53.5545 60.3578 53.827 60.2216C54.1017 60.0876 54.4127 60.0195 54.7646 60.0195C55.4321 60.0195 55.9566 60.2488 56.338 60.7075C56.7171 61.1661 56.9056 61.8335 56.8987 62.7053H53.1345H53.1368ZM56.3017 62.2354C56.3017 61.9993 56.2699 61.7745 56.204 61.5679C56.1382 61.359 56.0428 61.1774 55.9134 61.0253C55.7863 60.8709 55.6251 60.7506 55.4298 60.6598C55.2369 60.569 55.0144 60.5235 54.7669 60.5235C54.5194 60.5235 54.2969 60.5712 54.1062 60.6643C53.9155 60.7597 53.7543 60.8845 53.6204 61.0389C53.4864 61.1933 53.3775 61.3749 53.298 61.5815C53.2163 61.7859 53.164 62.0061 53.1391 62.2354H56.3039H56.3017Z" fill="black"/>
<path d="M60.223 62.1718C60.3297 62.1582 60.4569 62.14 60.6022 62.1151C60.7475 62.0901 60.8701 62.056 60.9632 62.0129C61.0585 61.9698 61.1153 61.8971 61.1357 61.7927C61.1584 61.6905 61.1698 61.5952 61.1698 61.5066C61.1698 61.2205 61.0767 60.9844 60.8928 60.8005C60.7089 60.6166 60.4001 60.5235 59.9619 60.5235C59.7667 60.5235 59.5896 60.5417 59.4284 60.5758C59.265 60.6098 59.1242 60.6711 59.0016 60.7551C58.879 60.8391 58.7791 60.9504 58.7019 61.0911C58.6224 61.2319 58.5725 61.4067 58.5475 61.6201H57.9754C57.9936 61.3341 58.0594 61.0889 58.1729 60.8868C58.2864 60.6847 58.4295 60.519 58.6066 60.3896C58.7859 60.2625 58.9902 60.1671 59.2241 60.1081C59.4579 60.049 59.7077 60.0195 59.9688 60.0195C60.2117 60.0195 60.441 60.0468 60.6567 60.099C60.8724 60.1512 61.0585 60.2352 61.2174 60.351C61.3764 60.4668 61.5012 60.6212 61.5921 60.8142C61.6829 61.0071 61.7283 61.2455 61.7283 61.527V64.1674C61.7283 64.3854 61.7669 64.5239 61.8441 64.5829C61.9235 64.6419 62.0802 64.6283 62.3163 64.5398V64.9802C62.2732 64.9938 62.2096 65.012 62.1256 65.037C62.0416 65.062 61.9576 65.0733 61.8758 65.0733C61.7896 65.0733 61.7033 65.0642 61.6238 65.0461C61.5285 65.0324 61.4558 65.0029 61.3991 64.9575C61.3423 64.9121 61.2969 64.8554 61.2651 64.7895C61.2311 64.7237 61.2061 64.6533 61.1947 64.5738C61.1811 64.4966 61.1743 64.4126 61.1743 64.3264C60.9382 64.5875 60.6657 64.7872 60.3593 64.9257C60.055 65.062 59.7236 65.1301 59.3671 65.1301C59.1537 65.1301 58.9494 65.1028 58.7541 65.0461C58.5566 64.9893 58.3841 64.903 58.2342 64.785C58.0844 64.6669 57.9663 64.5216 57.8778 64.3491C57.7915 64.1765 57.7461 63.9745 57.7461 63.7361C57.7461 62.9142 58.3114 62.4261 59.442 62.2762L60.2185 62.1741L60.223 62.1718ZM61.1698 62.4533C60.9314 62.5532 60.6907 62.6168 60.4478 62.6486C60.2049 62.6804 59.9619 62.7053 59.7167 62.7235C59.2854 62.7553 58.9494 62.8506 58.7087 63.0141C58.4703 63.1753 58.3477 63.4228 58.3477 63.7542C58.3477 63.9041 58.3773 64.0335 58.4363 64.1425C58.4976 64.2514 58.5748 64.3423 58.6701 64.4149C58.7655 64.4876 58.879 64.5398 59.0061 64.5738C59.1333 64.6079 59.2627 64.6261 59.3966 64.6261C59.6214 64.6261 59.8393 64.5988 60.0528 64.5421C60.2639 64.4853 60.4546 64.399 60.6181 64.2855C60.7838 64.1697 60.9155 64.0221 61.0154 63.8451C61.1153 63.668 61.1652 63.4568 61.1652 63.2139V62.4556L61.1698 62.4533Z" fill="black"/>
<path d="M63.7916 64.9968H63.2285V60.1473H63.7916V61.0554H63.8097C63.9664 60.6695 64.1662 60.3993 64.4136 60.2449C64.6588 60.0905 64.9858 60.0156 65.3921 60.0156V60.6241C65.072 60.6173 64.8109 60.6672 64.6066 60.7739C64.4 60.8806 64.2365 61.0237 64.1139 61.2053C63.9936 61.3869 63.9096 61.6003 63.8597 61.8478C63.8143 62.0953 63.7916 62.3518 63.7916 62.6197V64.999V64.9968Z" fill="black"/>
<path d="M69.7568 61.6746C69.6569 61.3136 69.4843 61.0298 69.2414 60.8278C68.9985 60.6257 68.6874 60.5235 68.3151 60.5235C68.029 60.5235 67.7816 60.5848 67.575 60.7029C67.3706 60.821 67.2004 60.9776 67.071 61.1751C66.9393 61.3727 66.8439 61.5929 66.7803 61.8403C66.719 62.0855 66.6873 62.333 66.6873 62.585C66.6873 62.837 66.7168 63.089 66.7758 63.3342C66.8348 63.5772 66.9302 63.7974 67.0619 63.9904C67.1935 64.1856 67.3616 64.34 67.5659 64.4535C67.7725 64.5693 68.0222 64.6261 68.3151 64.6261C68.7328 64.6261 69.0688 64.5103 69.3209 64.2787C69.5751 64.0471 69.7341 63.7293 69.8044 63.3252H70.4038C70.3539 63.5931 70.2744 63.8382 70.1654 64.0585C70.0564 64.281 69.9157 64.4717 69.7431 64.6306C69.5706 64.7895 69.3685 64.9144 69.1301 65.0007C68.8918 65.0869 68.6216 65.1323 68.3151 65.1323C67.9291 65.1323 67.5931 65.0665 67.3139 64.9348C67.0324 64.8031 66.8008 64.6261 66.6214 64.3968C66.4398 64.1697 66.3058 63.8995 66.2196 63.5862C66.1333 63.2729 66.0879 62.9415 66.0879 62.585C66.0879 62.2467 66.1356 61.9244 66.2332 61.6156C66.3308 61.3068 66.4716 61.0321 66.66 60.796C66.8462 60.5599 67.08 60.3714 67.357 60.2307C67.634 60.0899 67.9541 60.0195 68.3174 60.0195C68.8781 60.0195 69.3322 60.1535 69.6796 60.4214C70.0269 60.6893 70.2426 61.107 70.3312 61.6769H69.759L69.7568 61.6746Z" fill="black"/>
<path d="M71.5254 64.9965V58.2559H72.0884V60.8213C72.3132 60.5852 72.5448 60.39 72.7854 60.2424C73.0261 60.0926 73.3167 60.0176 73.6527 60.0176C73.9524 60.0176 74.2316 60.0699 74.4859 60.172C74.7402 60.2742 74.9581 60.4558 75.1307 60.7101C75.2487 60.8849 75.3191 61.0643 75.3418 61.2482C75.3623 61.4321 75.3736 61.625 75.3736 61.8248V64.9988H74.8106V61.8339C74.8106 61.398 74.7152 61.0711 74.52 60.8509C74.327 60.6329 74.0046 60.5239 73.5573 60.5239C73.3825 60.5239 73.2236 60.5512 73.0783 60.6034C72.9353 60.6579 72.8059 60.7283 72.6901 60.8145C72.5743 60.9008 72.4767 61.0007 72.3949 61.1142C72.3155 61.2277 72.2519 61.3458 72.2088 61.4707C72.152 61.6273 72.1179 61.7749 72.1066 61.9202C72.0952 62.0655 72.0884 62.2199 72.0884 62.3879V65.001H71.5254V64.9965Z" fill="black"/>
<path d="M84.4534 64.9985V58.2578H88.9374V58.8004H85.0891V61.2342H88.5628V61.7768H85.0891V64.4558H89.0304V64.9985H84.4512H84.4534Z" fill="black"/>
<path d="M90.6529 64.9984H90.0898V60.1489H90.6529V60.8232C90.8776 60.5871 91.1092 60.3919 91.3499 60.2443C91.5905 60.0945 91.8811 60.0195 92.2172 60.0195C92.5168 60.0195 92.7961 60.0718 93.0504 60.1739C93.3046 60.2761 93.5226 60.4577 93.6951 60.712C93.8132 60.8868 93.8836 61.0662 93.9063 61.2501C93.9267 61.434 93.9381 61.6269 93.9381 61.8267V65.0007H93.375V61.8358C93.375 61.3999 93.2797 61.073 93.0844 60.8527C92.8914 60.6348 92.5691 60.5258 92.1218 60.5258C91.947 60.5258 91.7881 60.5531 91.6428 60.6053C91.4997 60.6598 91.3703 60.7301 91.2545 60.8164C91.1387 60.9027 91.0411 61.0026 90.9594 61.1161C90.8799 61.2296 90.8163 61.3477 90.7732 61.4726C90.7165 61.6292 90.6824 61.7768 90.6711 61.9221C90.6597 62.0674 90.6529 62.2218 90.6529 62.3898V65.0029V64.9984Z" fill="black"/>
<path d="M95.8599 64.9984H95.2969V60.1489H95.8599V60.8232C96.0847 60.5871 96.3163 60.3919 96.5569 60.2443C96.7976 60.0945 97.0882 60.0195 97.4242 60.0195C97.7239 60.0195 98.0031 60.0718 98.2574 60.1739C98.5117 60.2761 98.7296 60.4577 98.9022 60.712C99.0202 60.8868 99.0906 61.0662 99.1133 61.2501C99.1337 61.434 99.1451 61.6269 99.1451 61.8267V65.0007H98.5821V61.8358C98.5821 61.3999 98.4867 61.073 98.2915 60.8527C98.0985 60.6348 97.7761 60.5258 97.3288 60.5258C97.154 60.5258 96.9951 60.5531 96.8498 60.6053C96.7068 60.6598 96.5773 60.7301 96.4616 60.8164C96.3458 60.9027 96.2481 61.0026 96.1664 61.1161C96.087 61.2296 96.0234 61.3477 95.9802 61.4726C95.9235 61.6292 95.8894 61.7768 95.8781 61.9221C95.8645 62.0651 95.8599 62.2218 95.8599 62.3898V65.0029V64.9984Z" fill="black"/>
<path d="M100.85 62.7053C100.85 62.9687 100.884 63.2162 100.952 63.45C101.02 63.6839 101.122 63.8882 101.256 64.0585C101.39 64.231 101.56 64.3672 101.767 64.4717C101.971 64.5738 102.21 64.6261 102.48 64.6261C102.848 64.6261 103.163 64.5284 103.424 64.3354C103.685 64.1425 103.86 63.8678 103.949 63.5136H104.575C104.507 63.7452 104.414 63.9586 104.303 64.1561C104.189 64.3513 104.049 64.5239 103.881 64.6715C103.713 64.819 103.513 64.9325 103.281 65.0143C103.05 65.0937 102.782 65.1346 102.478 65.1346C102.089 65.1346 101.756 65.0688 101.474 64.9371C101.195 64.8054 100.963 64.6283 100.782 64.399C100.6 64.172 100.466 63.9018 100.38 63.5931C100.293 63.2843 100.248 62.9505 100.248 62.5964C100.248 62.2422 100.298 61.9062 100.402 61.5951C100.507 61.2818 100.652 61.0094 100.843 60.7756C101.034 60.5417 101.267 60.3578 101.54 60.2216C101.815 60.0876 102.126 60.0195 102.478 60.0195C103.145 60.0195 103.669 60.2488 104.051 60.7075C104.43 61.1661 104.618 61.8335 104.612 62.7053H100.847H100.85ZM104.015 62.2354C104.015 61.9993 103.983 61.7745 103.917 61.5679C103.851 61.359 103.756 61.1774 103.626 61.0253C103.499 60.8709 103.338 60.7506 103.143 60.6598C102.95 60.569 102.727 60.5235 102.48 60.5235C102.232 60.5235 102.01 60.5712 101.819 60.6643C101.628 60.7597 101.467 60.8845 101.333 61.0389C101.199 61.1933 101.09 61.3749 101.011 61.5815C100.929 61.7859 100.877 62.0061 100.852 62.2354H104.017H104.015Z" fill="black"/>
<path d="M107.938 62.1718C108.045 62.1582 108.172 62.14 108.317 62.1151C108.462 62.0901 108.585 62.056 108.678 62.0129C108.773 61.9698 108.83 61.8971 108.851 61.7927C108.873 61.6905 108.885 61.5952 108.885 61.5066C108.885 61.2205 108.792 60.9844 108.608 60.8005C108.424 60.6166 108.115 60.5235 107.677 60.5235C107.482 60.5235 107.304 60.5417 107.143 60.5758C106.98 60.6098 106.839 60.6711 106.716 60.7551C106.594 60.8391 106.494 60.9504 106.417 61.0911C106.337 61.2319 106.287 61.4067 106.262 61.6201H105.69C105.708 61.3341 105.774 61.0889 105.888 60.8868C106.001 60.6847 106.144 60.519 106.321 60.3896C106.501 60.2625 106.705 60.1671 106.939 60.1081C107.173 60.049 107.423 60.0195 107.684 60.0195C107.927 60.0195 108.156 60.0468 108.372 60.099C108.587 60.1512 108.773 60.2352 108.932 60.351C109.091 60.4668 109.216 60.6212 109.307 60.8142C109.398 61.0071 109.443 61.2455 109.443 61.527V64.1674C109.443 64.3854 109.482 64.5239 109.559 64.5829C109.638 64.6419 109.795 64.6283 110.031 64.5398V64.9802C109.988 64.9938 109.924 65.012 109.84 65.037C109.756 65.062 109.672 65.0733 109.591 65.0733C109.504 65.0733 109.418 65.0642 109.339 65.0461C109.243 65.0324 109.171 65.0029 109.114 64.9575C109.057 64.9121 109.012 64.8554 108.98 64.7895C108.946 64.7237 108.921 64.6533 108.91 64.5738C108.896 64.4966 108.889 64.4126 108.889 64.3264C108.653 64.5875 108.381 64.7872 108.074 64.9257C107.77 65.062 107.438 65.1301 107.082 65.1301C106.869 65.1301 106.664 65.1028 106.469 65.0461C106.271 64.9893 106.099 64.903 105.949 64.785C105.799 64.6669 105.681 64.5216 105.593 64.3491C105.506 64.1765 105.461 63.9745 105.461 63.7361C105.461 62.9142 106.026 62.4261 107.157 62.2762L107.933 62.1741L107.938 62.1718ZM108.885 62.4533C108.646 62.5532 108.406 62.6168 108.163 62.6486C107.92 62.6804 107.677 62.7053 107.432 62.7235C107 62.7553 106.664 62.8506 106.424 63.0141C106.185 63.1753 106.063 63.4228 106.063 63.7542C106.063 63.9041 106.092 64.0335 106.151 64.1425C106.212 64.2514 106.29 64.3423 106.385 64.4149C106.48 64.4876 106.594 64.5398 106.721 64.5738C106.848 64.6079 106.978 64.6261 107.111 64.6261C107.336 64.6261 107.554 64.5988 107.768 64.5421C107.979 64.4853 108.169 64.399 108.333 64.2855C108.499 64.1697 108.63 64.0221 108.73 63.8451C108.83 63.668 108.88 63.4568 108.88 63.2139V62.4556L108.885 62.4533Z" fill="black"/>
<path d="M114.661 60.1486H115.222V64.5304C115.222 64.855 115.19 65.1661 115.124 65.4612C115.059 65.7586 114.94 66.0197 114.775 66.2445C114.607 66.4693 114.373 66.6486 114.082 66.7826C113.787 66.9165 113.41 66.9846 112.949 66.9846C112.593 66.9846 112.286 66.9392 112.03 66.8507C111.773 66.7599 111.567 66.6463 111.403 66.5078C111.242 66.3694 111.117 66.2172 111.033 66.0538C110.949 65.888 110.904 65.7337 110.899 65.5906H111.499C111.542 65.7723 111.612 65.9198 111.703 66.0356C111.798 66.1514 111.907 66.2422 112.037 66.3081C112.164 66.3739 112.307 66.417 112.461 66.442C112.618 66.467 112.781 66.4806 112.949 66.4806C113.329 66.4806 113.635 66.4148 113.867 66.2831C114.098 66.1514 114.271 65.9811 114.391 65.7677C114.509 65.5543 114.586 65.3136 114.62 65.0457C114.654 64.7778 114.668 64.5031 114.663 64.2239C114.482 64.5236 114.232 64.7483 113.919 64.9027C113.603 65.0571 113.274 65.132 112.931 65.132C112.563 65.132 112.243 65.0616 111.971 64.9209C111.698 64.7824 111.474 64.594 111.297 64.3601C111.117 64.1263 110.986 63.8538 110.899 63.5405C110.813 63.2272 110.768 62.9025 110.768 62.5665C110.768 62.2124 110.808 61.8764 110.888 61.5653C110.97 61.252 111.099 60.9841 111.276 60.7571C111.455 60.53 111.68 60.3484 111.955 60.219C112.23 60.0873 112.563 60.0215 112.956 60.0215C113.113 60.0215 113.272 60.0442 113.435 60.0873C113.596 60.1305 113.755 60.1918 113.907 60.2735C114.062 60.353 114.2 60.4574 114.327 60.5823C114.455 60.7071 114.561 60.8479 114.641 61.0045H114.661V60.1532V60.1486ZM114.661 62.5915C114.661 62.2986 114.625 62.0262 114.552 61.7719C114.48 61.5176 114.377 61.2997 114.239 61.1158C114.1 60.9319 113.93 60.7866 113.724 60.6822C113.519 60.5754 113.283 60.521 113.022 60.521C112.784 60.521 112.566 60.5641 112.366 60.6481C112.166 60.7321 111.991 60.857 111.841 61.0182C111.692 61.1816 111.574 61.3791 111.492 61.613C111.408 61.8468 111.365 62.117 111.365 62.4235C111.351 62.7277 111.378 63.0138 111.44 63.2794C111.501 63.5428 111.601 63.7766 111.739 63.9764C111.878 64.1785 112.053 64.3351 112.264 64.4509C112.475 64.5667 112.727 64.6235 113.022 64.6235C113.279 64.6235 113.508 64.569 113.71 64.46C113.912 64.351 114.085 64.2035 114.225 64.0196C114.366 63.8357 114.475 63.6222 114.55 63.3748C114.625 63.1296 114.663 62.8685 114.663 62.5915H114.661Z" fill="black"/>
<path d="M117.225 64.9968H116.662V60.1473H117.225V61.0554H117.243C117.4 60.6695 117.6 60.3993 117.847 60.2449C118.092 60.0905 118.419 60.0156 118.826 60.0156V60.6241C118.506 60.6173 118.245 60.6672 118.04 60.7739C117.834 60.8806 117.67 61.0237 117.548 61.2053C117.427 61.3869 117.343 61.6003 117.293 61.8478C117.248 62.0953 117.225 62.3518 117.225 62.6197V64.999V64.9968Z" fill="black"/>
<path d="M121.983 62.1718C122.089 62.1582 122.217 62.14 122.362 62.1151C122.507 62.0901 122.63 62.056 122.723 62.0129C122.818 61.9698 122.875 61.8971 122.895 61.7927C122.918 61.6905 122.93 61.5952 122.93 61.5066C122.93 61.2205 122.836 60.9844 122.653 60.8005C122.469 60.6166 122.16 60.5235 121.722 60.5235C121.526 60.5235 121.349 60.5417 121.188 60.5758C121.025 60.6098 120.884 60.6711 120.761 60.7551C120.639 60.8391 120.539 60.9504 120.462 61.0911C120.382 61.2319 120.332 61.4067 120.307 61.6201H119.735C119.753 61.3341 119.819 61.0889 119.933 60.8868C120.046 60.6847 120.189 60.519 120.366 60.3896C120.546 60.2625 120.75 60.1671 120.984 60.1081C121.218 60.049 121.467 60.0195 121.729 60.0195C121.971 60.0195 122.201 60.0468 122.416 60.099C122.632 60.1512 122.818 60.2352 122.977 60.351C123.136 60.4668 123.261 60.6212 123.352 60.8142C123.443 61.0071 123.488 61.2455 123.488 61.527V64.1674C123.488 64.3854 123.527 64.5239 123.604 64.5829C123.683 64.6419 123.84 64.6283 124.076 64.5398V64.9802C124.033 64.9938 123.969 65.012 123.885 65.037C123.801 65.062 123.717 65.0733 123.636 65.0733C123.549 65.0733 123.463 65.0642 123.384 65.0461C123.288 65.0324 123.216 65.0029 123.159 64.9575C123.102 64.9121 123.057 64.8554 123.025 64.7895C122.991 64.7237 122.966 64.6533 122.955 64.5738C122.941 64.4966 122.934 64.4126 122.934 64.3264C122.698 64.5875 122.426 64.7872 122.119 64.9257C121.815 65.062 121.483 65.1301 121.127 65.1301C120.913 65.1301 120.709 65.1028 120.514 65.0461C120.316 64.9893 120.144 64.903 119.994 64.785C119.844 64.6669 119.726 64.5216 119.638 64.3491C119.551 64.1765 119.506 63.9745 119.506 63.7361C119.506 62.9142 120.071 62.4261 121.202 62.2762L121.978 62.1741L121.983 62.1718ZM122.93 62.4533C122.691 62.5532 122.45 62.6168 122.208 62.6486C121.965 62.6804 121.722 62.7053 121.477 62.7235C121.045 62.7553 120.709 62.8506 120.468 63.0141C120.23 63.1753 120.108 63.4228 120.108 63.7542C120.108 63.9041 120.137 64.0335 120.196 64.1425C120.257 64.2514 120.335 64.3423 120.43 64.4149C120.525 64.4876 120.639 64.5398 120.766 64.5738C120.893 64.6079 121.022 64.6261 121.156 64.6261C121.381 64.6261 121.599 64.5988 121.813 64.5421C122.024 64.4853 122.214 64.399 122.378 64.2855C122.544 64.1697 122.675 64.0221 122.775 63.8451C122.875 63.668 122.925 63.4568 122.925 63.2139V62.4556L122.93 62.4533Z" fill="black"/>
<path d="M125.447 64.9968H124.887V60.1473H125.447V60.8784H125.468C125.611 60.5991 125.818 60.3857 126.085 60.2358C126.353 60.0905 126.646 60.0156 126.966 60.0156C127.191 60.0156 127.382 60.0406 127.538 60.0905C127.693 60.1405 127.827 60.2063 127.936 60.2926C128.045 60.3766 128.133 60.4765 128.208 60.5877C128.279 60.7013 128.34 60.8216 128.39 60.9533C128.553 60.6332 128.769 60.3993 129.041 60.2449C129.314 60.0905 129.625 60.0156 129.972 60.0156C130.304 60.0156 130.567 60.0701 130.765 60.1791C130.96 60.2881 131.112 60.4334 131.219 60.6105C131.325 60.7875 131.396 60.9941 131.43 61.2234C131.464 61.455 131.482 61.6911 131.482 61.9341V64.9968H130.919V61.6435C130.919 61.2938 130.846 61.0191 130.699 60.8193C130.553 60.6195 130.279 60.5196 129.879 60.5196C129.673 60.5196 129.475 60.565 129.284 60.6559C129.094 60.7467 128.928 60.8852 128.783 61.0713C128.719 61.1531 128.669 61.2484 128.628 61.3574C128.587 61.4664 128.556 61.5822 128.531 61.7002C128.506 61.8183 128.487 61.9386 128.481 62.0567C128.472 62.1747 128.467 62.2837 128.467 62.3836V64.9968H127.904V61.6435C127.904 61.2938 127.831 61.0191 127.684 60.8193C127.536 60.6195 127.264 60.5196 126.864 60.5196C126.66 60.5196 126.46 60.565 126.272 60.6559C126.081 60.7467 125.915 60.8852 125.77 61.0713C125.706 61.1531 125.656 61.2484 125.615 61.3574C125.575 61.4664 125.543 61.5822 125.518 61.7002C125.493 61.8183 125.475 61.9386 125.466 62.0567C125.457 62.1747 125.452 62.2837 125.452 62.3836V64.9968H125.447Z" fill="black"/>
<path d="M134.836 58.2578H139.742V58.8004H137.608V64.9985H136.97V58.8004H134.834V58.2578H134.836Z" fill="black"/>
<path d="M142.797 62.1718C142.904 62.1582 143.031 62.14 143.176 62.1151C143.322 62.0901 143.444 62.056 143.537 62.0129C143.633 61.9698 143.689 61.8971 143.71 61.7927C143.733 61.6905 143.744 61.5952 143.744 61.5066C143.744 61.2205 143.651 60.9844 143.467 60.8005C143.283 60.6166 142.974 60.5235 142.536 60.5235C142.341 60.5235 142.164 60.5417 142.003 60.5758C141.839 60.6098 141.698 60.6711 141.576 60.7551C141.453 60.8391 141.353 60.9504 141.276 61.0911C141.197 61.2319 141.147 61.4067 141.122 61.6201H140.55C140.568 61.3341 140.634 61.0889 140.747 60.8868C140.861 60.6847 141.004 60.519 141.181 60.3896C141.36 60.2625 141.564 60.1671 141.798 60.1081C142.032 60.049 142.282 60.0195 142.543 60.0195C142.786 60.0195 143.015 60.0468 143.231 60.099C143.447 60.1512 143.633 60.2352 143.792 60.351C143.951 60.4668 144.075 60.6212 144.166 60.8142C144.257 61.0071 144.302 61.2455 144.302 61.527V64.1674C144.302 64.3854 144.341 64.5239 144.418 64.5829C144.498 64.6419 144.654 64.6283 144.891 64.5398V64.9802C144.847 64.9938 144.784 65.012 144.7 65.037C144.616 65.062 144.532 65.0733 144.45 65.0733C144.364 65.0733 144.278 65.0642 144.198 65.0461C144.103 65.0324 144.03 65.0029 143.973 64.9575C143.917 64.9121 143.871 64.8554 143.839 64.7895C143.805 64.7237 143.78 64.6533 143.769 64.5738C143.755 64.4966 143.749 64.4126 143.749 64.3264C143.512 64.5875 143.24 64.7872 142.933 64.9257C142.629 65.062 142.298 65.1301 141.941 65.1301C141.728 65.1301 141.524 65.1028 141.328 65.0461C141.131 64.9893 140.958 64.903 140.808 64.785C140.659 64.6669 140.541 64.5216 140.452 64.3491C140.366 64.1765 140.32 63.9745 140.32 63.7361C140.32 62.9142 140.886 62.4261 142.016 62.2762L142.793 62.1741L142.797 62.1718ZM143.744 62.4533C143.506 62.5532 143.265 62.6168 143.022 62.6486C142.779 62.6804 142.536 62.7053 142.291 62.7235C141.86 62.7553 141.524 62.8506 141.283 63.0141C141.045 63.1753 140.922 63.4228 140.922 63.7542C140.922 63.9041 140.951 64.0335 141.01 64.1425C141.072 64.2514 141.149 64.3423 141.244 64.4149C141.34 64.4876 141.453 64.5398 141.58 64.5738C141.707 64.6079 141.837 64.6261 141.971 64.6261C142.196 64.6261 142.414 64.5988 142.627 64.5421C142.838 64.4853 143.029 64.399 143.192 64.2855C143.358 64.1697 143.49 64.0221 143.59 63.8451C143.69 63.668 143.739 63.4568 143.739 63.2139V62.4556L143.744 62.4533Z" fill="black"/>
<path d="M145.859 64.9985V58.2578H146.42V64.9985H145.859Z" fill="black"/>
<path d="M148.199 62.7053C148.199 62.9687 148.233 63.2162 148.301 63.45C148.37 63.6839 148.472 63.8882 148.606 64.0585C148.74 64.231 148.91 64.3672 149.117 64.4717C149.321 64.5738 149.559 64.6261 149.829 64.6261C150.197 64.6261 150.513 64.5284 150.774 64.3354C151.035 64.1425 151.21 63.8678 151.298 63.5136H151.925C151.857 63.7452 151.764 63.9586 151.652 64.1561C151.539 64.3513 151.398 64.5239 151.23 64.6715C151.062 64.8168 150.862 64.9325 150.631 65.0143C150.399 65.0937 150.131 65.1346 149.827 65.1346C149.439 65.1346 149.105 65.0688 148.824 64.9371C148.544 64.8054 148.313 64.6283 148.131 64.399C147.95 64.172 147.816 63.9018 147.729 63.5931C147.643 63.2843 147.598 62.9505 147.598 62.5964C147.598 62.2422 147.648 61.9062 147.752 61.5951C147.856 61.2818 148.002 61.0094 148.192 60.7756C148.383 60.5417 148.617 60.3578 148.889 60.2216C149.164 60.0876 149.475 60.0195 149.827 60.0195C150.495 60.0195 151.019 60.2488 151.4 60.7075C151.78 61.1661 151.968 61.8335 151.961 62.7053H148.197H148.199ZM151.364 62.2354C151.364 61.9993 151.332 61.7745 151.267 61.5679C151.201 61.359 151.105 61.1774 150.976 61.0253C150.849 60.8709 150.688 60.7506 150.492 60.6598C150.299 60.569 150.077 60.5235 149.829 60.5235C149.582 60.5235 149.359 60.5712 149.169 60.6643C148.978 60.7597 148.817 60.8845 148.683 61.0389C148.549 61.1933 148.44 61.3749 148.36 61.5815C148.279 61.7859 148.227 62.0061 148.202 62.2354H151.366H151.364Z" fill="black"/>
<path d="M153.622 64.9984H153.059V60.1489H153.622V60.8232C153.846 60.5871 154.078 60.3919 154.319 60.2443C154.559 60.0945 154.85 60.0195 155.186 60.0195C155.486 60.0195 155.765 60.0718 156.019 60.1739C156.273 60.2761 156.491 60.4577 156.664 60.712C156.782 60.8868 156.852 61.0662 156.875 61.2501C156.895 61.434 156.907 61.6269 156.907 61.8267V65.0007H156.344V61.8358C156.344 61.3999 156.248 61.073 156.053 60.8527C155.86 60.6348 155.538 60.5258 155.091 60.5258C154.916 60.5258 154.757 60.5531 154.612 60.6053C154.468 60.6598 154.339 60.7301 154.223 60.8164C154.107 60.9027 154.01 61.0026 153.928 61.1161C153.849 61.2296 153.785 61.3477 153.742 61.4726C153.685 61.6292 153.651 61.7768 153.64 61.9221C153.626 62.0651 153.622 62.2218 153.622 62.3898V65.0029V64.9984Z" fill="black"/>
<path d="M159.97 65.0153C159.902 65.029 159.809 65.0494 159.698 65.0812C159.585 65.113 159.46 65.1266 159.323 65.1266C159.044 65.1266 158.831 65.0562 158.681 64.9154C158.536 64.7769 158.461 64.5249 158.461 64.1617V60.6131H157.777V60.1455H158.461V58.7969H159.021V60.1455H159.93V60.6131H159.021V63.9369C159.021 64.055 159.026 64.1571 159.031 64.2457C159.035 64.332 159.056 64.4046 159.087 64.4614C159.119 64.5181 159.167 64.5567 159.233 64.5817C159.298 64.6067 159.389 64.6203 159.507 64.6203C159.582 64.6203 159.659 64.6135 159.739 64.5999C159.816 64.5885 159.893 64.5726 159.968 64.5545V65.0131L159.97 65.0153Z" fill="black"/>
<path d="M163.818 62.9863C163.843 63.286 163.909 63.5402 164.02 63.7491C164.129 63.958 164.27 64.1283 164.44 64.2599C164.611 64.3916 164.81 64.487 165.035 64.546C165.26 64.605 165.498 64.6345 165.755 64.6345C166.055 64.6345 166.313 64.5982 166.534 64.5233C166.752 64.4484 166.929 64.3462 167.067 64.2191C167.206 64.0919 167.306 63.9444 167.371 63.7741C167.437 63.6061 167.469 63.429 167.469 63.2406C167.469 62.9772 167.41 62.7661 167.292 62.6026C167.174 62.4414 167.02 62.3074 166.829 62.2053C166.638 62.1031 166.42 62.0191 166.173 61.9578C165.927 61.8942 165.673 61.8329 165.414 61.7739C165.156 61.7149 164.901 61.6445 164.656 61.5628C164.411 61.4833 164.193 61.3721 164 61.2358C163.809 61.0996 163.655 60.9225 163.537 60.7069C163.416 60.4912 163.357 60.2187 163.357 59.8873C163.357 59.6557 163.407 59.4309 163.503 59.213C163.598 58.9928 163.741 58.7998 163.934 58.6318C164.125 58.4638 164.363 58.3298 164.649 58.2299C164.935 58.13 165.267 58.0801 165.641 58.0801C166.016 58.0801 166.354 58.1346 166.638 58.239C166.922 58.3457 167.158 58.491 167.346 58.6749C167.533 58.8588 167.673 59.0722 167.766 59.3174C167.862 59.5603 167.907 59.8192 167.907 60.0939H167.299C167.299 59.8373 167.253 59.6171 167.163 59.4309C167.072 59.2448 166.949 59.0904 166.792 58.9723C166.636 58.852 166.459 58.7657 166.259 58.709C166.059 58.6522 165.853 58.625 165.639 58.625C165.315 58.625 165.042 58.6704 164.82 58.7612C164.597 58.852 164.422 58.9678 164.291 59.1108C164.159 59.2561 164.068 59.415 164.018 59.5899C163.968 59.7647 163.959 59.9395 163.991 60.1143C164.029 60.3323 164.116 60.5071 164.252 60.6387C164.39 60.7704 164.558 60.8771 164.758 60.9634C164.958 61.0474 165.178 61.1178 165.419 61.1677C165.66 61.2222 165.905 61.2767 166.155 61.3357C166.404 61.3948 166.645 61.4652 166.879 61.5469C167.113 61.6286 167.321 61.7376 167.501 61.8738C167.68 62.01 167.828 62.1871 167.934 62.4028C168.043 62.6185 168.098 62.8887 168.098 63.2133C168.098 63.8354 167.882 64.3212 167.453 64.6641C167.024 65.0069 166.416 65.1794 165.635 65.1794C165.285 65.1794 164.96 65.134 164.661 65.0455C164.361 64.9547 164.102 64.8184 163.884 64.6323C163.664 64.4484 163.496 64.2191 163.373 63.9489C163.251 63.6765 163.189 63.3586 163.189 62.9886H163.809L163.818 62.9863Z" fill="black"/>
<path d="M171.121 65.1284C170.807 65.1239 170.517 65.0671 170.247 64.9604C169.974 64.856 169.738 64.6971 169.534 64.4837C169.329 64.2702 169.17 64.0046 169.05 63.6868C168.932 63.3689 168.873 62.9966 168.873 62.572C168.873 62.2156 168.918 61.8841 169.014 61.5753C169.107 61.2666 169.248 60.9964 169.434 60.7648C169.62 60.5333 169.856 60.3516 170.135 60.2177C170.417 60.0837 170.744 60.0156 171.118 60.0156C171.493 60.0156 171.831 60.0837 172.111 60.2177C172.392 60.3516 172.626 60.5333 172.812 60.7603C172.998 60.9873 173.139 61.2575 173.228 61.5708C173.318 61.8841 173.364 62.2156 173.364 62.572C173.364 62.958 173.309 63.3099 173.205 63.6209C173.098 63.9342 172.948 64.1999 172.751 64.4246C172.553 64.6494 172.317 64.8219 172.038 64.9445C171.759 65.0671 171.452 65.1284 171.116 65.1284H171.121ZM172.769 62.572C172.769 62.286 172.737 62.0158 172.674 61.7683C172.612 61.5186 172.515 61.3006 172.383 61.1167C172.251 60.9328 172.083 60.7875 171.879 60.6831C171.672 60.5764 171.418 60.5219 171.118 60.5219C170.819 60.5219 170.574 60.5809 170.365 60.6967C170.156 60.8125 169.986 60.9646 169.854 61.1553C169.722 61.346 169.627 61.564 169.563 61.8115C169.502 62.0567 169.47 62.3132 169.47 62.5743C169.47 62.874 169.504 63.1487 169.577 63.403C169.649 63.6572 169.754 63.8729 169.89 64.0546C170.029 64.2339 170.199 64.3747 170.406 64.4746C170.61 64.5745 170.848 64.6244 171.116 64.6244C171.411 64.6244 171.661 64.5677 171.87 64.4519C172.079 64.3361 172.249 64.1817 172.381 63.9887C172.512 63.7957 172.608 63.5755 172.671 63.3326C172.735 63.0897 172.767 62.8354 172.767 62.5743L172.769 62.572Z" fill="black"/>
<path d="M174.484 64.9985V58.2578H175.045V64.9985H174.484Z" fill="black"/>
<path d="M179.762 60.1484H180.325V64.9979H179.762V64.3236C179.687 64.4099 179.603 64.5007 179.51 64.596C179.415 64.6891 179.308 64.7754 179.185 64.8526C179.065 64.9298 178.922 64.9956 178.759 65.0501C178.597 65.1023 178.409 65.1296 178.198 65.1296C177.873 65.1296 177.601 65.0842 177.383 64.9956C177.163 64.9048 176.988 64.7799 176.854 64.6165C176.72 64.4553 176.622 64.2668 176.563 64.0489C176.504 63.8332 176.475 63.5994 176.475 63.3428V60.1484H177.038V63.3315C177.038 63.7515 177.133 64.0693 177.328 64.2918C177.521 64.5143 177.841 64.6255 178.284 64.6255C178.516 64.6255 178.722 64.5801 178.906 64.4893C179.09 64.3985 179.244 64.2736 179.369 64.1102C179.494 63.9467 179.59 63.7537 179.66 63.529C179.728 63.3042 179.762 63.0567 179.762 62.7888V60.1484Z" fill="black"/>
<path d="M183.388 65.0153C183.32 65.029 183.227 65.0494 183.116 65.0812C183.003 65.113 182.878 65.1266 182.741 65.1266C182.462 65.1266 182.249 65.0562 182.099 64.9154C181.954 64.7769 181.879 64.5249 181.879 64.1617V60.6131H181.195V60.1455H181.879V58.7969H182.439V60.1455H183.348V60.6131H182.439V63.9369C182.439 64.055 182.444 64.1571 182.449 64.2457C182.453 64.332 182.474 64.4046 182.505 64.4614C182.537 64.5181 182.585 64.5567 182.651 64.5817C182.716 64.6067 182.807 64.6203 182.925 64.6203C183 64.6203 183.077 64.6135 183.157 64.5999C183.234 64.5885 183.311 64.5726 183.386 64.5545V65.0131L183.388 65.0153Z" fill="black"/>
<path d="M184.342 59.091V58.2578H184.959V59.091H184.342ZM184.369 64.9985V60.149H184.93V64.9985H184.369Z" fill="black"/>
<path d="M188.293 65.1284C187.979 65.1239 187.689 65.0671 187.418 64.9604C187.146 64.856 186.91 64.6971 186.706 64.4837C186.501 64.2702 186.342 64.0046 186.222 63.6868C186.104 63.3689 186.045 62.9966 186.045 62.572C186.045 62.2156 186.09 61.8841 186.186 61.5753C186.279 61.2666 186.42 60.9964 186.606 60.7648C186.792 60.5333 187.028 60.3516 187.307 60.2177C187.589 60.0837 187.916 60.0156 188.29 60.0156C188.665 60.0156 189.003 60.0837 189.282 60.2177C189.564 60.3516 189.798 60.5333 189.984 60.7603C190.17 60.9873 190.311 61.2575 190.399 61.5708C190.49 61.8841 190.536 62.2156 190.536 62.572C190.536 62.958 190.481 63.3099 190.377 63.6209C190.27 63.9342 190.12 64.1999 189.923 64.4246C189.725 64.6494 189.489 64.8219 189.21 64.9445C188.931 65.0671 188.624 65.1284 188.288 65.1284H188.293ZM189.943 62.572C189.943 62.286 189.911 62.0158 189.848 61.7683C189.786 61.5186 189.689 61.3006 189.557 61.1167C189.425 60.9328 189.257 60.7875 189.053 60.6831C188.847 60.5764 188.592 60.5219 188.293 60.5219C187.993 60.5219 187.748 60.5809 187.539 60.6967C187.33 60.8125 187.16 60.9646 187.028 61.1553C186.896 61.346 186.801 61.564 186.737 61.8115C186.676 62.0567 186.644 62.3132 186.644 62.5743C186.644 62.874 186.678 63.1487 186.751 63.403C186.824 63.6572 186.928 63.8729 187.064 64.0546C187.203 64.2339 187.373 64.3747 187.58 64.4746C187.784 64.5745 188.022 64.6244 188.29 64.6244C188.585 64.6244 188.835 64.5677 189.044 64.4519C189.253 64.3361 189.423 64.1817 189.555 63.9887C189.687 63.7957 189.782 63.5755 189.845 63.3326C189.909 63.0897 189.941 62.8354 189.941 62.5743L189.943 62.572Z" fill="black"/>
<path d="M192.133 64.9984H191.57V60.1489H192.133V60.8232C192.358 60.5871 192.59 60.3919 192.83 60.2443C193.071 60.0945 193.362 60.0195 193.698 60.0195C193.997 60.0195 194.277 60.0718 194.531 60.1739C194.785 60.2761 195.003 60.4577 195.176 60.712C195.294 60.8868 195.364 61.0662 195.387 61.2501C195.407 61.434 195.419 61.6269 195.419 61.8267V65.0007H194.856V61.8358C194.856 61.3999 194.76 61.073 194.565 60.8527C194.372 60.6348 194.05 60.5258 193.602 60.5258C193.427 60.5258 193.269 60.5531 193.123 60.6053C192.98 60.6598 192.851 60.7301 192.735 60.8164C192.619 60.9027 192.522 61.0026 192.44 61.1161C192.36 61.2296 192.297 61.3477 192.254 61.4726C192.197 61.6292 192.163 61.7768 192.152 61.9221C192.138 62.0651 192.133 62.2218 192.133 62.3898V65.0029V64.9984Z" fill="black"/>
<path d="M197.104 63.4802C197.19 63.8979 197.349 64.1931 197.576 64.3656C197.803 64.5381 198.13 64.6221 198.554 64.6221C198.759 64.6221 198.938 64.5972 199.088 64.5472C199.238 64.4973 199.36 64.4292 199.458 64.3452C199.556 64.2612 199.628 64.1658 199.678 64.0591C199.728 63.9547 199.753 63.8411 199.753 63.7231C199.753 63.4847 199.676 63.3099 199.524 63.1941C199.369 63.0783 199.179 62.9875 198.947 62.9217C198.716 62.8558 198.468 62.7991 198.198 62.7537C197.928 62.7082 197.68 62.6379 197.449 62.5425C197.217 62.4494 197.026 62.3155 196.874 62.1407C196.72 61.9658 196.645 61.7184 196.645 61.4005C196.645 60.9964 196.793 60.6627 197.09 60.4039C197.387 60.145 197.805 60.0156 198.35 60.0156C198.895 60.0156 199.301 60.1314 199.628 60.3675C199.955 60.6014 200.155 60.9941 200.223 61.5413H199.651C199.601 61.1667 199.458 60.9033 199.224 60.7512C198.99 60.5968 198.695 60.5196 198.339 60.5196C197.982 60.5196 197.712 60.5968 197.524 60.7512C197.338 60.9033 197.242 61.1054 197.242 61.3551C197.242 61.5731 197.317 61.7411 197.471 61.8569C197.626 61.9727 197.817 62.0657 198.046 62.1384C198.277 62.211 198.527 62.2723 198.795 62.3291C199.063 62.3859 199.313 62.4653 199.544 62.5675C199.776 62.6697 199.969 62.8104 200.121 62.983C200.273 63.1578 200.35 63.4007 200.35 63.714C200.35 63.9456 200.3 64.1499 200.2 64.327C200.101 64.5064 199.964 64.6539 199.787 64.772C199.612 64.8923 199.406 64.9809 199.165 65.0399C198.925 65.0989 198.661 65.1284 198.373 65.1284C198.084 65.1284 197.83 65.0853 197.61 65.0013C197.387 64.9173 197.199 64.7992 197.042 64.6517C196.886 64.5018 196.765 64.327 196.679 64.1272C196.591 63.9274 196.541 63.7117 196.529 63.4824H197.101L197.104 63.4802Z" fill="black"/>
<path d="M79.7129 56.4941V67.6983" stroke="#231F20" stroke-width="0.454068" stroke-miterlimit="10"/>
<path d="M39.0645 55.8867C39.1303 56.007 39.1871 56.1296 39.2529 56.2477C39.2007 56.1228 39.1371 56.0002 39.0645 55.8867Z" fill="black"/>
<path d="M39.0645 55.8867C39.1303 56.007 39.1871 56.1296 39.2529 56.2477C39.2007 56.1228 39.1371 56.0002 39.0645 55.8867Z" fill="url(#paint0_linear_1652_76)"/>
<path d="M91.8233 23.457H86.043C84.2744 23.457 82.8418 24.8896 82.8418 26.6582C82.8418 28.4268 84.2744 29.8594 86.043 29.8594H91.8233C93.5919 29.8594 95.0244 28.4268 95.0244 26.6582C95.0244 24.8896 93.5919 23.457 91.8233 23.457Z" fill="url(#paint1_linear_1652_76)"/>
<path d="M77.0859 17.7972C77.0859 17.8994 77.1041 18.0015 77.1427 18.0969C77.1132 18.0083 77.0996 17.913 77.1041 17.8176L77.0882 17.7949L77.0859 17.7972Z" fill="url(#paint2_linear_1652_76)"/>
<path d="M77.6149 18.3256C77.6013 17.758 78.0485 17.2881 78.6161 17.2745C78.6275 17.2745 78.6411 17.2745 78.6525 17.2745H78.8454L101.313 17.2608C103.075 17.2608 104.503 15.8305 104.503 14.0687C104.503 12.307 103.075 10.8812 101.313 10.8789H77.6149C74.0891 10.8789 71.2284 13.735 71.2262 17.2608V29.0552C71.2262 33.907 67.0692 36.2931 62.9076 36.2931C58.7461 36.2931 54.5551 33.8933 54.5551 29.0552V15.5853C53.4154 17.3403 51.0701 17.8398 49.3129 16.7023C48.8497 16.4026 48.4569 16.0031 48.1641 15.5354V29.0552C48.1641 38.098 55.5608 42.6001 62.919 42.6001C70.2772 42.6001 77.6285 38.098 77.6285 29.0552V18.7979M77.6285 18.3256V18.7956V18.3256Z" fill="url(#paint3_linear_1652_76)"/>
<path d="M166.174 12.916C166.174 11.8103 166.655 10.7591 167.495 10.0394H135.851V10.0031L122.363 9.9668C115.793 10.0531 109.792 12.6821 109.792 19.1549C109.792 26.2519 117.062 27.8253 122.976 29.0989C127.228 29.973 130.815 30.7699 130.815 33.4308C130.815 35.7079 128.186 36.7159 124.726 36.7159H88.1172C89.7337 38.0509 89.9607 40.4416 88.6257 42.0581C88.485 42.2283 88.3283 42.3872 88.1581 42.5326H124.032C131.301 42.5326 137.872 39.8604 137.872 33.2469C137.872 26.009 130.468 24.5083 124.508 23.3913C120.308 22.5558 116.796 21.8498 116.796 19.3206C116.796 16.7914 119.421 15.7698 122.753 15.7698H153.321V39.3427C153.321 41.1113 154.754 42.5439 156.523 42.5439C158.291 42.5439 159.724 41.1113 159.724 39.3427V15.763H167.463C166.641 15.0433 166.169 14.0035 166.171 12.9114L166.174 12.916Z" fill="url(#paint4_linear_1652_76)"/>
<path d="M197.883 33.9306C198.505 33.9306 199.118 34.0759 199.674 34.3529L198.668 32.1257L190.018 13.0775L189.993 13.0117C189.296 11.4202 187.852 10.2782 186.143 9.9694C185.53 9.85134 184.899 9.85134 184.286 9.9694C182.619 10.2714 181.205 11.3634 180.492 12.8981L180.394 13.1161L167.708 41.064L165.735 45.4321L165.587 45.7659C164.933 47.3619 165.699 49.185 167.295 49.8388C168.891 50.4927 170.714 49.7276 171.368 48.1315V48.0907L174.451 41.064L183.977 20.1496L185.18 17.5024L186.402 20.161L191.362 30.995H183.793C182.281 31.0631 181.112 32.3436 181.18 33.8556C181.244 35.2723 182.376 36.4052 183.793 36.4688H193.817L194.012 36.9115C194.482 35.1566 196.071 33.9374 197.887 33.9351L197.883 33.9306Z" fill="url(#paint5_linear_1652_76)"/>
<path d="M21.0211 0C9.41289 0 6.23966e-05 9.52635 6.23966e-05 21.2799C-0.0181003 28.8038 3.93002 35.7806 10.3914 39.6379C13.5222 41.5086 17.0957 42.5167 20.7419 42.5621H21.2981C26.4382 42.671 31.1741 45.3727 33.8826 49.7431C34.3844 51.287 36.0417 52.1338 37.5855 51.6321C38.2439 51.4187 38.8047 50.9805 39.1725 50.3947C39.7764 49.423 39.7537 48.1902 39.1157 47.2412C38.6571 46.433 38.144 45.6565 37.5855 44.9141C35.9532 42.7982 33.9371 41.0092 31.6418 39.6401C28.5087 37.7785 24.942 36.775 21.2981 36.7273H20.7419C16.9459 36.6614 13.3156 35.1698 10.5685 32.5521C7.48083 29.6143 5.73948 25.5345 5.75083 21.2708C5.75083 12.7321 12.5891 5.81661 21.0189 5.81661C29.4486 5.81661 36.2756 12.7457 36.2756 21.2822C36.2824 24.0111 35.5672 26.6947 34.1982 29.0581C36.212 28.495 38.3007 29.6733 38.8637 31.6871C38.9205 31.8869 38.9591 32.0935 38.9818 32.3001C40.9842 28.9741 42.0377 25.1644 42.0309 21.2844C42.0309 9.53316 32.6158 0.00454068 21.0189 0.00454068L21.0211 0ZM39.261 47.8474C39.1952 47.7271 39.1385 47.6045 39.0726 47.4864C39.143 47.6022 39.202 47.7225 39.2542 47.8474H39.2633H39.261Z" fill="url(#paint6_linear_1652_76)"/>
<path d="M51.3671 16.3005C52.9106 16.3005 54.1618 15.0492 54.1618 13.5057C54.1618 11.9622 52.9106 10.7109 51.3671 10.7109C49.8235 10.7109 48.5723 11.9622 48.5723 13.5057C48.5723 15.0492 49.8235 16.3005 51.3671 16.3005Z" fill="#FFAC2F"/>
<path d="M35.2104 35.6316C36.8216 35.6316 38.1277 34.3255 38.1277 32.7143C38.1277 31.103 36.8216 29.7969 35.2104 29.7969C33.5991 29.7969 32.293 31.103 32.293 32.7143C32.293 34.3255 33.5991 35.6316 35.2104 35.6316Z" fill="#FFAC2F"/>
<path d="M85.7077 42.5071C87.285 42.5071 88.5637 41.2284 88.5637 39.651C88.5637 38.0736 87.285 36.7949 85.7077 36.7949C84.1303 36.7949 82.8516 38.0736 82.8516 39.651C82.8516 41.2284 84.1303 42.5071 85.7077 42.5071Z" fill="#FFAC2F"/>
<path d="M169.971 15.7727C171.549 15.7727 172.827 14.494 172.827 12.9166C172.827 11.3393 171.549 10.0605 169.971 10.0605C168.394 10.0605 167.115 11.3393 167.115 12.9166C167.115 14.494 168.394 15.7727 169.971 15.7727Z" fill="#FFAC2F"/>
<path d="M197.883 41.0761C199.604 41.0761 201 39.6805 201 37.959C201 36.2374 199.604 34.8418 197.883 34.8418C196.161 34.8418 194.766 36.2374 194.766 37.959C194.766 39.6805 196.161 41.0761 197.883 41.0761Z" fill="#FFAC2F"/>
<path d="M196.843 10.1741H196.023V9.87891H198.019V10.1741H197.195V12.5738H196.843V10.1741Z" fill="black"/>
<path d="M200.591 11.3916C200.571 11.0147 200.546 10.5629 200.55 10.2269H200.539C200.448 10.5425 200.335 10.8785 200.199 11.2508L199.722 12.5585H199.458L199.023 11.2735C198.893 10.8944 198.786 10.5448 198.712 10.2246H198.702C198.696 10.5606 198.675 11.0124 198.65 11.4166L198.578 12.5722H198.246L198.435 9.875H198.88L199.34 11.1782C199.452 11.5096 199.545 11.8071 199.613 12.0863H199.624C199.692 11.8139 199.788 11.5187 199.908 11.1782L200.387 9.875H200.83L200.998 12.5722H200.657L200.589 11.387L200.591 11.3916Z" fill="black"/>
</g>
<defs>
<linearGradient id="paint0_linear_1652_76" x1="39.2938" y1="8.7909" x2="39.2938" y2="60.3093" gradientUnits="userSpaceOnUse">
<stop stop-color="#A268AA"/>
<stop offset="1" stop-color="#6951A1"/>
</linearGradient>
<linearGradient id="paint1_linear_1652_76" x1="88.9412" y1="23.6872" x2="88.9412" y2="30.1016" gradientUnits="userSpaceOnUse">
<stop stop-color="#D359FE"/>
<stop offset="1" stop-color="#7A1AF0"/>
</linearGradient>
<linearGradient id="paint2_linear_1652_76" x1="77.2613" y1="10.9022" x2="77.2613" y2="42.4781" gradientUnits="userSpaceOnUse">
<stop stop-color="#A268AA"/>
<stop offset="1" stop-color="#6951A1"/>
</linearGradient>
<linearGradient id="paint3_linear_1652_76" x1="76.3322" y1="10.8766" x2="76.3322" y2="42.5978" gradientUnits="userSpaceOnUse">
<stop stop-color="#D359FE"/>
<stop offset="1" stop-color="#7A1AF0"/>
</linearGradient>
<linearGradient id="paint4_linear_1652_76" x1="127.458" y1="9.5259" x2="127.458" y2="41.9438" gradientUnits="userSpaceOnUse">
<stop stop-color="#D359FE"/>
<stop offset="1" stop-color="#7A1AF0"/>
</linearGradient>
<linearGradient id="paint5_linear_1652_76" x1="182.386" y1="10.7482" x2="182.386" y2="50.9996" gradientUnits="userSpaceOnUse">
<stop stop-color="#D359FE"/>
<stop offset="1" stop-color="#7A1AF0"/>
</linearGradient>
<linearGradient id="paint6_linear_1652_76" x1="21.1233" y1="0.345092" x2="21.1233" y2="51.8636" gradientUnits="userSpaceOnUse">
<stop stop-color="#D359FE"/>
<stop offset="1" stop-color="#7A1AF0"/>
</linearGradient>
<clipPath id="clip0_1652_76">
<rect width="201" height="67.6993" fill="white"/>
</clipPath>
</defs>
</svg>
