<svg width="202" height="52" viewBox="0 0 202 52" fill="none" xmlns="http://www.w3.org/2000/svg">
<path d="M92.2411 23.5781H86.4262C84.6476 23.5781 83.2109 25.0147 83.2109 26.7934C83.2109 28.5721 84.6476 30.0087 86.4262 30.0087H92.2411C94.0198 30.0087 95.4564 28.5721 95.4564 26.7934C95.4564 25.0147 94.0198 23.5781 92.2411 23.5781Z" fill="url(#paint0_linear_649_1847)"/>
<path d="M77.418 17.8789C77.418 17.9929 77.4408 18.0841 77.4636 18.1754C77.4636 18.1069 77.4408 17.9929 77.418 17.8789Z" fill="url(#paint1_linear_649_1847)"/>
<path d="M77.9649 18.4249C77.9421 17.8548 78.3981 17.3759 78.9682 17.3759C78.991 17.3759 78.991 17.3759 79.0138 17.3759H79.1963L101.772 17.3531C103.55 17.3531 104.987 15.9165 104.964 14.1378C104.964 12.3591 103.528 10.9453 101.772 10.9453H77.9649C74.4303 10.9453 71.5571 13.8186 71.5571 17.3531V29.1882C71.5571 34.0681 67.384 36.4625 63.211 36.4625C59.0379 36.4625 54.8193 34.0453 54.8193 29.1882V15.6656C53.6791 17.4215 51.3075 17.9232 49.5517 16.783C49.0956 16.4866 48.6851 16.0761 48.3887 15.62V29.1882C48.3887 38.264 55.8226 42.8019 63.211 42.8019C70.5993 42.8019 77.9877 38.2868 77.9877 29.1882V18.8809M77.9649 18.4249V18.9038V18.4249Z" fill="url(#paint2_linear_649_1847)"/>
<path d="M166.899 12.9755C166.899 11.8582 167.378 10.8092 168.221 10.0795H136.456V10.0339L122.911 9.98828C116.32 10.0795 110.277 12.7247 110.277 19.2237C110.277 26.3612 117.575 27.9347 123.526 29.2117C127.791 30.101 131.393 30.8991 131.393 33.5671C131.393 35.8475 128.748 36.8737 125.282 36.8737H88.5C90.1191 38.2191 90.3471 40.6134 89.0017 42.2325C88.8649 42.4149 88.7052 42.5745 88.5228 42.7114H124.552C131.85 42.7114 138.463 40.0205 138.463 33.3847C138.463 26.1104 131.029 24.6054 125.031 23.488C120.813 22.6442 117.278 21.9373 117.278 19.4061C117.278 16.875 119.923 15.8488 123.253 15.8488H153.946V39.5189C153.946 41.2975 155.383 42.7342 157.162 42.7342C158.94 42.7342 160.377 41.2975 160.377 39.5189V15.8488H168.153C167.378 15.1191 166.899 14.0701 166.899 12.9755Z" fill="url(#paint3_linear_649_1847)"/>
<path d="M198.757 34.0918C199.373 34.0918 199.988 34.2287 200.558 34.5251L199.555 32.2904L190.867 13.1354L190.844 13.067C190.137 11.4707 188.7 10.3305 186.967 10.0113C186.352 9.89728 185.713 9.89728 185.098 10.0113C183.433 10.3077 181.996 11.4023 181.289 12.953L181.198 13.181L168.451 41.2522L166.467 45.6304L166.33 45.9725C165.669 47.5687 166.444 49.4158 168.04 50.0543C169.637 50.7156 171.484 49.9403 172.122 48.3441V48.2985L175.224 41.2293L184.801 20.2273L186.01 17.5593L187.241 20.2273L192.235 31.1046H184.641C183.114 31.173 181.951 32.45 182.019 33.9778C182.087 35.3916 183.228 36.5318 184.641 36.6002H194.698L194.903 37.0335C195.336 35.3232 196.933 34.0918 198.757 34.0918Z" fill="url(#paint4_linear_649_1847)"/>
<path d="M21.1162 0C9.46357 0 9.77636e-05 9.57749 9.77636e-05 21.3669C-0.0227058 28.9377 3.94511 35.9384 10.4441 39.815C13.591 41.6849 17.1712 42.711 20.8425 42.7566H21.4126C26.5662 42.8707 31.3322 45.5843 34.0458 49.9626C34.5475 51.5132 36.2121 52.3569 37.7628 51.8553C38.4241 51.65 38.9942 51.194 39.359 50.6011C39.9747 49.6205 39.9519 48.3891 39.3134 47.4314C38.8573 46.6104 38.3329 45.8351 37.7856 45.0826C36.1437 42.9619 34.1142 41.1604 31.8111 39.7922C28.6642 37.9223 25.084 36.9189 21.4126 36.8733H20.8425C17.0344 36.8049 13.3858 35.2999 10.6266 32.6775C7.52527 29.7358 5.7694 25.6312 5.7922 21.3441C5.7922 12.77 12.6561 5.8149 21.139 5.8149C29.6219 5.8149 36.463 12.77 36.463 21.3441C36.463 24.0805 35.7561 26.7714 34.3879 29.1657C36.4174 28.5956 38.5153 29.7814 39.0626 31.8109C39.1082 32.0162 39.1538 32.2214 39.1766 32.4266C41.1833 29.0973 42.2551 25.2663 42.2323 21.3669C42.2095 9.57749 32.7688 0 21.1162 0ZM39.4274 48.0699C39.359 47.9559 39.3134 47.819 39.245 47.705C39.3134 47.819 39.3818 47.9331 39.4274 48.0699Z" fill="url(#paint5_linear_649_1847)"/>
<path d="M39.2461 47.7051C39.3145 47.8191 39.3601 47.9559 39.4285 48.0699C39.3829 47.9331 39.3145 47.8191 39.2461 47.7051Z" fill="black"/>
<path d="M39.2461 47.7051C39.3145 47.8191 39.3601 47.9559 39.4285 48.0699C39.3829 47.9331 39.3145 47.8191 39.2461 47.7051Z" fill="url(#paint6_linear_649_1847)"/>
<path d="M51.6056 16.3733C53.1547 16.3733 54.4104 15.1176 54.4104 13.5685C54.4104 12.0194 53.1547 10.7637 51.6056 10.7637C50.0565 10.7637 48.8008 12.0194 48.8008 13.5685C48.8008 15.1176 50.0565 16.3733 51.6056 16.3733Z" fill="#FFAC2F"/>
<path d="M35.3674 35.8013C36.9921 35.8013 38.3091 34.4843 38.3091 32.8596C38.3091 31.235 36.9921 29.918 35.3674 29.918C33.7428 29.918 32.4258 31.235 32.4258 32.8596C32.4258 34.4843 33.7428 35.8013 35.3674 35.8013Z" fill="#FFAC2F"/>
<path d="M86.0842 42.7113C87.671 42.7113 88.9574 41.4249 88.9574 39.8381C88.9574 38.2512 87.671 36.9648 86.0842 36.9648C84.4973 36.9648 83.2109 38.2512 83.2109 39.8381C83.2109 41.4249 84.4973 42.7113 86.0842 42.7113Z" fill="#FFAC2F"/>
<path d="M170.731 15.8481C172.318 15.8481 173.604 14.5617 173.604 12.9748C173.604 11.388 172.318 10.1016 170.731 10.1016C169.144 10.1016 167.857 11.388 167.857 12.9748C167.857 14.5617 169.144 15.8481 170.731 15.8481Z" fill="#FFAC2F"/>
<path d="M198.757 41.2521C200.482 41.2521 201.881 39.8534 201.881 38.128C201.881 36.4026 200.482 35.0039 198.757 35.0039C197.032 35.0039 195.633 36.4026 195.633 38.128C195.633 39.8534 197.032 41.2521 198.757 41.2521Z" fill="#FFAC2F"/>
<defs>
<linearGradient id="paint0_linear_649_1847" x1="89.3291" y1="23.8105" x2="89.3291" y2="30.2327" gradientUnits="userSpaceOnUse">
<stop stop-color="#D359FE"/>
<stop offset="1" stop-color="#7A1AF0"/>
</linearGradient>
<linearGradient id="paint1_linear_649_1847" x1="77.4551" y1="10.8891" x2="77.4551" y2="42.7682" gradientUnits="userSpaceOnUse">
<stop stop-color="#A268AA"/>
<stop offset="1" stop-color="#6951A1"/>
</linearGradient>
<linearGradient id="paint2_linear_649_1847" x1="76.6712" y1="10.9332" x2="76.6712" y2="42.7926" gradientUnits="userSpaceOnUse">
<stop stop-color="#D359FE"/>
<stop offset="1" stop-color="#7A1AF0"/>
</linearGradient>
<linearGradient id="paint3_linear_649_1847" x1="128.37" y1="9.52666" x2="128.37" y2="42.2477" gradientUnits="userSpaceOnUse">
<stop stop-color="#D359FE"/>
<stop offset="1" stop-color="#7A1AF0"/>
</linearGradient>
<linearGradient id="paint4_linear_649_1847" x1="183.319" y1="10.7602" x2="183.319" y2="51.0708" gradientUnits="userSpaceOnUse">
<stop stop-color="#D359FE"/>
<stop offset="1" stop-color="#7A1AF0"/>
</linearGradient>
<linearGradient id="paint5_linear_649_1847" x1="21.1126" y1="0.238662" x2="21.1126" y2="52.2432" gradientUnits="userSpaceOnUse">
<stop stop-color="#D359FE"/>
<stop offset="1" stop-color="#7A1AF0"/>
</linearGradient>
<linearGradient id="paint6_linear_649_1847" x1="39.3358" y1="0.238546" x2="39.3358" y2="52.256" gradientUnits="userSpaceOnUse">
<stop stop-color="#A268AA"/>
<stop offset="1" stop-color="#6951A1"/>
</linearGradient>
</defs>
</svg>
