<svg width="201" height="64" viewBox="0 0 201 64" fill="none" xmlns="http://www.w3.org/2000/svg">
<path d="M91.8233 23.457H86.043C84.2744 23.457 82.8418 24.8896 82.8418 26.6582C82.8418 28.4268 84.2744 29.8594 86.043 29.8594H91.8233C93.5919 29.8594 95.0244 28.4268 95.0244 26.6582C95.0244 24.8896 93.5919 23.457 91.8233 23.457Z" fill="url(#paint0_linear_2355_591)"/>
<path d="M77.0859 17.7972C77.0859 17.8994 77.1041 18.0015 77.1427 18.0969C77.1132 18.0083 77.0996 17.913 77.1041 17.8176L77.0882 17.7949L77.0859 17.7972Z" fill="url(#paint1_linear_2355_591)"/>
<path d="M77.6149 18.3256C77.6013 17.758 78.0485 17.2881 78.6161 17.2745C78.6275 17.2745 78.6411 17.2745 78.6525 17.2745H78.8454L101.313 17.2608C103.075 17.2608 104.503 15.8305 104.503 14.0687C104.503 12.307 103.075 10.8812 101.313 10.8789H77.6149C74.0891 10.8789 71.2284 13.735 71.2262 17.2608V29.0552C71.2262 33.907 67.0692 36.2931 62.9076 36.2931C58.7461 36.2931 54.5551 33.8933 54.5551 29.0552V15.5853C53.4154 17.3403 51.0701 17.8398 49.3129 16.7023C48.8497 16.4026 48.4569 16.0031 48.1641 15.5354V29.0552C48.1641 38.098 55.5608 42.6001 62.919 42.6001C70.2772 42.6001 77.6285 38.098 77.6285 29.0552V18.7979M77.6285 18.3256V18.7956V18.3256Z" fill="url(#paint2_linear_2355_591)"/>
<path d="M166.174 12.916C166.174 11.8103 166.655 10.7591 167.495 10.0394H135.851V10.0031L122.363 9.9668C115.793 10.0531 109.792 12.6821 109.792 19.1549C109.792 26.2519 117.062 27.8253 122.976 29.0989C127.228 29.973 130.815 30.7699 130.815 33.4308C130.815 35.7079 128.186 36.7159 124.726 36.7159H88.1172C89.7337 38.0509 89.9607 40.4416 88.6257 42.0581C88.485 42.2283 88.3283 42.3872 88.1581 42.5326H124.032C131.301 42.5326 137.872 39.8604 137.872 33.2469C137.872 26.009 130.468 24.5083 124.508 23.3913C120.308 22.5558 116.796 21.8498 116.796 19.3206C116.796 16.7914 119.421 15.7698 122.753 15.7698H153.321V39.3427C153.321 41.1113 154.754 42.5439 156.523 42.5439C158.291 42.5439 159.724 41.1113 159.724 39.3427V15.763H167.463C166.641 15.0433 166.169 14.0035 166.171 12.9114L166.174 12.916Z" fill="url(#paint3_linear_2355_591)"/>
<path d="M197.883 33.9306C198.505 33.9306 199.118 34.0759 199.674 34.3529L198.668 32.1257L190.018 13.0775L189.993 13.0117C189.296 11.4202 187.852 10.2782 186.143 9.9694C185.53 9.85134 184.899 9.85134 184.286 9.9694C182.619 10.2714 181.205 11.3634 180.492 12.8981L180.394 13.1161L167.708 41.064L165.735 45.4321L165.587 45.7659C164.933 47.3619 165.699 49.185 167.295 49.8388C168.891 50.4927 170.714 49.7276 171.368 48.1315V48.0907L174.451 41.064L183.977 20.1496L185.18 17.5024L186.402 20.161L191.362 30.995H183.793C182.281 31.0631 181.112 32.3436 181.18 33.8556C181.244 35.2723 182.376 36.4052 183.793 36.4688H193.817L194.012 36.9115C194.482 35.1566 196.071 33.9374 197.887 33.9351L197.883 33.9306Z" fill="url(#paint4_linear_2355_591)"/>
<path d="M21.0211 0C9.41289 0 6.23966e-05 9.52635 6.23966e-05 21.2799C-0.0181003 28.8038 3.93002 35.7806 10.3914 39.6379C13.5222 41.5086 17.0957 42.5167 20.7419 42.5621H21.2981C26.4382 42.671 31.1741 45.3727 33.8826 49.7431C34.3844 51.287 36.0417 52.1338 37.5855 51.6321C38.2439 51.4187 38.8047 50.9805 39.1725 50.3947C39.7764 49.423 39.7537 48.1902 39.1157 47.2412C38.6571 46.433 38.144 45.6565 37.5855 44.9141C35.9532 42.7982 33.9371 41.0092 31.6418 39.6401C28.5087 37.7785 24.942 36.775 21.2981 36.7273H20.7419C16.9459 36.6614 13.3156 35.1698 10.5685 32.5521C7.48083 29.6143 5.73948 25.5345 5.75083 21.2708C5.75083 12.7321 12.5891 5.81661 21.0189 5.81661C29.4486 5.81661 36.2756 12.7457 36.2756 21.2822C36.2824 24.0111 35.5672 26.6947 34.1982 29.0581C36.212 28.495 38.3007 29.6733 38.8637 31.6871C38.9205 31.8869 38.9591 32.0935 38.9818 32.3001C40.9842 28.9741 42.0377 25.1644 42.0309 21.2844C42.0309 9.53316 32.6158 0.00454068 21.0189 0.00454068L21.0211 0ZM39.261 47.8474C39.1952 47.7271 39.1385 47.6045 39.0726 47.4864C39.143 47.6022 39.202 47.7225 39.2542 47.8474H39.2633H39.261Z" fill="url(#paint5_linear_2355_591)"/>
<path d="M51.3671 16.3005C52.9106 16.3005 54.1618 15.0492 54.1618 13.5057C54.1618 11.9622 52.9106 10.7109 51.3671 10.7109C49.8235 10.7109 48.5723 11.9622 48.5723 13.5057C48.5723 15.0492 49.8235 16.3005 51.3671 16.3005Z" fill="#FFAC2F"/>
<path d="M35.2104 35.6316C36.8216 35.6316 38.1277 34.3255 38.1277 32.7143C38.1277 31.103 36.8216 29.7969 35.2104 29.7969C33.5991 29.7969 32.293 31.103 32.293 32.7143C32.293 34.3255 33.5991 35.6316 35.2104 35.6316Z" fill="#FFAC2F"/>
<path d="M85.7077 42.5071C87.285 42.5071 88.5637 41.2284 88.5637 39.651C88.5637 38.0736 87.285 36.7949 85.7077 36.7949C84.1303 36.7949 82.8516 38.0736 82.8516 39.651C82.8516 41.2284 84.1303 42.5071 85.7077 42.5071Z" fill="#FFAC2F"/>
<path d="M169.971 15.7727C171.549 15.7727 172.827 14.494 172.827 12.9166C172.827 11.3393 171.549 10.0605 169.971 10.0605C168.394 10.0605 167.115 11.3393 167.115 12.9166C167.115 14.494 168.394 15.7727 169.971 15.7727Z" fill="#FFAC2F"/>
<path d="M197.883 41.0761C199.604 41.0761 201 39.6805 201 37.959C201 36.2374 199.604 34.8418 197.883 34.8418C196.161 34.8418 194.766 36.2374 194.766 37.959C194.766 39.6805 196.161 41.0761 197.883 41.0761Z" fill="#FFAC2F"/>
<path d="M196.843 10.1741H196.023V9.87891H198.019V10.1741H197.195V12.5738H196.843V10.1741Z" fill="black"/>
<path d="M200.591 11.3916C200.571 11.0147 200.546 10.5629 200.55 10.2269H200.539C200.448 10.5425 200.335 10.8785 200.199 11.2508L199.722 12.5585H199.458L199.023 11.2735C198.893 10.8944 198.786 10.5448 198.712 10.2246H198.702C198.696 10.5606 198.675 11.0124 198.65 11.4166L198.578 12.5722H198.246L198.435 9.875H198.88L199.34 11.1782C199.452 11.5096 199.545 11.8071 199.613 12.0863H199.624C199.692 11.8139 199.788 11.5187 199.908 11.1782L200.387 9.875H200.83L200.998 12.5722H200.657L200.589 11.387L200.591 11.3916Z" fill="black"/>
<path d="M198.323 55.8166V57.1283H195.352C194.596 57.1283 194 57.3668 194 57.9332C194 58.5096 194.795 58.6686 195.749 58.8574C197.101 59.1158 198.78 59.4537 198.78 61.0933C198.78 62.5939 197.289 63.2001 195.64 63.2001H192.301V61.8784H195.799C196.584 61.8784 197.18 61.6498 197.18 61.1331C197.18 60.5269 196.365 60.348 195.401 60.1493C194.06 59.8611 192.41 59.5034 192.41 57.8935C192.41 56.4228 193.772 55.8265 195.262 55.8066L198.323 55.8166Z" fill="#7A1AF0"/>
<path d="M185.217 56.006H183.727V62.9622H185.177V58.4606C186.166 59.8904 187.438 61.4808 188.9 62.9622H190.991V56.006H189.54V61.1536L189.53 61.6107C187.9 59.9015 186.469 58.0134 185.227 55.9961L185.217 56.006Z" fill="#7A1AF0"/>
<path d="M182.392 59.484C182.392 61.9783 180.355 63.1906 178.616 63.1906C176.877 63.1906 174.83 61.9783 174.83 59.484C174.83 56.9897 176.877 55.7773 178.616 55.7773C180.355 55.7773 182.392 56.9897 182.392 59.484ZM180.912 59.484C180.912 57.9536 179.67 57.2083 178.616 57.2083C177.553 57.2083 176.321 57.9536 176.321 59.484C176.321 61.0144 177.553 61.7597 178.616 61.7597C179.67 61.7597 180.912 61.0144 180.912 59.484Z" fill="#7A1AF0"/>
<path d="M172.148 62.9621V55.9434H173.599V62.9621H172.148Z" fill="#7A1AF0"/>
<path d="M163.877 56.0059H171.082V57.2282H168.11V62.962H166.659V57.2282H163.877V56.0059Z" fill="#7A1AF0"/>
<path d="M156.309 60.1398V56.0059H157.759V60.1398C157.759 61.2429 158.713 61.7894 159.657 61.7894C160.602 61.7894 161.546 61.2429 161.546 60.1398V56.0059H162.996V60.1398C162.996 62.1969 161.327 63.2204 159.657 63.2204C157.988 63.2204 156.309 62.1969 156.309 60.1398Z" fill="#7A1AF0"/>
<path d="M150.902 61.7199H155.265V62.962H149.451V56.0059H150.902V61.7199Z" fill="#7A1AF0"/>
<path d="M148.117 59.484C148.117 61.9783 146.08 63.1906 144.341 63.1906C142.602 63.1906 140.555 61.9783 140.555 59.484C140.555 56.9897 142.602 55.7773 144.341 55.7773C146.08 55.7773 148.117 56.9897 148.117 59.484ZM146.636 59.484C146.636 57.9536 145.394 57.2083 144.341 57.2083C143.278 57.2083 142.045 57.9536 142.045 59.484C142.045 61.0144 143.278 61.7597 144.341 61.7597C145.394 61.7597 146.636 61.0144 146.636 59.484Z" fill="#7A1AF0"/>
<path d="M139.553 55.8166V57.1283H136.582C135.817 57.1283 135.231 57.3768 135.231 57.9332C135.231 58.5096 136.026 58.6686 136.98 58.8574C138.321 59.1257 140.01 59.4537 140.01 61.0933C140.01 62.5939 138.52 63.2001 136.87 63.2001H133.531V61.8784H137.029C137.814 61.8784 138.411 61.6498 138.411 61.1331C138.411 60.5269 137.596 60.348 136.632 60.1493C135.29 59.8611 133.641 59.5034 133.641 57.8935C133.641 56.4228 135.002 55.8265 136.493 55.8066L139.553 55.8166Z" fill="#7A1AF0"/>
<path d="M123.197 56.0059H130.402V57.2282H127.431V62.962H125.98V57.2282H123.197V56.0059Z" fill="#7A1AF0"/>
<path d="M116.461 56.006H114.971V62.9622H116.422V58.4606C117.41 59.8904 118.682 61.4808 120.144 62.9622H122.155H122.235V56.006H120.784V61.1536L120.774 61.6107C119.144 59.9015 117.713 58.0134 116.471 55.9961L116.461 56.006Z" fill="#7A1AF0"/>
<path d="M110.269 56.0059H113.439V57.2381H110.319C109.047 57.2381 108.411 58.361 108.411 59.484C108.411 60.5969 109.037 61.7298 110.279 61.7298H113.439V62.962H110.269C108.083 62.8925 106.9 61.1932 106.9 59.484C106.9 57.7747 108.083 56.0754 110.269 56.0059ZM112.684 60.1001H109.782V58.8678H112.684V60.1001Z" fill="#7A1AF0"/>
<path d="M102.293 61.7199H106.655V62.962H100.842V56.0059H102.293V61.7199Z" fill="#7A1AF0"/>
<path d="M94.9752 55.9082H96.5155L99.7154 62.9638H98.185L97.708 61.9203H94.7169L95.2833 60.6782H97.1416L95.7404 57.6174L93.3058 62.9638H91.7754L94.9752 55.9082Z" fill="#7A1AF0"/>
<path d="M85 56.0059H92.2046V57.2282H89.2333V62.962H87.7825V57.2282H85V56.0059Z" fill="#7A1AF0"/>
<defs>
<linearGradient id="paint0_linear_2355_591" x1="88.9412" y1="23.6872" x2="88.9412" y2="30.1016" gradientUnits="userSpaceOnUse">
<stop stop-color="#D359FE"/>
<stop offset="1" stop-color="#7A1AF0"/>
</linearGradient>
<linearGradient id="paint1_linear_2355_591" x1="77.2613" y1="10.9022" x2="77.2613" y2="42.4781" gradientUnits="userSpaceOnUse">
<stop stop-color="#A268AA"/>
<stop offset="1" stop-color="#6951A1"/>
</linearGradient>
<linearGradient id="paint2_linear_2355_591" x1="76.3322" y1="10.8766" x2="76.3322" y2="42.5978" gradientUnits="userSpaceOnUse">
<stop stop-color="#D359FE"/>
<stop offset="1" stop-color="#7A1AF0"/>
</linearGradient>
<linearGradient id="paint3_linear_2355_591" x1="127.458" y1="9.5259" x2="127.458" y2="41.9438" gradientUnits="userSpaceOnUse">
<stop stop-color="#D359FE"/>
<stop offset="1" stop-color="#7A1AF0"/>
</linearGradient>
<linearGradient id="paint4_linear_2355_591" x1="182.386" y1="10.7482" x2="182.386" y2="50.9996" gradientUnits="userSpaceOnUse">
<stop stop-color="#D359FE"/>
<stop offset="1" stop-color="#7A1AF0"/>
</linearGradient>
<linearGradient id="paint5_linear_2355_591" x1="21.1233" y1="0.345092" x2="21.1233" y2="51.8636" gradientUnits="userSpaceOnUse">
<stop stop-color="#D359FE"/>
<stop offset="1" stop-color="#7A1AF0"/>
</linearGradient>
</defs>
</svg>
