<svg width="181" height="181" viewBox="0 0 181 181" fill="none" xmlns="http://www.w3.org/2000/svg">
<path d="M45.6645 69.9796C45.6645 69.9598 45.6645 69.9399 45.6645 69.9201C45.6653 69.4815 45.6778 69.0457 45.7016 68.6129C46.2223 59.1474 52.176 51.1144 60.4922 47.5846C63.391 46.3542 66.5769 45.6709 69.9197 45.6648C69.9419 45.6648 69.9641 45.6648 69.9863 45.6648L140.376 45.5368C153.747 45.5125 164.567 56.3324 164.543 69.7039C164.519 83.0753 153.659 93.9347 140.288 93.959L94.0428 94.0431L93.9587 140.288C93.9344 153.66 83.0749 164.519 69.7035 164.543C56.3321 164.568 45.5121 153.748 45.5364 140.376L45.6645 69.9796Z" fill="url(#paint0_linear_2462_67)"/>
<path d="M104.086 111.918C104.086 111.911 104.086 111.905 104.086 111.899C104.087 111.758 104.091 111.618 104.1 111.479C104.28 108.442 106.202 105.857 108.875 104.713C109.806 104.314 110.829 104.09 111.902 104.083C111.909 104.083 111.916 104.083 111.923 104.083L134.502 103.94C138.792 103.913 142.247 107.368 142.22 111.657C142.192 115.947 138.693 119.446 134.404 119.473L119.57 119.567L119.476 134.401C119.449 138.69 115.949 142.19 111.66 142.217C107.371 142.244 103.916 138.789 103.943 134.5L104.086 111.918Z" fill="url(#paint1_linear_2462_67)"/>
<defs>
<linearGradient id="paint0_linear_2462_67" x1="52.7869" y1="52.7873" x2="122.128" y2="122.129" gradientUnits="userSpaceOnUse">
<stop stop-color="#C493FF"/>
<stop offset="1" stop-color="#C493FF" stop-opacity="0"/>
</linearGradient>
<linearGradient id="paint1_linear_2462_67" x1="106.395" y1="106.393" x2="128.538" y2="128.535" gradientUnits="userSpaceOnUse">
<stop stop-color="#C493FF"/>
<stop offset="1" stop-color="#C493FF" stop-opacity="0"/>
</linearGradient>
</defs>
</svg>
