<svg width="90" height="85" viewBox="0 0 90 85" fill="none" xmlns="http://www.w3.org/2000/svg">
<rect width="89.191" height="85" rx="20" fill="#603F87"/>
<path d="M19.1665 42.9983C19.1653 43.4924 19.3058 43.9765 19.5714 44.3932C19.8369 44.8099 20.2164 45.1416 20.6648 45.3491L42.8815 55.45C43.5511 55.7532 44.2777 55.91 45.0128 55.91C45.7478 55.91 46.4744 55.7532 47.144 55.45L69.309 45.375C69.7663 45.1695 70.1539 44.8353 70.4245 44.4133C70.6951 43.9913 70.8371 43.4996 70.8332 42.9983M19.1665 55.915C19.1653 56.4091 19.3058 56.8932 19.5714 57.3099C19.8369 57.7265 20.2164 58.0583 20.6648 58.2658L42.8815 68.3666C43.5511 68.6699 44.2777 68.8267 45.0128 68.8267C45.7478 68.8267 46.4744 68.6699 47.144 68.3666L69.309 58.2916C69.7663 58.0861 70.1539 57.752 70.4245 57.33C70.6951 56.9079 70.8371 56.4163 70.8332 55.915M47.144 17.63C46.4709 17.323 45.7397 17.1641 44.9998 17.1641C44.26 17.1641 43.5288 17.323 42.8557 17.63L20.7165 27.705C20.2581 27.9071 19.8683 28.2382 19.5947 28.6579C19.3211 29.0775 19.1754 29.5677 19.1754 30.0687C19.1754 30.5697 19.3211 31.0599 19.5947 31.4796C19.8683 31.8993 20.2581 32.2304 20.7165 32.4325L42.8815 42.5333C43.5546 42.8403 44.2858 42.9992 45.0257 42.9992C45.7655 42.9992 46.4967 42.8403 47.1698 42.5333L69.3348 32.4583C69.7933 32.2562 70.183 31.9251 70.4566 31.5054C70.7302 31.0858 70.8759 30.5956 70.8759 30.0946C70.8759 29.5936 70.7302 29.1034 70.4566 28.6837C70.183 28.264 69.7933 27.9329 69.3348 27.7308L47.144 17.63Z" stroke="#FF82EB" stroke-width="4" stroke-linecap="round" stroke-linejoin="round"/>
</svg>
