<svg width="90" height="85" viewBox="0 0 90 85" fill="none" xmlns="http://www.w3.org/2000/svg">
<rect width="89.191" height="85" rx="20" fill="#603F87"/>
<path d="M21.502 40.4184L65.9353 27.5018L63.8687 20.7851C63.0937 18.2018 60.252 16.6518 57.4103 17.4268L22.5353 27.7601C19.952 28.5351 18.402 31.3768 19.177 34.2184L21.502 40.4184ZM21.502 40.4184H68.002V61.0851C68.002 62.4554 67.4577 63.7695 66.4887 64.7385C65.5198 65.7074 64.2056 66.2518 62.8353 66.2518H26.6687C25.2984 66.2518 23.9842 65.7074 23.0153 64.7385C22.0463 63.7695 21.502 62.4554 21.502 61.0851V40.4184ZM29.7687 25.6934L37.777 35.7684M45.7853 20.7851L53.7937 31.1184" stroke="#FF82EB" stroke-width="4" stroke-linecap="round" stroke-linejoin="round"/>
</svg>
