<svg width="90" height="85" viewBox="0 0 90 85" fill="none" xmlns="http://www.w3.org/2000/svg">
<rect width="89.191" height="85" rx="20" fill="#603F87"/>
<path d="M45 19.75H26.9167C25.5464 19.75 24.2322 20.2943 23.2633 21.2633C22.2943 22.2322 21.75 23.5464 21.75 24.9167V61.0833C21.75 62.4536 22.2943 63.7678 23.2633 64.7367C24.2322 65.7057 25.5464 66.25 26.9167 66.25H63.0833C64.4536 66.25 65.7678 65.7057 66.7367 64.7367C67.7057 63.7678 68.25 62.4536 68.25 61.0833V43M50.1667 50.75H37.25M37.25 50.75V37.8333M37.25 50.75L68.25 19.75M55.3333 19.75H68.25M68.25 19.75V32.6667" stroke="#FF82EB" stroke-width="4" stroke-linecap="round" stroke-linejoin="round"/>
</svg>
