<svg width="90" height="85" viewBox="0 0 90 85" fill="none" xmlns="http://www.w3.org/2000/svg">
<rect width="89.191" height="85" rx="20" fill="#603F87"/>
<path d="M39.4219 52.0436C39.1912 51.1496 38.7252 50.3337 38.0724 49.6808C37.4195 49.028 36.6036 48.562 35.7096 48.3314L19.8609 44.2445C19.5905 44.1678 19.3525 44.0049 19.183 43.7807C19.0136 43.5564 18.9219 43.283 18.9219 43.0019C18.9219 42.7209 19.0136 42.4475 19.183 42.2232C19.3525 41.999 19.5905 41.8361 19.8609 41.7594L35.7096 37.6699C36.6033 37.4395 37.419 36.9739 38.0718 36.3215C38.7246 35.6692 39.1908 34.8538 39.4219 33.9603L43.5087 18.1115C43.5847 17.8401 43.7473 17.6009 43.9719 17.4305C44.1965 17.2602 44.4707 17.168 44.7526 17.168C45.0345 17.168 45.3086 17.2602 45.5332 17.4305C45.7578 17.6009 45.9205 17.8401 45.9964 18.1115L50.0807 33.9603C50.3113 34.8543 50.7773 35.6702 51.4302 36.323C52.083 36.9759 52.8989 37.4419 53.7929 37.6725L69.6417 41.7568C69.9142 41.832 70.1546 41.9945 70.3259 42.2194C70.4971 42.4443 70.5899 42.7192 70.5899 43.0019C70.5899 43.2847 70.4971 43.5596 70.3259 43.7845C70.1546 44.0094 69.9142 44.1719 69.6417 44.2471L53.7929 48.3314C52.8989 48.562 52.083 49.028 51.4302 49.6808C50.7773 50.3337 50.3113 51.1496 50.0807 52.0436L45.9939 67.8924C45.9179 68.1638 45.7552 68.403 45.5306 68.5733C45.306 68.7437 45.0319 68.8359 44.75 68.8359C44.4681 68.8359 44.1939 68.7437 43.9693 68.5733C43.7448 68.403 43.5821 68.1638 43.5061 67.8924L39.4219 52.0436Z" stroke="#FF82EB" stroke-width="4"/>
</svg>
