<svg width="90" height="85" viewBox="0 0 90 85" fill="none" xmlns="http://www.w3.org/2000/svg">
<rect width="89.191" height="85" rx="20" fill="#603F87"/>
<path d="M41.125 66.25H26.9167C25.5464 66.25 24.2322 65.7057 23.2633 64.7367C22.2943 63.7678 21.75 62.4536 21.75 61.0833V24.9167C21.75 23.5464 22.2943 22.2322 23.2633 21.2633C24.2322 20.2943 25.5464 19.75 26.9167 19.75H63.0833C64.4536 19.75 65.7678 20.2943 66.7367 21.2633C67.7057 22.2322 68.25 23.5464 68.25 24.9167V39.125M50.9417 62.6333L53.525 61.6M52.75 19.75V39.125M53.2667 55.6583L50.9417 54.8833M56.8833 68.0583L57.6583 65.7333M57.4 51.525L56.3667 48.9417M63.3417 51.2667L64.1167 48.9417M64.6333 68.0583L63.6 65.475M67.475 55.4L70.0583 54.3667M70.0583 62.1167L67.7333 61.3417M37.25 19.75V66.25M68.25 58.5C68.25 62.7802 64.7802 66.25 60.5 66.25C56.2198 66.25 52.75 62.7802 52.75 58.5C52.75 54.2198 56.2198 50.75 60.5 50.75C64.7802 50.75 68.25 54.2198 68.25 58.5Z" stroke="#FF82EB" stroke-width="4" stroke-linecap="round" stroke-linejoin="round"/>
</svg>
