<svg width="556" height="224" viewBox="0 0 556 224" fill="none" xmlns="http://www.w3.org/2000/svg">
<path d="M62 33H526C542.016 33 555 45.9837 555 62V179C555 203.301 535.301 223 511 223H62C45.9837 223 33 210.016 33 194V62C33 45.9837 45.9837 33 62 33Z" fill="white" stroke="#7A1AF0" stroke-width="2"/>
<rect x="1" y="1" width="522" height="190" rx="29" fill="white" stroke="#7A1AF0" stroke-width="2"/>
<rect x="184.838" y="25.4863" width="96.5876" height="23.181" rx="11.5905" fill="#EBDFFD"/>
<path d="M220.588 41.3164V33.0871H224.17C224.541 33.0871 224.881 33.1644 225.19 33.319C225.499 33.4735 225.765 33.6783 225.989 33.9332C226.221 34.1882 226.399 34.4741 226.523 34.7909C226.654 35.1078 226.72 35.4323 226.72 35.7645C226.72 36.1277 226.654 36.4754 226.523 36.8077C226.391 37.14 226.202 37.4259 225.955 37.6654C225.715 37.9049 225.433 38.0788 225.108 38.187L227.044 41.3164H225.584L223.799 38.4535H221.886V41.3164H220.588ZM221.886 37.3061H224.158C224.398 37.3061 224.61 37.2365 224.796 37.0975C224.981 36.9584 225.128 36.7729 225.236 36.5411C225.344 36.3016 225.398 36.0427 225.398 35.7645C225.398 35.4787 225.336 35.2237 225.213 34.9996C225.089 34.7678 224.927 34.5823 224.726 34.4432C224.533 34.3041 224.32 34.2346 224.089 34.2346H221.886V37.3061ZM227.546 39.5431C227.546 39.1567 227.655 38.8206 227.871 38.5347C228.095 38.2411 228.4 38.017 228.787 37.8624C229.173 37.7002 229.621 37.619 230.131 37.619C230.402 37.619 230.676 37.6383 230.954 37.677C231.24 37.7156 231.491 37.7774 231.707 37.8624V37.4799C231.707 37.055 231.58 36.7227 231.325 36.4832C231.07 36.2436 230.703 36.1239 230.224 36.1239C229.884 36.1239 229.563 36.1857 229.262 36.3093C228.961 36.4252 228.64 36.5913 228.3 36.8077L227.871 35.95C228.273 35.6796 228.675 35.4787 229.076 35.3473C229.486 35.2159 229.915 35.1503 230.363 35.1503C231.174 35.1503 231.812 35.3666 232.275 35.7993C232.747 36.2243 232.982 36.8309 232.982 37.619V39.8792C232.982 40.026 233.006 40.1303 233.052 40.1921C233.106 40.2539 233.195 40.2887 233.319 40.2964V41.3164C233.203 41.3396 233.098 41.355 233.006 41.3628C232.913 41.3705 232.836 41.3744 232.774 41.3744C232.503 41.3744 232.299 41.3087 232.16 41.1773C232.02 41.046 231.939 40.8914 231.916 40.7137L231.881 40.366C231.619 40.706 231.282 40.9687 230.873 41.1541C230.463 41.3396 230.05 41.4323 229.633 41.4323C229.231 41.4323 228.872 41.3512 228.555 41.1889C228.238 41.0189 227.991 40.791 227.813 40.5051C227.635 40.2192 227.546 39.8985 227.546 39.5431ZM231.406 39.914C231.499 39.8135 231.572 39.7131 231.626 39.6126C231.68 39.5121 231.707 39.4233 231.707 39.346V38.6506C231.491 38.5656 231.263 38.5038 231.024 38.4651C230.784 38.4188 230.548 38.3956 230.317 38.3956C229.853 38.3956 229.474 38.4883 229.181 38.6738C228.895 38.8592 228.752 39.1142 228.752 39.4387C228.752 39.6165 228.798 39.7865 228.891 39.9487C228.991 40.111 229.131 40.2424 229.308 40.3428C229.494 40.4433 229.722 40.4935 229.992 40.4935C230.27 40.4935 230.537 40.4394 230.792 40.3312C231.047 40.223 231.252 40.0839 231.406 39.914ZM239.965 41.3164H238.69V37.9204C238.69 37.3563 238.598 36.9429 238.412 36.6802C238.234 36.4175 237.968 36.2861 237.612 36.2861C237.365 36.2861 237.118 36.3479 236.871 36.4716C236.631 36.5952 236.415 36.7652 236.221 36.9816C236.028 37.1902 235.889 37.4336 235.804 37.7118V41.3164H234.529V35.2546H235.688V36.4716C235.843 36.2011 236.044 35.9693 236.291 35.7761C236.546 35.5752 236.832 35.4207 237.149 35.3125C237.465 35.2043 237.802 35.1503 238.157 35.1503C238.52 35.1503 238.818 35.2159 239.05 35.3473C239.289 35.4787 239.475 35.6602 239.606 35.892C239.745 36.1161 239.838 36.3788 239.884 36.6802C239.938 36.9738 239.965 37.2868 239.965 37.619V41.3164ZM245.664 41.3164L243.717 38.5231L242.72 39.4735V41.3164H241.445V32.8553H242.72V38.187L245.525 35.2662H246.893L244.54 37.8045L247.02 41.3164H245.664Z" fill="#7A1AF0"/>
<rect x="29" y="25.4863" width="145.847" height="23.181" rx="11.5905" fill="#EBDFFD"/>
<path d="M78.768 41.3744C78.1112 41.3744 77.5548 41.2623 77.0989 41.0382C76.6508 40.8142 76.2876 40.5089 76.0094 40.1226C75.739 39.7362 75.5381 39.2958 75.4067 38.8013C75.2831 38.3067 75.2213 37.7929 75.2213 37.2597V33.0871H76.5194V37.2597C76.5194 37.6383 76.558 38.0054 76.6353 38.3608C76.7126 38.7085 76.8362 39.0215 77.0062 39.2997C77.1762 39.5778 77.4041 39.798 77.69 39.9603C77.9837 40.1226 78.343 40.2037 78.768 40.2037C79.2007 40.2037 79.56 40.1226 79.8459 39.9603C80.1395 39.7903 80.3674 39.5662 80.5297 39.2881C80.6997 39.0022 80.8233 38.6854 80.9006 38.3376C80.9779 37.9899 81.0165 37.6306 81.0165 37.2597V33.0871H82.3262V37.2597C82.3262 37.8238 82.2567 38.357 82.1176 38.8592C81.9863 39.3537 81.7776 39.7903 81.4917 40.1689C81.2136 40.5398 80.8504 40.8335 80.4022 41.0498C79.9541 41.2662 79.4093 41.3744 78.768 41.3744ZM85.8991 41.4323C85.3891 41.4323 84.9062 41.3512 84.4503 41.1889C83.9944 41.0189 83.6042 40.7678 83.2797 40.4355L83.7549 39.5778C84.1026 39.8869 84.4503 40.111 84.798 40.2501C85.1535 40.3892 85.505 40.4587 85.8527 40.4587C86.2082 40.4587 86.498 40.393 86.722 40.2617C86.9461 40.1226 87.0582 39.9217 87.0582 39.659C87.0582 39.4658 87.0002 39.3228 86.8843 39.2301C86.7684 39.1374 86.5984 39.0563 86.3743 38.9867C86.158 38.9172 85.8952 38.8399 85.5862 38.7549C85.1535 38.6235 84.7903 38.4883 84.4967 38.3492C84.203 38.2024 83.9828 38.0247 83.836 37.8161C83.6892 37.6074 83.6158 37.3409 83.6158 37.0163C83.6158 36.6222 83.7162 36.2861 83.9171 36.008C84.118 35.7298 84.3962 35.5173 84.7516 35.3705C85.1148 35.2237 85.5321 35.1503 86.0034 35.1503C86.4439 35.1503 86.8495 35.2198 87.2204 35.3589C87.5991 35.4902 87.9313 35.6989 88.2172 35.9848L87.6725 36.8309C87.402 36.5836 87.1238 36.402 86.8379 36.2861C86.5598 36.1702 86.2584 36.1123 85.9339 36.1123C85.7484 36.1123 85.5707 36.1354 85.4007 36.1818C85.2307 36.2204 85.0878 36.2977 84.9719 36.4136C84.8637 36.5218 84.8096 36.6763 84.8096 36.8772C84.8096 37.0395 84.856 37.1709 84.9487 37.2713C85.0414 37.3718 85.1805 37.4568 85.3659 37.5263C85.5514 37.5959 85.7793 37.6731 86.0498 37.7581C86.5211 37.8972 86.9229 38.0363 87.2552 38.1754C87.5875 38.3067 87.8425 38.4806 88.0202 38.6969C88.2056 38.9056 88.2983 39.1953 88.2983 39.5662C88.2983 40.1535 88.0781 40.6132 87.6377 40.9455C87.205 41.27 86.6254 41.4323 85.8991 41.4323ZM92.1836 41.4323C91.7123 41.4323 91.2834 41.3512 90.8971 41.1889C90.5184 41.0189 90.19 40.791 89.9119 40.5051C89.6337 40.2114 89.4173 39.8792 89.2628 39.5083C89.116 39.1297 89.0426 38.7279 89.0426 38.3029C89.0426 37.7311 89.1739 37.2095 89.4367 36.7382C89.6994 36.2591 90.0664 35.8766 90.5378 35.5907C91.0091 35.2971 91.5616 35.1503 92.1952 35.1503C92.8288 35.1503 93.3736 35.2971 93.8295 35.5907C94.2931 35.8766 94.6524 36.2552 94.9074 36.7266C95.1624 37.1979 95.2899 37.704 95.2899 38.2449C95.2899 38.3376 95.286 38.4265 95.2783 38.5115C95.2706 38.5888 95.2628 38.6545 95.2551 38.7085H90.3987C90.4219 39.064 90.5184 39.3769 90.6884 39.6474C90.8662 39.9101 91.0902 40.1187 91.3607 40.2733C91.6311 40.4201 91.9209 40.4935 92.23 40.4935C92.57 40.4935 92.8906 40.4085 93.192 40.2385C93.5011 40.0685 93.7097 39.8444 93.8179 39.5662L94.9074 39.8792C94.776 40.1728 94.5751 40.4394 94.3047 40.6789C94.042 40.9107 93.729 41.0962 93.3658 41.2353C93.0027 41.3666 92.6086 41.4323 92.1836 41.4323ZM90.3639 37.8624H94.0265C94.0033 37.5147 93.9029 37.2095 93.7252 36.9468C93.5552 36.6763 93.3349 36.4677 93.0645 36.3209C92.8018 36.1664 92.5081 36.0891 92.1836 36.0891C91.8668 36.0891 91.5732 36.1664 91.3027 36.3209C91.04 36.4677 90.8237 36.6763 90.6537 36.9468C90.4837 37.2095 90.3871 37.5147 90.3639 37.8624ZM99.7375 36.3557C99.2429 36.3634 98.8025 36.4754 98.4161 36.6918C98.0375 36.9081 97.7671 37.2134 97.6048 37.6074V41.3164H96.3298V35.2546H97.5121V36.6107C97.7207 36.1934 97.995 35.8611 98.335 35.6139C98.675 35.3589 99.0343 35.2198 99.4129 35.1966C99.4902 35.1966 99.552 35.1966 99.5984 35.1966C99.6525 35.1966 99.6988 35.2005 99.7375 35.2082V36.3557ZM106.101 41.3164H104.826V37.9204C104.826 37.3563 104.733 36.9429 104.548 36.6802C104.37 36.4175 104.103 36.2861 103.748 36.2861C103.501 36.2861 103.254 36.3479 103.006 36.4716C102.767 36.5952 102.55 36.7652 102.357 36.9816C102.164 37.1902 102.025 37.4336 101.94 37.7118V41.3164H100.665V35.2546H101.824V36.4716C101.979 36.2011 102.179 35.9693 102.427 35.7761C102.682 35.5752 102.968 35.4207 103.284 35.3125C103.601 35.2043 103.937 35.1503 104.293 35.1503C104.656 35.1503 104.953 35.2159 105.185 35.3473C105.425 35.4787 105.61 35.6602 105.742 35.892C105.881 36.1161 105.973 36.3788 106.02 36.6802C106.074 36.9738 106.101 37.2868 106.101 37.619V41.3164ZM107.14 39.5431C107.14 39.1567 107.249 38.8206 107.465 38.5347C107.689 38.2411 107.994 38.017 108.381 37.8624C108.767 37.7002 109.215 37.619 109.725 37.619C109.995 37.619 110.27 37.6383 110.548 37.677C110.834 37.7156 111.085 37.7774 111.301 37.8624V37.4799C111.301 37.055 111.174 36.7227 110.919 36.4832C110.664 36.2436 110.297 36.1239 109.818 36.1239C109.478 36.1239 109.157 36.1857 108.856 36.3093C108.554 36.4252 108.234 36.5913 107.894 36.8077L107.465 35.95C107.867 35.6796 108.268 35.4787 108.67 35.3473C109.08 35.2159 109.509 35.1503 109.957 35.1503C110.768 35.1503 111.406 35.3666 111.869 35.7993C112.341 36.2243 112.576 36.8309 112.576 37.619V39.8792C112.576 40.026 112.599 40.1303 112.646 40.1921C112.7 40.2539 112.789 40.2887 112.912 40.2964V41.3164C112.797 41.3396 112.692 41.355 112.599 41.3628C112.507 41.3705 112.429 41.3744 112.368 41.3744C112.097 41.3744 111.892 41.3087 111.753 41.1773C111.614 41.046 111.533 40.8914 111.51 40.7137L111.475 40.366C111.212 40.706 110.876 40.9687 110.467 41.1541C110.057 41.3396 109.644 41.4323 109.227 41.4323C108.825 41.4323 108.466 41.3512 108.149 41.1889C107.832 41.0189 107.585 40.791 107.407 40.5051C107.229 40.2192 107.14 39.8985 107.14 39.5431ZM111 39.914C111.093 39.8135 111.166 39.7131 111.22 39.6126C111.274 39.5121 111.301 39.4233 111.301 39.346V38.6506C111.085 38.5656 110.857 38.5038 110.618 38.4651C110.378 38.4188 110.142 38.3956 109.91 38.3956C109.447 38.3956 109.068 38.4883 108.775 38.6738C108.489 38.8592 108.346 39.1142 108.346 39.4387C108.346 39.6165 108.392 39.7865 108.485 39.9487C108.585 40.111 108.724 40.2424 108.902 40.3428C109.088 40.4433 109.316 40.4935 109.586 40.4935C109.864 40.4935 110.131 40.4394 110.386 40.3312C110.641 40.223 110.845 40.0839 111 39.914ZM123.396 41.3164H122.121V37.9204C122.121 37.3563 122.028 36.9429 121.842 36.6802C121.657 36.4175 121.386 36.2861 121.031 36.2861C120.676 36.2861 120.343 36.4213 120.034 36.6918C119.733 36.9545 119.52 37.2984 119.397 37.7233V41.3164H118.122V37.9204C118.122 37.3563 118.029 36.9429 117.844 36.6802C117.658 36.4175 117.392 36.2861 117.044 36.2861C116.688 36.2861 116.356 36.4175 116.047 36.6802C115.746 36.9429 115.529 37.2868 115.398 37.7118V41.3164H114.123V35.2546H115.282V36.4716C115.522 36.0466 115.835 35.7221 116.221 35.498C116.615 35.2662 117.063 35.1503 117.565 35.1503C118.068 35.1503 118.462 35.2816 118.748 35.5443C119.041 35.807 119.223 36.1354 119.292 36.5295C119.555 36.0814 119.876 35.7414 120.254 35.5096C120.641 35.27 121.081 35.1503 121.576 35.1503C121.931 35.1503 122.229 35.2159 122.468 35.3473C122.708 35.4787 122.893 35.6602 123.025 35.892C123.156 36.1161 123.249 36.3788 123.303 36.6802C123.365 36.9738 123.396 37.2868 123.396 37.619V41.3164ZM127.612 41.4323C127.14 41.4323 126.711 41.3512 126.325 41.1889C125.946 41.0189 125.618 40.791 125.34 40.5051C125.062 40.2114 124.845 39.8792 124.691 39.5083C124.544 39.1297 124.471 38.7279 124.471 38.3029C124.471 37.7311 124.602 37.2095 124.865 36.7382C125.127 36.2591 125.494 35.8766 125.966 35.5907C126.437 35.2971 126.99 35.1503 127.623 35.1503C128.257 35.1503 128.802 35.2971 129.258 35.5907C129.721 35.8766 130.08 36.2552 130.335 36.7266C130.59 37.1979 130.718 37.704 130.718 38.2449C130.718 38.3376 130.714 38.4265 130.706 38.5115C130.699 38.5888 130.691 38.6545 130.683 38.7085H125.827C125.85 39.064 125.946 39.3769 126.116 39.6474C126.294 39.9101 126.518 40.1187 126.789 40.2733C127.059 40.4201 127.349 40.4935 127.658 40.4935C127.998 40.4935 128.319 40.4085 128.62 40.2385C128.929 40.0685 129.138 39.8444 129.246 39.5662L130.335 39.8792C130.204 40.1728 130.003 40.4394 129.733 40.6789C129.47 40.9107 129.157 41.0962 128.794 41.2353C128.431 41.3666 128.037 41.4323 127.612 41.4323ZM125.792 37.8624H129.455C129.431 37.5147 129.331 37.2095 129.153 36.9468C128.983 36.6763 128.763 36.4677 128.493 36.3209C128.23 36.1664 127.936 36.0891 127.612 36.0891C127.295 36.0891 127.001 36.1664 126.731 36.3209C126.468 36.4677 126.252 36.6763 126.082 36.9468C125.912 37.2095 125.815 37.5147 125.792 37.8624Z" fill="#7A1AF0"/>
<rect x="290.586" y="25.4863" width="96.5876" height="23.181" rx="11.5905" fill="#EBDFFD"/>
<path d="M328.861 35.0228C328.784 34.9378 328.672 34.8489 328.525 34.7562C328.378 34.6557 328.204 34.563 328.003 34.478C327.802 34.393 327.586 34.3235 327.354 34.2694C327.122 34.2153 326.883 34.1882 326.635 34.1882C326.095 34.1882 325.693 34.2887 325.43 34.4896C325.167 34.6905 325.036 34.9687 325.036 35.3241C325.036 35.5868 325.109 35.7955 325.256 35.95C325.403 36.0968 325.627 36.2204 325.928 36.3209C326.23 36.4213 326.608 36.5295 327.064 36.6454C327.621 36.7768 328.104 36.9352 328.513 37.1206C328.923 37.2984 329.236 37.5379 329.452 37.8393C329.668 38.1406 329.776 38.5385 329.776 39.0331C329.776 39.4503 329.699 39.8096 329.545 40.111C329.39 40.4123 329.174 40.6596 328.896 40.8528C328.617 41.0382 328.297 41.1773 327.934 41.27C327.57 41.355 327.18 41.3975 326.763 41.3975C326.353 41.3975 325.944 41.355 325.534 41.27C325.133 41.185 324.746 41.0614 324.375 40.8991C324.012 40.7292 323.676 40.5244 323.367 40.2849L323.958 39.1722C324.058 39.2726 324.201 39.3847 324.387 39.5083C324.58 39.6242 324.8 39.7362 325.048 39.8444C325.303 39.9526 325.577 40.0453 325.87 40.1226C326.172 40.1921 326.477 40.2269 326.786 40.2269C327.304 40.2269 327.698 40.138 327.968 39.9603C328.247 39.7749 328.386 39.5121 328.386 39.1722C328.386 38.894 328.297 38.6738 328.119 38.5115C327.941 38.3415 327.682 38.1986 327.342 38.0827C327.002 37.9667 326.597 37.8508 326.125 37.7349C325.585 37.5881 325.133 37.4297 324.769 37.2597C324.406 37.082 324.132 36.8579 323.946 36.5875C323.769 36.3093 323.68 35.9577 323.68 35.5327C323.68 34.9918 323.811 34.536 324.074 34.1651C324.337 33.7864 324.692 33.5044 325.14 33.319C325.596 33.1258 326.106 33.0292 326.67 33.0292C327.041 33.0292 327.393 33.0717 327.725 33.1567C328.057 33.234 328.366 33.3421 328.652 33.4812C328.946 33.6203 329.212 33.7787 329.452 33.9564L328.861 35.0228ZM333.663 41.4323C333.192 41.4323 332.763 41.3512 332.377 41.1889C331.998 41.0189 331.67 40.7871 331.391 40.4935C331.113 40.1999 330.897 39.8637 330.742 39.4851C330.595 39.1065 330.522 38.7047 330.522 38.2797C330.522 37.7079 330.65 37.1863 330.905 36.715C331.167 36.2436 331.53 35.865 331.994 35.5791C332.465 35.2932 333.022 35.1503 333.663 35.1503C334.281 35.1503 334.818 35.2893 335.274 35.5675C335.738 35.838 336.078 36.2011 336.294 36.657L335.054 37.0511C334.915 36.7961 334.718 36.5991 334.463 36.46C334.216 36.3132 333.941 36.2398 333.64 36.2398C333.3 36.2398 332.991 36.3286 332.713 36.5063C332.442 36.6763 332.226 36.9159 332.064 37.225C331.909 37.5263 331.832 37.8779 331.832 38.2797C331.832 38.666 331.913 39.0176 332.075 39.3344C332.237 39.6435 332.454 39.8908 332.724 40.0762C333.002 40.2539 333.312 40.3428 333.652 40.3428C333.86 40.3428 334.061 40.308 334.254 40.2385C334.455 40.1612 334.629 40.0608 334.776 39.9371C334.923 39.8058 335.027 39.6628 335.089 39.5083L336.341 39.8792C336.209 40.1805 336.012 40.4471 335.749 40.6789C335.494 40.9107 335.189 41.0962 334.834 41.2353C334.486 41.3666 334.096 41.4323 333.663 41.4323ZM340.058 41.4323C339.579 41.4323 339.15 41.3512 338.771 41.1889C338.393 41.0189 338.064 40.7871 337.786 40.4935C337.516 40.1999 337.307 39.8676 337.16 39.4967C337.013 39.1181 336.94 38.7163 336.94 38.2913C336.94 37.8663 337.013 37.4645 337.16 37.0859C337.307 36.7072 337.516 36.375 337.786 36.0891C338.064 35.7955 338.393 35.5675 338.771 35.4052C339.158 35.2352 339.586 35.1503 340.058 35.1503C340.529 35.1503 340.954 35.2352 341.333 35.4052C341.719 35.5675 342.047 35.7955 342.318 36.0891C342.596 36.375 342.809 36.7072 342.955 37.0859C343.102 37.4645 343.176 37.8663 343.176 38.2913C343.176 38.7163 343.102 39.1181 342.955 39.4967C342.809 39.8676 342.596 40.1999 342.318 40.4935C342.047 40.7871 341.719 41.0189 341.333 41.1889C340.954 41.3512 340.529 41.4323 340.058 41.4323ZM338.25 38.3029C338.25 38.6892 338.331 39.0369 338.493 39.346C338.655 39.6551 338.872 39.8985 339.142 40.0762C339.413 40.2539 339.718 40.3428 340.058 40.3428C340.39 40.3428 340.691 40.2539 340.962 40.0762C341.24 39.8908 341.46 39.6435 341.622 39.3344C341.785 39.0176 341.866 38.6699 341.866 38.2913C341.866 37.9049 341.785 37.5572 341.622 37.2481C341.46 36.9391 341.24 36.6957 340.962 36.5179C340.691 36.3325 340.39 36.2398 340.058 36.2398C339.718 36.2398 339.413 36.3325 339.142 36.5179C338.872 36.7034 338.655 36.9506 338.493 37.2597C338.331 37.5611 338.25 37.9088 338.25 38.3029ZM347.714 36.3557C347.219 36.3634 346.779 36.4754 346.393 36.6918C346.014 36.9081 345.744 37.2134 345.581 37.6074V41.3164H344.306V35.2546H345.489V36.6107C345.697 36.1934 345.972 35.8611 346.312 35.6139C346.652 35.3589 347.011 35.2198 347.389 35.1966C347.467 35.1966 347.529 35.1966 347.575 35.1966C347.629 35.1966 347.675 35.2005 347.714 35.2082V36.3557ZM351.287 41.4323C350.815 41.4323 350.386 41.3512 350 41.1889C349.621 41.0189 349.293 40.791 349.015 40.5051C348.737 40.2114 348.52 39.8792 348.366 39.5083C348.219 39.1297 348.146 38.7279 348.146 38.3029C348.146 37.7311 348.277 37.2095 348.54 36.7382C348.802 36.2591 349.169 35.8766 349.641 35.5907C350.112 35.2971 350.665 35.1503 351.298 35.1503C351.932 35.1503 352.477 35.2971 352.932 35.5907C353.396 35.8766 353.755 36.2552 354.01 36.7266C354.265 37.1979 354.393 37.704 354.393 38.2449C354.393 38.3376 354.389 38.4265 354.381 38.5115C354.374 38.5888 354.366 38.6545 354.358 38.7085H349.502C349.525 39.064 349.621 39.3769 349.791 39.6474C349.969 39.9101 350.193 40.1187 350.464 40.2733C350.734 40.4201 351.024 40.4935 351.333 40.4935C351.673 40.4935 351.994 40.4085 352.295 40.2385C352.604 40.0685 352.813 39.8444 352.921 39.5662L354.01 39.8792C353.879 40.1728 353.678 40.4394 353.408 40.6789C353.145 40.9107 352.832 41.0962 352.469 41.2353C352.106 41.3666 351.712 41.4323 351.287 41.4323ZM349.467 37.8624H353.129C353.106 37.5147 353.006 37.2095 352.828 36.9468C352.658 36.6763 352.438 36.4677 352.167 36.3209C351.905 36.1664 351.611 36.0891 351.287 36.0891C350.97 36.0891 350.676 36.1664 350.406 36.3209C350.143 36.4677 349.927 36.6763 349.757 36.9468C349.587 37.2095 349.49 37.5147 349.467 37.8624Z" fill="#7A1AF0"/>
<rect x="397.446" y="25.4863" width="96.5876" height="23.181" rx="11.5905" fill="#EBDFFD"/>
<path d="M437.871 34.2346H435.135V41.3164H433.826V34.2346H431.079V33.0871H437.871V34.2346ZM438.24 42.742C438.356 42.7575 438.468 42.7729 438.576 42.7884C438.692 42.8116 438.784 42.8232 438.854 42.8232C438.985 42.8232 439.097 42.7807 439.19 42.6957C439.291 42.6184 439.391 42.4716 439.491 42.2552C439.592 42.0389 439.716 41.7259 439.862 41.3164L437.37 35.2546H438.703L440.558 40.0183L442.204 35.2546H443.432L440.685 42.7189C440.6 42.9429 440.477 43.1477 440.314 43.3332C440.152 43.5263 439.951 43.677 439.712 43.7852C439.472 43.8934 439.19 43.9475 438.866 43.9475C438.773 43.9475 438.676 43.9397 438.576 43.9243C438.475 43.9088 438.363 43.8856 438.24 43.8547V42.742ZM447.812 41.4323C447.325 41.4323 446.896 41.3164 446.525 41.0846C446.155 40.8528 445.861 40.5514 445.645 40.1805V43.7852H444.37V35.2546H445.494V36.3441C445.726 35.9809 446.027 35.6911 446.398 35.4748C446.769 35.2584 447.182 35.1503 447.638 35.1503C448.055 35.1503 448.438 35.2352 448.786 35.4052C449.133 35.5675 449.435 35.7955 449.69 36.0891C449.945 36.3827 450.142 36.7188 450.281 37.0975C450.428 37.4684 450.501 37.8624 450.501 38.2797C450.501 38.8592 450.385 39.3885 450.153 39.8676C449.929 40.3467 449.612 40.7292 449.203 41.0151C448.801 41.2932 448.337 41.4323 447.812 41.4323ZM447.395 40.3428C447.665 40.3428 447.909 40.2849 448.125 40.1689C448.349 40.053 448.538 39.8985 448.693 39.7053C448.855 39.5121 448.979 39.2919 449.064 39.0447C449.149 38.7974 449.191 38.5424 449.191 38.2797C449.191 38.0015 449.145 37.7388 449.052 37.4915C448.959 37.2443 448.824 37.0279 448.646 36.8425C448.476 36.657 448.276 36.5102 448.044 36.402C447.82 36.2938 447.572 36.2398 447.302 36.2398C447.14 36.2398 446.97 36.2707 446.792 36.3325C446.614 36.3943 446.448 36.4793 446.294 36.5875C446.139 36.6957 446.004 36.8231 445.888 36.97C445.772 37.1168 445.691 37.2713 445.645 37.4336V39.0215C445.753 39.2687 445.896 39.4928 446.073 39.6937C446.251 39.8869 446.456 40.0453 446.688 40.1689C446.919 40.2849 447.155 40.3428 447.395 40.3428ZM454.395 41.4323C453.923 41.4323 453.494 41.3512 453.108 41.1889C452.729 41.0189 452.401 40.791 452.123 40.5051C451.845 40.2114 451.628 39.8792 451.474 39.5083C451.327 39.1297 451.254 38.7279 451.254 38.3029C451.254 37.7311 451.385 37.2095 451.648 36.7382C451.91 36.2591 452.277 35.8766 452.749 35.5907C453.22 35.2971 453.773 35.1503 454.406 35.1503C455.04 35.1503 455.585 35.2971 456.04 35.5907C456.504 35.8766 456.863 36.2552 457.118 36.7266C457.373 37.1979 457.501 37.704 457.501 38.2449C457.501 38.3376 457.497 38.4265 457.489 38.5115C457.481 38.5888 457.474 38.6545 457.466 38.7085H452.61C452.633 39.064 452.729 39.3769 452.899 39.6474C453.077 39.9101 453.301 40.1187 453.572 40.2733C453.842 40.4201 454.132 40.4935 454.441 40.4935C454.781 40.4935 455.102 40.4085 455.403 40.2385C455.712 40.0685 455.921 39.8444 456.029 39.5662L457.118 39.8792C456.987 40.1728 456.786 40.4394 456.516 40.6789C456.253 40.9107 455.94 41.0962 455.577 41.2353C455.214 41.3666 454.82 41.4323 454.395 41.4323ZM452.575 37.8624H456.237C456.214 37.5147 456.114 37.2095 455.936 36.9468C455.766 36.6763 455.546 36.4677 455.275 36.3209C455.013 36.1664 454.719 36.0891 454.395 36.0891C454.078 36.0891 453.784 36.1664 453.514 36.3209C453.251 36.4677 453.035 36.6763 452.865 36.9468C452.695 37.2095 452.598 37.5147 452.575 37.8624Z" fill="#7A1AF0"/>
<path d="M95.1525 69.9659H92.2201V77.4766H91.4088V69.9659H88.4764V69.2473H95.1525V69.9659ZM94.5363 75.738C94.5363 75.3594 94.6445 75.0348 94.8609 74.7644C95.0772 74.4862 95.3747 74.2737 95.7533 74.1269C96.1397 73.9724 96.584 73.8951 97.0862 73.8951C97.3799 73.8951 97.6851 73.9183 98.0019 73.9646C98.3187 74.011 98.6007 74.0805 98.848 74.1733V73.6633C98.848 73.1533 98.6973 72.7476 98.396 72.4463C98.0946 72.1449 97.6774 71.9942 97.1442 71.9942C96.8197 71.9942 96.499 72.0561 96.1822 72.1797C95.8731 72.2956 95.5486 72.4695 95.2086 72.7013L94.9072 72.1449C95.3013 71.8745 95.6877 71.6736 96.0663 71.5422C96.4449 71.4031 96.8313 71.3336 97.2253 71.3336C97.9671 71.3336 98.5544 71.5461 98.9871 71.9711C99.4198 72.3961 99.6362 72.9833 99.6362 73.7328V76.5261C99.6362 76.6343 99.6593 76.7155 99.7057 76.7695C99.7521 76.8159 99.8255 76.8429 99.9259 76.8507V77.4766C99.8409 77.4843 99.7675 77.492 99.7057 77.4997C99.6439 77.5075 99.5975 77.5075 99.5666 77.4997C99.3734 77.492 99.2266 77.4302 99.1262 77.3143C99.0257 77.1984 98.9716 77.0748 98.9639 76.9434L98.9523 76.503C98.6819 76.8507 98.3303 77.1211 97.8976 77.3143C97.4649 77.4997 97.0244 77.5925 96.5763 77.5925C96.1899 77.5925 95.8383 77.5113 95.5215 77.3491C95.2124 77.1791 94.969 76.955 94.7913 76.6768C94.6213 76.3909 94.5363 76.078 94.5363 75.738ZM98.5814 76.2016C98.6664 76.0934 98.7321 75.9891 98.7785 75.8887C98.8248 75.7882 98.848 75.6994 98.848 75.6221V74.7412C98.5853 74.6407 98.311 74.5635 98.0251 74.5094C97.7469 74.4553 97.4649 74.4283 97.179 74.4283C96.6149 74.4283 96.159 74.5403 95.8113 74.7644C95.4636 74.9885 95.2897 75.2937 95.2897 75.68C95.2897 75.9041 95.3477 76.1166 95.4636 76.3175C95.5795 76.5107 95.7495 76.673 95.9736 76.8043C96.1976 76.9279 96.4604 76.9898 96.7617 76.9898C97.1403 76.9898 97.4919 76.9164 97.8165 76.7695C98.1487 76.6227 98.4037 76.4334 98.5814 76.2016ZM106.416 77.4766H105.628V74.1037C105.628 73.3928 105.523 72.8751 105.315 72.5506C105.106 72.2183 104.778 72.0522 104.329 72.0522C104.02 72.0522 103.715 72.1295 103.414 72.284C103.112 72.4308 102.846 72.6356 102.614 72.8983C102.39 73.1533 102.228 73.4469 102.127 73.7792V77.4766H101.339V71.4379H102.058V72.8056C102.22 72.512 102.432 72.257 102.695 72.0406C102.958 71.8165 103.255 71.6427 103.588 71.519C103.92 71.3954 104.264 71.3336 104.619 71.3336C104.951 71.3336 105.233 71.3954 105.465 71.519C105.697 71.6427 105.883 71.8204 106.022 72.0522C106.161 72.2763 106.261 72.5506 106.323 72.8751C106.385 73.1919 106.416 73.5474 106.416 73.9415V77.4766ZM108.038 74.9846V71.4379H108.827V74.8455C108.827 75.5332 108.943 76.0471 109.174 76.3871C109.414 76.727 109.765 76.897 110.229 76.897C110.538 76.897 110.836 76.8314 111.122 76.7C111.415 76.5609 111.674 76.3677 111.898 76.1205C112.122 75.8655 112.292 75.5719 112.408 75.2396V71.4379H113.196V76.5261C113.196 76.6343 113.219 76.7155 113.266 76.7695C113.312 76.8159 113.382 76.8429 113.474 76.8507V77.4766C113.382 77.4843 113.308 77.4882 113.254 77.4882C113.2 77.4959 113.15 77.4997 113.104 77.4997C112.949 77.4843 112.814 77.4225 112.698 77.3143C112.59 77.2061 112.532 77.0748 112.524 76.9202L112.501 76.1089C112.238 76.5725 111.879 76.9357 111.423 77.1984C110.975 77.4611 110.488 77.5925 109.962 77.5925C109.329 77.5925 108.85 77.3722 108.525 76.9318C108.201 76.4914 108.038 75.8423 108.038 74.9846ZM114.074 79.5744C113.819 79.5744 113.58 79.5397 113.356 79.4701C113.124 79.4006 112.923 79.2847 112.753 79.1224L113.135 78.5893C113.251 78.6974 113.387 78.7708 113.541 78.8095C113.688 78.8481 113.835 78.8674 113.982 78.8674C114.167 78.8674 114.341 78.8211 114.503 78.7283C114.665 78.6356 114.797 78.5043 114.897 78.3343C115.005 78.172 115.059 77.9904 115.059 77.7895V71.4379H115.848V77.7431C115.848 78.0986 115.763 78.4154 115.593 78.6936C115.423 78.9717 115.202 79.1881 114.932 79.3426C114.661 79.4972 114.376 79.5744 114.074 79.5744ZM115.059 70.1745V69.0155H115.848V70.1745H115.059Z" fill="black"/>
<path d="M210.624 76.758V77.4766H206.695V76.758H208.341V71.7972C208.279 71.8899 208.175 71.9904 208.028 72.0986C207.881 72.2067 207.711 72.3072 207.518 72.3999C207.333 72.4926 207.147 72.5699 206.962 72.6317C206.776 72.6935 206.606 72.7245 206.452 72.7245V71.9595C206.63 71.9595 206.823 71.9093 207.031 71.8088C207.24 71.7083 207.441 71.5924 207.634 71.4611C207.827 71.3297 207.989 71.2061 208.121 71.0902C208.252 70.9743 208.326 70.897 208.341 70.8584H209.152V76.758H210.624Z" fill="black"/>
<path d="M329.759 71.4495H325.32V70.7193H331.011L326.85 78.9486H325.946L329.759 71.4495ZM335.104 74.7412C335.452 74.7953 335.749 74.9189 335.996 75.1121C336.244 75.3053 336.437 75.5487 336.576 75.8423C336.715 76.1359 336.785 76.4682 336.785 76.8391C336.785 77.3027 336.673 77.7122 336.448 78.0677C336.224 78.4231 335.911 78.6974 335.51 78.8906C335.108 79.0838 334.64 79.1804 334.107 79.1804C333.52 79.1804 333.006 79.0606 332.566 78.8211C332.125 78.5893 331.793 78.2647 331.569 77.8475L332.114 77.3491C332.284 77.6813 332.535 77.9479 332.867 78.1488C333.199 78.3574 333.613 78.4618 334.107 78.4618C334.679 78.4618 335.131 78.3188 335.463 78.0329C335.803 77.7547 335.973 77.3529 335.973 76.8275C335.973 76.3021 335.796 75.8848 335.44 75.5757C335.092 75.2589 334.594 75.1005 333.945 75.1005H333.655V74.4283H333.968C334.563 74.4283 335.019 74.2892 335.336 74.011C335.653 73.7328 335.811 73.3774 335.811 72.9447C335.811 72.6279 335.738 72.3651 335.591 72.1565C335.444 71.9479 335.243 71.7895 334.988 71.6813C334.741 71.5731 334.455 71.519 334.13 71.519C333.69 71.519 333.3 71.6195 332.96 71.8204C332.627 72.0136 332.376 72.284 332.206 72.6317L331.696 72.1449C331.828 71.8745 332.017 71.6388 332.264 71.4379C332.512 71.237 332.801 71.0825 333.134 70.9743C333.466 70.8584 333.821 70.8004 334.2 70.8004C334.679 70.8004 335.1 70.8893 335.463 71.067C335.826 71.237 336.112 71.4765 336.321 71.7856C336.53 72.0947 336.634 72.4579 336.634 72.8751C336.634 73.1842 336.572 73.4701 336.448 73.7328C336.325 73.9955 336.147 74.2158 335.915 74.3935C335.691 74.5712 335.421 74.6871 335.104 74.7412ZM338.073 77.4766V76.3407H338.757V77.4766H338.073ZM345.972 74.0805C345.972 74.7605 345.844 75.3671 345.589 75.9003C345.342 76.4257 344.998 76.8391 344.558 77.1404C344.117 77.4418 343.619 77.5925 343.062 77.5925C342.506 77.5925 342.008 77.4418 341.567 77.1404C341.135 76.8391 340.791 76.4257 340.536 75.9003C340.281 75.3671 340.153 74.7605 340.153 74.0805C340.153 73.4006 340.281 72.7979 340.536 72.2724C340.791 71.7393 341.135 71.322 341.567 71.0206C342.008 70.7116 342.506 70.557 343.062 70.557C343.619 70.557 344.117 70.7116 344.558 71.0206C344.998 71.322 345.342 71.7393 345.589 72.2724C345.844 72.7979 345.972 73.4006 345.972 74.0805ZM345.172 74.0805C345.172 73.5319 345.083 73.049 344.905 72.6317C344.728 72.2145 344.48 71.8899 344.164 71.6581C343.847 71.4186 343.48 71.2988 343.062 71.2988C342.645 71.2988 342.278 71.4186 341.961 71.6581C341.644 71.8899 341.393 72.2145 341.208 72.6317C341.03 73.049 340.941 73.5319 340.941 74.0805C340.941 74.6292 341.03 75.1121 341.208 75.5294C341.393 75.9466 341.644 76.2711 341.961 76.503C342.278 76.7348 342.645 76.8507 343.062 76.8507C343.48 76.8507 343.847 76.7348 344.164 76.503C344.48 76.2634 344.728 75.9389 344.905 75.5294C345.083 75.1121 345.172 74.6292 345.172 74.0805ZM353.069 74.0805C353.069 74.7605 352.941 75.3671 352.686 75.9003C352.439 76.4257 352.095 76.8391 351.655 77.1404C351.214 77.4418 350.716 77.5925 350.159 77.5925C349.603 77.5925 349.105 77.4418 348.664 77.1404C348.231 76.8391 347.888 76.4257 347.633 75.9003C347.378 75.3671 347.25 74.7605 347.25 74.0805C347.25 73.4006 347.378 72.7979 347.633 72.2724C347.888 71.7393 348.231 71.322 348.664 71.0206C349.105 70.7116 349.603 70.557 350.159 70.557C350.716 70.557 351.214 70.7116 351.655 71.0206C352.095 71.322 352.439 71.7393 352.686 72.2724C352.941 72.7979 353.069 73.4006 353.069 74.0805ZM352.269 74.0805C352.269 73.5319 352.18 73.049 352.002 72.6317C351.825 72.2145 351.577 71.8899 351.26 71.6581C350.944 71.4186 350.577 71.2988 350.159 71.2988C349.742 71.2988 349.375 71.4186 349.058 71.6581C348.741 71.8899 348.49 72.2145 348.305 72.6317C348.127 73.049 348.038 73.5319 348.038 74.0805C348.038 74.6292 348.127 75.1121 348.305 75.5294C348.49 75.9466 348.741 76.2711 349.058 76.503C349.375 76.7348 349.742 76.8507 350.159 76.8507C350.577 76.8507 350.944 76.7348 351.26 76.503C351.577 76.2634 351.825 75.9389 352.002 75.5294C352.18 75.1121 352.269 74.6292 352.269 74.0805Z" fill="black"/>
<path d="M435.539 69.9659H432.607V77.4766H431.796V69.9659H428.863V69.2473H435.539V69.9659ZM436.018 79.331C436.126 79.3388 436.231 79.3426 436.331 79.3426C436.431 79.3504 436.505 79.3465 436.551 79.331C436.644 79.3156 436.733 79.2615 436.818 79.1688C436.903 79.0761 437.003 78.8983 437.119 78.6356C437.235 78.3729 437.397 77.9865 437.606 77.4766L434.975 71.4379H435.809L438.023 76.6652L440.063 71.4379H440.851L437.722 79.2267C437.668 79.3735 437.587 79.5088 437.478 79.6324C437.37 79.7638 437.235 79.8642 437.073 79.9338C436.918 80.011 436.725 80.0535 436.493 80.0612C436.424 80.069 436.35 80.069 436.273 80.0612C436.203 80.0612 436.118 80.0535 436.018 80.0381V79.331ZM445.035 77.5925C444.533 77.5925 444.081 77.4611 443.679 77.1984C443.285 76.9357 442.972 76.6111 442.74 76.2248V79.9453H441.952V71.4379H442.659V72.6085C442.899 72.2299 443.22 71.9247 443.621 71.6929C444.023 71.4534 444.452 71.3336 444.908 71.3336C445.325 71.3336 445.708 71.4225 446.055 71.6002C446.403 71.7702 446.704 72.002 446.959 72.2956C447.214 72.5892 447.411 72.9254 447.55 73.304C447.697 73.6749 447.771 74.0612 447.771 74.463C447.771 75.0271 447.655 75.5487 447.423 76.0277C447.199 76.4991 446.882 76.8777 446.473 77.1636C446.063 77.4495 445.584 77.5925 445.035 77.5925ZM444.815 76.897C445.147 76.897 445.445 76.8314 445.708 76.7C445.97 76.5609 446.194 76.3755 446.38 76.1437C446.573 75.9118 446.72 75.653 446.82 75.3671C446.921 75.0735 446.971 74.7721 446.971 74.463C446.971 74.1385 446.913 73.8294 446.797 73.5358C446.689 73.2422 446.531 72.9833 446.322 72.7592C446.113 72.5351 445.874 72.3574 445.603 72.2261C445.333 72.0947 445.039 72.029 444.722 72.029C444.522 72.029 444.313 72.0677 444.097 72.1449C443.88 72.2222 443.672 72.3342 443.471 72.4811C443.277 72.6201 443.115 72.7785 442.984 72.9563C442.852 73.134 442.771 73.3233 442.74 73.5242V75.3787C442.864 75.6646 443.03 75.9234 443.239 76.1552C443.447 76.3793 443.687 76.5609 443.957 76.7C444.236 76.8314 444.522 76.897 444.815 76.897ZM451.714 77.5925C451.281 77.5925 450.879 77.5113 450.508 77.3491C450.137 77.1791 449.817 76.9511 449.546 76.6652C449.276 76.3716 449.063 76.0355 448.909 75.6569C448.762 75.2782 448.689 74.8726 448.689 74.4398C448.689 73.8758 448.816 73.3581 449.071 72.8867C449.334 72.4154 449.693 72.0406 450.149 71.7624C450.605 71.4765 451.123 71.3336 451.702 71.3336C452.297 71.3336 452.815 71.4765 453.255 71.7624C453.703 72.0483 454.055 72.427 454.31 72.8983C454.565 73.3619 454.692 73.8719 454.692 74.4283C454.692 74.4901 454.692 74.5519 454.692 74.6137C454.692 74.6678 454.689 74.7103 454.681 74.7412H449.511C449.55 75.1739 449.67 75.5603 449.871 75.9003C450.079 76.2325 450.346 76.4991 450.671 76.7C451.003 76.8932 451.362 76.9898 451.748 76.9898C452.143 76.9898 452.513 76.8893 452.861 76.6884C453.217 76.4875 453.464 76.2248 453.603 75.9003L454.287 76.0857C454.163 76.3716 453.974 76.6305 453.719 76.8623C453.464 77.0941 453.162 77.2757 452.815 77.407C452.475 77.5307 452.108 77.5925 451.714 77.5925ZM449.488 74.1733H453.951C453.92 73.7328 453.8 73.3465 453.591 73.0142C453.39 72.682 453.124 72.4231 452.792 72.2376C452.467 72.0445 452.108 71.9479 451.714 71.9479C451.32 71.9479 450.96 72.0445 450.636 72.2376C450.311 72.4231 450.045 72.6858 449.836 73.0258C449.635 73.3581 449.519 73.7406 449.488 74.1733ZM462.827 71.4495H458.387V70.7193H464.078L459.917 78.9486H459.013L462.827 71.4495Z" fill="black"/>
<path d="M89.3473 117.549V109.32H92.1407C93.0138 109.32 93.7401 109.505 94.3197 109.876C94.9069 110.239 95.3474 110.734 95.641 111.359C95.9346 111.978 96.0814 112.665 96.0814 113.423C96.0814 114.257 95.9192 114.983 95.5946 115.602C95.2778 116.22 94.8219 116.699 94.227 117.039C93.6397 117.379 92.9443 117.549 92.1407 117.549H89.3473ZM95.2701 113.423C95.2701 112.766 95.1465 112.182 94.8992 111.672C94.6597 111.162 94.3081 110.765 93.8445 110.479C93.3808 110.185 92.8129 110.038 92.1407 110.038H90.1587V116.83H92.1407C92.8206 116.83 93.3924 116.68 93.8561 116.378C94.3197 116.077 94.6713 115.671 94.9108 115.161C95.1503 114.643 95.2701 114.064 95.2701 113.423ZM100.078 117.665C99.6456 117.665 99.2438 117.584 98.8729 117.421C98.502 117.251 98.1814 117.023 97.9109 116.737C97.6405 116.444 97.428 116.108 97.2734 115.729C97.1266 115.35 97.0532 114.945 97.0532 114.512C97.0532 113.948 97.1807 113.43 97.4357 112.959C97.6984 112.488 98.0577 112.113 98.5136 111.835C98.9695 111.549 99.4872 111.406 100.067 111.406C100.662 111.406 101.179 111.549 101.62 111.835C102.068 112.121 102.42 112.499 102.675 112.971C102.93 113.434 103.057 113.944 103.057 114.501C103.057 114.562 103.057 114.624 103.057 114.686C103.057 114.74 103.053 114.783 103.046 114.813H97.8762C97.9148 115.246 98.0346 115.633 98.2355 115.973C98.4441 116.305 98.7107 116.571 99.0352 116.772C99.3675 116.965 99.7268 117.062 100.113 117.062C100.507 117.062 100.878 116.962 101.226 116.761C101.581 116.56 101.829 116.297 101.968 115.973L102.651 116.158C102.528 116.444 102.339 116.703 102.084 116.935C101.829 117.166 101.527 117.348 101.179 117.479C100.839 117.603 100.472 117.665 100.078 117.665ZM97.853 114.246H102.315C102.284 113.805 102.165 113.419 101.956 113.086C101.755 112.754 101.489 112.495 101.156 112.31C100.832 112.117 100.472 112.02 100.078 112.02C99.6843 112.02 99.325 112.117 99.0004 112.31C98.6759 112.495 98.4093 112.758 98.2007 113.098C97.9998 113.43 97.8839 113.813 97.853 114.246ZM106.881 117.665C106.448 117.665 106.046 117.584 105.676 117.421C105.305 117.251 104.984 117.023 104.714 116.737C104.443 116.444 104.231 116.108 104.076 115.729C103.929 115.35 103.856 114.945 103.856 114.512C103.856 113.948 103.983 113.43 104.238 112.959C104.501 112.488 104.86 112.113 105.316 111.835C105.772 111.549 106.29 111.406 106.869 111.406C107.464 111.406 107.982 111.549 108.423 111.835C108.871 112.121 109.222 112.499 109.477 112.971C109.732 113.434 109.86 113.944 109.86 114.501C109.86 114.562 109.86 114.624 109.86 114.686C109.86 114.74 109.856 114.783 109.848 114.813H104.679C104.717 115.246 104.837 115.633 105.038 115.973C105.247 116.305 105.513 116.571 105.838 116.772C106.17 116.965 106.529 117.062 106.916 117.062C107.31 117.062 107.681 116.962 108.028 116.761C108.384 116.56 108.631 116.297 108.77 115.973L109.454 116.158C109.33 116.444 109.141 116.703 108.886 116.935C108.631 117.166 108.33 117.348 107.982 117.479C107.642 117.603 107.275 117.665 106.881 117.665ZM104.656 114.246H109.118C109.087 113.805 108.967 113.419 108.759 113.086C108.558 112.754 108.291 112.495 107.959 112.31C107.634 112.117 107.275 112.02 106.881 112.02C106.487 112.02 106.128 112.117 105.803 112.31C105.479 112.495 105.212 112.758 105.003 113.098C104.802 113.43 104.687 113.813 104.656 114.246ZM114.159 117.665C113.657 117.665 113.205 117.533 112.803 117.271C112.409 117.008 112.096 116.683 111.864 116.297V120.018H111.076V111.51H111.783V112.681C112.022 112.302 112.343 111.997 112.745 111.765C113.147 111.526 113.575 111.406 114.031 111.406C114.449 111.406 114.831 111.495 115.179 111.672C115.527 111.842 115.828 112.074 116.083 112.368C116.338 112.661 116.535 112.998 116.674 113.376C116.821 113.747 116.894 114.133 116.894 114.535C116.894 115.099 116.778 115.621 116.546 116.1C116.322 116.571 116.006 116.95 115.596 117.236C115.187 117.522 114.707 117.665 114.159 117.665ZM113.939 116.969C114.271 116.969 114.568 116.904 114.831 116.772C115.094 116.633 115.318 116.448 115.503 116.216C115.697 115.984 115.843 115.725 115.944 115.439C116.044 115.146 116.094 114.844 116.094 114.535C116.094 114.211 116.036 113.902 115.921 113.608C115.812 113.314 115.654 113.056 115.445 112.831C115.237 112.607 114.997 112.43 114.727 112.298C114.456 112.167 114.163 112.101 113.846 112.101C113.645 112.101 113.436 112.14 113.22 112.217C113.004 112.294 112.795 112.407 112.594 112.553C112.401 112.692 112.239 112.851 112.107 113.029C111.976 113.206 111.895 113.396 111.864 113.596V115.451C111.988 115.737 112.154 115.996 112.362 116.228C112.571 116.452 112.81 116.633 113.081 116.772C113.359 116.904 113.645 116.969 113.939 116.969ZM121.036 117.259C120.975 117.282 120.878 117.325 120.747 117.387C120.615 117.448 120.457 117.502 120.271 117.549C120.086 117.595 119.885 117.618 119.669 117.618C119.445 117.618 119.232 117.576 119.031 117.491C118.838 117.406 118.683 117.278 118.568 117.108C118.452 116.931 118.394 116.714 118.394 116.459V112.136H117.559V111.51H118.394V109.47H119.182V111.51H120.573V112.136H119.182V116.239C119.197 116.455 119.275 116.618 119.414 116.726C119.56 116.834 119.727 116.888 119.912 116.888C120.128 116.888 120.325 116.853 120.503 116.784C120.681 116.707 120.789 116.652 120.828 116.622L121.036 117.259ZM122.021 117.549V111.51H122.809V117.549H122.021ZM122.021 110.247V109.088H122.809V110.247H122.021Z" fill="black"/>
<path d="M205.772 117.549C205.772 117.286 205.795 117.023 205.842 116.761C205.888 116.49 205.977 116.224 206.108 115.961C206.24 115.698 206.433 115.447 206.688 115.208C206.943 114.96 207.279 114.728 207.696 114.512C207.92 114.396 208.152 114.284 208.392 114.176C208.631 114.06 208.855 113.936 209.064 113.805C209.28 113.666 209.45 113.511 209.574 113.341C209.705 113.164 209.771 112.955 209.771 112.716C209.771 112.522 209.713 112.333 209.597 112.148C209.489 111.962 209.319 111.812 209.087 111.696C208.863 111.58 208.581 111.522 208.241 111.522C207.994 111.522 207.77 111.557 207.569 111.626C207.368 111.696 207.19 111.784 207.036 111.893C206.881 111.993 206.75 112.097 206.642 112.206C206.533 112.306 206.445 112.391 206.375 112.461L205.877 111.916C205.915 111.869 206 111.788 206.132 111.672C206.271 111.549 206.445 111.421 206.653 111.29C206.87 111.159 207.121 111.047 207.407 110.954C207.7 110.861 208.021 110.815 208.369 110.815C208.84 110.815 209.242 110.9 209.574 111.07C209.914 111.232 210.173 111.452 210.351 111.73C210.528 112.009 210.617 112.31 210.617 112.634C210.617 112.951 210.548 113.226 210.408 113.457C210.277 113.681 210.103 113.878 209.887 114.048C209.678 114.211 209.458 114.354 209.226 114.477C209.002 114.593 208.797 114.694 208.612 114.779C208.249 114.949 207.944 115.119 207.696 115.289C207.449 115.459 207.252 115.633 207.105 115.81C206.958 115.98 206.842 116.15 206.757 116.32C206.68 116.483 206.626 116.652 206.595 116.83H210.745V117.549H205.772Z" fill="black"/>
<path d="M330.989 111.522H326.55V110.792H332.241L328.08 119.021H327.176L330.989 111.522ZM337.064 116.83V117.549H333.135V116.83H334.781V111.869C334.719 111.962 334.615 112.063 334.468 112.171C334.321 112.279 334.151 112.379 333.958 112.472C333.772 112.565 333.587 112.642 333.401 112.704C333.216 112.766 333.046 112.797 332.892 112.797V112.032C333.069 112.032 333.262 111.982 333.471 111.881C333.68 111.781 333.881 111.665 334.074 111.533C334.267 111.402 334.429 111.278 334.561 111.162C334.692 111.047 334.765 110.969 334.781 110.931H335.592V116.83H337.064ZM338.069 117.549V116.413H338.753V117.549H338.069ZM345.968 114.153C345.968 114.833 345.84 115.439 345.585 115.973C345.338 116.498 344.994 116.911 344.554 117.213C344.113 117.514 343.615 117.665 343.059 117.665C342.502 117.665 342.004 117.514 341.563 117.213C341.131 116.911 340.787 116.498 340.532 115.973C340.277 115.439 340.149 114.833 340.149 114.153C340.149 113.473 340.277 112.87 340.532 112.345C340.787 111.812 341.131 111.394 341.563 111.093C342.004 110.784 342.502 110.629 343.059 110.629C343.615 110.629 344.113 110.784 344.554 111.093C344.994 111.394 345.338 111.812 345.585 112.345C345.84 112.87 345.968 113.473 345.968 114.153ZM345.168 114.153C345.168 113.604 345.079 113.121 344.901 112.704C344.724 112.287 344.476 111.962 344.16 111.73C343.843 111.491 343.476 111.371 343.059 111.371C342.641 111.371 342.274 111.491 341.957 111.73C341.641 111.962 341.39 112.287 341.204 112.704C341.026 113.121 340.937 113.604 340.937 114.153C340.937 114.701 341.026 115.184 341.204 115.602C341.39 116.019 341.641 116.343 341.957 116.575C342.274 116.807 342.641 116.923 343.059 116.923C343.476 116.923 343.843 116.807 344.16 116.575C344.476 116.336 344.724 116.011 344.901 115.602C345.079 115.184 345.168 114.701 345.168 114.153ZM353.065 114.153C353.065 114.833 352.937 115.439 352.682 115.973C352.435 116.498 352.091 116.911 351.651 117.213C351.21 117.514 350.712 117.665 350.155 117.665C349.599 117.665 349.101 117.514 348.66 117.213C348.228 116.911 347.884 116.498 347.629 115.973C347.374 115.439 347.246 114.833 347.246 114.153C347.246 113.473 347.374 112.87 347.629 112.345C347.884 111.812 348.228 111.394 348.66 111.093C349.101 110.784 349.599 110.629 350.155 110.629C350.712 110.629 351.21 110.784 351.651 111.093C352.091 111.394 352.435 111.812 352.682 112.345C352.937 112.87 353.065 113.473 353.065 114.153ZM352.265 114.153C352.265 113.604 352.176 113.121 351.998 112.704C351.821 112.287 351.573 111.962 351.257 111.73C350.94 111.491 350.573 111.371 350.155 111.371C349.738 111.371 349.371 111.491 349.054 111.73C348.738 111.962 348.486 112.287 348.301 112.704C348.123 113.121 348.034 113.604 348.034 114.153C348.034 114.701 348.123 115.184 348.301 115.602C348.486 116.019 348.738 116.343 349.054 116.575C349.371 116.807 349.738 116.923 350.155 116.923C350.573 116.923 350.94 116.807 351.257 116.575C351.573 116.336 351.821 116.011 351.998 115.602C352.176 115.184 352.265 114.701 352.265 114.153Z" fill="black"/>
<path d="M435.619 110.038H432.686V117.549H431.875V110.038H428.942V109.32H435.619V110.038ZM436.097 119.403C436.205 119.411 436.31 119.415 436.41 119.415C436.511 119.423 436.584 119.419 436.63 119.403C436.723 119.388 436.812 119.334 436.897 119.241C436.982 119.148 437.082 118.971 437.198 118.708C437.314 118.445 437.477 118.059 437.685 117.549L435.054 111.51H435.889L438.102 116.737L440.142 111.51H440.931L437.801 119.299C437.747 119.446 437.666 119.581 437.558 119.705C437.449 119.836 437.314 119.936 437.152 120.006C436.997 120.083 436.804 120.126 436.572 120.134C436.503 120.141 436.43 120.141 436.352 120.134C436.283 120.134 436.198 120.126 436.097 120.11V119.403ZM445.115 117.665C444.612 117.665 444.16 117.533 443.758 117.271C443.364 117.008 443.051 116.683 442.82 116.297V120.018H442.032V111.51H442.739V112.681C442.978 112.302 443.299 111.997 443.701 111.765C444.102 111.526 444.531 111.406 444.987 111.406C445.404 111.406 445.787 111.495 446.135 111.672C446.482 111.842 446.784 112.074 447.039 112.368C447.294 112.661 447.491 112.998 447.63 113.376C447.777 113.747 447.85 114.133 447.85 114.535C447.85 115.099 447.734 115.621 447.502 116.1C447.278 116.571 446.961 116.95 446.552 117.236C446.142 117.522 445.663 117.665 445.115 117.665ZM444.894 116.969C445.227 116.969 445.524 116.904 445.787 116.772C446.05 116.633 446.274 116.448 446.459 116.216C446.652 115.984 446.799 115.725 446.9 115.439C447 115.146 447.05 114.844 447.05 114.535C447.05 114.211 446.992 113.902 446.876 113.608C446.768 113.314 446.61 113.056 446.401 112.831C446.193 112.607 445.953 112.43 445.683 112.298C445.412 112.167 445.118 112.101 444.802 112.101C444.601 112.101 444.392 112.14 444.176 112.217C443.959 112.294 443.751 112.407 443.55 112.553C443.357 112.692 443.194 112.851 443.063 113.029C442.932 113.206 442.851 113.396 442.82 113.596V115.451C442.943 115.737 443.109 115.996 443.318 116.228C443.527 116.452 443.766 116.633 444.037 116.772C444.315 116.904 444.601 116.969 444.894 116.969ZM451.793 117.665C451.36 117.665 450.958 117.584 450.587 117.421C450.217 117.251 449.896 117.023 449.625 116.737C449.355 116.444 449.143 116.108 448.988 115.729C448.841 115.35 448.768 114.945 448.768 114.512C448.768 113.948 448.895 113.43 449.15 112.959C449.413 112.488 449.772 112.113 450.228 111.835C450.684 111.549 451.202 111.406 451.781 111.406C452.376 111.406 452.894 111.549 453.334 111.835C453.783 112.121 454.134 112.499 454.389 112.971C454.644 113.434 454.772 113.944 454.772 114.501C454.772 114.562 454.772 114.624 454.772 114.686C454.772 114.74 454.768 114.783 454.76 114.813H449.591C449.629 115.246 449.749 115.633 449.95 115.973C450.159 116.305 450.425 116.571 450.75 116.772C451.082 116.965 451.441 117.062 451.828 117.062C452.222 117.062 452.593 116.962 452.94 116.761C453.296 116.56 453.543 116.297 453.682 115.973L454.366 116.158C454.242 116.444 454.053 116.703 453.798 116.935C453.543 117.166 453.242 117.348 452.894 117.479C452.554 117.603 452.187 117.665 451.793 117.665ZM449.568 114.246H454.03C453.999 113.805 453.879 113.419 453.671 113.086C453.47 112.754 453.203 112.495 452.871 112.31C452.546 112.117 452.187 112.02 451.793 112.02C451.399 112.02 451.04 112.117 450.715 112.31C450.39 112.495 450.124 112.758 449.915 113.098C449.714 113.43 449.598 113.813 449.568 114.246ZM458.583 117.549C458.583 117.286 458.606 117.023 458.652 116.761C458.698 116.49 458.787 116.224 458.919 115.961C459.05 115.698 459.243 115.447 459.498 115.208C459.753 114.96 460.089 114.728 460.507 114.512C460.731 114.396 460.963 114.284 461.202 114.176C461.442 114.06 461.666 113.936 461.874 113.805C462.091 113.666 462.261 113.511 462.384 113.341C462.516 113.164 462.581 112.955 462.581 112.716C462.581 112.522 462.523 112.333 462.407 112.148C462.299 111.962 462.129 111.812 461.897 111.696C461.673 111.58 461.391 111.522 461.051 111.522C460.804 111.522 460.58 111.557 460.379 111.626C460.178 111.696 460 111.784 459.846 111.893C459.691 111.993 459.56 112.097 459.452 112.206C459.344 112.306 459.255 112.391 459.185 112.461L458.687 111.916C458.726 111.869 458.811 111.788 458.942 111.672C459.081 111.549 459.255 111.421 459.463 111.29C459.68 111.159 459.931 111.047 460.217 110.954C460.51 110.861 460.831 110.815 461.179 110.815C461.65 110.815 462.052 110.9 462.384 111.07C462.724 111.232 462.983 111.452 463.161 111.73C463.339 112.009 463.427 112.31 463.427 112.634C463.427 112.951 463.358 113.226 463.219 113.457C463.087 113.681 462.914 113.878 462.697 114.048C462.489 114.211 462.268 114.354 462.037 114.477C461.812 114.593 461.608 114.694 461.422 114.779C461.059 114.949 460.754 115.119 460.507 115.289C460.259 115.459 460.062 115.633 459.915 115.81C459.769 115.98 459.653 116.15 459.568 116.32C459.491 116.483 459.436 116.652 459.406 116.83H463.555V117.549H458.583Z" fill="black"/>
<path d="M95.6085 149.392V157.621H94.8087V153.773H89.9291V157.621H89.1178V149.392H89.9291V153.054H94.8087V149.392H95.6085ZM100.03 157.737C99.5972 157.737 99.1954 157.656 98.8245 157.494C98.4536 157.324 98.1329 157.096 97.8625 156.81C97.592 156.516 97.3795 156.18 97.225 155.801C97.0782 155.423 97.0048 155.017 97.0048 154.584C97.0048 154.02 97.1323 153.503 97.3872 153.031C97.65 152.56 98.0093 152.185 98.4652 151.907C98.9211 151.621 99.4388 151.478 100.018 151.478C100.613 151.478 101.131 151.621 101.571 151.907C102.02 152.193 102.371 152.571 102.626 153.043C102.881 153.506 103.009 154.016 103.009 154.573C103.009 154.635 103.009 154.696 103.009 154.758C103.009 154.812 103.005 154.855 102.997 154.886H97.8277C97.8663 155.318 97.9861 155.705 98.187 156.045C98.3956 156.377 98.6622 156.644 98.9867 156.845C99.319 157.038 99.6783 157.134 100.065 157.134C100.459 157.134 100.83 157.034 101.177 156.833C101.533 156.632 101.78 156.369 101.919 156.045L102.603 156.23C102.479 156.516 102.29 156.775 102.035 157.007C101.78 157.239 101.479 157.42 101.131 157.552C100.791 157.675 100.424 157.737 100.03 157.737ZM97.8045 154.318H102.267C102.236 153.877 102.116 153.491 101.908 153.159C101.707 152.826 101.44 152.568 101.108 152.382C100.783 152.189 100.424 152.092 100.03 152.092C99.6358 152.092 99.2765 152.189 98.952 152.382C98.6274 152.568 98.3609 152.83 98.1522 153.17C97.9513 153.503 97.8354 153.885 97.8045 154.318ZM113.207 157.621H112.419V154.248C112.419 153.545 112.307 153.027 112.083 152.695C111.859 152.363 111.527 152.197 111.086 152.197C110.63 152.197 110.221 152.359 109.858 152.684C109.502 153.008 109.251 153.425 109.104 153.935V157.621H108.316V154.248C108.316 153.537 108.208 153.02 107.992 152.695C107.775 152.363 107.443 152.197 106.995 152.197C106.547 152.197 106.141 152.355 105.778 152.672C105.415 152.989 105.16 153.406 105.013 153.924V157.621H104.225V151.582H104.943V152.95C105.198 152.479 105.523 152.116 105.917 151.861C106.319 151.606 106.763 151.478 107.25 151.478C107.752 151.478 108.158 151.621 108.467 151.907C108.776 152.193 108.965 152.568 109.035 153.031C109.313 152.521 109.645 152.135 110.032 151.872C110.426 151.609 110.87 151.478 111.364 151.478C111.704 151.478 111.99 151.54 112.222 151.664C112.462 151.787 112.651 151.965 112.79 152.197C112.937 152.421 113.041 152.695 113.103 153.02C113.173 153.336 113.207 153.692 113.207 154.086V157.621ZM114.389 155.883C114.389 155.504 114.497 155.179 114.713 154.909C114.93 154.631 115.227 154.418 115.606 154.271C115.992 154.117 116.437 154.04 116.939 154.04C117.232 154.04 117.538 154.063 117.854 154.109C118.171 154.156 118.453 154.225 118.701 154.318V153.808C118.701 153.298 118.55 152.892 118.249 152.591C117.947 152.289 117.53 152.139 116.997 152.139C116.672 152.139 116.352 152.201 116.035 152.324C115.726 152.44 115.401 152.614 115.061 152.846L114.76 152.289C115.154 152.019 115.54 151.818 115.919 151.687C116.297 151.548 116.684 151.478 117.078 151.478C117.82 151.478 118.407 151.691 118.84 152.116C119.272 152.541 119.489 153.128 119.489 153.877V156.671C119.489 156.779 119.512 156.86 119.558 156.914C119.605 156.96 119.678 156.987 119.778 156.995V157.621C119.693 157.629 119.62 157.637 119.558 157.644C119.496 157.652 119.45 157.652 119.419 157.644C119.226 157.637 119.079 157.575 118.979 157.459C118.878 157.343 118.824 157.219 118.816 157.088L118.805 156.647C118.534 156.995 118.183 157.266 117.75 157.459C117.317 157.644 116.877 157.737 116.429 157.737C116.042 157.737 115.691 157.656 115.374 157.494C115.065 157.324 114.822 157.1 114.644 156.821C114.474 156.535 114.389 156.223 114.389 155.883ZM118.434 156.346C118.519 156.238 118.585 156.134 118.631 156.033C118.677 155.933 118.701 155.844 118.701 155.767V154.886C118.438 154.785 118.164 154.708 117.878 154.654C117.599 154.6 117.317 154.573 117.032 154.573C116.467 154.573 116.012 154.685 115.664 154.909C115.316 155.133 115.142 155.438 115.142 155.825C115.142 156.049 115.2 156.261 115.316 156.462C115.432 156.655 115.602 156.817 115.826 156.949C116.05 157.072 116.313 157.134 116.614 157.134C116.993 157.134 117.344 157.061 117.669 156.914C118.001 156.767 118.256 156.578 118.434 156.346ZM126.268 157.621H125.48V154.248C125.48 153.537 125.376 153.02 125.167 152.695C124.959 152.363 124.63 152.197 124.182 152.197C123.873 152.197 123.568 152.274 123.266 152.429C122.965 152.575 122.698 152.78 122.467 153.043C122.243 153.298 122.08 153.591 121.98 153.924V157.621H121.192V151.582H121.91V152.95C122.073 152.656 122.285 152.401 122.548 152.185C122.81 151.961 123.108 151.787 123.44 151.664C123.772 151.54 124.116 151.478 124.472 151.478C124.804 151.478 125.086 151.54 125.318 151.664C125.55 151.787 125.735 151.965 125.874 152.197C126.013 152.421 126.114 152.695 126.176 153.02C126.237 153.336 126.268 153.692 126.268 154.086V157.621ZM130.79 157.331C130.728 157.355 130.632 157.397 130.5 157.459C130.369 157.521 130.21 157.575 130.025 157.621C129.84 157.667 129.639 157.691 129.422 157.691C129.198 157.691 128.986 157.648 128.785 157.563C128.592 157.478 128.437 157.351 128.321 157.181C128.205 157.003 128.147 156.787 128.147 156.532V152.208H127.313V151.582H128.147V149.543H128.936V151.582H130.326V152.208H128.936V156.311C128.951 156.528 129.028 156.69 129.167 156.798C129.314 156.906 129.48 156.96 129.666 156.96C129.882 156.96 130.079 156.926 130.257 156.856C130.435 156.779 130.543 156.725 130.581 156.694L130.79 157.331Z" fill="black"/>
<path d="M209.164 154.886C209.512 154.94 209.809 155.063 210.057 155.257C210.304 155.45 210.497 155.693 210.636 155.987C210.775 156.28 210.845 156.613 210.845 156.984C210.845 157.447 210.733 157.857 210.509 158.212C210.285 158.568 209.972 158.842 209.57 159.035C209.168 159.228 208.701 159.325 208.167 159.325C207.58 159.325 207.066 159.205 206.626 158.966C206.185 158.734 205.853 158.409 205.629 157.992L206.174 157.494C206.344 157.826 206.595 158.092 206.927 158.293C207.26 158.502 207.673 158.606 208.167 158.606C208.739 158.606 209.191 158.463 209.524 158.177C209.864 157.899 210.034 157.497 210.034 156.972C210.034 156.447 209.856 156.029 209.5 155.72C209.153 155.403 208.654 155.245 208.005 155.245H207.715V154.573H208.028C208.623 154.573 209.079 154.434 209.396 154.156C209.713 153.877 209.871 153.522 209.871 153.089C209.871 152.772 209.798 152.51 209.651 152.301C209.504 152.092 209.303 151.934 209.048 151.826C208.801 151.718 208.515 151.664 208.191 151.664C207.75 151.664 207.36 151.764 207.02 151.965C206.688 152.158 206.437 152.429 206.267 152.776L205.757 152.289C205.888 152.019 206.077 151.783 206.325 151.582C206.572 151.382 206.862 151.227 207.194 151.119C207.526 151.003 207.882 150.945 208.26 150.945C208.739 150.945 209.16 151.034 209.524 151.212C209.887 151.382 210.173 151.621 210.381 151.93C210.59 152.239 210.694 152.602 210.694 153.02C210.694 153.329 210.632 153.615 210.509 153.877C210.385 154.14 210.207 154.36 209.976 154.538C209.752 154.716 209.481 154.832 209.164 154.886Z" fill="black"/>
<path d="M331.388 154.909C331.388 155.427 331.256 155.902 330.994 156.335C330.739 156.76 330.391 157.1 329.951 157.355C329.51 157.61 329.016 157.737 328.467 157.737C327.895 157.737 327.385 157.602 326.937 157.331C326.497 157.053 326.149 156.655 325.894 156.138C325.639 155.62 325.511 155.006 325.511 154.295C325.511 153.174 325.639 152.251 325.894 151.524C326.149 150.79 326.504 150.242 326.96 149.879C327.416 149.515 327.945 149.334 328.548 149.334C329.097 149.334 329.587 149.473 330.02 149.751C330.453 150.022 330.781 150.392 331.005 150.864L330.495 151.327C330.333 150.933 330.074 150.62 329.719 150.389C329.371 150.149 328.981 150.029 328.548 150.029C328.092 150.029 327.694 150.172 327.354 150.458C327.014 150.744 326.748 151.154 326.555 151.687C326.369 152.22 326.276 152.865 326.276 153.622C326.392 153.321 326.562 153.058 326.786 152.834C327.01 152.61 327.273 152.436 327.575 152.313C327.884 152.189 328.212 152.127 328.56 152.127C329.085 152.127 329.56 152.251 329.985 152.498C330.418 152.745 330.758 153.081 331.005 153.506C331.26 153.924 331.388 154.391 331.388 154.909ZM328.49 157.042C328.877 157.042 329.232 156.945 329.557 156.752C329.881 156.559 330.14 156.3 330.333 155.975C330.534 155.651 330.634 155.295 330.634 154.909C330.634 154.523 330.534 154.167 330.333 153.843C330.14 153.518 329.881 153.259 329.557 153.066C329.232 152.873 328.877 152.776 328.49 152.776C328.096 152.776 327.733 152.873 327.401 153.066C327.076 153.259 326.817 153.518 326.624 153.843C326.431 154.159 326.334 154.515 326.334 154.909C326.334 155.295 326.431 155.651 326.624 155.975C326.825 156.3 327.088 156.559 327.412 156.752C327.737 156.945 328.096 157.042 328.49 157.042ZM336.726 151.594H332.287V150.864H337.977L333.816 159.093H332.912L336.726 151.594ZM338.09 157.621V156.485H338.774V157.621H338.09ZM345.989 154.225C345.989 154.905 345.861 155.512 345.606 156.045C345.359 156.57 345.015 156.984 344.575 157.285C344.134 157.586 343.636 157.737 343.079 157.737C342.523 157.737 342.025 157.586 341.584 157.285C341.151 156.984 340.808 156.57 340.553 156.045C340.298 155.512 340.17 154.905 340.17 154.225C340.17 153.545 340.298 152.942 340.553 152.417C340.808 151.884 341.151 151.467 341.584 151.165C342.025 150.856 342.523 150.702 343.079 150.702C343.636 150.702 344.134 150.856 344.575 151.165C345.015 151.467 345.359 151.884 345.606 152.417C345.861 152.942 345.989 153.545 345.989 154.225ZM345.189 154.225C345.189 153.676 345.1 153.194 344.922 152.776C344.745 152.359 344.497 152.034 344.18 151.803C343.864 151.563 343.497 151.443 343.079 151.443C342.662 151.443 342.295 151.563 341.978 151.803C341.661 152.034 341.41 152.359 341.225 152.776C341.047 153.194 340.958 153.676 340.958 154.225C340.958 154.774 341.047 155.257 341.225 155.674C341.41 156.091 341.661 156.416 341.978 156.647C342.295 156.879 342.662 156.995 343.079 156.995C343.497 156.995 343.864 156.879 344.18 156.647C344.497 156.408 344.745 156.083 344.922 155.674C345.1 155.257 345.189 154.774 345.189 154.225ZM353.086 154.225C353.086 154.905 352.958 155.512 352.703 156.045C352.456 156.57 352.112 156.984 351.671 157.285C351.231 157.586 350.733 157.737 350.176 157.737C349.62 157.737 349.122 157.586 348.681 157.285C348.248 156.984 347.905 156.57 347.65 156.045C347.395 155.512 347.267 154.905 347.267 154.225C347.267 153.545 347.395 152.942 347.65 152.417C347.905 151.884 348.248 151.467 348.681 151.165C349.122 150.856 349.62 150.702 350.176 150.702C350.733 150.702 351.231 150.856 351.671 151.165C352.112 151.467 352.456 151.884 352.703 152.417C352.958 152.942 353.086 153.545 353.086 154.225ZM352.286 154.225C352.286 153.676 352.197 153.194 352.019 152.776C351.841 152.359 351.594 152.034 351.277 151.803C350.961 151.563 350.594 151.443 350.176 151.443C349.759 151.443 349.392 151.563 349.075 151.803C348.758 152.034 348.507 152.359 348.322 152.776C348.144 153.194 348.055 153.676 348.055 154.225C348.055 154.774 348.144 155.257 348.322 155.674C348.507 156.091 348.758 156.416 349.075 156.647C349.392 156.879 349.759 156.995 350.176 156.995C350.594 156.995 350.961 156.879 351.277 156.647C351.594 156.408 351.841 156.083 352.019 155.674C352.197 155.257 352.286 154.774 352.286 154.225Z" fill="black"/>
<path d="M435.545 150.11H432.613V157.621H431.801V150.11H428.869V149.392H435.545V150.11ZM436.024 159.476C436.132 159.483 436.236 159.487 436.337 159.487C436.437 159.495 436.51 159.491 436.557 159.476C436.65 159.46 436.738 159.406 436.823 159.313C436.908 159.221 437.009 159.043 437.125 158.78C437.241 158.517 437.403 158.131 437.612 157.621L434.981 151.582H435.815L438.029 156.81L440.069 151.582H440.857L437.727 159.371C437.673 159.518 437.592 159.653 437.484 159.777C437.376 159.908 437.241 160.009 437.078 160.078C436.924 160.156 436.731 160.198 436.499 160.206C436.429 160.214 436.356 160.214 436.279 160.206C436.209 160.206 436.124 160.198 436.024 160.183V159.476ZM445.041 157.737C444.539 157.737 444.087 157.606 443.685 157.343C443.291 157.08 442.978 156.756 442.746 156.369V160.09H441.958V151.582H442.665V152.753C442.904 152.374 443.225 152.069 443.627 151.837C444.029 151.598 444.458 151.478 444.914 151.478C445.331 151.478 445.713 151.567 446.061 151.745C446.409 151.915 446.71 152.147 446.965 152.44C447.22 152.734 447.417 153.07 447.556 153.449C447.703 153.819 447.776 154.206 447.776 154.608C447.776 155.172 447.66 155.693 447.429 156.172C447.205 156.644 446.888 157.022 446.478 157.308C446.069 157.594 445.59 157.737 445.041 157.737ZM444.821 157.042C445.153 157.042 445.451 156.976 445.713 156.845C445.976 156.705 446.2 156.52 446.386 156.288C446.579 156.056 446.726 155.798 446.826 155.512C446.926 155.218 446.977 154.917 446.977 154.608C446.977 154.283 446.919 153.974 446.803 153.68C446.695 153.387 446.536 153.128 446.328 152.904C446.119 152.68 445.879 152.502 445.609 152.371C445.339 152.239 445.045 152.174 444.728 152.174C444.527 152.174 444.319 152.212 444.102 152.289C443.886 152.367 443.677 152.479 443.476 152.626C443.283 152.765 443.121 152.923 442.989 153.101C442.858 153.279 442.777 153.468 442.746 153.669V155.523C442.87 155.809 443.036 156.068 443.244 156.3C443.453 156.524 443.693 156.705 443.963 156.845C444.241 156.976 444.527 157.042 444.821 157.042ZM451.719 157.737C451.287 157.737 450.885 157.656 450.514 157.494C450.143 157.324 449.822 157.096 449.552 156.81C449.281 156.516 449.069 156.18 448.914 155.801C448.768 155.423 448.694 155.017 448.694 154.584C448.694 154.02 448.822 153.503 449.077 153.031C449.339 152.56 449.699 152.185 450.155 151.907C450.61 151.621 451.128 151.478 451.708 151.478C452.303 151.478 452.82 151.621 453.261 151.907C453.709 152.193 454.061 152.571 454.316 153.043C454.571 153.506 454.698 154.016 454.698 154.573C454.698 154.635 454.698 154.696 454.698 154.758C454.698 154.812 454.694 154.855 454.686 154.886H449.517C449.556 155.318 449.676 155.705 449.876 156.045C450.085 156.377 450.352 156.644 450.676 156.845C451.008 157.038 451.368 157.134 451.754 157.134C452.148 157.134 452.519 157.034 452.867 156.833C453.222 156.632 453.469 156.369 453.609 156.045L454.292 156.23C454.169 156.516 453.979 156.775 453.724 157.007C453.469 157.239 453.168 157.42 452.82 157.552C452.48 157.675 452.113 157.737 451.719 157.737ZM449.494 154.318H453.956C453.925 153.877 453.806 153.491 453.597 153.159C453.396 152.826 453.13 152.568 452.797 152.382C452.473 152.189 452.113 152.092 451.719 152.092C451.325 152.092 450.966 152.189 450.641 152.382C450.317 152.568 450.05 152.83 449.842 153.17C449.641 153.503 449.525 153.885 449.494 154.318ZM461.975 154.886C462.322 154.94 462.62 155.063 462.867 155.257C463.114 155.45 463.307 155.693 463.447 155.987C463.586 156.28 463.655 156.613 463.655 156.984C463.655 157.447 463.543 157.857 463.319 158.212C463.095 158.568 462.782 158.842 462.38 159.035C461.978 159.228 461.511 159.325 460.978 159.325C460.391 159.325 459.877 159.205 459.436 158.966C458.996 158.734 458.664 158.409 458.439 157.992L458.984 157.494C459.154 157.826 459.405 158.092 459.738 158.293C460.07 158.502 460.483 158.606 460.978 158.606C461.55 158.606 462.002 158.463 462.334 158.177C462.674 157.899 462.844 157.497 462.844 156.972C462.844 156.447 462.666 156.029 462.311 155.72C461.963 155.403 461.465 155.245 460.816 155.245H460.526V154.573H460.839C461.434 154.573 461.89 154.434 462.206 154.156C462.523 153.877 462.682 153.522 462.682 153.089C462.682 152.772 462.608 152.51 462.461 152.301C462.315 152.092 462.114 151.934 461.859 151.826C461.611 151.718 461.326 151.664 461.001 151.664C460.561 151.664 460.17 151.764 459.83 151.965C459.498 152.158 459.247 152.429 459.077 152.776L458.567 152.289C458.698 152.019 458.888 151.783 459.135 151.582C459.382 151.382 459.672 151.227 460.004 151.119C460.336 151.003 460.692 150.945 461.071 150.945C461.55 150.945 461.971 151.034 462.334 151.212C462.697 151.382 462.983 151.621 463.192 151.93C463.4 152.239 463.505 152.602 463.505 153.02C463.505 153.329 463.443 153.615 463.319 153.877C463.195 154.14 463.018 154.36 462.786 154.538C462.562 154.716 462.291 154.832 461.975 154.886Z" fill="black"/>
<path d="M29.9658 93.1914L493.586 93.1914" stroke="black" stroke-width="0.0965876"/>
<path d="M29.9658 133.264L493.586 133.264" stroke="black" stroke-width="0.0965876"/>
<path d="M65.3808 66.1485C65.4133 66.0828 65.4635 66.0275 65.5258 65.9888C65.5881 65.9502 65.6599 65.9297 65.7332 65.9297C65.8066 65.9297 65.8784 65.9502 65.9407 65.9888C66.003 66.0275 66.0532 66.0828 66.0857 66.1485L67.8 69.6208C67.9129 69.8493 68.0796 70.047 68.2858 70.1969C68.4919 70.3469 68.7314 70.4446 68.9836 70.4816L72.8172 71.0426C72.8899 71.0531 72.9581 71.0838 73.0142 71.131C73.0704 71.1783 73.1121 71.2404 73.1348 71.3102C73.1575 71.38 73.1603 71.4548 73.1427 71.526C73.1251 71.5973 73.0879 71.6622 73.0354 71.7134L70.263 74.4132C70.0801 74.5913 69.9433 74.8113 69.8643 75.054C69.7853 75.2968 69.7665 75.5551 69.8095 75.8068L70.4641 79.6211C70.4769 79.6937 70.469 79.7685 70.4414 79.8368C70.4138 79.9052 70.3675 79.9644 70.3079 80.0078C70.2482 80.0511 70.1776 80.0768 70.104 80.0819C70.0305 80.087 69.957 80.0713 69.8919 80.0367L66.4649 78.2349C66.2391 78.1163 65.9879 78.0544 65.7329 78.0544C65.4778 78.0544 65.2266 78.1163 65.0008 78.2349L61.5746 80.0367C61.5095 80.0711 61.4361 80.0866 61.3627 80.0814C61.2893 80.0762 61.2188 80.0505 61.1592 80.0072C61.0997 79.9639 61.0535 79.9047 61.0259 79.8365C60.9983 79.7683 60.9905 79.6936 61.0032 79.6211L61.657 75.8075C61.7001 75.5558 61.6814 75.2973 61.6024 75.0544C61.5235 74.8114 61.3865 74.5914 61.2035 74.4132L58.4311 71.7142C58.3781 71.663 58.3406 71.598 58.3227 71.5265C58.3049 71.455 58.3075 71.38 58.3302 71.3099C58.353 71.2398 58.3949 71.1775 58.4513 71.1301C58.5078 71.0828 58.5763 71.0522 58.6493 71.0419L62.4822 70.4816C62.7347 70.4448 62.9745 70.3473 63.1809 70.1973C63.3873 70.0474 63.5543 69.8495 63.6673 69.6208L65.3808 66.1485Z" fill="#F9A125" stroke="#B27015" stroke-width="1.11313" stroke-linecap="round" stroke-linejoin="round"/>
<path d="M65.3808 106.221C65.4133 106.155 65.4635 106.1 65.5258 106.061C65.5881 106.022 65.6599 106.002 65.7332 106.002C65.8066 106.002 65.8784 106.022 65.9407 106.061C66.003 106.1 66.0532 106.155 66.0857 106.221L67.8 109.693C67.9129 109.922 68.0796 110.119 68.2858 110.269C68.4919 110.419 68.7314 110.517 68.9836 110.554L72.8172 111.115C72.8899 111.125 72.9581 111.156 73.0142 111.203C73.0704 111.251 73.1121 111.313 73.1348 111.382C73.1575 111.452 73.1603 111.527 73.1427 111.598C73.1251 111.67 73.0879 111.734 73.0354 111.786L70.263 114.485C70.0801 114.664 69.9433 114.884 69.8643 115.126C69.7853 115.369 69.7665 115.627 69.8095 115.879L70.4641 119.693C70.4769 119.766 70.469 119.841 70.4414 119.909C70.4138 119.977 70.3675 120.037 70.3079 120.08C70.2482 120.123 70.1776 120.149 70.104 120.154C70.0305 120.159 69.957 120.144 69.8919 120.109L66.4649 118.307C66.2391 118.189 65.9879 118.127 65.7329 118.127C65.4778 118.127 65.2266 118.189 65.0008 118.307L61.5746 120.109C61.5095 120.143 61.4361 120.159 61.3627 120.154C61.2893 120.148 61.2188 120.123 61.1592 120.079C61.0997 120.036 61.0535 119.977 61.0259 119.909C60.9983 119.841 60.9905 119.766 61.0032 119.693L61.657 115.88C61.7001 115.628 61.6814 115.37 61.6024 115.127C61.5235 114.884 61.3865 114.664 61.2035 114.485L58.4311 111.786C58.3781 111.735 58.3406 111.67 58.3227 111.599C58.3049 111.527 58.3075 111.452 58.3302 111.382C58.353 111.312 58.3949 111.25 58.4513 111.202C58.5078 111.155 58.5763 111.124 58.6493 111.114L62.4822 110.554C62.7347 110.517 62.9745 110.42 63.1809 110.27C63.3873 110.12 63.5543 109.922 63.6673 109.693L65.3808 106.221Z" fill="#CECECE" stroke="#7A7A79" stroke-width="1.11313" stroke-linecap="round" stroke-linejoin="round"/>
<path d="M65.3808 146.295C65.4133 146.229 65.4635 146.174 65.5258 146.135C65.5881 146.097 65.6599 146.076 65.7332 146.076C65.8066 146.076 65.8784 146.097 65.9407 146.135C66.003 146.174 66.0532 146.229 66.0857 146.295L67.8 149.767C67.9129 149.996 68.0796 150.193 68.2858 150.343C68.4919 150.493 68.7314 150.591 68.9836 150.628L72.8172 151.189C72.8899 151.2 72.9581 151.23 73.0142 151.278C73.0704 151.325 73.1121 151.387 73.1348 151.457C73.1575 151.526 73.1603 151.601 73.1427 151.673C73.1251 151.744 73.0879 151.809 73.0354 151.86L70.263 154.56C70.0801 154.738 69.9433 154.958 69.8643 155.201C69.7853 155.443 69.7665 155.702 69.8095 155.953L70.4641 159.768C70.4769 159.84 70.469 159.915 70.4414 159.983C70.4138 160.052 70.3675 160.111 70.3079 160.154C70.2482 160.198 70.1776 160.223 70.104 160.228C70.0305 160.233 69.957 160.218 69.8919 160.183L66.4649 158.381C66.2391 158.263 65.9879 158.201 65.7329 158.201C65.4778 158.201 65.2266 158.263 65.0008 158.381L61.5746 160.183C61.5095 160.218 61.4361 160.233 61.3627 160.228C61.2893 160.223 61.2188 160.197 61.1592 160.154C61.0997 160.11 61.0535 160.051 61.0259 159.983C60.9983 159.915 60.9905 159.84 61.0032 159.768L61.657 155.954C61.7001 155.702 61.6814 155.444 61.6024 155.201C61.5235 154.958 61.3865 154.738 61.2035 154.56L58.4311 151.861C58.3781 151.809 58.3406 151.744 58.3227 151.673C58.3049 151.601 58.3075 151.526 58.3302 151.456C58.353 151.386 58.3949 151.324 58.4513 151.277C58.5078 151.229 58.5763 151.199 58.6493 151.188L62.4822 150.628C62.7347 150.591 62.9745 150.494 63.1809 150.344C63.3873 150.194 63.5543 149.996 63.6673 149.767L65.3808 146.295Z" fill="#906642" stroke="#6E4A30" stroke-width="1.11313" stroke-linecap="round" stroke-linejoin="round"/>
</svg>
