<svg width="300" height="300" viewBox="0 0 300 300" fill="none" xmlns="http://www.w3.org/2000/svg">
<circle cx="150" cy="150" r="150" fill="url(#paint0_linear_2645_2525)"/>
<path d="M153.534 46.0666L156.605 21.908L172.699 23.9539L172.271 27.3225L159.988 25.7611L159.071 32.9746L169.347 34.2808L168.945 37.4453L158.669 36.139L157.345 46.5511L153.534 46.0666Z" fill="white"/>
<path d="M179.906 44.8471C180.337 43.7879 181.008 42.9869 181.919 42.4441C182.861 41.8887 183.947 41.6143 185.178 41.621C186.418 41.6065 187.738 41.8833 189.136 42.4514C189.877 42.7526 190.608 43.1112 191.327 43.527C192.068 43.9514 192.688 44.4006 193.186 44.8746L193.612 43.826C194.086 42.6608 194.106 41.6079 193.674 40.6671C193.242 39.7263 192.369 38.9891 191.056 38.4554C190.123 38.0767 189.175 37.8889 188.211 37.8922C187.256 37.8743 186.192 37.9725 185.019 38.187L184.798 35.3578C186.201 35.0639 187.527 34.9607 188.775 35.0481C190.044 35.1442 191.293 35.4418 192.521 35.9411C194.746 36.8449 196.253 38.1482 197.042 39.851C197.86 41.5412 197.831 43.4667 196.953 45.6276L194.435 51.8241C194.272 52.2266 194.219 52.5384 194.277 52.7596C194.357 52.9893 194.562 53.1836 194.892 53.3425L193.756 56.1389C193.412 56.0733 193.109 55.9995 192.846 55.9174C192.583 55.8353 192.367 55.7598 192.198 55.691C191.456 55.3897 190.968 54.9815 190.733 54.4664C190.498 53.9514 190.448 53.4373 190.582 52.9242L190.874 51.9322C189.775 52.5716 188.561 52.9175 187.232 52.9697C185.902 53.022 184.665 52.8157 183.522 52.3509C182.42 51.9033 181.525 51.2806 180.837 50.4828C180.158 49.6638 179.734 48.7634 179.565 47.7816C179.397 46.7998 179.51 45.8216 179.906 44.8471ZM190.075 50.1635C190.441 49.9914 190.754 49.7978 191.014 49.5826C191.274 49.3675 191.448 49.154 191.534 48.9421L192.308 47.0355C191.81 46.5614 191.254 46.138 190.64 45.7653C190.035 45.3713 189.415 45.0453 188.779 44.787C187.508 44.2706 186.367 44.103 185.355 44.2844C184.365 44.4743 183.689 45.0142 183.327 45.9039C183.129 46.3912 183.067 46.9089 183.14 47.4571C183.235 48.0138 183.47 48.5289 183.845 49.0023C184.242 49.4843 184.811 49.8759 185.552 50.1772C186.315 50.487 187.106 50.6357 187.926 50.6232C188.745 50.6106 189.462 50.4574 190.075 50.1635Z" fill="white"/>
<path d="M208.928 65.518C207.713 64.6227 206.705 63.5817 205.903 62.3948C205.116 61.1895 204.627 59.9062 204.437 58.5449L207.075 57.3357C207.361 58.6825 207.796 59.8267 208.38 60.7685C208.983 61.7238 209.698 62.5067 210.526 63.1171C211.373 63.741 212.179 64.0932 212.943 64.1736C213.721 64.2357 214.341 63.9537 214.802 63.3278C215.141 62.8676 215.254 62.4253 215.141 62.0009C215.027 61.5765 214.765 61.0848 214.353 60.5258C213.96 59.9803 213.469 59.335 212.882 58.5899C212.082 57.5174 211.454 56.5577 210.999 55.7109C210.557 54.8456 210.344 54.0357 210.361 53.2809C210.377 52.5261 210.67 51.7621 211.24 50.989C211.932 50.0501 212.761 49.4257 213.728 49.1156C214.695 48.8056 215.731 48.7876 216.835 49.0618C217.958 49.3496 219.081 49.9072 220.204 50.7346C221.254 51.5078 222.098 52.3856 222.737 53.3681C223.409 54.3457 223.834 55.426 224.013 56.609L221.23 57.6685C221.02 56.6046 220.676 55.6837 220.198 54.9057C219.739 54.1412 219.123 53.4742 218.35 52.9045C217.908 52.5789 217.444 52.3222 216.957 52.1342C216.485 51.9278 216.008 51.861 215.529 51.9336C215.081 52.0015 214.681 52.2747 214.328 52.7533C214.044 53.1399 213.923 53.5342 213.968 53.9363C214.013 54.3384 214.195 54.7851 214.514 55.2763C214.834 55.7675 215.242 56.3518 215.737 57.029C216.615 58.1878 217.329 59.2245 217.876 60.1392C218.437 61.0354 218.739 61.8972 218.783 62.7247C218.858 63.5472 218.571 64.4004 217.92 65.284C216.889 66.6831 215.557 67.3918 213.924 67.4102C212.324 67.4238 210.658 66.7931 208.928 65.518Z" fill="white"/>
<path d="M230.041 83.1401C229.707 83.012 229.31 82.8326 228.851 82.6019C228.392 82.3712 227.903 82.0744 227.385 81.7116C226.882 81.3657 226.415 80.9566 225.983 80.4843C225.458 79.9108 225.073 79.2868 224.827 78.6124C224.582 77.9379 224.54 77.2482 224.7 76.5432C224.893 75.8396 225.344 75.1635 226.052 74.5151L234.326 66.9423L232.728 65.1965L234.879 63.228L236.477 64.9738L240.829 60.9906L243.376 63.7738L239.024 67.757L241.664 70.6414L239.514 72.6099L236.873 69.7255L229.485 76.4877C229.061 76.9383 228.855 77.3905 228.867 77.8442C228.895 78.3148 229.086 78.7441 229.441 79.132C229.796 79.52 230.203 79.8293 230.663 80.06C231.122 80.2908 231.471 80.4518 231.709 80.5433L230.041 83.1401Z" fill="white"/>
<path d="M237.848 96.3215C237.154 95.1119 236.73 93.8917 236.577 92.6611C236.456 91.4389 236.557 90.2602 236.881 89.1251C237.224 87.9785 237.758 86.9337 238.483 85.9906C239.238 85.0559 240.161 84.2754 241.252 83.6492C242.719 82.8067 244.251 82.3753 245.848 82.355C247.465 82.3234 248.987 82.7018 250.415 83.4902C251.863 84.2672 253.054 85.4688 253.988 87.0949C254.921 88.721 255.347 90.3354 255.266 91.938C255.215 93.5491 254.773 95.0291 253.939 96.3781C253.105 97.727 251.994 98.8 250.606 99.5969C250.368 99.7336 250.134 99.8546 249.904 99.96C249.695 100.054 249.515 100.131 249.364 100.191L242.209 87.7273C241.331 88.3105 240.67 89.0195 240.226 89.8543C239.814 90.6975 239.609 91.58 239.61 92.5017C239.632 93.4121 239.871 94.264 240.326 95.0572C240.827 95.9297 241.518 96.6275 242.398 97.1504C243.29 97.6931 244.172 97.8984 245.046 97.7661L245.848 101.023C244.901 101.119 243.92 100.996 242.907 100.655C241.925 100.322 240.988 99.7924 240.096 99.0653C239.224 98.3268 238.475 97.4122 237.848 96.3215ZM244.329 86.3913L249.726 95.791C250.584 95.2192 251.219 94.5117 251.632 93.6685C252.075 92.8337 252.286 91.9611 252.264 91.0507C252.274 90.1488 252.04 89.2813 251.561 88.4485C251.095 87.6354 250.464 86.9957 249.668 86.5293C248.905 86.0714 248.05 85.8236 247.106 85.7858C246.181 85.7366 245.255 85.9385 244.329 86.3913Z" fill="white"/>
<path d="M264.218 120.089C263.765 118.697 263.064 117.549 262.116 116.645C261.174 115.763 260.075 115.264 258.819 115.149L248.33 118.381L247.219 114.775L264.362 109.492L265.392 112.836L261.557 114.018C262.919 114.244 264.098 114.73 265.094 115.476C266.111 116.216 266.817 117.111 267.213 118.161C267.28 118.38 267.334 118.555 267.375 118.686C267.422 118.839 267.451 118.973 267.463 119.089L264.218 120.089Z" fill="white"/>
<path d="M266.398 144.295C267.88 144.399 269.31 144.762 270.688 145.386C272.088 146.011 273.335 146.867 274.428 147.952C275.542 149.061 276.391 150.37 276.973 151.878C277.577 153.387 277.815 155.066 277.686 156.913C277.532 159.103 276.898 160.961 275.783 162.488C274.69 164.016 273.341 165.113 271.735 165.78L269.927 162.628C270.94 162.24 271.757 161.713 272.376 161.046C272.995 160.402 273.446 159.677 273.732 158.872C274.016 158.089 274.185 157.31 274.24 156.535C274.329 155.257 274.145 154.121 273.687 153.126C273.253 152.133 272.636 151.276 271.839 150.556C271.04 149.858 270.127 149.301 269.102 148.885C268.075 148.493 267.037 148.259 265.988 148.186C264.824 148.104 263.682 148.219 262.559 148.53C261.46 148.843 260.465 149.312 259.573 149.937C258.702 150.587 257.994 151.374 257.447 152.298C256.901 153.223 256.588 154.255 256.508 155.396C256.454 156.172 256.534 156.991 256.749 157.854C256.964 158.717 257.331 159.522 257.852 160.269C258.394 161.041 259.13 161.666 260.059 162.143L258.023 165.198C256.849 164.612 255.877 163.753 255.108 162.622C254.338 161.513 253.782 160.282 253.442 158.929C253.099 157.598 252.973 156.295 253.062 155.017C253.182 153.306 253.645 151.769 254.451 150.404C255.28 149.041 256.324 147.887 257.582 146.944C258.863 146.002 260.264 145.298 261.787 144.832C263.332 144.367 264.869 144.188 266.398 144.295Z" fill="white"/>
<path d="M255.384 179.073C256.451 179.485 257.264 180.141 257.822 181.043C258.394 181.975 258.688 183.056 258.703 184.288C258.739 185.527 258.485 186.851 257.942 188.259C257.654 189.006 257.308 189.742 256.905 190.469C256.494 191.217 256.055 191.845 255.59 192.351L256.646 192.759C257.819 193.212 258.872 193.214 259.805 192.765C260.739 192.317 261.46 191.431 261.971 190.108C262.333 189.17 262.504 188.218 262.484 187.255C262.485 186.299 262.368 185.237 262.133 184.068L264.958 183.798C265.277 185.195 265.403 186.519 265.338 187.768C265.264 189.039 264.988 190.292 264.511 191.53C263.646 193.77 262.369 195.299 260.681 196.118C259.005 196.966 257.079 196.971 254.903 196.131L248.664 193.722C248.258 193.566 247.946 193.519 247.725 193.581C247.497 193.664 247.306 193.872 247.153 194.205L244.337 193.119C244.397 192.774 244.466 192.469 244.543 192.205C244.62 191.941 244.692 191.724 244.758 191.553C245.046 190.806 245.446 190.311 245.957 190.067C246.467 189.823 246.981 189.764 247.496 189.889L248.493 190.163C247.834 189.076 247.467 187.868 247.392 186.54C247.316 185.211 247.501 183.971 247.945 182.819C248.373 181.71 248.98 180.805 249.766 180.103C250.573 179.409 251.466 178.97 252.444 178.784C253.423 178.598 254.403 178.694 255.384 179.073ZM250.247 189.333C250.426 189.696 250.625 190.006 250.845 190.262C251.064 190.519 251.281 190.688 251.494 190.77L253.414 191.512C253.879 191.005 254.293 190.441 254.655 189.821C255.038 189.209 255.353 188.583 255.6 187.943C256.094 186.663 256.242 185.519 256.043 184.511C255.835 183.524 255.284 182.858 254.388 182.512C253.897 182.323 253.378 182.269 252.832 182.352C252.277 182.457 251.766 182.701 251.299 183.084C250.824 183.489 250.442 184.065 250.154 184.812C249.858 185.58 249.723 186.373 249.75 187.193C249.777 188.012 249.943 188.725 250.247 189.333Z" fill="white"/>
<path d="M229.62 216.673L231.878 213.65L239.93 219.664C241.267 220.663 242.411 221.176 243.363 221.201C244.3 221.245 245.084 220.846 245.713 220.003C246.151 219.417 246.443 218.721 246.588 217.916C246.719 217.129 246.699 216.315 246.528 215.474C246.376 214.647 246.045 213.886 245.536 213.192L236.99 206.808L239.248 203.785L253.619 214.521L251.567 217.269L248.681 215.113C249.049 215.959 249.243 216.846 249.263 217.774C249.287 218.734 249.147 219.686 248.843 220.629C248.538 221.571 248.071 222.464 247.442 223.307C246.798 224.168 246.116 224.757 245.394 225.073C244.658 225.409 243.899 225.527 243.117 225.428C242.339 225.361 241.552 225.115 240.756 224.691C239.964 224.299 239.174 223.809 238.386 223.221L229.62 216.673Z" fill="white"/>
<path d="M227.075 233.316C228.099 234.692 228.751 236.145 229.033 237.673C229.31 239.234 229.208 240.706 228.727 242.09C228.259 243.492 227.392 244.664 226.126 245.605C225.025 246.424 223.823 246.877 222.519 246.963C221.197 247.062 219.974 246.874 218.851 246.399L225.114 254.821L222.086 257.073L209.683 240.393C209.424 240.044 209.176 239.844 208.938 239.793C208.7 239.742 208.428 239.816 208.121 240.016L206.32 237.594C206.82 237.079 207.227 236.706 207.539 236.474C208.107 236.051 208.716 235.854 209.366 235.884C209.997 235.928 210.492 236.173 210.851 236.618L211.677 237.671C211.545 236.344 211.756 235.076 212.31 233.866C212.878 232.675 213.666 231.704 214.675 230.953C215.666 230.217 216.727 229.727 217.857 229.485C218.97 229.256 220.097 229.258 221.239 229.492C222.363 229.739 223.434 230.182 224.451 230.822C225.45 231.476 226.325 232.307 227.075 233.316ZM214.021 239.903L216.825 243.674C217.463 244.111 218.183 244.388 218.982 244.506C219.778 244.656 220.562 244.656 221.335 244.509C222.091 244.375 222.743 244.103 223.294 243.694C223.936 243.216 224.421 242.642 224.748 241.971C225.058 241.314 225.234 240.612 225.278 239.867C225.304 239.135 225.2 238.401 224.965 237.664C224.73 236.926 224.374 236.237 223.897 235.594C223.405 234.934 222.831 234.392 222.174 233.968C221.531 233.563 220.837 233.281 220.093 233.123C219.343 232.996 218.607 233.002 217.883 233.141C217.156 233.312 216.471 233.636 215.828 234.114C215.425 234.414 215.076 234.787 214.781 235.234C214.468 235.695 214.224 236.19 214.048 236.72C213.853 237.263 213.757 237.805 213.76 238.345C213.744 238.898 213.831 239.417 214.021 239.903Z" fill="white"/>
<path d="M195.656 243.534L203.235 259.793L199.815 261.387L192.237 245.128L195.656 243.534ZM204.481 262.467L206.234 266.229L202.814 267.823L201.061 264.061L204.481 262.467Z" fill="white"/>
<path d="M187.954 257.321C188.347 258.991 188.37 260.583 188.023 262.098C187.658 263.64 186.981 264.951 185.99 266.031C185.004 267.132 183.744 267.864 182.208 268.226C180.873 268.541 179.59 268.479 178.359 268.041C177.105 267.609 176.058 266.951 175.215 266.069L177.624 276.285L173.952 277.151L169.182 256.92C169.082 256.497 168.933 256.215 168.735 256.073C168.538 255.932 168.258 255.892 167.897 255.954L167.204 253.016C167.868 252.742 168.389 252.56 168.767 252.471C169.457 252.309 170.094 252.37 170.678 252.655C171.24 252.945 171.598 253.366 171.751 253.917L172.091 255.211C172.497 253.941 173.194 252.861 174.182 251.97C175.175 251.101 176.284 250.523 177.508 250.234C178.71 249.951 179.878 249.922 181.012 250.148C182.123 250.379 183.157 250.829 184.113 251.496C185.047 252.168 185.854 253 186.534 253.991C187.192 254.987 187.665 256.097 187.954 257.321ZM173.358 258.19L174.436 262.764C174.849 263.418 175.399 263.958 176.087 264.383C176.757 264.836 177.477 265.148 178.245 265.319C178.992 265.496 179.699 265.505 180.367 265.348C181.146 265.164 181.818 264.829 182.385 264.343C182.93 263.862 183.37 263.289 183.706 262.622C184.02 261.961 184.216 261.245 184.292 260.475C184.369 259.705 184.316 258.931 184.132 258.152C183.943 257.351 183.631 256.625 183.196 255.976C182.767 255.349 182.241 254.815 181.62 254.374C180.983 253.961 180.304 253.674 179.585 253.515C178.849 253.383 178.092 253.409 177.313 253.593C176.823 253.708 176.355 253.913 175.907 254.206C175.437 254.505 175.016 254.862 174.645 255.279C174.251 255.701 173.948 256.16 173.736 256.656C173.502 257.158 173.376 257.669 173.358 258.19Z" fill="white"/>
<path d="M155.175 260.018C155.119 261.16 154.75 262.138 154.069 262.951C153.364 263.786 152.429 264.404 151.265 264.805C150.099 265.228 148.763 265.403 147.255 265.329C146.456 265.289 145.648 265.192 144.831 265.038C143.992 264.882 143.259 264.663 142.631 264.38L142.576 265.51C142.514 266.766 142.842 267.767 143.561 268.512C144.28 269.257 145.348 269.665 146.764 269.735C147.768 269.784 148.725 269.648 149.634 269.326C150.542 269.028 151.514 268.583 152.55 267.993L153.693 270.591C152.466 271.332 151.249 271.867 150.042 272.197C148.813 272.525 147.535 272.657 146.211 272.592C143.813 272.474 141.96 271.742 140.653 270.395C139.321 269.07 138.713 267.243 138.828 264.914L139.157 258.233C139.178 257.799 139.125 257.488 138.997 257.298C138.846 257.108 138.588 256.992 138.224 256.951L138.372 253.936C138.718 253.885 139.029 253.854 139.304 253.845C139.579 253.835 139.808 253.835 139.991 253.844C140.79 253.884 141.386 254.108 141.778 254.516C142.17 254.925 142.387 255.393 142.43 255.922L142.482 256.955C143.308 255.988 144.34 255.26 145.577 254.772C146.815 254.283 148.05 254.069 149.283 254.13C150.471 254.189 151.521 254.481 152.434 255.006C153.346 255.555 154.043 256.265 154.527 257.136C155.011 258.007 155.227 258.967 155.175 260.018ZM143.821 258.36C143.532 258.643 143.3 258.93 143.126 259.219C142.952 259.508 142.859 259.766 142.847 259.995L142.746 262.05C143.373 262.333 144.038 262.549 144.74 262.698C145.442 262.87 146.135 262.973 146.82 263.006C148.19 263.074 149.323 262.855 150.218 262.349C151.09 261.843 151.55 261.11 151.597 260.151C151.623 259.626 151.51 259.116 151.26 258.623C150.987 258.129 150.595 257.72 150.084 257.398C149.55 257.074 148.884 256.892 148.085 256.853C147.262 256.812 146.467 256.933 145.697 257.216C144.928 257.499 144.302 257.88 143.821 258.36Z" fill="white"/>
<path d="M117.728 250.544C118.078 250.471 118.509 250.408 119.02 250.354C119.531 250.3 120.102 250.286 120.734 250.311C121.344 250.331 121.959 250.423 122.577 250.586C123.329 250.785 123.99 251.103 124.561 251.538C125.132 251.973 125.54 252.53 125.786 253.21C126.003 253.907 125.989 254.719 125.744 255.647L122.872 266.49L125.16 267.096L124.414 269.914L122.126 269.308L120.616 275.011L116.968 274.045L118.479 268.342L114.699 267.341L115.445 264.523L119.225 265.524L121.789 255.842C121.903 255.233 121.832 254.742 121.576 254.366C121.299 253.985 120.906 253.728 120.398 253.593C119.889 253.458 119.379 253.418 118.868 253.472C118.357 253.526 117.977 253.579 117.726 253.631L117.728 250.544Z" fill="white"/>
<path d="M104.023 243.64C105.26 244.286 106.274 245.086 107.065 246.04C107.826 247.005 108.375 248.052 108.713 249.183C109.041 250.335 109.154 251.503 109.051 252.687C108.918 253.882 108.56 255.036 107.979 256.151C107.196 257.651 106.137 258.84 104.802 259.717C103.457 260.614 101.97 261.115 100.342 261.219C98.7037 261.344 97.0533 260.973 95.391 260.105C93.7287 259.238 92.5006 258.107 91.7066 256.712C90.8817 255.327 90.4575 253.842 90.4339 252.256C90.4104 250.671 90.7689 249.168 91.5095 247.749C91.6365 247.506 91.7683 247.278 91.9049 247.066C92.031 246.874 92.1412 246.712 92.2355 246.58L104.976 253.23C105.402 252.266 105.577 251.313 105.502 250.37C105.395 249.438 105.093 248.584 104.595 247.808C104.086 247.052 103.427 246.463 102.616 246.04C101.724 245.574 100.766 245.358 99.743 245.392C98.6993 245.414 97.8452 245.717 97.1805 246.298L94.7506 243.985C95.4973 243.395 96.3894 242.971 97.4269 242.713C98.4335 242.464 99.5085 242.406 100.652 242.538C101.784 242.691 102.908 243.058 104.023 243.64ZM103.909 255.497L94.3002 250.482C93.8849 251.426 93.7305 252.365 93.8371 253.297C93.9127 254.24 94.2048 255.088 94.7133 255.844C95.1909 256.609 95.8555 257.214 96.7069 257.658C97.538 258.092 98.4142 258.291 99.3353 258.256C100.226 258.231 101.079 257.98 101.895 257.503C102.701 257.046 103.372 256.378 103.909 255.497Z" fill="white"/>
<path d="M72.1609 219.565C73.1437 220.711 73.8921 221.952 74.4063 223.288C74.903 224.64 75.091 226 74.9703 227.369L72.1282 227.955C72.1523 226.578 71.9854 225.366 71.6277 224.317C71.2551 223.25 70.7337 222.327 70.0637 221.546C69.3787 220.748 68.6728 220.223 67.9459 219.973C67.2017 219.738 66.5346 219.874 65.9446 220.38C65.5107 220.752 65.3014 221.158 65.3165 221.597C65.3316 222.036 65.477 222.574 65.7527 223.211C66.0134 223.831 66.3462 224.57 66.7509 225.428C67.2898 226.653 67.686 227.729 67.9395 228.657C68.1756 229.599 68.2009 230.436 68.0153 231.168C67.8297 231.9 67.3724 232.578 66.6436 233.204C65.7585 233.963 64.8101 234.385 63.7982 234.47C62.7863 234.555 61.773 234.34 60.7583 233.824C59.7287 233.292 58.7597 232.496 57.8514 231.437C57.0026 230.448 56.377 229.403 55.9746 228.302C55.54 227.199 55.3682 226.05 55.4593 224.857L58.4094 224.45C58.3752 225.534 58.5035 226.509 58.7942 227.374C59.0699 228.222 59.5205 229.011 60.1459 229.74C60.5033 230.156 60.8979 230.511 61.3296 230.803C61.744 231.11 62.193 231.283 62.6766 231.319C63.1281 231.354 63.5794 231.178 64.0306 230.79C64.395 230.478 64.6006 230.12 64.6476 229.719C64.6945 229.317 64.6173 228.841 64.4161 228.29C64.2149 227.74 63.9492 227.079 63.6189 226.308C63.0229 224.981 62.5609 223.811 62.233 222.796C61.8877 221.797 61.7867 220.889 61.9301 220.073C62.0413 219.255 62.5134 218.488 63.3463 217.773C64.6652 216.642 66.1221 216.25 67.7171 216.599C69.2799 216.945 70.7611 217.934 72.1609 219.565Z" fill="white"/>
<path d="M57.2875 198.114C57.9026 199.391 58.2369 200.639 58.2904 201.856C58.3233 203.084 58.1269 204.257 57.7012 205.376C57.2655 206.474 56.6475 207.457 55.8471 208.325C55.0261 209.202 54.049 209.914 52.9159 210.46C51.7828 211.005 50.6172 211.326 49.4192 211.42C48.2212 211.515 47.0674 211.385 45.9579 211.031C44.8178 210.667 43.7884 210.084 42.8696 209.283C41.9203 208.471 41.143 207.436 40.5378 206.18C39.9326 204.923 39.6136 203.681 39.5807 202.453C39.5173 201.214 39.7034 200.046 40.1391 198.948C40.5442 197.839 41.1572 196.846 41.9782 195.969C42.7992 195.091 43.7763 194.379 44.9094 193.834C46.0426 193.288 47.2081 192.968 48.4061 192.873C49.5836 192.788 50.7423 192.928 51.8823 193.293C53.0125 193.637 54.0522 194.215 55.0015 195.027C55.9203 195.828 56.6823 196.857 57.2875 198.114ZM51.2651 206.953C52.2953 206.457 53.1182 205.794 53.7339 204.964C54.3497 204.135 54.7208 203.245 54.8475 202.296C54.9741 201.347 54.8191 200.419 54.3826 199.513C53.9559 198.627 53.3321 197.937 52.511 197.444C51.6594 196.941 50.7173 196.671 49.6849 196.635C48.6319 196.609 47.6006 196.84 46.5911 197.326C45.561 197.822 44.738 198.485 44.1223 199.314C43.5066 200.144 43.1403 201.043 43.0237 202.013C42.8764 202.972 43.0161 203.895 43.4428 204.781C43.8793 205.687 44.5184 206.382 45.3601 206.865C46.2018 207.348 47.1389 207.607 48.1713 207.643C49.1832 207.689 50.2144 207.459 51.2651 206.953Z" fill="white"/>
<path d="M41.6224 179.329L30.7859 181.074L30.1862 177.349L40.2776 175.724C41.8579 175.469 43.009 174.994 43.7308 174.299C44.4265 173.585 44.6852 172.675 44.5071 171.569C44.3944 170.869 44.1386 170.215 43.7397 169.608C43.3372 168.978 42.8101 168.437 42.1584 167.986C41.4806 167.516 40.708 167.177 39.8408 166.97L28.8012 168.747L28.2014 165.022L41.713 162.847C42.142 162.778 42.434 162.649 42.5892 162.462C42.7444 162.275 42.8041 161.999 42.7686 161.634L45.7486 161.155C45.8781 161.527 45.9741 161.836 46.0367 162.081C46.0993 162.326 46.1487 162.561 46.1851 162.787C46.2941 163.464 46.2044 164.057 45.9159 164.567C45.6048 165.08 45.1612 165.418 44.5852 165.58L42.8351 165.932C44.2492 166.515 45.3966 167.384 46.2775 168.539C47.1358 169.698 47.6867 171.033 47.9302 172.546C48.2283 174.397 47.8441 175.895 46.7777 177.04C45.7113 178.184 43.9928 178.947 41.6224 179.329Z" fill="white"/>
<path d="M31.2421 137.884C31.1707 139.346 31.4177 140.668 31.9831 141.85C32.5499 143.009 33.3997 143.866 34.5326 144.42L45.4859 145.127L45.2431 148.892L27.3413 147.737L27.5665 144.246L31.5713 144.504C30.3788 143.809 29.4498 142.935 28.7843 141.884C28.096 140.832 27.7537 139.744 27.7574 138.621C27.7721 138.393 27.7838 138.211 27.7927 138.074C27.803 137.914 27.8232 137.778 27.8534 137.665L31.2421 137.884Z" fill="white"/>
<path d="M49.1303 123.787C48.747 125.128 48.1673 126.283 47.3914 127.25C46.5997 128.189 45.673 128.935 44.6113 129.488C43.5496 130.04 42.4172 130.383 41.2142 130.514C40.0175 130.624 38.8145 130.506 37.6053 130.161C35.9783 129.695 34.598 128.908 33.4642 127.8C32.3367 126.669 31.5548 125.327 31.1184 123.776C30.6883 122.202 30.734 120.503 31.2556 118.678C31.7584 116.919 32.5909 115.504 33.7532 114.433C34.8998 113.334 36.2097 112.662 37.6828 112.417L37.7954 116.266C36.9568 116.455 36.2359 116.855 35.6327 117.468C35.0139 118.052 34.5819 118.773 34.3368 119.63C34.0603 120.597 34.0617 121.549 34.3412 122.485C34.6049 123.393 35.1105 124.203 35.858 124.916C36.5897 125.601 37.5273 126.107 38.6705 126.434C39.7698 126.748 40.8362 126.803 41.8696 126.599C42.881 126.389 43.7605 125.974 44.5082 125.356C45.2401 124.709 45.7443 123.902 46.0209 122.934C46.1905 122.341 46.255 121.741 46.2142 121.134C46.1578 120.5 46.0134 119.924 45.781 119.405C45.5266 118.881 45.2047 118.468 44.8153 118.166L46.8887 114.906C47.6394 115.525 48.2376 116.302 48.6835 117.238C49.1357 118.152 49.4151 119.172 49.5218 120.296C49.6127 121.392 49.4823 122.556 49.1303 123.787Z" fill="white"/>
<path d="M55.1556 106.186L39.1213 98.1425L40.8131 94.7701L56.8474 102.814L55.1556 106.186ZM36.4846 96.8198L32.775 94.9588L34.4668 91.5863L38.1765 93.4474L36.4846 96.8198Z" fill="white"/>
<path d="M70.2195 82.7061L67.9106 85.6901L59.9622 79.54C58.642 78.5185 57.5065 77.9868 56.5558 77.9451C55.6191 77.8853 54.8288 78.2713 54.1851 79.1032C53.7373 79.682 53.4342 80.3726 53.2758 81.1753C53.1314 81.9598 53.1374 82.774 53.294 83.618C53.4324 84.4479 53.7502 85.2142 54.2474 85.9169L62.684 92.4449L60.3751 95.4289L46.1874 84.451L48.2864 81.7383L51.1348 83.9423C50.7817 83.0908 50.603 82.2008 50.5986 81.2722C50.5902 80.3116 50.7463 79.3626 51.0668 78.4252C51.3874 77.4878 51.8695 76.6031 52.5132 75.7712C53.1709 74.9212 53.8633 74.3439 54.5906 74.0392C55.3318 73.7165 56.0927 73.6113 56.8731 73.7236C57.6495 73.8039 58.4323 74.0627 59.2215 74.4999C60.0067 74.9051 60.7881 75.4085 61.5658 76.0102L70.2195 82.7061Z" fill="white"/>
<path d="M85.0503 68.7301C84.0663 69.4376 83.0257 69.8901 81.9285 70.0876C80.8179 70.2665 79.7186 70.2261 78.6306 69.9664C77.5612 69.6933 76.539 69.2313 75.564 68.5804C74.6076 67.9162 73.7757 67.0921 73.0682 66.1081C72.3206 65.0685 71.7869 63.9736 71.4669 62.8236C71.147 61.6736 71.0371 60.5416 71.1373 59.4275C71.2427 58.2814 71.5637 57.2198 72.1002 56.2426C72.6368 55.2653 73.4063 54.4163 74.4089 53.6954C75.5785 52.8544 76.7999 52.3987 78.0729 52.3282C79.3645 52.2444 80.6185 52.4412 81.8348 52.9185L79.8524 50.1615L82.5537 48.2192L92.7259 62.3662C93.7404 63.7772 94.258 65.2216 94.2786 66.6995C94.3177 68.1641 93.9394 69.5768 93.1435 70.9376C92.3477 72.2985 91.2164 73.5062 89.7497 74.5608C88.1345 75.7221 86.5975 76.4048 85.1388 76.6087C83.6801 76.8127 82.2323 76.6989 80.7956 76.2675L81.3608 73.4108C82.4784 73.7901 83.6204 73.8702 84.7866 73.6513C85.9715 73.4189 87.0651 72.9424 88.0677 72.2215C88.9031 71.6208 89.5601 70.909 90.0387 70.0861C90.5492 69.2684 90.7843 68.3812 90.7441 67.4243C90.7172 66.4861 90.3567 65.5342 89.6625 64.5688L88.0606 62.341C88.1682 63.5873 87.9474 64.7882 87.3981 65.9436C86.8354 67.0804 86.0529 68.0092 85.0503 68.7301ZM84.2707 65.5307C84.7349 65.197 85.127 64.8023 85.4473 64.3468C85.7541 63.8727 85.9905 63.3788 86.1563 62.8653C86.3274 62.3198 86.4228 61.7865 86.4424 61.2655C86.4487 60.7258 86.3674 60.221 86.1984 59.7511L83.4551 55.9358C82.7599 55.4781 82.0226 55.1774 81.2433 55.0336C80.4507 54.8713 79.6824 54.8604 78.9386 55.001C78.1947 55.1416 77.535 55.4188 76.9595 55.8326C76.2911 56.3132 75.7945 56.8955 75.4697 57.5797C75.1501 58.232 74.9782 58.9329 74.954 59.6826C74.9164 60.4138 75.0091 61.1498 75.232 61.8907C75.455 62.6317 75.7934 63.3178 76.2473 63.949C76.7279 64.6174 77.2864 65.1592 77.9231 65.5746C78.5782 65.9765 79.2769 66.2628 80.0191 66.4332C80.7479 66.5851 81.4843 66.5908 82.2281 66.4502C82.9586 66.2911 83.6395 65.9846 84.2707 65.5307Z" fill="white"/>
<path d="M114.719 43.9121L113.888 40.6196L123.832 38.1103L124.663 41.4028L114.719 43.9121Z" fill="white"/>
<circle cx="150" cy="150" r="83" fill="#E5D0FF"/>
<path d="M123.955 156.84C123.955 159.56 123.275 162.04 121.915 164.28C120.595 166.52 118.755 168.3 116.395 169.62C114.075 170.94 111.475 171.6 108.595 171.6C105.475 171.6 102.735 170.86 100.375 169.38C98.0552 167.86 96.2352 165.68 94.9152 162.84C93.6352 160 92.9952 156.62 92.9952 152.7C92.9952 147.26 93.6552 142.72 94.9752 139.08C96.3352 135.44 98.2352 132.7 100.675 130.86C103.115 129.02 105.975 128.1 109.255 128.1C111.975 128.1 114.455 128.74 116.695 130.02C118.975 131.26 120.815 133 122.215 135.24L118.315 139.32C117.395 137.64 116.115 136.32 114.475 135.36C112.875 134.36 111.095 133.86 109.135 133.86C107.175 133.86 105.435 134.44 103.915 135.6C102.435 136.72 101.275 138.36 100.435 140.52C99.6352 142.68 99.2152 145.3 99.1752 148.38C99.7752 147.18 100.555 146.16 101.515 145.32C102.515 144.44 103.675 143.76 104.995 143.28C106.315 142.8 107.715 142.56 109.195 142.56C111.995 142.56 114.495 143.2 116.695 144.48C118.935 145.76 120.695 147.48 121.975 149.64C123.295 151.76 123.955 154.16 123.955 156.84ZM108.595 165.96C110.235 165.96 111.735 165.56 113.095 164.76C114.495 163.92 115.595 162.8 116.395 161.4C117.235 160 117.655 158.48 117.655 156.84C117.655 155.2 117.235 153.7 116.395 152.34C115.595 150.98 114.515 149.9 113.155 149.1C111.795 148.26 110.275 147.84 108.595 147.84C106.995 147.84 105.495 148.26 104.095 149.1C102.695 149.9 101.575 150.98 100.735 152.34C99.9352 153.7 99.5352 155.2 99.5352 156.84C99.5352 158.48 99.9552 160 100.795 161.4C101.635 162.76 102.735 163.86 104.095 164.7C105.495 165.54 106.995 165.96 108.595 165.96ZM160.341 153.42C160.341 156.94 159.661 160.08 158.301 162.84C156.981 165.56 155.161 167.7 152.841 169.26C150.561 170.82 147.941 171.6 144.981 171.6C142.061 171.6 139.441 170.82 137.121 169.26C134.801 167.7 132.961 165.56 131.601 162.84C130.281 160.08 129.621 156.94 129.621 153.42C129.621 149.9 130.281 146.78 131.601 144.06C132.961 141.3 134.801 139.14 137.121 137.58C139.441 135.98 142.061 135.18 144.981 135.18C147.941 135.18 150.561 135.98 152.841 137.58C155.161 139.14 156.981 141.3 158.301 144.06C159.661 146.78 160.341 149.9 160.341 153.42ZM153.621 153.42C153.621 151.02 153.261 148.92 152.541 147.12C151.821 145.28 150.801 143.86 149.481 142.86C148.161 141.82 146.661 141.3 144.981 141.3C143.261 141.3 141.741 141.82 140.421 142.86C139.101 143.86 138.061 145.28 137.301 147.12C136.581 148.92 136.221 151.02 136.221 153.42C136.221 155.82 136.581 157.92 137.301 159.72C138.061 161.52 139.101 162.94 140.421 163.98C141.741 164.98 143.261 165.48 144.981 165.48C146.661 165.48 148.141 164.98 149.421 163.98C150.741 162.94 151.761 161.52 152.481 159.72C153.241 157.92 153.621 155.82 153.621 153.42ZM175.176 145.62C173.416 145.62 171.796 145.22 170.316 144.42C168.876 143.62 167.716 142.56 166.836 141.24C165.996 139.88 165.576 138.38 165.576 136.74C165.576 135.06 165.996 133.56 166.836 132.24C167.716 130.88 168.876 129.8 170.316 129C171.796 128.2 173.416 127.8 175.176 127.8C176.936 127.8 178.536 128.2 179.976 129C181.416 129.8 182.556 130.88 183.396 132.24C184.236 133.56 184.656 135.04 184.656 136.68C184.656 138.32 184.236 139.82 183.396 141.18C182.556 142.54 181.416 143.62 179.976 144.42C178.536 145.22 176.936 145.62 175.176 145.62ZM175.116 142.2C176.036 142.2 176.856 141.96 177.576 141.48C178.336 140.96 178.916 140.28 179.316 139.44C179.756 138.6 179.976 137.7 179.976 136.74C179.976 135.7 179.756 134.76 179.316 133.92C178.876 133.08 178.276 132.42 177.516 131.94C176.796 131.46 176.016 131.22 175.176 131.22C174.256 131.22 173.416 131.48 172.656 132C171.936 132.48 171.356 133.14 170.916 133.98C170.476 134.82 170.256 135.72 170.256 136.68C170.256 137.72 170.476 138.66 170.916 139.5C171.396 140.3 171.996 140.96 172.716 141.48C173.476 141.96 174.276 142.2 175.116 142.2ZM197.196 171.6C195.436 171.6 193.836 171.2 192.396 170.4C190.956 169.6 189.796 168.52 188.916 167.16C188.076 165.8 187.656 164.3 187.656 162.66C187.656 161.02 188.076 159.54 188.916 158.22C189.796 156.86 190.956 155.78 192.396 154.98C193.836 154.18 195.436 153.78 197.196 153.78C198.996 153.78 200.616 154.18 202.056 154.98C203.496 155.74 204.636 156.8 205.476 158.16C206.316 159.52 206.736 161.02 206.736 162.66C206.736 164.3 206.316 165.8 205.476 167.16C204.636 168.52 203.496 169.6 202.056 170.4C200.616 171.2 198.996 171.6 197.196 171.6ZM197.196 168.18C198.116 168.18 198.936 167.92 199.656 167.4C200.416 166.88 200.996 166.22 201.396 165.42C201.836 164.58 202.056 163.68 202.056 162.72C202.056 161.68 201.836 160.74 201.396 159.9C200.956 159.06 200.356 158.4 199.596 157.92C198.876 157.44 198.076 157.2 197.196 157.2C196.316 157.2 195.496 157.46 194.736 157.98C194.016 158.46 193.436 159.12 192.996 159.96C192.556 160.8 192.336 161.7 192.336 162.66C192.336 163.66 192.556 164.58 192.996 165.42C193.476 166.26 194.076 166.94 194.796 167.46C195.516 167.94 196.316 168.18 197.196 168.18ZM168.276 168.6L185.136 148.62L200.976 128.04L204.096 130.74L187.536 150.48L171.336 171.36L168.276 168.6Z" fill="white"/>
<defs>
<linearGradient id="paint0_linear_2645_2525" x1="150" y1="0" x2="150" y2="300" gradientUnits="userSpaceOnUse">
<stop stop-color="#C493FF"/>
<stop offset="1" stop-color="#C493FF"/>
</linearGradient>
</defs>
</svg>
