<svg width="612" height="274" viewBox="0 0 612 274" fill="none" xmlns="http://www.w3.org/2000/svg">
<rect x="214.5" y="0.5" width="183" height="183" rx="8.5" fill="white" stroke="#FF9901"/>
<g filter="url(#filter0_d_2521_204)">
<mask id="path-2-inside-1_2521_204" fill="white">
<path d="M287.597 37.5229C286.05 33.9948 287.637 29.8291 291.335 28.749C301.369 25.8181 312.104 25.9736 322.133 29.2854C334.378 33.3293 344.704 41.7929 351.12 53.0452C357.536 64.2976 359.588 77.5423 356.881 90.2272C354.174 102.912 346.9 114.139 336.46 121.745C326.02 129.351 313.152 132.798 300.338 131.421C287.523 130.044 275.668 123.94 267.057 114.287C258.446 104.634 253.689 92.1134 253.702 79.139C253.712 68.533 256.91 58.237 262.791 49.5681C264.972 46.3537 269.468 46.1448 272.344 48.7556L281.37 56.9491C284.219 59.5353 284.343 63.915 282.616 67.3534C280.791 70.9878 279.816 75.0298 279.812 79.1661C279.806 85.6472 282.182 91.9013 286.484 96.7234C290.785 101.546 296.707 104.594 303.108 105.282C309.509 105.97 315.937 104.248 321.152 100.449C326.367 96.6496 330.001 91.0413 331.353 84.7049C332.705 78.3685 331.68 71.7524 328.475 66.1316C325.27 60.5107 320.112 56.2829 313.995 54.2629C310.126 52.9853 306.047 52.6481 302.081 53.235C298.244 53.8031 294.079 52.3019 292.521 48.749L287.597 37.5229Z"/>
</mask>
<path d="M287.597 37.5229C286.05 33.9948 287.637 29.8291 291.335 28.749C301.369 25.8181 312.104 25.9736 322.133 29.2854C334.378 33.3293 344.704 41.7929 351.12 53.0452C357.536 64.2976 359.588 77.5423 356.881 90.2272C354.174 102.912 346.9 114.139 336.46 121.745C326.02 129.351 313.152 132.798 300.338 131.421C287.523 130.044 275.668 123.94 267.057 114.287C258.446 104.634 253.689 92.1134 253.702 79.139C253.712 68.533 256.91 58.237 262.791 49.5681C264.972 46.3537 269.468 46.1448 272.344 48.7556L281.37 56.9491C284.219 59.5353 284.343 63.915 282.616 67.3534C280.791 70.9878 279.816 75.0298 279.812 79.1661C279.806 85.6472 282.182 91.9013 286.484 96.7234C290.785 101.546 296.707 104.594 303.108 105.282C309.509 105.97 315.937 104.248 321.152 100.449C326.367 96.6496 330.001 91.0413 331.353 84.7049C332.705 78.3685 331.68 71.7524 328.475 66.1316C325.27 60.5107 320.112 56.2829 313.995 54.2629C310.126 52.9853 306.047 52.6481 302.081 53.235C298.244 53.8031 294.079 52.3019 292.521 48.749L287.597 37.5229Z" fill="#FFC164"/>
<path d="M287.597 37.5229C286.05 33.9948 287.637 29.8291 291.335 28.749C301.369 25.8181 312.104 25.9736 322.133 29.2854C334.378 33.3293 344.704 41.7929 351.12 53.0452C357.536 64.2976 359.588 77.5423 356.881 90.2272C354.174 102.912 346.9 114.139 336.46 121.745C326.02 129.351 313.152 132.798 300.338 131.421C287.523 130.044 275.668 123.94 267.057 114.287C258.446 104.634 253.689 92.1134 253.702 79.139C253.712 68.533 256.91 58.237 262.791 49.5681C264.972 46.3537 269.468 46.1448 272.344 48.7556L281.37 56.9491C284.219 59.5353 284.343 63.915 282.616 67.3534C280.791 70.9878 279.816 75.0298 279.812 79.1661C279.806 85.6472 282.182 91.9013 286.484 96.7234C290.785 101.546 296.707 104.594 303.108 105.282C309.509 105.97 315.937 104.248 321.152 100.449C326.367 96.6496 330.001 91.0413 331.353 84.7049C332.705 78.3685 331.68 71.7524 328.475 66.1316C325.27 60.5107 320.112 56.2829 313.995 54.2629C310.126 52.9853 306.047 52.6481 302.081 53.235C298.244 53.8031 294.079 52.3019 292.521 48.749L287.597 37.5229Z" stroke="white" stroke-width="6" mask="url(#path-2-inside-1_2521_204)"/>
</g>
<g opacity="0.2" filter="url(#filter1_d_2521_204)">
<mask id="path-3-inside-2_2521_204" fill="white">
<path d="M272.719 48.1989C269.908 45.5715 269.718 41.125 272.679 38.6671C274.074 37.5081 275.529 36.423 277.037 35.4162C280.264 33.2614 284.504 34.7598 286.186 38.2567L292.424 51.2275C293.581 53.632 292.544 56.4846 290.402 58.0755C288.241 59.68 285.174 59.8408 283.208 58.0033L272.719 48.1989Z"/>
</mask>
<path d="M272.719 48.1989C269.908 45.5715 269.718 41.125 272.679 38.6671C274.074 37.5081 275.529 36.423 277.037 35.4162C280.264 33.2614 284.504 34.7598 286.186 38.2567L292.424 51.2275C293.581 53.632 292.544 56.4846 290.402 58.0755C288.241 59.68 285.174 59.8408 283.208 58.0033L272.719 48.1989Z" fill="#FFC164"/>
<path d="M272.719 48.1989C269.908 45.5715 269.718 41.125 272.679 38.6671C274.074 37.5081 275.529 36.423 277.037 35.4162C280.264 33.2614 284.504 34.7598 286.186 38.2567L292.424 51.2275C293.581 53.632 292.544 56.4846 290.402 58.0755C288.241 59.68 285.174 59.8408 283.208 58.0033L272.719 48.1989Z" stroke="white" stroke-width="6" mask="url(#path-3-inside-2_2521_204)"/>
</g>
<path d="M249.031 150.64L252.455 159.808L255.863 150.64H257.767L253.303 162H251.607L247.127 150.64H249.031ZM261.629 162.16C260.979 162.16 260.387 162.048 259.853 161.824C259.331 161.589 258.877 161.275 258.493 160.88C258.109 160.475 257.811 160.016 257.597 159.504C257.395 158.981 257.293 158.427 257.293 157.84C257.293 157.051 257.475 156.331 257.837 155.68C258.2 155.019 258.707 154.491 259.357 154.096C260.008 153.691 260.771 153.488 261.645 153.488C262.52 153.488 263.272 153.691 263.901 154.096C264.541 154.491 265.037 155.013 265.389 155.664C265.741 156.315 265.917 157.013 265.917 157.76C265.917 157.888 265.912 158.011 265.901 158.128C265.891 158.235 265.88 158.325 265.869 158.4H259.165C259.197 158.891 259.331 159.323 259.565 159.696C259.811 160.059 260.12 160.347 260.493 160.56C260.867 160.763 261.267 160.864 261.693 160.864C262.163 160.864 262.605 160.747 263.021 160.512C263.448 160.277 263.736 159.968 263.885 159.584L265.389 160.016C265.208 160.421 264.931 160.789 264.557 161.12C264.195 161.44 263.763 161.696 263.261 161.888C262.76 162.069 262.216 162.16 261.629 162.16ZM259.117 157.232H264.173C264.141 156.752 264.003 156.331 263.757 155.968C263.523 155.595 263.219 155.307 262.845 155.104C262.483 154.891 262.077 154.784 261.629 154.784C261.192 154.784 260.787 154.891 260.413 155.104C260.051 155.307 259.752 155.595 259.517 155.968C259.283 156.331 259.149 156.752 259.117 157.232ZM272.057 155.152C271.374 155.163 270.766 155.317 270.233 155.616C269.71 155.915 269.337 156.336 269.113 156.88V162H267.353V153.632H268.985V155.504C269.273 154.928 269.652 154.469 270.121 154.128C270.59 153.776 271.086 153.584 271.609 153.552C271.716 153.552 271.801 153.552 271.865 153.552C271.94 153.552 272.004 153.557 272.057 153.568V155.152ZM277.849 162.16C277.209 162.16 276.628 162.011 276.105 161.712C275.593 161.403 275.188 160.992 274.889 160.48V162H273.337V150.32H275.097V155.216C275.428 154.683 275.839 154.261 276.329 153.952C276.831 153.643 277.417 153.488 278.089 153.488C278.644 153.488 279.151 153.605 279.609 153.84C280.068 154.075 280.457 154.395 280.777 154.8C281.108 155.205 281.359 155.669 281.529 156.192C281.711 156.715 281.801 157.269 281.801 157.856C281.801 158.443 281.7 158.997 281.497 159.52C281.305 160.043 281.028 160.501 280.665 160.896C280.303 161.291 279.881 161.6 279.401 161.824C278.932 162.048 278.415 162.16 277.849 162.16ZM277.385 160.656C277.769 160.656 278.121 160.581 278.441 160.432C278.761 160.272 279.039 160.064 279.273 159.808C279.508 159.552 279.684 159.253 279.801 158.912C279.929 158.571 279.993 158.219 279.993 157.856C279.993 157.355 279.887 156.885 279.673 156.448C279.471 156.011 279.183 155.659 278.809 155.392C278.436 155.125 278.004 154.992 277.513 154.992C277.161 154.992 276.831 155.077 276.521 155.248C276.212 155.408 275.935 155.627 275.689 155.904C275.455 156.171 275.257 156.469 275.097 156.8V159.008C275.161 159.253 275.273 159.477 275.433 159.68C275.593 159.872 275.78 160.043 275.993 160.192C276.207 160.331 276.436 160.443 276.681 160.528C276.927 160.613 277.161 160.656 277.385 160.656ZM282.776 159.552C282.776 159.019 282.925 158.555 283.224 158.16C283.533 157.755 283.955 157.445 284.488 157.232C285.021 157.008 285.64 156.896 286.344 156.896C286.717 156.896 287.096 156.923 287.48 156.976C287.875 157.029 288.221 157.115 288.52 157.232V156.704C288.52 156.117 288.344 155.659 287.992 155.328C287.64 154.997 287.133 154.832 286.472 154.832C286.003 154.832 285.56 154.917 285.144 155.088C284.728 155.248 284.285 155.477 283.816 155.776L283.224 154.592C283.779 154.219 284.333 153.941 284.888 153.76C285.453 153.579 286.045 153.488 286.664 153.488C287.784 153.488 288.664 153.787 289.304 154.384C289.955 154.971 290.28 155.808 290.28 156.896V160.016C290.28 160.219 290.312 160.363 290.376 160.448C290.451 160.533 290.573 160.581 290.744 160.592V162C290.584 162.032 290.44 162.053 290.312 162.064C290.184 162.075 290.077 162.08 289.992 162.08C289.619 162.08 289.336 161.989 289.144 161.808C288.952 161.627 288.84 161.413 288.808 161.168L288.76 160.688C288.397 161.157 287.933 161.52 287.368 161.776C286.803 162.032 286.232 162.16 285.656 162.16C285.101 162.16 284.605 162.048 284.168 161.824C283.731 161.589 283.389 161.275 283.144 160.88C282.899 160.485 282.776 160.043 282.776 159.552ZM288.104 160.064C288.232 159.925 288.333 159.787 288.408 159.648C288.483 159.509 288.52 159.387 288.52 159.28V158.32C288.221 158.203 287.907 158.117 287.576 158.064C287.245 158 286.92 157.968 286.6 157.968C285.96 157.968 285.437 158.096 285.032 158.352C284.637 158.608 284.44 158.96 284.44 159.408C284.44 159.653 284.504 159.888 284.632 160.112C284.771 160.336 284.963 160.517 285.208 160.656C285.464 160.795 285.779 160.864 286.152 160.864C286.536 160.864 286.904 160.789 287.256 160.64C287.608 160.491 287.891 160.299 288.104 160.064ZM292.431 150.32H294.191V159.584C294.191 160.011 294.255 160.283 294.383 160.4C294.511 160.517 294.671 160.576 294.863 160.576C295.077 160.576 295.274 160.555 295.455 160.512C295.647 160.469 295.813 160.416 295.951 160.352L296.207 161.744C295.951 161.851 295.647 161.941 295.295 162.016C294.943 162.091 294.629 162.128 294.351 162.128C293.754 162.128 293.285 161.963 292.943 161.632C292.602 161.291 292.431 160.821 292.431 160.224V150.32ZM303.732 150.64H305.428L309.844 162H307.956L306.756 158.912H302.372L301.188 162H299.284L303.732 150.64ZM306.404 157.584L304.58 152.608L302.692 157.584H306.404ZM315.777 162.16C315.105 162.16 314.513 162 314.001 161.68C313.489 161.36 313.083 160.944 312.785 160.432V165.408H311.025V153.632H312.577V155.136C312.897 154.635 313.313 154.235 313.825 153.936C314.337 153.637 314.907 153.488 315.537 153.488C316.113 153.488 316.641 153.605 317.121 153.84C317.601 154.064 318.017 154.379 318.369 154.784C318.721 155.189 318.993 155.653 319.185 156.176C319.387 156.688 319.489 157.232 319.489 157.808C319.489 158.608 319.329 159.339 319.009 160C318.699 160.661 318.262 161.189 317.697 161.584C317.142 161.968 316.502 162.16 315.777 162.16ZM315.201 160.656C315.574 160.656 315.91 160.576 316.209 160.416C316.518 160.256 316.779 160.043 316.993 159.776C317.217 159.509 317.387 159.205 317.505 158.864C317.622 158.523 317.681 158.171 317.681 157.808C317.681 157.424 317.617 157.061 317.489 156.72C317.361 156.379 317.174 156.08 316.929 155.824C316.694 155.568 316.417 155.365 316.097 155.216C315.787 155.067 315.446 154.992 315.073 154.992C314.849 154.992 314.614 155.035 314.369 155.12C314.123 155.205 313.894 155.323 313.681 155.472C313.467 155.621 313.281 155.797 313.121 156C312.961 156.203 312.849 156.416 312.785 156.64V158.832C312.934 159.173 313.131 159.483 313.377 159.76C313.622 160.027 313.905 160.245 314.225 160.416C314.545 160.576 314.87 160.656 315.201 160.656ZM325.603 161.568C325.453 161.643 325.267 161.723 325.043 161.808C324.819 161.893 324.563 161.968 324.275 162.032C323.997 162.096 323.709 162.128 323.411 162.128C323.048 162.128 322.712 162.064 322.403 161.936C322.093 161.808 321.843 161.605 321.651 161.328C321.469 161.04 321.379 160.672 321.379 160.224V154.992H320.275V153.632H321.379V150.88H323.139V153.632H324.963V154.992H323.139V159.664C323.16 159.952 323.251 160.165 323.411 160.304C323.581 160.443 323.789 160.512 324.035 160.512C324.28 160.512 324.515 160.469 324.739 160.384C324.963 160.299 325.128 160.229 325.235 160.176L325.603 161.568ZM326.822 162V153.632H328.582V162H326.822ZM326.822 152.256V150.32H328.582V152.256H326.822ZM335.353 161.568C335.203 161.643 335.017 161.723 334.793 161.808C334.569 161.893 334.313 161.968 334.025 162.032C333.747 162.096 333.459 162.128 333.161 162.128C332.798 162.128 332.462 162.064 332.153 161.936C331.843 161.808 331.593 161.605 331.401 161.328C331.219 161.04 331.129 160.672 331.129 160.224V154.992H330.025V153.632H331.129V150.88H332.889V153.632H334.713V154.992H332.889V159.664C332.91 159.952 333.001 160.165 333.161 160.304C333.331 160.443 333.539 160.512 333.785 160.512C334.03 160.512 334.265 160.469 334.489 160.384C334.713 160.299 334.878 160.229 334.985 160.176L335.353 161.568ZM336.492 158.752V153.632H338.252V158.4C338.252 159.147 338.385 159.712 338.652 160.096C338.929 160.469 339.329 160.656 339.852 160.656C340.182 160.656 340.502 160.587 340.812 160.448C341.132 160.309 341.42 160.107 341.676 159.84C341.942 159.563 342.156 159.232 342.316 158.848V153.632H344.076V160.016C344.076 160.219 344.113 160.363 344.188 160.448C344.262 160.533 344.385 160.581 344.556 160.592V162C344.374 162.032 344.225 162.053 344.108 162.064C343.99 162.075 343.878 162.08 343.772 162.08C343.452 162.08 343.185 161.995 342.972 161.824C342.758 161.643 342.636 161.413 342.604 161.136L342.572 160.304C342.198 160.912 341.713 161.376 341.116 161.696C340.518 162.005 339.862 162.16 339.148 162.16C338.273 162.16 337.612 161.872 337.164 161.296C336.716 160.72 336.492 159.872 336.492 158.752ZM345.794 157.824C345.794 157.024 345.954 156.299 346.274 155.648C346.604 154.987 347.052 154.464 347.618 154.08C348.183 153.685 348.834 153.488 349.57 153.488C350.21 153.488 350.786 153.653 351.298 153.984C351.82 154.315 352.226 154.725 352.514 155.216V150.32H354.274V160.016C354.274 160.219 354.311 160.363 354.386 160.448C354.46 160.533 354.583 160.581 354.754 160.592V162C354.423 162.053 354.167 162.08 353.986 162.08C353.655 162.08 353.372 161.984 353.138 161.792C352.914 161.6 352.796 161.371 352.786 161.104L352.77 160.48C352.45 161.013 352.018 161.429 351.474 161.728C350.93 162.016 350.364 162.16 349.778 162.16C349.202 162.16 348.668 162.048 348.178 161.824C347.698 161.6 347.276 161.285 346.914 160.88C346.562 160.475 346.284 160.011 346.082 159.488C345.89 158.965 345.794 158.411 345.794 157.824ZM352.514 158.992V156.8C352.396 156.459 352.204 156.155 351.938 155.888C351.682 155.611 351.388 155.392 351.058 155.232C350.738 155.072 350.418 154.992 350.098 154.992C349.724 154.992 349.383 155.072 349.074 155.232C348.775 155.392 348.514 155.605 348.29 155.872C348.076 156.139 347.911 156.443 347.794 156.784C347.676 157.125 347.618 157.483 347.618 157.856C347.618 158.24 347.682 158.603 347.81 158.944C347.938 159.275 348.119 159.573 348.354 159.84C348.599 160.096 348.876 160.299 349.186 160.448C349.506 160.587 349.852 160.656 350.226 160.656C350.46 160.656 350.695 160.613 350.93 160.528C351.175 160.443 351.404 160.325 351.618 160.176C351.842 160.027 352.028 159.851 352.178 159.648C352.338 159.445 352.45 159.227 352.514 158.992ZM360.301 162.16C359.65 162.16 359.058 162.048 358.525 161.824C358.002 161.589 357.549 161.275 357.165 160.88C356.781 160.475 356.482 160.016 356.269 159.504C356.066 158.981 355.965 158.427 355.965 157.84C355.965 157.051 356.146 156.331 356.509 155.68C356.872 155.019 357.378 154.491 358.029 154.096C358.68 153.691 359.442 153.488 360.317 153.488C361.192 153.488 361.944 153.691 362.573 154.096C363.213 154.491 363.709 155.013 364.061 155.664C364.413 156.315 364.589 157.013 364.589 157.76C364.589 157.888 364.584 158.011 364.573 158.128C364.562 158.235 364.552 158.325 364.541 158.4H357.837C357.869 158.891 358.002 159.323 358.237 159.696C358.482 160.059 358.792 160.347 359.165 160.56C359.538 160.763 359.938 160.864 360.365 160.864C360.834 160.864 361.277 160.747 361.693 160.512C362.12 160.277 362.408 159.968 362.557 159.584L364.061 160.016C363.88 160.421 363.602 160.789 363.229 161.12C362.866 161.44 362.434 161.696 361.933 161.888C361.432 162.069 360.888 162.16 360.301 162.16ZM357.789 157.232H362.845C362.813 156.752 362.674 156.331 362.429 155.968C362.194 155.595 361.89 155.307 361.517 155.104C361.154 154.891 360.749 154.784 360.301 154.784C359.864 154.784 359.458 154.891 359.085 155.104C358.722 155.307 358.424 155.595 358.189 155.968C357.954 156.331 357.821 156.752 357.789 157.232Z" fill="black"/>
<rect x="0.5" y="90.5" width="183" height="183" rx="8.5" fill="white" stroke="#FF82EB"/>
<g filter="url(#filter2_d_2521_204)">
<mask id="path-6-inside-3_2521_204" fill="white">
<path d="M39.8287 161.808C39.9075 190.816 63.3294 214.268 92.143 214.19C120.956 214.111 144.25 190.532 144.172 161.524C144.093 132.516 120.671 109.064 91.8573 109.142C63.0438 109.22 39.7498 132.799 39.8287 161.808ZM118.061 161.595C118.101 176.085 106.465 187.864 92.0715 187.903C77.6784 187.942 65.9785 176.227 65.9391 161.737C65.8997 147.246 77.5357 135.468 91.9288 135.429C106.322 135.39 118.022 147.105 118.061 161.595Z"/>
</mask>
<path d="M39.8287 161.808C39.9075 190.816 63.3294 214.268 92.143 214.19C120.956 214.111 144.25 190.532 144.172 161.524C144.093 132.516 120.671 109.064 91.8573 109.142C63.0438 109.22 39.7498 132.799 39.8287 161.808ZM118.061 161.595C118.101 176.085 106.465 187.864 92.0715 187.903C77.6784 187.942 65.9785 176.227 65.9391 161.737C65.8997 147.246 77.5357 135.468 91.9288 135.429C106.322 135.39 118.022 147.105 118.061 161.595Z" fill="#FF82EB"/>
<path d="M39.8287 161.808C39.9075 190.816 63.3294 214.268 92.143 214.19C120.956 214.111 144.25 190.532 144.172 161.524C144.093 132.516 120.671 109.064 91.8573 109.142C63.0438 109.22 39.7498 132.799 39.8287 161.808ZM118.061 161.595C118.101 176.085 106.465 187.864 92.0715 187.903C77.6784 187.942 65.9785 176.227 65.9391 161.737C65.8997 147.246 77.5357 135.468 91.9288 135.429C106.322 135.39 118.022 147.105 118.061 161.595Z" stroke="white" stroke-width="6" mask="url(#path-6-inside-3_2521_204)"/>
</g>
<path d="M31.0847 252V240.64H32.8767V250.416H38.9727V252H31.0847ZM43.8707 252.16C43.2094 252.16 42.6174 252.048 42.0947 251.824C41.572 251.589 41.1187 251.269 40.7347 250.864C40.3614 250.459 40.0734 250 39.8707 249.488C39.668 248.965 39.5667 248.411 39.5667 247.824C39.5667 247.237 39.668 246.683 39.8707 246.16C40.0734 245.637 40.3614 245.179 40.7347 244.784C41.1187 244.379 41.572 244.064 42.0947 243.84C42.628 243.605 43.22 243.488 43.8707 243.488C44.5214 243.488 45.108 243.605 45.6307 243.84C46.164 244.064 46.6174 244.379 46.9907 244.784C47.3747 245.179 47.668 245.637 47.8707 246.16C48.0734 246.683 48.1747 247.237 48.1747 247.824C48.1747 248.411 48.0734 248.965 47.8707 249.488C47.668 250 47.3747 250.459 46.9907 250.864C46.6174 251.269 46.164 251.589 45.6307 251.824C45.108 252.048 44.5214 252.16 43.8707 252.16ZM41.3747 247.84C41.3747 248.373 41.4867 248.853 41.7107 249.28C41.9347 249.707 42.2334 250.043 42.6067 250.288C42.98 250.533 43.4014 250.656 43.8707 250.656C44.3294 250.656 44.7454 250.533 45.1187 250.288C45.5027 250.032 45.8067 249.691 46.0307 249.264C46.2547 248.827 46.3667 248.347 46.3667 247.824C46.3667 247.291 46.2547 246.811 46.0307 246.384C45.8067 245.957 45.5027 245.621 45.1187 245.376C44.7454 245.12 44.3294 244.992 43.8707 244.992C43.4014 244.992 42.98 245.12 42.6067 245.376C42.2334 245.632 41.9347 245.973 41.7107 246.4C41.4867 246.816 41.3747 247.296 41.3747 247.84ZM53.0477 252.08C52.4824 252.08 51.965 251.968 51.4957 251.744C51.0264 251.509 50.621 251.195 50.2797 250.8C49.949 250.405 49.6877 249.952 49.4957 249.44C49.3144 248.928 49.2237 248.389 49.2237 247.824C49.2237 247.227 49.3197 246.667 49.5117 246.144C49.7037 245.621 49.9704 245.163 50.3117 244.768C50.6637 244.363 51.0744 244.048 51.5437 243.824C52.013 243.6 52.5357 243.488 53.1117 243.488C53.7837 243.488 54.3704 243.648 54.8717 243.968C55.3837 244.288 55.805 244.704 56.1357 245.216V243.632H57.6877V251.76C57.6877 252.571 57.4904 253.259 57.0957 253.824C56.7117 254.389 56.1837 254.821 55.5117 255.12C54.8397 255.419 54.0824 255.568 53.2397 255.568C52.3117 255.568 51.5437 255.408 50.9357 255.088C50.3277 254.768 49.8104 254.331 49.3837 253.776L50.3757 252.848C50.6957 253.296 51.1064 253.637 51.6077 253.872C52.1197 254.107 52.6637 254.224 53.2397 254.224C53.7197 254.224 54.1624 254.133 54.5677 253.952C54.9837 253.781 55.3144 253.509 55.5597 253.136C55.805 252.773 55.9277 252.315 55.9277 251.76V250.48C55.629 250.981 55.2184 251.376 54.6957 251.664C54.173 251.941 53.6237 252.08 53.0477 252.08ZM53.6237 250.656C53.8904 250.656 54.1464 250.613 54.3917 250.528C54.637 250.432 54.861 250.309 55.0637 250.16C55.277 250 55.4584 249.824 55.6077 249.632C55.757 249.429 55.8637 249.216 55.9277 248.992V246.8C55.789 246.437 55.5917 246.123 55.3357 245.856C55.0797 245.579 54.7917 245.365 54.4717 245.216C54.1517 245.067 53.8264 244.992 53.4957 244.992C53.1117 244.992 52.765 245.077 52.4557 245.248C52.157 245.408 51.901 245.627 51.6877 245.904C51.4744 246.171 51.309 246.475 51.1917 246.816C51.0744 247.157 51.0157 247.509 51.0157 247.872C51.0157 248.256 51.0797 248.613 51.2077 248.944C51.3464 249.275 51.533 249.573 51.7677 249.84C52.0024 250.096 52.2797 250.299 52.5997 250.448C52.9197 250.587 53.261 250.656 53.6237 250.656ZM59.7982 252V243.632H61.5582V252H59.7982ZM59.7982 242.256V240.32H61.5582V242.256H59.7982ZM67.4652 252.16C66.8145 252.16 66.2225 252.048 65.6892 251.824C65.1665 251.589 64.7132 251.269 64.3292 250.864C63.9452 250.459 63.6465 249.995 63.4332 249.472C63.2305 248.949 63.1292 248.395 63.1292 247.808C63.1292 247.019 63.3052 246.299 63.6572 245.648C64.0199 244.997 64.5212 244.475 65.1612 244.08C65.8119 243.685 66.5799 243.488 67.4652 243.488C68.3185 243.488 69.0599 243.68 69.6892 244.064C70.3292 244.437 70.7985 244.939 71.0972 245.568L69.3852 246.112C69.1932 245.76 68.9212 245.488 68.5692 245.296C68.2279 245.093 67.8492 244.992 67.4332 244.992C66.9639 244.992 66.5372 245.115 66.1532 245.36C65.7799 245.595 65.4812 245.925 65.2572 246.352C65.0439 246.768 64.9372 247.253 64.9372 247.808C64.9372 248.341 65.0492 248.827 65.2732 249.264C65.4972 249.691 65.7959 250.032 66.1692 250.288C66.5532 250.533 66.9799 250.656 67.4492 250.656C67.7372 250.656 68.0145 250.608 68.2812 250.512C68.5585 250.405 68.7985 250.267 69.0012 250.096C69.2039 249.915 69.3479 249.717 69.4332 249.504L71.1612 250.016C70.9799 250.432 70.7079 250.8 70.3452 251.12C69.9932 251.44 69.5719 251.696 69.0812 251.888C68.6012 252.069 68.0625 252.16 67.4652 252.16ZM72.0027 249.552C72.0027 249.019 72.152 248.555 72.4507 248.16C72.76 247.755 73.1814 247.445 73.7147 247.232C74.248 247.008 74.8667 246.896 75.5707 246.896C75.944 246.896 76.3227 246.923 76.7067 246.976C77.1014 247.029 77.448 247.115 77.7467 247.232V246.704C77.7467 246.117 77.5707 245.659 77.2187 245.328C76.8667 244.997 76.36 244.832 75.6987 244.832C75.2294 244.832 74.7867 244.917 74.3707 245.088C73.9547 245.248 73.512 245.477 73.0427 245.776L72.4507 244.592C73.0054 244.219 73.56 243.941 74.1147 243.76C74.68 243.579 75.272 243.488 75.8907 243.488C77.0107 243.488 77.8907 243.787 78.5307 244.384C79.1814 244.971 79.5067 245.808 79.5067 246.896V250.016C79.5067 250.219 79.5387 250.363 79.6027 250.448C79.6774 250.533 79.8 250.581 79.9707 250.592V252C79.8107 252.032 79.6667 252.053 79.5387 252.064C79.4107 252.075 79.304 252.08 79.2187 252.08C78.8454 252.08 78.5627 251.989 78.3707 251.808C78.1787 251.627 78.0667 251.413 78.0347 251.168L77.9867 250.688C77.624 251.157 77.16 251.52 76.5947 251.776C76.0294 252.032 75.4587 252.16 74.8827 252.16C74.328 252.16 73.832 252.048 73.3947 251.824C72.9574 251.589 72.616 251.275 72.3707 250.88C72.1254 250.485 72.0027 250.043 72.0027 249.552ZM77.3307 250.064C77.4587 249.925 77.56 249.787 77.6347 249.648C77.7094 249.509 77.7467 249.387 77.7467 249.28V248.32C77.448 248.203 77.1334 248.117 76.8027 248.064C76.472 248 76.1467 247.968 75.8267 247.968C75.1867 247.968 74.664 248.096 74.2587 248.352C73.864 248.608 73.6667 248.96 73.6667 249.408C73.6667 249.653 73.7307 249.888 73.8587 250.112C73.9974 250.336 74.1894 250.517 74.4347 250.656C74.6907 250.795 75.0054 250.864 75.3787 250.864C75.7627 250.864 76.1307 250.789 76.4827 250.64C76.8347 250.491 77.1174 250.299 77.3307 250.064ZM81.6579 240.32H83.4179V249.584C83.4179 250.011 83.4819 250.283 83.6099 250.4C83.7379 250.517 83.8979 250.576 84.0899 250.576C84.3033 250.576 84.5006 250.555 84.6819 250.512C84.8739 250.469 85.0393 250.416 85.1779 250.352L85.4339 251.744C85.1779 251.851 84.8739 251.941 84.5219 252.016C84.1699 252.091 83.8553 252.128 83.5779 252.128C82.9806 252.128 82.5113 251.963 82.1699 251.632C81.8286 251.291 81.6579 250.821 81.6579 250.224V240.32ZM92.9584 240.64H94.6544L99.0704 252H97.1824L95.9824 248.912H91.5984L90.4144 252H88.5104L92.9584 240.64ZM95.6304 247.584L93.8064 242.608L91.9184 247.584H95.6304ZM105.003 252.16C104.331 252.16 103.739 252 103.227 251.68C102.715 251.36 102.31 250.944 102.011 250.432V255.408H100.251V243.632H101.803V245.136C102.123 244.635 102.539 244.235 103.051 243.936C103.563 243.637 104.134 243.488 104.763 243.488C105.339 243.488 105.867 243.605 106.347 243.84C106.827 244.064 107.243 244.379 107.595 244.784C107.947 245.189 108.219 245.653 108.411 246.176C108.614 246.688 108.715 247.232 108.715 247.808C108.715 248.608 108.555 249.339 108.235 250C107.926 250.661 107.489 251.189 106.923 251.584C106.369 251.968 105.729 252.16 105.003 252.16ZM104.427 250.656C104.801 250.656 105.137 250.576 105.435 250.416C105.745 250.256 106.006 250.043 106.219 249.776C106.443 249.509 106.614 249.205 106.731 248.864C106.849 248.523 106.907 248.171 106.907 247.808C106.907 247.424 106.843 247.061 106.715 246.72C106.587 246.379 106.401 246.08 106.155 245.824C105.921 245.568 105.643 245.365 105.323 245.216C105.014 245.067 104.673 244.992 104.299 244.992C104.075 244.992 103.841 245.035 103.595 245.12C103.35 245.205 103.121 245.323 102.907 245.472C102.694 245.621 102.507 245.797 102.347 246C102.187 246.203 102.075 246.416 102.011 246.64V248.832C102.161 249.173 102.358 249.483 102.603 249.76C102.849 250.027 103.131 250.245 103.451 250.416C103.771 250.576 104.097 250.656 104.427 250.656ZM114.829 251.568C114.68 251.643 114.493 251.723 114.269 251.808C114.045 251.893 113.789 251.968 113.501 252.032C113.224 252.096 112.936 252.128 112.637 252.128C112.275 252.128 111.939 252.064 111.629 251.936C111.32 251.808 111.069 251.605 110.877 251.328C110.696 251.04 110.605 250.672 110.605 250.224V244.992H109.501V243.632H110.605V240.88H112.365V243.632H114.189V244.992H112.365V249.664C112.387 249.952 112.477 250.165 112.637 250.304C112.808 250.443 113.016 250.512 113.261 250.512C113.507 250.512 113.741 250.469 113.965 250.384C114.189 250.299 114.355 250.229 114.461 250.176L114.829 251.568ZM116.048 252V243.632H117.808V252H116.048ZM116.048 242.256V240.32H117.808V242.256H116.048ZM124.579 251.568C124.43 251.643 124.243 251.723 124.019 251.808C123.795 251.893 123.539 251.968 123.251 252.032C122.974 252.096 122.686 252.128 122.387 252.128C122.025 252.128 121.689 252.064 121.379 251.936C121.07 251.808 120.819 251.605 120.627 251.328C120.446 251.04 120.355 250.672 120.355 250.224V244.992H119.251V243.632H120.355V240.88H122.115V243.632H123.939V244.992H122.115V249.664C122.137 249.952 122.227 250.165 122.387 250.304C122.558 250.443 122.766 250.512 123.011 250.512C123.257 250.512 123.491 250.469 123.715 250.384C123.939 250.299 124.105 250.229 124.211 250.176L124.579 251.568ZM125.718 248.752V243.632H127.478V248.4C127.478 249.147 127.612 249.712 127.878 250.096C128.156 250.469 128.556 250.656 129.078 250.656C129.409 250.656 129.729 250.587 130.038 250.448C130.358 250.309 130.646 250.107 130.902 249.84C131.169 249.563 131.382 249.232 131.542 248.848V243.632H133.302V250.016C133.302 250.219 133.34 250.363 133.414 250.448C133.489 250.533 133.612 250.581 133.782 250.592V252C133.601 252.032 133.452 252.053 133.334 252.064C133.217 252.075 133.105 252.08 132.998 252.08C132.678 252.08 132.412 251.995 132.198 251.824C131.985 251.643 131.862 251.413 131.83 251.136L131.798 250.304C131.425 250.912 130.94 251.376 130.342 251.696C129.745 252.005 129.089 252.16 128.374 252.16C127.5 252.16 126.838 251.872 126.39 251.296C125.942 250.72 125.718 249.872 125.718 248.752ZM135.02 247.824C135.02 247.024 135.18 246.299 135.5 245.648C135.831 244.987 136.279 244.464 136.844 244.08C137.41 243.685 138.06 243.488 138.796 243.488C139.436 243.488 140.012 243.653 140.524 243.984C141.047 244.315 141.452 244.725 141.74 245.216V240.32H143.5V250.016C143.5 250.219 143.538 250.363 143.612 250.448C143.687 250.533 143.81 250.581 143.98 250.592V252C143.65 252.053 143.394 252.08 143.212 252.08C142.882 252.08 142.599 251.984 142.364 251.792C142.14 251.6 142.023 251.371 142.012 251.104L141.996 250.48C141.676 251.013 141.244 251.429 140.7 251.728C140.156 252.016 139.591 252.16 139.004 252.16C138.428 252.16 137.895 252.048 137.404 251.824C136.924 251.6 136.503 251.285 136.14 250.88C135.788 250.475 135.511 250.011 135.308 249.488C135.116 248.965 135.02 248.411 135.02 247.824ZM141.74 248.992V246.8C141.623 246.459 141.431 246.155 141.164 245.888C140.908 245.611 140.615 245.392 140.284 245.232C139.964 245.072 139.644 244.992 139.324 244.992C138.951 244.992 138.61 245.072 138.3 245.232C138.002 245.392 137.74 245.605 137.516 245.872C137.303 246.139 137.138 246.443 137.02 246.784C136.903 247.125 136.844 247.483 136.844 247.856C136.844 248.24 136.908 248.603 137.036 248.944C137.164 249.275 137.346 249.573 137.58 249.84C137.826 250.096 138.103 250.299 138.412 250.448C138.732 250.587 139.079 250.656 139.452 250.656C139.687 250.656 139.922 250.613 140.156 250.528C140.402 250.443 140.631 250.325 140.844 250.176C141.068 250.027 141.255 249.851 141.404 249.648C141.564 249.445 141.676 249.227 141.74 248.992ZM149.528 252.16C148.877 252.16 148.285 252.048 147.752 251.824C147.229 251.589 146.776 251.275 146.392 250.88C146.008 250.475 145.709 250.016 145.496 249.504C145.293 248.981 145.192 248.427 145.192 247.84C145.192 247.051 145.373 246.331 145.736 245.68C146.098 245.019 146.605 244.491 147.256 244.096C147.906 243.691 148.669 243.488 149.544 243.488C150.418 243.488 151.17 243.691 151.8 244.096C152.44 244.491 152.936 245.013 153.288 245.664C153.64 246.315 153.816 247.013 153.816 247.76C153.816 247.888 153.81 248.011 153.8 248.128C153.789 248.235 153.778 248.325 153.768 248.4H147.064C147.096 248.891 147.229 249.323 147.464 249.696C147.709 250.059 148.018 250.347 148.392 250.56C148.765 250.763 149.165 250.864 149.592 250.864C150.061 250.864 150.504 250.747 150.92 250.512C151.346 250.277 151.634 249.968 151.784 249.584L153.288 250.016C153.106 250.421 152.829 250.789 152.456 251.12C152.093 251.44 151.661 251.696 151.16 251.888C150.658 252.069 150.114 252.16 149.528 252.16ZM147.016 247.232H152.072C152.04 246.752 151.901 246.331 151.656 245.968C151.421 245.595 151.117 245.307 150.744 245.104C150.381 244.891 149.976 244.784 149.528 244.784C149.09 244.784 148.685 244.891 148.312 245.104C147.949 245.307 147.65 245.595 147.416 245.968C147.181 246.331 147.048 246.752 147.016 247.232Z" fill="black"/>
<rect x="428.5" y="90.5" width="183" height="183" rx="8.5" fill="white" stroke="#C89DFA"/>
<g filter="url(#filter3_d_2521_204)">
<path d="M503.871 125.402C503.145 123.323 504.233 121.031 506.359 120.457C516.119 117.822 526.46 118.091 536.116 121.276C547.037 124.878 556.471 132.01 562.954 141.564C569.436 151.118 572.604 162.56 571.965 174.112C571.326 185.664 566.916 196.68 559.42 205.45C551.924 214.22 541.762 220.252 530.511 222.611C519.26 224.969 507.55 223.522 497.2 218.493C486.849 213.464 478.438 205.136 473.271 194.801C468.704 185.663 466.898 175.41 468.03 165.302C468.277 163.103 470.392 161.677 472.566 162.095L490.357 165.515C492.522 165.931 493.91 168.026 493.83 170.23C493.67 174.626 494.611 179.016 496.595 182.984C499.175 188.146 503.377 192.307 508.547 194.819C513.718 197.331 519.567 198.054 525.187 196.876C530.807 195.697 535.884 192.684 539.628 188.303C543.372 183.923 545.575 178.42 545.894 172.649C546.214 166.879 544.631 161.163 541.393 156.391C538.155 151.618 533.443 148.056 527.987 146.256C523.81 144.879 519.377 144.593 515.099 145.396C512.921 145.805 510.629 144.739 509.898 142.647L503.871 125.402Z" fill="#C393FA" fill-opacity="0.91" shape-rendering="crispEdges"/>
<path d="M503.871 125.402C503.145 123.323 504.233 121.031 506.359 120.457C516.119 117.822 526.46 118.091 536.116 121.276C547.037 124.878 556.471 132.01 562.954 141.564C569.436 151.118 572.604 162.56 571.965 174.112C571.326 185.664 566.916 196.68 559.42 205.45C551.924 214.22 541.762 220.252 530.511 222.611C519.26 224.969 507.55 223.522 497.2 218.493C486.849 213.464 478.438 205.136 473.271 194.801C468.704 185.663 466.898 175.41 468.03 165.302C468.277 163.103 470.392 161.677 472.566 162.095L490.357 165.515C492.522 165.931 493.91 168.026 493.83 170.23C493.67 174.626 494.611 179.016 496.595 182.984C499.175 188.146 503.377 192.307 508.547 194.819C513.718 197.331 519.567 198.054 525.187 196.876C530.807 195.697 535.884 192.684 539.628 188.303C543.372 183.923 545.575 178.42 545.894 172.649C546.214 166.879 544.631 161.163 541.393 156.391C538.155 151.618 533.443 148.056 527.987 146.256C523.81 144.879 519.377 144.593 515.099 145.396C512.921 145.805 510.629 144.739 509.898 142.647L503.871 125.402Z" stroke="white" stroke-width="3" shape-rendering="crispEdges"/>
</g>
<g opacity="0.2">
<mask id="path-10-inside-4_2521_204" fill="white">
<path d="M482.983 159.363C480.875 158.703 479.684 156.449 480.539 154.411C483.864 146.482 489.505 139.735 496.72 135.057C498.574 133.855 501.003 134.628 502.027 136.586L506.251 144.665C507.274 146.622 506.493 149.016 504.717 150.331C501.444 152.755 498.794 155.926 496.988 159.576C496.008 161.556 493.791 162.75 491.683 162.089L482.983 159.363Z"/>
</mask>
<path d="M482.983 159.363C480.875 158.703 479.684 156.449 480.539 154.411C483.864 146.482 489.505 139.735 496.72 135.057C498.574 133.855 501.003 134.628 502.027 136.586L506.251 144.665C507.274 146.622 506.493 149.016 504.717 150.331C501.444 152.755 498.794 155.926 496.988 159.576C496.008 161.556 493.791 162.75 491.683 162.089L482.983 159.363Z" fill="#D6BEFE" stroke="white" stroke-width="2" mask="url(#path-10-inside-4_2521_204)"/>
</g>
<path d="M449.174 245.894V253.926H447.382V242.566H448.854L455.286 250.774V242.582H457.094V253.926H455.526L449.174 245.894ZM459.343 250.678V245.558H461.103V250.326C461.103 251.072 461.237 251.638 461.503 252.022C461.781 252.395 462.181 252.582 462.703 252.582C463.034 252.582 463.354 252.512 463.663 252.374C463.983 252.235 464.271 252.032 464.527 251.766C464.794 251.488 465.007 251.158 465.167 250.774V245.558H466.927V251.942C466.927 252.144 466.965 252.288 467.039 252.374C467.114 252.459 467.237 252.507 467.407 252.518V253.926C467.226 253.958 467.077 253.979 466.959 253.99C466.842 254 466.73 254.006 466.623 254.006C466.303 254.006 466.037 253.92 465.823 253.75C465.61 253.568 465.487 253.339 465.455 253.062L465.423 252.23C465.05 252.838 464.565 253.302 463.967 253.622C463.37 253.931 462.714 254.086 461.999 254.086C461.125 254.086 460.463 253.798 460.015 253.222C459.567 252.646 459.343 251.798 459.343 250.678ZM481.973 253.926H480.213V249.238C480.213 248.459 480.085 247.888 479.829 247.526C479.573 247.163 479.2 246.982 478.709 246.982C478.219 246.982 477.76 247.168 477.333 247.542C476.917 247.904 476.624 248.379 476.453 248.966V253.926H474.693V249.238C474.693 248.459 474.565 247.888 474.309 247.526C474.053 247.163 473.685 246.982 473.205 246.982C472.715 246.982 472.256 247.163 471.829 247.526C471.413 247.888 471.115 248.363 470.933 248.95V253.926H469.173V245.558H470.773V247.238C471.104 246.651 471.536 246.203 472.069 245.894C472.613 245.574 473.232 245.414 473.925 245.414C474.619 245.414 475.163 245.595 475.557 245.958C475.963 246.32 476.213 246.774 476.309 247.318C476.672 246.699 477.115 246.23 477.637 245.91C478.171 245.579 478.779 245.414 479.461 245.414C479.952 245.414 480.363 245.504 480.693 245.686C481.024 245.867 481.28 246.118 481.461 246.438C481.643 246.747 481.771 247.11 481.845 247.526C481.931 247.931 481.973 248.363 481.973 248.822V253.926ZM487.793 254.086C487.143 254.086 486.551 253.974 486.017 253.75C485.495 253.515 485.041 253.2 484.657 252.806C484.273 252.4 483.975 251.942 483.761 251.43C483.559 250.907 483.457 250.352 483.457 249.766C483.457 248.976 483.639 248.256 484.001 247.606C484.364 246.944 484.871 246.416 485.521 246.022C486.172 245.616 486.935 245.414 487.809 245.414C488.684 245.414 489.436 245.616 490.065 246.022C490.705 246.416 491.201 246.939 491.553 247.59C491.905 248.24 492.081 248.939 492.081 249.686C492.081 249.814 492.076 249.936 492.065 250.054C492.055 250.16 492.044 250.251 492.033 250.326H485.329C485.361 250.816 485.495 251.248 485.729 251.622C485.975 251.984 486.284 252.272 486.657 252.486C487.031 252.688 487.431 252.79 487.857 252.79C488.327 252.79 488.769 252.672 489.185 252.438C489.612 252.203 489.9 251.894 490.049 251.51L491.553 251.942C491.372 252.347 491.095 252.715 490.721 253.046C490.359 253.366 489.927 253.622 489.425 253.814C488.924 253.995 488.38 254.086 487.793 254.086ZM485.281 249.158H490.337C490.305 248.678 490.167 248.256 489.921 247.894C489.687 247.52 489.383 247.232 489.009 247.03C488.647 246.816 488.241 246.71 487.793 246.71C487.356 246.71 486.951 246.816 486.577 247.03C486.215 247.232 485.916 247.52 485.681 247.894C485.447 248.256 485.313 248.678 485.281 249.158ZM498.221 247.078C497.538 247.088 496.93 247.243 496.397 247.542C495.874 247.84 495.501 248.262 495.277 248.806V253.926H493.517V245.558H495.149V247.43C495.437 246.854 495.816 246.395 496.285 246.054C496.754 245.702 497.25 245.51 497.773 245.478C497.88 245.478 497.965 245.478 498.029 245.478C498.104 245.478 498.168 245.483 498.221 245.494V247.078ZM499.501 253.926V245.558H501.261V253.926H499.501ZM499.501 244.182V242.246H501.261V244.182H499.501ZM507.168 254.086C506.518 254.086 505.926 253.974 505.392 253.75C504.87 253.515 504.416 253.195 504.032 252.79C503.648 252.384 503.35 251.92 503.136 251.398C502.934 250.875 502.832 250.32 502.832 249.734C502.832 248.944 503.008 248.224 503.36 247.574C503.723 246.923 504.224 246.4 504.864 246.006C505.515 245.611 506.283 245.414 507.168 245.414C508.022 245.414 508.763 245.606 509.392 245.99C510.032 246.363 510.502 246.864 510.8 247.494L509.088 248.038C508.896 247.686 508.624 247.414 508.272 247.222C507.931 247.019 507.552 246.918 507.136 246.918C506.667 246.918 506.24 247.04 505.856 247.286C505.483 247.52 505.184 247.851 504.96 248.278C504.747 248.694 504.64 249.179 504.64 249.734C504.64 250.267 504.752 250.752 504.976 251.19C505.2 251.616 505.499 251.958 505.872 252.214C506.256 252.459 506.683 252.582 507.152 252.582C507.44 252.582 507.718 252.534 507.984 252.438C508.262 252.331 508.502 252.192 508.704 252.022C508.907 251.84 509.051 251.643 509.136 251.43L510.864 251.942C510.683 252.358 510.411 252.726 510.048 253.046C509.696 253.366 509.275 253.622 508.784 253.814C508.304 253.995 507.766 254.086 507.168 254.086ZM511.706 251.478C511.706 250.944 511.855 250.48 512.154 250.086C512.463 249.68 512.884 249.371 513.418 249.158C513.951 248.934 514.57 248.822 515.274 248.822C515.647 248.822 516.026 248.848 516.41 248.902C516.804 248.955 517.151 249.04 517.45 249.158V248.63C517.45 248.043 517.274 247.584 516.922 247.254C516.57 246.923 516.063 246.758 515.402 246.758C514.932 246.758 514.49 246.843 514.074 247.014C513.658 247.174 513.215 247.403 512.746 247.702L512.154 246.518C512.708 246.144 513.263 245.867 513.818 245.686C514.383 245.504 514.975 245.414 515.594 245.414C516.714 245.414 517.594 245.712 518.234 246.31C518.884 246.896 519.21 247.734 519.21 248.822V251.942C519.21 252.144 519.242 252.288 519.306 252.374C519.38 252.459 519.503 252.507 519.674 252.518V253.926C519.514 253.958 519.37 253.979 519.242 253.99C519.114 254 519.007 254.006 518.922 254.006C518.548 254.006 518.266 253.915 518.074 253.734C517.882 253.552 517.77 253.339 517.738 253.094L517.69 252.614C517.327 253.083 516.863 253.446 516.298 253.702C515.732 253.958 515.162 254.086 514.586 254.086C514.031 254.086 513.535 253.974 513.098 253.75C512.66 253.515 512.319 253.2 512.074 252.806C511.828 252.411 511.706 251.968 511.706 251.478ZM517.034 251.99C517.162 251.851 517.263 251.712 517.338 251.574C517.412 251.435 517.45 251.312 517.45 251.206V250.246C517.151 250.128 516.836 250.043 516.506 249.99C516.175 249.926 515.85 249.894 515.53 249.894C514.89 249.894 514.367 250.022 513.962 250.278C513.567 250.534 513.37 250.886 513.37 251.334C513.37 251.579 513.434 251.814 513.562 252.038C513.7 252.262 513.892 252.443 514.138 252.582C514.394 252.72 514.708 252.79 515.082 252.79C515.466 252.79 515.834 252.715 516.186 252.566C516.538 252.416 516.82 252.224 517.034 251.99ZM521.361 242.246H523.121V251.51C523.121 251.936 523.185 252.208 523.313 252.326C523.441 252.443 523.601 252.502 523.793 252.502C524.006 252.502 524.204 252.48 524.385 252.438C524.577 252.395 524.742 252.342 524.881 252.278L525.137 253.67C524.881 253.776 524.577 253.867 524.225 253.942C523.873 254.016 523.558 254.054 523.281 254.054C522.684 254.054 522.214 253.888 521.873 253.558C521.532 253.216 521.361 252.747 521.361 252.15V242.246ZM532.662 242.566H534.358L538.774 253.926H536.886L535.686 250.838H531.302L530.118 253.926H528.214L532.662 242.566ZM535.334 249.51L533.51 244.534L531.622 249.51H535.334ZM544.706 254.086C544.034 254.086 543.442 253.926 542.93 253.606C542.418 253.286 542.013 252.87 541.714 252.358V257.334H539.954V245.558H541.506V247.062C541.826 246.56 542.242 246.16 542.754 245.862C543.266 245.563 543.837 245.414 544.466 245.414C545.042 245.414 545.57 245.531 546.05 245.766C546.53 245.99 546.946 246.304 547.298 246.71C547.65 247.115 547.922 247.579 548.114 248.102C548.317 248.614 548.418 249.158 548.418 249.734C548.418 250.534 548.258 251.264 547.938 251.926C547.629 252.587 547.192 253.115 546.626 253.51C546.072 253.894 545.432 254.086 544.706 254.086ZM544.13 252.582C544.504 252.582 544.84 252.502 545.138 252.342C545.448 252.182 545.709 251.968 545.922 251.702C546.146 251.435 546.317 251.131 546.434 250.79C546.552 250.448 546.61 250.096 546.61 249.734C546.61 249.35 546.546 248.987 546.418 248.646C546.29 248.304 546.104 248.006 545.858 247.75C545.624 247.494 545.346 247.291 545.026 247.142C544.717 246.992 544.376 246.918 544.002 246.918C543.778 246.918 543.544 246.96 543.298 247.046C543.053 247.131 542.824 247.248 542.61 247.398C542.397 247.547 542.21 247.723 542.05 247.926C541.89 248.128 541.778 248.342 541.714 248.566V250.758C541.864 251.099 542.061 251.408 542.306 251.686C542.552 251.952 542.834 252.171 543.154 252.342C543.474 252.502 543.8 252.582 544.13 252.582ZM554.532 253.494C554.383 253.568 554.196 253.648 553.972 253.734C553.748 253.819 553.492 253.894 553.204 253.958C552.927 254.022 552.639 254.054 552.34 254.054C551.978 254.054 551.642 253.99 551.332 253.862C551.023 253.734 550.772 253.531 550.58 253.254C550.399 252.966 550.308 252.598 550.308 252.15V246.918H549.204V245.558H550.308V242.806H552.068V245.558H553.892V246.918H552.068V251.59C552.09 251.878 552.18 252.091 552.34 252.23C552.511 252.368 552.719 252.438 552.964 252.438C553.21 252.438 553.444 252.395 553.668 252.31C553.892 252.224 554.058 252.155 554.164 252.102L554.532 253.494ZM555.751 253.926V245.558H557.511V253.926H555.751ZM555.751 244.182V242.246H557.511V244.182H555.751ZM564.282 253.494C564.133 253.568 563.946 253.648 563.722 253.734C563.498 253.819 563.242 253.894 562.954 253.958C562.677 254.022 562.389 254.054 562.09 254.054C561.728 254.054 561.392 253.99 561.082 253.862C560.773 253.734 560.522 253.531 560.33 253.254C560.149 252.966 560.058 252.598 560.058 252.15V246.918H558.954V245.558H560.058V242.806H561.818V245.558H563.642V246.918H561.818V251.59C561.84 251.878 561.93 252.091 562.09 252.23C562.261 252.368 562.469 252.438 562.714 252.438C562.96 252.438 563.194 252.395 563.418 252.31C563.642 252.224 563.808 252.155 563.914 252.102L564.282 253.494ZM565.421 250.678V245.558H567.181V250.326C567.181 251.072 567.315 251.638 567.581 252.022C567.859 252.395 568.259 252.582 568.781 252.582C569.112 252.582 569.432 252.512 569.741 252.374C570.061 252.235 570.349 252.032 570.605 251.766C570.872 251.488 571.085 251.158 571.245 250.774V245.558H573.005V251.942C573.005 252.144 573.043 252.288 573.117 252.374C573.192 252.459 573.315 252.507 573.485 252.518V253.926C573.304 253.958 573.155 253.979 573.037 253.99C572.92 254 572.808 254.006 572.701 254.006C572.381 254.006 572.115 253.92 571.901 253.75C571.688 253.568 571.565 253.339 571.533 253.062L571.501 252.23C571.128 252.838 570.643 253.302 570.045 253.622C569.448 253.931 568.792 254.086 568.077 254.086C567.203 254.086 566.541 253.798 566.093 253.222C565.645 252.646 565.421 251.798 565.421 250.678ZM574.723 249.75C574.723 248.95 574.883 248.224 575.203 247.574C575.534 246.912 575.982 246.39 576.547 246.006C577.113 245.611 577.763 245.414 578.499 245.414C579.139 245.414 579.715 245.579 580.227 245.91C580.75 246.24 581.155 246.651 581.443 247.142V242.246H583.203V251.942C583.203 252.144 583.241 252.288 583.315 252.374C583.39 252.459 583.513 252.507 583.683 252.518V253.926C583.353 253.979 583.097 254.006 582.915 254.006C582.585 254.006 582.302 253.91 582.067 253.718C581.843 253.526 581.726 253.296 581.715 253.03L581.699 252.406C581.379 252.939 580.947 253.355 580.403 253.654C579.859 253.942 579.294 254.086 578.707 254.086C578.131 254.086 577.598 253.974 577.107 253.75C576.627 253.526 576.206 253.211 575.843 252.806C575.491 252.4 575.214 251.936 575.011 251.414C574.819 250.891 574.723 250.336 574.723 249.75ZM581.443 250.918V248.726C581.326 248.384 581.134 248.08 580.867 247.814C580.611 247.536 580.318 247.318 579.987 247.158C579.667 246.998 579.347 246.918 579.027 246.918C578.654 246.918 578.313 246.998 578.003 247.158C577.705 247.318 577.443 247.531 577.219 247.798C577.006 248.064 576.841 248.368 576.723 248.71C576.606 249.051 576.547 249.408 576.547 249.782C576.547 250.166 576.611 250.528 576.739 250.87C576.867 251.2 577.049 251.499 577.283 251.766C577.529 252.022 577.806 252.224 578.115 252.374C578.435 252.512 578.782 252.582 579.155 252.582C579.39 252.582 579.625 252.539 579.859 252.454C580.105 252.368 580.334 252.251 580.547 252.102C580.771 251.952 580.958 251.776 581.107 251.574C581.267 251.371 581.379 251.152 581.443 250.918ZM589.231 254.086C588.58 254.086 587.988 253.974 587.455 253.75C586.932 253.515 586.479 253.2 586.095 252.806C585.711 252.4 585.412 251.942 585.199 251.43C584.996 250.907 584.895 250.352 584.895 249.766C584.895 248.976 585.076 248.256 585.439 247.606C585.801 246.944 586.308 246.416 586.959 246.022C587.609 245.616 588.372 245.414 589.247 245.414C590.121 245.414 590.873 245.616 591.503 246.022C592.143 246.416 592.639 246.939 592.991 247.59C593.343 248.24 593.519 248.939 593.519 249.686C593.519 249.814 593.513 249.936 593.503 250.054C593.492 250.16 593.481 250.251 593.471 250.326H586.767C586.799 250.816 586.932 251.248 587.167 251.622C587.412 251.984 587.721 252.272 588.095 252.486C588.468 252.688 588.868 252.79 589.295 252.79C589.764 252.79 590.207 252.672 590.623 252.438C591.049 252.203 591.337 251.894 591.487 251.51L592.991 251.942C592.809 252.347 592.532 252.715 592.159 253.046C591.796 253.366 591.364 253.622 590.863 253.814C590.361 253.995 589.817 254.086 589.231 254.086ZM586.719 249.158H591.775C591.743 248.678 591.604 248.256 591.359 247.894C591.124 247.52 590.82 247.232 590.447 247.03C590.084 246.816 589.679 246.71 589.231 246.71C588.793 246.71 588.388 246.816 588.015 247.03C587.652 247.232 587.353 247.52 587.119 247.894C586.884 248.256 586.751 248.678 586.719 249.158Z" fill="black"/>
<defs>
<filter id="filter0_d_2521_204" x="244.602" y="18.008" width="122.544" height="123.251" filterUnits="userSpaceOnUse" color-interpolation-filters="sRGB">
<feFlood flood-opacity="0" result="BackgroundImageFix"/>
<feColorMatrix in="SourceAlpha" type="matrix" values="0 0 0 0 0 0 0 0 0 0 0 0 0 0 0 0 0 0 127 0" result="hardAlpha"/>
<feOffset dy="0.44"/>
<feGaussianBlur stdDeviation="4.55"/>
<feComposite in2="hardAlpha" operator="out"/>
<feColorMatrix type="matrix" values="0 0 0 0 0.93 0 0 0 0 0.93 0 0 0 0 0.93 0 0 0 1 0"/>
<feBlend mode="normal" in2="BackgroundImageFix" result="effect1_dropShadow_2521_204"/>
<feBlend mode="normal" in="SourceGraphic" in2="effect1_dropShadow_2521_204" result="shape"/>
</filter>
<filter id="filter1_d_2521_204" x="261.434" y="25.7541" width="40.5701" height="43.118" filterUnits="userSpaceOnUse" color-interpolation-filters="sRGB">
<feFlood flood-opacity="0" result="BackgroundImageFix"/>
<feColorMatrix in="SourceAlpha" type="matrix" values="0 0 0 0 0 0 0 0 0 0 0 0 0 0 0 0 0 0 127 0" result="hardAlpha"/>
<feOffset dy="0.44"/>
<feGaussianBlur stdDeviation="4.55"/>
<feComposite in2="hardAlpha" operator="out"/>
<feColorMatrix type="matrix" values="0 0 0 0 0.93 0 0 0 0 0.93 0 0 0 0 0.93 0 0 0 1 0"/>
<feBlend mode="normal" in2="BackgroundImageFix" result="effect1_dropShadow_2521_204"/>
<feBlend mode="normal" in="SourceGraphic" in2="effect1_dropShadow_2521_204" result="shape"/>
</filter>
<filter id="filter2_d_2521_204" x="30.7284" y="100.481" width="122.544" height="123.251" filterUnits="userSpaceOnUse" color-interpolation-filters="sRGB">
<feFlood flood-opacity="0" result="BackgroundImageFix"/>
<feColorMatrix in="SourceAlpha" type="matrix" values="0 0 0 0 0 0 0 0 0 0 0 0 0 0 0 0 0 0 127 0" result="hardAlpha"/>
<feOffset dy="0.44"/>
<feGaussianBlur stdDeviation="4.55"/>
<feComposite in2="hardAlpha" operator="out"/>
<feColorMatrix type="matrix" values="0 0 0 0 0.93 0 0 0 0 0.93 0 0 0 0 0.93 0 0 0 1 0"/>
<feBlend mode="normal" in2="BackgroundImageFix" result="effect1_dropShadow_2521_204"/>
<feBlend mode="normal" in="SourceGraphic" in2="effect1_dropShadow_2521_204" result="shape"/>
</filter>
<filter id="filter3_d_2521_204" x="457.102" y="108.504" width="125.543" height="126.251" filterUnits="userSpaceOnUse" color-interpolation-filters="sRGB">
<feFlood flood-opacity="0" result="BackgroundImageFix"/>
<feColorMatrix in="SourceAlpha" type="matrix" values="0 0 0 0 0 0 0 0 0 0 0 0 0 0 0 0 0 0 127 0" result="hardAlpha"/>
<feOffset dy="0.44"/>
<feGaussianBlur stdDeviation="4.55"/>
<feComposite in2="hardAlpha" operator="out"/>
<feColorMatrix type="matrix" values="0 0 0 0 0.93 0 0 0 0 0.93 0 0 0 0 0.93 0 0 0 1 0"/>
<feBlend mode="normal" in2="BackgroundImageFix" result="effect1_dropShadow_2521_204"/>
<feBlend mode="normal" in="SourceGraphic" in2="effect1_dropShadow_2521_204" result="shape"/>
</filter>
</defs>
</svg>
