<svg width="106" height="106" viewBox="0 0 106 106" fill="none" xmlns="http://www.w3.org/2000/svg">
<g clip-path="url(#clip0_2453_412)">
<path d="M71.5322 54.089C72.1343 54.691 73.1104 54.691 73.7124 54.089C74.3145 53.4869 74.3145 52.5108 73.7124 51.9087C73.1104 51.3067 72.1343 51.3067 71.5322 51.9087C70.9301 52.5108 70.9301 53.4869 71.5322 54.089Z" fill="#FF6AE8"/>
<path d="M20.6714 44.2779C19.0361 44.2776 17.4676 44.927 16.3109 46.0831L11.5754 50.8186C10.9972 51.3968 10.6723 52.1811 10.6723 52.9989C10.6723 53.8166 10.9972 54.6009 11.5754 55.1791L18.1162 61.7198C18.6944 62.2981 19.4787 62.6229 20.2964 62.6229C21.1142 62.6229 21.8984 62.2981 22.4767 61.7198L24.6569 59.5396C25.2351 58.9614 26.0194 58.6365 26.8372 58.6365C27.6549 58.6365 28.4392 58.9614 29.0174 59.5396L31.1976 61.7198C31.7759 62.2981 32.5601 62.6229 33.3779 62.6229C34.1956 62.6229 34.9799 62.2981 35.5581 61.7198L37.7384 59.5396C38.3166 58.9614 39.1009 58.6365 39.9186 58.6365C40.7364 58.6365 41.5206 58.9614 42.0989 59.5396L42.4739 59.9146C43.6305 61.0707 45.199 61.7201 46.8344 61.7198H50.3838C52.3584 65.8056 55.6612 69.1002 59.7517 71.0649C63.8423 73.0295 68.4785 73.5478 72.9019 72.5349C77.3253 71.522 81.274 69.038 84.1021 65.4892C86.9302 61.9403 88.4702 57.5367 88.4702 52.9989C88.4702 48.461 86.9302 44.0574 84.1021 40.5086C81.274 36.9597 77.3253 34.4757 72.9019 33.4628C68.4785 32.4499 63.8423 32.9682 59.7517 34.9328C55.6612 36.8975 52.3584 40.1921 50.3838 44.2779H20.6714Z" stroke="#FF6AE8" stroke-width="4" stroke-linecap="round" stroke-linejoin="round"/>
<path d="M71.5322 54.089C72.1343 54.691 73.1104 54.691 73.7124 54.089C74.3145 53.4869 74.3145 52.5108 73.7124 51.9087C73.1104 51.3067 72.1343 51.3067 71.5322 51.9087C70.9301 52.5108 70.9301 53.4869 71.5322 54.089Z" stroke="#FF6AE8" stroke-width="4" stroke-linecap="round" stroke-linejoin="round"/>
</g>
<defs>
<clipPath id="clip0_2453_412">
<rect width="74" height="74" fill="white" transform="translate(53 0.673828) rotate(45)"/>
</clipPath>
</defs>
</svg>
