<svg width="590" height="300" viewBox="0 0 590 300" fill="none" xmlns="http://www.w3.org/2000/svg">
<circle cx="471" cy="148" r="119" fill="url(#paint0_linear_2800_9)"/>
<circle cx="471" cy="148" r="83" fill="#E5D0FF"/>
<path d="M413.212 149.5C413.212 146.78 413.892 144.3 415.252 142.06C416.612 139.82 418.452 138.04 420.772 136.72C423.132 135.4 425.752 134.74 428.632 134.74C431.752 134.74 434.472 135.5 436.792 137.02C439.112 138.5 440.912 140.66 442.192 143.5C443.512 146.3 444.172 149.68 444.172 153.64C444.172 159.08 443.492 163.62 442.132 167.26C440.812 170.9 438.932 173.64 436.492 175.48C434.052 177.32 431.192 178.24 427.912 178.24C425.232 178.24 422.752 177.6 420.472 176.32C418.192 175.08 416.352 173.34 414.952 171.1L418.852 167.02C419.772 168.66 421.052 169.98 422.692 170.98C424.332 171.98 426.112 172.48 428.032 172.48C430.032 172.48 431.772 171.9 433.252 170.74C434.732 169.62 435.872 167.98 436.672 165.82C437.512 163.66 437.952 161.04 437.992 157.96C437.432 159.12 436.652 160.14 435.652 161.02C434.652 161.9 433.492 162.58 432.172 163.06C430.892 163.54 429.492 163.78 427.972 163.78C425.212 163.78 422.712 163.14 420.472 161.86C418.232 160.58 416.452 158.88 415.132 156.76C413.852 154.6 413.212 152.18 413.212 149.5ZM428.572 140.38C426.932 140.38 425.412 140.8 424.012 141.64C422.652 142.44 421.552 143.54 420.712 144.94C419.912 146.3 419.512 147.82 419.512 149.5C419.512 151.14 419.912 152.64 420.712 154C421.552 155.36 422.652 156.46 424.012 157.3C425.412 158.1 426.932 158.5 428.572 158.5C430.252 158.5 431.772 158.1 433.132 157.3C434.492 156.46 435.572 155.36 436.372 154C437.212 152.64 437.632 151.14 437.632 149.5C437.632 147.86 437.212 146.34 436.372 144.94C435.532 143.54 434.432 142.44 433.072 141.64C431.712 140.8 430.212 140.38 428.572 140.38ZM480.284 151.42C480.284 154.94 479.604 158.08 478.244 160.84C476.924 163.56 475.104 165.7 472.784 167.26C470.504 168.82 467.884 169.6 464.924 169.6C462.004 169.6 459.384 168.82 457.064 167.26C454.744 165.7 452.904 163.56 451.544 160.84C450.224 158.08 449.564 154.94 449.564 151.42C449.564 147.9 450.224 144.78 451.544 142.06C452.904 139.3 454.744 137.14 457.064 135.58C459.384 133.98 462.004 133.18 464.924 133.18C467.884 133.18 470.504 133.98 472.784 135.58C475.104 137.14 476.924 139.3 478.244 142.06C479.604 144.78 480.284 147.9 480.284 151.42ZM473.564 151.42C473.564 149.02 473.204 146.92 472.484 145.12C471.764 143.28 470.744 141.86 469.424 140.86C468.104 139.82 466.604 139.3 464.924 139.3C463.204 139.3 461.684 139.82 460.364 140.86C459.044 141.86 458.004 143.28 457.244 145.12C456.524 146.92 456.164 149.02 456.164 151.42C456.164 153.82 456.524 155.92 457.244 157.72C458.004 159.52 459.044 160.94 460.364 161.98C461.684 162.98 463.204 163.48 464.924 163.48C466.604 163.48 468.084 162.98 469.364 161.98C470.684 160.94 471.704 159.52 472.424 157.72C473.184 155.92 473.564 153.82 473.564 151.42ZM495.119 143.62C493.359 143.62 491.739 143.22 490.259 142.42C488.819 141.62 487.659 140.56 486.779 139.24C485.939 137.88 485.519 136.38 485.519 134.74C485.519 133.06 485.939 131.56 486.779 130.24C487.659 128.88 488.819 127.8 490.259 127C491.739 126.2 493.359 125.8 495.119 125.8C496.879 125.8 498.479 126.2 499.919 127C501.359 127.8 502.499 128.88 503.339 130.24C504.179 131.56 504.599 133.04 504.599 134.68C504.599 136.32 504.179 137.82 503.339 139.18C502.499 140.54 501.359 141.62 499.919 142.42C498.479 143.22 496.879 143.62 495.119 143.62ZM495.059 140.2C495.979 140.2 496.799 139.96 497.519 139.48C498.279 138.96 498.859 138.28 499.259 137.44C499.699 136.6 499.919 135.7 499.919 134.74C499.919 133.7 499.699 132.76 499.259 131.92C498.819 131.08 498.219 130.42 497.459 129.94C496.739 129.46 495.959 129.22 495.119 129.22C494.199 129.22 493.359 129.48 492.599 130C491.879 130.48 491.299 131.14 490.859 131.98C490.419 132.82 490.199 133.72 490.199 134.68C490.199 135.72 490.419 136.66 490.859 137.5C491.339 138.3 491.939 138.96 492.659 139.48C493.419 139.96 494.219 140.2 495.059 140.2ZM517.139 169.6C515.379 169.6 513.779 169.2 512.339 168.4C510.899 167.6 509.739 166.52 508.859 165.16C508.019 163.8 507.599 162.3 507.599 160.66C507.599 159.02 508.019 157.54 508.859 156.22C509.739 154.86 510.899 153.78 512.339 152.98C513.779 152.18 515.379 151.78 517.139 151.78C518.939 151.78 520.559 152.18 521.999 152.98C523.439 153.74 524.579 154.8 525.419 156.16C526.259 157.52 526.679 159.02 526.679 160.66C526.679 162.3 526.259 163.8 525.419 165.16C524.579 166.52 523.439 167.6 521.999 168.4C520.559 169.2 518.939 169.6 517.139 169.6ZM517.139 166.18C518.059 166.18 518.879 165.92 519.599 165.4C520.359 164.88 520.939 164.22 521.339 163.42C521.779 162.58 521.999 161.68 521.999 160.72C521.999 159.68 521.779 158.74 521.339 157.9C520.899 157.06 520.299 156.4 519.539 155.92C518.819 155.44 518.019 155.2 517.139 155.2C516.259 155.2 515.439 155.46 514.679 155.98C513.959 156.46 513.379 157.12 512.939 157.96C512.499 158.8 512.279 159.7 512.279 160.66C512.279 161.66 512.499 162.58 512.939 163.42C513.419 164.26 514.019 164.94 514.739 165.46C515.459 165.94 516.259 166.18 517.139 166.18ZM488.219 166.6L505.079 146.62L520.919 126.04L524.039 128.74L507.479 148.48L491.279 169.36L488.219 166.6Z" fill="white"/>
<path d="M480.228 37.5193L482.725 37.7957L487.375 55.2402L484.595 54.9325L483.332 50.1906L476.877 49.4762L474.631 53.8295L471.828 53.5193L480.228 37.5193ZM483.03 48.1781L481.155 40.5549L477.565 47.5732L483.03 48.1781Z" fill="white"/>
<path d="M498.92 58.503C498.002 58.2069 497.219 57.7795 496.569 57.2211C495.939 56.6524 495.446 55.995 495.089 55.2489C494.732 54.5028 494.522 53.7128 494.459 52.8789C494.412 52.0499 494.521 51.222 494.788 50.395C495.148 49.2824 495.723 48.3475 496.516 47.5906C497.323 46.8385 498.268 46.3299 499.349 46.0648C500.446 45.8046 501.618 45.876 502.866 46.279C504.069 46.6673 505.027 47.2754 505.739 48.1031C506.471 48.9206 506.905 49.8409 507.039 50.8639L504.379 50.8516C504.268 50.268 504.009 49.7608 503.6 49.33C503.211 48.8889 502.723 48.5738 502.137 48.3844C501.475 48.1708 500.818 48.1495 500.165 48.3206C499.532 48.4815 498.96 48.8117 498.451 49.3111C497.961 49.8004 497.589 50.436 497.337 51.2179C497.094 51.9696 497.031 52.7047 497.148 53.4232C497.269 54.1265 497.535 54.7436 497.945 55.2744C498.374 55.795 498.92 56.1621 499.582 56.3757C499.988 56.5067 500.4 56.5653 500.82 56.5513C501.259 56.5272 501.661 56.441 502.024 56.2926C502.392 56.1293 502.685 55.9167 502.902 55.6548L505.105 57.1629C504.66 57.6668 504.109 58.0617 503.453 58.3478C502.811 58.6386 502.1 58.8077 501.321 58.8551C500.562 58.8922 499.762 58.7748 498.92 58.503Z" fill="white"/>
<path d="M514.629 65.0582C513.781 64.5996 513.089 64.0365 512.552 63.3688C512.036 62.6947 511.671 61.9583 511.456 61.1596C511.242 60.3608 511.179 59.5458 511.27 58.7145C511.374 57.8907 511.633 57.0967 512.047 56.3323C512.603 55.3039 513.34 54.4899 514.257 53.8903C515.188 53.2982 516.209 52.9705 517.321 52.9074C518.447 52.8517 519.587 53.1359 520.74 53.7598C521.852 54.3612 522.683 55.1338 523.232 56.0777C523.803 57.0151 524.061 57.999 524.006 59.0294L521.392 58.5316C521.39 57.9377 521.228 57.3917 520.904 56.8934C520.602 56.3888 520.181 55.99 519.639 55.6968C519.027 55.366 518.385 55.2251 517.712 55.2741C517.06 55.3168 516.438 55.5371 515.845 55.9351C515.274 56.3267 514.793 56.8839 514.402 57.6065C514.026 58.3014 513.83 59.0126 513.814 59.7403C513.805 60.454 513.953 61.1092 514.259 61.7059C514.587 62.2961 515.056 62.7566 515.668 63.0874C516.043 63.2904 516.438 63.4233 516.853 63.4861C517.29 63.5426 517.7 63.5311 518.084 63.4516C518.476 63.3582 518.803 63.2026 519.064 62.9847L520.955 64.8696C520.425 65.2838 519.812 65.5716 519.114 65.7329C518.43 65.9017 517.7 65.9383 516.926 65.8427C516.173 65.7406 515.407 65.4791 514.629 65.0582Z" fill="white"/>
<path d="M527.81 66.9309L532.617 61.0646L534.633 62.7168L530.157 68.1798C529.456 69.0353 529.078 69.8082 529.023 70.4986C528.991 71.1867 529.274 71.7761 529.872 72.2667C530.251 72.5772 530.683 72.7981 531.168 72.9297C531.664 73.0712 532.185 73.1094 532.728 73.0442C533.294 72.9767 533.849 72.7982 534.393 72.5084L539.29 66.5321L541.306 68.1844L535.313 75.4989C535.123 75.7311 535.03 75.9312 535.036 76.099C535.041 76.2669 535.137 76.4371 535.322 76.6095L534 78.2227C533.763 78.0892 533.571 77.9734 533.427 77.8755C533.283 77.7775 533.149 77.6785 533.027 77.5784C532.66 77.278 532.435 76.9298 532.351 76.534C532.277 76.126 532.351 75.7481 532.575 75.4003L533.319 74.4169C532.321 74.7631 531.329 74.8391 530.344 74.645C529.37 74.4386 528.473 74 527.654 73.3291C526.652 72.5079 526.164 71.5571 526.192 70.4765C526.219 69.396 526.759 68.2141 527.81 66.9309Z" fill="white"/>
<path d="M550.89 81.2899C550.205 80.5454 549.435 80.0253 548.579 79.7298C547.734 79.446 546.9 79.4483 546.078 79.7366L540.415 84.7815L538.681 82.835L547.936 74.5896L549.544 76.3946L547.474 78.2392C548.394 77.9901 549.275 77.957 550.115 78.1397C550.966 78.3119 551.668 78.6713 552.218 79.2178C552.323 79.3358 552.407 79.4302 552.47 79.501C552.544 79.5836 552.601 79.6596 552.642 79.7291L550.89 81.2899Z" fill="white"/>
<path d="M548.601 88.5144C549.262 88.0822 549.959 87.8913 550.69 87.9418C551.443 87.9969 552.168 88.2686 552.865 88.757C553.575 89.2367 554.215 89.9131 554.786 90.7859C555.088 91.2488 555.362 91.74 555.607 92.2593C555.861 92.7919 556.036 93.2909 556.132 93.7563L556.787 93.3284C557.515 92.8529 557.941 92.263 558.065 91.5586C558.19 90.8542 557.984 90.092 557.449 89.272C557.068 88.6901 556.604 88.2104 556.055 87.8329C555.519 87.4467 554.876 87.0837 554.126 86.7438L555.114 85.0503C556.026 85.4355 556.82 85.8985 557.494 86.4392C558.177 86.9932 558.769 87.6538 559.271 88.4209C560.178 89.8096 560.521 91.1427 560.299 92.4203C560.099 93.7025 559.324 94.7845 557.975 95.6662L554.107 98.1946C553.856 98.3589 553.703 98.5153 553.649 98.6638C553.604 98.8255 553.644 99.0165 553.769 99.2367L552.023 100.378C551.854 100.205 551.71 100.044 551.593 99.894C551.477 99.744 551.383 99.616 551.314 99.5102C551.012 99.0473 550.895 98.6234 550.964 98.2383C551.034 97.8533 551.207 97.5416 551.486 97.3031L552.042 96.8546C551.166 96.7853 550.34 96.5038 549.565 96.0104C548.789 95.5169 548.168 94.913 547.701 94.1988C547.252 93.5111 546.989 92.8053 546.912 92.0816C546.849 91.3491 546.962 90.6709 547.253 90.0469C547.543 89.4229 547.993 88.912 548.601 88.5144ZM552.284 95.5355C552.56 95.5818 552.814 95.5951 553.046 95.5753C553.279 95.5555 553.461 95.5024 553.593 95.416L554.783 94.638C554.687 94.1726 554.538 93.7133 554.336 93.2601C554.147 92.7982 553.923 92.3689 553.664 91.9721C553.145 91.1786 552.563 90.6342 551.917 90.3391C551.28 90.0573 550.683 90.0978 550.128 90.4609C549.824 90.6597 549.585 90.9292 549.411 91.2695C549.245 91.6229 549.176 92.008 549.203 92.4245C549.239 92.8543 549.408 93.3007 549.71 93.7635C550.021 94.2397 550.412 94.6354 550.883 94.9509C551.353 95.2663 551.82 95.4612 552.284 95.5355Z" fill="white"/>
<path d="M557.059 111.096C556.687 110.207 556.501 109.335 556.501 108.478C556.523 107.629 556.7 106.827 557.034 106.07C557.368 105.313 557.831 104.64 558.423 104.049C559.021 103.473 559.721 103.017 560.522 102.681C561.6 102.229 562.685 102.058 563.775 102.166C564.872 102.289 565.873 102.675 566.778 103.323C567.69 103.986 568.399 104.922 568.906 106.132C569.395 107.297 569.557 108.42 569.393 109.5C569.249 110.588 568.833 111.516 568.144 112.284L566.421 110.257C566.792 109.793 567.008 109.266 567.068 108.675C567.15 108.093 567.071 107.517 566.833 106.949C566.565 106.308 566.153 105.795 565.598 105.411C565.063 105.035 564.441 104.817 563.73 104.755C563.039 104.701 562.315 104.834 561.557 105.151C560.829 105.456 560.23 105.887 559.76 106.444C559.306 106.994 559.011 107.597 558.875 108.254C558.759 108.919 558.836 109.572 559.105 110.213C559.269 110.607 559.494 110.958 559.778 111.268C560.082 111.585 560.409 111.834 560.758 112.013C561.122 112.186 561.474 112.27 561.814 112.264L562.104 114.918C561.432 114.909 560.773 114.748 560.129 114.435C559.49 114.138 558.899 113.709 558.356 113.148C557.833 112.596 557.401 111.912 557.059 111.096Z" fill="white"/>
<path d="M558.533 122.687C558.554 122.925 558.573 123.155 558.59 123.378C558.595 123.62 558.613 123.81 558.644 123.949C558.703 124.211 558.837 124.416 559.048 124.563C559.247 124.729 559.585 124.864 560.061 124.968C560.538 125.073 561.217 125.18 562.1 125.291L573.091 117.623L573.683 120.283L565 126.102L575.239 127.27L575.785 129.722L559.666 127.557C559.181 127.487 558.718 127.332 558.276 127.09C557.818 126.852 557.428 126.518 557.105 126.088C556.783 125.658 556.55 125.119 556.405 124.472C556.364 124.286 556.337 124.09 556.323 123.883C556.309 123.676 556.306 123.442 556.312 123.181L558.533 122.687Z" fill="white"/>
<path d="M564.807 145.208L577.201 145.059L577.232 147.666L564.838 147.815L564.807 145.208ZM579.239 145.034L582.106 145L582.138 147.607L579.27 147.641L579.239 145.034Z" fill="white"/>
<path d="M563.632 163.61L563.949 161.022L570.841 161.864C571.986 162.004 572.848 161.918 573.428 161.607C574.005 161.311 574.338 160.803 574.426 160.081C574.487 159.58 574.423 159.062 574.233 158.53C574.042 158.013 573.75 157.532 573.359 157.086C572.983 156.642 572.524 156.3 571.98 156.058L564.664 155.165L564.98 152.577L577.284 154.08L576.996 156.432L574.526 156.13C575.037 156.511 575.458 156.976 575.788 157.526C576.133 158.093 576.376 158.712 576.517 159.382C576.658 160.052 576.684 160.747 576.596 161.469C576.506 162.206 576.299 162.793 575.975 163.231C575.649 163.685 575.234 164.016 574.731 164.226C574.242 164.452 573.686 164.575 573.063 164.595C572.453 164.632 571.811 164.609 571.137 164.527L563.632 163.61Z" fill="white"/>
<path d="M568.253 181.343C569.19 181.762 570.032 182.337 570.779 183.068C571.54 183.806 572.146 184.656 572.598 185.619C573.059 186.604 573.299 187.654 573.32 188.771C573.355 189.894 573.111 191.039 572.59 192.208C571.971 193.593 571.119 194.649 570.033 195.375C568.962 196.108 567.826 196.501 566.626 196.553L566.2 194.079C566.949 194.067 567.604 193.918 568.164 193.632C568.718 193.36 569.183 192.997 569.559 192.542C569.929 192.102 570.223 191.636 570.442 191.146C570.803 190.338 570.953 189.557 570.892 188.803C570.845 188.055 570.648 187.353 570.301 186.696C569.947 186.054 569.487 185.476 568.92 184.963C568.347 184.465 567.728 184.068 567.065 183.771C566.329 183.443 565.56 183.247 564.758 183.183C563.97 183.125 563.213 183.194 562.486 183.388C561.767 183.603 561.121 183.946 560.547 184.417C559.973 184.888 559.526 185.484 559.204 186.205C558.985 186.696 558.842 187.247 558.777 187.858C558.712 188.469 558.76 189.078 558.921 189.687C559.09 190.316 559.419 190.896 559.909 191.426L557.864 192.926C557.241 192.267 556.814 191.48 556.583 190.563C556.345 189.661 556.276 188.731 556.376 187.772C556.469 186.827 556.696 185.951 557.056 185.143C557.54 184.061 558.205 183.172 559.051 182.477C559.912 181.789 560.863 181.288 561.903 180.974C562.957 180.666 564.034 180.541 565.133 180.599C566.246 180.663 567.286 180.911 568.253 181.343Z" fill="white"/>
<path d="M554.285 199.199C554.926 199.662 555.353 200.244 555.568 200.945C555.786 201.668 555.791 202.442 555.585 203.268C555.391 204.102 554.988 204.942 554.377 205.787C554.053 206.235 553.693 206.667 553.295 207.081C552.889 207.509 552.486 207.851 552.086 208.108L552.72 208.566C553.424 209.075 554.127 209.262 554.829 209.126C555.532 208.991 556.17 208.526 556.744 207.732C557.151 207.169 557.433 206.563 557.589 205.916C557.758 205.277 557.867 204.547 557.916 203.724L559.851 204.041C559.817 205.031 559.669 205.938 559.405 206.761C559.132 207.597 558.728 208.386 558.191 209.129C557.219 210.473 556.097 211.27 554.824 211.52C553.555 211.792 552.268 211.456 550.962 210.512L547.216 207.805C546.973 207.629 546.772 207.542 546.614 207.545C546.447 207.56 546.283 207.666 546.122 207.862L544.432 206.64C544.532 206.42 544.632 206.229 544.73 206.066C544.828 205.903 544.915 205.77 544.989 205.668C545.313 205.22 545.667 204.959 546.051 204.886C546.435 204.813 546.789 204.863 547.111 205.038L547.729 205.397C547.48 204.554 547.447 203.682 547.631 202.782C547.814 201.881 548.155 201.085 548.655 200.393C549.137 199.727 549.702 199.229 550.35 198.899C551.011 198.577 551.685 198.441 552.372 198.489C553.058 198.537 553.696 198.773 554.285 199.199ZM549.047 205.151C549.102 205.425 549.181 205.667 549.283 205.877C549.384 206.087 549.499 206.238 549.627 206.33L550.78 207.164C551.18 206.907 551.555 206.603 551.906 206.253C552.27 205.911 552.591 205.548 552.868 205.164C553.424 204.396 553.724 203.657 553.768 202.949C553.803 202.253 553.552 201.71 553.014 201.322C552.72 201.109 552.382 200.982 552.002 200.941C551.613 200.913 551.229 200.986 550.85 201.161C550.461 201.348 550.105 201.665 549.781 202.113C549.447 202.574 549.218 203.081 549.092 203.633C548.965 204.185 548.95 204.691 549.047 205.151Z" fill="white"/>
<path d="M532.39 219.151L534.285 217.36L539.055 222.406C539.848 223.244 540.566 223.728 541.211 223.858C541.844 223.998 542.425 223.819 542.953 223.32C543.32 222.972 543.601 222.533 543.795 222.002C543.977 221.482 544.059 220.925 544.042 220.332C544.036 219.751 543.901 219.194 543.637 218.661L538.573 213.305L540.467 211.514L548.983 220.521L547.261 222.149L545.551 220.341C545.701 220.96 545.729 221.587 545.633 222.221C545.536 222.878 545.328 223.509 545.009 224.115C544.691 224.721 544.267 225.273 543.739 225.773C543.2 226.283 542.665 226.603 542.136 226.733C541.596 226.875 541.065 226.866 540.544 226.706C540.023 226.568 539.516 226.308 539.024 225.925C538.531 225.565 538.051 225.138 537.584 224.644L532.39 219.151Z" fill="white"/>
<path d="M530.786 228.694C531.412 229.7 531.779 230.738 531.886 231.806C531.988 232.897 531.834 233.905 531.424 234.83C531.022 235.769 530.358 236.527 529.433 237.103C528.628 237.604 527.774 237.847 526.871 237.832C525.955 237.825 525.124 237.626 524.378 237.235L528.211 243.391L525.998 244.769L518.407 232.577C518.248 232.322 518.088 232.17 517.928 232.121C517.767 232.072 517.575 232.108 517.352 232.228L516.25 230.458C516.624 230.132 516.925 229.898 517.153 229.756C517.569 229.497 517.999 229.397 518.445 229.454C518.877 229.52 519.204 229.717 519.426 230.044L519.935 230.816C519.92 229.895 520.137 229.033 520.587 228.232C521.046 227.444 521.644 226.82 522.382 226.361C523.106 225.91 523.864 225.633 524.657 225.531C525.436 225.437 526.212 225.503 526.985 225.728C527.745 225.962 528.457 226.329 529.121 226.827C529.772 227.334 530.327 227.957 530.786 228.694ZM521.422 232.487L523.138 235.243C523.552 235.58 524.032 235.812 524.576 235.939C525.115 236.087 525.655 236.132 526.196 236.075C526.724 236.025 527.189 235.875 527.591 235.625C528.061 235.333 528.427 234.965 528.691 234.521C528.941 234.086 529.103 233.614 529.176 233.103C529.235 232.601 529.205 232.089 529.085 231.568C528.966 231.047 528.76 230.551 528.467 230.082C528.167 229.599 527.802 229.193 527.374 228.864C526.954 228.549 526.492 228.315 525.989 228.163C525.48 228.034 524.972 227.996 524.466 228.05C523.955 228.126 523.465 228.311 522.996 228.603C522.701 228.787 522.439 229.024 522.211 229.315C521.969 229.614 521.773 229.941 521.621 230.296C521.457 230.659 521.36 231.027 521.33 231.399C521.288 231.779 521.318 232.141 521.422 232.487Z" fill="white"/>
<path d="M510.273 233.359L515.282 244.697L512.897 245.751L507.888 234.413L510.273 233.359ZM516.105 246.562L517.264 249.185L514.88 250.238L513.721 247.615L516.105 246.562Z" fill="white"/>
<path d="M506.096 242.162C506.418 243.303 506.481 244.401 506.287 245.458C506.081 246.533 505.653 247.459 505.002 248.234C504.354 249.024 503.506 249.567 502.457 249.863C501.544 250.12 500.657 250.116 499.794 249.85C498.916 249.589 498.173 249.167 497.565 248.583L499.534 255.563L497.025 256.271L493.125 242.448C493.044 242.159 492.933 241.969 492.792 241.877C492.651 241.786 492.457 241.766 492.209 241.82L491.643 239.813C492.093 239.604 492.447 239.463 492.706 239.39C493.177 239.257 493.619 239.28 494.031 239.459C494.427 239.643 494.687 239.923 494.809 240.299L495.083 241.182C495.325 240.293 495.773 239.526 496.429 238.881C497.088 238.252 497.836 237.819 498.673 237.583C499.494 237.352 500.299 237.297 501.089 237.419C501.863 237.545 502.59 237.824 503.27 238.256C503.935 238.693 504.517 239.242 505.016 239.906C505.5 240.574 505.86 241.326 506.096 242.162ZM496.046 243.2L496.928 246.325C497.232 246.764 497.628 247.121 498.116 247.393C498.592 247.686 499.098 247.88 499.634 247.975C500.155 248.074 500.643 248.059 501.099 247.931C501.631 247.781 502.086 247.529 502.463 247.177C502.824 246.829 503.111 246.419 503.323 245.949C503.52 245.483 503.633 244.983 503.663 244.449C503.693 243.916 503.633 243.383 503.483 242.85C503.328 242.303 503.091 241.812 502.772 241.377C502.456 240.957 502.078 240.604 501.636 240.318C501.183 240.052 500.706 239.874 500.205 239.786C499.693 239.717 499.171 239.757 498.639 239.908C498.304 240.002 497.987 240.157 497.687 240.373C497.371 240.594 497.091 240.853 496.847 241.152C496.588 241.455 496.393 241.781 496.261 242.13C496.115 242.483 496.043 242.84 496.046 243.2Z" fill="white"/>
<path d="M486.003 244.711C486.067 245.498 485.901 246.201 485.507 246.819C485.099 247.455 484.514 247.961 483.752 248.34C482.991 248.734 482.091 248.973 481.051 249.057C480.5 249.101 479.938 249.107 479.364 249.074C478.775 249.042 478.253 248.957 477.799 248.819L477.861 249.599C477.931 250.465 478.246 251.121 478.805 251.568C479.364 252.014 480.131 252.198 481.108 252.119C481.801 252.063 482.444 251.885 483.038 251.583C483.633 251.298 484.26 250.906 484.917 250.41L485.932 252.087C485.157 252.704 484.371 253.18 483.574 253.514C482.761 253.849 481.898 254.053 480.984 254.127C479.331 254.26 477.996 253.923 476.98 253.118C475.949 252.329 475.369 251.131 475.24 249.525L474.869 244.918C474.845 244.619 474.78 244.41 474.676 244.292C474.555 244.175 474.368 244.119 474.115 244.123L473.948 242.044C474.18 241.978 474.39 241.929 474.578 241.898C474.766 241.867 474.922 241.847 475.048 241.837C475.6 241.792 476.028 241.892 476.333 242.137C476.638 242.382 476.829 242.684 476.905 243.042L477.033 243.745C477.513 243.009 478.155 242.419 478.959 241.973C479.763 241.528 480.59 241.271 481.441 241.203C482.26 241.137 483.005 241.243 483.678 241.522C484.351 241.816 484.893 242.24 485.302 242.794C485.711 243.347 485.945 243.986 486.003 244.711ZM478.076 244.589C477.903 244.809 477.77 245.025 477.676 245.239C477.583 245.453 477.542 245.638 477.555 245.796L477.669 247.213C478.124 247.351 478.599 247.439 479.093 247.479C479.589 247.534 480.073 247.542 480.546 247.504C481.491 247.428 482.247 247.177 482.815 246.751C483.367 246.326 483.617 245.783 483.564 245.121C483.534 244.759 483.412 244.42 483.196 244.105C482.965 243.79 482.66 243.546 482.281 243.37C481.887 243.196 481.414 243.131 480.863 243.175C480.296 243.221 479.761 243.375 479.259 243.637C478.757 243.9 478.363 244.217 478.076 244.589Z" fill="white"/>
<path d="M460.987 242.197C461.215 242.101 461.499 242.001 461.838 241.896C462.177 241.791 462.563 241.705 462.995 241.638C463.411 241.569 463.839 241.55 464.281 241.578C464.817 241.613 465.307 241.739 465.753 241.958C466.198 242.176 466.549 242.5 466.806 242.928C467.047 243.371 467.146 243.924 467.103 244.586L466.605 252.32L468.237 252.425L468.108 254.435L466.476 254.33L466.214 258.398L463.612 258.231L463.874 254.163L461.178 253.989L461.308 251.979L464.004 252.152L464.448 245.246C464.444 244.818 464.331 244.494 464.107 244.274C463.868 244.053 463.567 243.931 463.205 243.907C462.842 243.884 462.491 243.925 462.152 244.03C461.813 244.134 461.562 244.221 461.399 244.29L460.987 242.197Z" fill="white"/>
<path d="M452.009 239.873C452.95 240.08 453.771 240.43 454.472 240.923C455.153 241.429 455.709 242.028 456.139 242.721C456.566 243.43 456.852 244.188 456.998 244.997C457.125 245.817 457.096 246.652 456.909 247.501C456.658 248.643 456.167 249.627 455.436 250.453C454.701 251.294 453.8 251.897 452.733 252.261C451.663 252.641 450.495 252.692 449.23 252.414C447.964 252.136 446.941 251.604 446.159 250.817C445.359 250.043 444.807 249.129 444.505 248.076C444.202 247.023 444.17 245.956 444.407 244.876C444.448 244.691 444.494 244.515 444.547 244.348C444.596 244.197 444.641 244.07 444.68 243.965L454.379 246.096C454.488 245.376 454.433 244.708 454.212 244.094C453.972 243.491 453.616 242.976 453.144 242.549C452.668 242.137 452.122 241.863 451.504 241.727C450.825 241.578 450.148 241.607 449.471 241.815C448.779 242.019 448.264 242.375 447.926 242.883L445.888 241.78C446.279 241.251 446.797 240.807 447.442 240.447C448.069 240.099 448.775 239.866 449.561 239.748C450.344 239.645 451.16 239.686 452.009 239.873ZM454.077 247.801L446.762 246.194C446.656 246.898 446.723 247.552 446.962 248.155C447.183 248.769 447.531 249.283 448.007 249.695C448.464 250.119 449.017 250.402 449.665 250.544C450.297 250.683 450.918 250.658 451.526 250.468C452.115 250.29 452.638 249.968 453.097 249.502C453.551 249.052 453.878 248.485 454.077 247.801Z" fill="white"/>
<path d="M429.949 238.641L428.882 240.73L422.57 237.508L423.637 235.419L429.949 238.641Z" fill="white"/>
<path d="M413.432 222.804L402.165 235.302L396.726 230.398C396.163 229.89 395.752 229.308 395.494 228.65C395.237 227.992 395.112 227.316 395.121 226.622C395.118 225.917 395.239 225.24 395.485 224.589C395.72 223.928 396.064 223.345 396.519 222.841C397.016 222.289 397.592 221.851 398.247 221.526C398.901 221.202 399.58 221.027 400.283 221.001C400.975 220.965 401.642 221.088 402.283 221.368L403.628 213.965L405.845 215.964L404.637 222.756L407.541 225.374L411.461 221.026L413.432 222.804ZM405.97 227.117L402.52 224.007C402.156 223.679 401.738 223.493 401.266 223.451C400.794 223.408 400.317 223.489 399.836 223.693C399.343 223.908 398.907 224.227 398.526 224.65C398.134 225.084 397.879 225.556 397.76 226.066C397.631 226.587 397.623 227.091 397.738 227.577C397.841 228.053 398.068 228.449 398.42 228.767L401.765 231.782L405.97 227.117Z" fill="white"/>
<path d="M396.092 204.635C396.671 205.425 397.056 206.231 397.246 207.051C397.423 207.881 397.438 208.703 397.29 209.517C397.132 210.318 396.836 211.063 396.402 211.754C395.955 212.454 395.381 213.06 394.68 213.574C393.979 214.088 393.228 214.452 392.426 214.668C391.624 214.883 390.824 214.941 390.026 214.84C389.205 214.737 388.432 214.47 387.707 214.042C386.96 213.61 386.301 213.006 385.731 212.228C385.162 211.451 384.788 210.647 384.611 209.817C384.411 208.984 384.39 208.167 384.548 207.366C384.683 206.562 384.974 205.81 385.421 205.11C385.868 204.41 386.442 203.803 387.143 203.29C387.844 202.776 388.596 202.411 389.397 202.196C390.187 201.99 390.991 201.939 391.812 202.042C392.623 202.134 393.402 202.395 394.15 202.827C394.875 203.255 395.523 203.858 396.092 204.635ZM393.116 211.4C393.754 210.933 394.229 210.379 394.543 209.738C394.856 209.096 394.996 208.445 394.962 207.785C394.929 207.124 394.706 206.513 394.295 205.952C393.894 205.404 393.383 205.015 392.763 204.783C392.121 204.549 391.447 204.484 390.741 204.59C390.022 204.706 389.351 204.992 388.726 205.45C388.089 205.917 387.614 206.471 387.3 207.112C386.986 207.753 386.851 208.411 386.894 209.084C386.915 209.754 387.127 210.364 387.528 210.912C387.939 211.472 388.461 211.864 389.094 212.085C389.726 212.307 390.396 212.365 391.102 212.259C391.795 212.163 392.466 211.876 393.116 211.4Z" fill="white"/>
<path d="M373.584 202.208L372.363 199.905L384.485 193.474C385.043 193.178 385.354 192.905 385.419 192.656C385.484 192.407 385.45 192.157 385.316 191.906C385.168 191.627 385.003 191.383 384.822 191.176C384.632 190.954 384.448 190.775 384.268 190.638L385.912 189.337C386.229 189.598 386.559 189.932 386.901 190.341C387.243 190.75 387.51 191.136 387.702 191.499C388.117 192.28 388.227 193.009 388.031 193.685C387.821 194.369 387.325 194.918 386.544 195.333L373.584 202.208Z" fill="white"/>
<path d="M382.999 180.905C383.324 181.812 383.463 182.694 383.417 183.549C383.35 184.395 383.137 185.185 382.778 185.917C382.405 186.655 381.914 187.3 381.306 187.853C380.678 188.397 379.955 188.815 379.137 189.107C378.036 189.501 376.941 189.607 375.853 189.426C374.75 189.25 373.761 188.807 372.886 188.096C371.996 187.391 371.333 186.428 370.896 185.209C370.46 183.989 370.367 182.839 370.619 181.759C370.85 180.669 371.331 179.717 372.063 178.901C372.795 178.086 373.682 177.492 374.723 177.119C374.902 177.055 375.076 177.002 375.245 176.958C375.399 176.92 375.53 176.889 375.64 176.867L378.984 186.217C379.653 185.928 380.189 185.526 380.592 185.013C380.976 184.49 381.223 183.914 381.334 183.287C381.431 182.666 381.373 182.057 381.16 181.462C380.926 180.807 380.541 180.249 380.006 179.785C379.466 179.307 378.891 179.06 378.281 179.043L378.133 176.73C378.789 176.781 379.441 176.984 380.088 177.34C380.715 177.686 381.288 178.161 381.806 178.764C382.309 179.373 382.707 180.087 382.999 180.905ZM377.379 186.867L374.857 179.815C374.203 180.099 373.685 180.503 373.301 181.026C372.898 181.539 372.648 182.107 372.551 182.729C372.435 183.341 372.488 183.96 372.712 184.584C372.93 185.194 373.281 185.706 373.765 186.121C374.228 186.525 374.779 186.798 375.417 186.939C376.04 187.086 376.694 187.062 377.379 186.867Z" fill="white"/>
<path d="M376.797 146.037L364.806 146.203L373.975 151.03L373.996 152.594L364.965 157.696L376.956 157.53L376.993 160.184L360.168 160.417L360.128 157.573L370.336 151.862L359.974 146.436L359.935 143.592L376.76 143.359L376.797 146.037Z" fill="white"/>
<path d="M373.999 133.526C373.228 133.352 372.606 132.985 372.133 132.425C371.648 131.846 371.339 131.136 371.204 130.296C371.054 129.453 371.094 128.522 371.323 127.505C371.444 126.965 371.606 126.427 371.808 125.889C372.014 125.337 372.25 124.863 372.517 124.47L371.754 124.298C370.906 124.107 370.186 124.212 369.594 124.613C369.001 125.014 368.597 125.692 368.382 126.648C368.229 127.326 368.208 127.994 368.32 128.65C368.415 129.303 368.602 130.018 368.881 130.793L366.978 131.263C366.619 130.34 366.399 129.448 366.317 128.588C366.239 127.712 366.301 126.827 366.502 125.933C366.867 124.314 367.585 123.14 368.657 122.41C369.716 121.661 371.032 121.463 372.604 121.817L377.113 122.833C377.406 122.899 377.624 122.9 377.768 122.835C377.916 122.755 378.025 122.594 378.096 122.35L380.131 122.809C380.125 123.05 380.109 123.265 380.083 123.454C380.056 123.642 380.029 123.798 380.002 123.922C379.88 124.461 379.657 124.84 379.332 125.058C379.008 125.277 378.663 125.369 378.298 125.335L377.589 125.249C378.149 125.925 378.522 126.714 378.708 127.614C378.894 128.515 378.893 129.381 378.705 130.213C378.525 131.015 378.201 131.695 377.735 132.254C377.254 132.81 376.688 133.2 376.038 133.426C375.388 133.652 374.708 133.685 373.999 133.526ZM376.474 125.993C376.315 125.763 376.148 125.572 375.972 125.419C375.796 125.265 375.63 125.172 375.476 125.137L374.089 124.824C373.822 125.218 373.597 125.645 373.412 126.105C373.212 126.562 373.059 127.022 372.955 127.484C372.747 128.409 372.762 129.206 373 129.875C373.241 130.529 373.685 130.928 374.333 131.074C374.687 131.154 375.047 131.138 375.413 131.026C375.781 130.899 376.106 130.68 376.386 130.371C376.67 130.046 376.873 129.614 376.994 129.074C377.119 128.52 377.131 127.963 377.03 127.406C376.929 126.849 376.743 126.378 376.474 125.993Z" fill="white"/>
<path d="M383.817 110.534C383.841 110.781 383.852 111.081 383.851 111.436C383.849 111.791 383.816 112.185 383.751 112.617C383.692 113.035 383.583 113.45 383.424 113.863C383.231 114.364 382.963 114.794 382.622 115.154C382.28 115.513 381.866 115.751 381.381 115.869C380.886 115.966 380.329 115.896 379.71 115.657L372.478 112.871L371.89 114.397L370.01 113.673L370.598 112.147L366.795 110.681L367.732 108.248L371.536 109.714L372.507 107.193L374.387 107.917L373.415 110.438L379.873 112.926C380.283 113.05 380.626 113.038 380.903 112.891C381.185 112.729 381.392 112.479 381.522 112.139C381.653 111.8 381.719 111.453 381.72 111.098C381.722 110.743 381.714 110.478 381.697 110.302L383.817 110.534Z" fill="white"/>
<path d="M388.743 102.642C388.268 103.481 387.692 104.162 387.015 104.686C386.331 105.189 385.588 105.54 384.785 105.74C383.983 105.939 383.167 105.986 382.337 105.88C381.515 105.76 380.726 105.486 379.97 105.059C378.952 104.483 378.152 103.731 377.57 102.803C376.996 101.861 376.687 100.833 376.645 99.7203C376.611 98.5936 376.916 97.4595 377.562 96.318C378.184 95.2178 378.972 94.402 379.926 93.8706C380.874 93.3176 381.863 93.0781 382.892 93.1519L382.345 95.7559C381.751 95.7468 381.202 95.8991 380.698 96.213C380.188 96.5053 379.781 96.9196 379.478 97.456C379.135 98.0611 378.982 98.7007 379.019 99.3747C379.049 100.027 379.258 100.653 379.644 101.253C380.025 101.832 380.573 102.323 381.288 102.728C381.976 103.116 382.683 103.326 383.411 103.356C384.124 103.378 384.782 103.242 385.384 102.948C385.981 102.631 386.45 102.171 386.792 101.566C387.002 101.194 387.142 100.802 387.213 100.388C387.278 99.9524 387.274 99.5419 387.202 99.1561C387.116 98.7626 386.966 98.433 386.753 98.1674L388.674 96.3128C389.078 96.85 389.354 97.469 389.502 98.1699C389.658 98.8571 389.681 99.587 389.571 100.36C389.454 101.111 389.178 101.871 388.743 102.642Z" fill="white"/>
<path d="M401.789 84.0678L400.103 86.0562L394.807 81.5651C393.952 80.8396 393.18 80.4546 392.493 80.4103C391.805 80.366 391.221 80.627 390.741 81.1934C390.445 81.5429 390.234 81.9861 390.11 82.5232C389.987 83.0603 389.971 83.6165 390.063 84.1918C390.143 84.7569 390.344 85.2897 390.665 85.7901L396.287 90.5571L394.601 92.5455L381.405 81.3561L383.091 79.3677L388.731 84.15C388.399 83.2469 388.318 82.3288 388.488 81.3956C388.645 80.4522 389.031 79.6189 389.644 78.8959C390.145 78.3054 390.661 77.9042 391.193 77.6923C391.725 77.4804 392.263 77.4193 392.809 77.5089C393.352 77.5763 393.895 77.7671 394.436 78.0812C394.976 78.3732 395.505 78.7388 396.023 79.1782L401.789 84.0678Z" fill="white"/>
<path d="M406.643 79.3023L398.335 70.1033L400.27 68.356L408.577 77.5551L406.643 79.3023ZM396.969 68.5907L395.047 66.4624L396.982 64.7151L398.904 66.8434L396.969 68.5907Z" fill="white"/>
<path d="M421.143 68.0771L418.993 69.5516L415.066 63.825C414.413 62.8738 413.779 62.284 413.162 62.0554C412.559 61.818 411.957 61.9048 411.358 62.3158C410.941 62.6018 410.595 62.992 410.321 63.4865C410.061 63.972 409.892 64.5089 409.817 65.0971C409.732 65.6724 409.779 66.2437 409.958 66.811L414.127 72.8894L411.977 74.364L404.966 64.1421L406.92 62.8016L408.328 64.8538C408.276 64.219 408.346 63.5958 408.54 62.984C408.738 62.3504 409.041 61.7591 409.45 61.2103C409.859 60.6615 410.363 60.1815 410.963 59.7704C411.575 59.3504 412.153 59.1171 412.696 59.0705C413.251 59.015 413.774 59.1067 414.264 59.3457C414.757 59.5627 415.218 59.8985 415.644 60.353C416.075 60.7856 416.483 61.282 416.867 61.8423L421.143 68.0771Z" fill="white"/>
<path d="M431.928 62.4853C431.157 62.8114 430.387 62.957 429.617 62.9221C428.841 62.8726 428.107 62.6771 427.414 62.3355C426.735 61.9878 426.117 61.52 425.56 60.9322C425.017 60.3383 424.582 59.6557 424.256 58.8844C423.912 58.0694 423.72 57.25 423.68 56.4262C423.641 55.6023 423.74 54.8227 423.978 54.0874C424.225 53.3314 424.603 52.6652 425.114 52.0889C425.626 51.5125 426.274 51.0583 427.06 50.726C427.977 50.3384 428.869 50.2184 429.738 50.3658C430.621 50.5071 431.436 50.8316 432.182 51.3394L431.269 49.1783L433.386 48.2831L438.074 59.3725C438.542 60.4785 438.67 61.531 438.457 62.5299C438.259 63.5227 437.788 64.4167 437.044 65.2117C436.299 66.0068 435.352 66.6474 434.202 67.1334C432.936 67.6687 431.796 67.8934 430.782 67.8075C429.768 67.7215 428.81 67.4233 427.908 66.9126L428.726 65.0743C429.421 65.501 430.178 65.7298 430.997 65.7608C431.831 65.7857 432.641 65.632 433.427 65.2997C434.082 65.0229 434.633 64.6439 435.082 64.1627C435.551 63.6899 435.845 63.1281 435.965 62.4772C436.09 61.8409 435.993 61.1444 435.673 60.3876L434.935 58.6413C434.816 59.4975 434.484 60.2728 433.937 60.9672C433.384 61.6471 432.714 62.1531 431.928 62.4853ZM431.893 60.2103C432.257 60.0565 432.581 59.8506 432.867 59.5927C433.146 59.3202 433.381 59.0237 433.571 58.703C433.77 58.3617 433.916 58.017 434.009 57.6689C434.096 57.3062 434.118 56.9537 434.077 56.6111L432.812 53.6205C432.414 53.2057 431.963 52.8902 431.46 52.674C430.951 52.4433 430.435 52.3184 429.912 52.2992C429.389 52.28 428.902 52.3658 428.451 52.5565C427.927 52.778 427.504 53.0944 427.18 53.5056C426.865 53.8962 426.642 54.3422 426.511 54.8436C426.373 55.3305 426.323 55.8406 426.36 56.374C426.397 56.9074 426.52 57.4214 426.729 57.9162C426.95 58.4401 427.244 58.8908 427.609 59.2681C427.989 59.6392 428.416 59.939 428.89 60.1675C429.358 60.3814 429.853 60.498 430.376 60.5171C430.892 60.5218 431.398 60.4195 431.893 60.2103Z" fill="white"/>
<path d="M452.184 50.3166L451.857 47.9933L458.874 47.0048L459.201 49.3282L452.184 50.3166Z" fill="white"/>
<circle cx="150" cy="150" r="150" fill="url(#paint1_linear_2800_9)"/>
<path d="M153.534 46.0666L156.605 21.908L172.699 23.9539L172.271 27.3225L159.988 25.7611L159.071 32.9746L169.347 34.2808L168.945 37.4453L158.669 36.139L157.345 46.5511L153.534 46.0666Z" fill="white"/>
<path d="M179.906 44.8471C180.337 43.7879 181.008 42.9869 181.919 42.4441C182.861 41.8887 183.947 41.6143 185.178 41.621C186.418 41.6065 187.738 41.8833 189.136 42.4514C189.877 42.7526 190.608 43.1112 191.327 43.527C192.068 43.9514 192.688 44.4006 193.186 44.8746L193.612 43.826C194.086 42.6608 194.106 41.6079 193.674 40.6671C193.242 39.7263 192.369 38.9891 191.056 38.4554C190.123 38.0767 189.175 37.8889 188.211 37.8922C187.256 37.8743 186.192 37.9725 185.019 38.187L184.798 35.3578C186.201 35.0639 187.527 34.9607 188.775 35.0481C190.044 35.1442 191.293 35.4418 192.521 35.9411C194.746 36.8449 196.253 38.1482 197.042 39.851C197.86 41.5412 197.831 43.4667 196.953 45.6276L194.435 51.8241C194.272 52.2266 194.219 52.5384 194.277 52.7596C194.357 52.9893 194.562 53.1836 194.892 53.3425L193.756 56.1389C193.412 56.0733 193.109 55.9995 192.846 55.9174C192.583 55.8353 192.367 55.7598 192.198 55.691C191.456 55.3897 190.968 54.9815 190.733 54.4664C190.498 53.9514 190.448 53.4373 190.582 52.9242L190.874 51.9322C189.775 52.5716 188.561 52.9175 187.232 52.9697C185.902 53.022 184.665 52.8157 183.522 52.3509C182.42 51.9033 181.525 51.2806 180.837 50.4828C180.158 49.6638 179.734 48.7634 179.565 47.7816C179.397 46.7998 179.51 45.8216 179.906 44.8471ZM190.075 50.1635C190.441 49.9914 190.754 49.7978 191.014 49.5826C191.274 49.3675 191.448 49.154 191.534 48.9421L192.308 47.0355C191.81 46.5614 191.254 46.138 190.64 45.7653C190.035 45.3713 189.415 45.0453 188.779 44.787C187.508 44.2706 186.367 44.103 185.355 44.2844C184.365 44.4743 183.689 45.0142 183.327 45.9039C183.129 46.3912 183.067 46.9089 183.14 47.4571C183.235 48.0138 183.47 48.5289 183.845 49.0023C184.242 49.4843 184.811 49.8759 185.552 50.1772C186.315 50.487 187.106 50.6357 187.926 50.6232C188.745 50.6106 189.462 50.4574 190.075 50.1635Z" fill="white"/>
<path d="M208.928 65.518C207.713 64.6227 206.705 63.5817 205.903 62.3948C205.116 61.1895 204.627 59.9062 204.437 58.5449L207.075 57.3357C207.361 58.6825 207.796 59.8267 208.38 60.7685C208.983 61.7238 209.698 62.5067 210.526 63.1171C211.373 63.741 212.179 64.0932 212.943 64.1736C213.721 64.2357 214.341 63.9537 214.802 63.3278C215.141 62.8676 215.254 62.4253 215.141 62.0009C215.027 61.5765 214.765 61.0848 214.353 60.5258C213.96 59.9803 213.469 59.335 212.882 58.5899C212.082 57.5174 211.454 56.5577 210.999 55.7109C210.557 54.8456 210.344 54.0357 210.361 53.2809C210.377 52.5261 210.67 51.7621 211.24 50.989C211.932 50.0501 212.761 49.4257 213.728 49.1156C214.695 48.8056 215.731 48.7876 216.835 49.0618C217.958 49.3496 219.081 49.9072 220.204 50.7346C221.254 51.5078 222.098 52.3856 222.737 53.3681C223.409 54.3457 223.834 55.426 224.013 56.609L221.23 57.6685C221.02 56.6046 220.676 55.6837 220.198 54.9057C219.739 54.1412 219.123 53.4742 218.35 52.9045C217.908 52.5789 217.444 52.3222 216.957 52.1342C216.485 51.9278 216.008 51.861 215.529 51.9336C215.081 52.0015 214.681 52.2747 214.328 52.7533C214.044 53.1399 213.923 53.5342 213.968 53.9363C214.013 54.3384 214.195 54.7851 214.514 55.2763C214.834 55.7675 215.242 56.3518 215.737 57.029C216.615 58.1878 217.329 59.2245 217.876 60.1392C218.437 61.0354 218.739 61.8972 218.783 62.7247C218.858 63.5472 218.571 64.4004 217.92 65.284C216.889 66.6831 215.557 67.3918 213.924 67.4102C212.324 67.4238 210.658 66.7931 208.928 65.518Z" fill="white"/>
<path d="M230.041 83.1401C229.707 83.012 229.31 82.8326 228.851 82.6019C228.392 82.3712 227.903 82.0744 227.385 81.7116C226.882 81.3657 226.415 80.9566 225.983 80.4843C225.458 79.9108 225.073 79.2868 224.827 78.6124C224.582 77.9379 224.54 77.2482 224.7 76.5432C224.893 75.8396 225.344 75.1635 226.052 74.5151L234.326 66.9423L232.728 65.1965L234.879 63.228L236.477 64.9738L240.829 60.9906L243.376 63.7738L239.024 67.757L241.664 70.6414L239.514 72.6099L236.873 69.7255L229.485 76.4877C229.061 76.9383 228.855 77.3905 228.867 77.8442C228.895 78.3148 229.086 78.7441 229.441 79.132C229.796 79.52 230.203 79.8293 230.663 80.06C231.122 80.2908 231.471 80.4518 231.709 80.5433L230.041 83.1401Z" fill="white"/>
<path d="M237.848 96.3215C237.154 95.1119 236.73 93.8917 236.577 92.6611C236.456 91.4389 236.557 90.2602 236.881 89.1251C237.224 87.9785 237.758 86.9337 238.483 85.9906C239.238 85.0559 240.161 84.2754 241.252 83.6492C242.719 82.8067 244.251 82.3753 245.848 82.355C247.465 82.3234 248.987 82.7018 250.415 83.4902C251.863 84.2672 253.054 85.4688 253.988 87.0949C254.921 88.721 255.347 90.3354 255.266 91.938C255.215 93.5491 254.773 95.0291 253.939 96.3781C253.105 97.727 251.994 98.8 250.606 99.5969C250.368 99.7336 250.134 99.8546 249.904 99.96C249.695 100.054 249.515 100.131 249.364 100.191L242.209 87.7273C241.331 88.3105 240.67 89.0195 240.226 89.8543C239.814 90.6975 239.609 91.58 239.61 92.5017C239.632 93.4121 239.871 94.264 240.326 95.0572C240.827 95.9297 241.518 96.6275 242.398 97.1504C243.29 97.6931 244.172 97.8984 245.046 97.7661L245.848 101.023C244.901 101.119 243.92 100.996 242.907 100.655C241.925 100.322 240.988 99.7924 240.096 99.0653C239.224 98.3268 238.475 97.4122 237.848 96.3215ZM244.329 86.3913L249.726 95.791C250.584 95.2192 251.219 94.5117 251.632 93.6685C252.075 92.8337 252.286 91.9611 252.264 91.0507C252.274 90.1488 252.04 89.2813 251.561 88.4485C251.095 87.6354 250.464 86.9957 249.668 86.5293C248.905 86.0714 248.05 85.8236 247.106 85.7858C246.181 85.7366 245.255 85.9385 244.329 86.3913Z" fill="white"/>
<path d="M264.218 120.089C263.765 118.697 263.064 117.549 262.116 116.645C261.174 115.763 260.075 115.264 258.819 115.149L248.33 118.381L247.219 114.775L264.362 109.492L265.392 112.836L261.557 114.018C262.919 114.244 264.098 114.73 265.094 115.476C266.111 116.216 266.817 117.111 267.213 118.161C267.28 118.38 267.334 118.555 267.375 118.686C267.422 118.839 267.451 118.973 267.463 119.089L264.218 120.089Z" fill="white"/>
<path d="M266.398 144.295C267.88 144.399 269.31 144.762 270.688 145.386C272.088 146.011 273.335 146.867 274.428 147.952C275.542 149.061 276.391 150.37 276.973 151.878C277.577 153.387 277.815 155.066 277.686 156.913C277.532 159.103 276.898 160.961 275.783 162.488C274.69 164.016 273.341 165.113 271.735 165.78L269.927 162.628C270.94 162.24 271.757 161.713 272.376 161.046C272.995 160.402 273.446 159.677 273.732 158.872C274.016 158.089 274.185 157.31 274.24 156.535C274.329 155.257 274.145 154.121 273.687 153.126C273.253 152.133 272.636 151.276 271.839 150.556C271.04 149.858 270.127 149.301 269.102 148.885C268.075 148.493 267.037 148.259 265.988 148.186C264.824 148.104 263.682 148.219 262.559 148.53C261.46 148.843 260.465 149.312 259.573 149.937C258.702 150.587 257.994 151.374 257.447 152.298C256.901 153.223 256.588 154.255 256.508 155.396C256.454 156.172 256.534 156.991 256.749 157.854C256.964 158.717 257.331 159.522 257.852 160.269C258.394 161.041 259.13 161.666 260.059 162.143L258.023 165.198C256.849 164.612 255.877 163.753 255.108 162.622C254.338 161.513 253.782 160.282 253.442 158.929C253.099 157.598 252.973 156.295 253.062 155.017C253.182 153.306 253.645 151.769 254.451 150.404C255.28 149.041 256.324 147.887 257.582 146.944C258.863 146.002 260.264 145.298 261.787 144.832C263.332 144.367 264.869 144.188 266.398 144.295Z" fill="white"/>
<path d="M255.384 179.073C256.451 179.485 257.264 180.141 257.822 181.043C258.394 181.975 258.688 183.056 258.703 184.288C258.739 185.527 258.485 186.851 257.942 188.259C257.654 189.006 257.308 189.742 256.905 190.469C256.494 191.217 256.055 191.845 255.59 192.351L256.646 192.759C257.819 193.212 258.872 193.214 259.805 192.765C260.739 192.317 261.46 191.431 261.971 190.108C262.333 189.17 262.504 188.218 262.484 187.255C262.485 186.299 262.368 185.237 262.133 184.068L264.958 183.798C265.277 185.195 265.403 186.519 265.338 187.768C265.264 189.039 264.988 190.292 264.511 191.53C263.646 193.77 262.369 195.299 260.681 196.118C259.005 196.966 257.079 196.971 254.903 196.131L248.664 193.722C248.258 193.566 247.946 193.519 247.725 193.581C247.497 193.664 247.306 193.872 247.153 194.205L244.337 193.119C244.397 192.774 244.466 192.469 244.543 192.205C244.62 191.941 244.692 191.724 244.758 191.553C245.046 190.806 245.446 190.311 245.957 190.067C246.467 189.823 246.981 189.764 247.496 189.889L248.493 190.163C247.834 189.076 247.467 187.868 247.392 186.54C247.316 185.211 247.501 183.971 247.945 182.819C248.373 181.71 248.98 180.805 249.766 180.103C250.573 179.409 251.466 178.97 252.444 178.784C253.423 178.598 254.403 178.694 255.384 179.073ZM250.247 189.333C250.426 189.696 250.625 190.006 250.845 190.262C251.064 190.519 251.281 190.688 251.494 190.77L253.414 191.512C253.879 191.005 254.293 190.441 254.655 189.821C255.038 189.209 255.353 188.583 255.6 187.943C256.094 186.663 256.242 185.519 256.043 184.511C255.835 183.524 255.284 182.858 254.388 182.512C253.897 182.323 253.378 182.269 252.832 182.352C252.277 182.457 251.766 182.701 251.299 183.084C250.824 183.489 250.442 184.065 250.154 184.812C249.858 185.58 249.723 186.373 249.75 187.193C249.777 188.012 249.943 188.725 250.247 189.333Z" fill="white"/>
<path d="M229.62 216.673L231.878 213.65L239.93 219.664C241.267 220.663 242.411 221.176 243.363 221.201C244.3 221.245 245.084 220.846 245.713 220.003C246.151 219.417 246.443 218.721 246.588 217.916C246.719 217.129 246.699 216.315 246.528 215.474C246.376 214.647 246.045 213.886 245.536 213.192L236.99 206.808L239.248 203.785L253.619 214.521L251.567 217.269L248.681 215.113C249.049 215.959 249.243 216.846 249.263 217.774C249.287 218.734 249.147 219.686 248.843 220.629C248.538 221.571 248.071 222.464 247.442 223.307C246.798 224.168 246.116 224.757 245.394 225.073C244.658 225.409 243.899 225.527 243.117 225.428C242.339 225.361 241.552 225.115 240.756 224.691C239.964 224.299 239.174 223.809 238.386 223.221L229.62 216.673Z" fill="white"/>
<path d="M227.075 233.316C228.099 234.692 228.751 236.145 229.033 237.673C229.31 239.234 229.208 240.706 228.727 242.09C228.259 243.492 227.392 244.664 226.126 245.605C225.025 246.424 223.823 246.877 222.519 246.963C221.197 247.062 219.974 246.874 218.851 246.399L225.114 254.821L222.086 257.073L209.683 240.393C209.424 240.044 209.176 239.844 208.938 239.793C208.7 239.742 208.428 239.816 208.121 240.016L206.32 237.594C206.82 237.079 207.227 236.706 207.539 236.474C208.107 236.051 208.716 235.854 209.366 235.884C209.997 235.928 210.492 236.173 210.851 236.618L211.677 237.671C211.545 236.344 211.756 235.076 212.31 233.866C212.878 232.675 213.666 231.704 214.675 230.953C215.666 230.217 216.727 229.727 217.857 229.485C218.97 229.256 220.097 229.258 221.239 229.492C222.363 229.739 223.434 230.182 224.451 230.822C225.45 231.476 226.325 232.307 227.075 233.316ZM214.021 239.903L216.825 243.674C217.463 244.111 218.183 244.388 218.982 244.506C219.778 244.656 220.562 244.656 221.335 244.509C222.091 244.375 222.743 244.103 223.294 243.694C223.936 243.216 224.421 242.642 224.748 241.971C225.058 241.314 225.234 240.612 225.278 239.867C225.304 239.135 225.2 238.401 224.965 237.664C224.73 236.926 224.374 236.237 223.897 235.594C223.405 234.934 222.831 234.392 222.174 233.968C221.531 233.563 220.837 233.281 220.093 233.123C219.343 232.996 218.607 233.002 217.883 233.141C217.156 233.312 216.471 233.636 215.828 234.114C215.425 234.414 215.076 234.787 214.781 235.234C214.468 235.695 214.224 236.19 214.048 236.72C213.853 237.263 213.757 237.805 213.76 238.345C213.744 238.898 213.831 239.417 214.021 239.903Z" fill="white"/>
<path d="M195.656 243.534L203.235 259.793L199.815 261.387L192.237 245.128L195.656 243.534ZM204.481 262.467L206.234 266.229L202.814 267.823L201.061 264.061L204.481 262.467Z" fill="white"/>
<path d="M187.954 257.321C188.347 258.991 188.37 260.583 188.023 262.098C187.658 263.64 186.981 264.951 185.99 266.031C185.004 267.132 183.744 267.864 182.208 268.226C180.873 268.541 179.59 268.479 178.359 268.041C177.105 267.609 176.058 266.951 175.215 266.069L177.624 276.285L173.952 277.151L169.182 256.92C169.082 256.497 168.933 256.215 168.735 256.073C168.538 255.932 168.258 255.892 167.897 255.954L167.204 253.016C167.868 252.742 168.389 252.56 168.767 252.471C169.457 252.309 170.094 252.37 170.678 252.655C171.24 252.945 171.598 253.366 171.751 253.917L172.091 255.211C172.497 253.941 173.194 252.861 174.182 251.97C175.175 251.101 176.284 250.523 177.508 250.234C178.71 249.951 179.878 249.922 181.012 250.148C182.123 250.379 183.157 250.829 184.113 251.496C185.047 252.168 185.854 253 186.534 253.991C187.192 254.987 187.665 256.097 187.954 257.321ZM173.358 258.19L174.436 262.764C174.849 263.418 175.399 263.958 176.087 264.383C176.757 264.836 177.477 265.148 178.245 265.319C178.992 265.496 179.699 265.505 180.367 265.348C181.146 265.164 181.818 264.829 182.385 264.343C182.93 263.862 183.37 263.289 183.706 262.622C184.02 261.961 184.216 261.245 184.292 260.475C184.369 259.705 184.316 258.931 184.132 258.152C183.943 257.351 183.631 256.625 183.196 255.976C182.767 255.349 182.241 254.815 181.62 254.374C180.983 253.961 180.304 253.674 179.585 253.515C178.849 253.383 178.092 253.409 177.313 253.593C176.823 253.708 176.355 253.913 175.907 254.206C175.437 254.505 175.016 254.862 174.645 255.279C174.251 255.701 173.948 256.16 173.736 256.656C173.502 257.158 173.376 257.669 173.358 258.19Z" fill="white"/>
<path d="M155.175 260.018C155.119 261.16 154.75 262.138 154.069 262.951C153.364 263.786 152.429 264.404 151.265 264.805C150.099 265.228 148.763 265.403 147.255 265.329C146.456 265.289 145.648 265.192 144.831 265.038C143.992 264.882 143.259 264.663 142.631 264.38L142.576 265.51C142.514 266.766 142.842 267.767 143.561 268.512C144.28 269.257 145.348 269.665 146.764 269.735C147.768 269.784 148.725 269.648 149.634 269.326C150.542 269.028 151.514 268.583 152.55 267.993L153.693 270.591C152.466 271.332 151.249 271.867 150.042 272.197C148.813 272.525 147.535 272.657 146.211 272.592C143.813 272.474 141.96 271.742 140.653 270.395C139.321 269.07 138.713 267.243 138.828 264.914L139.157 258.233C139.178 257.799 139.125 257.488 138.997 257.298C138.846 257.108 138.588 256.992 138.224 256.951L138.372 253.936C138.718 253.885 139.029 253.854 139.304 253.845C139.579 253.835 139.808 253.835 139.991 253.844C140.79 253.884 141.386 254.108 141.778 254.516C142.17 254.925 142.387 255.393 142.43 255.922L142.482 256.955C143.308 255.988 144.34 255.26 145.577 254.772C146.815 254.283 148.05 254.069 149.283 254.13C150.471 254.189 151.521 254.481 152.434 255.006C153.346 255.555 154.043 256.265 154.527 257.136C155.011 258.007 155.227 258.967 155.175 260.018ZM143.821 258.36C143.532 258.643 143.3 258.93 143.126 259.219C142.952 259.508 142.859 259.766 142.847 259.995L142.746 262.05C143.373 262.333 144.038 262.549 144.74 262.698C145.442 262.87 146.135 262.973 146.82 263.006C148.19 263.074 149.323 262.855 150.218 262.349C151.09 261.843 151.55 261.11 151.597 260.151C151.623 259.626 151.51 259.116 151.26 258.623C150.987 258.129 150.595 257.72 150.084 257.398C149.55 257.074 148.884 256.892 148.085 256.853C147.262 256.812 146.467 256.933 145.697 257.216C144.928 257.499 144.302 257.88 143.821 258.36Z" fill="white"/>
<path d="M117.728 250.544C118.078 250.471 118.509 250.408 119.02 250.354C119.531 250.3 120.102 250.286 120.734 250.311C121.344 250.331 121.959 250.423 122.577 250.586C123.329 250.785 123.99 251.103 124.561 251.538C125.132 251.973 125.54 252.53 125.786 253.21C126.003 253.907 125.989 254.719 125.744 255.647L122.872 266.49L125.16 267.096L124.414 269.914L122.126 269.308L120.616 275.011L116.968 274.045L118.479 268.342L114.699 267.341L115.445 264.523L119.225 265.524L121.789 255.842C121.903 255.233 121.832 254.742 121.576 254.366C121.299 253.985 120.906 253.728 120.398 253.593C119.889 253.458 119.379 253.418 118.868 253.472C118.357 253.526 117.977 253.579 117.726 253.631L117.728 250.544Z" fill="white"/>
<path d="M104.023 243.64C105.26 244.286 106.274 245.086 107.065 246.04C107.826 247.005 108.375 248.052 108.713 249.183C109.041 250.335 109.154 251.503 109.051 252.687C108.918 253.882 108.56 255.036 107.979 256.151C107.196 257.651 106.137 258.84 104.802 259.717C103.457 260.614 101.97 261.115 100.342 261.219C98.7037 261.344 97.0533 260.973 95.391 260.105C93.7287 259.238 92.5006 258.107 91.7066 256.712C90.8817 255.327 90.4575 253.842 90.4339 252.256C90.4104 250.671 90.7689 249.168 91.5095 247.749C91.6365 247.506 91.7683 247.278 91.9049 247.066C92.031 246.874 92.1412 246.712 92.2355 246.58L104.976 253.23C105.402 252.266 105.577 251.313 105.502 250.37C105.395 249.438 105.093 248.584 104.595 247.808C104.086 247.052 103.427 246.463 102.616 246.04C101.724 245.574 100.766 245.358 99.743 245.392C98.6993 245.414 97.8452 245.717 97.1805 246.298L94.7506 243.985C95.4973 243.395 96.3894 242.971 97.4269 242.713C98.4335 242.464 99.5085 242.406 100.652 242.538C101.784 242.691 102.908 243.058 104.023 243.64ZM103.909 255.497L94.3002 250.482C93.8849 251.426 93.7305 252.365 93.8371 253.297C93.9127 254.24 94.2048 255.088 94.7133 255.844C95.1909 256.609 95.8555 257.214 96.7069 257.658C97.538 258.092 98.4142 258.291 99.3353 258.256C100.226 258.231 101.079 257.98 101.895 257.503C102.701 257.046 103.372 256.378 103.909 255.497Z" fill="white"/>
<path d="M72.1609 219.565C73.1437 220.711 73.8921 221.952 74.4063 223.288C74.903 224.64 75.091 226 74.9703 227.369L72.1282 227.955C72.1523 226.578 71.9854 225.366 71.6277 224.317C71.2551 223.25 70.7337 222.327 70.0637 221.546C69.3787 220.748 68.6728 220.223 67.9459 219.973C67.2017 219.738 66.5346 219.874 65.9446 220.38C65.5107 220.752 65.3014 221.158 65.3165 221.597C65.3316 222.036 65.477 222.574 65.7527 223.211C66.0134 223.831 66.3462 224.57 66.7509 225.428C67.2898 226.653 67.686 227.729 67.9395 228.657C68.1756 229.599 68.2009 230.436 68.0153 231.168C67.8297 231.9 67.3724 232.578 66.6436 233.204C65.7585 233.963 64.8101 234.385 63.7982 234.47C62.7863 234.555 61.773 234.34 60.7583 233.824C59.7287 233.292 58.7597 232.496 57.8514 231.437C57.0026 230.448 56.377 229.403 55.9746 228.302C55.54 227.199 55.3682 226.05 55.4593 224.857L58.4094 224.45C58.3752 225.534 58.5035 226.509 58.7942 227.374C59.0699 228.222 59.5205 229.011 60.1459 229.74C60.5033 230.156 60.8979 230.511 61.3296 230.803C61.744 231.11 62.193 231.283 62.6766 231.319C63.1281 231.354 63.5794 231.178 64.0306 230.79C64.395 230.478 64.6006 230.12 64.6476 229.719C64.6945 229.317 64.6173 228.841 64.4161 228.29C64.2149 227.74 63.9492 227.079 63.6189 226.308C63.0229 224.981 62.5609 223.811 62.233 222.796C61.8877 221.797 61.7867 220.889 61.9301 220.073C62.0413 219.255 62.5134 218.488 63.3463 217.773C64.6652 216.642 66.1221 216.25 67.7171 216.599C69.2799 216.945 70.7611 217.934 72.1609 219.565Z" fill="white"/>
<path d="M57.2875 198.114C57.9026 199.391 58.2369 200.639 58.2904 201.856C58.3233 203.084 58.1269 204.257 57.7012 205.376C57.2655 206.474 56.6475 207.457 55.8471 208.325C55.0261 209.202 54.049 209.914 52.9159 210.46C51.7828 211.005 50.6172 211.326 49.4192 211.42C48.2212 211.515 47.0674 211.385 45.9579 211.031C44.8178 210.667 43.7884 210.084 42.8696 209.283C41.9203 208.471 41.143 207.436 40.5378 206.18C39.9326 204.923 39.6136 203.681 39.5807 202.453C39.5173 201.214 39.7034 200.046 40.1391 198.948C40.5442 197.839 41.1572 196.846 41.9782 195.969C42.7992 195.091 43.7763 194.379 44.9094 193.834C46.0426 193.288 47.2081 192.968 48.4061 192.873C49.5836 192.788 50.7423 192.928 51.8823 193.293C53.0125 193.637 54.0522 194.215 55.0015 195.027C55.9203 195.828 56.6823 196.857 57.2875 198.114ZM51.2651 206.953C52.2953 206.457 53.1182 205.794 53.7339 204.964C54.3497 204.135 54.7208 203.245 54.8475 202.296C54.9741 201.347 54.8191 200.419 54.3826 199.513C53.9559 198.627 53.3321 197.937 52.511 197.444C51.6594 196.941 50.7173 196.671 49.6849 196.635C48.6319 196.609 47.6006 196.84 46.5911 197.326C45.561 197.822 44.738 198.485 44.1223 199.314C43.5066 200.144 43.1403 201.043 43.0237 202.013C42.8764 202.972 43.0161 203.895 43.4428 204.781C43.8793 205.687 44.5184 206.382 45.3601 206.865C46.2018 207.348 47.1389 207.607 48.1713 207.643C49.1832 207.689 50.2144 207.459 51.2651 206.953Z" fill="white"/>
<path d="M41.6224 179.329L30.7859 181.074L30.1862 177.349L40.2776 175.724C41.8579 175.469 43.009 174.994 43.7308 174.299C44.4265 173.585 44.6852 172.675 44.5071 171.569C44.3944 170.869 44.1386 170.215 43.7397 169.608C43.3372 168.978 42.8101 168.437 42.1584 167.986C41.4806 167.516 40.708 167.177 39.8408 166.97L28.8012 168.747L28.2014 165.022L41.713 162.847C42.142 162.778 42.434 162.649 42.5892 162.462C42.7444 162.275 42.8041 161.999 42.7686 161.634L45.7486 161.155C45.8781 161.527 45.9741 161.836 46.0367 162.081C46.0993 162.326 46.1487 162.561 46.1851 162.787C46.2941 163.464 46.2044 164.057 45.9159 164.567C45.6048 165.08 45.1612 165.418 44.5852 165.58L42.8351 165.932C44.2492 166.515 45.3966 167.384 46.2775 168.539C47.1358 169.698 47.6867 171.033 47.9302 172.546C48.2283 174.397 47.8441 175.895 46.7777 177.04C45.7113 178.184 43.9928 178.947 41.6224 179.329Z" fill="white"/>
<path d="M31.2421 137.884C31.1707 139.346 31.4177 140.668 31.9831 141.85C32.5499 143.009 33.3997 143.866 34.5326 144.42L45.4859 145.127L45.2431 148.892L27.3413 147.737L27.5665 144.246L31.5713 144.504C30.3788 143.809 29.4498 142.935 28.7843 141.884C28.096 140.832 27.7537 139.744 27.7574 138.621C27.7721 138.393 27.7838 138.211 27.7927 138.074C27.803 137.914 27.8232 137.778 27.8534 137.665L31.2421 137.884Z" fill="white"/>
<path d="M49.1303 123.787C48.747 125.128 48.1673 126.283 47.3914 127.25C46.5997 128.189 45.673 128.935 44.6113 129.488C43.5496 130.04 42.4172 130.383 41.2142 130.514C40.0175 130.624 38.8145 130.506 37.6053 130.161C35.9783 129.695 34.598 128.908 33.4642 127.8C32.3367 126.669 31.5548 125.327 31.1184 123.776C30.6883 122.202 30.734 120.503 31.2556 118.678C31.7584 116.919 32.5909 115.504 33.7532 114.433C34.8998 113.334 36.2097 112.662 37.6828 112.417L37.7954 116.266C36.9568 116.455 36.2359 116.855 35.6327 117.468C35.0139 118.052 34.5819 118.773 34.3368 119.63C34.0603 120.597 34.0617 121.549 34.3412 122.485C34.6049 123.393 35.1105 124.203 35.858 124.916C36.5897 125.601 37.5273 126.107 38.6705 126.434C39.7698 126.748 40.8362 126.803 41.8696 126.599C42.881 126.389 43.7605 125.974 44.5082 125.356C45.2401 124.709 45.7443 123.902 46.0209 122.934C46.1905 122.341 46.255 121.741 46.2142 121.134C46.1578 120.5 46.0134 119.924 45.781 119.405C45.5266 118.881 45.2047 118.468 44.8153 118.166L46.8887 114.906C47.6394 115.525 48.2376 116.302 48.6835 117.238C49.1357 118.152 49.4151 119.172 49.5218 120.296C49.6127 121.392 49.4823 122.556 49.1303 123.787Z" fill="white"/>
<path d="M55.1556 106.186L39.1213 98.1425L40.8131 94.7701L56.8474 102.814L55.1556 106.186ZM36.4846 96.8198L32.775 94.9588L34.4668 91.5863L38.1765 93.4474L36.4846 96.8198Z" fill="white"/>
<path d="M70.2195 82.7061L67.9106 85.6901L59.9622 79.54C58.642 78.5185 57.5065 77.9868 56.5558 77.9451C55.6191 77.8853 54.8288 78.2713 54.1851 79.1032C53.7373 79.682 53.4342 80.3726 53.2758 81.1753C53.1314 81.9598 53.1374 82.774 53.294 83.618C53.4324 84.4479 53.7502 85.2142 54.2474 85.9169L62.684 92.4449L60.3751 95.4289L46.1874 84.451L48.2864 81.7383L51.1348 83.9423C50.7817 83.0908 50.603 82.2008 50.5986 81.2722C50.5902 80.3116 50.7463 79.3626 51.0668 78.4252C51.3874 77.4878 51.8695 76.6031 52.5132 75.7712C53.1709 74.9212 53.8633 74.3439 54.5906 74.0392C55.3318 73.7165 56.0927 73.6113 56.8731 73.7236C57.6495 73.8039 58.4323 74.0627 59.2215 74.4999C60.0067 74.9051 60.7881 75.4085 61.5658 76.0102L70.2195 82.7061Z" fill="white"/>
<path d="M85.0503 68.7301C84.0663 69.4376 83.0257 69.8901 81.9285 70.0876C80.8179 70.2665 79.7186 70.2261 78.6306 69.9664C77.5612 69.6933 76.539 69.2313 75.564 68.5804C74.6076 67.9162 73.7757 67.0921 73.0682 66.1081C72.3206 65.0685 71.7869 63.9736 71.4669 62.8236C71.147 61.6736 71.0371 60.5416 71.1373 59.4275C71.2427 58.2814 71.5637 57.2198 72.1002 56.2426C72.6368 55.2653 73.4063 54.4163 74.4089 53.6954C75.5785 52.8544 76.7999 52.3987 78.0729 52.3282C79.3645 52.2444 80.6185 52.4412 81.8348 52.9185L79.8524 50.1615L82.5537 48.2192L92.7259 62.3662C93.7404 63.7772 94.258 65.2216 94.2786 66.6995C94.3177 68.1641 93.9394 69.5768 93.1435 70.9376C92.3477 72.2985 91.2164 73.5062 89.7497 74.5608C88.1345 75.7221 86.5975 76.4048 85.1388 76.6087C83.6801 76.8127 82.2323 76.6989 80.7956 76.2675L81.3608 73.4108C82.4784 73.7901 83.6204 73.8702 84.7866 73.6513C85.9715 73.4189 87.0651 72.9424 88.0677 72.2215C88.9031 71.6208 89.5601 70.909 90.0387 70.0861C90.5492 69.2684 90.7843 68.3812 90.7441 67.4243C90.7172 66.4861 90.3567 65.5342 89.6625 64.5688L88.0606 62.341C88.1682 63.5873 87.9474 64.7882 87.3981 65.9436C86.8354 67.0804 86.0529 68.0092 85.0503 68.7301ZM84.2707 65.5307C84.7349 65.197 85.127 64.8023 85.4473 64.3468C85.7541 63.8727 85.9905 63.3788 86.1563 62.8653C86.3274 62.3198 86.4228 61.7865 86.4424 61.2655C86.4487 60.7258 86.3674 60.221 86.1984 59.7511L83.4551 55.9358C82.7599 55.4781 82.0226 55.1774 81.2433 55.0336C80.4507 54.8713 79.6824 54.8604 78.9386 55.001C78.1947 55.1416 77.535 55.4188 76.9595 55.8326C76.2911 56.3132 75.7945 56.8955 75.4697 57.5797C75.1501 58.232 74.9782 58.9329 74.954 59.6826C74.9164 60.4138 75.0091 61.1498 75.232 61.8907C75.455 62.6317 75.7934 63.3178 76.2473 63.949C76.7279 64.6174 77.2864 65.1592 77.9231 65.5746C78.5782 65.9765 79.2769 66.2628 80.0191 66.4332C80.7479 66.5851 81.4843 66.5908 82.2281 66.4502C82.9586 66.2911 83.6395 65.9846 84.2707 65.5307Z" fill="white"/>
<path d="M114.719 43.9121L113.888 40.6196L123.832 38.1103L124.663 41.4028L114.719 43.9121Z" fill="white"/>
<circle cx="150" cy="150" r="83" fill="#E5D0FF"/>
<path d="M123.955 156.84C123.955 159.56 123.275 162.04 121.915 164.28C120.595 166.52 118.755 168.3 116.395 169.62C114.075 170.94 111.475 171.6 108.595 171.6C105.475 171.6 102.735 170.86 100.375 169.38C98.0552 167.86 96.2352 165.68 94.9152 162.84C93.6352 160 92.9952 156.62 92.9952 152.7C92.9952 147.26 93.6552 142.72 94.9752 139.08C96.3352 135.44 98.2352 132.7 100.675 130.86C103.115 129.02 105.975 128.1 109.255 128.1C111.975 128.1 114.455 128.74 116.695 130.02C118.975 131.26 120.815 133 122.215 135.24L118.315 139.32C117.395 137.64 116.115 136.32 114.475 135.36C112.875 134.36 111.095 133.86 109.135 133.86C107.175 133.86 105.435 134.44 103.915 135.6C102.435 136.72 101.275 138.36 100.435 140.52C99.6352 142.68 99.2152 145.3 99.1752 148.38C99.7752 147.18 100.555 146.16 101.515 145.32C102.515 144.44 103.675 143.76 104.995 143.28C106.315 142.8 107.715 142.56 109.195 142.56C111.995 142.56 114.495 143.2 116.695 144.48C118.935 145.76 120.695 147.48 121.975 149.64C123.295 151.76 123.955 154.16 123.955 156.84ZM108.595 165.96C110.235 165.96 111.735 165.56 113.095 164.76C114.495 163.92 115.595 162.8 116.395 161.4C117.235 160 117.655 158.48 117.655 156.84C117.655 155.2 117.235 153.7 116.395 152.34C115.595 150.98 114.515 149.9 113.155 149.1C111.795 148.26 110.275 147.84 108.595 147.84C106.995 147.84 105.495 148.26 104.095 149.1C102.695 149.9 101.575 150.98 100.735 152.34C99.9352 153.7 99.5352 155.2 99.5352 156.84C99.5352 158.48 99.9552 160 100.795 161.4C101.635 162.76 102.735 163.86 104.095 164.7C105.495 165.54 106.995 165.96 108.595 165.96ZM160.341 153.42C160.341 156.94 159.661 160.08 158.301 162.84C156.981 165.56 155.161 167.7 152.841 169.26C150.561 170.82 147.941 171.6 144.981 171.6C142.061 171.6 139.441 170.82 137.121 169.26C134.801 167.7 132.961 165.56 131.601 162.84C130.281 160.08 129.621 156.94 129.621 153.42C129.621 149.9 130.281 146.78 131.601 144.06C132.961 141.3 134.801 139.14 137.121 137.58C139.441 135.98 142.061 135.18 144.981 135.18C147.941 135.18 150.561 135.98 152.841 137.58C155.161 139.14 156.981 141.3 158.301 144.06C159.661 146.78 160.341 149.9 160.341 153.42ZM153.621 153.42C153.621 151.02 153.261 148.92 152.541 147.12C151.821 145.28 150.801 143.86 149.481 142.86C148.161 141.82 146.661 141.3 144.981 141.3C143.261 141.3 141.741 141.82 140.421 142.86C139.101 143.86 138.061 145.28 137.301 147.12C136.581 148.92 136.221 151.02 136.221 153.42C136.221 155.82 136.581 157.92 137.301 159.72C138.061 161.52 139.101 162.94 140.421 163.98C141.741 164.98 143.261 165.48 144.981 165.48C146.661 165.48 148.141 164.98 149.421 163.98C150.741 162.94 151.761 161.52 152.481 159.72C153.241 157.92 153.621 155.82 153.621 153.42ZM175.176 145.62C173.416 145.62 171.796 145.22 170.316 144.42C168.876 143.62 167.716 142.56 166.836 141.24C165.996 139.88 165.576 138.38 165.576 136.74C165.576 135.06 165.996 133.56 166.836 132.24C167.716 130.88 168.876 129.8 170.316 129C171.796 128.2 173.416 127.8 175.176 127.8C176.936 127.8 178.536 128.2 179.976 129C181.416 129.8 182.556 130.88 183.396 132.24C184.236 133.56 184.656 135.04 184.656 136.68C184.656 138.32 184.236 139.82 183.396 141.18C182.556 142.54 181.416 143.62 179.976 144.42C178.536 145.22 176.936 145.62 175.176 145.62ZM175.116 142.2C176.036 142.2 176.856 141.96 177.576 141.48C178.336 140.96 178.916 140.28 179.316 139.44C179.756 138.6 179.976 137.7 179.976 136.74C179.976 135.7 179.756 134.76 179.316 133.92C178.876 133.08 178.276 132.42 177.516 131.94C176.796 131.46 176.016 131.22 175.176 131.22C174.256 131.22 173.416 131.48 172.656 132C171.936 132.48 171.356 133.14 170.916 133.98C170.476 134.82 170.256 135.72 170.256 136.68C170.256 137.72 170.476 138.66 170.916 139.5C171.396 140.3 171.996 140.96 172.716 141.48C173.476 141.96 174.276 142.2 175.116 142.2ZM197.196 171.6C195.436 171.6 193.836 171.2 192.396 170.4C190.956 169.6 189.796 168.52 188.916 167.16C188.076 165.8 187.656 164.3 187.656 162.66C187.656 161.02 188.076 159.54 188.916 158.22C189.796 156.86 190.956 155.78 192.396 154.98C193.836 154.18 195.436 153.78 197.196 153.78C198.996 153.78 200.616 154.18 202.056 154.98C203.496 155.74 204.636 156.8 205.476 158.16C206.316 159.52 206.736 161.02 206.736 162.66C206.736 164.3 206.316 165.8 205.476 167.16C204.636 168.52 203.496 169.6 202.056 170.4C200.616 171.2 198.996 171.6 197.196 171.6ZM197.196 168.18C198.116 168.18 198.936 167.92 199.656 167.4C200.416 166.88 200.996 166.22 201.396 165.42C201.836 164.58 202.056 163.68 202.056 162.72C202.056 161.68 201.836 160.74 201.396 159.9C200.956 159.06 200.356 158.4 199.596 157.92C198.876 157.44 198.076 157.2 197.196 157.2C196.316 157.2 195.496 157.46 194.736 157.98C194.016 158.46 193.436 159.12 192.996 159.96C192.556 160.8 192.336 161.7 192.336 162.66C192.336 163.66 192.556 164.58 192.996 165.42C193.476 166.26 194.076 166.94 194.796 167.46C195.516 167.94 196.316 168.18 197.196 168.18ZM168.276 168.6L185.136 148.62L200.976 128.04L204.096 130.74L187.536 150.48L171.336 171.36L168.276 168.6Z" fill="white"/>
<defs>
<linearGradient id="paint0_linear_2800_9" x1="471" y1="29" x2="471" y2="267" gradientUnits="userSpaceOnUse">
<stop stop-color="#C493FF"/>
<stop offset="1" stop-color="#C493FF"/>
</linearGradient>
<linearGradient id="paint1_linear_2800_9" x1="150" y1="0" x2="150" y2="300" gradientUnits="userSpaceOnUse">
<stop stop-color="#C493FF"/>
<stop offset="1" stop-color="#C493FF"/>
</linearGradient>
</defs>
</svg>
